<?xml version="1.0"?>
<svg xmlns="http://www.w3.org/2000/svg" xmlns:xlink="http://www.w3.org/1999/xlink" viewBox="0 0 210.000000 208.000000" width="105.000000mm" height="104.000000mm" version="1.1">
<!-- <rect x="1.000000" y="1.000000" width="209.000000" height="207.000000" rx="0" ry="0" style="stroke:none;fill:#cccccc;"/>
<rect x="0.000000" y="0.000000" width="209.000000" height="207.000000" rx="0" ry="0" style="stroke:none;fill:#ffffff;"/> -->
<text x="10.000000" y="7.000000" font-family="Fira Mono" font-size="7"></text>
<!-- <rect x="97.000000" y="35.000000" width="24.000000" height="24.000000" rx="0" ry="0" style="stroke:none;fill:#cccccc;"/> -->
<rect x="96.000000" y="34.000000" width="24.000000" height="24.000000" rx="0" ry="0" style="stroke:none;fill:#f44800;"/>
<text x="108.000000" y="48.000000" font-family="Fira Mono" font-size="7" text-anchor="middle" fill="#FFFFFF">0.5</text>
<circle cx="98.000000" cy="36.000000" r="1"/>
<!-- <rect x="97.000000" y="67.000000" width="24.000000" height="24.000000" rx="0" ry="0" style="stroke:none;fill:#cccccc;"/> -->
<rect x="96.000000" y="66.000000" width="24.000000" height="24.000000" rx="0" ry="0" style="stroke:none;fill:#4B71A1;"/>
<text x="108.000000" y="80.000000" font-family="Fira Mono" font-size="7" text-anchor="middle" fill="#FFFFFF">+</text>
<circle cx="98.000000" cy="68.000000" r="1"/>
<line x1="93.000000" y1="73.000000" x2="96.000000" y2="74.000000"  transform="rotate(0.000000,96.000000,74.000000)" style="stroke: black; stroke-width:0.25;"/>
<line x1="93.000000" y1="75.000000" x2="96.000000" y2="74.000000"  transform="rotate(0.000000,96.000000,74.000000)" style="stroke: black; stroke-width:0.25;"/>
<line x1="93.000000" y1="81.000000" x2="96.000000" y2="82.000000"  transform="rotate(0.000000,96.000000,82.000000)" style="stroke: black; stroke-width:0.25;"/>
<line x1="93.000000" y1="83.000000" x2="96.000000" y2="82.000000"  transform="rotate(0.000000,96.000000,82.000000)" style="stroke: black; stroke-width:0.25;"/>
<!-- <rect x="137.000000" y="51.000000" width="24.000000" height="24.000000" rx="0" ry="0" style="stroke:none;fill:#cccccc;"/> -->
<rect x="136.000000" y="50.000000" width="24.000000" height="24.000000" rx="0" ry="0" style="stroke:none;fill:#4B71A1;"/>
<text x="148.000000" y="64.000000" font-family="Fira Mono" font-size="7" text-anchor="middle" fill="#FFFFFF">*</text>
<circle cx="138.000000" cy="52.000000" r="1"/>
<line x1="133.000000" y1="57.000000" x2="136.000000" y2="58.000000"  transform="rotate(0.000000,136.000000,58.000000)" style="stroke: black; stroke-width:0.25;"/>
<line x1="133.000000" y1="59.000000" x2="136.000000" y2="58.000000"  transform="rotate(0.000000,136.000000,58.000000)" style="stroke: black; stroke-width:0.25;"/>
<line x1="133.000000" y1="65.000000" x2="136.000000" y2="66.000000"  transform="rotate(0.000000,136.000000,66.000000)" style="stroke: black; stroke-width:0.25;"/>
<line x1="133.000000" y1="67.000000" x2="136.000000" y2="66.000000"  transform="rotate(0.000000,136.000000,66.000000)" style="stroke: black; stroke-width:0.25;"/>
<line x1="87.000000" y1="25.000000" x2="87.000000" y2="99.000000"  style="stroke: black; stroke-linecap:round; stroke-width:0.25; stroke-dasharray:3,3;"/>
<line x1="87.000000" y1="99.000000" x2="169.000000" y2="99.000000"  style="stroke: black; stroke-linecap:round; stroke-width:0.25; stroke-dasharray:3,3;"/>
<line x1="169.000000" y1="99.000000" x2="169.000000" y2="25.000000"  style="stroke: black; stroke-linecap:round; stroke-width:0.25; stroke-dasharray:3,3;"/>
<line x1="87.000000" y1="25.000000" x2="92.000000" y2="25.000000"  style="stroke: black; stroke-linecap:round; stroke-width:0.25; stroke-dasharray:3,3;"/>
<line x1="111.350000" y1="25.000000" x2="169.000000" y2="25.000000"  style="stroke: black; stroke-linecap:round; stroke-width:0.25; stroke-dasharray:3,3;"/>
<text x="92.000000" y="27.000000" font-family="Fira Mono" font-size="7">nsum</text>
<!-- <rect x="97.000000" y="119.000000" width="24.000000" height="24.000000" rx="0" ry="0" style="stroke:none;fill:#cccccc;"/> -->
<rect x="96.000000" y="118.000000" width="24.000000" height="24.000000" rx="0" ry="0" style="stroke:none;fill:#f44800;"/>
<text x="108.000000" y="132.000000" font-family="Fira Mono" font-size="7" text-anchor="middle" fill="#FFFFFF">0.5</text>
<circle cx="98.000000" cy="120.000000" r="1"/>
<!-- <rect x="97.000000" y="151.000000" width="24.000000" height="24.000000" rx="0" ry="0" style="stroke:none;fill:#cccccc;"/> -->
<rect x="96.000000" y="150.000000" width="24.000000" height="24.000000" rx="0" ry="0" style="stroke:none;fill:#4B71A1;"/>
<text x="108.000000" y="164.000000" font-family="Fira Mono" font-size="7" text-anchor="middle" fill="#FFFFFF">-</text>
<circle cx="98.000000" cy="152.000000" r="1"/>
<line x1="93.000000" y1="157.000000" x2="96.000000" y2="158.000000"  transform="rotate(0.000000,96.000000,158.000000)" style="stroke: black; stroke-width:0.25;"/>
<line x1="93.000000" y1="159.000000" x2="96.000000" y2="158.000000"  transform="rotate(0.000000,96.000000,158.000000)" style="stroke: black; stroke-width:0.25;"/>
<line x1="93.000000" y1="165.000000" x2="96.000000" y2="166.000000"  transform="rotate(0.000000,96.000000,166.000000)" style="stroke: black; stroke-width:0.25;"/>
<line x1="93.000000" y1="167.000000" x2="96.000000" y2="166.000000"  transform="rotate(0.000000,96.000000,166.000000)" style="stroke: black; stroke-width:0.25;"/>
<!-- <rect x="137.000000" y="135.000000" width="24.000000" height="24.000000" rx="0" ry="0" style="stroke:none;fill:#cccccc;"/> -->
<rect x="136.000000" y="134.000000" width="24.000000" height="24.000000" rx="0" ry="0" style="stroke:none;fill:#4B71A1;"/>
<text x="148.000000" y="148.000000" font-family="Fira Mono" font-size="7" text-anchor="middle" fill="#FFFFFF">*</text>
<circle cx="138.000000" cy="136.000000" r="1"/>
<line x1="133.000000" y1="141.000000" x2="136.000000" y2="142.000000"  transform="rotate(0.000000,136.000000,142.000000)" style="stroke: black; stroke-width:0.25;"/>
<line x1="133.000000" y1="143.000000" x2="136.000000" y2="142.000000"  transform="rotate(0.000000,136.000000,142.000000)" style="stroke: black; stroke-width:0.25;"/>
<line x1="133.000000" y1="149.000000" x2="136.000000" y2="150.000000"  transform="rotate(0.000000,136.000000,150.000000)" style="stroke: black; stroke-width:0.25;"/>
<line x1="133.000000" y1="151.000000" x2="136.000000" y2="150.000000"  transform="rotate(0.000000,136.000000,150.000000)" style="stroke: black; stroke-width:0.25;"/>
<line x1="87.000000" y1="109.000000" x2="87.000000" y2="183.000000"  style="stroke: black; stroke-linecap:round; stroke-width:0.25; stroke-dasharray:3,3;"/>
<line x1="87.000000" y1="183.000000" x2="169.000000" y2="183.000000"  style="stroke: black; stroke-linecap:round; stroke-width:0.25; stroke-dasharray:3,3;"/>
<line x1="169.000000" y1="183.000000" x2="169.000000" y2="109.000000"  style="stroke: black; stroke-linecap:round; stroke-width:0.25; stroke-dasharray:3,3;"/>
<line x1="87.000000" y1="109.000000" x2="92.000000" y2="109.000000"  style="stroke: black; stroke-linecap:round; stroke-width:0.25; stroke-dasharray:3,3;"/>
<line x1="111.350000" y1="109.000000" x2="169.000000" y2="109.000000"  style="stroke: black; stroke-linecap:round; stroke-width:0.25; stroke-dasharray:3,3;"/>
<text x="92.000000" y="111.000000" font-family="Fira Mono" font-size="7">ndif</text>
<line x1="15.000000" y1="15.000000" x2="15.000000" y2="193.000000"  style="stroke: black; stroke-linecap:round; stroke-width:0.25; stroke-dasharray:3,3;"/>
<line x1="15.000000" y1="193.000000" x2="195.000000" y2="193.000000"  style="stroke: black; stroke-linecap:round; stroke-width:0.25; stroke-dasharray:3,3;"/>
<line x1="195.000000" y1="193.000000" x2="195.000000" y2="15.000000"  style="stroke: black; stroke-linecap:round; stroke-width:0.25; stroke-dasharray:3,3;"/>
<line x1="15.000000" y1="15.000000" x2="20.000000" y2="15.000000"  style="stroke: black; stroke-linecap:round; stroke-width:0.25; stroke-dasharray:3,3;"/>
<line x1="49.025000" y1="15.000000" x2="195.000000" y2="15.000000"  style="stroke: black; stroke-linecap:round; stroke-width:0.25; stroke-dasharray:3,3;"/>
<text x="20.000000" y="17.000000" font-family="Fira Mono" font-size="7">process</text>
<line x1="197.000000" y1="99.000000" x2="200.000000" y2="100.000000"  transform="rotate(0.000000,200.000000,100.000000)" style="stroke: black; stroke-width:0.25;"/>
<line x1="197.000000" y1="101.000000" x2="200.000000" y2="100.000000"  transform="rotate(0.000000,200.000000,100.000000)" style="stroke: black; stroke-width:0.25;"/>
<line x1="197.000000" y1="107.000000" x2="200.000000" y2="108.000000"  transform="rotate(0.000000,200.000000,108.000000)" style="stroke: black; stroke-width:0.25;"/>
<line x1="197.000000" y1="109.000000" x2="200.000000" y2="108.000000"  transform="rotate(0.000000,200.000000,108.000000)" style="stroke: black; stroke-width:0.25;"/>
<line x1="10.000000" y1="100.000000" x2="20.000000" y2="100.000000"  style="stroke:black; stroke-linecap:round; stroke-width:0.25;"/>
<line x1="10.000000" y1="108.000000" x2="20.000000" y2="108.000000"  style="stroke:black; stroke-linecap:round; stroke-width:0.25;"/>
<line x1="20.000000" y1="100.000000" x2="24.000000" y2="100.000000"  style="stroke:black; stroke-linecap:round; stroke-width:0.25;"/>
<line x1="20.000000" y1="108.000000" x2="24.000000" y2="108.000000"  style="stroke:black; stroke-linecap:round; stroke-width:0.25;"/>
<line x1="24.000000" y1="100.000000" x2="28.000000" y2="100.000000"  style="stroke:black; stroke-linecap:round; stroke-width:0.25;"/>
<line x1="24.000000" y1="108.000000" x2="28.000000" y2="108.000000"  style="stroke:black; stroke-linecap:round; stroke-width:0.25;"/>
<line x1="28.000000" y1="100.000000" x2="28.000000" y2="100.000000"  style="stroke:black; stroke-linecap:round; stroke-width:0.25;"/>
<line x1="28.000000" y1="100.000000" x2="32.000000" y2="100.000000"  style="stroke:black; stroke-linecap:round; stroke-width:0.25;"/>
<line x1="28.000000" y1="108.000000" x2="28.000000" y2="108.000000"  style="stroke:black; stroke-linecap:round; stroke-width:0.25;"/>
<line x1="28.000000" y1="108.000000" x2="32.000000" y2="108.000000"  style="stroke:black; stroke-linecap:round; stroke-width:0.25;"/>
<line x1="32.000000" y1="100.000000" x2="36.000000" y2="100.000000"  style="stroke:black; stroke-linecap:round; stroke-width:0.25;"/>
<line x1="32.000000" y1="108.000000" x2="36.000000" y2="108.000000"  style="stroke:black; stroke-linecap:round; stroke-width:0.25;"/>
<line x1="36.000000" y1="100.000000" x2="82.000000" y2="74.000000"  style="stroke:black; stroke-linecap:round; stroke-width:0.25;"/>
<line x1="36.000000" y1="100.000000" x2="82.000000" y2="158.000000"  style="stroke:black; stroke-linecap:round; stroke-width:0.25;"/>
<line x1="36.000000" y1="108.000000" x2="82.000000" y2="82.000000"  style="stroke:black; stroke-linecap:round; stroke-width:0.25;"/>
<line x1="36.000000" y1="108.000000" x2="82.000000" y2="166.000000"  style="stroke:black; stroke-linecap:round; stroke-width:0.25;"/>
<line x1="82.000000" y1="74.000000" x2="92.000000" y2="74.000000"  style="stroke:black; stroke-linecap:round; stroke-width:0.25;"/>
<line x1="82.000000" y1="82.000000" x2="92.000000" y2="82.000000"  style="stroke:black; stroke-linecap:round; stroke-width:0.25;"/>
<line x1="82.000000" y1="158.000000" x2="92.000000" y2="158.000000"  style="stroke:black; stroke-linecap:round; stroke-width:0.25;"/>
<line x1="82.000000" y1="166.000000" x2="92.000000" y2="166.000000"  style="stroke:black; stroke-linecap:round; stroke-width:0.25;"/>
<line x1="92.000000" y1="74.000000" x2="92.000000" y2="74.000000"  style="stroke:black; stroke-linecap:round; stroke-width:0.25;"/>
<line x1="92.000000" y1="74.000000" x2="96.000000" y2="74.000000"  style="stroke:black; stroke-linecap:round; stroke-width:0.25;"/>
<line x1="92.000000" y1="82.000000" x2="92.000000" y2="82.000000"  style="stroke:black; stroke-linecap:round; stroke-width:0.25;"/>
<line x1="92.000000" y1="82.000000" x2="96.000000" y2="82.000000"  style="stroke:black; stroke-linecap:round; stroke-width:0.25;"/>
<line x1="92.000000" y1="158.000000" x2="92.000000" y2="158.000000"  style="stroke:black; stroke-linecap:round; stroke-width:0.25;"/>
<line x1="92.000000" y1="158.000000" x2="96.000000" y2="158.000000"  style="stroke:black; stroke-linecap:round; stroke-width:0.25;"/>
<line x1="92.000000" y1="166.000000" x2="92.000000" y2="166.000000"  style="stroke:black; stroke-linecap:round; stroke-width:0.25;"/>
<line x1="92.000000" y1="166.000000" x2="96.000000" y2="166.000000"  style="stroke:black; stroke-linecap:round; stroke-width:0.25;"/>
<line x1="120.000000" y1="46.000000" x2="124.000000" y2="46.000000"  style="stroke:black; stroke-linecap:round; stroke-width:0.25;"/>
<line x1="120.000000" y1="78.000000" x2="124.000000" y2="78.000000"  style="stroke:black; stroke-linecap:round; stroke-width:0.25;"/>
<line x1="120.000000" y1="130.000000" x2="124.000000" y2="130.000000"  style="stroke:black; stroke-linecap:round; stroke-width:0.25;"/>
<line x1="120.000000" y1="162.000000" x2="124.000000" y2="162.000000"  style="stroke:black; stroke-linecap:round; stroke-width:0.25;"/>
<line x1="124.000000" y1="46.000000" x2="132.000000" y2="46.000000"  style="stroke:black; stroke-linecap:round; stroke-width:0.25;"/>
<line x1="124.000000" y1="66.000000" x2="132.000000" y2="66.000000"  style="stroke:black; stroke-linecap:round; stroke-width:0.25;"/>
<line x1="124.000000" y1="78.000000" x2="124.000000" y2="66.000000"  style="stroke:black; stroke-linecap:round; stroke-width:0.25;"/>
<line x1="124.000000" y1="78.000000" x2="124.000000" y2="78.000000"  style="stroke:black; stroke-linecap:round; stroke-width:0.25;"/>
<line x1="124.000000" y1="130.000000" x2="132.000000" y2="130.000000"  style="stroke:black; stroke-linecap:round; stroke-width:0.25;"/>
<line x1="124.000000" y1="150.000000" x2="132.000000" y2="150.000000"  style="stroke:black; stroke-linecap:round; stroke-width:0.25;"/>
<line x1="124.000000" y1="162.000000" x2="124.000000" y2="150.000000"  style="stroke:black; stroke-linecap:round; stroke-width:0.25;"/>
<line x1="124.000000" y1="162.000000" x2="124.000000" y2="162.000000"  style="stroke:black; stroke-linecap:round; stroke-width:0.25;"/>
<line x1="132.000000" y1="46.000000" x2="132.000000" y2="58.000000"  style="stroke:black; stroke-linecap:round; stroke-width:0.25;"/>
<line x1="132.000000" y1="58.000000" x2="132.000000" y2="58.000000"  style="stroke:black; stroke-linecap:round; stroke-width:0.25;"/>
<line x1="132.000000" y1="58.000000" x2="136.000000" y2="58.000000"  style="stroke:black; stroke-linecap:round; stroke-width:0.25;"/>
<line x1="132.000000" y1="66.000000" x2="136.000000" y2="66.000000"  style="stroke:black; stroke-linecap:round; stroke-width:0.25;"/>
<line x1="132.000000" y1="130.000000" x2="132.000000" y2="142.000000"  style="stroke:black; stroke-linecap:round; stroke-width:0.25;"/>
<line x1="132.000000" y1="142.000000" x2="132.000000" y2="142.000000"  style="stroke:black; stroke-linecap:round; stroke-width:0.25;"/>
<line x1="132.000000" y1="142.000000" x2="136.000000" y2="142.000000"  style="stroke:black; stroke-linecap:round; stroke-width:0.25;"/>
<line x1="132.000000" y1="150.000000" x2="136.000000" y2="150.000000"  style="stroke:black; stroke-linecap:round; stroke-width:0.25;"/>
<line x1="160.000000" y1="62.000000" x2="164.000000" y2="62.000000"  style="stroke:black; stroke-linecap:round; stroke-width:0.25;"/>
<line x1="160.000000" y1="146.000000" x2="164.000000" y2="146.000000"  style="stroke:black; stroke-linecap:round; stroke-width:0.25;"/>
<line x1="164.000000" y1="62.000000" x2="174.000000" y2="62.000000"  style="stroke:black; stroke-linecap:round; stroke-width:0.25;"/>
<line x1="164.000000" y1="146.000000" x2="174.000000" y2="146.000000"  style="stroke:black; stroke-linecap:round; stroke-width:0.25;"/>
<line x1="174.000000" y1="62.000000" x2="182.000000" y2="62.000000"  style="stroke:black; stroke-linecap:round; stroke-width:0.25;"/>
<line x1="174.000000" y1="108.000000" x2="182.000000" y2="108.000000"  style="stroke:black; stroke-linecap:round; stroke-width:0.25;"/>
<line x1="174.000000" y1="146.000000" x2="174.000000" y2="108.000000"  style="stroke:black; stroke-linecap:round; stroke-width:0.25;"/>
<line x1="174.000000" y1="146.000000" x2="174.000000" y2="146.000000"  style="stroke:black; stroke-linecap:round; stroke-width:0.25;"/>
<line x1="182.000000" y1="62.000000" x2="182.000000" y2="100.000000"  style="stroke:black; stroke-linecap:round; stroke-width:0.25;"/>
<line x1="182.000000" y1="100.000000" x2="182.000000" y2="100.000000"  style="stroke:black; stroke-linecap:round; stroke-width:0.25;"/>
<line x1="182.000000" y1="100.000000" x2="186.000000" y2="100.000000"  style="stroke:black; stroke-linecap:round; stroke-width:0.25;"/>
<line x1="182.000000" y1="108.000000" x2="186.000000" y2="108.000000"  style="stroke:black; stroke-linecap:round; stroke-width:0.25;"/>
<line x1="186.000000" y1="100.000000" x2="190.000000" y2="100.000000"  style="stroke:black; stroke-linecap:round; stroke-width:0.25;"/>
<line x1="186.000000" y1="108.000000" x2="190.000000" y2="108.000000"  style="stroke:black; stroke-linecap:round; stroke-width:0.25;"/>
<line x1="190.000000" y1="100.000000" x2="200.000000" y2="100.000000"  style="stroke:black; stroke-linecap:round; stroke-width:0.25;"/>
<line x1="190.000000" y1="108.000000" x2="200.000000" y2="108.000000"  style="stroke:black; stroke-linecap:round; stroke-width:0.25;"/>
</svg>
