<?xml version="1.0"?>
<svg xmlns="http://www.w3.org/2000/svg" xmlns:xlink="http://www.w3.org/1999/xlink" viewBox="0 0 336.000000 140.000000" width="168.000000mm" height="70.000000mm" version="1.1">
<rect x="0.000000" y="0.000000" width="335.000000" height="139.000000" rx="0" ry="0" style="stroke:#000000;fill:#FFFFFF;"/>
<text x="10.000000" y="7.000000" font-family="Verdana" font-size="7"></text>
<rect x="50.000000" y="42.000000" width="24.000000" height="24.000000" rx="0" ry="0" style="stroke:#000000;fill:#FFFFFF;"/>
<text x="62.000000" y="56.000000" font-family="Verdana" font-size="7" text-anchor="middle" fill="#000000">1</text>
<circle cx="52.000000" cy="44.000000" r="1"/>
<rect x="34.000000" y="74.000000" width="24.000000" height="24.000000" rx="0" ry="0" style="stroke:#000000;fill:#FFFFFF;"/>
<text x="46.000000" y="88.000000" font-family="Verdana" font-size="7" text-anchor="middle" fill="#000000">1</text>
<circle cx="36.000000" cy="76.000000" r="1"/>
<rect x="66.000000" y="74.000000" width="24.000000" height="24.000000" rx="0" ry="0" style="stroke:#000000;fill:#FFFFFF;"/>
<text x="78.000000" y="88.000000" font-family="Verdana" font-size="7" text-anchor="middle" fill="#000000">mem</text>
<circle cx="68.000000" cy="76.000000" r="1"/>
<line x1="63.000000" y1="85.000000" x2="66.000000" y2="86.000000"  transform="rotate(0.000000,66.000000,86.000000)" style="stroke: black; stroke-width:0.25;"/>
<line x1="63.000000" y1="87.000000" x2="66.000000" y2="86.000000"  transform="rotate(0.000000,66.000000,86.000000)" style="stroke: black; stroke-width:0.25;"/>
<rect x="106.000000" y="58.000000" width="24.000000" height="24.000000" rx="0" ry="0" style="stroke:#000000;fill:#FFFFFF;"/>
<text x="118.000000" y="72.000000" font-family="Verdana" font-size="7" text-anchor="middle" fill="#000000">-</text>
<circle cx="108.000000" cy="60.000000" r="1"/>
<line x1="103.000000" y1="65.000000" x2="106.000000" y2="66.000000"  transform="rotate(0.000000,106.000000,66.000000)" style="stroke: black; stroke-width:0.25;"/>
<line x1="103.000000" y1="67.000000" x2="106.000000" y2="66.000000"  transform="rotate(0.000000,106.000000,66.000000)" style="stroke: black; stroke-width:0.25;"/>
<line x1="103.000000" y1="73.000000" x2="106.000000" y2="74.000000"  transform="rotate(0.000000,106.000000,74.000000)" style="stroke: black; stroke-width:0.25;"/>
<line x1="103.000000" y1="75.000000" x2="106.000000" y2="74.000000"  transform="rotate(0.000000,106.000000,74.000000)" style="stroke: black; stroke-width:0.25;"/>
<line x1="25.000000" y1="33.000000" x2="25.000000" y2="107.000000"  style="stroke: black; stroke-linecap:round; stroke-width:0.25; stroke-dasharray:3,3;"/>
<line x1="25.000000" y1="107.000000" x2="139.000000" y2="107.000000"  style="stroke: black; stroke-linecap:round; stroke-width:0.25; stroke-dasharray:3,3;"/>
<line x1="139.000000" y1="107.000000" x2="139.000000" y2="33.000000"  style="stroke: black; stroke-linecap:round; stroke-width:0.25; stroke-dasharray:3,3;"/>
<line x1="25.000000" y1="33.000000" x2="30.000000" y2="33.000000"  style="stroke: black; stroke-linecap:round; stroke-width:0.25; stroke-dasharray:3,3;"/>
<line x1="59.025000" y1="33.000000" x2="139.000000" y2="33.000000"  style="stroke: black; stroke-linecap:round; stroke-width:0.25; stroke-dasharray:3,3;"/>
<text x="30.000000" y="35.000000" font-family="Verdana" font-size="7">impulse</text>
<rect x="174.000000" y="78.000000" width="24.000000" height="24.000000" rx="0" ry="0" style="stroke:#000000;fill:#FFFFFF;"/>
<text x="186.000000" y="92.000000" font-family="Verdana" font-size="7" text-anchor="middle" fill="#000000">+</text>
<circle cx="176.000000" cy="80.000000" r="1"/>
<line x1="171.000000" y1="85.000000" x2="174.000000" y2="86.000000"  transform="rotate(0.000000,174.000000,86.000000)" style="stroke: black; stroke-width:0.25;"/>
<line x1="171.000000" y1="87.000000" x2="174.000000" y2="86.000000"  transform="rotate(0.000000,174.000000,86.000000)" style="stroke: black; stroke-width:0.25;"/>
<line x1="171.000000" y1="93.000000" x2="174.000000" y2="94.000000"  transform="rotate(0.000000,174.000000,94.000000)" style="stroke: black; stroke-width:0.25;"/>
<line x1="171.000000" y1="95.000000" x2="174.000000" y2="94.000000"  transform="rotate(0.000000,174.000000,94.000000)" style="stroke: black; stroke-width:0.25;"/>
<rect x="214.000000" y="82.000000" width="24.000000" height="24.000000" rx="0" ry="0" style="stroke:#000000;fill:#FFFFFF;"/>
<text x="226.000000" y="96.000000" font-family="Verdana" font-size="7" text-anchor="middle" fill="#000000">1</text>
<circle cx="216.000000" cy="84.000000" r="1"/>
<rect x="254.000000" y="78.000000" width="24.000000" height="24.000000" rx="0" ry="0" style="stroke:#000000;fill:#FFFFFF;"/>
<text x="266.000000" y="92.000000" font-family="Verdana" font-size="7" text-anchor="middle" fill="#000000">@</text>
<circle cx="256.000000" cy="80.000000" r="1"/>
<line x1="251.000000" y1="85.000000" x2="254.000000" y2="86.000000"  transform="rotate(0.000000,254.000000,86.000000)" style="stroke: black; stroke-width:0.25;"/>
<line x1="251.000000" y1="87.000000" x2="254.000000" y2="86.000000"  transform="rotate(0.000000,254.000000,86.000000)" style="stroke: black; stroke-width:0.25;"/>
<line x1="251.000000" y1="93.000000" x2="254.000000" y2="94.000000"  transform="rotate(0.000000,254.000000,94.000000)" style="stroke: black; stroke-width:0.25;"/>
<line x1="251.000000" y1="95.000000" x2="254.000000" y2="94.000000"  transform="rotate(0.000000,254.000000,94.000000)" style="stroke: black; stroke-width:0.25;"/>
<rect x="220.200000" y="34.000000" width="51.600000" height="24.000000" rx="0" ry="0" style="stroke:#000000;fill:#FFFFFF;"/>
<text x="246.000000" y="48.000000" font-family="Verdana" font-size="7" text-anchor="middle" fill="#000000">0.70710677f</text>
<circle cx="269.800000" cy="56.000000" r="1"/>
<rect x="180.200000" y="38.000000" width="24.000000" height="24.000000" rx="0" ry="0" style="stroke:#000000;fill:#FFFFFF;"/>
<text x="192.200000" y="52.000000" font-family="Verdana" font-size="7" text-anchor="middle" fill="#000000">*</text>
<circle cx="202.200000" cy="60.000000" r="1"/>
<line x1="207.200000" y1="53.000000" x2="204.200000" y2="54.000000"  transform="rotate(0.000000,204.200000,54.000000)" style="stroke: black; stroke-width:0.25;"/>
<line x1="207.200000" y1="55.000000" x2="204.200000" y2="54.000000"  transform="rotate(0.000000,204.200000,54.000000)" style="stroke: black; stroke-width:0.25;"/>
<line x1="207.200000" y1="45.000000" x2="204.200000" y2="46.000000"  transform="rotate(0.000000,204.200000,46.000000)" style="stroke: black; stroke-width:0.25;"/>
<line x1="207.200000" y1="47.000000" x2="204.200000" y2="46.000000"  transform="rotate(0.000000,204.200000,46.000000)" style="stroke: black; stroke-width:0.25;"/>
<line x1="280.000000" y1="90.000000" x2="280.000000" y2="86.000000"  style="stroke:black; stroke-linecap:round; stroke-width:0.25;"/>
<line x1="280.000000" y1="86.000000" x2="284.000000" y2="86.000000"  style="stroke:black; stroke-linecap:round; stroke-width:0.25;"/>
<line x1="284.000000" y1="86.000000" x2="284.000000" y2="90.000000"  style="stroke:black; stroke-linecap:round; stroke-width:0.25;"/>
<line x1="157.000000" y1="25.000000" x2="157.000000" y2="115.000000"  style="stroke: black; stroke-linecap:round; stroke-width:0.25; stroke-dasharray:3,3;"/>
<line x1="157.000000" y1="115.000000" x2="295.000000" y2="115.000000"  style="stroke: black; stroke-linecap:round; stroke-width:0.25; stroke-dasharray:3,3;"/>
<line x1="295.000000" y1="115.000000" x2="295.000000" y2="25.000000"  style="stroke: black; stroke-linecap:round; stroke-width:0.25; stroke-dasharray:3,3;"/>
<line x1="157.000000" y1="25.000000" x2="162.000000" y2="25.000000"  style="stroke: black; stroke-linecap:round; stroke-width:0.25; stroke-dasharray:3,3;"/>
<line x1="229.725000" y1="25.000000" x2="295.000000" y2="25.000000"  style="stroke: black; stroke-linecap:round; stroke-width:0.25; stroke-dasharray:3,3;"/>
<text x="162.000000" y="27.000000" font-family="Verdana" font-size="7">dfl(1)(0.70710677f)</text>
<line x1="15.000000" y1="15.000000" x2="15.000000" y2="125.000000"  style="stroke: black; stroke-linecap:round; stroke-width:0.25; stroke-dasharray:3,3;"/>
<line x1="15.000000" y1="125.000000" x2="321.000000" y2="125.000000"  style="stroke: black; stroke-linecap:round; stroke-width:0.25; stroke-dasharray:3,3;"/>
<line x1="321.000000" y1="125.000000" x2="321.000000" y2="15.000000"  style="stroke: black; stroke-linecap:round; stroke-width:0.25; stroke-dasharray:3,3;"/>
<line x1="15.000000" y1="15.000000" x2="20.000000" y2="15.000000"  style="stroke: black; stroke-linecap:round; stroke-width:0.25; stroke-dasharray:3,3;"/>
<line x1="49.025000" y1="15.000000" x2="321.000000" y2="15.000000"  style="stroke: black; stroke-linecap:round; stroke-width:0.25; stroke-dasharray:3,3;"/>
<text x="20.000000" y="17.000000" font-family="Verdana" font-size="7">process</text>
<line x1="323.000000" y1="69.000000" x2="326.000000" y2="70.000000"  transform="rotate(0.000000,326.000000,70.000000)" style="stroke: black; stroke-width:0.25;"/>
<line x1="323.000000" y1="71.000000" x2="326.000000" y2="70.000000"  transform="rotate(0.000000,326.000000,70.000000)" style="stroke: black; stroke-width:0.25;"/>
<line x1="58.000000" y1="86.000000" x2="62.000000" y2="86.000000"  style="stroke:black; stroke-linecap:round; stroke-width:0.25;"/>
<line x1="62.000000" y1="86.000000" x2="62.000000" y2="86.000000"  style="stroke:black; stroke-linecap:round; stroke-width:0.25;"/>
<line x1="62.000000" y1="86.000000" x2="66.000000" y2="86.000000"  style="stroke:black; stroke-linecap:round; stroke-width:0.25;"/>
<line x1="74.000000" y1="54.000000" x2="78.000000" y2="54.000000"  style="stroke:black; stroke-linecap:round; stroke-width:0.25;"/>
<line x1="78.000000" y1="54.000000" x2="94.000000" y2="54.000000"  style="stroke:black; stroke-linecap:round; stroke-width:0.25;"/>
<line x1="90.000000" y1="86.000000" x2="94.000000" y2="86.000000"  style="stroke:black; stroke-linecap:round; stroke-width:0.25;"/>
<line x1="94.000000" y1="54.000000" x2="102.000000" y2="54.000000"  style="stroke:black; stroke-linecap:round; stroke-width:0.25;"/>
<line x1="94.000000" y1="74.000000" x2="102.000000" y2="74.000000"  style="stroke:black; stroke-linecap:round; stroke-width:0.25;"/>
<line x1="94.000000" y1="86.000000" x2="94.000000" y2="74.000000"  style="stroke:black; stroke-linecap:round; stroke-width:0.25;"/>
<line x1="94.000000" y1="86.000000" x2="94.000000" y2="86.000000"  style="stroke:black; stroke-linecap:round; stroke-width:0.25;"/>
<line x1="102.000000" y1="54.000000" x2="102.000000" y2="66.000000"  style="stroke:black; stroke-linecap:round; stroke-width:0.25;"/>
<line x1="102.000000" y1="66.000000" x2="102.000000" y2="66.000000"  style="stroke:black; stroke-linecap:round; stroke-width:0.25;"/>
<line x1="102.000000" y1="66.000000" x2="106.000000" y2="66.000000"  style="stroke:black; stroke-linecap:round; stroke-width:0.25;"/>
<line x1="102.000000" y1="74.000000" x2="106.000000" y2="74.000000"  style="stroke:black; stroke-linecap:round; stroke-width:0.25;"/>
<line x1="130.000000" y1="70.000000" x2="134.000000" y2="70.000000"  style="stroke:black; stroke-linecap:round; stroke-width:0.25;"/>
<line x1="134.000000" y1="70.000000" x2="144.000000" y2="70.000000"  style="stroke:black; stroke-linecap:round; stroke-width:0.25;"/>
<line x1="144.000000" y1="70.000000" x2="152.000000" y2="70.000000"  style="stroke:black; stroke-linecap:round; stroke-width:0.25;"/>
<line x1="152.000000" y1="70.000000" x2="152.000000" y2="94.000000"  style="stroke:black; stroke-linecap:round; stroke-width:0.25;"/>
<line x1="152.000000" y1="94.000000" x2="152.000000" y2="94.000000"  style="stroke:black; stroke-linecap:round; stroke-width:0.25;"/>
<line x1="152.000000" y1="94.000000" x2="162.000000" y2="94.000000"  style="stroke:black; stroke-linecap:round; stroke-width:0.25;"/>
<line x1="162.000000" y1="94.000000" x2="170.000000" y2="94.000000"  style="stroke:black; stroke-linecap:round; stroke-width:0.25;"/>
<line x1="170.000000" y1="50.000000" x2="170.000000" y2="50.000000"  style="stroke:black; stroke-linecap:round; stroke-width:0.25;"/>
<line x1="170.000000" y1="50.000000" x2="170.000000" y2="86.000000"  style="stroke:black; stroke-linecap:round; stroke-width:0.25;"/>
<line x1="170.000000" y1="86.000000" x2="170.000000" y2="86.000000"  style="stroke:black; stroke-linecap:round; stroke-width:0.25;"/>
<line x1="170.000000" y1="86.000000" x2="174.000000" y2="86.000000"  style="stroke:black; stroke-linecap:round; stroke-width:0.25;"/>
<line x1="170.000000" y1="94.000000" x2="174.000000" y2="94.000000"  style="stroke:black; stroke-linecap:round; stroke-width:0.25;"/>
<line x1="176.200000" y1="50.000000" x2="170.000000" y2="50.000000"  style="stroke:black; stroke-linecap:round; stroke-width:0.25;"/>
<line x1="180.200000" y1="50.000000" x2="176.200000" y2="50.000000"  style="stroke:black; stroke-linecap:round; stroke-width:0.25;"/>
<line x1="198.000000" y1="90.000000" x2="202.000000" y2="90.000000"  style="stroke:black; stroke-linecap:round; stroke-width:0.25;"/>
<line x1="202.000000" y1="74.000000" x2="210.000000" y2="74.000000"  style="stroke:black; stroke-linecap:round; stroke-width:0.25;"/>
<line x1="202.000000" y1="90.000000" x2="202.000000" y2="74.000000"  style="stroke:black; stroke-linecap:round; stroke-width:0.25;"/>
<line x1="202.000000" y1="90.000000" x2="202.000000" y2="90.000000"  style="stroke:black; stroke-linecap:round; stroke-width:0.25;"/>
<line x1="208.200000" y1="46.000000" x2="204.200000" y2="46.000000"  style="stroke:black; stroke-linecap:round; stroke-width:0.25;"/>
<line x1="208.200000" y1="54.000000" x2="204.200000" y2="54.000000"  style="stroke:black; stroke-linecap:round; stroke-width:0.25;"/>
<line x1="208.200000" y1="54.000000" x2="208.200000" y2="54.000000"  style="stroke:black; stroke-linecap:round; stroke-width:0.25;"/>
<line x1="208.200000" y1="66.000000" x2="208.200000" y2="54.000000"  style="stroke:black; stroke-linecap:round; stroke-width:0.25;"/>
<line x1="210.000000" y1="74.000000" x2="226.000000" y2="74.000000"  style="stroke:black; stroke-linecap:round; stroke-width:0.25;"/>
<line x1="216.200000" y1="46.000000" x2="208.200000" y2="46.000000"  style="stroke:black; stroke-linecap:round; stroke-width:0.25;"/>
<line x1="216.200000" y1="66.000000" x2="208.200000" y2="66.000000"  style="stroke:black; stroke-linecap:round; stroke-width:0.25;"/>
<line x1="220.200000" y1="46.000000" x2="216.200000" y2="46.000000"  style="stroke:black; stroke-linecap:round; stroke-width:0.25;"/>
<line x1="226.000000" y1="74.000000" x2="242.000000" y2="74.000000"  style="stroke:black; stroke-linecap:round; stroke-width:0.25;"/>
<line x1="238.000000" y1="94.000000" x2="242.000000" y2="94.000000"  style="stroke:black; stroke-linecap:round; stroke-width:0.25;"/>
<line x1="242.000000" y1="74.000000" x2="250.000000" y2="74.000000"  style="stroke:black; stroke-linecap:round; stroke-width:0.25;"/>
<line x1="242.000000" y1="94.000000" x2="250.000000" y2="94.000000"  style="stroke:black; stroke-linecap:round; stroke-width:0.25;"/>
<line x1="246.000000" y1="66.000000" x2="216.200000" y2="66.000000"  style="stroke:black; stroke-linecap:round; stroke-width:0.25;"/>
<line x1="250.000000" y1="74.000000" x2="250.000000" y2="86.000000"  style="stroke:black; stroke-linecap:round; stroke-width:0.25;"/>
<line x1="250.000000" y1="86.000000" x2="250.000000" y2="86.000000"  style="stroke:black; stroke-linecap:round; stroke-width:0.25;"/>
<line x1="250.000000" y1="86.000000" x2="254.000000" y2="86.000000"  style="stroke:black; stroke-linecap:round; stroke-width:0.25;"/>
<line x1="250.000000" y1="94.000000" x2="254.000000" y2="94.000000"  style="stroke:black; stroke-linecap:round; stroke-width:0.25;"/>
<line x1="275.800000" y1="66.000000" x2="246.000000" y2="66.000000"  style="stroke:black; stroke-linecap:round; stroke-width:0.25;"/>
<line x1="278.000000" y1="90.000000" x2="282.000000" y2="90.000000"  style="stroke:black; stroke-linecap:round; stroke-width:0.25;"/>
<line x1="282.000000" y1="66.000000" x2="275.800000" y2="66.000000"  style="stroke:black; stroke-linecap:round; stroke-width:0.25;"/>
<line x1="282.000000" y1="66.000000" x2="282.000000" y2="66.000000"  style="stroke:black; stroke-linecap:round; stroke-width:0.25;"/>
<line x1="282.000000" y1="86.000000" x2="282.000000" y2="66.000000"  style="stroke:black; stroke-linecap:round; stroke-width:0.25;"/>
<line x1="282.000000" y1="90.000000" x2="284.000000" y2="90.000000"  style="stroke:black; stroke-linecap:round; stroke-width:0.25;"/>
<line x1="284.000000" y1="90.000000" x2="290.000000" y2="90.000000"  style="stroke:black; stroke-linecap:round; stroke-width:0.25;"/>
<line x1="290.000000" y1="90.000000" x2="300.000000" y2="90.000000"  style="stroke:black; stroke-linecap:round; stroke-width:0.25;"/>
<line x1="300.000000" y1="70.000000" x2="308.000000" y2="70.000000"  style="stroke:black; stroke-linecap:round; stroke-width:0.25;"/>
<line x1="300.000000" y1="90.000000" x2="300.000000" y2="70.000000"  style="stroke:black; stroke-linecap:round; stroke-width:0.25;"/>
<line x1="300.000000" y1="90.000000" x2="300.000000" y2="90.000000"  style="stroke:black; stroke-linecap:round; stroke-width:0.25;"/>
<line x1="308.000000" y1="70.000000" x2="312.000000" y2="70.000000"  style="stroke:black; stroke-linecap:round; stroke-width:0.25;"/>
<line x1="312.000000" y1="70.000000" x2="316.000000" y2="70.000000"  style="stroke:black; stroke-linecap:round; stroke-width:0.25;"/>
<line x1="316.000000" y1="70.000000" x2="326.000000" y2="70.000000"  style="stroke:black; stroke-linecap:round; stroke-width:0.25;"/>
</svg>
