<?xml version="1.0"?>
<svg xmlns="http://www.w3.org/2000/svg" xmlns:xlink="http://www.w3.org/1999/xlink" viewBox="0 0 365.700000 268.000000" width="182.850000mm" height="134.000000mm" version="1.1">
<a xlink:href="fragmentation-0x7f81345bd630.svg">
<rect x="1.000000" y="1.000000" width="364.700000" height="267.000000" rx="0" ry="0" style="stroke:none;fill:#cccccc;"/>
<rect x="0.000000" y="0.000000" width="364.700000" height="267.000000" rx="0" ry="0" style="stroke:none;fill:#ffffff;"/>
</a>
<text x="10.000000" y="7.000000" font-family="Arial" font-size="7"></text>
<rect x="49.000000" y="159.000000" width="24.000000" height="24.000000" rx="0" ry="0" style="stroke:none;fill:#cccccc;"/>
<rect x="48.000000" y="158.000000" width="24.000000" height="24.000000" rx="0" ry="0" style="stroke:none;fill:#4B71A1;"/>
<text x="60.000000" y="172.000000" font-family="Arial" font-size="7" text-anchor="middle" fill="#FFFFFF">+</text>
<circle cx="50.000000" cy="160.000000" r="1"/>
<line x1="45.000000" y1="165.000000" x2="48.000000" y2="166.000000"  transform="rotate(0.000000,48.000000,166.000000)" style="stroke: black; stroke-width:0.25;"/>
<line x1="45.000000" y1="167.000000" x2="48.000000" y2="166.000000"  transform="rotate(0.000000,48.000000,166.000000)" style="stroke: black; stroke-width:0.25;"/>
<line x1="45.000000" y1="173.000000" x2="48.000000" y2="174.000000"  transform="rotate(0.000000,48.000000,174.000000)" style="stroke: black; stroke-width:0.25;"/>
<line x1="45.000000" y1="175.000000" x2="48.000000" y2="174.000000"  transform="rotate(0.000000,48.000000,174.000000)" style="stroke: black; stroke-width:0.25;"/>
<a xlink:href="delay-0x7f81345bcfe0.svg">
<rect x="194.450000" y="97.000000" width="25.800000" height="24.000000" rx="0" ry="0" style="stroke:none;fill:#cccccc;"/>
<rect x="193.450000" y="96.000000" width="25.800000" height="24.000000" rx="0" ry="0" style="stroke:none;fill:#003366;"/>
</a>
<a xlink:href="delay-0x7f81345bcfe0.svg">
<text x="206.350000" y="110.000000" font-family="Arial" font-size="7" text-anchor="middle" fill="#FFFFFF">delay</text>
</a>
<circle cx="195.450000" cy="98.000000" r="1"/>
<line x1="190.450000" y1="107.000000" x2="193.450000" y2="108.000000"  transform="rotate(0.000000,193.450000,108.000000)" style="stroke: black; stroke-width:0.25;"/>
<line x1="190.450000" y1="109.000000" x2="193.450000" y2="108.000000"  transform="rotate(0.000000,193.450000,108.000000)" style="stroke: black; stroke-width:0.25;"/>
<rect x="155.350000" y="147.000000" width="24.000000" height="24.000000" rx="0" ry="0" style="stroke:none;fill:#cccccc;"/>
<rect x="154.350000" y="146.000000" width="24.000000" height="24.000000" rx="0" ry="0" style="stroke:none;fill:#f44800;"/>
<text x="166.350000" y="160.000000" font-family="Arial" font-size="7" text-anchor="middle" fill="#FFFFFF">0</text>
<circle cx="156.350000" cy="148.000000" r="1"/>
<line x1="145.350000" y1="137.000000" x2="145.350000" y2="179.000000"  style="stroke: black; stroke-linecap:round; stroke-width:0.25; stroke-dasharray:3,3;"/>
<line x1="145.350000" y1="179.000000" x2="187.350000" y2="179.000000"  style="stroke: black; stroke-linecap:round; stroke-width:0.25; stroke-dasharray:3,3;"/>
<line x1="187.350000" y1="179.000000" x2="187.350000" y2="137.000000"  style="stroke: black; stroke-linecap:round; stroke-width:0.25; stroke-dasharray:3,3;"/>
<line x1="145.350000" y1="137.000000" x2="150.350000" y2="137.000000"  style="stroke: black; stroke-linecap:round; stroke-width:0.25; stroke-dasharray:3,3;"/>
<line x1="176.150000" y1="137.000000" x2="187.350000" y2="137.000000"  style="stroke: black; stroke-linecap:round; stroke-width:0.25; stroke-dasharray:3,3;"/>
<text x="150.350000" y="139.000000" font-family="Arial" font-size="7">parity</text>
<a xlink:href="dT-0x7f81341dc210.svg">
<rect x="135.350000" y="189.000000" width="24.000000" height="24.000000" rx="0" ry="0" style="stroke:none;fill:#cccccc;"/>
<rect x="134.350000" y="188.000000" width="24.000000" height="24.000000" rx="0" ry="0" style="stroke:none;fill:#003366;"/>
</a>
<a xlink:href="dT-0x7f81341dc210.svg">
<text x="146.350000" y="202.000000" font-family="Arial" font-size="7" text-anchor="middle" fill="#FFFFFF">dT</text>
</a>
<circle cx="136.350000" cy="190.000000" r="1"/>
<a xlink:href="itfrag3-0x7f813450a730.svg">
<rect x="128.000000" y="221.000000" width="38.700000" height="24.000000" rx="0" ry="0" style="stroke:none;fill:#cccccc;"/>
<rect x="127.000000" y="220.000000" width="38.700000" height="24.000000" rx="0" ry="0" style="stroke:none;fill:#003366;"/>
</a>
<a xlink:href="itfrag3-0x7f813450a730.svg">
<text x="146.350000" y="234.000000" font-family="Arial" font-size="7" text-anchor="middle" fill="#FFFFFF">itfrag3</text>
</a>
<circle cx="129.000000" cy="222.000000" r="1"/>
<rect x="182.700000" y="205.000000" width="24.000000" height="24.000000" rx="0" ry="0" style="stroke:none;fill:#cccccc;"/>
<rect x="181.700000" y="204.000000" width="24.000000" height="24.000000" rx="0" ry="0" style="stroke:none;fill:#4B71A1;"/>
<text x="193.700000" y="218.000000" font-family="Arial" font-size="7" text-anchor="middle" fill="#FFFFFF">*</text>
<circle cx="183.700000" cy="206.000000" r="1"/>
<line x1="178.700000" y1="211.000000" x2="181.700000" y2="212.000000"  transform="rotate(0.000000,181.700000,212.000000)" style="stroke: black; stroke-width:0.25;"/>
<line x1="178.700000" y1="213.000000" x2="181.700000" y2="212.000000"  transform="rotate(0.000000,181.700000,212.000000)" style="stroke: black; stroke-width:0.25;"/>
<line x1="178.700000" y1="219.000000" x2="181.700000" y2="220.000000"  transform="rotate(0.000000,181.700000,220.000000)" style="stroke: black; stroke-width:0.25;"/>
<line x1="178.700000" y1="221.000000" x2="181.700000" y2="220.000000"  transform="rotate(0.000000,181.700000,220.000000)" style="stroke: black; stroke-width:0.25;"/>
<rect x="222.700000" y="179.000000" width="24.000000" height="24.000000" rx="0" ry="0" style="stroke:none;fill:#cccccc;"/>
<rect x="221.700000" y="178.000000" width="24.000000" height="24.000000" rx="0" ry="0" style="stroke:none;fill:#4B71A1;"/>
<text x="233.700000" y="192.000000" font-family="Arial" font-size="7" text-anchor="middle" fill="#FFFFFF">-</text>
<circle cx="223.700000" cy="180.000000" r="1"/>
<line x1="218.700000" y1="185.000000" x2="221.700000" y2="186.000000"  transform="rotate(0.000000,221.700000,186.000000)" style="stroke: black; stroke-width:0.25;"/>
<line x1="218.700000" y1="187.000000" x2="221.700000" y2="186.000000"  transform="rotate(0.000000,221.700000,186.000000)" style="stroke: black; stroke-width:0.25;"/>
<line x1="218.700000" y1="193.000000" x2="221.700000" y2="194.000000"  transform="rotate(0.000000,221.700000,194.000000)" style="stroke: black; stroke-width:0.25;"/>
<line x1="218.700000" y1="195.000000" x2="221.700000" y2="194.000000"  transform="rotate(0.000000,221.700000,194.000000)" style="stroke: black; stroke-width:0.25;"/>
<rect x="262.700000" y="175.000000" width="24.000000" height="24.000000" rx="0" ry="0" style="stroke:none;fill:#cccccc;"/>
<rect x="261.700000" y="174.000000" width="24.000000" height="24.000000" rx="0" ry="0" style="stroke:none;fill:#4B71A1;"/>
<text x="273.700000" y="188.000000" font-family="Arial" font-size="7" text-anchor="middle" fill="#FFFFFF">*</text>
<circle cx="263.700000" cy="176.000000" r="1"/>
<line x1="258.700000" y1="181.000000" x2="261.700000" y2="182.000000"  transform="rotate(0.000000,261.700000,182.000000)" style="stroke: black; stroke-width:0.25;"/>
<line x1="258.700000" y1="183.000000" x2="261.700000" y2="182.000000"  transform="rotate(0.000000,261.700000,182.000000)" style="stroke: black; stroke-width:0.25;"/>
<line x1="258.700000" y1="189.000000" x2="261.700000" y2="190.000000"  transform="rotate(0.000000,261.700000,190.000000)" style="stroke: black; stroke-width:0.25;"/>
<line x1="258.700000" y1="191.000000" x2="261.700000" y2="190.000000"  transform="rotate(0.000000,261.700000,190.000000)" style="stroke: black; stroke-width:0.25;"/>
<a xlink:href="dT-0x7f81341dc210.svg">
<rect x="195.850000" y="57.000000" width="24.000000" height="24.000000" rx="0" ry="0" style="stroke:none;fill:#cccccc;"/>
<rect x="194.850000" y="56.000000" width="24.000000" height="24.000000" rx="0" ry="0" style="stroke:none;fill:#003366;"/>
</a>
<a xlink:href="dT-0x7f81341dc210.svg">
<text x="206.850000" y="70.000000" font-family="Arial" font-size="7" text-anchor="middle" fill="#FFFFFF">dT</text>
</a>
<circle cx="216.850000" cy="78.000000" r="1"/>
<a xlink:href="itfrag3-0x7f813450a730.svg">
<rect x="188.500000" y="25.000000" width="38.700000" height="24.000000" rx="0" ry="0" style="stroke:none;fill:#cccccc;"/>
<rect x="187.500000" y="24.000000" width="38.700000" height="24.000000" rx="0" ry="0" style="stroke:none;fill:#003366;"/>
</a>
<a xlink:href="itfrag3-0x7f813450a730.svg">
<text x="206.850000" y="38.000000" font-family="Arial" font-size="7" text-anchor="middle" fill="#FFFFFF">itfrag3</text>
</a>
<circle cx="224.200000" cy="46.000000" r="1"/>
<rect x="148.500000" y="41.000000" width="24.000000" height="24.000000" rx="0" ry="0" style="stroke:none;fill:#cccccc;"/>
<rect x="147.500000" y="40.000000" width="24.000000" height="24.000000" rx="0" ry="0" style="stroke:none;fill:#4B71A1;"/>
<text x="159.500000" y="54.000000" font-family="Arial" font-size="7" text-anchor="middle" fill="#FFFFFF">*</text>
<circle cx="169.500000" cy="62.000000" r="1"/>
<line x1="174.500000" y1="55.000000" x2="171.500000" y2="56.000000"  transform="rotate(0.000000,171.500000,56.000000)" style="stroke: black; stroke-width:0.25;"/>
<line x1="174.500000" y1="57.000000" x2="171.500000" y2="56.000000"  transform="rotate(0.000000,171.500000,56.000000)" style="stroke: black; stroke-width:0.25;"/>
<line x1="174.500000" y1="47.000000" x2="171.500000" y2="48.000000"  transform="rotate(0.000000,171.500000,48.000000)" style="stroke: black; stroke-width:0.25;"/>
<line x1="174.500000" y1="49.000000" x2="171.500000" y2="48.000000"  transform="rotate(0.000000,171.500000,48.000000)" style="stroke: black; stroke-width:0.25;"/>
<rect x="108.500000" y="45.000000" width="24.000000" height="24.000000" rx="0" ry="0" style="stroke:none;fill:#cccccc;"/>
<rect x="107.500000" y="44.000000" width="24.000000" height="24.000000" rx="0" ry="0" style="stroke:none;fill:#4B71A1;"/>
<text x="119.500000" y="58.000000" font-family="Arial" font-size="7" text-anchor="middle" fill="#FFFFFF">*</text>
<circle cx="129.500000" cy="66.000000" r="1"/>
<line x1="134.500000" y1="59.000000" x2="131.500000" y2="60.000000"  transform="rotate(0.000000,131.500000,60.000000)" style="stroke: black; stroke-width:0.25;"/>
<line x1="134.500000" y1="61.000000" x2="131.500000" y2="60.000000"  transform="rotate(0.000000,131.500000,60.000000)" style="stroke: black; stroke-width:0.25;"/>
<line x1="134.500000" y1="51.000000" x2="131.500000" y2="52.000000"  transform="rotate(0.000000,131.500000,52.000000)" style="stroke: black; stroke-width:0.25;"/>
<line x1="134.500000" y1="53.000000" x2="131.500000" y2="52.000000"  transform="rotate(0.000000,131.500000,52.000000)" style="stroke: black; stroke-width:0.25;"/>
<line x1="287.700000" y1="108.000000" x2="287.700000" y2="104.000000"  style="stroke:black; stroke-linecap:round; stroke-width:0.25;"/>
<line x1="287.700000" y1="104.000000" x2="291.700000" y2="104.000000"  style="stroke:black; stroke-linecap:round; stroke-width:0.25;"/>
<line x1="291.700000" y1="104.000000" x2="291.700000" y2="108.000000"  style="stroke:black; stroke-linecap:round; stroke-width:0.25;"/>
<rect x="310.700000" y="123.000000" width="24.000000" height="24.000000" rx="0" ry="0" style="stroke:none;fill:#cccccc;"/>
<rect x="309.700000" y="122.000000" width="24.000000" height="24.000000" rx="0" ry="0" style="stroke:none;fill:#4B71A1;"/>
<text x="321.700000" y="136.000000" font-family="Arial" font-size="7" text-anchor="middle" fill="#FFFFFF">+</text>
<circle cx="311.700000" cy="124.000000" r="1"/>
<line x1="306.700000" y1="129.000000" x2="309.700000" y2="130.000000"  transform="rotate(0.000000,309.700000,130.000000)" style="stroke: black; stroke-width:0.25;"/>
<line x1="306.700000" y1="131.000000" x2="309.700000" y2="130.000000"  transform="rotate(0.000000,309.700000,130.000000)" style="stroke: black; stroke-width:0.25;"/>
<line x1="306.700000" y1="137.000000" x2="309.700000" y2="138.000000"  transform="rotate(0.000000,309.700000,138.000000)" style="stroke: black; stroke-width:0.25;"/>
<line x1="306.700000" y1="139.000000" x2="309.700000" y2="138.000000"  transform="rotate(0.000000,309.700000,138.000000)" style="stroke: black; stroke-width:0.25;"/>
<line x1="15.000000" y1="15.000000" x2="15.000000" y2="253.000000"  style="stroke: black; stroke-linecap:round; stroke-width:0.25; stroke-dasharray:3,3;"/>
<line x1="15.000000" y1="253.000000" x2="350.700000" y2="253.000000"  style="stroke: black; stroke-linecap:round; stroke-width:0.25; stroke-dasharray:3,3;"/>
<line x1="350.700000" y1="253.000000" x2="350.700000" y2="15.000000"  style="stroke: black; stroke-linecap:round; stroke-width:0.25; stroke-dasharray:3,3;"/>
<line x1="15.000000" y1="15.000000" x2="20.000000" y2="15.000000"  style="stroke: black; stroke-linecap:round; stroke-width:0.25; stroke-dasharray:3,3;"/>
<line x1="49.025000" y1="15.000000" x2="350.700000" y2="15.000000"  style="stroke: black; stroke-linecap:round; stroke-width:0.25; stroke-dasharray:3,3;"/>
<text x="20.000000" y="17.000000" font-family="Arial" font-size="7">apfrag3</text>
<line x1="352.700000" y1="133.000000" x2="355.700000" y2="134.000000"  transform="rotate(0.000000,355.700000,134.000000)" style="stroke: black; stroke-width:0.25;"/>
<line x1="352.700000" y1="135.000000" x2="355.700000" y2="134.000000"  transform="rotate(0.000000,355.700000,134.000000)" style="stroke: black; stroke-width:0.25;"/>
<line x1="10.000000" y1="134.000000" x2="20.000000" y2="134.000000"  style="stroke:black; stroke-linecap:round; stroke-width:0.25;"/>
<line x1="20.000000" y1="134.000000" x2="24.000000" y2="134.000000"  style="stroke:black; stroke-linecap:round; stroke-width:0.25;"/>
<line x1="24.000000" y1="134.000000" x2="28.000000" y2="134.000000"  style="stroke:black; stroke-linecap:round; stroke-width:0.25;"/>
<line x1="28.000000" y1="134.000000" x2="36.000000" y2="134.000000"  style="stroke:black; stroke-linecap:round; stroke-width:0.25;"/>
<line x1="36.000000" y1="134.000000" x2="36.000000" y2="174.000000"  style="stroke:black; stroke-linecap:round; stroke-width:0.25;"/>
<line x1="36.000000" y1="174.000000" x2="36.000000" y2="174.000000"  style="stroke:black; stroke-linecap:round; stroke-width:0.25;"/>
<line x1="36.000000" y1="174.000000" x2="44.000000" y2="174.000000"  style="stroke:black; stroke-linecap:round; stroke-width:0.25;"/>
<line x1="44.000000" y1="56.000000" x2="44.000000" y2="56.000000"  style="stroke:black; stroke-linecap:round; stroke-width:0.25;"/>
<line x1="44.000000" y1="56.000000" x2="44.000000" y2="166.000000"  style="stroke:black; stroke-linecap:round; stroke-width:0.25;"/>
<line x1="44.000000" y1="166.000000" x2="44.000000" y2="166.000000"  style="stroke:black; stroke-linecap:round; stroke-width:0.25;"/>
<line x1="44.000000" y1="166.000000" x2="48.000000" y2="166.000000"  style="stroke:black; stroke-linecap:round; stroke-width:0.25;"/>
<line x1="44.000000" y1="174.000000" x2="48.000000" y2="174.000000"  style="stroke:black; stroke-linecap:round; stroke-width:0.25;"/>
<line x1="72.000000" y1="170.000000" x2="76.000000" y2="170.000000"  style="stroke:black; stroke-linecap:round; stroke-width:0.25;"/>
<line x1="76.000000" y1="170.000000" x2="123.000000" y2="108.000000"  style="stroke:black; stroke-linecap:round; stroke-width:0.25;"/>
<line x1="76.000000" y1="170.000000" x2="123.000000" y2="128.000000"  style="stroke:black; stroke-linecap:round; stroke-width:0.25;"/>
<line x1="103.500000" y1="56.000000" x2="44.000000" y2="56.000000"  style="stroke:black; stroke-linecap:round; stroke-width:0.25;"/>
<line x1="107.500000" y1="56.000000" x2="103.500000" y2="56.000000"  style="stroke:black; stroke-linecap:round; stroke-width:0.25;"/>
<line x1="123.000000" y1="108.000000" x2="189.450000" y2="108.000000"  style="stroke:black; stroke-linecap:round; stroke-width:0.25;"/>
<line x1="123.000000" y1="128.000000" x2="186.350000" y2="128.000000"  style="stroke:black; stroke-linecap:round; stroke-width:0.25;"/>
<line x1="135.500000" y1="52.000000" x2="131.500000" y2="52.000000"  style="stroke:black; stroke-linecap:round; stroke-width:0.25;"/>
<line x1="135.500000" y1="60.000000" x2="131.500000" y2="60.000000"  style="stroke:black; stroke-linecap:round; stroke-width:0.25;"/>
<line x1="135.500000" y1="60.000000" x2="135.500000" y2="60.000000"  style="stroke:black; stroke-linecap:round; stroke-width:0.25;"/>
<line x1="135.500000" y1="88.000000" x2="135.500000" y2="60.000000"  style="stroke:black; stroke-linecap:round; stroke-width:0.25;"/>
<line x1="143.500000" y1="52.000000" x2="135.500000" y2="52.000000"  style="stroke:black; stroke-linecap:round; stroke-width:0.25;"/>
<line x1="143.500000" y1="88.000000" x2="135.500000" y2="88.000000"  style="stroke:black; stroke-linecap:round; stroke-width:0.25;"/>
<line x1="147.500000" y1="52.000000" x2="143.500000" y2="52.000000"  style="stroke:black; stroke-linecap:round; stroke-width:0.25;"/>
<line x1="158.350000" y1="200.000000" x2="162.350000" y2="200.000000"  style="stroke:black; stroke-linecap:round; stroke-width:0.25;"/>
<line x1="162.350000" y1="200.000000" x2="169.700000" y2="200.000000"  style="stroke:black; stroke-linecap:round; stroke-width:0.25;"/>
<line x1="165.700000" y1="232.000000" x2="169.700000" y2="232.000000"  style="stroke:black; stroke-linecap:round; stroke-width:0.25;"/>
<line x1="169.700000" y1="200.000000" x2="177.700000" y2="200.000000"  style="stroke:black; stroke-linecap:round; stroke-width:0.25;"/>
<line x1="169.700000" y1="220.000000" x2="177.700000" y2="220.000000"  style="stroke:black; stroke-linecap:round; stroke-width:0.25;"/>
<line x1="169.700000" y1="232.000000" x2="169.700000" y2="220.000000"  style="stroke:black; stroke-linecap:round; stroke-width:0.25;"/>
<line x1="169.700000" y1="232.000000" x2="169.700000" y2="232.000000"  style="stroke:black; stroke-linecap:round; stroke-width:0.25;"/>
<line x1="175.500000" y1="48.000000" x2="171.500000" y2="48.000000"  style="stroke:black; stroke-linecap:round; stroke-width:0.25;"/>
<line x1="175.500000" y1="56.000000" x2="171.500000" y2="56.000000"  style="stroke:black; stroke-linecap:round; stroke-width:0.25;"/>
<line x1="175.500000" y1="56.000000" x2="175.500000" y2="56.000000"  style="stroke:black; stroke-linecap:round; stroke-width:0.25;"/>
<line x1="175.500000" y1="68.000000" x2="175.500000" y2="56.000000"  style="stroke:black; stroke-linecap:round; stroke-width:0.25;"/>
<line x1="177.700000" y1="200.000000" x2="177.700000" y2="212.000000"  style="stroke:black; stroke-linecap:round; stroke-width:0.25;"/>
<line x1="177.700000" y1="212.000000" x2="177.700000" y2="212.000000"  style="stroke:black; stroke-linecap:round; stroke-width:0.25;"/>
<line x1="177.700000" y1="212.000000" x2="181.700000" y2="212.000000"  style="stroke:black; stroke-linecap:round; stroke-width:0.25;"/>
<line x1="177.700000" y1="220.000000" x2="181.700000" y2="220.000000"  style="stroke:black; stroke-linecap:round; stroke-width:0.25;"/>
<line x1="178.350000" y1="158.000000" x2="182.350000" y2="158.000000"  style="stroke:black; stroke-linecap:round; stroke-width:0.25;"/>
<line x1="182.350000" y1="158.000000" x2="192.350000" y2="158.000000"  style="stroke:black; stroke-linecap:round; stroke-width:0.25;"/>
<line x1="183.500000" y1="36.000000" x2="183.500000" y2="36.000000"  style="stroke:black; stroke-linecap:round; stroke-width:0.25;"/>
<line x1="183.500000" y1="36.000000" x2="183.500000" y2="48.000000"  style="stroke:black; stroke-linecap:round; stroke-width:0.25;"/>
<line x1="183.500000" y1="48.000000" x2="175.500000" y2="48.000000"  style="stroke:black; stroke-linecap:round; stroke-width:0.25;"/>
<line x1="183.500000" y1="68.000000" x2="175.500000" y2="68.000000"  style="stroke:black; stroke-linecap:round; stroke-width:0.25;"/>
<line x1="186.350000" y1="128.000000" x2="249.700000" y2="128.000000"  style="stroke:black; stroke-linecap:round; stroke-width:0.25;"/>
<line x1="186.850000" y1="88.000000" x2="143.500000" y2="88.000000"  style="stroke:black; stroke-linecap:round; stroke-width:0.25;"/>
<line x1="187.500000" y1="36.000000" x2="183.500000" y2="36.000000"  style="stroke:black; stroke-linecap:round; stroke-width:0.25;"/>
<line x1="189.450000" y1="108.000000" x2="193.450000" y2="108.000000"  style="stroke:black; stroke-linecap:round; stroke-width:0.25;"/>
<line x1="190.850000" y1="68.000000" x2="183.500000" y2="68.000000"  style="stroke:black; stroke-linecap:round; stroke-width:0.25;"/>
<line x1="192.350000" y1="158.000000" x2="209.700000" y2="158.000000"  style="stroke:black; stroke-linecap:round; stroke-width:0.25;"/>
<line x1="194.850000" y1="68.000000" x2="190.850000" y2="68.000000"  style="stroke:black; stroke-linecap:round; stroke-width:0.25;"/>
<line x1="205.700000" y1="216.000000" x2="209.700000" y2="216.000000"  style="stroke:black; stroke-linecap:round; stroke-width:0.25;"/>
<line x1="209.700000" y1="158.000000" x2="217.700000" y2="158.000000"  style="stroke:black; stroke-linecap:round; stroke-width:0.25;"/>
<line x1="209.700000" y1="194.000000" x2="217.700000" y2="194.000000"  style="stroke:black; stroke-linecap:round; stroke-width:0.25;"/>
<line x1="209.700000" y1="216.000000" x2="209.700000" y2="194.000000"  style="stroke:black; stroke-linecap:round; stroke-width:0.25;"/>
<line x1="209.700000" y1="216.000000" x2="209.700000" y2="216.000000"  style="stroke:black; stroke-linecap:round; stroke-width:0.25;"/>
<line x1="217.700000" y1="158.000000" x2="217.700000" y2="186.000000"  style="stroke:black; stroke-linecap:round; stroke-width:0.25;"/>
<line x1="217.700000" y1="186.000000" x2="217.700000" y2="186.000000"  style="stroke:black; stroke-linecap:round; stroke-width:0.25;"/>
<line x1="217.700000" y1="186.000000" x2="221.700000" y2="186.000000"  style="stroke:black; stroke-linecap:round; stroke-width:0.25;"/>
<line x1="217.700000" y1="194.000000" x2="221.700000" y2="194.000000"  style="stroke:black; stroke-linecap:round; stroke-width:0.25;"/>
<line x1="219.250000" y1="108.000000" x2="223.250000" y2="108.000000"  style="stroke:black; stroke-linecap:round; stroke-width:0.25;"/>
<line x1="223.250000" y1="108.000000" x2="289.700000" y2="108.000000"  style="stroke:black; stroke-linecap:round; stroke-width:0.25;"/>
<line x1="230.200000" y1="88.000000" x2="186.850000" y2="88.000000"  style="stroke:black; stroke-linecap:round; stroke-width:0.25;"/>
<line x1="245.700000" y1="190.000000" x2="249.700000" y2="190.000000"  style="stroke:black; stroke-linecap:round; stroke-width:0.25;"/>
<line x1="249.700000" y1="128.000000" x2="257.700000" y2="128.000000"  style="stroke:black; stroke-linecap:round; stroke-width:0.25;"/>
<line x1="249.700000" y1="190.000000" x2="257.700000" y2="190.000000"  style="stroke:black; stroke-linecap:round; stroke-width:0.25;"/>
<line x1="257.700000" y1="128.000000" x2="257.700000" y2="182.000000"  style="stroke:black; stroke-linecap:round; stroke-width:0.25;"/>
<line x1="257.700000" y1="182.000000" x2="257.700000" y2="182.000000"  style="stroke:black; stroke-linecap:round; stroke-width:0.25;"/>
<line x1="257.700000" y1="182.000000" x2="261.700000" y2="182.000000"  style="stroke:black; stroke-linecap:round; stroke-width:0.25;"/>
<line x1="257.700000" y1="190.000000" x2="261.700000" y2="190.000000"  style="stroke:black; stroke-linecap:round; stroke-width:0.25;"/>
<line x1="285.700000" y1="186.000000" x2="289.700000" y2="186.000000"  style="stroke:black; stroke-linecap:round; stroke-width:0.25;"/>
<line x1="289.700000" y1="88.000000" x2="230.200000" y2="88.000000"  style="stroke:black; stroke-linecap:round; stroke-width:0.25;"/>
<line x1="289.700000" y1="88.000000" x2="289.700000" y2="88.000000"  style="stroke:black; stroke-linecap:round; stroke-width:0.25;"/>
<line x1="289.700000" y1="104.000000" x2="289.700000" y2="88.000000"  style="stroke:black; stroke-linecap:round; stroke-width:0.25;"/>
<line x1="289.700000" y1="108.000000" x2="291.700000" y2="108.000000"  style="stroke:black; stroke-linecap:round; stroke-width:0.25;"/>
<line x1="289.700000" y1="186.000000" x2="297.700000" y2="186.000000"  style="stroke:black; stroke-linecap:round; stroke-width:0.25;"/>
<line x1="291.700000" y1="108.000000" x2="297.700000" y2="108.000000"  style="stroke:black; stroke-linecap:round; stroke-width:0.25;"/>
<line x1="297.700000" y1="108.000000" x2="305.700000" y2="108.000000"  style="stroke:black; stroke-linecap:round; stroke-width:0.25;"/>
<line x1="297.700000" y1="138.000000" x2="305.700000" y2="138.000000"  style="stroke:black; stroke-linecap:round; stroke-width:0.25;"/>
<line x1="297.700000" y1="186.000000" x2="297.700000" y2="138.000000"  style="stroke:black; stroke-linecap:round; stroke-width:0.25;"/>
<line x1="297.700000" y1="186.000000" x2="297.700000" y2="186.000000"  style="stroke:black; stroke-linecap:round; stroke-width:0.25;"/>
<line x1="305.700000" y1="108.000000" x2="305.700000" y2="130.000000"  style="stroke:black; stroke-linecap:round; stroke-width:0.25;"/>
<line x1="305.700000" y1="130.000000" x2="305.700000" y2="130.000000"  style="stroke:black; stroke-linecap:round; stroke-width:0.25;"/>
<line x1="305.700000" y1="130.000000" x2="309.700000" y2="130.000000"  style="stroke:black; stroke-linecap:round; stroke-width:0.25;"/>
<line x1="305.700000" y1="138.000000" x2="309.700000" y2="138.000000"  style="stroke:black; stroke-linecap:round; stroke-width:0.25;"/>
<line x1="333.700000" y1="134.000000" x2="337.700000" y2="134.000000"  style="stroke:black; stroke-linecap:round; stroke-width:0.25;"/>
<line x1="337.700000" y1="134.000000" x2="337.700000" y2="134.000000"  style="stroke:black; stroke-linecap:round; stroke-width:0.25;"/>
<line x1="337.700000" y1="134.000000" x2="341.700000" y2="134.000000"  style="stroke:black; stroke-linecap:round; stroke-width:0.25;"/>
<line x1="341.700000" y1="134.000000" x2="345.700000" y2="134.000000"  style="stroke:black; stroke-linecap:round; stroke-width:0.25;"/>
<line x1="345.700000" y1="134.000000" x2="355.700000" y2="134.000000"  style="stroke:black; stroke-linecap:round; stroke-width:0.25;"/>
</svg>
