<?xml version="1.0"?>
<svg xmlns="http://www.w3.org/2000/svg" xmlns:xlink="http://www.w3.org/1999/xlink" viewBox="0 0 232.000000 168.000000" width="116.000000mm" height="84.000000mm" version="1.1">
<a xlink:href="c2-0x7f81345582f0.svg">
<rect x="1.000000" y="1.000000" width="231.000000" height="167.000000" rx="0" ry="0" style="stroke:none;fill:#cccccc;"/>
<rect x="0.000000" y="0.000000" width="231.000000" height="167.000000" rx="0" ry="0" style="stroke:none;fill:#ffffff;"/>
</a>
<text x="10.000000" y="7.000000" font-family="Arial" font-size="7"></text>
<rect x="81.000000" y="25.000000" width="24.000000" height="24.000000" rx="0" ry="0" style="stroke:none;fill:#cccccc;"/>
<rect x="80.000000" y="24.000000" width="24.000000" height="24.000000" rx="0" ry="0" style="stroke:none;fill:#f44800;"/>
<text x="92.000000" y="38.000000" font-family="Arial" font-size="7" text-anchor="middle" fill="#FFFFFF">2</text>
<circle cx="82.000000" cy="26.000000" r="1"/>
<rect x="37.650000" y="57.000000" width="38.700000" height="24.000000" rx="0" ry="0" style="stroke:none;fill:#cccccc;"/>
<rect x="36.650000" y="56.000000" width="38.700000" height="24.000000" rx="0" ry="0" style="stroke:none;fill:#f44800;"/>
<text x="56.000000" y="70.000000" font-family="Arial" font-size="7" text-anchor="middle" fill="#FFFFFF">6.28319</text>
<circle cx="38.650000" cy="58.000000" r="1"/>
<a xlink:href="hp-0x7f813454ec40.svg">
<rect x="25.000000" y="89.000000" width="24.000000" height="24.000000" rx="0" ry="0" style="stroke:none;fill:#cccccc;"/>
<rect x="24.000000" y="88.000000" width="24.000000" height="24.000000" rx="0" ry="0" style="stroke:none;fill:#003366;"/>
</a>
<a xlink:href="hp-0x7f813454ec40.svg">
<text x="36.000000" y="102.000000" font-family="Arial" font-size="7" text-anchor="middle" fill="#FFFFFF">hp</text>
</a>
<circle cx="26.000000" cy="90.000000" r="1"/>
<a xlink:href="SR-0x7f81343439d0.svg">
<rect x="25.000000" y="121.000000" width="24.000000" height="24.000000" rx="0" ry="0" style="stroke:none;fill:#cccccc;"/>
<rect x="24.000000" y="120.000000" width="24.000000" height="24.000000" rx="0" ry="0" style="stroke:none;fill:#003366;"/>
</a>
<a xlink:href="SR-0x7f81343439d0.svg">
<text x="36.000000" y="134.000000" font-family="Arial" font-size="7" text-anchor="middle" fill="#FFFFFF">SR</text>
</a>
<circle cx="26.000000" cy="122.000000" r="1"/>
<rect x="65.000000" y="105.000000" width="24.000000" height="24.000000" rx="0" ry="0" style="stroke:none;fill:#cccccc;"/>
<rect x="64.000000" y="104.000000" width="24.000000" height="24.000000" rx="0" ry="0" style="stroke:none;fill:#4B71A1;"/>
<text x="76.000000" y="118.000000" font-family="Arial" font-size="7" text-anchor="middle" fill="#FFFFFF">/</text>
<circle cx="66.000000" cy="106.000000" r="1"/>
<line x1="61.000000" y1="111.000000" x2="64.000000" y2="112.000000"  transform="rotate(0.000000,64.000000,112.000000)" style="stroke: black; stroke-width:0.25;"/>
<line x1="61.000000" y1="113.000000" x2="64.000000" y2="112.000000"  transform="rotate(0.000000,64.000000,112.000000)" style="stroke: black; stroke-width:0.25;"/>
<line x1="61.000000" y1="119.000000" x2="64.000000" y2="120.000000"  transform="rotate(0.000000,64.000000,120.000000)" style="stroke: black; stroke-width:0.25;"/>
<line x1="61.000000" y1="121.000000" x2="64.000000" y2="120.000000"  transform="rotate(0.000000,64.000000,120.000000)" style="stroke: black; stroke-width:0.25;"/>
<rect x="105.000000" y="89.000000" width="24.000000" height="24.000000" rx="0" ry="0" style="stroke:none;fill:#cccccc;"/>
<rect x="104.000000" y="88.000000" width="24.000000" height="24.000000" rx="0" ry="0" style="stroke:none;fill:#4B71A1;"/>
<text x="116.000000" y="102.000000" font-family="Arial" font-size="7" text-anchor="middle" fill="#FFFFFF">*</text>
<circle cx="106.000000" cy="90.000000" r="1"/>
<line x1="101.000000" y1="95.000000" x2="104.000000" y2="96.000000"  transform="rotate(0.000000,104.000000,96.000000)" style="stroke: black; stroke-width:0.25;"/>
<line x1="101.000000" y1="97.000000" x2="104.000000" y2="96.000000"  transform="rotate(0.000000,104.000000,96.000000)" style="stroke: black; stroke-width:0.25;"/>
<line x1="101.000000" y1="103.000000" x2="104.000000" y2="104.000000"  transform="rotate(0.000000,104.000000,104.000000)" style="stroke: black; stroke-width:0.25;"/>
<line x1="101.000000" y1="105.000000" x2="104.000000" y2="104.000000"  transform="rotate(0.000000,104.000000,104.000000)" style="stroke: black; stroke-width:0.25;"/>
<rect x="137.000000" y="89.000000" width="24.000000" height="24.000000" rx="0" ry="0" style="stroke:none;fill:#cccccc;"/>
<rect x="136.000000" y="88.000000" width="24.000000" height="24.000000" rx="0" ry="0" style="stroke:none;fill:#4B71A1;"/>
<text x="148.000000" y="102.000000" font-family="Arial" font-size="7" text-anchor="middle" fill="#FFFFFF">cos</text>
<circle cx="138.000000" cy="90.000000" r="1"/>
<line x1="133.000000" y1="99.000000" x2="136.000000" y2="100.000000"  transform="rotate(0.000000,136.000000,100.000000)" style="stroke: black; stroke-width:0.25;"/>
<line x1="133.000000" y1="101.000000" x2="136.000000" y2="100.000000"  transform="rotate(0.000000,136.000000,100.000000)" style="stroke: black; stroke-width:0.25;"/>
<rect x="177.000000" y="73.000000" width="24.000000" height="24.000000" rx="0" ry="0" style="stroke:none;fill:#cccccc;"/>
<rect x="176.000000" y="72.000000" width="24.000000" height="24.000000" rx="0" ry="0" style="stroke:none;fill:#4B71A1;"/>
<text x="188.000000" y="86.000000" font-family="Arial" font-size="7" text-anchor="middle" fill="#FFFFFF">-</text>
<circle cx="178.000000" cy="74.000000" r="1"/>
<line x1="173.000000" y1="79.000000" x2="176.000000" y2="80.000000"  transform="rotate(0.000000,176.000000,80.000000)" style="stroke: black; stroke-width:0.25;"/>
<line x1="173.000000" y1="81.000000" x2="176.000000" y2="80.000000"  transform="rotate(0.000000,176.000000,80.000000)" style="stroke: black; stroke-width:0.25;"/>
<line x1="173.000000" y1="87.000000" x2="176.000000" y2="88.000000"  transform="rotate(0.000000,176.000000,88.000000)" style="stroke: black; stroke-width:0.25;"/>
<line x1="173.000000" y1="89.000000" x2="176.000000" y2="88.000000"  transform="rotate(0.000000,176.000000,88.000000)" style="stroke: black; stroke-width:0.25;"/>
<line x1="15.000000" y1="15.000000" x2="15.000000" y2="153.000000"  style="stroke: black; stroke-linecap:round; stroke-width:0.25; stroke-dasharray:3,3;"/>
<line x1="15.000000" y1="153.000000" x2="217.000000" y2="153.000000"  style="stroke: black; stroke-linecap:round; stroke-width:0.25; stroke-dasharray:3,3;"/>
<line x1="217.000000" y1="153.000000" x2="217.000000" y2="15.000000"  style="stroke: black; stroke-linecap:round; stroke-width:0.25; stroke-dasharray:3,3;"/>
<line x1="15.000000" y1="15.000000" x2="20.000000" y2="15.000000"  style="stroke: black; stroke-linecap:round; stroke-width:0.25; stroke-dasharray:3,3;"/>
<line x1="29.675000" y1="15.000000" x2="217.000000" y2="15.000000"  style="stroke: black; stroke-linecap:round; stroke-width:0.25; stroke-dasharray:3,3;"/>
<text x="20.000000" y="17.000000" font-family="Arial" font-size="7">b</text>
<line x1="219.000000" y1="83.000000" x2="222.000000" y2="84.000000"  transform="rotate(0.000000,222.000000,84.000000)" style="stroke: black; stroke-width:0.25;"/>
<line x1="219.000000" y1="85.000000" x2="222.000000" y2="84.000000"  transform="rotate(0.000000,222.000000,84.000000)" style="stroke: black; stroke-width:0.25;"/>
<line x1="48.000000" y1="100.000000" x2="52.000000" y2="100.000000"  style="stroke:black; stroke-linecap:round; stroke-width:0.25;"/>
<line x1="48.000000" y1="132.000000" x2="52.000000" y2="132.000000"  style="stroke:black; stroke-linecap:round; stroke-width:0.25;"/>
<line x1="52.000000" y1="100.000000" x2="60.000000" y2="100.000000"  style="stroke:black; stroke-linecap:round; stroke-width:0.25;"/>
<line x1="52.000000" y1="120.000000" x2="60.000000" y2="120.000000"  style="stroke:black; stroke-linecap:round; stroke-width:0.25;"/>
<line x1="52.000000" y1="132.000000" x2="52.000000" y2="120.000000"  style="stroke:black; stroke-linecap:round; stroke-width:0.25;"/>
<line x1="52.000000" y1="132.000000" x2="52.000000" y2="132.000000"  style="stroke:black; stroke-linecap:round; stroke-width:0.25;"/>
<line x1="60.000000" y1="100.000000" x2="60.000000" y2="112.000000"  style="stroke:black; stroke-linecap:round; stroke-width:0.25;"/>
<line x1="60.000000" y1="112.000000" x2="60.000000" y2="112.000000"  style="stroke:black; stroke-linecap:round; stroke-width:0.25;"/>
<line x1="60.000000" y1="112.000000" x2="64.000000" y2="112.000000"  style="stroke:black; stroke-linecap:round; stroke-width:0.25;"/>
<line x1="60.000000" y1="120.000000" x2="64.000000" y2="120.000000"  style="stroke:black; stroke-linecap:round; stroke-width:0.25;"/>
<line x1="75.350000" y1="68.000000" x2="79.350000" y2="68.000000"  style="stroke:black; stroke-linecap:round; stroke-width:0.25;"/>
<line x1="79.350000" y1="68.000000" x2="92.000000" y2="68.000000"  style="stroke:black; stroke-linecap:round; stroke-width:0.25;"/>
<line x1="88.000000" y1="116.000000" x2="92.000000" y2="116.000000"  style="stroke:black; stroke-linecap:round; stroke-width:0.25;"/>
<line x1="92.000000" y1="68.000000" x2="100.000000" y2="68.000000"  style="stroke:black; stroke-linecap:round; stroke-width:0.25;"/>
<line x1="92.000000" y1="104.000000" x2="100.000000" y2="104.000000"  style="stroke:black; stroke-linecap:round; stroke-width:0.25;"/>
<line x1="92.000000" y1="116.000000" x2="92.000000" y2="104.000000"  style="stroke:black; stroke-linecap:round; stroke-width:0.25;"/>
<line x1="92.000000" y1="116.000000" x2="92.000000" y2="116.000000"  style="stroke:black; stroke-linecap:round; stroke-width:0.25;"/>
<line x1="100.000000" y1="68.000000" x2="100.000000" y2="96.000000"  style="stroke:black; stroke-linecap:round; stroke-width:0.25;"/>
<line x1="100.000000" y1="96.000000" x2="100.000000" y2="96.000000"  style="stroke:black; stroke-linecap:round; stroke-width:0.25;"/>
<line x1="100.000000" y1="96.000000" x2="104.000000" y2="96.000000"  style="stroke:black; stroke-linecap:round; stroke-width:0.25;"/>
<line x1="100.000000" y1="104.000000" x2="104.000000" y2="104.000000"  style="stroke:black; stroke-linecap:round; stroke-width:0.25;"/>
<line x1="104.000000" y1="36.000000" x2="108.000000" y2="36.000000"  style="stroke:black; stroke-linecap:round; stroke-width:0.25;"/>
<line x1="108.000000" y1="36.000000" x2="164.000000" y2="36.000000"  style="stroke:black; stroke-linecap:round; stroke-width:0.25;"/>
<line x1="128.000000" y1="100.000000" x2="132.000000" y2="100.000000"  style="stroke:black; stroke-linecap:round; stroke-width:0.25;"/>
<line x1="132.000000" y1="100.000000" x2="132.000000" y2="100.000000"  style="stroke:black; stroke-linecap:round; stroke-width:0.25;"/>
<line x1="132.000000" y1="100.000000" x2="136.000000" y2="100.000000"  style="stroke:black; stroke-linecap:round; stroke-width:0.25;"/>
<line x1="160.000000" y1="100.000000" x2="164.000000" y2="100.000000"  style="stroke:black; stroke-linecap:round; stroke-width:0.25;"/>
<line x1="164.000000" y1="36.000000" x2="172.000000" y2="36.000000"  style="stroke:black; stroke-linecap:round; stroke-width:0.25;"/>
<line x1="164.000000" y1="88.000000" x2="172.000000" y2="88.000000"  style="stroke:black; stroke-linecap:round; stroke-width:0.25;"/>
<line x1="164.000000" y1="100.000000" x2="164.000000" y2="88.000000"  style="stroke:black; stroke-linecap:round; stroke-width:0.25;"/>
<line x1="164.000000" y1="100.000000" x2="164.000000" y2="100.000000"  style="stroke:black; stroke-linecap:round; stroke-width:0.25;"/>
<line x1="172.000000" y1="36.000000" x2="172.000000" y2="80.000000"  style="stroke:black; stroke-linecap:round; stroke-width:0.25;"/>
<line x1="172.000000" y1="80.000000" x2="172.000000" y2="80.000000"  style="stroke:black; stroke-linecap:round; stroke-width:0.25;"/>
<line x1="172.000000" y1="80.000000" x2="176.000000" y2="80.000000"  style="stroke:black; stroke-linecap:round; stroke-width:0.25;"/>
<line x1="172.000000" y1="88.000000" x2="176.000000" y2="88.000000"  style="stroke:black; stroke-linecap:round; stroke-width:0.25;"/>
<line x1="200.000000" y1="84.000000" x2="204.000000" y2="84.000000"  style="stroke:black; stroke-linecap:round; stroke-width:0.25;"/>
<line x1="204.000000" y1="84.000000" x2="204.000000" y2="84.000000"  style="stroke:black; stroke-linecap:round; stroke-width:0.25;"/>
<line x1="204.000000" y1="84.000000" x2="208.000000" y2="84.000000"  style="stroke:black; stroke-linecap:round; stroke-width:0.25;"/>
<line x1="208.000000" y1="84.000000" x2="212.000000" y2="84.000000"  style="stroke:black; stroke-linecap:round; stroke-width:0.25;"/>
<line x1="212.000000" y1="84.000000" x2="222.000000" y2="84.000000"  style="stroke:black; stroke-linecap:round; stroke-width:0.25;"/>
</svg>
