<?xml version="1.0"?>
<svg xmlns="http://www.w3.org/2000/svg" xmlns:xlink="http://www.w3.org/1999/xlink" viewBox="0 0 259.800000 172.000000" width="129.900000mm" height="86.000000mm" version="1.1">
<a xlink:href="adel2-0x7f81345cba80.svg">
<rect x="1.000000" y="1.000000" width="258.800000" height="171.000000" rx="0" ry="0" style="stroke:none;fill:#cccccc;"/>
<rect x="0.000000" y="0.000000" width="258.800000" height="171.000000" rx="0" ry="0" style="stroke:none;fill:#ffffff;"/>
</a>
<text x="10.000000" y="7.000000" font-family="Arial" font-size="7"></text>
<rect x="49.000000" y="105.000000" width="24.000000" height="24.000000" rx="0" ry="0" style="stroke:none;fill:#cccccc;"/>
<rect x="48.000000" y="104.000000" width="24.000000" height="24.000000" rx="0" ry="0" style="stroke:none;fill:#4B71A1;"/>
<text x="60.000000" y="118.000000" font-family="Arial" font-size="7" text-anchor="middle" fill="#FFFFFF">+</text>
<circle cx="50.000000" cy="106.000000" r="1"/>
<line x1="45.000000" y1="111.000000" x2="48.000000" y2="112.000000"  transform="rotate(0.000000,48.000000,112.000000)" style="stroke: black; stroke-width:0.25;"/>
<line x1="45.000000" y1="113.000000" x2="48.000000" y2="112.000000"  transform="rotate(0.000000,48.000000,112.000000)" style="stroke: black; stroke-width:0.25;"/>
<line x1="45.000000" y1="119.000000" x2="48.000000" y2="120.000000"  transform="rotate(0.000000,48.000000,120.000000)" style="stroke: black; stroke-width:0.25;"/>
<line x1="45.000000" y1="121.000000" x2="48.000000" y2="120.000000"  transform="rotate(0.000000,48.000000,120.000000)" style="stroke: black; stroke-width:0.25;"/>
<a xlink:href="delay-0x7f81345cb500.svg">
<rect x="127.000000" y="85.000000" width="25.800000" height="24.000000" rx="0" ry="0" style="stroke:none;fill:#cccccc;"/>
<rect x="126.000000" y="84.000000" width="25.800000" height="24.000000" rx="0" ry="0" style="stroke:none;fill:#003366;"/>
</a>
<a xlink:href="delay-0x7f81345cb500.svg">
<text x="138.900000" y="98.000000" font-family="Arial" font-size="7" text-anchor="middle" fill="#FFFFFF">delay</text>
</a>
<circle cx="128.000000" cy="86.000000" r="1"/>
<line x1="123.000000" y1="95.000000" x2="126.000000" y2="96.000000"  transform="rotate(0.000000,126.000000,96.000000)" style="stroke: black; stroke-width:0.25;"/>
<line x1="123.000000" y1="97.000000" x2="126.000000" y2="96.000000"  transform="rotate(0.000000,126.000000,96.000000)" style="stroke: black; stroke-width:0.25;"/>
<rect x="107.000000" y="125.000000" width="25.800000" height="24.000000" rx="0" ry="0" style="stroke:none;fill:#cccccc;"/>
<rect x="106.000000" y="124.000000" width="25.800000" height="24.000000" rx="0" ry="0" style="stroke:none;fill:#f44800;"/>
<text x="118.900000" y="138.000000" font-family="Arial" font-size="7" text-anchor="middle" fill="#FFFFFF">-0.5</text>
<circle cx="108.000000" cy="126.000000" r="1"/>
<rect x="148.800000" y="121.000000" width="24.000000" height="24.000000" rx="0" ry="0" style="stroke:none;fill:#cccccc;"/>
<rect x="147.800000" y="120.000000" width="24.000000" height="24.000000" rx="0" ry="0" style="stroke:none;fill:#4B71A1;"/>
<text x="159.800000" y="134.000000" font-family="Arial" font-size="7" text-anchor="middle" fill="#FFFFFF">*</text>
<circle cx="149.800000" cy="122.000000" r="1"/>
<line x1="144.800000" y1="127.000000" x2="147.800000" y2="128.000000"  transform="rotate(0.000000,147.800000,128.000000)" style="stroke: black; stroke-width:0.25;"/>
<line x1="144.800000" y1="129.000000" x2="147.800000" y2="128.000000"  transform="rotate(0.000000,147.800000,128.000000)" style="stroke: black; stroke-width:0.25;"/>
<line x1="144.800000" y1="135.000000" x2="147.800000" y2="136.000000"  transform="rotate(0.000000,147.800000,136.000000)" style="stroke: black; stroke-width:0.25;"/>
<line x1="144.800000" y1="137.000000" x2="147.800000" y2="136.000000"  transform="rotate(0.000000,147.800000,136.000000)" style="stroke: black; stroke-width:0.25;"/>
<rect x="118.900000" y="35.000000" width="24.000000" height="24.000000" rx="0" ry="0" style="stroke:none;fill:#cccccc;"/>
<rect x="117.900000" y="34.000000" width="24.000000" height="24.000000" rx="0" ry="0" style="stroke:none;fill:#f44800;"/>
<text x="129.900000" y="48.000000" font-family="Arial" font-size="7" text-anchor="middle" fill="#FFFFFF">0.5</text>
<circle cx="139.900000" cy="56.000000" r="1"/>
<line x1="108.900000" y1="25.000000" x2="108.900000" y2="67.000000"  style="stroke: black; stroke-linecap:round; stroke-width:0.25; stroke-dasharray:3,3;"/>
<line x1="108.900000" y1="67.000000" x2="150.900000" y2="67.000000"  style="stroke: black; stroke-linecap:round; stroke-width:0.25; stroke-dasharray:3,3;"/>
<line x1="150.900000" y1="67.000000" x2="150.900000" y2="25.000000"  style="stroke: black; stroke-linecap:round; stroke-width:0.25; stroke-dasharray:3,3;"/>
<line x1="108.900000" y1="25.000000" x2="113.900000" y2="25.000000"  style="stroke: black; stroke-linecap:round; stroke-width:0.25; stroke-dasharray:3,3;"/>
<line x1="149.375000" y1="25.000000" x2="150.900000" y2="25.000000"  style="stroke: black; stroke-linecap:round; stroke-width:0.25; stroke-dasharray:3,3;"/>
<text x="113.900000" y="27.000000" font-family="Arial" font-size="7">idifftime</text>
<rect x="68.900000" y="39.000000" width="24.000000" height="24.000000" rx="0" ry="0" style="stroke:none;fill:#cccccc;"/>
<rect x="67.900000" y="38.000000" width="24.000000" height="24.000000" rx="0" ry="0" style="stroke:none;fill:#4B71A1;"/>
<text x="79.900000" y="52.000000" font-family="Arial" font-size="7" text-anchor="middle" fill="#FFFFFF">*</text>
<circle cx="89.900000" cy="60.000000" r="1"/>
<line x1="94.900000" y1="53.000000" x2="91.900000" y2="54.000000"  transform="rotate(0.000000,91.900000,54.000000)" style="stroke: black; stroke-width:0.25;"/>
<line x1="94.900000" y1="55.000000" x2="91.900000" y2="54.000000"  transform="rotate(0.000000,91.900000,54.000000)" style="stroke: black; stroke-width:0.25;"/>
<line x1="94.900000" y1="45.000000" x2="91.900000" y2="46.000000"  transform="rotate(0.000000,91.900000,46.000000)" style="stroke: black; stroke-width:0.25;"/>
<line x1="94.900000" y1="47.000000" x2="91.900000" y2="46.000000"  transform="rotate(0.000000,91.900000,46.000000)" style="stroke: black; stroke-width:0.25;"/>
<line x1="173.800000" y1="96.000000" x2="173.800000" y2="92.000000"  style="stroke:black; stroke-linecap:round; stroke-width:0.25;"/>
<line x1="173.800000" y1="92.000000" x2="177.800000" y2="92.000000"  style="stroke:black; stroke-linecap:round; stroke-width:0.25;"/>
<line x1="177.800000" y1="92.000000" x2="177.800000" y2="96.000000"  style="stroke:black; stroke-linecap:round; stroke-width:0.25;"/>
<rect x="204.800000" y="75.000000" width="24.000000" height="24.000000" rx="0" ry="0" style="stroke:none;fill:#cccccc;"/>
<rect x="203.800000" y="74.000000" width="24.000000" height="24.000000" rx="0" ry="0" style="stroke:none;fill:#4B71A1;"/>
<text x="215.800000" y="88.000000" font-family="Arial" font-size="7" text-anchor="middle" fill="#FFFFFF">+</text>
<circle cx="205.800000" cy="76.000000" r="1"/>
<line x1="200.800000" y1="81.000000" x2="203.800000" y2="82.000000"  transform="rotate(0.000000,203.800000,82.000000)" style="stroke: black; stroke-width:0.25;"/>
<line x1="200.800000" y1="83.000000" x2="203.800000" y2="82.000000"  transform="rotate(0.000000,203.800000,82.000000)" style="stroke: black; stroke-width:0.25;"/>
<line x1="200.800000" y1="89.000000" x2="203.800000" y2="90.000000"  transform="rotate(0.000000,203.800000,90.000000)" style="stroke: black; stroke-width:0.25;"/>
<line x1="200.800000" y1="91.000000" x2="203.800000" y2="90.000000"  transform="rotate(0.000000,203.800000,90.000000)" style="stroke: black; stroke-width:0.25;"/>
<line x1="15.000000" y1="15.000000" x2="15.000000" y2="157.000000"  style="stroke: black; stroke-linecap:round; stroke-width:0.25; stroke-dasharray:3,3;"/>
<line x1="15.000000" y1="157.000000" x2="244.800000" y2="157.000000"  style="stroke: black; stroke-linecap:round; stroke-width:0.25; stroke-dasharray:3,3;"/>
<line x1="244.800000" y1="157.000000" x2="244.800000" y2="15.000000"  style="stroke: black; stroke-linecap:round; stroke-width:0.25; stroke-dasharray:3,3;"/>
<line x1="15.000000" y1="15.000000" x2="20.000000" y2="15.000000"  style="stroke: black; stroke-linecap:round; stroke-width:0.25; stroke-dasharray:3,3;"/>
<line x1="42.575000" y1="15.000000" x2="244.800000" y2="15.000000"  style="stroke: black; stroke-linecap:round; stroke-width:0.25; stroke-dasharray:3,3;"/>
<text x="20.000000" y="17.000000" font-family="Arial" font-size="7">cmtap</text>
<line x1="246.800000" y1="85.000000" x2="249.800000" y2="86.000000"  transform="rotate(0.000000,249.800000,86.000000)" style="stroke: black; stroke-width:0.25;"/>
<line x1="246.800000" y1="87.000000" x2="249.800000" y2="86.000000"  transform="rotate(0.000000,249.800000,86.000000)" style="stroke: black; stroke-width:0.25;"/>
<line x1="10.000000" y1="86.000000" x2="20.000000" y2="86.000000"  style="stroke:black; stroke-linecap:round; stroke-width:0.25;"/>
<line x1="20.000000" y1="86.000000" x2="24.000000" y2="86.000000"  style="stroke:black; stroke-linecap:round; stroke-width:0.25;"/>
<line x1="24.000000" y1="86.000000" x2="28.000000" y2="86.000000"  style="stroke:black; stroke-linecap:round; stroke-width:0.25;"/>
<line x1="28.000000" y1="86.000000" x2="36.000000" y2="86.000000"  style="stroke:black; stroke-linecap:round; stroke-width:0.25;"/>
<line x1="36.000000" y1="86.000000" x2="36.000000" y2="120.000000"  style="stroke:black; stroke-linecap:round; stroke-width:0.25;"/>
<line x1="36.000000" y1="120.000000" x2="36.000000" y2="120.000000"  style="stroke:black; stroke-linecap:round; stroke-width:0.25;"/>
<line x1="36.000000" y1="120.000000" x2="44.000000" y2="120.000000"  style="stroke:black; stroke-linecap:round; stroke-width:0.25;"/>
<line x1="44.000000" y1="50.000000" x2="44.000000" y2="50.000000"  style="stroke:black; stroke-linecap:round; stroke-width:0.25;"/>
<line x1="44.000000" y1="50.000000" x2="44.000000" y2="112.000000"  style="stroke:black; stroke-linecap:round; stroke-width:0.25;"/>
<line x1="44.000000" y1="112.000000" x2="44.000000" y2="112.000000"  style="stroke:black; stroke-linecap:round; stroke-width:0.25;"/>
<line x1="44.000000" y1="112.000000" x2="48.000000" y2="112.000000"  style="stroke:black; stroke-linecap:round; stroke-width:0.25;"/>
<line x1="44.000000" y1="120.000000" x2="48.000000" y2="120.000000"  style="stroke:black; stroke-linecap:round; stroke-width:0.25;"/>
<line x1="63.900000" y1="50.000000" x2="44.000000" y2="50.000000"  style="stroke:black; stroke-linecap:round; stroke-width:0.25;"/>
<line x1="67.900000" y1="50.000000" x2="63.900000" y2="50.000000"  style="stroke:black; stroke-linecap:round; stroke-width:0.25;"/>
<line x1="72.000000" y1="116.000000" x2="76.000000" y2="116.000000"  style="stroke:black; stroke-linecap:round; stroke-width:0.25;"/>
<line x1="76.000000" y1="116.000000" x2="102.000000" y2="96.000000"  style="stroke:black; stroke-linecap:round; stroke-width:0.25;"/>
<line x1="76.000000" y1="116.000000" x2="102.000000" y2="116.000000"  style="stroke:black; stroke-linecap:round; stroke-width:0.25;"/>
<line x1="95.900000" y1="46.000000" x2="91.900000" y2="46.000000"  style="stroke:black; stroke-linecap:round; stroke-width:0.25;"/>
<line x1="95.900000" y1="54.000000" x2="91.900000" y2="54.000000"  style="stroke:black; stroke-linecap:round; stroke-width:0.25;"/>
<line x1="95.900000" y1="54.000000" x2="95.900000" y2="54.000000"  style="stroke:black; stroke-linecap:round; stroke-width:0.25;"/>
<line x1="95.900000" y1="76.000000" x2="95.900000" y2="54.000000"  style="stroke:black; stroke-linecap:round; stroke-width:0.25;"/>
<line x1="102.000000" y1="96.000000" x2="122.000000" y2="96.000000"  style="stroke:black; stroke-linecap:round; stroke-width:0.25;"/>
<line x1="102.000000" y1="116.000000" x2="118.900000" y2="116.000000"  style="stroke:black; stroke-linecap:round; stroke-width:0.25;"/>
<line x1="103.900000" y1="46.000000" x2="95.900000" y2="46.000000"  style="stroke:black; stroke-linecap:round; stroke-width:0.25;"/>
<line x1="103.900000" y1="76.000000" x2="95.900000" y2="76.000000"  style="stroke:black; stroke-linecap:round; stroke-width:0.25;"/>
<line x1="113.900000" y1="46.000000" x2="103.900000" y2="46.000000"  style="stroke:black; stroke-linecap:round; stroke-width:0.25;"/>
<line x1="117.900000" y1="46.000000" x2="113.900000" y2="46.000000"  style="stroke:black; stroke-linecap:round; stroke-width:0.25;"/>
<line x1="118.900000" y1="116.000000" x2="135.800000" y2="116.000000"  style="stroke:black; stroke-linecap:round; stroke-width:0.25;"/>
<line x1="122.000000" y1="96.000000" x2="126.000000" y2="96.000000"  style="stroke:black; stroke-linecap:round; stroke-width:0.25;"/>
<line x1="129.900000" y1="76.000000" x2="103.900000" y2="76.000000"  style="stroke:black; stroke-linecap:round; stroke-width:0.25;"/>
<line x1="131.800000" y1="136.000000" x2="135.800000" y2="136.000000"  style="stroke:black; stroke-linecap:round; stroke-width:0.25;"/>
<line x1="135.800000" y1="116.000000" x2="143.800000" y2="116.000000"  style="stroke:black; stroke-linecap:round; stroke-width:0.25;"/>
<line x1="135.800000" y1="136.000000" x2="143.800000" y2="136.000000"  style="stroke:black; stroke-linecap:round; stroke-width:0.25;"/>
<line x1="143.800000" y1="116.000000" x2="143.800000" y2="128.000000"  style="stroke:black; stroke-linecap:round; stroke-width:0.25;"/>
<line x1="143.800000" y1="128.000000" x2="143.800000" y2="128.000000"  style="stroke:black; stroke-linecap:round; stroke-width:0.25;"/>
<line x1="143.800000" y1="128.000000" x2="147.800000" y2="128.000000"  style="stroke:black; stroke-linecap:round; stroke-width:0.25;"/>
<line x1="143.800000" y1="136.000000" x2="147.800000" y2="136.000000"  style="stroke:black; stroke-linecap:round; stroke-width:0.25;"/>
<line x1="151.800000" y1="96.000000" x2="155.800000" y2="96.000000"  style="stroke:black; stroke-linecap:round; stroke-width:0.25;"/>
<line x1="155.800000" y1="96.000000" x2="175.800000" y2="96.000000"  style="stroke:black; stroke-linecap:round; stroke-width:0.25;"/>
<line x1="155.900000" y1="76.000000" x2="129.900000" y2="76.000000"  style="stroke:black; stroke-linecap:round; stroke-width:0.25;"/>
<line x1="171.800000" y1="132.000000" x2="175.800000" y2="132.000000"  style="stroke:black; stroke-linecap:round; stroke-width:0.25;"/>
<line x1="175.800000" y1="76.000000" x2="155.900000" y2="76.000000"  style="stroke:black; stroke-linecap:round; stroke-width:0.25;"/>
<line x1="175.800000" y1="76.000000" x2="175.800000" y2="76.000000"  style="stroke:black; stroke-linecap:round; stroke-width:0.25;"/>
<line x1="175.800000" y1="92.000000" x2="175.800000" y2="76.000000"  style="stroke:black; stroke-linecap:round; stroke-width:0.25;"/>
<line x1="175.800000" y1="96.000000" x2="177.800000" y2="96.000000"  style="stroke:black; stroke-linecap:round; stroke-width:0.25;"/>
<line x1="175.800000" y1="132.000000" x2="183.800000" y2="132.000000"  style="stroke:black; stroke-linecap:round; stroke-width:0.25;"/>
<line x1="177.800000" y1="96.000000" x2="183.800000" y2="96.000000"  style="stroke:black; stroke-linecap:round; stroke-width:0.25;"/>
<line x1="183.800000" y1="82.000000" x2="199.800000" y2="82.000000"  style="stroke:black; stroke-linecap:round; stroke-width:0.25;"/>
<line x1="183.800000" y1="96.000000" x2="183.800000" y2="82.000000"  style="stroke:black; stroke-linecap:round; stroke-width:0.25;"/>
<line x1="183.800000" y1="96.000000" x2="183.800000" y2="96.000000"  style="stroke:black; stroke-linecap:round; stroke-width:0.25;"/>
<line x1="183.800000" y1="132.000000" x2="191.800000" y2="132.000000"  style="stroke:black; stroke-linecap:round; stroke-width:0.25;"/>
<line x1="191.800000" y1="90.000000" x2="199.800000" y2="90.000000"  style="stroke:black; stroke-linecap:round; stroke-width:0.25;"/>
<line x1="191.800000" y1="132.000000" x2="191.800000" y2="90.000000"  style="stroke:black; stroke-linecap:round; stroke-width:0.25;"/>
<line x1="199.800000" y1="82.000000" x2="203.800000" y2="82.000000"  style="stroke:black; stroke-linecap:round; stroke-width:0.25;"/>
<line x1="199.800000" y1="90.000000" x2="203.800000" y2="90.000000"  style="stroke:black; stroke-linecap:round; stroke-width:0.25;"/>
<line x1="227.800000" y1="86.000000" x2="231.800000" y2="86.000000"  style="stroke:black; stroke-linecap:round; stroke-width:0.25;"/>
<line x1="231.800000" y1="86.000000" x2="231.800000" y2="86.000000"  style="stroke:black; stroke-linecap:round; stroke-width:0.25;"/>
<line x1="231.800000" y1="86.000000" x2="235.800000" y2="86.000000"  style="stroke:black; stroke-linecap:round; stroke-width:0.25;"/>
<line x1="235.800000" y1="86.000000" x2="239.800000" y2="86.000000"  style="stroke:black; stroke-linecap:round; stroke-width:0.25;"/>
<line x1="239.800000" y1="86.000000" x2="249.800000" y2="86.000000"  style="stroke:black; stroke-linecap:round; stroke-width:0.25;"/>
</svg>
