<?xml version="1.0"?>
<svg xmlns="http://www.w3.org/2000/svg" xmlns:xlink="http://www.w3.org/1999/xlink" viewBox="0 0 366.700000 272.000000" width="183.350000mm" height="136.000000mm" version="1.1">
<a xlink:href="apfrag2-0x7f81345ba820.svg">
<rect x="1.000000" y="1.000000" width="365.700000" height="271.000000" rx="0" ry="0" style="stroke:none;fill:#cccccc;"/>
<rect x="0.000000" y="0.000000" width="365.700000" height="271.000000" rx="0" ry="0" style="stroke:none;fill:#ffffff;"/>
</a>
<text x="10.000000" y="7.000000" font-family="Arial" font-size="7"></text>
<rect x="33.000000" y="125.000000" width="24.000000" height="24.000000" rx="0" ry="0" style="stroke:none;fill:#cccccc;"/>
<rect x="32.000000" y="124.000000" width="24.000000" height="24.000000" rx="0" ry="0" style="stroke:none;fill:#47945E;"/>
<text x="44.000000" y="138.000000" font-family="Arial" font-size="7" text-anchor="middle" fill="#FFFFFF">x</text>
<circle cx="34.000000" cy="126.000000" r="1"/>
<line x1="29.000000" y1="135.000000" x2="32.000000" y2="136.000000"  transform="rotate(0.000000,32.000000,136.000000)" style="stroke: black; stroke-width:0.25;"/>
<line x1="29.000000" y1="137.000000" x2="32.000000" y2="136.000000"  transform="rotate(0.000000,32.000000,136.000000)" style="stroke: black; stroke-width:0.25;"/>
<rect x="168.350000" y="25.000000" width="24.000000" height="24.000000" rx="0" ry="0" style="stroke:none;fill:#cccccc;"/>
<rect x="167.350000" y="24.000000" width="24.000000" height="24.000000" rx="0" ry="0" style="stroke:none;fill:#47945E;"/>
<text x="179.350000" y="38.000000" font-family="Arial" font-size="7" text-anchor="middle" fill="#FFFFFF">x</text>
<circle cx="169.350000" cy="26.000000" r="1"/>
<a xlink:href="SR-0x7f81343439d0.svg">
<rect x="148.350000" y="57.000000" width="24.000000" height="24.000000" rx="0" ry="0" style="stroke:none;fill:#cccccc;"/>
<rect x="147.350000" y="56.000000" width="24.000000" height="24.000000" rx="0" ry="0" style="stroke:none;fill:#003366;"/>
</a>
<a xlink:href="SR-0x7f81343439d0.svg">
<text x="159.350000" y="70.000000" font-family="Arial" font-size="7" text-anchor="middle" fill="#FFFFFF">SR</text>
</a>
<circle cx="149.350000" cy="58.000000" r="1"/>
<rect x="128.350000" y="99.000000" width="24.000000" height="24.000000" rx="0" ry="0" style="stroke:none;fill:#cccccc;"/>
<rect x="127.350000" y="98.000000" width="24.000000" height="24.000000" rx="0" ry="0" style="stroke:none;fill:#f44800;"/>
<text x="139.350000" y="112.000000" font-family="Arial" font-size="7" text-anchor="middle" fill="#FFFFFF">0</text>
<circle cx="129.350000" cy="100.000000" r="1"/>
<line x1="118.350000" y1="89.000000" x2="118.350000" y2="131.000000"  style="stroke: black; stroke-linecap:round; stroke-width:0.25; stroke-dasharray:3,3;"/>
<line x1="118.350000" y1="131.000000" x2="160.350000" y2="131.000000"  style="stroke: black; stroke-linecap:round; stroke-width:0.25; stroke-dasharray:3,3;"/>
<line x1="160.350000" y1="131.000000" x2="160.350000" y2="89.000000"  style="stroke: black; stroke-linecap:round; stroke-width:0.25; stroke-dasharray:3,3;"/>
<line x1="118.350000" y1="89.000000" x2="123.350000" y2="89.000000"  style="stroke: black; stroke-linecap:round; stroke-width:0.25; stroke-dasharray:3,3;"/>
<line x1="149.150000" y1="89.000000" x2="160.350000" y2="89.000000"  style="stroke: black; stroke-linecap:round; stroke-width:0.25; stroke-dasharray:3,3;"/>
<text x="123.350000" y="91.000000" font-family="Arial" font-size="7">parity</text>
<rect x="72.350000" y="141.000000" width="24.000000" height="24.000000" rx="0" ry="0" style="stroke:none;fill:#cccccc;"/>
<rect x="71.350000" y="140.000000" width="24.000000" height="24.000000" rx="0" ry="0" style="stroke:none;fill:#f44800;"/>
<text x="83.350000" y="154.000000" font-family="Arial" font-size="7" text-anchor="middle" fill="#FFFFFF">2</text>
<circle cx="73.350000" cy="142.000000" r="1"/>
<a xlink:href="itfrag2s-0x7f81341f77b0.svg">
<rect x="65.000000" y="173.000000" width="38.700000" height="24.000000" rx="0" ry="0" style="stroke:none;fill:#cccccc;"/>
<rect x="64.000000" y="172.000000" width="38.700000" height="24.000000" rx="0" ry="0" style="stroke:none;fill:#003366;"/>
</a>
<a xlink:href="itfrag2s-0x7f81341f77b0.svg">
<text x="83.350000" y="186.000000" font-family="Arial" font-size="7" text-anchor="middle" fill="#FFFFFF">itfrag2s</text>
</a>
<circle cx="66.000000" cy="174.000000" r="1"/>
<rect x="119.700000" y="157.000000" width="24.000000" height="24.000000" rx="0" ry="0" style="stroke:none;fill:#cccccc;"/>
<rect x="118.700000" y="156.000000" width="24.000000" height="24.000000" rx="0" ry="0" style="stroke:none;fill:#4B71A1;"/>
<text x="130.700000" y="170.000000" font-family="Arial" font-size="7" text-anchor="middle" fill="#FFFFFF">*</text>
<circle cx="120.700000" cy="158.000000" r="1"/>
<line x1="115.700000" y1="163.000000" x2="118.700000" y2="164.000000"  transform="rotate(0.000000,118.700000,164.000000)" style="stroke: black; stroke-width:0.25;"/>
<line x1="115.700000" y1="165.000000" x2="118.700000" y2="164.000000"  transform="rotate(0.000000,118.700000,164.000000)" style="stroke: black; stroke-width:0.25;"/>
<line x1="115.700000" y1="171.000000" x2="118.700000" y2="172.000000"  transform="rotate(0.000000,118.700000,172.000000)" style="stroke: black; stroke-width:0.25;"/>
<line x1="115.700000" y1="173.000000" x2="118.700000" y2="172.000000"  transform="rotate(0.000000,118.700000,172.000000)" style="stroke: black; stroke-width:0.25;"/>
<rect x="92.350000" y="215.000000" width="24.000000" height="24.000000" rx="0" ry="0" style="stroke:none;fill:#cccccc;"/>
<rect x="91.350000" y="214.000000" width="24.000000" height="24.000000" rx="0" ry="0" style="stroke:none;fill:#f44800;"/>
<text x="103.350000" y="228.000000" font-family="Arial" font-size="7" text-anchor="middle" fill="#FFFFFF">1</text>
<circle cx="93.350000" cy="216.000000" r="1"/>
<line x1="82.350000" y1="205.000000" x2="82.350000" y2="247.000000"  style="stroke: black; stroke-linecap:round; stroke-width:0.25; stroke-dasharray:3,3;"/>
<line x1="82.350000" y1="247.000000" x2="124.350000" y2="247.000000"  style="stroke: black; stroke-linecap:round; stroke-width:0.25; stroke-dasharray:3,3;"/>
<line x1="124.350000" y1="247.000000" x2="124.350000" y2="205.000000"  style="stroke: black; stroke-linecap:round; stroke-width:0.25; stroke-dasharray:3,3;"/>
<line x1="82.350000" y1="205.000000" x2="87.350000" y2="205.000000"  style="stroke: black; stroke-linecap:round; stroke-width:0.25; stroke-dasharray:3,3;"/>
<line x1="97.025000" y1="205.000000" x2="124.350000" y2="205.000000"  style="stroke: black; stroke-linecap:round; stroke-width:0.25; stroke-dasharray:3,3;"/>
<text x="87.350000" y="207.000000" font-family="Arial" font-size="7">S</text>
<rect x="159.700000" y="183.000000" width="24.000000" height="24.000000" rx="0" ry="0" style="stroke:none;fill:#cccccc;"/>
<rect x="158.700000" y="182.000000" width="24.000000" height="24.000000" rx="0" ry="0" style="stroke:none;fill:#4B71A1;"/>
<text x="170.700000" y="196.000000" font-family="Arial" font-size="7" text-anchor="middle" fill="#FFFFFF">-</text>
<circle cx="160.700000" cy="184.000000" r="1"/>
<line x1="155.700000" y1="189.000000" x2="158.700000" y2="190.000000"  transform="rotate(0.000000,158.700000,190.000000)" style="stroke: black; stroke-width:0.25;"/>
<line x1="155.700000" y1="191.000000" x2="158.700000" y2="190.000000"  transform="rotate(0.000000,158.700000,190.000000)" style="stroke: black; stroke-width:0.25;"/>
<line x1="155.700000" y1="197.000000" x2="158.700000" y2="198.000000"  transform="rotate(0.000000,158.700000,198.000000)" style="stroke: black; stroke-width:0.25;"/>
<line x1="155.700000" y1="199.000000" x2="158.700000" y2="198.000000"  transform="rotate(0.000000,158.700000,198.000000)" style="stroke: black; stroke-width:0.25;"/>
<rect x="191.700000" y="183.000000" width="24.000000" height="24.000000" rx="0" ry="0" style="stroke:none;fill:#cccccc;"/>
<rect x="190.700000" y="182.000000" width="24.000000" height="24.000000" rx="0" ry="0" style="stroke:none;fill:#4B71A1;"/>
<text x="202.700000" y="196.000000" font-family="Arial" font-size="7" text-anchor="middle" fill="#FFFFFF">int</text>
<circle cx="192.700000" cy="184.000000" r="1"/>
<line x1="187.700000" y1="193.000000" x2="190.700000" y2="194.000000"  transform="rotate(0.000000,190.700000,194.000000)" style="stroke: black; stroke-width:0.25;"/>
<line x1="187.700000" y1="195.000000" x2="190.700000" y2="194.000000"  transform="rotate(0.000000,190.700000,194.000000)" style="stroke: black; stroke-width:0.25;"/>
<rect x="231.700000" y="157.000000" width="24.000000" height="24.000000" rx="0" ry="0" style="stroke:none;fill:#cccccc;"/>
<rect x="230.700000" y="156.000000" width="24.000000" height="24.000000" rx="0" ry="0" style="stroke:none;fill:#4B71A1;"/>
<text x="242.700000" y="170.000000" font-family="Arial" font-size="7" text-anchor="middle" fill="#FFFFFF">max</text>
<circle cx="232.700000" cy="158.000000" r="1"/>
<line x1="227.700000" y1="163.000000" x2="230.700000" y2="164.000000"  transform="rotate(0.000000,230.700000,164.000000)" style="stroke: black; stroke-width:0.25;"/>
<line x1="227.700000" y1="165.000000" x2="230.700000" y2="164.000000"  transform="rotate(0.000000,230.700000,164.000000)" style="stroke: black; stroke-width:0.25;"/>
<line x1="227.700000" y1="171.000000" x2="230.700000" y2="172.000000"  transform="rotate(0.000000,230.700000,172.000000)" style="stroke: black; stroke-width:0.25;"/>
<line x1="227.700000" y1="173.000000" x2="230.700000" y2="172.000000"  transform="rotate(0.000000,230.700000,172.000000)" style="stroke: black; stroke-width:0.25;"/>
<rect x="271.700000" y="141.000000" width="24.000000" height="24.000000" rx="0" ry="0" style="stroke:none;fill:#cccccc;"/>
<rect x="270.700000" y="140.000000" width="24.000000" height="24.000000" rx="0" ry="0" style="stroke:none;fill:#4B71A1;"/>
<text x="282.700000" y="154.000000" font-family="Arial" font-size="7" text-anchor="middle" fill="#FFFFFF">min</text>
<circle cx="272.700000" cy="142.000000" r="1"/>
<line x1="267.700000" y1="147.000000" x2="270.700000" y2="148.000000"  transform="rotate(0.000000,270.700000,148.000000)" style="stroke: black; stroke-width:0.25;"/>
<line x1="267.700000" y1="149.000000" x2="270.700000" y2="148.000000"  transform="rotate(0.000000,270.700000,148.000000)" style="stroke: black; stroke-width:0.25;"/>
<line x1="267.700000" y1="155.000000" x2="270.700000" y2="156.000000"  transform="rotate(0.000000,270.700000,156.000000)" style="stroke: black; stroke-width:0.25;"/>
<line x1="267.700000" y1="157.000000" x2="270.700000" y2="156.000000"  transform="rotate(0.000000,270.700000,156.000000)" style="stroke: black; stroke-width:0.25;"/>
<rect x="311.700000" y="125.000000" width="24.000000" height="24.000000" rx="0" ry="0" style="stroke:none;fill:#cccccc;"/>
<rect x="310.700000" y="124.000000" width="24.000000" height="24.000000" rx="0" ry="0" style="stroke:none;fill:#4B71A1;"/>
<text x="322.700000" y="138.000000" font-family="Arial" font-size="7" text-anchor="middle" fill="#FFFFFF">@</text>
<circle cx="312.700000" cy="126.000000" r="1"/>
<line x1="307.700000" y1="131.000000" x2="310.700000" y2="132.000000"  transform="rotate(0.000000,310.700000,132.000000)" style="stroke: black; stroke-width:0.25;"/>
<line x1="307.700000" y1="133.000000" x2="310.700000" y2="132.000000"  transform="rotate(0.000000,310.700000,132.000000)" style="stroke: black; stroke-width:0.25;"/>
<line x1="307.700000" y1="139.000000" x2="310.700000" y2="140.000000"  transform="rotate(0.000000,310.700000,140.000000)" style="stroke: black; stroke-width:0.25;"/>
<line x1="307.700000" y1="141.000000" x2="310.700000" y2="140.000000"  transform="rotate(0.000000,310.700000,140.000000)" style="stroke: black; stroke-width:0.25;"/>
<line x1="15.000000" y1="15.000000" x2="15.000000" y2="257.000000"  style="stroke: black; stroke-linecap:round; stroke-width:0.25; stroke-dasharray:3,3;"/>
<line x1="15.000000" y1="257.000000" x2="351.700000" y2="257.000000"  style="stroke: black; stroke-linecap:round; stroke-width:0.25; stroke-dasharray:3,3;"/>
<line x1="351.700000" y1="257.000000" x2="351.700000" y2="15.000000"  style="stroke: black; stroke-linecap:round; stroke-width:0.25; stroke-dasharray:3,3;"/>
<line x1="15.000000" y1="15.000000" x2="20.000000" y2="15.000000"  style="stroke: black; stroke-linecap:round; stroke-width:0.25; stroke-dasharray:3,3;"/>
<line x1="42.575000" y1="15.000000" x2="351.700000" y2="15.000000"  style="stroke: black; stroke-linecap:round; stroke-width:0.25; stroke-dasharray:3,3;"/>
<text x="20.000000" y="17.000000" font-family="Arial" font-size="7">delay</text>
<line x1="353.700000" y1="135.000000" x2="356.700000" y2="136.000000"  transform="rotate(0.000000,356.700000,136.000000)" style="stroke: black; stroke-width:0.25;"/>
<line x1="353.700000" y1="137.000000" x2="356.700000" y2="136.000000"  transform="rotate(0.000000,356.700000,136.000000)" style="stroke: black; stroke-width:0.25;"/>
<line x1="10.000000" y1="136.000000" x2="20.000000" y2="136.000000"  style="stroke:black; stroke-linecap:round; stroke-width:0.25;"/>
<line x1="20.000000" y1="136.000000" x2="24.000000" y2="136.000000"  style="stroke:black; stroke-linecap:round; stroke-width:0.25;"/>
<line x1="24.000000" y1="136.000000" x2="28.000000" y2="136.000000"  style="stroke:black; stroke-linecap:round; stroke-width:0.25;"/>
<line x1="28.000000" y1="136.000000" x2="28.000000" y2="136.000000"  style="stroke:black; stroke-linecap:round; stroke-width:0.25;"/>
<line x1="28.000000" y1="136.000000" x2="32.000000" y2="136.000000"  style="stroke:black; stroke-linecap:round; stroke-width:0.25;"/>
<line x1="95.350000" y1="152.000000" x2="99.350000" y2="152.000000"  style="stroke:black; stroke-linecap:round; stroke-width:0.25;"/>
<line x1="99.350000" y1="152.000000" x2="106.700000" y2="152.000000"  style="stroke:black; stroke-linecap:round; stroke-width:0.25;"/>
<line x1="102.700000" y1="184.000000" x2="106.700000" y2="184.000000"  style="stroke:black; stroke-linecap:round; stroke-width:0.25;"/>
<line x1="106.700000" y1="152.000000" x2="114.700000" y2="152.000000"  style="stroke:black; stroke-linecap:round; stroke-width:0.25;"/>
<line x1="106.700000" y1="172.000000" x2="114.700000" y2="172.000000"  style="stroke:black; stroke-linecap:round; stroke-width:0.25;"/>
<line x1="106.700000" y1="184.000000" x2="106.700000" y2="172.000000"  style="stroke:black; stroke-linecap:round; stroke-width:0.25;"/>
<line x1="106.700000" y1="184.000000" x2="106.700000" y2="184.000000"  style="stroke:black; stroke-linecap:round; stroke-width:0.25;"/>
<line x1="114.700000" y1="152.000000" x2="114.700000" y2="164.000000"  style="stroke:black; stroke-linecap:round; stroke-width:0.25;"/>
<line x1="114.700000" y1="164.000000" x2="114.700000" y2="164.000000"  style="stroke:black; stroke-linecap:round; stroke-width:0.25;"/>
<line x1="114.700000" y1="164.000000" x2="118.700000" y2="164.000000"  style="stroke:black; stroke-linecap:round; stroke-width:0.25;"/>
<line x1="114.700000" y1="172.000000" x2="118.700000" y2="172.000000"  style="stroke:black; stroke-linecap:round; stroke-width:0.25;"/>
<line x1="115.350000" y1="226.000000" x2="119.350000" y2="226.000000"  style="stroke:black; stroke-linecap:round; stroke-width:0.25;"/>
<line x1="119.350000" y1="226.000000" x2="129.350000" y2="226.000000"  style="stroke:black; stroke-linecap:round; stroke-width:0.25;"/>
<line x1="129.350000" y1="226.000000" x2="146.700000" y2="226.000000"  style="stroke:black; stroke-linecap:round; stroke-width:0.25;"/>
<line x1="142.700000" y1="168.000000" x2="146.700000" y2="168.000000"  style="stroke:black; stroke-linecap:round; stroke-width:0.25;"/>
<line x1="146.700000" y1="168.000000" x2="154.700000" y2="168.000000"  style="stroke:black; stroke-linecap:round; stroke-width:0.25;"/>
<line x1="146.700000" y1="198.000000" x2="154.700000" y2="198.000000"  style="stroke:black; stroke-linecap:round; stroke-width:0.25;"/>
<line x1="146.700000" y1="226.000000" x2="146.700000" y2="198.000000"  style="stroke:black; stroke-linecap:round; stroke-width:0.25;"/>
<line x1="146.700000" y1="226.000000" x2="146.700000" y2="226.000000"  style="stroke:black; stroke-linecap:round; stroke-width:0.25;"/>
<line x1="151.350000" y1="110.000000" x2="155.350000" y2="110.000000"  style="stroke:black; stroke-linecap:round; stroke-width:0.25;"/>
<line x1="154.700000" y1="168.000000" x2="154.700000" y2="190.000000"  style="stroke:black; stroke-linecap:round; stroke-width:0.25;"/>
<line x1="154.700000" y1="190.000000" x2="154.700000" y2="190.000000"  style="stroke:black; stroke-linecap:round; stroke-width:0.25;"/>
<line x1="154.700000" y1="190.000000" x2="158.700000" y2="190.000000"  style="stroke:black; stroke-linecap:round; stroke-width:0.25;"/>
<line x1="154.700000" y1="198.000000" x2="158.700000" y2="198.000000"  style="stroke:black; stroke-linecap:round; stroke-width:0.25;"/>
<line x1="155.350000" y1="110.000000" x2="165.350000" y2="110.000000"  style="stroke:black; stroke-linecap:round; stroke-width:0.25;"/>
<line x1="165.350000" y1="110.000000" x2="218.700000" y2="110.000000"  style="stroke:black; stroke-linecap:round; stroke-width:0.25;"/>
<line x1="171.350000" y1="68.000000" x2="175.350000" y2="68.000000"  style="stroke:black; stroke-linecap:round; stroke-width:0.25;"/>
<line x1="175.350000" y1="68.000000" x2="258.700000" y2="68.000000"  style="stroke:black; stroke-linecap:round; stroke-width:0.25;"/>
<line x1="182.700000" y1="194.000000" x2="186.700000" y2="194.000000"  style="stroke:black; stroke-linecap:round; stroke-width:0.25;"/>
<line x1="186.700000" y1="194.000000" x2="186.700000" y2="194.000000"  style="stroke:black; stroke-linecap:round; stroke-width:0.25;"/>
<line x1="186.700000" y1="194.000000" x2="190.700000" y2="194.000000"  style="stroke:black; stroke-linecap:round; stroke-width:0.25;"/>
<line x1="191.350000" y1="36.000000" x2="195.350000" y2="36.000000"  style="stroke:black; stroke-linecap:round; stroke-width:0.25;"/>
<line x1="195.350000" y1="36.000000" x2="298.700000" y2="36.000000"  style="stroke:black; stroke-linecap:round; stroke-width:0.25;"/>
<line x1="214.700000" y1="194.000000" x2="218.700000" y2="194.000000"  style="stroke:black; stroke-linecap:round; stroke-width:0.25;"/>
<line x1="218.700000" y1="110.000000" x2="226.700000" y2="110.000000"  style="stroke:black; stroke-linecap:round; stroke-width:0.25;"/>
<line x1="218.700000" y1="172.000000" x2="226.700000" y2="172.000000"  style="stroke:black; stroke-linecap:round; stroke-width:0.25;"/>
<line x1="218.700000" y1="194.000000" x2="218.700000" y2="172.000000"  style="stroke:black; stroke-linecap:round; stroke-width:0.25;"/>
<line x1="218.700000" y1="194.000000" x2="218.700000" y2="194.000000"  style="stroke:black; stroke-linecap:round; stroke-width:0.25;"/>
<line x1="226.700000" y1="110.000000" x2="226.700000" y2="164.000000"  style="stroke:black; stroke-linecap:round; stroke-width:0.25;"/>
<line x1="226.700000" y1="164.000000" x2="226.700000" y2="164.000000"  style="stroke:black; stroke-linecap:round; stroke-width:0.25;"/>
<line x1="226.700000" y1="164.000000" x2="230.700000" y2="164.000000"  style="stroke:black; stroke-linecap:round; stroke-width:0.25;"/>
<line x1="226.700000" y1="172.000000" x2="230.700000" y2="172.000000"  style="stroke:black; stroke-linecap:round; stroke-width:0.25;"/>
<line x1="254.700000" y1="168.000000" x2="258.700000" y2="168.000000"  style="stroke:black; stroke-linecap:round; stroke-width:0.25;"/>
<line x1="258.700000" y1="68.000000" x2="266.700000" y2="68.000000"  style="stroke:black; stroke-linecap:round; stroke-width:0.25;"/>
<line x1="258.700000" y1="156.000000" x2="266.700000" y2="156.000000"  style="stroke:black; stroke-linecap:round; stroke-width:0.25;"/>
<line x1="258.700000" y1="168.000000" x2="258.700000" y2="156.000000"  style="stroke:black; stroke-linecap:round; stroke-width:0.25;"/>
<line x1="258.700000" y1="168.000000" x2="258.700000" y2="168.000000"  style="stroke:black; stroke-linecap:round; stroke-width:0.25;"/>
<line x1="266.700000" y1="68.000000" x2="266.700000" y2="148.000000"  style="stroke:black; stroke-linecap:round; stroke-width:0.25;"/>
<line x1="266.700000" y1="148.000000" x2="266.700000" y2="148.000000"  style="stroke:black; stroke-linecap:round; stroke-width:0.25;"/>
<line x1="266.700000" y1="148.000000" x2="270.700000" y2="148.000000"  style="stroke:black; stroke-linecap:round; stroke-width:0.25;"/>
<line x1="266.700000" y1="156.000000" x2="270.700000" y2="156.000000"  style="stroke:black; stroke-linecap:round; stroke-width:0.25;"/>
<line x1="294.700000" y1="152.000000" x2="298.700000" y2="152.000000"  style="stroke:black; stroke-linecap:round; stroke-width:0.25;"/>
<line x1="298.700000" y1="36.000000" x2="306.700000" y2="36.000000"  style="stroke:black; stroke-linecap:round; stroke-width:0.25;"/>
<line x1="298.700000" y1="140.000000" x2="306.700000" y2="140.000000"  style="stroke:black; stroke-linecap:round; stroke-width:0.25;"/>
<line x1="298.700000" y1="152.000000" x2="298.700000" y2="140.000000"  style="stroke:black; stroke-linecap:round; stroke-width:0.25;"/>
<line x1="298.700000" y1="152.000000" x2="298.700000" y2="152.000000"  style="stroke:black; stroke-linecap:round; stroke-width:0.25;"/>
<line x1="306.700000" y1="36.000000" x2="306.700000" y2="132.000000"  style="stroke:black; stroke-linecap:round; stroke-width:0.25;"/>
<line x1="306.700000" y1="132.000000" x2="306.700000" y2="132.000000"  style="stroke:black; stroke-linecap:round; stroke-width:0.25;"/>
<line x1="306.700000" y1="132.000000" x2="310.700000" y2="132.000000"  style="stroke:black; stroke-linecap:round; stroke-width:0.25;"/>
<line x1="306.700000" y1="140.000000" x2="310.700000" y2="140.000000"  style="stroke:black; stroke-linecap:round; stroke-width:0.25;"/>
<line x1="334.700000" y1="136.000000" x2="338.700000" y2="136.000000"  style="stroke:black; stroke-linecap:round; stroke-width:0.25;"/>
<line x1="338.700000" y1="136.000000" x2="338.700000" y2="136.000000"  style="stroke:black; stroke-linecap:round; stroke-width:0.25;"/>
<line x1="338.700000" y1="136.000000" x2="342.700000" y2="136.000000"  style="stroke:black; stroke-linecap:round; stroke-width:0.25;"/>
<line x1="342.700000" y1="136.000000" x2="346.700000" y2="136.000000"  style="stroke:black; stroke-linecap:round; stroke-width:0.25;"/>
<line x1="346.700000" y1="136.000000" x2="356.700000" y2="136.000000"  style="stroke:black; stroke-linecap:round; stroke-width:0.25;"/>
</svg>
