<?xml version="1.0"?>
<svg xmlns="http://www.w3.org/2000/svg" xmlns:xlink="http://www.w3.org/1999/xlink" viewBox="0 0 323.000000 204.000000" width="161.500000mm" height="102.000000mm" version="1.1">
<a xlink:href="process.svg">
<rect x="1.000000" y="1.000000" width="322.000000" height="203.000000" rx="0" ry="0" style="stroke:none;fill:#cccccc;"/>
<rect x="0.000000" y="0.000000" width="322.000000" height="203.000000" rx="0" ry="0" style="stroke:none;fill:#ffffff;"/>
</a>
<text x="10.000000" y="7.000000" font-family="Arial" font-size="7"></text>
<rect x="49.000000" y="111.000000" width="24.000000" height="24.000000" rx="0" ry="0" style="stroke:none;fill:#cccccc;"/>
<rect x="48.000000" y="110.000000" width="24.000000" height="24.000000" rx="0" ry="0" style="stroke:none;fill:#4B71A1;"/>
<text x="60.000000" y="124.000000" font-family="Arial" font-size="7" text-anchor="middle" fill="#FFFFFF">+</text>
<circle cx="50.000000" cy="112.000000" r="1"/>
<line x1="45.000000" y1="117.000000" x2="48.000000" y2="118.000000"  transform="rotate(0.000000,48.000000,118.000000)" style="stroke: black; stroke-width:0.25;"/>
<line x1="45.000000" y1="119.000000" x2="48.000000" y2="118.000000"  transform="rotate(0.000000,48.000000,118.000000)" style="stroke: black; stroke-width:0.25;"/>
<line x1="45.000000" y1="125.000000" x2="48.000000" y2="126.000000"  transform="rotate(0.000000,48.000000,126.000000)" style="stroke: black; stroke-width:0.25;"/>
<line x1="45.000000" y1="127.000000" x2="48.000000" y2="126.000000"  transform="rotate(0.000000,48.000000,126.000000)" style="stroke: black; stroke-width:0.25;"/>
<a xlink:href="delay-0x7f81345bfe20.svg">
<rect x="169.100000" y="65.000000" width="25.800000" height="24.000000" rx="0" ry="0" style="stroke:none;fill:#cccccc;"/>
<rect x="168.100000" y="64.000000" width="25.800000" height="24.000000" rx="0" ry="0" style="stroke:none;fill:#003366;"/>
</a>
<a xlink:href="delay-0x7f81345bfe20.svg">
<text x="181.000000" y="78.000000" font-family="Arial" font-size="7" text-anchor="middle" fill="#FFFFFF">delay</text>
</a>
<circle cx="170.100000" cy="66.000000" r="1"/>
<line x1="165.100000" y1="75.000000" x2="168.100000" y2="76.000000"  transform="rotate(0.000000,168.100000,76.000000)" style="stroke: black; stroke-width:0.25;"/>
<line x1="165.100000" y1="77.000000" x2="168.100000" y2="76.000000"  transform="rotate(0.000000,168.100000,76.000000)" style="stroke: black; stroke-width:0.25;"/>
<rect x="130.000000" y="115.000000" width="24.000000" height="24.000000" rx="0" ry="0" style="stroke:none;fill:#cccccc;"/>
<rect x="129.000000" y="114.000000" width="24.000000" height="24.000000" rx="0" ry="0" style="stroke:none;fill:#f44800;"/>
<text x="141.000000" y="128.000000" font-family="Arial" font-size="7" text-anchor="middle" fill="#FFFFFF">0</text>
<circle cx="131.000000" cy="116.000000" r="1"/>
<line x1="120.000000" y1="105.000000" x2="120.000000" y2="147.000000"  style="stroke: black; stroke-linecap:round; stroke-width:0.25; stroke-dasharray:3,3;"/>
<line x1="120.000000" y1="147.000000" x2="162.000000" y2="147.000000"  style="stroke: black; stroke-linecap:round; stroke-width:0.25; stroke-dasharray:3,3;"/>
<line x1="162.000000" y1="147.000000" x2="162.000000" y2="105.000000"  style="stroke: black; stroke-linecap:round; stroke-width:0.25; stroke-dasharray:3,3;"/>
<line x1="120.000000" y1="105.000000" x2="125.000000" y2="105.000000"  style="stroke: black; stroke-linecap:round; stroke-width:0.25; stroke-dasharray:3,3;"/>
<line x1="150.800000" y1="105.000000" x2="162.000000" y2="105.000000"  style="stroke: black; stroke-linecap:round; stroke-width:0.25; stroke-dasharray:3,3;"/>
<text x="125.000000" y="107.000000" font-family="Arial" font-size="7">parity</text>
<a xlink:href="kdensity-0x7f813451f230.svg">
<rect x="122.650000" y="157.000000" width="38.700000" height="24.000000" rx="0" ry="0" style="stroke:none;fill:#cccccc;"/>
<rect x="121.650000" y="156.000000" width="38.700000" height="24.000000" rx="0" ry="0" style="stroke:none;fill:#003366;"/>
</a>
<a xlink:href="kdensity-0x7f813451f230.svg">
<text x="141.000000" y="170.000000" font-family="Arial" font-size="7" text-anchor="middle" fill="#FFFFFF">kdensity</text>
</a>
<circle cx="123.650000" cy="158.000000" r="1"/>
<rect x="180.000000" y="131.000000" width="24.000000" height="24.000000" rx="0" ry="0" style="stroke:none;fill:#cccccc;"/>
<rect x="179.000000" y="130.000000" width="24.000000" height="24.000000" rx="0" ry="0" style="stroke:none;fill:#4B71A1;"/>
<text x="191.000000" y="144.000000" font-family="Arial" font-size="7" text-anchor="middle" fill="#FFFFFF">-</text>
<circle cx="181.000000" cy="132.000000" r="1"/>
<line x1="176.000000" y1="137.000000" x2="179.000000" y2="138.000000"  transform="rotate(0.000000,179.000000,138.000000)" style="stroke: black; stroke-width:0.25;"/>
<line x1="176.000000" y1="139.000000" x2="179.000000" y2="138.000000"  transform="rotate(0.000000,179.000000,138.000000)" style="stroke: black; stroke-width:0.25;"/>
<line x1="176.000000" y1="145.000000" x2="179.000000" y2="146.000000"  transform="rotate(0.000000,179.000000,146.000000)" style="stroke: black; stroke-width:0.25;"/>
<line x1="176.000000" y1="147.000000" x2="179.000000" y2="146.000000"  transform="rotate(0.000000,179.000000,146.000000)" style="stroke: black; stroke-width:0.25;"/>
<rect x="220.000000" y="127.000000" width="24.000000" height="24.000000" rx="0" ry="0" style="stroke:none;fill:#cccccc;"/>
<rect x="219.000000" y="126.000000" width="24.000000" height="24.000000" rx="0" ry="0" style="stroke:none;fill:#4B71A1;"/>
<text x="231.000000" y="140.000000" font-family="Arial" font-size="7" text-anchor="middle" fill="#FFFFFF">*</text>
<circle cx="221.000000" cy="128.000000" r="1"/>
<line x1="216.000000" y1="133.000000" x2="219.000000" y2="134.000000"  transform="rotate(0.000000,219.000000,134.000000)" style="stroke: black; stroke-width:0.25;"/>
<line x1="216.000000" y1="135.000000" x2="219.000000" y2="134.000000"  transform="rotate(0.000000,219.000000,134.000000)" style="stroke: black; stroke-width:0.25;"/>
<line x1="216.000000" y1="141.000000" x2="219.000000" y2="142.000000"  transform="rotate(0.000000,219.000000,142.000000)" style="stroke: black; stroke-width:0.25;"/>
<line x1="216.000000" y1="143.000000" x2="219.000000" y2="142.000000"  transform="rotate(0.000000,219.000000,142.000000)" style="stroke: black; stroke-width:0.25;"/>
<a xlink:href="kdensity-0x7f813451f230.svg">
<rect x="147.150000" y="25.000000" width="38.700000" height="24.000000" rx="0" ry="0" style="stroke:none;fill:#cccccc;"/>
<rect x="146.150000" y="24.000000" width="38.700000" height="24.000000" rx="0" ry="0" style="stroke:none;fill:#003366;"/>
</a>
<a xlink:href="kdensity-0x7f813451f230.svg">
<text x="165.500000" y="38.000000" font-family="Arial" font-size="7" text-anchor="middle" fill="#FFFFFF">kdensity</text>
</a>
<circle cx="182.850000" cy="46.000000" r="1"/>
<rect x="107.150000" y="29.000000" width="24.000000" height="24.000000" rx="0" ry="0" style="stroke:none;fill:#cccccc;"/>
<rect x="106.150000" y="28.000000" width="24.000000" height="24.000000" rx="0" ry="0" style="stroke:none;fill:#4B71A1;"/>
<text x="118.150000" y="42.000000" font-family="Arial" font-size="7" text-anchor="middle" fill="#FFFFFF">*</text>
<circle cx="128.150000" cy="50.000000" r="1"/>
<line x1="133.150000" y1="43.000000" x2="130.150000" y2="44.000000"  transform="rotate(0.000000,130.150000,44.000000)" style="stroke: black; stroke-width:0.25;"/>
<line x1="133.150000" y1="45.000000" x2="130.150000" y2="44.000000"  transform="rotate(0.000000,130.150000,44.000000)" style="stroke: black; stroke-width:0.25;"/>
<line x1="133.150000" y1="35.000000" x2="130.150000" y2="36.000000"  transform="rotate(0.000000,130.150000,36.000000)" style="stroke: black; stroke-width:0.25;"/>
<line x1="133.150000" y1="37.000000" x2="130.150000" y2="36.000000"  transform="rotate(0.000000,130.150000,36.000000)" style="stroke: black; stroke-width:0.25;"/>
<line x1="245.000000" y1="76.000000" x2="245.000000" y2="72.000000"  style="stroke:black; stroke-linecap:round; stroke-width:0.25;"/>
<line x1="245.000000" y1="72.000000" x2="249.000000" y2="72.000000"  style="stroke:black; stroke-linecap:round; stroke-width:0.25;"/>
<line x1="249.000000" y1="72.000000" x2="249.000000" y2="76.000000"  style="stroke:black; stroke-linecap:round; stroke-width:0.25;"/>
<rect x="268.000000" y="91.000000" width="24.000000" height="24.000000" rx="0" ry="0" style="stroke:none;fill:#cccccc;"/>
<rect x="267.000000" y="90.000000" width="24.000000" height="24.000000" rx="0" ry="0" style="stroke:none;fill:#4B71A1;"/>
<text x="279.000000" y="104.000000" font-family="Arial" font-size="7" text-anchor="middle" fill="#FFFFFF">+</text>
<circle cx="269.000000" cy="92.000000" r="1"/>
<line x1="264.000000" y1="97.000000" x2="267.000000" y2="98.000000"  transform="rotate(0.000000,267.000000,98.000000)" style="stroke: black; stroke-width:0.25;"/>
<line x1="264.000000" y1="99.000000" x2="267.000000" y2="98.000000"  transform="rotate(0.000000,267.000000,98.000000)" style="stroke: black; stroke-width:0.25;"/>
<line x1="264.000000" y1="105.000000" x2="267.000000" y2="106.000000"  transform="rotate(0.000000,267.000000,106.000000)" style="stroke: black; stroke-width:0.25;"/>
<line x1="264.000000" y1="107.000000" x2="267.000000" y2="106.000000"  transform="rotate(0.000000,267.000000,106.000000)" style="stroke: black; stroke-width:0.25;"/>
<line x1="15.000000" y1="15.000000" x2="15.000000" y2="189.000000"  style="stroke: black; stroke-linecap:round; stroke-width:0.25; stroke-dasharray:3,3;"/>
<line x1="15.000000" y1="189.000000" x2="308.000000" y2="189.000000"  style="stroke: black; stroke-linecap:round; stroke-width:0.25; stroke-dasharray:3,3;"/>
<line x1="308.000000" y1="189.000000" x2="308.000000" y2="15.000000"  style="stroke: black; stroke-linecap:round; stroke-width:0.25; stroke-dasharray:3,3;"/>
<line x1="15.000000" y1="15.000000" x2="20.000000" y2="15.000000"  style="stroke: black; stroke-linecap:round; stroke-width:0.25; stroke-dasharray:3,3;"/>
<line x1="49.025000" y1="15.000000" x2="308.000000" y2="15.000000"  style="stroke: black; stroke-linecap:round; stroke-width:0.25; stroke-dasharray:3,3;"/>
<text x="20.000000" y="17.000000" font-family="Arial" font-size="7">density</text>
<line x1="310.000000" y1="101.000000" x2="313.000000" y2="102.000000"  transform="rotate(0.000000,313.000000,102.000000)" style="stroke: black; stroke-width:0.25;"/>
<line x1="310.000000" y1="103.000000" x2="313.000000" y2="102.000000"  transform="rotate(0.000000,313.000000,102.000000)" style="stroke: black; stroke-width:0.25;"/>
<line x1="10.000000" y1="102.000000" x2="20.000000" y2="102.000000"  style="stroke:black; stroke-linecap:round; stroke-width:0.25;"/>
<line x1="20.000000" y1="102.000000" x2="24.000000" y2="102.000000"  style="stroke:black; stroke-linecap:round; stroke-width:0.25;"/>
<line x1="24.000000" y1="102.000000" x2="28.000000" y2="102.000000"  style="stroke:black; stroke-linecap:round; stroke-width:0.25;"/>
<line x1="28.000000" y1="102.000000" x2="36.000000" y2="102.000000"  style="stroke:black; stroke-linecap:round; stroke-width:0.25;"/>
<line x1="36.000000" y1="102.000000" x2="36.000000" y2="126.000000"  style="stroke:black; stroke-linecap:round; stroke-width:0.25;"/>
<line x1="36.000000" y1="126.000000" x2="36.000000" y2="126.000000"  style="stroke:black; stroke-linecap:round; stroke-width:0.25;"/>
<line x1="36.000000" y1="126.000000" x2="44.000000" y2="126.000000"  style="stroke:black; stroke-linecap:round; stroke-width:0.25;"/>
<line x1="44.000000" y1="40.000000" x2="44.000000" y2="40.000000"  style="stroke:black; stroke-linecap:round; stroke-width:0.25;"/>
<line x1="44.000000" y1="40.000000" x2="44.000000" y2="118.000000"  style="stroke:black; stroke-linecap:round; stroke-width:0.25;"/>
<line x1="44.000000" y1="118.000000" x2="44.000000" y2="118.000000"  style="stroke:black; stroke-linecap:round; stroke-width:0.25;"/>
<line x1="44.000000" y1="118.000000" x2="48.000000" y2="118.000000"  style="stroke:black; stroke-linecap:round; stroke-width:0.25;"/>
<line x1="44.000000" y1="126.000000" x2="48.000000" y2="126.000000"  style="stroke:black; stroke-linecap:round; stroke-width:0.25;"/>
<line x1="72.000000" y1="122.000000" x2="76.000000" y2="122.000000"  style="stroke:black; stroke-linecap:round; stroke-width:0.25;"/>
<line x1="76.000000" y1="122.000000" x2="115.000000" y2="76.000000"  style="stroke:black; stroke-linecap:round; stroke-width:0.25;"/>
<line x1="76.000000" y1="122.000000" x2="115.000000" y2="96.000000"  style="stroke:black; stroke-linecap:round; stroke-width:0.25;"/>
<line x1="102.150000" y1="40.000000" x2="44.000000" y2="40.000000"  style="stroke:black; stroke-linecap:round; stroke-width:0.25;"/>
<line x1="106.150000" y1="40.000000" x2="102.150000" y2="40.000000"  style="stroke:black; stroke-linecap:round; stroke-width:0.25;"/>
<line x1="115.000000" y1="76.000000" x2="164.100000" y2="76.000000"  style="stroke:black; stroke-linecap:round; stroke-width:0.25;"/>
<line x1="115.000000" y1="96.000000" x2="161.000000" y2="96.000000"  style="stroke:black; stroke-linecap:round; stroke-width:0.25;"/>
<line x1="134.150000" y1="36.000000" x2="130.150000" y2="36.000000"  style="stroke:black; stroke-linecap:round; stroke-width:0.25;"/>
<line x1="134.150000" y1="44.000000" x2="130.150000" y2="44.000000"  style="stroke:black; stroke-linecap:round; stroke-width:0.25;"/>
<line x1="134.150000" y1="44.000000" x2="134.150000" y2="44.000000"  style="stroke:black; stroke-linecap:round; stroke-width:0.25;"/>
<line x1="134.150000" y1="56.000000" x2="134.150000" y2="44.000000"  style="stroke:black; stroke-linecap:round; stroke-width:0.25;"/>
<line x1="142.150000" y1="36.000000" x2="134.150000" y2="36.000000"  style="stroke:black; stroke-linecap:round; stroke-width:0.25;"/>
<line x1="142.150000" y1="56.000000" x2="134.150000" y2="56.000000"  style="stroke:black; stroke-linecap:round; stroke-width:0.25;"/>
<line x1="146.150000" y1="36.000000" x2="142.150000" y2="36.000000"  style="stroke:black; stroke-linecap:round; stroke-width:0.25;"/>
<line x1="153.000000" y1="126.000000" x2="157.000000" y2="126.000000"  style="stroke:black; stroke-linecap:round; stroke-width:0.25;"/>
<line x1="157.000000" y1="126.000000" x2="167.000000" y2="126.000000"  style="stroke:black; stroke-linecap:round; stroke-width:0.25;"/>
<line x1="160.350000" y1="168.000000" x2="164.350000" y2="168.000000"  style="stroke:black; stroke-linecap:round; stroke-width:0.25;"/>
<line x1="161.000000" y1="96.000000" x2="207.000000" y2="96.000000"  style="stroke:black; stroke-linecap:round; stroke-width:0.25;"/>
<line x1="164.100000" y1="76.000000" x2="168.100000" y2="76.000000"  style="stroke:black; stroke-linecap:round; stroke-width:0.25;"/>
<line x1="164.350000" y1="168.000000" x2="167.000000" y2="168.000000"  style="stroke:black; stroke-linecap:round; stroke-width:0.25;"/>
<line x1="165.500000" y1="56.000000" x2="142.150000" y2="56.000000"  style="stroke:black; stroke-linecap:round; stroke-width:0.25;"/>
<line x1="167.000000" y1="126.000000" x2="175.000000" y2="126.000000"  style="stroke:black; stroke-linecap:round; stroke-width:0.25;"/>
<line x1="167.000000" y1="146.000000" x2="175.000000" y2="146.000000"  style="stroke:black; stroke-linecap:round; stroke-width:0.25;"/>
<line x1="167.000000" y1="168.000000" x2="167.000000" y2="146.000000"  style="stroke:black; stroke-linecap:round; stroke-width:0.25;"/>
<line x1="167.000000" y1="168.000000" x2="167.000000" y2="168.000000"  style="stroke:black; stroke-linecap:round; stroke-width:0.25;"/>
<line x1="175.000000" y1="126.000000" x2="175.000000" y2="138.000000"  style="stroke:black; stroke-linecap:round; stroke-width:0.25;"/>
<line x1="175.000000" y1="138.000000" x2="175.000000" y2="138.000000"  style="stroke:black; stroke-linecap:round; stroke-width:0.25;"/>
<line x1="175.000000" y1="138.000000" x2="179.000000" y2="138.000000"  style="stroke:black; stroke-linecap:round; stroke-width:0.25;"/>
<line x1="175.000000" y1="146.000000" x2="179.000000" y2="146.000000"  style="stroke:black; stroke-linecap:round; stroke-width:0.25;"/>
<line x1="188.850000" y1="56.000000" x2="165.500000" y2="56.000000"  style="stroke:black; stroke-linecap:round; stroke-width:0.25;"/>
<line x1="193.900000" y1="76.000000" x2="197.900000" y2="76.000000"  style="stroke:black; stroke-linecap:round; stroke-width:0.25;"/>
<line x1="197.900000" y1="76.000000" x2="247.000000" y2="76.000000"  style="stroke:black; stroke-linecap:round; stroke-width:0.25;"/>
<line x1="203.000000" y1="142.000000" x2="207.000000" y2="142.000000"  style="stroke:black; stroke-linecap:round; stroke-width:0.25;"/>
<line x1="207.000000" y1="96.000000" x2="215.000000" y2="96.000000"  style="stroke:black; stroke-linecap:round; stroke-width:0.25;"/>
<line x1="207.000000" y1="142.000000" x2="215.000000" y2="142.000000"  style="stroke:black; stroke-linecap:round; stroke-width:0.25;"/>
<line x1="215.000000" y1="96.000000" x2="215.000000" y2="134.000000"  style="stroke:black; stroke-linecap:round; stroke-width:0.25;"/>
<line x1="215.000000" y1="134.000000" x2="215.000000" y2="134.000000"  style="stroke:black; stroke-linecap:round; stroke-width:0.25;"/>
<line x1="215.000000" y1="134.000000" x2="219.000000" y2="134.000000"  style="stroke:black; stroke-linecap:round; stroke-width:0.25;"/>
<line x1="215.000000" y1="142.000000" x2="219.000000" y2="142.000000"  style="stroke:black; stroke-linecap:round; stroke-width:0.25;"/>
<line x1="243.000000" y1="138.000000" x2="247.000000" y2="138.000000"  style="stroke:black; stroke-linecap:round; stroke-width:0.25;"/>
<line x1="247.000000" y1="56.000000" x2="247.000000" y2="56.000000"  style="stroke:black; stroke-linecap:round; stroke-width:0.25;"/>
<line x1="247.000000" y1="72.000000" x2="247.000000" y2="56.000000"  style="stroke:black; stroke-linecap:round; stroke-width:0.25;"/>
<line x1="247.000000" y1="76.000000" x2="249.000000" y2="76.000000"  style="stroke:black; stroke-linecap:round; stroke-width:0.25;"/>
<line x1="247.000000" y1="56.000000" x2="188.850000" y2="56.000000"  style="stroke:black; stroke-linecap:round; stroke-width:0.25;"/>
<line x1="247.000000" y1="138.000000" x2="255.000000" y2="138.000000"  style="stroke:black; stroke-linecap:round; stroke-width:0.25;"/>
<line x1="249.000000" y1="76.000000" x2="255.000000" y2="76.000000"  style="stroke:black; stroke-linecap:round; stroke-width:0.25;"/>
<line x1="255.000000" y1="76.000000" x2="263.000000" y2="76.000000"  style="stroke:black; stroke-linecap:round; stroke-width:0.25;"/>
<line x1="255.000000" y1="106.000000" x2="263.000000" y2="106.000000"  style="stroke:black; stroke-linecap:round; stroke-width:0.25;"/>
<line x1="255.000000" y1="138.000000" x2="255.000000" y2="106.000000"  style="stroke:black; stroke-linecap:round; stroke-width:0.25;"/>
<line x1="255.000000" y1="138.000000" x2="255.000000" y2="138.000000"  style="stroke:black; stroke-linecap:round; stroke-width:0.25;"/>
<line x1="263.000000" y1="76.000000" x2="263.000000" y2="98.000000"  style="stroke:black; stroke-linecap:round; stroke-width:0.25;"/>
<line x1="263.000000" y1="98.000000" x2="263.000000" y2="98.000000"  style="stroke:black; stroke-linecap:round; stroke-width:0.25;"/>
<line x1="263.000000" y1="98.000000" x2="267.000000" y2="98.000000"  style="stroke:black; stroke-linecap:round; stroke-width:0.25;"/>
<line x1="263.000000" y1="106.000000" x2="267.000000" y2="106.000000"  style="stroke:black; stroke-linecap:round; stroke-width:0.25;"/>
<line x1="291.000000" y1="102.000000" x2="295.000000" y2="102.000000"  style="stroke:black; stroke-linecap:round; stroke-width:0.25;"/>
<line x1="295.000000" y1="102.000000" x2="295.000000" y2="102.000000"  style="stroke:black; stroke-linecap:round; stroke-width:0.25;"/>
<line x1="295.000000" y1="102.000000" x2="299.000000" y2="102.000000"  style="stroke:black; stroke-linecap:round; stroke-width:0.25;"/>
<line x1="299.000000" y1="102.000000" x2="303.000000" y2="102.000000"  style="stroke:black; stroke-linecap:round; stroke-width:0.25;"/>
<line x1="303.000000" y1="102.000000" x2="313.000000" y2="102.000000"  style="stroke:black; stroke-linecap:round; stroke-width:0.25;"/>
</svg>
