<?xml version="1.0"?>
<svg xmlns="http://www.w3.org/2000/svg" xmlns:xlink="http://www.w3.org/1999/xlink" viewBox="0 0 413.600000 112.000000" width="206.800000mm" height="56.000000mm" version="1.1">
<a xlink:href="w1-0x7f8134399c60.svg">
<rect x="1.000000" y="1.000000" width="412.600000" height="111.000000" rx="0" ry="0" style="stroke:none;fill:#cccccc;"/>
<rect x="0.000000" y="0.000000" width="412.600000" height="111.000000" rx="0" ry="0" style="stroke:none;fill:#ffffff;"/>
</a>
<text x="10.000000" y="7.000000" font-family="Arial" font-size="7"></text>
<rect x="45.000000" y="45.000000" width="283.800000" height="24.000000" rx="0" ry="0" style="stroke:none;fill:#cccccc;"/>
<rect x="44.000000" y="44.000000" width="283.800000" height="24.000000" rx="0" ry="0" style="stroke:none;fill:#477881;"/>
<text x="185.900000" y="58.000000" font-family="Arial" font-size="7" text-anchor="middle" fill="#FFFFFF">vslider(LOPASS, 20000.0f, 1000.0f, 20000.0f, 0.10000000000000001f)</text>
<circle cx="46.000000" cy="46.000000" r="1"/>
<a xlink:href="smoo-0x7f8134060100.svg">
<rect x="336.800000" y="45.000000" width="25.800000" height="24.000000" rx="0" ry="0" style="stroke:none;fill:#cccccc;"/>
<rect x="335.800000" y="44.000000" width="25.800000" height="24.000000" rx="0" ry="0" style="stroke:none;fill:#003366;"/>
</a>
<a xlink:href="smoo-0x7f8134060100.svg">
<text x="348.700000" y="58.000000" font-family="Arial" font-size="7" text-anchor="middle" fill="#FFFFFF">smoo</text>
</a>
<circle cx="337.800000" cy="46.000000" r="1"/>
<line x1="332.800000" y1="55.000000" x2="335.800000" y2="56.000000"  transform="rotate(0.000000,335.800000,56.000000)" style="stroke: black; stroke-width:0.25;"/>
<line x1="332.800000" y1="57.000000" x2="335.800000" y2="56.000000"  transform="rotate(0.000000,335.800000,56.000000)" style="stroke: black; stroke-width:0.25;"/>
<line x1="35.000000" y1="35.000000" x2="35.000000" y2="77.000000"  style="stroke: black; stroke-linecap:round; stroke-width:0.25; stroke-dasharray:3,3;"/>
<line x1="35.000000" y1="77.000000" x2="370.600000" y2="77.000000"  style="stroke: black; stroke-linecap:round; stroke-width:0.25; stroke-dasharray:3,3;"/>
<line x1="370.600000" y1="77.000000" x2="370.600000" y2="35.000000"  style="stroke: black; stroke-linecap:round; stroke-width:0.25; stroke-dasharray:3,3;"/>
<line x1="35.000000" y1="35.000000" x2="40.000000" y2="35.000000"  style="stroke: black; stroke-linecap:round; stroke-width:0.25; stroke-dasharray:3,3;"/>
<line x1="114.175000" y1="35.000000" x2="370.600000" y2="35.000000"  style="stroke: black; stroke-linecap:round; stroke-width:0.25; stroke-dasharray:3,3;"/>
<text x="40.000000" y="37.000000" font-family="Arial" font-size="7">vgroup(INPUT FILTERS)</text>
<line x1="25.000000" y1="25.000000" x2="25.000000" y2="87.000000"  style="stroke: black; stroke-linecap:round; stroke-width:0.25; stroke-dasharray:3,3;"/>
<line x1="25.000000" y1="87.000000" x2="380.600000" y2="87.000000"  style="stroke: black; stroke-linecap:round; stroke-width:0.25; stroke-dasharray:3,3;"/>
<line x1="380.600000" y1="87.000000" x2="380.600000" y2="25.000000"  style="stroke: black; stroke-linecap:round; stroke-width:0.25; stroke-dasharray:3,3;"/>
<line x1="25.000000" y1="25.000000" x2="30.000000" y2="25.000000"  style="stroke: black; stroke-linecap:round; stroke-width:0.25; stroke-dasharray:3,3;"/>
<line x1="97.725000" y1="25.000000" x2="380.600000" y2="25.000000"  style="stroke: black; stroke-linecap:round; stroke-width:0.25; stroke-dasharray:3,3;"/>
<text x="30.000000" y="27.000000" font-family="Arial" font-size="7">hgroup(CharlieVerb)</text>
<line x1="15.000000" y1="15.000000" x2="15.000000" y2="97.000000"  style="stroke: black; stroke-linecap:round; stroke-width:0.25; stroke-dasharray:3,3;"/>
<line x1="15.000000" y1="97.000000" x2="398.600000" y2="97.000000"  style="stroke: black; stroke-linecap:round; stroke-width:0.25; stroke-dasharray:3,3;"/>
<line x1="398.600000" y1="97.000000" x2="398.600000" y2="15.000000"  style="stroke: black; stroke-linecap:round; stroke-width:0.25; stroke-dasharray:3,3;"/>
<line x1="15.000000" y1="15.000000" x2="20.000000" y2="15.000000"  style="stroke: black; stroke-linecap:round; stroke-width:0.25; stroke-dasharray:3,3;"/>
<line x1="39.350000" y1="15.000000" x2="398.600000" y2="15.000000"  style="stroke: black; stroke-linecap:round; stroke-width:0.25; stroke-dasharray:3,3;"/>
<text x="20.000000" y="17.000000" font-family="Arial" font-size="7">ilop</text>
<line x1="400.600000" y1="55.000000" x2="403.600000" y2="56.000000"  transform="rotate(0.000000,403.600000,56.000000)" style="stroke: black; stroke-width:0.25;"/>
<line x1="400.600000" y1="57.000000" x2="403.600000" y2="56.000000"  transform="rotate(0.000000,403.600000,56.000000)" style="stroke: black; stroke-width:0.25;"/>
<line x1="327.800000" y1="56.000000" x2="331.800000" y2="56.000000"  style="stroke:black; stroke-linecap:round; stroke-width:0.25;"/>
<line x1="331.800000" y1="56.000000" x2="331.800000" y2="56.000000"  style="stroke:black; stroke-linecap:round; stroke-width:0.25;"/>
<line x1="331.800000" y1="56.000000" x2="335.800000" y2="56.000000"  style="stroke:black; stroke-linecap:round; stroke-width:0.25;"/>
<line x1="361.600000" y1="56.000000" x2="365.600000" y2="56.000000"  style="stroke:black; stroke-linecap:round; stroke-width:0.25;"/>
<line x1="365.600000" y1="56.000000" x2="375.600000" y2="56.000000"  style="stroke:black; stroke-linecap:round; stroke-width:0.25;"/>
<line x1="375.600000" y1="56.000000" x2="385.600000" y2="56.000000"  style="stroke:black; stroke-linecap:round; stroke-width:0.25;"/>
<line x1="385.600000" y1="56.000000" x2="385.600000" y2="56.000000"  style="stroke:black; stroke-linecap:round; stroke-width:0.25;"/>
<line x1="385.600000" y1="56.000000" x2="389.600000" y2="56.000000"  style="stroke:black; stroke-linecap:round; stroke-width:0.25;"/>
<line x1="389.600000" y1="56.000000" x2="393.600000" y2="56.000000"  style="stroke:black; stroke-linecap:round; stroke-width:0.25;"/>
<line x1="393.600000" y1="56.000000" x2="403.600000" y2="56.000000"  style="stroke:black; stroke-linecap:round; stroke-width:0.25;"/>
</svg>
