<?xml version="1.0"?>
<svg xmlns="http://www.w3.org/2000/svg" xmlns:xlink="http://www.w3.org/1999/xlink" viewBox="0 0 141.400000 72.000000" width="70.700000mm" height="36.000000mm" version="1.1">
<a xlink:href="delay-0x7f81345ba3c0.svg">
<rect x="1.000000" y="1.000000" width="140.400000" height="71.000000" rx="0" ry="0" style="stroke:none;fill:#cccccc;"/>
<rect x="0.000000" y="0.000000" width="140.400000" height="71.000000" rx="0" ry="0" style="stroke:none;fill:#ffffff;"/>
</a>
<text x="10.000000" y="7.000000" font-family="Arial" font-size="7"></text>
<a xlink:href="itfrag2-0x7f81341f6c20.svg">
<rect x="25.000000" y="25.000000" width="38.700000" height="24.000000" rx="0" ry="0" style="stroke:none;fill:#cccccc;"/>
<rect x="24.000000" y="24.000000" width="38.700000" height="24.000000" rx="0" ry="0" style="stroke:none;fill:#003366;"/>
</a>
<a xlink:href="itfrag2-0x7f81341f6c20.svg">
<text x="43.350000" y="38.000000" font-family="Arial" font-size="7" text-anchor="middle" fill="#FFFFFF">itfrag2</text>
</a>
<circle cx="26.000000" cy="26.000000" r="1"/>
<a xlink:href="sec2samp-0x7f8132414260.svg">
<rect x="71.700000" y="25.000000" width="38.700000" height="24.000000" rx="0" ry="0" style="stroke:none;fill:#cccccc;"/>
<rect x="70.700000" y="24.000000" width="38.700000" height="24.000000" rx="0" ry="0" style="stroke:none;fill:#003366;"/>
</a>
<a xlink:href="sec2samp-0x7f8132414260.svg">
<text x="90.050000" y="38.000000" font-family="Arial" font-size="7" text-anchor="middle" fill="#FFFFFF">sec2samp</text>
</a>
<circle cx="72.700000" cy="26.000000" r="1"/>
<line x1="67.700000" y1="35.000000" x2="70.700000" y2="36.000000"  transform="rotate(0.000000,70.700000,36.000000)" style="stroke: black; stroke-width:0.25;"/>
<line x1="67.700000" y1="37.000000" x2="70.700000" y2="36.000000"  transform="rotate(0.000000,70.700000,36.000000)" style="stroke: black; stroke-width:0.25;"/>
<line x1="15.000000" y1="15.000000" x2="15.000000" y2="57.000000"  style="stroke: black; stroke-linecap:round; stroke-width:0.25; stroke-dasharray:3,3;"/>
<line x1="15.000000" y1="57.000000" x2="126.400000" y2="57.000000"  style="stroke: black; stroke-linecap:round; stroke-width:0.25; stroke-dasharray:3,3;"/>
<line x1="126.400000" y1="57.000000" x2="126.400000" y2="15.000000"  style="stroke: black; stroke-linecap:round; stroke-width:0.25; stroke-dasharray:3,3;"/>
<line x1="15.000000" y1="15.000000" x2="20.000000" y2="15.000000"  style="stroke: black; stroke-linecap:round; stroke-width:0.25; stroke-dasharray:3,3;"/>
<line x1="52.250000" y1="15.000000" x2="126.400000" y2="15.000000"  style="stroke: black; stroke-linecap:round; stroke-width:0.25; stroke-dasharray:3,3;"/>
<text x="20.000000" y="17.000000" font-family="Arial" font-size="7">itfrag2s</text>
<line x1="128.400000" y1="35.000000" x2="131.400000" y2="36.000000"  transform="rotate(0.000000,131.400000,36.000000)" style="stroke: black; stroke-width:0.25;"/>
<line x1="128.400000" y1="37.000000" x2="131.400000" y2="36.000000"  transform="rotate(0.000000,131.400000,36.000000)" style="stroke: black; stroke-width:0.25;"/>
<line x1="62.700000" y1="36.000000" x2="66.700000" y2="36.000000"  style="stroke:black; stroke-linecap:round; stroke-width:0.25;"/>
<line x1="66.700000" y1="36.000000" x2="66.700000" y2="36.000000"  style="stroke:black; stroke-linecap:round; stroke-width:0.25;"/>
<line x1="66.700000" y1="36.000000" x2="70.700000" y2="36.000000"  style="stroke:black; stroke-linecap:round; stroke-width:0.25;"/>
<line x1="109.400000" y1="36.000000" x2="113.400000" y2="36.000000"  style="stroke:black; stroke-linecap:round; stroke-width:0.25;"/>
<line x1="113.400000" y1="36.000000" x2="113.400000" y2="36.000000"  style="stroke:black; stroke-linecap:round; stroke-width:0.25;"/>
<line x1="113.400000" y1="36.000000" x2="117.400000" y2="36.000000"  style="stroke:black; stroke-linecap:round; stroke-width:0.25;"/>
<line x1="117.400000" y1="36.000000" x2="121.400000" y2="36.000000"  style="stroke:black; stroke-linecap:round; stroke-width:0.25;"/>
<line x1="121.400000" y1="36.000000" x2="131.400000" y2="36.000000"  style="stroke:black; stroke-linecap:round; stroke-width:0.25;"/>
</svg>
