<?xml version="1.0"?>
<svg xmlns="http://www.w3.org/2000/svg" xmlns:xlink="http://www.w3.org/1999/xlink" viewBox="0 0 502.000000 160.000000" width="251.000000mm" height="80.000000mm" version="1.1">
<rect x="1.000000" y="1.000000" width="501.000000" height="159.000000" rx="0" ry="0" style="stroke:none;fill:#cccccc;"/>
<rect x="0.000000" y="0.000000" width="501.000000" height="159.000000" rx="0" ry="0" style="stroke:none;fill:#ffffff;"/>
<text x="10.000000" y="7.000000" font-family="Arial" font-size="7"></text>
<rect x="41.000000" y="73.000000" width="25.800000" height="24.000000" rx="0" ry="0" style="stroke:none;fill:#cccccc;"/>
<rect x="40.000000" y="72.000000" width="25.800000" height="24.000000" rx="0" ry="0" style="stroke:none;fill:#f44800;"/>
<text x="52.900000" y="86.000000" font-family="Arial" font-size="7" text-anchor="middle" fill="#FFFFFF">0.707</text>
<circle cx="42.000000" cy="74.000000" r="1"/>
<rect x="82.800000" y="69.000000" width="24.000000" height="24.000000" rx="0" ry="0" style="stroke:none;fill:#cccccc;"/>
<rect x="81.800000" y="68.000000" width="24.000000" height="24.000000" rx="0" ry="0" style="stroke:none;fill:#4B71A1;"/>
<text x="93.800000" y="82.000000" font-family="Arial" font-size="7" text-anchor="middle" fill="#FFFFFF">*</text>
<circle cx="83.800000" cy="70.000000" r="1"/>
<line x1="78.800000" y1="75.000000" x2="81.800000" y2="76.000000"  transform="rotate(0.000000,81.800000,76.000000)" style="stroke: black; stroke-width:0.25;"/>
<line x1="78.800000" y1="77.000000" x2="81.800000" y2="76.000000"  transform="rotate(0.000000,81.800000,76.000000)" style="stroke: black; stroke-width:0.25;"/>
<line x1="78.800000" y1="83.000000" x2="81.800000" y2="84.000000"  transform="rotate(0.000000,81.800000,84.000000)" style="stroke: black; stroke-width:0.25;"/>
<line x1="78.800000" y1="85.000000" x2="81.800000" y2="84.000000"  transform="rotate(0.000000,81.800000,84.000000)" style="stroke: black; stroke-width:0.25;"/>
<a xlink:href="input-0x7f81345b26f0.svg">
<rect x="154.800000" y="73.000000" width="64.500000" height="24.000000" rx="0" ry="0" style="stroke:none;fill:#cccccc;"/>
<rect x="153.800000" y="72.000000" width="64.500000" height="24.000000" rx="0" ry="0" style="stroke:none;fill:#003366;"/>
</a>
<a xlink:href="input-0x7f81345b26f0.svg">
<text x="186.050000" y="86.000000" font-family="Arial" font-size="7" text-anchor="middle" fill="#FFFFFF">input_filters</text>
</a>
<circle cx="155.800000" cy="74.000000" r="1"/>
<line x1="150.800000" y1="83.000000" x2="153.800000" y2="84.000000"  transform="rotate(0.000000,153.800000,84.000000)" style="stroke: black; stroke-width:0.25;"/>
<line x1="150.800000" y1="85.000000" x2="153.800000" y2="84.000000"  transform="rotate(0.000000,153.800000,84.000000)" style="stroke: black; stroke-width:0.25;"/>
<a xlink:href="predelay-0x7f81345b4f60.svg">
<rect x="227.300000" y="73.000000" width="38.700000" height="24.000000" rx="0" ry="0" style="stroke:none;fill:#cccccc;"/>
<rect x="226.300000" y="72.000000" width="38.700000" height="24.000000" rx="0" ry="0" style="stroke:none;fill:#003366;"/>
</a>
<a xlink:href="predelay-0x7f81345b4f60.svg">
<text x="245.650000" y="86.000000" font-family="Arial" font-size="7" text-anchor="middle" fill="#FFFFFF">predelay</text>
</a>
<circle cx="228.300000" cy="74.000000" r="1"/>
<line x1="223.300000" y1="83.000000" x2="226.300000" y2="84.000000"  transform="rotate(0.000000,226.300000,84.000000)" style="stroke: black; stroke-width:0.25;"/>
<line x1="223.300000" y1="85.000000" x2="226.300000" y2="84.000000"  transform="rotate(0.000000,226.300000,84.000000)" style="stroke: black; stroke-width:0.25;"/>
<a xlink:href="fragmentation-0x7f81345bd630.svg">
<rect x="274.000000" y="73.000000" width="64.500000" height="24.000000" rx="0" ry="0" style="stroke:none;fill:#cccccc;"/>
<rect x="273.000000" y="72.000000" width="64.500000" height="24.000000" rx="0" ry="0" style="stroke:none;fill:#003366;"/>
</a>
<a xlink:href="fragmentation-0x7f81345bd630.svg">
<text x="305.250000" y="86.000000" font-family="Arial" font-size="7" text-anchor="middle" fill="#FFFFFF">fragmentation</text>
</a>
<circle cx="275.000000" cy="74.000000" r="1"/>
<line x1="270.000000" y1="83.000000" x2="273.000000" y2="84.000000"  transform="rotate(0.000000,273.000000,84.000000)" style="stroke: black; stroke-width:0.25;"/>
<line x1="270.000000" y1="85.000000" x2="273.000000" y2="84.000000"  transform="rotate(0.000000,273.000000,84.000000)" style="stroke: black; stroke-width:0.25;"/>
<a xlink:href="density-0x7f81345c0280.svg">
<rect x="346.500000" y="73.000000" width="38.700000" height="24.000000" rx="0" ry="0" style="stroke:none;fill:#cccccc;"/>
<rect x="345.500000" y="72.000000" width="38.700000" height="24.000000" rx="0" ry="0" style="stroke:none;fill:#003366;"/>
</a>
<a xlink:href="density-0x7f81345c0280.svg">
<text x="364.850000" y="86.000000" font-family="Arial" font-size="7" text-anchor="middle" fill="#FFFFFF">density</text>
</a>
<circle cx="347.500000" cy="74.000000" r="1"/>
<line x1="342.500000" y1="83.000000" x2="345.500000" y2="84.000000"  transform="rotate(0.000000,345.500000,84.000000)" style="stroke: black; stroke-width:0.25;"/>
<line x1="342.500000" y1="85.000000" x2="345.500000" y2="84.000000"  transform="rotate(0.000000,345.500000,84.000000)" style="stroke: black; stroke-width:0.25;"/>
<a xlink:href="asumL-0x7f81345e2720.svg">
<rect x="429.200000" y="33.000000" width="25.800000" height="48.000000" rx="0" ry="0" style="stroke:none;fill:#cccccc;"/>
<rect x="428.200000" y="32.000000" width="25.800000" height="48.000000" rx="0" ry="0" style="stroke:none;fill:#003366;"/>
</a>
<a xlink:href="asumL-0x7f81345e2720.svg">
<text x="441.100000" y="58.000000" font-family="Arial" font-size="7" text-anchor="middle" fill="#FFFFFF">asumL</text>
</a>
<circle cx="430.200000" cy="34.000000" r="1"/>
<line x1="425.200000" y1="35.000000" x2="428.200000" y2="36.000000"  transform="rotate(0.000000,428.200000,36.000000)" style="stroke: black; stroke-width:0.25;"/>
<line x1="425.200000" y1="37.000000" x2="428.200000" y2="36.000000"  transform="rotate(0.000000,428.200000,36.000000)" style="stroke: black; stroke-width:0.25;"/>
<line x1="425.200000" y1="43.000000" x2="428.200000" y2="44.000000"  transform="rotate(0.000000,428.200000,44.000000)" style="stroke: black; stroke-width:0.25;"/>
<line x1="425.200000" y1="45.000000" x2="428.200000" y2="44.000000"  transform="rotate(0.000000,428.200000,44.000000)" style="stroke: black; stroke-width:0.25;"/>
<line x1="425.200000" y1="51.000000" x2="428.200000" y2="52.000000"  transform="rotate(0.000000,428.200000,52.000000)" style="stroke: black; stroke-width:0.25;"/>
<line x1="425.200000" y1="53.000000" x2="428.200000" y2="52.000000"  transform="rotate(0.000000,428.200000,52.000000)" style="stroke: black; stroke-width:0.25;"/>
<line x1="425.200000" y1="59.000000" x2="428.200000" y2="60.000000"  transform="rotate(0.000000,428.200000,60.000000)" style="stroke: black; stroke-width:0.25;"/>
<line x1="425.200000" y1="61.000000" x2="428.200000" y2="60.000000"  transform="rotate(0.000000,428.200000,60.000000)" style="stroke: black; stroke-width:0.25;"/>
<line x1="425.200000" y1="67.000000" x2="428.200000" y2="68.000000"  transform="rotate(0.000000,428.200000,68.000000)" style="stroke: black; stroke-width:0.25;"/>
<line x1="425.200000" y1="69.000000" x2="428.200000" y2="68.000000"  transform="rotate(0.000000,428.200000,68.000000)" style="stroke: black; stroke-width:0.25;"/>
<line x1="425.200000" y1="75.000000" x2="428.200000" y2="76.000000"  transform="rotate(0.000000,428.200000,76.000000)" style="stroke: black; stroke-width:0.25;"/>
<line x1="425.200000" y1="77.000000" x2="428.200000" y2="76.000000"  transform="rotate(0.000000,428.200000,76.000000)" style="stroke: black; stroke-width:0.25;"/>
<a xlink:href="asumR-0x7f81345e31a0.svg">
<rect x="429.200000" y="89.000000" width="25.800000" height="48.000000" rx="0" ry="0" style="stroke:none;fill:#cccccc;"/>
<rect x="428.200000" y="88.000000" width="25.800000" height="48.000000" rx="0" ry="0" style="stroke:none;fill:#003366;"/>
</a>
<a xlink:href="asumR-0x7f81345e31a0.svg">
<text x="441.100000" y="114.000000" font-family="Arial" font-size="7" text-anchor="middle" fill="#FFFFFF">asumR</text>
</a>
<circle cx="430.200000" cy="90.000000" r="1"/>
<line x1="425.200000" y1="91.000000" x2="428.200000" y2="92.000000"  transform="rotate(0.000000,428.200000,92.000000)" style="stroke: black; stroke-width:0.25;"/>
<line x1="425.200000" y1="93.000000" x2="428.200000" y2="92.000000"  transform="rotate(0.000000,428.200000,92.000000)" style="stroke: black; stroke-width:0.25;"/>
<line x1="425.200000" y1="99.000000" x2="428.200000" y2="100.000000"  transform="rotate(0.000000,428.200000,100.000000)" style="stroke: black; stroke-width:0.25;"/>
<line x1="425.200000" y1="101.000000" x2="428.200000" y2="100.000000"  transform="rotate(0.000000,428.200000,100.000000)" style="stroke: black; stroke-width:0.25;"/>
<line x1="425.200000" y1="107.000000" x2="428.200000" y2="108.000000"  transform="rotate(0.000000,428.200000,108.000000)" style="stroke: black; stroke-width:0.25;"/>
<line x1="425.200000" y1="109.000000" x2="428.200000" y2="108.000000"  transform="rotate(0.000000,428.200000,108.000000)" style="stroke: black; stroke-width:0.25;"/>
<line x1="425.200000" y1="115.000000" x2="428.200000" y2="116.000000"  transform="rotate(0.000000,428.200000,116.000000)" style="stroke: black; stroke-width:0.25;"/>
<line x1="425.200000" y1="117.000000" x2="428.200000" y2="116.000000"  transform="rotate(0.000000,428.200000,116.000000)" style="stroke: black; stroke-width:0.25;"/>
<line x1="425.200000" y1="123.000000" x2="428.200000" y2="124.000000"  transform="rotate(0.000000,428.200000,124.000000)" style="stroke: black; stroke-width:0.25;"/>
<line x1="425.200000" y1="125.000000" x2="428.200000" y2="124.000000"  transform="rotate(0.000000,428.200000,124.000000)" style="stroke: black; stroke-width:0.25;"/>
<line x1="425.200000" y1="131.000000" x2="428.200000" y2="132.000000"  transform="rotate(0.000000,428.200000,132.000000)" style="stroke: black; stroke-width:0.25;"/>
<line x1="425.200000" y1="133.000000" x2="428.200000" y2="132.000000"  transform="rotate(0.000000,428.200000,132.000000)" style="stroke: black; stroke-width:0.25;"/>
<line x1="15.000000" y1="15.000000" x2="15.000000" y2="145.000000"  style="stroke: black; stroke-linecap:round; stroke-width:0.25; stroke-dasharray:3,3;"/>
<line x1="15.000000" y1="145.000000" x2="487.000000" y2="145.000000"  style="stroke: black; stroke-linecap:round; stroke-width:0.25; stroke-dasharray:3,3;"/>
<line x1="487.000000" y1="145.000000" x2="487.000000" y2="15.000000"  style="stroke: black; stroke-linecap:round; stroke-width:0.25; stroke-dasharray:3,3;"/>
<line x1="15.000000" y1="15.000000" x2="20.000000" y2="15.000000"  style="stroke: black; stroke-linecap:round; stroke-width:0.25; stroke-dasharray:3,3;"/>
<line x1="49.025000" y1="15.000000" x2="487.000000" y2="15.000000"  style="stroke: black; stroke-linecap:round; stroke-width:0.25; stroke-dasharray:3,3;"/>
<text x="20.000000" y="17.000000" font-family="Arial" font-size="7">process</text>
<line x1="489.000000" y1="71.000000" x2="492.000000" y2="72.000000"  transform="rotate(0.000000,492.000000,72.000000)" style="stroke: black; stroke-width:0.25;"/>
<line x1="489.000000" y1="73.000000" x2="492.000000" y2="72.000000"  transform="rotate(0.000000,492.000000,72.000000)" style="stroke: black; stroke-width:0.25;"/>
<line x1="489.000000" y1="79.000000" x2="492.000000" y2="80.000000"  transform="rotate(0.000000,492.000000,80.000000)" style="stroke: black; stroke-width:0.25;"/>
<line x1="489.000000" y1="81.000000" x2="492.000000" y2="80.000000"  transform="rotate(0.000000,492.000000,80.000000)" style="stroke: black; stroke-width:0.25;"/>
<line x1="489.000000" y1="87.000000" x2="492.000000" y2="88.000000"  transform="rotate(0.000000,492.000000,88.000000)" style="stroke: black; stroke-width:0.25;"/>
<line x1="489.000000" y1="89.000000" x2="492.000000" y2="88.000000"  transform="rotate(0.000000,492.000000,88.000000)" style="stroke: black; stroke-width:0.25;"/>
<line x1="10.000000" y1="80.000000" x2="20.000000" y2="80.000000"  style="stroke:black; stroke-linecap:round; stroke-width:0.25;"/>
<line x1="20.000000" y1="80.000000" x2="24.000000" y2="80.000000"  style="stroke:black; stroke-linecap:round; stroke-width:0.25;"/>
<line x1="24.000000" y1="80.000000" x2="28.000000" y2="80.000000"  style="stroke:black; stroke-linecap:round; stroke-width:0.25;"/>
<line x1="28.000000" y1="64.000000" x2="36.000000" y2="64.000000"  style="stroke:black; stroke-linecap:round; stroke-width:0.25;"/>
<line x1="28.000000" y1="80.000000" x2="28.000000" y2="64.000000"  style="stroke:black; stroke-linecap:round; stroke-width:0.25;"/>
<line x1="28.000000" y1="80.000000" x2="28.000000" y2="80.000000"  style="stroke:black; stroke-linecap:round; stroke-width:0.25;"/>
<line x1="36.000000" y1="64.000000" x2="52.900000" y2="64.000000"  style="stroke:black; stroke-linecap:round; stroke-width:0.25;"/>
<line x1="52.900000" y1="64.000000" x2="69.800000" y2="64.000000"  style="stroke:black; stroke-linecap:round; stroke-width:0.25;"/>
<line x1="65.800000" y1="84.000000" x2="69.800000" y2="84.000000"  style="stroke:black; stroke-linecap:round; stroke-width:0.25;"/>
<line x1="69.800000" y1="64.000000" x2="77.800000" y2="64.000000"  style="stroke:black; stroke-linecap:round; stroke-width:0.25;"/>
<line x1="69.800000" y1="84.000000" x2="77.800000" y2="84.000000"  style="stroke:black; stroke-linecap:round; stroke-width:0.25;"/>
<line x1="77.800000" y1="64.000000" x2="77.800000" y2="76.000000"  style="stroke:black; stroke-linecap:round; stroke-width:0.25;"/>
<line x1="77.800000" y1="76.000000" x2="77.800000" y2="76.000000"  style="stroke:black; stroke-linecap:round; stroke-width:0.25;"/>
<line x1="77.800000" y1="76.000000" x2="81.800000" y2="76.000000"  style="stroke:black; stroke-linecap:round; stroke-width:0.25;"/>
<line x1="77.800000" y1="84.000000" x2="81.800000" y2="84.000000"  style="stroke:black; stroke-linecap:round; stroke-width:0.25;"/>
<line x1="105.800000" y1="80.000000" x2="109.800000" y2="80.000000"  style="stroke:black; stroke-linecap:round; stroke-width:0.25;"/>
<line x1="109.800000" y1="80.000000" x2="149.800000" y2="24.000000"  style="stroke:black; stroke-linecap:round; stroke-width:0.25;"/>
<line x1="109.800000" y1="80.000000" x2="149.800000" y2="84.000000"  style="stroke:black; stroke-linecap:round; stroke-width:0.25;"/>
<line x1="149.800000" y1="24.000000" x2="303.900000" y2="24.000000"  style="stroke:black; stroke-linecap:round; stroke-width:0.25;"/>
<line x1="149.800000" y1="84.000000" x2="153.800000" y2="84.000000"  style="stroke:black; stroke-linecap:round; stroke-width:0.25;"/>
<line x1="218.300000" y1="84.000000" x2="222.300000" y2="84.000000"  style="stroke:black; stroke-linecap:round; stroke-width:0.25;"/>
<line x1="222.300000" y1="84.000000" x2="222.300000" y2="84.000000"  style="stroke:black; stroke-linecap:round; stroke-width:0.25;"/>
<line x1="222.300000" y1="84.000000" x2="226.300000" y2="84.000000"  style="stroke:black; stroke-linecap:round; stroke-width:0.25;"/>
<line x1="265.000000" y1="84.000000" x2="269.000000" y2="84.000000"  style="stroke:black; stroke-linecap:round; stroke-width:0.25;"/>
<line x1="269.000000" y1="84.000000" x2="269.000000" y2="84.000000"  style="stroke:black; stroke-linecap:round; stroke-width:0.25;"/>
<line x1="269.000000" y1="84.000000" x2="273.000000" y2="84.000000"  style="stroke:black; stroke-linecap:round; stroke-width:0.25;"/>
<line x1="303.900000" y1="24.000000" x2="458.000000" y2="24.000000"  style="stroke:black; stroke-linecap:round; stroke-width:0.25;"/>
<line x1="337.500000" y1="84.000000" x2="341.500000" y2="84.000000"  style="stroke:black; stroke-linecap:round; stroke-width:0.25;"/>
<line x1="341.500000" y1="84.000000" x2="341.500000" y2="84.000000"  style="stroke:black; stroke-linecap:round; stroke-width:0.25;"/>
<line x1="341.500000" y1="84.000000" x2="345.500000" y2="84.000000"  style="stroke:black; stroke-linecap:round; stroke-width:0.25;"/>
<line x1="384.200000" y1="84.000000" x2="388.200000" y2="84.000000"  style="stroke:black; stroke-linecap:round; stroke-width:0.25;"/>
<line x1="388.200000" y1="84.000000" x2="424.200000" y2="36.000000"  style="stroke:black; stroke-linecap:round; stroke-width:0.25;"/>
<line x1="388.200000" y1="84.000000" x2="424.200000" y2="44.000000"  style="stroke:black; stroke-linecap:round; stroke-width:0.25;"/>
<line x1="388.200000" y1="84.000000" x2="424.200000" y2="52.000000"  style="stroke:black; stroke-linecap:round; stroke-width:0.25;"/>
<line x1="388.200000" y1="84.000000" x2="424.200000" y2="60.000000"  style="stroke:black; stroke-linecap:round; stroke-width:0.25;"/>
<line x1="388.200000" y1="84.000000" x2="424.200000" y2="68.000000"  style="stroke:black; stroke-linecap:round; stroke-width:0.25;"/>
<line x1="388.200000" y1="84.000000" x2="424.200000" y2="76.000000"  style="stroke:black; stroke-linecap:round; stroke-width:0.25;"/>
<line x1="388.200000" y1="84.000000" x2="424.200000" y2="92.000000"  style="stroke:black; stroke-linecap:round; stroke-width:0.25;"/>
<line x1="388.200000" y1="84.000000" x2="424.200000" y2="100.000000"  style="stroke:black; stroke-linecap:round; stroke-width:0.25;"/>
<line x1="388.200000" y1="84.000000" x2="424.200000" y2="108.000000"  style="stroke:black; stroke-linecap:round; stroke-width:0.25;"/>
<line x1="388.200000" y1="84.000000" x2="424.200000" y2="116.000000"  style="stroke:black; stroke-linecap:round; stroke-width:0.25;"/>
<line x1="388.200000" y1="84.000000" x2="424.200000" y2="124.000000"  style="stroke:black; stroke-linecap:round; stroke-width:0.25;"/>
<line x1="388.200000" y1="84.000000" x2="424.200000" y2="132.000000"  style="stroke:black; stroke-linecap:round; stroke-width:0.25;"/>
<line x1="424.200000" y1="36.000000" x2="428.200000" y2="36.000000"  style="stroke:black; stroke-linecap:round; stroke-width:0.25;"/>
<line x1="424.200000" y1="44.000000" x2="428.200000" y2="44.000000"  style="stroke:black; stroke-linecap:round; stroke-width:0.25;"/>
<line x1="424.200000" y1="52.000000" x2="428.200000" y2="52.000000"  style="stroke:black; stroke-linecap:round; stroke-width:0.25;"/>
<line x1="424.200000" y1="60.000000" x2="428.200000" y2="60.000000"  style="stroke:black; stroke-linecap:round; stroke-width:0.25;"/>
<line x1="424.200000" y1="68.000000" x2="428.200000" y2="68.000000"  style="stroke:black; stroke-linecap:round; stroke-width:0.25;"/>
<line x1="424.200000" y1="76.000000" x2="428.200000" y2="76.000000"  style="stroke:black; stroke-linecap:round; stroke-width:0.25;"/>
<line x1="424.200000" y1="92.000000" x2="428.200000" y2="92.000000"  style="stroke:black; stroke-linecap:round; stroke-width:0.25;"/>
<line x1="424.200000" y1="100.000000" x2="428.200000" y2="100.000000"  style="stroke:black; stroke-linecap:round; stroke-width:0.25;"/>
<line x1="424.200000" y1="108.000000" x2="428.200000" y2="108.000000"  style="stroke:black; stroke-linecap:round; stroke-width:0.25;"/>
<line x1="424.200000" y1="116.000000" x2="428.200000" y2="116.000000"  style="stroke:black; stroke-linecap:round; stroke-width:0.25;"/>
<line x1="424.200000" y1="124.000000" x2="428.200000" y2="124.000000"  style="stroke:black; stroke-linecap:round; stroke-width:0.25;"/>
<line x1="424.200000" y1="132.000000" x2="428.200000" y2="132.000000"  style="stroke:black; stroke-linecap:round; stroke-width:0.25;"/>
<line x1="454.000000" y1="56.000000" x2="458.000000" y2="56.000000"  style="stroke:black; stroke-linecap:round; stroke-width:0.25;"/>
<line x1="454.000000" y1="112.000000" x2="458.000000" y2="112.000000"  style="stroke:black; stroke-linecap:round; stroke-width:0.25;"/>
<line x1="458.000000" y1="24.000000" x2="474.000000" y2="24.000000"  style="stroke:black; stroke-linecap:round; stroke-width:0.25;"/>
<line x1="458.000000" y1="56.000000" x2="466.000000" y2="56.000000"  style="stroke:black; stroke-linecap:round; stroke-width:0.25;"/>
<line x1="458.000000" y1="88.000000" x2="474.000000" y2="88.000000"  style="stroke:black; stroke-linecap:round; stroke-width:0.25;"/>
<line x1="458.000000" y1="112.000000" x2="458.000000" y2="88.000000"  style="stroke:black; stroke-linecap:round; stroke-width:0.25;"/>
<line x1="458.000000" y1="112.000000" x2="458.000000" y2="112.000000"  style="stroke:black; stroke-linecap:round; stroke-width:0.25;"/>
<line x1="466.000000" y1="56.000000" x2="466.000000" y2="80.000000"  style="stroke:black; stroke-linecap:round; stroke-width:0.25;"/>
<line x1="466.000000" y1="80.000000" x2="474.000000" y2="80.000000"  style="stroke:black; stroke-linecap:round; stroke-width:0.25;"/>
<line x1="474.000000" y1="24.000000" x2="474.000000" y2="72.000000"  style="stroke:black; stroke-linecap:round; stroke-width:0.25;"/>
<line x1="474.000000" y1="72.000000" x2="474.000000" y2="72.000000"  style="stroke:black; stroke-linecap:round; stroke-width:0.25;"/>
<line x1="474.000000" y1="72.000000" x2="478.000000" y2="72.000000"  style="stroke:black; stroke-linecap:round; stroke-width:0.25;"/>
<line x1="474.000000" y1="80.000000" x2="478.000000" y2="80.000000"  style="stroke:black; stroke-linecap:round; stroke-width:0.25;"/>
<line x1="474.000000" y1="88.000000" x2="478.000000" y2="88.000000"  style="stroke:black; stroke-linecap:round; stroke-width:0.25;"/>
<line x1="478.000000" y1="72.000000" x2="482.000000" y2="72.000000"  style="stroke:black; stroke-linecap:round; stroke-width:0.25;"/>
<line x1="478.000000" y1="80.000000" x2="482.000000" y2="80.000000"  style="stroke:black; stroke-linecap:round; stroke-width:0.25;"/>
<line x1="478.000000" y1="88.000000" x2="482.000000" y2="88.000000"  style="stroke:black; stroke-linecap:round; stroke-width:0.25;"/>
<line x1="482.000000" y1="72.000000" x2="492.000000" y2="72.000000"  style="stroke:black; stroke-linecap:round; stroke-width:0.25;"/>
<line x1="482.000000" y1="80.000000" x2="492.000000" y2="80.000000"  style="stroke:black; stroke-linecap:round; stroke-width:0.25;"/>
<line x1="482.000000" y1="88.000000" x2="492.000000" y2="88.000000"  style="stroke:black; stroke-linecap:round; stroke-width:0.25;"/>
</svg>
