<?xml version="1.0"?>
<svg xmlns="http://www.w3.org/2000/svg" xmlns:xlink="http://www.w3.org/1999/xlink" viewBox="0 0 213.400000 136.000000" width="106.700000mm" height="68.000000mm" version="1.1">
<a xlink:href="pot-0x7fbd9aec8a10.svg">
<rect x="1.000000" y="1.000000" width="212.400000" height="135.000000" rx="0" ry="0" style="stroke:none;fill:#cccccc;"/>
<rect x="0.000000" y="0.000000" width="212.400000" height="135.000000" rx="0" ry="0" style="stroke:none;fill:#ffffff;"/>
</a>
<text x="10.000000" y="7.000000" font-family="Arial" font-size="7"></text>
<a xlink:href="lf-0x7fbd9aec8480.svg">
<rect x="25.000000" y="25.000000" width="77.400000" height="24.000000" rx="0" ry="0" style="stroke:none;fill:#cccccc;"/>
<rect x="24.000000" y="24.000000" width="77.400000" height="24.000000" rx="0" ry="0" style="stroke:none;fill:#003366;"/>
</a>
<a xlink:href="lf-0x7fbd9aec8480.svg">
<text x="62.700000" y="38.000000" font-family="Arial" font-size="7" text-anchor="middle" fill="#FFFFFF">lf_trianglepos(1)</text>
</a>
<circle cx="26.000000" cy="26.000000" r="1"/>
<rect x="51.700000" y="57.000000" width="24.000000" height="24.000000" rx="0" ry="0" style="stroke:none;fill:#cccccc;"/>
<rect x="50.700000" y="56.000000" width="24.000000" height="24.000000" rx="0" ry="0" style="stroke:none;fill:#f44800;"/>
<text x="62.700000" y="70.000000" font-family="Arial" font-size="7" text-anchor="middle" fill="#FFFFFF">360</text>
<circle cx="52.700000" cy="58.000000" r="1"/>
<rect x="118.400000" y="41.000000" width="24.000000" height="24.000000" rx="0" ry="0" style="stroke:none;fill:#cccccc;"/>
<rect x="117.400000" y="40.000000" width="24.000000" height="24.000000" rx="0" ry="0" style="stroke:none;fill:#4B71A1;"/>
<text x="129.400000" y="54.000000" font-family="Arial" font-size="7" text-anchor="middle" fill="#FFFFFF">*</text>
<circle cx="119.400000" cy="42.000000" r="1"/>
<line x1="114.400000" y1="47.000000" x2="117.400000" y2="48.000000"  transform="rotate(0.000000,117.400000,48.000000)" style="stroke: black; stroke-width:0.25;"/>
<line x1="114.400000" y1="49.000000" x2="117.400000" y2="48.000000"  transform="rotate(0.000000,117.400000,48.000000)" style="stroke: black; stroke-width:0.25;"/>
<line x1="114.400000" y1="55.000000" x2="117.400000" y2="56.000000"  transform="rotate(0.000000,117.400000,56.000000)" style="stroke: black; stroke-width:0.25;"/>
<line x1="114.400000" y1="57.000000" x2="117.400000" y2="56.000000"  transform="rotate(0.000000,117.400000,56.000000)" style="stroke: black; stroke-width:0.25;"/>
<rect x="71.700000" y="89.000000" width="24.000000" height="24.000000" rx="0" ry="0" style="stroke:none;fill:#cccccc;"/>
<rect x="70.700000" y="88.000000" width="24.000000" height="24.000000" rx="0" ry="0" style="stroke:none;fill:#f44800;"/>
<text x="82.700000" y="102.000000" font-family="Arial" font-size="7" text-anchor="middle" fill="#FFFFFF">180</text>
<circle cx="72.700000" cy="90.000000" r="1"/>
<rect x="158.400000" y="57.000000" width="24.000000" height="24.000000" rx="0" ry="0" style="stroke:none;fill:#cccccc;"/>
<rect x="157.400000" y="56.000000" width="24.000000" height="24.000000" rx="0" ry="0" style="stroke:none;fill:#4B71A1;"/>
<text x="169.400000" y="70.000000" font-family="Arial" font-size="7" text-anchor="middle" fill="#FFFFFF">-</text>
<circle cx="159.400000" cy="58.000000" r="1"/>
<line x1="154.400000" y1="63.000000" x2="157.400000" y2="64.000000"  transform="rotate(0.000000,157.400000,64.000000)" style="stroke: black; stroke-width:0.25;"/>
<line x1="154.400000" y1="65.000000" x2="157.400000" y2="64.000000"  transform="rotate(0.000000,157.400000,64.000000)" style="stroke: black; stroke-width:0.25;"/>
<line x1="154.400000" y1="71.000000" x2="157.400000" y2="72.000000"  transform="rotate(0.000000,157.400000,72.000000)" style="stroke: black; stroke-width:0.25;"/>
<line x1="154.400000" y1="73.000000" x2="157.400000" y2="72.000000"  transform="rotate(0.000000,157.400000,72.000000)" style="stroke: black; stroke-width:0.25;"/>
<line x1="15.000000" y1="15.000000" x2="15.000000" y2="121.000000"  style="stroke: black; stroke-linecap:round; stroke-width:0.25; stroke-dasharray:3,3;"/>
<line x1="15.000000" y1="121.000000" x2="198.400000" y2="121.000000"  style="stroke: black; stroke-linecap:round; stroke-width:0.25; stroke-dasharray:3,3;"/>
<line x1="198.400000" y1="121.000000" x2="198.400000" y2="15.000000"  style="stroke: black; stroke-linecap:round; stroke-width:0.25; stroke-dasharray:3,3;"/>
<line x1="15.000000" y1="15.000000" x2="20.000000" y2="15.000000"  style="stroke: black; stroke-linecap:round; stroke-width:0.25; stroke-dasharray:3,3;"/>
<line x1="49.025000" y1="15.000000" x2="198.400000" y2="15.000000"  style="stroke: black; stroke-linecap:round; stroke-width:0.25; stroke-dasharray:3,3;"/>
<text x="20.000000" y="17.000000" font-family="Arial" font-size="7">pisweep</text>
<line x1="200.400000" y1="67.000000" x2="203.400000" y2="68.000000"  transform="rotate(0.000000,203.400000,68.000000)" style="stroke: black; stroke-width:0.25;"/>
<line x1="200.400000" y1="69.000000" x2="203.400000" y2="68.000000"  transform="rotate(0.000000,203.400000,68.000000)" style="stroke: black; stroke-width:0.25;"/>
<line x1="74.700000" y1="68.000000" x2="78.700000" y2="68.000000"  style="stroke:black; stroke-linecap:round; stroke-width:0.25;"/>
<line x1="78.700000" y1="68.000000" x2="105.400000" y2="68.000000"  style="stroke:black; stroke-linecap:round; stroke-width:0.25;"/>
<line x1="94.700000" y1="100.000000" x2="98.700000" y2="100.000000"  style="stroke:black; stroke-linecap:round; stroke-width:0.25;"/>
<line x1="98.700000" y1="100.000000" x2="145.400000" y2="100.000000"  style="stroke:black; stroke-linecap:round; stroke-width:0.25;"/>
<line x1="101.400000" y1="36.000000" x2="105.400000" y2="36.000000"  style="stroke:black; stroke-linecap:round; stroke-width:0.25;"/>
<line x1="105.400000" y1="56.000000" x2="113.400000" y2="56.000000"  style="stroke:black; stroke-linecap:round; stroke-width:0.25;"/>
<line x1="105.400000" y1="68.000000" x2="105.400000" y2="56.000000"  style="stroke:black; stroke-linecap:round; stroke-width:0.25;"/>
<line x1="105.400000" y1="68.000000" x2="105.400000" y2="68.000000"  style="stroke:black; stroke-linecap:round; stroke-width:0.25;"/>
<line x1="105.400000" y1="36.000000" x2="113.400000" y2="36.000000"  style="stroke:black; stroke-linecap:round; stroke-width:0.25;"/>
<line x1="113.400000" y1="36.000000" x2="113.400000" y2="48.000000"  style="stroke:black; stroke-linecap:round; stroke-width:0.25;"/>
<line x1="113.400000" y1="48.000000" x2="113.400000" y2="48.000000"  style="stroke:black; stroke-linecap:round; stroke-width:0.25;"/>
<line x1="113.400000" y1="48.000000" x2="117.400000" y2="48.000000"  style="stroke:black; stroke-linecap:round; stroke-width:0.25;"/>
<line x1="113.400000" y1="56.000000" x2="117.400000" y2="56.000000"  style="stroke:black; stroke-linecap:round; stroke-width:0.25;"/>
<line x1="141.400000" y1="52.000000" x2="145.400000" y2="52.000000"  style="stroke:black; stroke-linecap:round; stroke-width:0.25;"/>
<line x1="145.400000" y1="52.000000" x2="153.400000" y2="52.000000"  style="stroke:black; stroke-linecap:round; stroke-width:0.25;"/>
<line x1="145.400000" y1="72.000000" x2="153.400000" y2="72.000000"  style="stroke:black; stroke-linecap:round; stroke-width:0.25;"/>
<line x1="145.400000" y1="100.000000" x2="145.400000" y2="72.000000"  style="stroke:black; stroke-linecap:round; stroke-width:0.25;"/>
<line x1="145.400000" y1="100.000000" x2="145.400000" y2="100.000000"  style="stroke:black; stroke-linecap:round; stroke-width:0.25;"/>
<line x1="153.400000" y1="52.000000" x2="153.400000" y2="64.000000"  style="stroke:black; stroke-linecap:round; stroke-width:0.25;"/>
<line x1="153.400000" y1="64.000000" x2="153.400000" y2="64.000000"  style="stroke:black; stroke-linecap:round; stroke-width:0.25;"/>
<line x1="153.400000" y1="64.000000" x2="157.400000" y2="64.000000"  style="stroke:black; stroke-linecap:round; stroke-width:0.25;"/>
<line x1="153.400000" y1="72.000000" x2="157.400000" y2="72.000000"  style="stroke:black; stroke-linecap:round; stroke-width:0.25;"/>
<line x1="181.400000" y1="68.000000" x2="185.400000" y2="68.000000"  style="stroke:black; stroke-linecap:round; stroke-width:0.25;"/>
<line x1="185.400000" y1="68.000000" x2="185.400000" y2="68.000000"  style="stroke:black; stroke-linecap:round; stroke-width:0.25;"/>
<line x1="185.400000" y1="68.000000" x2="189.400000" y2="68.000000"  style="stroke:black; stroke-linecap:round; stroke-width:0.25;"/>
<line x1="189.400000" y1="68.000000" x2="193.400000" y2="68.000000"  style="stroke:black; stroke-linecap:round; stroke-width:0.25;"/>
<line x1="193.400000" y1="68.000000" x2="203.400000" y2="68.000000"  style="stroke:black; stroke-linecap:round; stroke-width:0.25;"/>
</svg>
