<?xml version="1.0"?>
<svg xmlns="http://www.w3.org/2000/svg" xmlns:xlink="http://www.w3.org/1999/xlink" viewBox="0 0 257.400000 100.080000" width="128.700000mm" height="50.040000mm" version="1.1">
<a xlink:href="T-0x7fe9ef360980.svg">
<rect x="1.000000" y="1.000000" width="256.400000" height="99.080000" rx="0" ry="0" style="stroke:none;fill:#cccccc;"/>
<rect x="0.000000" y="0.000000" width="256.400000" height="99.080000" rx="0" ry="0" style="stroke:none;fill:#ffffff;"/>
</a>
<text x="10.000000" y="7.000000" font-family="Arial" font-size="7"></text>
<a xlink:href="pospass-0x7fe9ef357b90.svg">
<rect x="33.000000" y="39.040000" width="77.400000" height="24.000000" rx="0" ry="0" style="stroke:none;fill:#cccccc;"/>
<rect x="32.000000" y="38.040000" width="77.400000" height="24.000000" rx="0" ry="0" style="stroke:none;fill:#003366;"/>
</a>
<a xlink:href="pospass-0x7fe9ef357b90.svg">
<text x="70.700000" y="52.040000" font-family="Arial" font-size="7" text-anchor="middle" fill="#FFFFFF">pospass(128)(300)</text>
</a>
<circle cx="34.000000" cy="40.040000" r="1"/>
<line x1="29.000000" y1="49.040000" x2="32.000000" y2="50.040000"  transform="rotate(0.000000,32.000000,50.040000)" style="stroke: black; stroke-width:0.25;"/>
<line x1="29.000000" y1="51.040000" x2="32.000000" y2="50.040000"  transform="rotate(0.000000,32.000000,50.040000)" style="stroke: black; stroke-width:0.25;"/>
<rect x="144.400000" y="43.080000" width="24.000000" height="24.000000" rx="0" ry="0" style="stroke:none;fill:#cccccc;"/>
<rect x="143.400000" y="42.080000" width="24.000000" height="24.000000" rx="0" ry="0" style="stroke:none;fill:#f44800;"/>
<text x="155.400000" y="56.080000" font-family="Arial" font-size="7" text-anchor="middle" fill="#FFFFFF">2</text>
<circle cx="145.400000" cy="44.080000" r="1"/>
<line x1="134.400000" y1="33.080000" x2="134.400000" y2="75.080000"  style="stroke: black; stroke-linecap:round; stroke-width:0.25; stroke-dasharray:3,3;"/>
<line x1="134.400000" y1="75.080000" x2="176.400000" y2="75.080000"  style="stroke: black; stroke-linecap:round; stroke-width:0.25; stroke-dasharray:3,3;"/>
<line x1="176.400000" y1="75.080000" x2="176.400000" y2="33.080000"  style="stroke: black; stroke-linecap:round; stroke-width:0.25; stroke-dasharray:3,3;"/>
<line x1="134.400000" y1="33.080000" x2="139.400000" y2="33.080000"  style="stroke: black; stroke-linecap:round; stroke-width:0.25; stroke-dasharray:3,3;"/>
<line x1="149.075000" y1="33.080000" x2="176.400000" y2="33.080000"  style="stroke: black; stroke-linecap:round; stroke-width:0.25; stroke-dasharray:3,3;"/>
<text x="139.400000" y="35.080000" font-family="Arial" font-size="7">S</text>
<rect x="194.400000" y="39.080000" width="24.000000" height="24.000000" rx="0" ry="0" style="stroke:none;fill:#cccccc;"/>
<rect x="193.400000" y="38.080000" width="24.000000" height="24.000000" rx="0" ry="0" style="stroke:none;fill:#4B71A1;"/>
<text x="205.400000" y="52.080000" font-family="Arial" font-size="7" text-anchor="middle" fill="#FFFFFF">*</text>
<circle cx="195.400000" cy="40.080000" r="1"/>
<line x1="190.400000" y1="45.080000" x2="193.400000" y2="46.080000"  transform="rotate(0.000000,193.400000,46.080000)" style="stroke: black; stroke-width:0.25;"/>
<line x1="190.400000" y1="47.080000" x2="193.400000" y2="46.080000"  transform="rotate(0.000000,193.400000,46.080000)" style="stroke: black; stroke-width:0.25;"/>
<line x1="190.400000" y1="53.080000" x2="193.400000" y2="54.080000"  transform="rotate(0.000000,193.400000,54.080000)" style="stroke: black; stroke-width:0.25;"/>
<line x1="190.400000" y1="55.080000" x2="193.400000" y2="54.080000"  transform="rotate(0.000000,193.400000,54.080000)" style="stroke: black; stroke-width:0.25;"/>
<line x1="15.000000" y1="15.000000" x2="15.000000" y2="85.080000"  style="stroke: black; stroke-linecap:round; stroke-width:0.25; stroke-dasharray:3,3;"/>
<line x1="15.000000" y1="85.080000" x2="242.400000" y2="85.080000"  style="stroke: black; stroke-linecap:round; stroke-width:0.25; stroke-dasharray:3,3;"/>
<line x1="242.400000" y1="85.080000" x2="242.400000" y2="15.000000"  style="stroke: black; stroke-linecap:round; stroke-width:0.25; stroke-dasharray:3,3;"/>
<line x1="15.000000" y1="15.000000" x2="20.000000" y2="15.000000"  style="stroke: black; stroke-linecap:round; stroke-width:0.25; stroke-dasharray:3,3;"/>
<line x1="29.675000" y1="15.000000" x2="242.400000" y2="15.000000"  style="stroke: black; stroke-linecap:round; stroke-width:0.25; stroke-dasharray:3,3;"/>
<text x="20.000000" y="17.000000" font-family="Arial" font-size="7">j</text>
<line x1="244.400000" y1="49.040000" x2="247.400000" y2="50.040000"  transform="rotate(0.000000,247.400000,50.040000)" style="stroke: black; stroke-width:0.25;"/>
<line x1="244.400000" y1="51.040000" x2="247.400000" y2="50.040000"  transform="rotate(0.000000,247.400000,50.040000)" style="stroke: black; stroke-width:0.25;"/>
<line x1="10.000000" y1="50.040000" x2="20.000000" y2="50.040000"  style="stroke:black; stroke-linecap:round; stroke-width:0.25;"/>
<line x1="20.000000" y1="50.040000" x2="24.000000" y2="50.040000"  style="stroke:black; stroke-linecap:round; stroke-width:0.25;"/>
<line x1="24.000000" y1="50.040000" x2="28.000000" y2="50.040000"  style="stroke:black; stroke-linecap:round; stroke-width:0.25;"/>
<line x1="28.000000" y1="50.040000" x2="28.000000" y2="50.040000"  style="stroke:black; stroke-linecap:round; stroke-width:0.25;"/>
<line x1="28.000000" y1="50.040000" x2="32.000000" y2="50.040000"  style="stroke:black; stroke-linecap:round; stroke-width:0.25;"/>
<line x1="109.400000" y1="54.040000" x2="113.400000" y2="54.040000"  style="stroke:black; stroke-linecap:round; stroke-width:0.25;"/>
<line x1="113.400000" y1="54.040000" x2="121.400000" y2="54.040000"  style="stroke:black; stroke-linecap:round; stroke-width:0.25;"/>
<line x1="121.400000" y1="24.080000" x2="129.400000" y2="24.080000"  style="stroke:black; stroke-linecap:round; stroke-width:0.25;"/>
<line x1="121.400000" y1="54.040000" x2="121.400000" y2="24.080000"  style="stroke:black; stroke-linecap:round; stroke-width:0.25;"/>
<line x1="129.400000" y1="24.080000" x2="155.400000" y2="24.080000"  style="stroke:black; stroke-linecap:round; stroke-width:0.25;"/>
<line x1="155.400000" y1="24.080000" x2="181.400000" y2="24.080000"  style="stroke:black; stroke-linecap:round; stroke-width:0.25;"/>
<line x1="167.400000" y1="54.080000" x2="171.400000" y2="54.080000"  style="stroke:black; stroke-linecap:round; stroke-width:0.25;"/>
<line x1="171.400000" y1="54.080000" x2="181.400000" y2="54.080000"  style="stroke:black; stroke-linecap:round; stroke-width:0.25;"/>
<line x1="181.400000" y1="24.080000" x2="189.400000" y2="24.080000"  style="stroke:black; stroke-linecap:round; stroke-width:0.25;"/>
<line x1="181.400000" y1="54.080000" x2="189.400000" y2="54.080000"  style="stroke:black; stroke-linecap:round; stroke-width:0.25;"/>
<line x1="189.400000" y1="24.080000" x2="189.400000" y2="46.080000"  style="stroke:black; stroke-linecap:round; stroke-width:0.25;"/>
<line x1="189.400000" y1="46.080000" x2="189.400000" y2="46.080000"  style="stroke:black; stroke-linecap:round; stroke-width:0.25;"/>
<line x1="189.400000" y1="46.080000" x2="193.400000" y2="46.080000"  style="stroke:black; stroke-linecap:round; stroke-width:0.25;"/>
<line x1="189.400000" y1="54.080000" x2="193.400000" y2="54.080000"  style="stroke:black; stroke-linecap:round; stroke-width:0.25;"/>
<line x1="217.400000" y1="50.080000" x2="221.400000" y2="50.080000"  style="stroke:black; stroke-linecap:round; stroke-width:0.25;"/>
<line x1="221.400000" y1="50.040000" x2="229.400000" y2="50.040000"  style="stroke:black; stroke-linecap:round; stroke-width:0.25;"/>
<line x1="221.400000" y1="50.080000" x2="221.400000" y2="50.040000"  style="stroke:black; stroke-linecap:round; stroke-width:0.25;"/>
<line x1="221.400000" y1="50.080000" x2="221.400000" y2="50.080000"  style="stroke:black; stroke-linecap:round; stroke-width:0.25;"/>
<line x1="229.400000" y1="50.040000" x2="233.400000" y2="50.040000"  style="stroke:black; stroke-linecap:round; stroke-width:0.25;"/>
<line x1="233.400000" y1="50.040000" x2="237.400000" y2="50.040000"  style="stroke:black; stroke-linecap:round; stroke-width:0.25;"/>
<line x1="237.400000" y1="50.040000" x2="247.400000" y2="50.040000"  style="stroke:black; stroke-linecap:round; stroke-width:0.25;"/>
</svg>
