<?xml version="1.0"?>
<svg xmlns="http://www.w3.org/2000/svg" xmlns:xlink="http://www.w3.org/1999/xlink" viewBox="0 0 249.400000 100.080000" width="124.700000mm" height="50.040000mm" version="1.1">
<a xlink:href="T-0x7f85a3cc2d80.svg">
<rect x="1.000000" y="1.000000" width="248.400000" height="99.080000" rx="0" ry="0" style="stroke:none;fill:#cccccc;"/>
<rect x="0.000000" y="0.000000" width="248.400000" height="99.080000" rx="0" ry="0" style="stroke:none;fill:#ffffff;"/>
</a>
<text x="10.000000" y="7.000000" font-family="Arial" font-size="7"></text>
<a xlink:href="pospass-0x7f85a3cb9f90.svg">
<rect x="33.000000" y="39.040000" width="77.400000" height="24.000000" rx="0" ry="0" style="stroke:none;fill:#cccccc;"/>
<rect x="32.000000" y="38.040000" width="77.400000" height="24.000000" rx="0" ry="0" style="stroke:none;fill:#003366;"/>
</a>
<a xlink:href="pospass-0x7f85a3cb9f90.svg">
<text x="70.700000" y="52.040000" font-family="Arial" font-size="7" text-anchor="middle" fill="#FFFFFF">pospass(128)(35)</text>
</a>
<circle cx="34.000000" cy="40.040000" r="1"/>
<line x1="29.000000" y1="49.040000" x2="32.000000" y2="50.040000"  transform="rotate(0.000000,32.000000,50.040000)" style="stroke: black; stroke-width:0.25;"/>
<line x1="29.000000" y1="51.040000" x2="32.000000" y2="50.040000"  transform="rotate(0.000000,32.000000,50.040000)" style="stroke: black; stroke-width:0.25;"/>
<rect x="136.400000" y="43.000000" width="24.000000" height="24.000000" rx="0" ry="0" style="stroke:none;fill:#cccccc;"/>
<rect x="135.400000" y="42.000000" width="24.000000" height="24.000000" rx="0" ry="0" style="stroke:none;fill:#f44800;"/>
<text x="147.400000" y="56.000000" font-family="Arial" font-size="7" text-anchor="middle" fill="#FFFFFF">2</text>
<circle cx="137.400000" cy="44.000000" r="1"/>
<line x1="126.400000" y1="33.000000" x2="126.400000" y2="75.000000"  style="stroke: black; stroke-linecap:round; stroke-width:0.25; stroke-dasharray:3,3;"/>
<line x1="126.400000" y1="75.000000" x2="168.400000" y2="75.000000"  style="stroke: black; stroke-linecap:round; stroke-width:0.25; stroke-dasharray:3,3;"/>
<line x1="168.400000" y1="75.000000" x2="168.400000" y2="33.000000"  style="stroke: black; stroke-linecap:round; stroke-width:0.25; stroke-dasharray:3,3;"/>
<line x1="126.400000" y1="33.000000" x2="131.400000" y2="33.000000"  style="stroke: black; stroke-linecap:round; stroke-width:0.25; stroke-dasharray:3,3;"/>
<line x1="141.075000" y1="33.000000" x2="168.400000" y2="33.000000"  style="stroke: black; stroke-linecap:round; stroke-width:0.25; stroke-dasharray:3,3;"/>
<text x="131.400000" y="35.000000" font-family="Arial" font-size="7">S</text>
<rect x="186.400000" y="39.000000" width="24.000000" height="24.000000" rx="0" ry="0" style="stroke:none;fill:#cccccc;"/>
<rect x="185.400000" y="38.000000" width="24.000000" height="24.000000" rx="0" ry="0" style="stroke:none;fill:#4B71A1;"/>
<text x="197.400000" y="52.000000" font-family="Arial" font-size="7" text-anchor="middle" fill="#FFFFFF">*</text>
<circle cx="187.400000" cy="40.000000" r="1"/>
<line x1="182.400000" y1="45.000000" x2="185.400000" y2="46.000000"  transform="rotate(0.000000,185.400000,46.000000)" style="stroke: black; stroke-width:0.25;"/>
<line x1="182.400000" y1="47.000000" x2="185.400000" y2="46.000000"  transform="rotate(0.000000,185.400000,46.000000)" style="stroke: black; stroke-width:0.25;"/>
<line x1="182.400000" y1="53.000000" x2="185.400000" y2="54.000000"  transform="rotate(0.000000,185.400000,54.000000)" style="stroke: black; stroke-width:0.25;"/>
<line x1="182.400000" y1="55.000000" x2="185.400000" y2="54.000000"  transform="rotate(0.000000,185.400000,54.000000)" style="stroke: black; stroke-width:0.25;"/>
<line x1="15.000000" y1="15.000000" x2="15.000000" y2="85.080000"  style="stroke: black; stroke-linecap:round; stroke-width:0.25; stroke-dasharray:3,3;"/>
<line x1="15.000000" y1="85.080000" x2="234.400000" y2="85.080000"  style="stroke: black; stroke-linecap:round; stroke-width:0.25; stroke-dasharray:3,3;"/>
<line x1="234.400000" y1="85.080000" x2="234.400000" y2="15.000000"  style="stroke: black; stroke-linecap:round; stroke-width:0.25; stroke-dasharray:3,3;"/>
<line x1="15.000000" y1="15.000000" x2="20.000000" y2="15.000000"  style="stroke: black; stroke-linecap:round; stroke-width:0.25; stroke-dasharray:3,3;"/>
<line x1="29.675000" y1="15.000000" x2="234.400000" y2="15.000000"  style="stroke: black; stroke-linecap:round; stroke-width:0.25; stroke-dasharray:3,3;"/>
<text x="20.000000" y="17.000000" font-family="Arial" font-size="7">j</text>
<line x1="236.400000" y1="49.040000" x2="239.400000" y2="50.040000"  transform="rotate(0.000000,239.400000,50.040000)" style="stroke: black; stroke-width:0.25;"/>
<line x1="236.400000" y1="51.040000" x2="239.400000" y2="50.040000"  transform="rotate(0.000000,239.400000,50.040000)" style="stroke: black; stroke-width:0.25;"/>
<line x1="10.000000" y1="50.040000" x2="20.000000" y2="50.040000"  style="stroke:black; stroke-linecap:round; stroke-width:0.25;"/>
<line x1="20.000000" y1="50.040000" x2="24.000000" y2="50.040000"  style="stroke:black; stroke-linecap:round; stroke-width:0.25;"/>
<line x1="24.000000" y1="50.040000" x2="28.000000" y2="50.040000"  style="stroke:black; stroke-linecap:round; stroke-width:0.25;"/>
<line x1="28.000000" y1="50.040000" x2="28.000000" y2="50.040000"  style="stroke:black; stroke-linecap:round; stroke-width:0.25;"/>
<line x1="28.000000" y1="50.040000" x2="32.000000" y2="50.040000"  style="stroke:black; stroke-linecap:round; stroke-width:0.25;"/>
<line x1="109.400000" y1="46.040000" x2="113.400000" y2="46.040000"  style="stroke:black; stroke-linecap:round; stroke-width:0.25;"/>
<line x1="113.400000" y1="24.000000" x2="121.400000" y2="24.000000"  style="stroke:black; stroke-linecap:round; stroke-width:0.25;"/>
<line x1="113.400000" y1="46.040000" x2="113.400000" y2="24.000000"  style="stroke:black; stroke-linecap:round; stroke-width:0.25;"/>
<line x1="113.400000" y1="46.040000" x2="113.400000" y2="46.040000"  style="stroke:black; stroke-linecap:round; stroke-width:0.25;"/>
<line x1="121.400000" y1="24.000000" x2="147.400000" y2="24.000000"  style="stroke:black; stroke-linecap:round; stroke-width:0.25;"/>
<line x1="147.400000" y1="24.000000" x2="173.400000" y2="24.000000"  style="stroke:black; stroke-linecap:round; stroke-width:0.25;"/>
<line x1="159.400000" y1="54.000000" x2="163.400000" y2="54.000000"  style="stroke:black; stroke-linecap:round; stroke-width:0.25;"/>
<line x1="163.400000" y1="54.000000" x2="173.400000" y2="54.000000"  style="stroke:black; stroke-linecap:round; stroke-width:0.25;"/>
<line x1="173.400000" y1="24.000000" x2="181.400000" y2="24.000000"  style="stroke:black; stroke-linecap:round; stroke-width:0.25;"/>
<line x1="173.400000" y1="54.000000" x2="181.400000" y2="54.000000"  style="stroke:black; stroke-linecap:round; stroke-width:0.25;"/>
<line x1="181.400000" y1="24.000000" x2="181.400000" y2="46.000000"  style="stroke:black; stroke-linecap:round; stroke-width:0.25;"/>
<line x1="181.400000" y1="46.000000" x2="181.400000" y2="46.000000"  style="stroke:black; stroke-linecap:round; stroke-width:0.25;"/>
<line x1="181.400000" y1="46.000000" x2="185.400000" y2="46.000000"  style="stroke:black; stroke-linecap:round; stroke-width:0.25;"/>
<line x1="181.400000" y1="54.000000" x2="185.400000" y2="54.000000"  style="stroke:black; stroke-linecap:round; stroke-width:0.25;"/>
<line x1="209.400000" y1="50.000000" x2="213.400000" y2="50.000000"  style="stroke:black; stroke-linecap:round; stroke-width:0.25;"/>
<line x1="213.400000" y1="50.000000" x2="221.400000" y2="50.000000"  style="stroke:black; stroke-linecap:round; stroke-width:0.25;"/>
<line x1="221.400000" y1="50.000000" x2="221.400000" y2="50.040000"  style="stroke:black; stroke-linecap:round; stroke-width:0.25;"/>
<line x1="221.400000" y1="50.040000" x2="221.400000" y2="50.040000"  style="stroke:black; stroke-linecap:round; stroke-width:0.25;"/>
<line x1="221.400000" y1="50.040000" x2="225.400000" y2="50.040000"  style="stroke:black; stroke-linecap:round; stroke-width:0.25;"/>
<line x1="225.400000" y1="50.040000" x2="229.400000" y2="50.040000"  style="stroke:black; stroke-linecap:round; stroke-width:0.25;"/>
<line x1="229.400000" y1="50.040000" x2="239.400000" y2="50.040000"  style="stroke:black; stroke-linecap:round; stroke-width:0.25;"/>
</svg>
