<?xml version="1.0"?>
<svg xmlns="http://www.w3.org/2000/svg" xmlns:xlink="http://www.w3.org/1999/xlink" viewBox="0 0 239.000000 172.000000" width="119.500000mm" height="86.000000mm" version="1.1">
<a xlink:href="pospass-0x7fe9ef357b90.svg">
<rect x="1.000000" y="1.000000" width="238.000000" height="171.000000" rx="0" ry="0" style="stroke:none;fill:#cccccc;"/>
<rect x="0.000000" y="0.000000" width="238.000000" height="171.000000" rx="0" ry="0" style="stroke:none;fill:#ffffff;"/>
</a>
<text x="10.000000" y="7.000000" font-family="Arial" font-size="7"></text>
<a xlink:href="c-0x7fe9ef40b7e0.svg">
<rect x="106.000000" y="33.000000" width="24.000000" height="24.000000" rx="0" ry="0" style="stroke:none;fill:#cccccc;"/>
<rect x="105.000000" y="32.000000" width="24.000000" height="24.000000" rx="0" ry="0" style="stroke:none;fill:#003366;"/>
</a>
<a xlink:href="c-0x7fe9ef40b7e0.svg">
<text x="117.000000" y="46.000000" font-family="Arial" font-size="7" text-anchor="middle" fill="#FFFFFF">c</text>
</a>
<circle cx="107.000000" cy="34.000000" r="1"/>
<rect x="146.000000" y="29.000000" width="24.000000" height="24.000000" rx="0" ry="0" style="stroke:none;fill:#cccccc;"/>
<rect x="145.000000" y="28.000000" width="24.000000" height="24.000000" rx="0" ry="0" style="stroke:none;fill:#4B71A1;"/>
<text x="157.000000" y="42.000000" font-family="Arial" font-size="7" text-anchor="middle" fill="#FFFFFF">*</text>
<circle cx="147.000000" cy="30.000000" r="1"/>
<line x1="142.000000" y1="35.000000" x2="145.000000" y2="36.000000"  transform="rotate(0.000000,145.000000,36.000000)" style="stroke: black; stroke-width:0.25;"/>
<line x1="142.000000" y1="37.000000" x2="145.000000" y2="36.000000"  transform="rotate(0.000000,145.000000,36.000000)" style="stroke: black; stroke-width:0.25;"/>
<line x1="142.000000" y1="43.000000" x2="145.000000" y2="44.000000"  transform="rotate(0.000000,145.000000,44.000000)" style="stroke: black; stroke-width:0.25;"/>
<line x1="142.000000" y1="45.000000" x2="145.000000" y2="44.000000"  transform="rotate(0.000000,145.000000,44.000000)" style="stroke: black; stroke-width:0.25;"/>
<rect x="86.000000" y="83.000000" width="24.000000" height="24.000000" rx="0" ry="0" style="stroke:none;fill:#cccccc;"/>
<rect x="85.000000" y="82.000000" width="24.000000" height="24.000000" rx="0" ry="0" style="stroke:none;fill:#f44800;"/>
<text x="97.000000" y="96.000000" font-family="Arial" font-size="7" text-anchor="middle" fill="#FFFFFF">0</text>
<circle cx="87.000000" cy="84.000000" r="1"/>
<line x1="76.000000" y1="73.000000" x2="76.000000" y2="115.000000"  style="stroke: black; stroke-linecap:round; stroke-width:0.25; stroke-dasharray:3,3;"/>
<line x1="76.000000" y1="115.000000" x2="118.000000" y2="115.000000"  style="stroke: black; stroke-linecap:round; stroke-width:0.25; stroke-dasharray:3,3;"/>
<line x1="118.000000" y1="115.000000" x2="118.000000" y2="73.000000"  style="stroke: black; stroke-linecap:round; stroke-width:0.25; stroke-dasharray:3,3;"/>
<line x1="76.000000" y1="73.000000" x2="81.000000" y2="73.000000"  style="stroke: black; stroke-linecap:round; stroke-width:0.25; stroke-dasharray:3,3;"/>
<line x1="106.800000" y1="73.000000" x2="118.000000" y2="73.000000"  style="stroke: black; stroke-linecap:round; stroke-width:0.25; stroke-dasharray:3,3;"/>
<text x="81.000000" y="75.000000" font-family="Arial" font-size="7">parity</text>
<a xlink:href="s-0x7fe9ef40cbf0.svg">
<rect x="86.000000" y="125.000000" width="24.000000" height="24.000000" rx="0" ry="0" style="stroke:none;fill:#cccccc;"/>
<rect x="85.000000" y="124.000000" width="24.000000" height="24.000000" rx="0" ry="0" style="stroke:none;fill:#003366;"/>
</a>
<a xlink:href="s-0x7fe9ef40cbf0.svg">
<text x="97.000000" y="138.000000" font-family="Arial" font-size="7" text-anchor="middle" fill="#FFFFFF">s</text>
</a>
<circle cx="87.000000" cy="126.000000" r="1"/>
<rect x="136.000000" y="99.000000" width="24.000000" height="24.000000" rx="0" ry="0" style="stroke:none;fill:#cccccc;"/>
<rect x="135.000000" y="98.000000" width="24.000000" height="24.000000" rx="0" ry="0" style="stroke:none;fill:#4B71A1;"/>
<text x="147.000000" y="112.000000" font-family="Arial" font-size="7" text-anchor="middle" fill="#FFFFFF">-</text>
<circle cx="137.000000" cy="100.000000" r="1"/>
<line x1="132.000000" y1="105.000000" x2="135.000000" y2="106.000000"  transform="rotate(0.000000,135.000000,106.000000)" style="stroke: black; stroke-width:0.25;"/>
<line x1="132.000000" y1="107.000000" x2="135.000000" y2="106.000000"  transform="rotate(0.000000,135.000000,106.000000)" style="stroke: black; stroke-width:0.25;"/>
<line x1="132.000000" y1="113.000000" x2="135.000000" y2="114.000000"  transform="rotate(0.000000,135.000000,114.000000)" style="stroke: black; stroke-width:0.25;"/>
<line x1="132.000000" y1="115.000000" x2="135.000000" y2="114.000000"  transform="rotate(0.000000,135.000000,114.000000)" style="stroke: black; stroke-width:0.25;"/>
<rect x="176.000000" y="95.000000" width="24.000000" height="24.000000" rx="0" ry="0" style="stroke:none;fill:#cccccc;"/>
<rect x="175.000000" y="94.000000" width="24.000000" height="24.000000" rx="0" ry="0" style="stroke:none;fill:#4B71A1;"/>
<text x="187.000000" y="108.000000" font-family="Arial" font-size="7" text-anchor="middle" fill="#FFFFFF">*</text>
<circle cx="177.000000" cy="96.000000" r="1"/>
<line x1="172.000000" y1="101.000000" x2="175.000000" y2="102.000000"  transform="rotate(0.000000,175.000000,102.000000)" style="stroke: black; stroke-width:0.25;"/>
<line x1="172.000000" y1="103.000000" x2="175.000000" y2="102.000000"  transform="rotate(0.000000,175.000000,102.000000)" style="stroke: black; stroke-width:0.25;"/>
<line x1="172.000000" y1="109.000000" x2="175.000000" y2="110.000000"  transform="rotate(0.000000,175.000000,110.000000)" style="stroke: black; stroke-width:0.25;"/>
<line x1="172.000000" y1="111.000000" x2="175.000000" y2="110.000000"  transform="rotate(0.000000,175.000000,110.000000)" style="stroke: black; stroke-width:0.25;"/>
<line x1="15.000000" y1="15.000000" x2="15.000000" y2="157.000000"  style="stroke: black; stroke-linecap:round; stroke-width:0.25; stroke-dasharray:3,3;"/>
<line x1="15.000000" y1="157.000000" x2="224.000000" y2="157.000000"  style="stroke: black; stroke-linecap:round; stroke-width:0.25; stroke-dasharray:3,3;"/>
<line x1="224.000000" y1="157.000000" x2="224.000000" y2="15.000000"  style="stroke: black; stroke-linecap:round; stroke-width:0.25; stroke-dasharray:3,3;"/>
<line x1="15.000000" y1="15.000000" x2="20.000000" y2="15.000000"  style="stroke: black; stroke-linecap:round; stroke-width:0.25; stroke-dasharray:3,3;"/>
<line x1="58.700000" y1="15.000000" x2="224.000000" y2="15.000000"  style="stroke: black; stroke-linecap:round; stroke-width:0.25; stroke-dasharray:3,3;"/>
<text x="20.000000" y="17.000000" font-family="Arial" font-size="7">unmodulate</text>
<line x1="226.000000" y1="81.000000" x2="229.000000" y2="82.000000"  transform="rotate(0.000000,229.000000,82.000000)" style="stroke: black; stroke-width:0.25;"/>
<line x1="226.000000" y1="83.000000" x2="229.000000" y2="82.000000"  transform="rotate(0.000000,229.000000,82.000000)" style="stroke: black; stroke-width:0.25;"/>
<line x1="226.000000" y1="89.000000" x2="229.000000" y2="90.000000"  transform="rotate(0.000000,229.000000,90.000000)" style="stroke: black; stroke-width:0.25;"/>
<line x1="226.000000" y1="91.000000" x2="229.000000" y2="90.000000"  transform="rotate(0.000000,229.000000,90.000000)" style="stroke: black; stroke-width:0.25;"/>
<line x1="10.000000" y1="86.000000" x2="20.000000" y2="86.000000"  style="stroke:black; stroke-linecap:round; stroke-width:0.25;"/>
<line x1="20.000000" y1="86.000000" x2="24.000000" y2="86.000000"  style="stroke:black; stroke-linecap:round; stroke-width:0.25;"/>
<line x1="24.000000" y1="86.000000" x2="28.000000" y2="86.000000"  style="stroke:black; stroke-linecap:round; stroke-width:0.25;"/>
<line x1="28.000000" y1="86.000000" x2="28.000000" y2="86.000000"  style="stroke:black; stroke-linecap:round; stroke-width:0.25;"/>
<line x1="28.000000" y1="86.000000" x2="32.000000" y2="86.000000"  style="stroke:black; stroke-linecap:round; stroke-width:0.25;"/>
<line x1="32.000000" y1="86.000000" x2="36.000000" y2="86.000000"  style="stroke:black; stroke-linecap:round; stroke-width:0.25;"/>
<line x1="36.000000" y1="86.000000" x2="71.000000" y2="24.000000"  style="stroke:black; stroke-linecap:round; stroke-width:0.25;"/>
<line x1="36.000000" y1="86.000000" x2="71.000000" y2="64.000000"  style="stroke:black; stroke-linecap:round; stroke-width:0.25;"/>
<line x1="71.000000" y1="24.000000" x2="101.000000" y2="24.000000"  style="stroke:black; stroke-linecap:round; stroke-width:0.25;"/>
<line x1="71.000000" y1="64.000000" x2="117.000000" y2="64.000000"  style="stroke:black; stroke-linecap:round; stroke-width:0.25;"/>
<line x1="101.000000" y1="24.000000" x2="117.000000" y2="24.000000"  style="stroke:black; stroke-linecap:round; stroke-width:0.25;"/>
<line x1="109.000000" y1="94.000000" x2="113.000000" y2="94.000000"  style="stroke:black; stroke-linecap:round; stroke-width:0.25;"/>
<line x1="109.000000" y1="136.000000" x2="113.000000" y2="136.000000"  style="stroke:black; stroke-linecap:round; stroke-width:0.25;"/>
<line x1="113.000000" y1="94.000000" x2="123.000000" y2="94.000000"  style="stroke:black; stroke-linecap:round; stroke-width:0.25;"/>
<line x1="113.000000" y1="136.000000" x2="123.000000" y2="136.000000"  style="stroke:black; stroke-linecap:round; stroke-width:0.25;"/>
<line x1="117.000000" y1="24.000000" x2="133.000000" y2="24.000000"  style="stroke:black; stroke-linecap:round; stroke-width:0.25;"/>
<line x1="117.000000" y1="64.000000" x2="163.000000" y2="64.000000"  style="stroke:black; stroke-linecap:round; stroke-width:0.25;"/>
<line x1="123.000000" y1="94.000000" x2="131.000000" y2="94.000000"  style="stroke:black; stroke-linecap:round; stroke-width:0.25;"/>
<line x1="123.000000" y1="114.000000" x2="131.000000" y2="114.000000"  style="stroke:black; stroke-linecap:round; stroke-width:0.25;"/>
<line x1="123.000000" y1="136.000000" x2="123.000000" y2="114.000000"  style="stroke:black; stroke-linecap:round; stroke-width:0.25;"/>
<line x1="123.000000" y1="136.000000" x2="123.000000" y2="136.000000"  style="stroke:black; stroke-linecap:round; stroke-width:0.25;"/>
<line x1="129.000000" y1="44.000000" x2="133.000000" y2="44.000000"  style="stroke:black; stroke-linecap:round; stroke-width:0.25;"/>
<line x1="131.000000" y1="94.000000" x2="131.000000" y2="106.000000"  style="stroke:black; stroke-linecap:round; stroke-width:0.25;"/>
<line x1="131.000000" y1="106.000000" x2="131.000000" y2="106.000000"  style="stroke:black; stroke-linecap:round; stroke-width:0.25;"/>
<line x1="131.000000" y1="106.000000" x2="135.000000" y2="106.000000"  style="stroke:black; stroke-linecap:round; stroke-width:0.25;"/>
<line x1="131.000000" y1="114.000000" x2="135.000000" y2="114.000000"  style="stroke:black; stroke-linecap:round; stroke-width:0.25;"/>
<line x1="133.000000" y1="24.000000" x2="141.000000" y2="24.000000"  style="stroke:black; stroke-linecap:round; stroke-width:0.25;"/>
<line x1="133.000000" y1="44.000000" x2="141.000000" y2="44.000000"  style="stroke:black; stroke-linecap:round; stroke-width:0.25;"/>
<line x1="141.000000" y1="24.000000" x2="141.000000" y2="36.000000"  style="stroke:black; stroke-linecap:round; stroke-width:0.25;"/>
<line x1="141.000000" y1="36.000000" x2="141.000000" y2="36.000000"  style="stroke:black; stroke-linecap:round; stroke-width:0.25;"/>
<line x1="141.000000" y1="36.000000" x2="145.000000" y2="36.000000"  style="stroke:black; stroke-linecap:round; stroke-width:0.25;"/>
<line x1="141.000000" y1="44.000000" x2="145.000000" y2="44.000000"  style="stroke:black; stroke-linecap:round; stroke-width:0.25;"/>
<line x1="159.000000" y1="110.000000" x2="163.000000" y2="110.000000"  style="stroke:black; stroke-linecap:round; stroke-width:0.25;"/>
<line x1="163.000000" y1="64.000000" x2="171.000000" y2="64.000000"  style="stroke:black; stroke-linecap:round; stroke-width:0.25;"/>
<line x1="163.000000" y1="110.000000" x2="171.000000" y2="110.000000"  style="stroke:black; stroke-linecap:round; stroke-width:0.25;"/>
<line x1="169.000000" y1="40.000000" x2="173.000000" y2="40.000000"  style="stroke:black; stroke-linecap:round; stroke-width:0.25;"/>
<line x1="171.000000" y1="64.000000" x2="171.000000" y2="102.000000"  style="stroke:black; stroke-linecap:round; stroke-width:0.25;"/>
<line x1="171.000000" y1="102.000000" x2="171.000000" y2="102.000000"  style="stroke:black; stroke-linecap:round; stroke-width:0.25;"/>
<line x1="171.000000" y1="102.000000" x2="175.000000" y2="102.000000"  style="stroke:black; stroke-linecap:round; stroke-width:0.25;"/>
<line x1="171.000000" y1="110.000000" x2="175.000000" y2="110.000000"  style="stroke:black; stroke-linecap:round; stroke-width:0.25;"/>
<line x1="173.000000" y1="40.000000" x2="203.000000" y2="40.000000"  style="stroke:black; stroke-linecap:round; stroke-width:0.25;"/>
<line x1="199.000000" y1="106.000000" x2="203.000000" y2="106.000000"  style="stroke:black; stroke-linecap:round; stroke-width:0.25;"/>
<line x1="203.000000" y1="40.000000" x2="211.000000" y2="40.000000"  style="stroke:black; stroke-linecap:round; stroke-width:0.25;"/>
<line x1="203.000000" y1="90.000000" x2="211.000000" y2="90.000000"  style="stroke:black; stroke-linecap:round; stroke-width:0.25;"/>
<line x1="203.000000" y1="106.000000" x2="203.000000" y2="90.000000"  style="stroke:black; stroke-linecap:round; stroke-width:0.25;"/>
<line x1="203.000000" y1="106.000000" x2="203.000000" y2="106.000000"  style="stroke:black; stroke-linecap:round; stroke-width:0.25;"/>
<line x1="211.000000" y1="40.000000" x2="211.000000" y2="82.000000"  style="stroke:black; stroke-linecap:round; stroke-width:0.25;"/>
<line x1="211.000000" y1="82.000000" x2="211.000000" y2="82.000000"  style="stroke:black; stroke-linecap:round; stroke-width:0.25;"/>
<line x1="211.000000" y1="82.000000" x2="215.000000" y2="82.000000"  style="stroke:black; stroke-linecap:round; stroke-width:0.25;"/>
<line x1="211.000000" y1="90.000000" x2="215.000000" y2="90.000000"  style="stroke:black; stroke-linecap:round; stroke-width:0.25;"/>
<line x1="215.000000" y1="82.000000" x2="219.000000" y2="82.000000"  style="stroke:black; stroke-linecap:round; stroke-width:0.25;"/>
<line x1="215.000000" y1="90.000000" x2="219.000000" y2="90.000000"  style="stroke:black; stroke-linecap:round; stroke-width:0.25;"/>
<line x1="219.000000" y1="82.000000" x2="229.000000" y2="82.000000"  style="stroke:black; stroke-linecap:round; stroke-width:0.25;"/>
<line x1="219.000000" y1="90.000000" x2="229.000000" y2="90.000000"  style="stroke:black; stroke-linecap:round; stroke-width:0.25;"/>
</svg>
