<?xml version="1.0"?>
<svg xmlns="http://www.w3.org/2000/svg" xmlns:xlink="http://www.w3.org/1999/xlink" viewBox="0 0 1255.200000 72.000000" width="627.600000mm" height="36.000000mm" version="1.1">
<a xlink:href="process.svg">
<rect x="0.000000" y="0.000000" width="1254.200000" height="71.000000" rx="0" ry="0" style="stroke:#000000;fill:#FFFFFF;"/>
</a>
<text x="10.000000" y="7.000000" font-family="Verdana" font-size="7"></text>
<a xlink:href="apfv-0x60000230f840.svg">
<rect x="32.000000" y="24.000000" width="129.000000" height="24.000000" rx="0" ry="0" style="stroke:#000000;fill:#FFFFFF;"/>
</a>
<a xlink:href="apfv-0x60000230f840.svg">
<text x="96.500000" y="38.000000" font-family="Verdana" font-size="7" text-anchor="middle" fill="#000000">apfv(1.92e+05...(0.70710677f)</text>
</a>
<circle cx="34.000000" cy="26.000000" r="1"/>
<line x1="29.000000" y1="35.000000" x2="32.000000" y2="36.000000"  transform="rotate(0.000000,32.000000,36.000000)" style="stroke: black; stroke-width:0.25;"/>
<line x1="29.000000" y1="37.000000" x2="32.000000" y2="36.000000"  transform="rotate(0.000000,32.000000,36.000000)" style="stroke: black; stroke-width:0.25;"/>
<a xlink:href="apfv-0x600002301680.svg">
<rect x="169.000000" y="24.000000" width="129.000000" height="24.000000" rx="0" ry="0" style="stroke:#000000;fill:#FFFFFF;"/>
</a>
<a xlink:href="apfv-0x600002301680.svg">
<text x="233.500000" y="38.000000" font-family="Verdana" font-size="7" text-anchor="middle" fill="#000000">apfv(1.92e+05...(0.72547626f)</text>
</a>
<circle cx="171.000000" cy="26.000000" r="1"/>
<line x1="166.000000" y1="35.000000" x2="169.000000" y2="36.000000"  transform="rotate(0.000000,169.000000,36.000000)" style="stroke: black; stroke-width:0.25;"/>
<line x1="166.000000" y1="37.000000" x2="169.000000" y2="36.000000"  transform="rotate(0.000000,169.000000,36.000000)" style="stroke: black; stroke-width:0.25;"/>
<a xlink:href="apfv-0x600002303450.svg">
<rect x="306.000000" y="24.000000" width="129.000000" height="24.000000" rx="0" ry="0" style="stroke:#000000;fill:#FFFFFF;"/>
</a>
<a xlink:href="apfv-0x600002303450.svg">
<text x="370.500000" y="38.000000" font-family="Verdana" font-size="7" text-anchor="middle" fill="#000000">apfv(1.92e+05...(0.74535596f)</text>
</a>
<circle cx="308.000000" cy="26.000000" r="1"/>
<line x1="303.000000" y1="35.000000" x2="306.000000" y2="36.000000"  transform="rotate(0.000000,306.000000,36.000000)" style="stroke: black; stroke-width:0.25;"/>
<line x1="303.000000" y1="37.000000" x2="306.000000" y2="36.000000"  transform="rotate(0.000000,306.000000,36.000000)" style="stroke: black; stroke-width:0.25;"/>
<a xlink:href="apfv-0x600002305290.svg">
<rect x="443.000000" y="24.000000" width="180.600000" height="24.000000" rx="0" ry="0" style="stroke:#000000;fill:#FFFFFF;"/>
</a>
<a xlink:href="apfv-0x600002305290.svg">
<text x="533.300000" y="38.000000" font-family="Verdana" font-size="7" text-anchor="middle" fill="#000000">apfv(1.92e+05...,&quot;&quot;),1 : max)(0.766965f)</text>
</a>
<circle cx="445.000000" cy="26.000000" r="1"/>
<line x1="440.000000" y1="35.000000" x2="443.000000" y2="36.000000"  transform="rotate(0.000000,443.000000,36.000000)" style="stroke: black; stroke-width:0.25;"/>
<line x1="440.000000" y1="37.000000" x2="443.000000" y2="36.000000"  transform="rotate(0.000000,443.000000,36.000000)" style="stroke: black; stroke-width:0.25;"/>
<a xlink:href="apfv-0x600002307060.svg">
<rect x="631.600000" y="24.000000" width="129.000000" height="24.000000" rx="0" ry="0" style="stroke:#000000;fill:#FFFFFF;"/>
</a>
<a xlink:href="apfv-0x600002307060.svg">
<text x="696.100000" y="38.000000" font-family="Verdana" font-size="7" text-anchor="middle" fill="#000000">apfv(1.92e+05...)(0.7905694f)</text>
</a>
<circle cx="633.600000" cy="26.000000" r="1"/>
<line x1="628.600000" y1="35.000000" x2="631.600000" y2="36.000000"  transform="rotate(0.000000,631.600000,36.000000)" style="stroke: black; stroke-width:0.25;"/>
<line x1="628.600000" y1="37.000000" x2="631.600000" y2="36.000000"  transform="rotate(0.000000,631.600000,36.000000)" style="stroke: black; stroke-width:0.25;"/>
<a xlink:href="apfv-0x6000023f8f30.svg">
<rect x="768.600000" y="24.000000" width="129.000000" height="24.000000" rx="0" ry="0" style="stroke:#000000;fill:#FFFFFF;"/>
</a>
<a xlink:href="apfv-0x6000023f8f30.svg">
<text x="833.100000" y="38.000000" font-family="Verdana" font-size="7" text-anchor="middle" fill="#000000">apfv(1.92e+05...)(0.8164966f)</text>
</a>
<circle cx="770.600000" cy="26.000000" r="1"/>
<line x1="765.600000" y1="35.000000" x2="768.600000" y2="36.000000"  transform="rotate(0.000000,768.600000,36.000000)" style="stroke: black; stroke-width:0.25;"/>
<line x1="765.600000" y1="37.000000" x2="768.600000" y2="36.000000"  transform="rotate(0.000000,768.600000,36.000000)" style="stroke: black; stroke-width:0.25;"/>
<a xlink:href="apfv-0x6000023faeb0.svg">
<rect x="905.600000" y="24.000000" width="129.000000" height="24.000000" rx="0" ry="0" style="stroke:#000000;fill:#FFFFFF;"/>
</a>
<a xlink:href="apfv-0x6000023faeb0.svg">
<text x="970.100000" y="38.000000" font-family="Verdana" font-size="7" text-anchor="middle" fill="#000000">apfv(1.92e+05...)(0.8451542f)</text>
</a>
<circle cx="907.600000" cy="26.000000" r="1"/>
<line x1="902.600000" y1="35.000000" x2="905.600000" y2="36.000000"  transform="rotate(0.000000,905.600000,36.000000)" style="stroke: black; stroke-width:0.25;"/>
<line x1="902.600000" y1="37.000000" x2="905.600000" y2="36.000000"  transform="rotate(0.000000,905.600000,36.000000)" style="stroke: black; stroke-width:0.25;"/>
<a xlink:href="apfv-0x6000023fcea0.svg">
<rect x="1042.600000" y="24.000000" width="180.600000" height="24.000000" rx="0" ry="0" style="stroke:#000000;fill:#FFFFFF;"/>
</a>
<a xlink:href="apfv-0x6000023fcea0.svg">
<text x="1132.900000" y="38.000000" font-family="Verdana" font-size="7" text-anchor="middle" fill="#000000">apfv(1.92e+05...,&quot;&quot;),1 : max)(0.877058f)</text>
</a>
<circle cx="1044.600000" cy="26.000000" r="1"/>
<line x1="1039.600000" y1="35.000000" x2="1042.600000" y2="36.000000"  transform="rotate(0.000000,1042.600000,36.000000)" style="stroke: black; stroke-width:0.25;"/>
<line x1="1039.600000" y1="37.000000" x2="1042.600000" y2="36.000000"  transform="rotate(0.000000,1042.600000,36.000000)" style="stroke: black; stroke-width:0.25;"/>
<line x1="15.000000" y1="15.000000" x2="15.000000" y2="57.000000"  style="stroke: black; stroke-linecap:round; stroke-width:0.25; stroke-dasharray:3,3;"/>
<line x1="15.000000" y1="57.000000" x2="1240.200000" y2="57.000000"  style="stroke: black; stroke-linecap:round; stroke-width:0.25; stroke-dasharray:3,3;"/>
<line x1="1240.200000" y1="57.000000" x2="1240.200000" y2="15.000000"  style="stroke: black; stroke-linecap:round; stroke-width:0.25; stroke-dasharray:3,3;"/>
<line x1="15.000000" y1="15.000000" x2="20.000000" y2="15.000000"  style="stroke: black; stroke-linecap:round; stroke-width:0.25; stroke-dasharray:3,3;"/>
<line x1="139.325000" y1="15.000000" x2="1240.200000" y2="15.000000"  style="stroke: black; stroke-linecap:round; stroke-width:0.25; stroke-dasharray:3,3;"/>
<text x="20.000000" y="17.000000" font-family="Verdana" font-size="7">apfnp(1.92e+0...: max) : min)(2)(3)</text>
<line x1="1242.200000" y1="35.000000" x2="1245.200000" y2="36.000000"  transform="rotate(0.000000,1245.200000,36.000000)" style="stroke: black; stroke-width:0.25;"/>
<line x1="1242.200000" y1="37.000000" x2="1245.200000" y2="36.000000"  transform="rotate(0.000000,1245.200000,36.000000)" style="stroke: black; stroke-width:0.25;"/>
<line x1="10.000000" y1="36.000000" x2="20.000000" y2="36.000000"  style="stroke:black; stroke-linecap:round; stroke-width:0.25;"/>
<line x1="20.000000" y1="36.000000" x2="24.000000" y2="36.000000"  style="stroke:black; stroke-linecap:round; stroke-width:0.25;"/>
<line x1="24.000000" y1="36.000000" x2="28.000000" y2="36.000000"  style="stroke:black; stroke-linecap:round; stroke-width:0.25;"/>
<line x1="28.000000" y1="36.000000" x2="28.000000" y2="36.000000"  style="stroke:black; stroke-linecap:round; stroke-width:0.25;"/>
<line x1="28.000000" y1="36.000000" x2="32.000000" y2="36.000000"  style="stroke:black; stroke-linecap:round; stroke-width:0.25;"/>
<line x1="161.000000" y1="36.000000" x2="165.000000" y2="36.000000"  style="stroke:black; stroke-linecap:round; stroke-width:0.25;"/>
<line x1="165.000000" y1="36.000000" x2="165.000000" y2="36.000000"  style="stroke:black; stroke-linecap:round; stroke-width:0.25;"/>
<line x1="165.000000" y1="36.000000" x2="169.000000" y2="36.000000"  style="stroke:black; stroke-linecap:round; stroke-width:0.25;"/>
<line x1="298.000000" y1="36.000000" x2="302.000000" y2="36.000000"  style="stroke:black; stroke-linecap:round; stroke-width:0.25;"/>
<line x1="302.000000" y1="36.000000" x2="302.000000" y2="36.000000"  style="stroke:black; stroke-linecap:round; stroke-width:0.25;"/>
<line x1="302.000000" y1="36.000000" x2="306.000000" y2="36.000000"  style="stroke:black; stroke-linecap:round; stroke-width:0.25;"/>
<line x1="435.000000" y1="36.000000" x2="439.000000" y2="36.000000"  style="stroke:black; stroke-linecap:round; stroke-width:0.25;"/>
<line x1="439.000000" y1="36.000000" x2="439.000000" y2="36.000000"  style="stroke:black; stroke-linecap:round; stroke-width:0.25;"/>
<line x1="439.000000" y1="36.000000" x2="443.000000" y2="36.000000"  style="stroke:black; stroke-linecap:round; stroke-width:0.25;"/>
<line x1="623.600000" y1="36.000000" x2="627.600000" y2="36.000000"  style="stroke:black; stroke-linecap:round; stroke-width:0.25;"/>
<line x1="627.600000" y1="36.000000" x2="627.600000" y2="36.000000"  style="stroke:black; stroke-linecap:round; stroke-width:0.25;"/>
<line x1="627.600000" y1="36.000000" x2="631.600000" y2="36.000000"  style="stroke:black; stroke-linecap:round; stroke-width:0.25;"/>
<line x1="760.600000" y1="36.000000" x2="764.600000" y2="36.000000"  style="stroke:black; stroke-linecap:round; stroke-width:0.25;"/>
<line x1="764.600000" y1="36.000000" x2="764.600000" y2="36.000000"  style="stroke:black; stroke-linecap:round; stroke-width:0.25;"/>
<line x1="764.600000" y1="36.000000" x2="768.600000" y2="36.000000"  style="stroke:black; stroke-linecap:round; stroke-width:0.25;"/>
<line x1="897.600000" y1="36.000000" x2="901.600000" y2="36.000000"  style="stroke:black; stroke-linecap:round; stroke-width:0.25;"/>
<line x1="901.600000" y1="36.000000" x2="901.600000" y2="36.000000"  style="stroke:black; stroke-linecap:round; stroke-width:0.25;"/>
<line x1="901.600000" y1="36.000000" x2="905.600000" y2="36.000000"  style="stroke:black; stroke-linecap:round; stroke-width:0.25;"/>
<line x1="1034.600000" y1="36.000000" x2="1038.600000" y2="36.000000"  style="stroke:black; stroke-linecap:round; stroke-width:0.25;"/>
<line x1="1038.600000" y1="36.000000" x2="1038.600000" y2="36.000000"  style="stroke:black; stroke-linecap:round; stroke-width:0.25;"/>
<line x1="1038.600000" y1="36.000000" x2="1042.600000" y2="36.000000"  style="stroke:black; stroke-linecap:round; stroke-width:0.25;"/>
<line x1="1223.200000" y1="36.000000" x2="1227.200000" y2="36.000000"  style="stroke:black; stroke-linecap:round; stroke-width:0.25;"/>
<line x1="1227.200000" y1="36.000000" x2="1227.200000" y2="36.000000"  style="stroke:black; stroke-linecap:round; stroke-width:0.25;"/>
<line x1="1227.200000" y1="36.000000" x2="1231.200000" y2="36.000000"  style="stroke:black; stroke-linecap:round; stroke-width:0.25;"/>
<line x1="1231.200000" y1="36.000000" x2="1235.200000" y2="36.000000"  style="stroke:black; stroke-linecap:round; stroke-width:0.25;"/>
<line x1="1235.200000" y1="36.000000" x2="1245.200000" y2="36.000000"  style="stroke:black; stroke-linecap:round; stroke-width:0.25;"/>
</svg>
