<?xml version="1.0"?>
<svg xmlns="http://www.w3.org/2000/svg" xmlns:xlink="http://www.w3.org/1999/xlink" viewBox="0 0 430.300000 252.000000" width="215.150000mm" height="126.000000mm" version="1.1">
<a xlink:href="dflcv-0x60000230f570.svg">
<rect x="0.000000" y="0.000000" width="429.300000" height="251.000000" rx="0" ry="0" style="stroke:#000000;fill:#FFFFFF;"/>
</a>
<text x="10.000000" y="7.000000" font-family="Verdana" font-size="7"></text>
<rect x="32.000000" y="114.000000" width="25.800000" height="24.000000" rx="0" ry="0" style="stroke:#000000;fill:#FFFFFF;"/>
<text x="44.900000" y="128.000000" font-family="Verdana" font-size="7" text-anchor="middle" fill="#000000">[1] x</text>
<circle cx="34.000000" cy="116.000000" r="1"/>
<line x1="29.000000" y1="125.000000" x2="32.000000" y2="126.000000"  transform="rotate(0.000000,32.000000,126.000000)" style="stroke: black; stroke-width:0.25;"/>
<line x1="29.000000" y1="127.000000" x2="32.000000" y2="126.000000"  transform="rotate(0.000000,32.000000,126.000000)" style="stroke: black; stroke-width:0.25;"/>
<rect x="199.150000" y="24.000000" width="25.800000" height="24.000000" rx="0" ry="0" style="stroke:#000000;fill:#FFFFFF;"/>
<text x="212.050000" y="38.000000" font-family="Verdana" font-size="7" text-anchor="middle" fill="#000000">[1] x</text>
<circle cx="201.150000" cy="26.000000" r="1"/>
<a xlink:href="SR-0x6000022946c0.svg">
<rect x="180.050000" y="56.000000" width="24.000000" height="24.000000" rx="0" ry="0" style="stroke:#000000;fill:#FFFFFF;"/>
</a>
<a xlink:href="SR-0x6000022946c0.svg">
<text x="192.050000" y="70.000000" font-family="Verdana" font-size="7" text-anchor="middle" fill="#000000">SR</text>
</a>
<circle cx="182.050000" cy="58.000000" r="1"/>
<rect x="160.050000" y="88.000000" width="24.000000" height="24.000000" rx="0" ry="0" style="stroke:#000000;fill:#FFFFFF;"/>
<text x="172.050000" y="102.000000" font-family="Verdana" font-size="7" text-anchor="middle" fill="#000000">0</text>
<circle cx="162.050000" cy="90.000000" r="1"/>
<rect x="65.800000" y="146.000000" width="25.800000" height="24.000000" rx="0" ry="0" style="stroke:#000000;fill:#FFFFFF;"/>
<text x="78.700000" y="160.000000" font-family="Verdana" font-size="7" text-anchor="middle" fill="#000000">2.0f</text>
<circle cx="67.800000" cy="148.000000" r="1"/>
<rect x="117.600000" y="130.000000" width="38.700000" height="24.000000" rx="0" ry="0" style="stroke:#000000;fill:#FFFFFF;"/>
<text x="136.950000" y="144.000000" font-family="Verdana" font-size="7" text-anchor="middle" fill="#000000">next_pr</text>
<circle cx="119.600000" cy="132.000000" r="1"/>
<line x1="114.600000" y1="141.000000" x2="117.600000" y2="142.000000"  transform="rotate(0.000000,117.600000,142.000000)" style="stroke: black; stroke-width:0.25;"/>
<line x1="114.600000" y1="143.000000" x2="117.600000" y2="142.000000"  transform="rotate(0.000000,117.600000,142.000000)" style="stroke: black; stroke-width:0.25;"/>
<line x1="108.600000" y1="121.000000" x2="108.600000" y2="163.000000"  style="stroke: black; stroke-linecap:round; stroke-width:0.25; stroke-dasharray:3,3;"/>
<line x1="108.600000" y1="163.000000" x2="165.300000" y2="163.000000"  style="stroke: black; stroke-linecap:round; stroke-width:0.25; stroke-dasharray:3,3;"/>
<line x1="165.300000" y1="163.000000" x2="165.300000" y2="121.000000"  style="stroke: black; stroke-linecap:round; stroke-width:0.25; stroke-dasharray:3,3;"/>
<line x1="108.600000" y1="121.000000" x2="113.600000" y2="121.000000"  style="stroke: black; stroke-linecap:round; stroke-width:0.25; stroke-dasharray:3,3;"/>
<line x1="126.500000" y1="121.000000" x2="165.300000" y2="121.000000"  style="stroke: black; stroke-linecap:round; stroke-width:0.25; stroke-dasharray:3,3;"/>
<text x="113.600000" y="123.000000" font-family="Verdana" font-size="7">np</text>
<rect x="124.950000" y="172.000000" width="24.000000" height="24.000000" rx="0" ry="0" style="stroke:#000000;fill:#FFFFFF;"/>
<text x="136.950000" y="186.000000" font-family="Verdana" font-size="7" text-anchor="middle" fill="#000000">1</text>
<circle cx="126.950000" cy="174.000000" r="1"/>
<rect x="182.300000" y="146.000000" width="24.000000" height="24.000000" rx="0" ry="0" style="stroke:#000000;fill:#FFFFFF;"/>
<text x="194.300000" y="160.000000" font-family="Verdana" font-size="7" text-anchor="middle" fill="#000000">max</text>
<circle cx="184.300000" cy="148.000000" r="1"/>
<line x1="179.300000" y1="153.000000" x2="182.300000" y2="154.000000"  transform="rotate(0.000000,182.300000,154.000000)" style="stroke: black; stroke-width:0.25;"/>
<line x1="179.300000" y1="155.000000" x2="182.300000" y2="154.000000"  transform="rotate(0.000000,182.300000,154.000000)" style="stroke: black; stroke-width:0.25;"/>
<line x1="179.300000" y1="161.000000" x2="182.300000" y2="162.000000"  transform="rotate(0.000000,182.300000,162.000000)" style="stroke: black; stroke-width:0.25;"/>
<line x1="179.300000" y1="163.000000" x2="182.300000" y2="162.000000"  transform="rotate(0.000000,182.300000,162.000000)" style="stroke: black; stroke-width:0.25;"/>
<rect x="124.050000" y="204.000000" width="24.000000" height="24.000000" rx="0" ry="0" style="stroke:#000000;fill:#FFFFFF;"/>
<text x="136.050000" y="218.000000" font-family="Verdana" font-size="7" text-anchor="middle" fill="#000000">1</text>
<circle cx="126.050000" cy="206.000000" r="1"/>
<rect x="222.300000" y="162.000000" width="24.000000" height="24.000000" rx="0" ry="0" style="stroke:#000000;fill:#FFFFFF;"/>
<text x="234.300000" y="176.000000" font-family="Verdana" font-size="7" text-anchor="middle" fill="#000000">-</text>
<circle cx="224.300000" cy="164.000000" r="1"/>
<line x1="219.300000" y1="169.000000" x2="222.300000" y2="170.000000"  transform="rotate(0.000000,222.300000,170.000000)" style="stroke: black; stroke-width:0.25;"/>
<line x1="219.300000" y1="171.000000" x2="222.300000" y2="170.000000"  transform="rotate(0.000000,222.300000,170.000000)" style="stroke: black; stroke-width:0.25;"/>
<line x1="219.300000" y1="177.000000" x2="222.300000" y2="178.000000"  transform="rotate(0.000000,222.300000,178.000000)" style="stroke: black; stroke-width:0.25;"/>
<line x1="219.300000" y1="179.000000" x2="222.300000" y2="178.000000"  transform="rotate(0.000000,222.300000,178.000000)" style="stroke: black; stroke-width:0.25;"/>
<rect x="254.300000" y="162.000000" width="24.000000" height="24.000000" rx="0" ry="0" style="stroke:#000000;fill:#FFFFFF;"/>
<text x="266.300000" y="176.000000" font-family="Verdana" font-size="7" text-anchor="middle" fill="#000000">int</text>
<circle cx="256.300000" cy="164.000000" r="1"/>
<line x1="251.300000" y1="173.000000" x2="254.300000" y2="174.000000"  transform="rotate(0.000000,254.300000,174.000000)" style="stroke: black; stroke-width:0.25;"/>
<line x1="251.300000" y1="175.000000" x2="254.300000" y2="174.000000"  transform="rotate(0.000000,254.300000,174.000000)" style="stroke: black; stroke-width:0.25;"/>
<rect x="294.300000" y="146.000000" width="24.000000" height="24.000000" rx="0" ry="0" style="stroke:#000000;fill:#FFFFFF;"/>
<text x="306.300000" y="160.000000" font-family="Verdana" font-size="7" text-anchor="middle" fill="#000000">max</text>
<circle cx="296.300000" cy="148.000000" r="1"/>
<line x1="291.300000" y1="153.000000" x2="294.300000" y2="154.000000"  transform="rotate(0.000000,294.300000,154.000000)" style="stroke: black; stroke-width:0.25;"/>
<line x1="291.300000" y1="155.000000" x2="294.300000" y2="154.000000"  transform="rotate(0.000000,294.300000,154.000000)" style="stroke: black; stroke-width:0.25;"/>
<line x1="291.300000" y1="161.000000" x2="294.300000" y2="162.000000"  transform="rotate(0.000000,294.300000,162.000000)" style="stroke: black; stroke-width:0.25;"/>
<line x1="291.300000" y1="163.000000" x2="294.300000" y2="162.000000"  transform="rotate(0.000000,294.300000,162.000000)" style="stroke: black; stroke-width:0.25;"/>
<rect x="334.300000" y="130.000000" width="24.000000" height="24.000000" rx="0" ry="0" style="stroke:#000000;fill:#FFFFFF;"/>
<text x="346.300000" y="144.000000" font-family="Verdana" font-size="7" text-anchor="middle" fill="#000000">min</text>
<circle cx="336.300000" cy="132.000000" r="1"/>
<line x1="331.300000" y1="137.000000" x2="334.300000" y2="138.000000"  transform="rotate(0.000000,334.300000,138.000000)" style="stroke: black; stroke-width:0.25;"/>
<line x1="331.300000" y1="139.000000" x2="334.300000" y2="138.000000"  transform="rotate(0.000000,334.300000,138.000000)" style="stroke: black; stroke-width:0.25;"/>
<line x1="331.300000" y1="145.000000" x2="334.300000" y2="146.000000"  transform="rotate(0.000000,334.300000,146.000000)" style="stroke: black; stroke-width:0.25;"/>
<line x1="331.300000" y1="147.000000" x2="334.300000" y2="146.000000"  transform="rotate(0.000000,334.300000,146.000000)" style="stroke: black; stroke-width:0.25;"/>
<rect x="374.300000" y="114.000000" width="24.000000" height="24.000000" rx="0" ry="0" style="stroke:#000000;fill:#FFFFFF;"/>
<text x="386.300000" y="128.000000" font-family="Verdana" font-size="7" text-anchor="middle" fill="#000000">@</text>
<circle cx="376.300000" cy="116.000000" r="1"/>
<line x1="371.300000" y1="121.000000" x2="374.300000" y2="122.000000"  transform="rotate(0.000000,374.300000,122.000000)" style="stroke: black; stroke-width:0.25;"/>
<line x1="371.300000" y1="123.000000" x2="374.300000" y2="122.000000"  transform="rotate(0.000000,374.300000,122.000000)" style="stroke: black; stroke-width:0.25;"/>
<line x1="371.300000" y1="129.000000" x2="374.300000" y2="130.000000"  transform="rotate(0.000000,374.300000,130.000000)" style="stroke: black; stroke-width:0.25;"/>
<line x1="371.300000" y1="131.000000" x2="374.300000" y2="130.000000"  transform="rotate(0.000000,374.300000,130.000000)" style="stroke: black; stroke-width:0.25;"/>
<line x1="15.000000" y1="15.000000" x2="15.000000" y2="237.000000"  style="stroke: black; stroke-linecap:round; stroke-width:0.25; stroke-dasharray:3,3;"/>
<line x1="15.000000" y1="237.000000" x2="415.300000" y2="237.000000"  style="stroke: black; stroke-linecap:round; stroke-width:0.25; stroke-dasharray:3,3;"/>
<line x1="415.300000" y1="237.000000" x2="415.300000" y2="15.000000"  style="stroke: black; stroke-linecap:round; stroke-width:0.25; stroke-dasharray:3,3;"/>
<line x1="15.000000" y1="15.000000" x2="20.000000" y2="15.000000"  style="stroke: black; stroke-linecap:round; stroke-width:0.25; stroke-dasharray:3,3;"/>
<line x1="119.975000" y1="15.000000" x2="415.300000" y2="15.000000"  style="stroke: black; stroke-linecap:round; stroke-width:0.25; stroke-dasharray:3,3;"/>
<text x="20.000000" y="17.000000" font-family="Verdana" font-size="7">delay(1.92e+0...,1 : - : int)</text>
<line x1="417.300000" y1="125.000000" x2="420.300000" y2="126.000000"  transform="rotate(0.000000,420.300000,126.000000)" style="stroke: black; stroke-width:0.25;"/>
<line x1="417.300000" y1="127.000000" x2="420.300000" y2="126.000000"  transform="rotate(0.000000,420.300000,126.000000)" style="stroke: black; stroke-width:0.25;"/>
<line x1="10.000000" y1="126.000000" x2="20.000000" y2="126.000000"  style="stroke:black; stroke-linecap:round; stroke-width:0.25;"/>
<line x1="20.000000" y1="126.000000" x2="24.000000" y2="126.000000"  style="stroke:black; stroke-linecap:round; stroke-width:0.25;"/>
<line x1="24.000000" y1="126.000000" x2="28.000000" y2="126.000000"  style="stroke:black; stroke-linecap:round; stroke-width:0.25;"/>
<line x1="28.000000" y1="126.000000" x2="28.000000" y2="126.000000"  style="stroke:black; stroke-linecap:round; stroke-width:0.25;"/>
<line x1="28.000000" y1="126.000000" x2="32.000000" y2="126.000000"  style="stroke:black; stroke-linecap:round; stroke-width:0.25;"/>
<line x1="91.600000" y1="158.000000" x2="95.600000" y2="158.000000"  style="stroke:black; stroke-linecap:round; stroke-width:0.25;"/>
<line x1="95.600000" y1="142.000000" x2="103.600000" y2="142.000000"  style="stroke:black; stroke-linecap:round; stroke-width:0.25;"/>
<line x1="95.600000" y1="158.000000" x2="95.600000" y2="142.000000"  style="stroke:black; stroke-linecap:round; stroke-width:0.25;"/>
<line x1="95.600000" y1="158.000000" x2="95.600000" y2="158.000000"  style="stroke:black; stroke-linecap:round; stroke-width:0.25;"/>
<line x1="103.600000" y1="142.000000" x2="113.600000" y2="142.000000"  style="stroke:black; stroke-linecap:round; stroke-width:0.25;"/>
<line x1="113.600000" y1="142.000000" x2="117.600000" y2="142.000000"  style="stroke:black; stroke-linecap:round; stroke-width:0.25;"/>
<line x1="148.050000" y1="216.000000" x2="152.050000" y2="216.000000"  style="stroke:black; stroke-linecap:round; stroke-width:0.25;"/>
<line x1="148.950000" y1="184.000000" x2="152.950000" y2="184.000000"  style="stroke:black; stroke-linecap:round; stroke-width:0.25;"/>
<line x1="152.050000" y1="216.000000" x2="210.300000" y2="216.000000"  style="stroke:black; stroke-linecap:round; stroke-width:0.25;"/>
<line x1="152.950000" y1="184.000000" x2="170.300000" y2="184.000000"  style="stroke:black; stroke-linecap:round; stroke-width:0.25;"/>
<line x1="156.300000" y1="142.000000" x2="160.300000" y2="142.000000"  style="stroke:black; stroke-linecap:round; stroke-width:0.25;"/>
<line x1="160.300000" y1="142.000000" x2="170.300000" y2="142.000000"  style="stroke:black; stroke-linecap:round; stroke-width:0.25;"/>
<line x1="170.300000" y1="142.000000" x2="178.300000" y2="142.000000"  style="stroke:black; stroke-linecap:round; stroke-width:0.25;"/>
<line x1="170.300000" y1="162.000000" x2="178.300000" y2="162.000000"  style="stroke:black; stroke-linecap:round; stroke-width:0.25;"/>
<line x1="170.300000" y1="184.000000" x2="170.300000" y2="162.000000"  style="stroke:black; stroke-linecap:round; stroke-width:0.25;"/>
<line x1="170.300000" y1="184.000000" x2="170.300000" y2="184.000000"  style="stroke:black; stroke-linecap:round; stroke-width:0.25;"/>
<line x1="178.300000" y1="142.000000" x2="178.300000" y2="154.000000"  style="stroke:black; stroke-linecap:round; stroke-width:0.25;"/>
<line x1="178.300000" y1="154.000000" x2="178.300000" y2="154.000000"  style="stroke:black; stroke-linecap:round; stroke-width:0.25;"/>
<line x1="178.300000" y1="154.000000" x2="182.300000" y2="154.000000"  style="stroke:black; stroke-linecap:round; stroke-width:0.25;"/>
<line x1="178.300000" y1="162.000000" x2="182.300000" y2="162.000000"  style="stroke:black; stroke-linecap:round; stroke-width:0.25;"/>
<line x1="184.050000" y1="100.000000" x2="188.050000" y2="100.000000"  style="stroke:black; stroke-linecap:round; stroke-width:0.25;"/>
<line x1="188.050000" y1="100.000000" x2="282.300000" y2="100.000000"  style="stroke:black; stroke-linecap:round; stroke-width:0.25;"/>
<line x1="204.050000" y1="68.000000" x2="208.050000" y2="68.000000"  style="stroke:black; stroke-linecap:round; stroke-width:0.25;"/>
<line x1="206.300000" y1="158.000000" x2="210.300000" y2="158.000000"  style="stroke:black; stroke-linecap:round; stroke-width:0.25;"/>
<line x1="208.050000" y1="68.000000" x2="322.300000" y2="68.000000"  style="stroke:black; stroke-linecap:round; stroke-width:0.25;"/>
<line x1="210.300000" y1="158.000000" x2="218.300000" y2="158.000000"  style="stroke:black; stroke-linecap:round; stroke-width:0.25;"/>
<line x1="210.300000" y1="178.000000" x2="218.300000" y2="178.000000"  style="stroke:black; stroke-linecap:round; stroke-width:0.25;"/>
<line x1="210.300000" y1="216.000000" x2="210.300000" y2="178.000000"  style="stroke:black; stroke-linecap:round; stroke-width:0.25;"/>
<line x1="210.300000" y1="216.000000" x2="210.300000" y2="216.000000"  style="stroke:black; stroke-linecap:round; stroke-width:0.25;"/>
<line x1="218.300000" y1="158.000000" x2="218.300000" y2="170.000000"  style="stroke:black; stroke-linecap:round; stroke-width:0.25;"/>
<line x1="218.300000" y1="170.000000" x2="218.300000" y2="170.000000"  style="stroke:black; stroke-linecap:round; stroke-width:0.25;"/>
<line x1="218.300000" y1="170.000000" x2="222.300000" y2="170.000000"  style="stroke:black; stroke-linecap:round; stroke-width:0.25;"/>
<line x1="218.300000" y1="178.000000" x2="222.300000" y2="178.000000"  style="stroke:black; stroke-linecap:round; stroke-width:0.25;"/>
<line x1="224.950000" y1="36.000000" x2="228.950000" y2="36.000000"  style="stroke:black; stroke-linecap:round; stroke-width:0.25;"/>
<line x1="228.950000" y1="36.000000" x2="362.300000" y2="36.000000"  style="stroke:black; stroke-linecap:round; stroke-width:0.25;"/>
<line x1="246.300000" y1="174.000000" x2="250.300000" y2="174.000000"  style="stroke:black; stroke-linecap:round; stroke-width:0.25;"/>
<line x1="250.300000" y1="174.000000" x2="250.300000" y2="174.000000"  style="stroke:black; stroke-linecap:round; stroke-width:0.25;"/>
<line x1="250.300000" y1="174.000000" x2="254.300000" y2="174.000000"  style="stroke:black; stroke-linecap:round; stroke-width:0.25;"/>
<line x1="278.300000" y1="174.000000" x2="282.300000" y2="174.000000"  style="stroke:black; stroke-linecap:round; stroke-width:0.25;"/>
<line x1="282.300000" y1="100.000000" x2="290.300000" y2="100.000000"  style="stroke:black; stroke-linecap:round; stroke-width:0.25;"/>
<line x1="282.300000" y1="162.000000" x2="290.300000" y2="162.000000"  style="stroke:black; stroke-linecap:round; stroke-width:0.25;"/>
<line x1="282.300000" y1="174.000000" x2="282.300000" y2="162.000000"  style="stroke:black; stroke-linecap:round; stroke-width:0.25;"/>
<line x1="282.300000" y1="174.000000" x2="282.300000" y2="174.000000"  style="stroke:black; stroke-linecap:round; stroke-width:0.25;"/>
<line x1="290.300000" y1="100.000000" x2="290.300000" y2="154.000000"  style="stroke:black; stroke-linecap:round; stroke-width:0.25;"/>
<line x1="290.300000" y1="154.000000" x2="290.300000" y2="154.000000"  style="stroke:black; stroke-linecap:round; stroke-width:0.25;"/>
<line x1="290.300000" y1="154.000000" x2="294.300000" y2="154.000000"  style="stroke:black; stroke-linecap:round; stroke-width:0.25;"/>
<line x1="290.300000" y1="162.000000" x2="294.300000" y2="162.000000"  style="stroke:black; stroke-linecap:round; stroke-width:0.25;"/>
<line x1="318.300000" y1="158.000000" x2="322.300000" y2="158.000000"  style="stroke:black; stroke-linecap:round; stroke-width:0.25;"/>
<line x1="322.300000" y1="68.000000" x2="330.300000" y2="68.000000"  style="stroke:black; stroke-linecap:round; stroke-width:0.25;"/>
<line x1="322.300000" y1="146.000000" x2="330.300000" y2="146.000000"  style="stroke:black; stroke-linecap:round; stroke-width:0.25;"/>
<line x1="322.300000" y1="158.000000" x2="322.300000" y2="146.000000"  style="stroke:black; stroke-linecap:round; stroke-width:0.25;"/>
<line x1="322.300000" y1="158.000000" x2="322.300000" y2="158.000000"  style="stroke:black; stroke-linecap:round; stroke-width:0.25;"/>
<line x1="330.300000" y1="68.000000" x2="330.300000" y2="138.000000"  style="stroke:black; stroke-linecap:round; stroke-width:0.25;"/>
<line x1="330.300000" y1="138.000000" x2="330.300000" y2="138.000000"  style="stroke:black; stroke-linecap:round; stroke-width:0.25;"/>
<line x1="330.300000" y1="138.000000" x2="334.300000" y2="138.000000"  style="stroke:black; stroke-linecap:round; stroke-width:0.25;"/>
<line x1="330.300000" y1="146.000000" x2="334.300000" y2="146.000000"  style="stroke:black; stroke-linecap:round; stroke-width:0.25;"/>
<line x1="358.300000" y1="142.000000" x2="362.300000" y2="142.000000"  style="stroke:black; stroke-linecap:round; stroke-width:0.25;"/>
<line x1="362.300000" y1="36.000000" x2="370.300000" y2="36.000000"  style="stroke:black; stroke-linecap:round; stroke-width:0.25;"/>
<line x1="362.300000" y1="130.000000" x2="370.300000" y2="130.000000"  style="stroke:black; stroke-linecap:round; stroke-width:0.25;"/>
<line x1="362.300000" y1="142.000000" x2="362.300000" y2="130.000000"  style="stroke:black; stroke-linecap:round; stroke-width:0.25;"/>
<line x1="362.300000" y1="142.000000" x2="362.300000" y2="142.000000"  style="stroke:black; stroke-linecap:round; stroke-width:0.25;"/>
<line x1="370.300000" y1="36.000000" x2="370.300000" y2="122.000000"  style="stroke:black; stroke-linecap:round; stroke-width:0.25;"/>
<line x1="370.300000" y1="122.000000" x2="370.300000" y2="122.000000"  style="stroke:black; stroke-linecap:round; stroke-width:0.25;"/>
<line x1="370.300000" y1="122.000000" x2="374.300000" y2="122.000000"  style="stroke:black; stroke-linecap:round; stroke-width:0.25;"/>
<line x1="370.300000" y1="130.000000" x2="374.300000" y2="130.000000"  style="stroke:black; stroke-linecap:round; stroke-width:0.25;"/>
<line x1="398.300000" y1="126.000000" x2="402.300000" y2="126.000000"  style="stroke:black; stroke-linecap:round; stroke-width:0.25;"/>
<line x1="402.300000" y1="126.000000" x2="402.300000" y2="126.000000"  style="stroke:black; stroke-linecap:round; stroke-width:0.25;"/>
<line x1="402.300000" y1="126.000000" x2="406.300000" y2="126.000000"  style="stroke:black; stroke-linecap:round; stroke-width:0.25;"/>
<line x1="406.300000" y1="126.000000" x2="410.300000" y2="126.000000"  style="stroke:black; stroke-linecap:round; stroke-width:0.25;"/>
<line x1="410.300000" y1="126.000000" x2="420.300000" y2="126.000000"  style="stroke:black; stroke-linecap:round; stroke-width:0.25;"/>
</svg>
