<?xml version="1.0"?>
<svg xmlns="http://www.w3.org/2000/svg" xmlns:xlink="http://www.w3.org/1999/xlink" viewBox="0 0 1426.000000 72.000000" width="713.000000mm" height="36.000000mm" version="1.1">
<rect x="0.000000" y="0.000000" width="1425.000000" height="71.000000" rx="0" ry="0" style="stroke:#000000;fill:#FFFFFF;"/>
<text x="10.000000" y="7.000000" font-family="Verdana" font-size="7"></text>
<a xlink:href="apfv-0x600002c157a0.svg">
<rect x="32.000000" y="24.000000" width="129.000000" height="24.000000" rx="0" ry="0" style="stroke:#000000;fill:#FFFFFF;"/>
</a>
<a xlink:href="apfv-0x600002c157a0.svg">
<text x="96.500000" y="38.000000" font-family="Verdana" font-size="7" text-anchor="middle" fill="#000000">apfv(1.92e+05...(0.70710677f)</text>
</a>
<circle cx="34.000000" cy="26.000000" r="1"/>
<line x1="29.000000" y1="35.000000" x2="32.000000" y2="36.000000"  transform="rotate(0.000000,32.000000,36.000000)" style="stroke: black; stroke-width:0.25;"/>
<line x1="29.000000" y1="37.000000" x2="32.000000" y2="36.000000"  transform="rotate(0.000000,32.000000,36.000000)" style="stroke: black; stroke-width:0.25;"/>
<a xlink:href="apfv-0x600002c16eb0.svg">
<rect x="169.000000" y="24.000000" width="129.000000" height="24.000000" rx="0" ry="0" style="stroke:#000000;fill:#FFFFFF;"/>
</a>
<a xlink:href="apfv-0x600002c16eb0.svg">
<text x="233.500000" y="38.000000" font-family="Verdana" font-size="7" text-anchor="middle" fill="#000000">apfv(1.92e+05...(0.70710677f)</text>
</a>
<circle cx="171.000000" cy="26.000000" r="1"/>
<line x1="166.000000" y1="35.000000" x2="169.000000" y2="36.000000"  transform="rotate(0.000000,169.000000,36.000000)" style="stroke: black; stroke-width:0.25;"/>
<line x1="166.000000" y1="37.000000" x2="169.000000" y2="36.000000"  transform="rotate(0.000000,169.000000,36.000000)" style="stroke: black; stroke-width:0.25;"/>
<a xlink:href="apfv-0x600002c18630.svg">
<rect x="306.000000" y="24.000000" width="129.000000" height="24.000000" rx="0" ry="0" style="stroke:#000000;fill:#FFFFFF;"/>
</a>
<a xlink:href="apfv-0x600002c18630.svg">
<text x="370.500000" y="38.000000" font-family="Verdana" font-size="7" text-anchor="middle" fill="#000000">apfv(1.92e+05...(0.70710677f)</text>
</a>
<circle cx="308.000000" cy="26.000000" r="1"/>
<line x1="303.000000" y1="35.000000" x2="306.000000" y2="36.000000"  transform="rotate(0.000000,306.000000,36.000000)" style="stroke: black; stroke-width:0.25;"/>
<line x1="303.000000" y1="37.000000" x2="306.000000" y2="36.000000"  transform="rotate(0.000000,306.000000,36.000000)" style="stroke: black; stroke-width:0.25;"/>
<a xlink:href="apfv-0x600002c19d40.svg">
<rect x="443.000000" y="24.000000" width="129.000000" height="24.000000" rx="0" ry="0" style="stroke:#000000;fill:#FFFFFF;"/>
</a>
<a xlink:href="apfv-0x600002c19d40.svg">
<text x="507.500000" y="38.000000" font-family="Verdana" font-size="7" text-anchor="middle" fill="#000000">apfv(1.92e+05...(0.70710677f)</text>
</a>
<circle cx="445.000000" cy="26.000000" r="1"/>
<line x1="440.000000" y1="35.000000" x2="443.000000" y2="36.000000"  transform="rotate(0.000000,443.000000,36.000000)" style="stroke: black; stroke-width:0.25;"/>
<line x1="440.000000" y1="37.000000" x2="443.000000" y2="36.000000"  transform="rotate(0.000000,443.000000,36.000000)" style="stroke: black; stroke-width:0.25;"/>
<a xlink:href="apfv-0x600002c1b450.svg">
<rect x="580.000000" y="24.000000" width="129.000000" height="24.000000" rx="0" ry="0" style="stroke:#000000;fill:#FFFFFF;"/>
</a>
<a xlink:href="apfv-0x600002c1b450.svg">
<text x="644.500000" y="38.000000" font-family="Verdana" font-size="7" text-anchor="middle" fill="#000000">apfv(1.92e+05...(0.70710677f)</text>
</a>
<circle cx="582.000000" cy="26.000000" r="1"/>
<line x1="577.000000" y1="35.000000" x2="580.000000" y2="36.000000"  transform="rotate(0.000000,580.000000,36.000000)" style="stroke: black; stroke-width:0.25;"/>
<line x1="577.000000" y1="37.000000" x2="580.000000" y2="36.000000"  transform="rotate(0.000000,580.000000,36.000000)" style="stroke: black; stroke-width:0.25;"/>
<a xlink:href="apfv-0x600002c1cbd0.svg">
<rect x="717.000000" y="24.000000" width="129.000000" height="24.000000" rx="0" ry="0" style="stroke:#000000;fill:#FFFFFF;"/>
</a>
<a xlink:href="apfv-0x600002c1cbd0.svg">
<text x="781.500000" y="38.000000" font-family="Verdana" font-size="7" text-anchor="middle" fill="#000000">apfv(1.92e+05...(0.70710677f)</text>
</a>
<circle cx="719.000000" cy="26.000000" r="1"/>
<line x1="714.000000" y1="35.000000" x2="717.000000" y2="36.000000"  transform="rotate(0.000000,717.000000,36.000000)" style="stroke: black; stroke-width:0.25;"/>
<line x1="714.000000" y1="37.000000" x2="717.000000" y2="36.000000"  transform="rotate(0.000000,717.000000,36.000000)" style="stroke: black; stroke-width:0.25;"/>
<a xlink:href="apfv-0x600002c1e2e0.svg">
<rect x="854.000000" y="24.000000" width="129.000000" height="24.000000" rx="0" ry="0" style="stroke:#000000;fill:#FFFFFF;"/>
</a>
<a xlink:href="apfv-0x600002c1e2e0.svg">
<text x="918.500000" y="38.000000" font-family="Verdana" font-size="7" text-anchor="middle" fill="#000000">apfv(1.92e+05...(0.70710677f)</text>
</a>
<circle cx="856.000000" cy="26.000000" r="1"/>
<line x1="851.000000" y1="35.000000" x2="854.000000" y2="36.000000"  transform="rotate(0.000000,854.000000,36.000000)" style="stroke: black; stroke-width:0.25;"/>
<line x1="851.000000" y1="37.000000" x2="854.000000" y2="36.000000"  transform="rotate(0.000000,854.000000,36.000000)" style="stroke: black; stroke-width:0.25;"/>
<a xlink:href="apfv-0x600002c1f9f0.svg">
<rect x="991.000000" y="24.000000" width="129.000000" height="24.000000" rx="0" ry="0" style="stroke:#000000;fill:#FFFFFF;"/>
</a>
<a xlink:href="apfv-0x600002c1f9f0.svg">
<text x="1055.500000" y="38.000000" font-family="Verdana" font-size="7" text-anchor="middle" fill="#000000">apfv(1.92e+05...(0.70710677f)</text>
</a>
<circle cx="993.000000" cy="26.000000" r="1"/>
<line x1="988.000000" y1="35.000000" x2="991.000000" y2="36.000000"  transform="rotate(0.000000,991.000000,36.000000)" style="stroke: black; stroke-width:0.25;"/>
<line x1="988.000000" y1="37.000000" x2="991.000000" y2="36.000000"  transform="rotate(0.000000,991.000000,36.000000)" style="stroke: black; stroke-width:0.25;"/>
<a xlink:href="apfv-0x600002de1710.svg">
<rect x="1128.000000" y="24.000000" width="129.000000" height="24.000000" rx="0" ry="0" style="stroke:#000000;fill:#FFFFFF;"/>
</a>
<a xlink:href="apfv-0x600002de1710.svg">
<text x="1192.500000" y="38.000000" font-family="Verdana" font-size="7" text-anchor="middle" fill="#000000">apfv(1.92e+05...(0.70710677f)</text>
</a>
<circle cx="1130.000000" cy="26.000000" r="1"/>
<line x1="1125.000000" y1="35.000000" x2="1128.000000" y2="36.000000"  transform="rotate(0.000000,1128.000000,36.000000)" style="stroke: black; stroke-width:0.25;"/>
<line x1="1125.000000" y1="37.000000" x2="1128.000000" y2="36.000000"  transform="rotate(0.000000,1128.000000,36.000000)" style="stroke: black; stroke-width:0.25;"/>
<a xlink:href="apfv-0x600002de3690.svg">
<rect x="1265.000000" y="24.000000" width="129.000000" height="24.000000" rx="0" ry="0" style="stroke:#000000;fill:#FFFFFF;"/>
</a>
<a xlink:href="apfv-0x600002de3690.svg">
<text x="1329.500000" y="38.000000" font-family="Verdana" font-size="7" text-anchor="middle" fill="#000000">apfv(1.92e+05...(0.70710677f)</text>
</a>
<circle cx="1267.000000" cy="26.000000" r="1"/>
<line x1="1262.000000" y1="35.000000" x2="1265.000000" y2="36.000000"  transform="rotate(0.000000,1265.000000,36.000000)" style="stroke: black; stroke-width:0.25;"/>
<line x1="1262.000000" y1="37.000000" x2="1265.000000" y2="36.000000"  transform="rotate(0.000000,1265.000000,36.000000)" style="stroke: black; stroke-width:0.25;"/>
<line x1="15.000000" y1="15.000000" x2="15.000000" y2="57.000000"  style="stroke: black; stroke-linecap:round; stroke-width:0.25; stroke-dasharray:3,3;"/>
<line x1="15.000000" y1="57.000000" x2="1411.000000" y2="57.000000"  style="stroke: black; stroke-linecap:round; stroke-width:0.25; stroke-dasharray:3,3;"/>
<line x1="1411.000000" y1="57.000000" x2="1411.000000" y2="15.000000"  style="stroke: black; stroke-linecap:round; stroke-width:0.25; stroke-dasharray:3,3;"/>
<line x1="15.000000" y1="15.000000" x2="20.000000" y2="15.000000"  style="stroke: black; stroke-linecap:round; stroke-width:0.25; stroke-dasharray:3,3;"/>
<line x1="49.025000" y1="15.000000" x2="1411.000000" y2="15.000000"  style="stroke: black; stroke-linecap:round; stroke-width:0.25; stroke-dasharray:3,3;"/>
<text x="20.000000" y="17.000000" font-family="Verdana" font-size="7">process</text>
<line x1="1413.000000" y1="35.000000" x2="1416.000000" y2="36.000000"  transform="rotate(0.000000,1416.000000,36.000000)" style="stroke: black; stroke-width:0.25;"/>
<line x1="1413.000000" y1="37.000000" x2="1416.000000" y2="36.000000"  transform="rotate(0.000000,1416.000000,36.000000)" style="stroke: black; stroke-width:0.25;"/>
<line x1="10.000000" y1="36.000000" x2="20.000000" y2="36.000000"  style="stroke:black; stroke-linecap:round; stroke-width:0.25;"/>
<line x1="20.000000" y1="36.000000" x2="24.000000" y2="36.000000"  style="stroke:black; stroke-linecap:round; stroke-width:0.25;"/>
<line x1="24.000000" y1="36.000000" x2="28.000000" y2="36.000000"  style="stroke:black; stroke-linecap:round; stroke-width:0.25;"/>
<line x1="28.000000" y1="36.000000" x2="28.000000" y2="36.000000"  style="stroke:black; stroke-linecap:round; stroke-width:0.25;"/>
<line x1="28.000000" y1="36.000000" x2="32.000000" y2="36.000000"  style="stroke:black; stroke-linecap:round; stroke-width:0.25;"/>
<line x1="161.000000" y1="36.000000" x2="165.000000" y2="36.000000"  style="stroke:black; stroke-linecap:round; stroke-width:0.25;"/>
<line x1="165.000000" y1="36.000000" x2="165.000000" y2="36.000000"  style="stroke:black; stroke-linecap:round; stroke-width:0.25;"/>
<line x1="165.000000" y1="36.000000" x2="169.000000" y2="36.000000"  style="stroke:black; stroke-linecap:round; stroke-width:0.25;"/>
<line x1="298.000000" y1="36.000000" x2="302.000000" y2="36.000000"  style="stroke:black; stroke-linecap:round; stroke-width:0.25;"/>
<line x1="302.000000" y1="36.000000" x2="302.000000" y2="36.000000"  style="stroke:black; stroke-linecap:round; stroke-width:0.25;"/>
<line x1="302.000000" y1="36.000000" x2="306.000000" y2="36.000000"  style="stroke:black; stroke-linecap:round; stroke-width:0.25;"/>
<line x1="435.000000" y1="36.000000" x2="439.000000" y2="36.000000"  style="stroke:black; stroke-linecap:round; stroke-width:0.25;"/>
<line x1="439.000000" y1="36.000000" x2="439.000000" y2="36.000000"  style="stroke:black; stroke-linecap:round; stroke-width:0.25;"/>
<line x1="439.000000" y1="36.000000" x2="443.000000" y2="36.000000"  style="stroke:black; stroke-linecap:round; stroke-width:0.25;"/>
<line x1="572.000000" y1="36.000000" x2="576.000000" y2="36.000000"  style="stroke:black; stroke-linecap:round; stroke-width:0.25;"/>
<line x1="576.000000" y1="36.000000" x2="576.000000" y2="36.000000"  style="stroke:black; stroke-linecap:round; stroke-width:0.25;"/>
<line x1="576.000000" y1="36.000000" x2="580.000000" y2="36.000000"  style="stroke:black; stroke-linecap:round; stroke-width:0.25;"/>
<line x1="709.000000" y1="36.000000" x2="713.000000" y2="36.000000"  style="stroke:black; stroke-linecap:round; stroke-width:0.25;"/>
<line x1="713.000000" y1="36.000000" x2="713.000000" y2="36.000000"  style="stroke:black; stroke-linecap:round; stroke-width:0.25;"/>
<line x1="713.000000" y1="36.000000" x2="717.000000" y2="36.000000"  style="stroke:black; stroke-linecap:round; stroke-width:0.25;"/>
<line x1="846.000000" y1="36.000000" x2="850.000000" y2="36.000000"  style="stroke:black; stroke-linecap:round; stroke-width:0.25;"/>
<line x1="850.000000" y1="36.000000" x2="850.000000" y2="36.000000"  style="stroke:black; stroke-linecap:round; stroke-width:0.25;"/>
<line x1="850.000000" y1="36.000000" x2="854.000000" y2="36.000000"  style="stroke:black; stroke-linecap:round; stroke-width:0.25;"/>
<line x1="983.000000" y1="36.000000" x2="987.000000" y2="36.000000"  style="stroke:black; stroke-linecap:round; stroke-width:0.25;"/>
<line x1="987.000000" y1="36.000000" x2="987.000000" y2="36.000000"  style="stroke:black; stroke-linecap:round; stroke-width:0.25;"/>
<line x1="987.000000" y1="36.000000" x2="991.000000" y2="36.000000"  style="stroke:black; stroke-linecap:round; stroke-width:0.25;"/>
<line x1="1120.000000" y1="36.000000" x2="1124.000000" y2="36.000000"  style="stroke:black; stroke-linecap:round; stroke-width:0.25;"/>
<line x1="1124.000000" y1="36.000000" x2="1124.000000" y2="36.000000"  style="stroke:black; stroke-linecap:round; stroke-width:0.25;"/>
<line x1="1124.000000" y1="36.000000" x2="1128.000000" y2="36.000000"  style="stroke:black; stroke-linecap:round; stroke-width:0.25;"/>
<line x1="1257.000000" y1="36.000000" x2="1261.000000" y2="36.000000"  style="stroke:black; stroke-linecap:round; stroke-width:0.25;"/>
<line x1="1261.000000" y1="36.000000" x2="1261.000000" y2="36.000000"  style="stroke:black; stroke-linecap:round; stroke-width:0.25;"/>
<line x1="1261.000000" y1="36.000000" x2="1265.000000" y2="36.000000"  style="stroke:black; stroke-linecap:round; stroke-width:0.25;"/>
<line x1="1394.000000" y1="36.000000" x2="1398.000000" y2="36.000000"  style="stroke:black; stroke-linecap:round; stroke-width:0.25;"/>
<line x1="1398.000000" y1="36.000000" x2="1398.000000" y2="36.000000"  style="stroke:black; stroke-linecap:round; stroke-width:0.25;"/>
<line x1="1398.000000" y1="36.000000" x2="1402.000000" y2="36.000000"  style="stroke:black; stroke-linecap:round; stroke-width:0.25;"/>
<line x1="1402.000000" y1="36.000000" x2="1406.000000" y2="36.000000"  style="stroke:black; stroke-linecap:round; stroke-width:0.25;"/>
<line x1="1406.000000" y1="36.000000" x2="1416.000000" y2="36.000000"  style="stroke:black; stroke-linecap:round; stroke-width:0.25;"/>
</svg>
