<?xml version="1.0"?>
<svg xmlns="http://www.w3.org/2000/svg" xmlns:xlink="http://www.w3.org/1999/xlink" viewBox="0 0 420.000000 168.000000" width="210.000000mm" height="84.000000mm" version="1.1">
<a xlink:href="process.svg">
<rect x="0.000000" y="0.000000" width="419.000000" height="167.000000" rx="0" ry="0" style="stroke:#000000;fill:#FFFFFF;"/>
</a>
<text x="10.000000" y="7.000000" font-family="Verdana" font-size="7"></text>
<a xlink:href="dflc-0x600000bf8000.svg">
<rect x="74.000000" y="24.000000" width="77.400000" height="24.000000" rx="0" ry="0" style="stroke:#000000;fill:#FFFFFF;"/>
</a>
<a xlink:href="dflc-0x600000bf8000.svg">
<text x="112.700000" y="38.000000" font-family="Verdana" font-size="7" text-anchor="middle" fill="#000000">dflc(673)(0.89f)</text>
</a>
<circle cx="76.000000" cy="26.000000" r="1"/>
<line x1="71.000000" y1="35.000000" x2="74.000000" y2="36.000000"  transform="rotate(0.000000,74.000000,36.000000)" style="stroke: black; stroke-width:0.25;"/>
<line x1="71.000000" y1="37.000000" x2="74.000000" y2="36.000000"  transform="rotate(0.000000,74.000000,36.000000)" style="stroke: black; stroke-width:0.25;"/>
<a xlink:href="dflc-0x600000bf06c0.svg">
<rect x="74.000000" y="56.000000" width="77.400000" height="24.000000" rx="0" ry="0" style="stroke:#000000;fill:#FFFFFF;"/>
</a>
<a xlink:href="dflc-0x600000bf06c0.svg">
<text x="112.700000" y="70.000000" font-family="Verdana" font-size="7" text-anchor="middle" fill="#000000">dflc(1447)(0.78f)</text>
</a>
<circle cx="76.000000" cy="58.000000" r="1"/>
<line x1="71.000000" y1="67.000000" x2="74.000000" y2="68.000000"  transform="rotate(0.000000,74.000000,68.000000)" style="stroke: black; stroke-width:0.25;"/>
<line x1="71.000000" y1="69.000000" x2="74.000000" y2="68.000000"  transform="rotate(0.000000,74.000000,68.000000)" style="stroke: black; stroke-width:0.25;"/>
<a xlink:href="dflc-0x600000bf25b0.svg">
<rect x="74.000000" y="88.000000" width="77.400000" height="24.000000" rx="0" ry="0" style="stroke:#000000;fill:#FFFFFF;"/>
</a>
<a xlink:href="dflc-0x600000bf25b0.svg">
<text x="112.700000" y="102.000000" font-family="Verdana" font-size="7" text-anchor="middle" fill="#000000">dflc(1811)(0.74f)</text>
</a>
<circle cx="76.000000" cy="90.000000" r="1"/>
<line x1="71.000000" y1="99.000000" x2="74.000000" y2="100.000000"  transform="rotate(0.000000,74.000000,100.000000)" style="stroke: black; stroke-width:0.25;"/>
<line x1="71.000000" y1="101.000000" x2="74.000000" y2="100.000000"  transform="rotate(0.000000,74.000000,100.000000)" style="stroke: black; stroke-width:0.25;"/>
<a xlink:href="dflc-0x600000bf5d40.svg">
<rect x="74.000000" y="120.000000" width="77.400000" height="24.000000" rx="0" ry="0" style="stroke:#000000;fill:#FFFFFF;"/>
</a>
<a xlink:href="dflc-0x600000bf5d40.svg">
<text x="112.700000" y="134.000000" font-family="Verdana" font-size="7" text-anchor="middle" fill="#000000">dflc(2111)(0.63f)</text>
</a>
<circle cx="76.000000" cy="122.000000" r="1"/>
<line x1="71.000000" y1="131.000000" x2="74.000000" y2="132.000000"  transform="rotate(0.000000,74.000000,132.000000)" style="stroke: black; stroke-width:0.25;"/>
<line x1="71.000000" y1="133.000000" x2="74.000000" y2="132.000000"  transform="rotate(0.000000,74.000000,132.000000)" style="stroke: black; stroke-width:0.25;"/>
<a xlink:href="apf-0x600000b8b450.svg">
<rect x="199.400000" y="72.000000" width="90.300000" height="24.000000" rx="0" ry="0" style="stroke:#000000;fill:#FFFFFF;"/>
</a>
<a xlink:href="apf-0x600000b8b450.svg">
<text x="244.550000" y="86.000000" font-family="Verdana" font-size="7" text-anchor="middle" fill="#000000">apf(173)(0.70710677f)</text>
</a>
<circle cx="201.400000" cy="74.000000" r="1"/>
<line x1="196.400000" y1="83.000000" x2="199.400000" y2="84.000000"  transform="rotate(0.000000,199.400000,84.000000)" style="stroke: black; stroke-width:0.25;"/>
<line x1="196.400000" y1="85.000000" x2="199.400000" y2="84.000000"  transform="rotate(0.000000,199.400000,84.000000)" style="stroke: black; stroke-width:0.25;"/>
<a xlink:href="apf-0x600000b8e6d0.svg">
<rect x="297.700000" y="72.000000" width="90.300000" height="24.000000" rx="0" ry="0" style="stroke:#000000;fill:#FFFFFF;"/>
</a>
<a xlink:href="apf-0x600000b8e6d0.svg">
<text x="342.850000" y="86.000000" font-family="Verdana" font-size="7" text-anchor="middle" fill="#000000">apf(229)(0.70710677f)</text>
</a>
<circle cx="299.700000" cy="74.000000" r="1"/>
<line x1="294.700000" y1="83.000000" x2="297.700000" y2="84.000000"  transform="rotate(0.000000,297.700000,84.000000)" style="stroke: black; stroke-width:0.25;"/>
<line x1="294.700000" y1="85.000000" x2="297.700000" y2="84.000000"  transform="rotate(0.000000,297.700000,84.000000)" style="stroke: black; stroke-width:0.25;"/>
<line x1="15.000000" y1="15.000000" x2="15.000000" y2="153.000000"  style="stroke: black; stroke-linecap:round; stroke-width:0.25; stroke-dasharray:3,3;"/>
<line x1="15.000000" y1="153.000000" x2="405.000000" y2="153.000000"  style="stroke: black; stroke-linecap:round; stroke-width:0.25; stroke-dasharray:3,3;"/>
<line x1="405.000000" y1="153.000000" x2="405.000000" y2="15.000000"  style="stroke: black; stroke-linecap:round; stroke-width:0.25; stroke-dasharray:3,3;"/>
<line x1="15.000000" y1="15.000000" x2="20.000000" y2="15.000000"  style="stroke: black; stroke-linecap:round; stroke-width:0.25; stroke-dasharray:3,3;"/>
<line x1="45.800000" y1="15.000000" x2="405.000000" y2="15.000000"  style="stroke: black; stroke-linecap:round; stroke-width:0.25; stroke-dasharray:3,3;"/>
<text x="20.000000" y="17.000000" font-family="Verdana" font-size="7">dflapf</text>
<line x1="407.000000" y1="83.000000" x2="410.000000" y2="84.000000"  transform="rotate(0.000000,410.000000,84.000000)" style="stroke: black; stroke-width:0.25;"/>
<line x1="407.000000" y1="85.000000" x2="410.000000" y2="84.000000"  transform="rotate(0.000000,410.000000,84.000000)" style="stroke: black; stroke-width:0.25;"/>
<line x1="10.000000" y1="84.000000" x2="20.000000" y2="84.000000"  style="stroke:black; stroke-linecap:round; stroke-width:0.25;"/>
<line x1="20.000000" y1="84.000000" x2="24.000000" y2="84.000000"  style="stroke:black; stroke-linecap:round; stroke-width:0.25;"/>
<line x1="24.000000" y1="84.000000" x2="28.000000" y2="84.000000"  style="stroke:black; stroke-linecap:round; stroke-width:0.25;"/>
<line x1="28.000000" y1="84.000000" x2="28.000000" y2="84.000000"  style="stroke:black; stroke-linecap:round; stroke-width:0.25;"/>
<line x1="28.000000" y1="84.000000" x2="32.000000" y2="84.000000"  style="stroke:black; stroke-linecap:round; stroke-width:0.25;"/>
<line x1="32.000000" y1="84.000000" x2="36.000000" y2="84.000000"  style="stroke:black; stroke-linecap:round; stroke-width:0.25;"/>
<line x1="36.000000" y1="84.000000" x2="70.000000" y2="36.000000"  style="stroke:black; stroke-linecap:round; stroke-width:0.25;"/>
<line x1="36.000000" y1="84.000000" x2="70.000000" y2="68.000000"  style="stroke:black; stroke-linecap:round; stroke-width:0.25;"/>
<line x1="36.000000" y1="84.000000" x2="70.000000" y2="100.000000"  style="stroke:black; stroke-linecap:round; stroke-width:0.25;"/>
<line x1="36.000000" y1="84.000000" x2="70.000000" y2="132.000000"  style="stroke:black; stroke-linecap:round; stroke-width:0.25;"/>
<line x1="70.000000" y1="36.000000" x2="74.000000" y2="36.000000"  style="stroke:black; stroke-linecap:round; stroke-width:0.25;"/>
<line x1="70.000000" y1="68.000000" x2="74.000000" y2="68.000000"  style="stroke:black; stroke-linecap:round; stroke-width:0.25;"/>
<line x1="70.000000" y1="100.000000" x2="74.000000" y2="100.000000"  style="stroke:black; stroke-linecap:round; stroke-width:0.25;"/>
<line x1="70.000000" y1="132.000000" x2="74.000000" y2="132.000000"  style="stroke:black; stroke-linecap:round; stroke-width:0.25;"/>
<line x1="151.400000" y1="36.000000" x2="155.400000" y2="36.000000"  style="stroke:black; stroke-linecap:round; stroke-width:0.25;"/>
<line x1="151.400000" y1="68.000000" x2="155.400000" y2="68.000000"  style="stroke:black; stroke-linecap:round; stroke-width:0.25;"/>
<line x1="151.400000" y1="100.000000" x2="155.400000" y2="100.000000"  style="stroke:black; stroke-linecap:round; stroke-width:0.25;"/>
<line x1="151.400000" y1="132.000000" x2="155.400000" y2="132.000000"  style="stroke:black; stroke-linecap:round; stroke-width:0.25;"/>
<line x1="155.400000" y1="36.000000" x2="195.400000" y2="84.000000"  style="stroke:black; stroke-linecap:round; stroke-width:0.25;"/>
<line x1="155.400000" y1="68.000000" x2="195.400000" y2="84.000000"  style="stroke:black; stroke-linecap:round; stroke-width:0.25;"/>
<line x1="155.400000" y1="100.000000" x2="195.400000" y2="84.000000"  style="stroke:black; stroke-linecap:round; stroke-width:0.25;"/>
<line x1="155.400000" y1="132.000000" x2="195.400000" y2="84.000000"  style="stroke:black; stroke-linecap:round; stroke-width:0.25;"/>
<line x1="195.400000" y1="84.000000" x2="199.400000" y2="84.000000"  style="stroke:black; stroke-linecap:round; stroke-width:0.25;"/>
<line x1="289.700000" y1="84.000000" x2="293.700000" y2="84.000000"  style="stroke:black; stroke-linecap:round; stroke-width:0.25;"/>
<line x1="293.700000" y1="84.000000" x2="293.700000" y2="84.000000"  style="stroke:black; stroke-linecap:round; stroke-width:0.25;"/>
<line x1="293.700000" y1="84.000000" x2="297.700000" y2="84.000000"  style="stroke:black; stroke-linecap:round; stroke-width:0.25;"/>
<line x1="388.000000" y1="84.000000" x2="392.000000" y2="84.000000"  style="stroke:black; stroke-linecap:round; stroke-width:0.25;"/>
<line x1="392.000000" y1="84.000000" x2="392.000000" y2="84.000000"  style="stroke:black; stroke-linecap:round; stroke-width:0.25;"/>
<line x1="392.000000" y1="84.000000" x2="396.000000" y2="84.000000"  style="stroke:black; stroke-linecap:round; stroke-width:0.25;"/>
<line x1="396.000000" y1="84.000000" x2="400.000000" y2="84.000000"  style="stroke:black; stroke-linecap:round; stroke-width:0.25;"/>
<line x1="400.000000" y1="84.000000" x2="410.000000" y2="84.000000"  style="stroke:black; stroke-linecap:round; stroke-width:0.25;"/>
</svg>
