<?xml version="1.0"?>
<svg xmlns="http://www.w3.org/2000/svg" xmlns:xlink="http://www.w3.org/1999/xlink" viewBox="0 0 232.000000 120.000000" width="116.000000mm" height="60.000000mm" version="1.1">
<a xlink:href="dflapf-0x600000b8e910.svg">
<rect x="0.000000" y="0.000000" width="231.000000" height="119.000000" rx="0" ry="0" style="stroke:#000000;fill:#FFFFFF;"/>
</a>
<text x="10.000000" y="7.000000" font-family="Verdana" font-size="7"></text>
<rect x="48.000000" y="68.000000" width="24.000000" height="24.000000" rx="0" ry="0" style="stroke:#000000;fill:#FFFFFF;"/>
<text x="60.000000" y="82.000000" font-family="Verdana" font-size="7" text-anchor="middle" fill="#000000">+</text>
<circle cx="50.000000" cy="70.000000" r="1"/>
<line x1="45.000000" y1="75.000000" x2="48.000000" y2="76.000000"  transform="rotate(0.000000,48.000000,76.000000)" style="stroke: black; stroke-width:0.25;"/>
<line x1="45.000000" y1="77.000000" x2="48.000000" y2="76.000000"  transform="rotate(0.000000,48.000000,76.000000)" style="stroke: black; stroke-width:0.25;"/>
<line x1="45.000000" y1="83.000000" x2="48.000000" y2="84.000000"  transform="rotate(0.000000,48.000000,84.000000)" style="stroke: black; stroke-width:0.25;"/>
<line x1="45.000000" y1="85.000000" x2="48.000000" y2="84.000000"  transform="rotate(0.000000,48.000000,84.000000)" style="stroke: black; stroke-width:0.25;"/>
<rect x="88.000000" y="72.000000" width="24.000000" height="24.000000" rx="0" ry="0" style="stroke:#000000;fill:#FFFFFF;"/>
<text x="100.000000" y="86.000000" font-family="Verdana" font-size="7" text-anchor="middle" fill="#000000">672</text>
<circle cx="90.000000" cy="74.000000" r="1"/>
<rect x="128.000000" y="68.000000" width="24.000000" height="24.000000" rx="0" ry="0" style="stroke:#000000;fill:#FFFFFF;"/>
<text x="140.000000" y="82.000000" font-family="Verdana" font-size="7" text-anchor="middle" fill="#000000">@</text>
<circle cx="130.000000" cy="70.000000" r="1"/>
<line x1="125.000000" y1="75.000000" x2="128.000000" y2="76.000000"  transform="rotate(0.000000,128.000000,76.000000)" style="stroke: black; stroke-width:0.25;"/>
<line x1="125.000000" y1="77.000000" x2="128.000000" y2="76.000000"  transform="rotate(0.000000,128.000000,76.000000)" style="stroke: black; stroke-width:0.25;"/>
<line x1="125.000000" y1="83.000000" x2="128.000000" y2="84.000000"  transform="rotate(0.000000,128.000000,84.000000)" style="stroke: black; stroke-width:0.25;"/>
<line x1="125.000000" y1="85.000000" x2="128.000000" y2="84.000000"  transform="rotate(0.000000,128.000000,84.000000)" style="stroke: black; stroke-width:0.25;"/>
<rect x="107.100000" y="24.000000" width="25.800000" height="24.000000" rx="0" ry="0" style="stroke:#000000;fill:#FFFFFF;"/>
<text x="120.000000" y="38.000000" font-family="Verdana" font-size="7" text-anchor="middle" fill="#000000">0.89f</text>
<circle cx="130.900000" cy="46.000000" r="1"/>
<rect x="67.100000" y="28.000000" width="24.000000" height="24.000000" rx="0" ry="0" style="stroke:#000000;fill:#FFFFFF;"/>
<text x="79.100000" y="42.000000" font-family="Verdana" font-size="7" text-anchor="middle" fill="#000000">*</text>
<circle cx="89.100000" cy="50.000000" r="1"/>
<line x1="94.100000" y1="43.000000" x2="91.100000" y2="44.000000"  transform="rotate(0.000000,91.100000,44.000000)" style="stroke: black; stroke-width:0.25;"/>
<line x1="94.100000" y1="45.000000" x2="91.100000" y2="44.000000"  transform="rotate(0.000000,91.100000,44.000000)" style="stroke: black; stroke-width:0.25;"/>
<line x1="94.100000" y1="35.000000" x2="91.100000" y2="36.000000"  transform="rotate(0.000000,91.100000,36.000000)" style="stroke: black; stroke-width:0.25;"/>
<line x1="94.100000" y1="37.000000" x2="91.100000" y2="36.000000"  transform="rotate(0.000000,91.100000,36.000000)" style="stroke: black; stroke-width:0.25;"/>
<line x1="154.000000" y1="80.000000" x2="154.000000" y2="76.000000"  style="stroke:black; stroke-linecap:round; stroke-width:0.25;"/>
<line x1="154.000000" y1="76.000000" x2="158.000000" y2="76.000000"  style="stroke:black; stroke-linecap:round; stroke-width:0.25;"/>
<line x1="158.000000" y1="76.000000" x2="158.000000" y2="80.000000"  style="stroke:black; stroke-linecap:round; stroke-width:0.25;"/>
<rect x="176.000000" y="48.000000" width="24.000000" height="24.000000" rx="0" ry="0" style="stroke:#000000;fill:#FFFFFF;"/>
<text x="188.000000" y="62.000000" font-family="Verdana" font-size="7" text-anchor="middle" fill="#000000">mem</text>
<circle cx="178.000000" cy="50.000000" r="1"/>
<line x1="173.000000" y1="59.000000" x2="176.000000" y2="60.000000"  transform="rotate(0.000000,176.000000,60.000000)" style="stroke: black; stroke-width:0.25;"/>
<line x1="173.000000" y1="61.000000" x2="176.000000" y2="60.000000"  transform="rotate(0.000000,176.000000,60.000000)" style="stroke: black; stroke-width:0.25;"/>
<line x1="15.000000" y1="15.000000" x2="15.000000" y2="105.000000"  style="stroke: black; stroke-linecap:round; stroke-width:0.25; stroke-dasharray:3,3;"/>
<line x1="15.000000" y1="105.000000" x2="217.000000" y2="105.000000"  style="stroke: black; stroke-linecap:round; stroke-width:0.25; stroke-dasharray:3,3;"/>
<line x1="217.000000" y1="105.000000" x2="217.000000" y2="15.000000"  style="stroke: black; stroke-linecap:round; stroke-width:0.25; stroke-dasharray:3,3;"/>
<line x1="15.000000" y1="15.000000" x2="20.000000" y2="15.000000"  style="stroke: black; stroke-linecap:round; stroke-width:0.25; stroke-dasharray:3,3;"/>
<line x1="78.050000" y1="15.000000" x2="217.000000" y2="15.000000"  style="stroke: black; stroke-linecap:round; stroke-width:0.25; stroke-dasharray:3,3;"/>
<text x="20.000000" y="17.000000" font-family="Verdana" font-size="7">dflc(673)(0.89f)</text>
<line x1="219.000000" y1="59.000000" x2="222.000000" y2="60.000000"  transform="rotate(0.000000,222.000000,60.000000)" style="stroke: black; stroke-width:0.25;"/>
<line x1="219.000000" y1="61.000000" x2="222.000000" y2="60.000000"  transform="rotate(0.000000,222.000000,60.000000)" style="stroke: black; stroke-width:0.25;"/>
<line x1="10.000000" y1="60.000000" x2="20.000000" y2="60.000000"  style="stroke:black; stroke-linecap:round; stroke-width:0.25;"/>
<line x1="20.000000" y1="60.000000" x2="24.000000" y2="60.000000"  style="stroke:black; stroke-linecap:round; stroke-width:0.25;"/>
<line x1="24.000000" y1="60.000000" x2="28.000000" y2="60.000000"  style="stroke:black; stroke-linecap:round; stroke-width:0.25;"/>
<line x1="28.000000" y1="60.000000" x2="36.000000" y2="60.000000"  style="stroke:black; stroke-linecap:round; stroke-width:0.25;"/>
<line x1="36.000000" y1="60.000000" x2="36.000000" y2="84.000000"  style="stroke:black; stroke-linecap:round; stroke-width:0.25;"/>
<line x1="36.000000" y1="84.000000" x2="36.000000" y2="84.000000"  style="stroke:black; stroke-linecap:round; stroke-width:0.25;"/>
<line x1="36.000000" y1="84.000000" x2="44.000000" y2="84.000000"  style="stroke:black; stroke-linecap:round; stroke-width:0.25;"/>
<line x1="44.000000" y1="40.000000" x2="44.000000" y2="40.000000"  style="stroke:black; stroke-linecap:round; stroke-width:0.25;"/>
<line x1="44.000000" y1="40.000000" x2="44.000000" y2="76.000000"  style="stroke:black; stroke-linecap:round; stroke-width:0.25;"/>
<line x1="44.000000" y1="76.000000" x2="44.000000" y2="76.000000"  style="stroke:black; stroke-linecap:round; stroke-width:0.25;"/>
<line x1="44.000000" y1="76.000000" x2="48.000000" y2="76.000000"  style="stroke:black; stroke-linecap:round; stroke-width:0.25;"/>
<line x1="44.000000" y1="84.000000" x2="48.000000" y2="84.000000"  style="stroke:black; stroke-linecap:round; stroke-width:0.25;"/>
<line x1="63.100000" y1="40.000000" x2="44.000000" y2="40.000000"  style="stroke:black; stroke-linecap:round; stroke-width:0.25;"/>
<line x1="67.100000" y1="40.000000" x2="63.100000" y2="40.000000"  style="stroke:black; stroke-linecap:round; stroke-width:0.25;"/>
<line x1="72.000000" y1="80.000000" x2="76.000000" y2="80.000000"  style="stroke:black; stroke-linecap:round; stroke-width:0.25;"/>
<line x1="76.000000" y1="64.000000" x2="84.000000" y2="64.000000"  style="stroke:black; stroke-linecap:round; stroke-width:0.25;"/>
<line x1="76.000000" y1="80.000000" x2="76.000000" y2="64.000000"  style="stroke:black; stroke-linecap:round; stroke-width:0.25;"/>
<line x1="76.000000" y1="80.000000" x2="76.000000" y2="80.000000"  style="stroke:black; stroke-linecap:round; stroke-width:0.25;"/>
<line x1="84.000000" y1="64.000000" x2="100.000000" y2="64.000000"  style="stroke:black; stroke-linecap:round; stroke-width:0.25;"/>
<line x1="95.100000" y1="36.000000" x2="91.100000" y2="36.000000"  style="stroke:black; stroke-linecap:round; stroke-width:0.25;"/>
<line x1="95.100000" y1="44.000000" x2="91.100000" y2="44.000000"  style="stroke:black; stroke-linecap:round; stroke-width:0.25;"/>
<line x1="95.100000" y1="44.000000" x2="95.100000" y2="44.000000"  style="stroke:black; stroke-linecap:round; stroke-width:0.25;"/>
<line x1="95.100000" y1="56.000000" x2="95.100000" y2="44.000000"  style="stroke:black; stroke-linecap:round; stroke-width:0.25;"/>
<line x1="100.000000" y1="64.000000" x2="116.000000" y2="64.000000"  style="stroke:black; stroke-linecap:round; stroke-width:0.25;"/>
<line x1="103.100000" y1="36.000000" x2="95.100000" y2="36.000000"  style="stroke:black; stroke-linecap:round; stroke-width:0.25;"/>
<line x1="103.100000" y1="56.000000" x2="95.100000" y2="56.000000"  style="stroke:black; stroke-linecap:round; stroke-width:0.25;"/>
<line x1="107.100000" y1="36.000000" x2="103.100000" y2="36.000000"  style="stroke:black; stroke-linecap:round; stroke-width:0.25;"/>
<line x1="112.000000" y1="84.000000" x2="116.000000" y2="84.000000"  style="stroke:black; stroke-linecap:round; stroke-width:0.25;"/>
<line x1="116.000000" y1="64.000000" x2="124.000000" y2="64.000000"  style="stroke:black; stroke-linecap:round; stroke-width:0.25;"/>
<line x1="116.000000" y1="84.000000" x2="124.000000" y2="84.000000"  style="stroke:black; stroke-linecap:round; stroke-width:0.25;"/>
<line x1="120.000000" y1="56.000000" x2="103.100000" y2="56.000000"  style="stroke:black; stroke-linecap:round; stroke-width:0.25;"/>
<line x1="124.000000" y1="64.000000" x2="124.000000" y2="76.000000"  style="stroke:black; stroke-linecap:round; stroke-width:0.25;"/>
<line x1="124.000000" y1="76.000000" x2="124.000000" y2="76.000000"  style="stroke:black; stroke-linecap:round; stroke-width:0.25;"/>
<line x1="124.000000" y1="76.000000" x2="128.000000" y2="76.000000"  style="stroke:black; stroke-linecap:round; stroke-width:0.25;"/>
<line x1="124.000000" y1="84.000000" x2="128.000000" y2="84.000000"  style="stroke:black; stroke-linecap:round; stroke-width:0.25;"/>
<line x1="136.900000" y1="56.000000" x2="120.000000" y2="56.000000"  style="stroke:black; stroke-linecap:round; stroke-width:0.25;"/>
<line x1="152.000000" y1="80.000000" x2="156.000000" y2="80.000000"  style="stroke:black; stroke-linecap:round; stroke-width:0.25;"/>
<line x1="156.000000" y1="56.000000" x2="136.900000" y2="56.000000"  style="stroke:black; stroke-linecap:round; stroke-width:0.25;"/>
<line x1="156.000000" y1="56.000000" x2="156.000000" y2="56.000000"  style="stroke:black; stroke-linecap:round; stroke-width:0.25;"/>
<line x1="156.000000" y1="76.000000" x2="156.000000" y2="56.000000"  style="stroke:black; stroke-linecap:round; stroke-width:0.25;"/>
<line x1="156.000000" y1="80.000000" x2="158.000000" y2="80.000000"  style="stroke:black; stroke-linecap:round; stroke-width:0.25;"/>
<line x1="158.000000" y1="80.000000" x2="164.000000" y2="80.000000"  style="stroke:black; stroke-linecap:round; stroke-width:0.25;"/>
<line x1="164.000000" y1="60.000000" x2="172.000000" y2="60.000000"  style="stroke:black; stroke-linecap:round; stroke-width:0.25;"/>
<line x1="164.000000" y1="80.000000" x2="164.000000" y2="60.000000"  style="stroke:black; stroke-linecap:round; stroke-width:0.25;"/>
<line x1="164.000000" y1="80.000000" x2="164.000000" y2="80.000000"  style="stroke:black; stroke-linecap:round; stroke-width:0.25;"/>
<line x1="172.000000" y1="60.000000" x2="176.000000" y2="60.000000"  style="stroke:black; stroke-linecap:round; stroke-width:0.25;"/>
<line x1="200.000000" y1="60.000000" x2="204.000000" y2="60.000000"  style="stroke:black; stroke-linecap:round; stroke-width:0.25;"/>
<line x1="204.000000" y1="60.000000" x2="204.000000" y2="60.000000"  style="stroke:black; stroke-linecap:round; stroke-width:0.25;"/>
<line x1="204.000000" y1="60.000000" x2="208.000000" y2="60.000000"  style="stroke:black; stroke-linecap:round; stroke-width:0.25;"/>
<line x1="208.000000" y1="60.000000" x2="212.000000" y2="60.000000"  style="stroke:black; stroke-linecap:round; stroke-width:0.25;"/>
<line x1="212.000000" y1="60.000000" x2="222.000000" y2="60.000000"  style="stroke:black; stroke-linecap:round; stroke-width:0.25;"/>
</svg>
