<?xml version="1.0"?>
<svg xmlns="http://www.w3.org/2000/svg" xmlns:xlink="http://www.w3.org/1999/xlink" viewBox="0 0 192.500000 80.000000" width="96.250000mm" height="40.000000mm" version="1.1">
<a xlink:href="saw-0x7f96535c1910.svg">
<rect x="1.000000" y="1.000000" width="191.500000" height="79.000000" rx="0" ry="0" style="stroke:none;fill:#cccccc;"/>
<rect x="0.000000" y="0.000000" width="191.500000" height="79.000000" rx="0" ry="0" style="stroke:none;fill:#ffffff;"/>
</a>
<text x="10.000000" y="7.000000" font-family="Arial" font-size="7"></text>
<a xlink:href="step-0x7f96535b4190.svg">
<rect x="25.000000" y="29.000000" width="25.800000" height="24.000000" rx="0" ry="0" style="stroke:none;fill:#cccccc;"/>
<rect x="24.000000" y="28.000000" width="25.800000" height="24.000000" rx="0" ry="0" style="stroke:none;fill:#003366;"/>
</a>
<a xlink:href="step-0x7f96535b4190.svg">
<text x="36.900000" y="42.000000" font-family="Arial" font-size="7" text-anchor="middle" fill="#FFFFFF">step</text>
</a>
<circle cx="26.000000" cy="30.000000" r="1"/>
<rect x="74.800000" y="33.000000" width="24.000000" height="24.000000" rx="0" ry="0" style="stroke:none;fill:#cccccc;"/>
<rect x="73.800000" y="32.000000" width="24.000000" height="24.000000" rx="0" ry="0" style="stroke:none;fill:#4B71A1;"/>
<text x="85.800000" y="46.000000" font-family="Arial" font-size="7" text-anchor="middle" fill="#FFFFFF">+</text>
<circle cx="75.800000" cy="34.000000" r="1"/>
<line x1="70.800000" y1="39.000000" x2="73.800000" y2="40.000000"  transform="rotate(0.000000,73.800000,40.000000)" style="stroke: black; stroke-width:0.25;"/>
<line x1="70.800000" y1="41.000000" x2="73.800000" y2="40.000000"  transform="rotate(0.000000,73.800000,40.000000)" style="stroke: black; stroke-width:0.25;"/>
<line x1="70.800000" y1="47.000000" x2="73.800000" y2="48.000000"  transform="rotate(0.000000,73.800000,48.000000)" style="stroke: black; stroke-width:0.25;"/>
<line x1="70.800000" y1="49.000000" x2="73.800000" y2="48.000000"  transform="rotate(0.000000,73.800000,48.000000)" style="stroke: black; stroke-width:0.25;"/>
<a xlink:href="decimal-0x7f96535bbe00.svg">
<rect x="106.800000" y="33.000000" width="38.700000" height="24.000000" rx="0" ry="0" style="stroke:none;fill:#cccccc;"/>
<rect x="105.800000" y="32.000000" width="38.700000" height="24.000000" rx="0" ry="0" style="stroke:none;fill:#003366;"/>
</a>
<a xlink:href="decimal-0x7f96535bbe00.svg">
<text x="125.150000" y="46.000000" font-family="Arial" font-size="7" text-anchor="middle" fill="#FFFFFF">decimal</text>
</a>
<circle cx="107.800000" cy="34.000000" r="1"/>
<line x1="102.800000" y1="43.000000" x2="105.800000" y2="44.000000"  transform="rotate(0.000000,105.800000,44.000000)" style="stroke: black; stroke-width:0.25;"/>
<line x1="102.800000" y1="45.000000" x2="105.800000" y2="44.000000"  transform="rotate(0.000000,105.800000,44.000000)" style="stroke: black; stroke-width:0.25;"/>
<line x1="146.500000" y1="44.000000" x2="146.500000" y2="40.000000"  style="stroke:black; stroke-linecap:round; stroke-width:0.25;"/>
<line x1="146.500000" y1="40.000000" x2="150.500000" y2="40.000000"  style="stroke:black; stroke-linecap:round; stroke-width:0.25;"/>
<line x1="150.500000" y1="40.000000" x2="150.500000" y2="44.000000"  style="stroke:black; stroke-linecap:round; stroke-width:0.25;"/>
<line x1="15.000000" y1="15.000000" x2="15.000000" y2="65.000000"  style="stroke: black; stroke-linecap:round; stroke-width:0.25; stroke-dasharray:3,3;"/>
<line x1="15.000000" y1="65.000000" x2="177.500000" y2="65.000000"  style="stroke: black; stroke-linecap:round; stroke-width:0.25; stroke-dasharray:3,3;"/>
<line x1="177.500000" y1="65.000000" x2="177.500000" y2="15.000000"  style="stroke: black; stroke-linecap:round; stroke-width:0.25; stroke-dasharray:3,3;"/>
<line x1="15.000000" y1="15.000000" x2="20.000000" y2="15.000000"  style="stroke: black; stroke-linecap:round; stroke-width:0.25; stroke-dasharray:3,3;"/>
<line x1="119.975000" y1="15.000000" x2="177.500000" y2="15.000000"  style="stroke: black; stroke-linecap:round; stroke-width:0.25; stroke-dasharray:3,3;"/>
<text x="20.000000" y="17.000000" font-family="Arial" font-size="7">phasor(x1,(19...) : min) : /)</text>
<line x1="179.500000" y1="39.000000" x2="182.500000" y2="40.000000"  transform="rotate(0.000000,182.500000,40.000000)" style="stroke: black; stroke-width:0.25;"/>
<line x1="179.500000" y1="41.000000" x2="182.500000" y2="40.000000"  transform="rotate(0.000000,182.500000,40.000000)" style="stroke: black; stroke-width:0.25;"/>
<line x1="49.800000" y1="40.000000" x2="53.800000" y2="40.000000"  style="stroke:black; stroke-linecap:round; stroke-width:0.25;"/>
<line x1="53.800000" y1="40.000000" x2="61.800000" y2="40.000000"  style="stroke:black; stroke-linecap:round; stroke-width:0.25;"/>
<line x1="61.800000" y1="40.000000" x2="61.800000" y2="48.000000"  style="stroke:black; stroke-linecap:round; stroke-width:0.25;"/>
<line x1="61.800000" y1="48.000000" x2="61.800000" y2="48.000000"  style="stroke:black; stroke-linecap:round; stroke-width:0.25;"/>
<line x1="61.800000" y1="48.000000" x2="69.800000" y2="48.000000"  style="stroke:black; stroke-linecap:round; stroke-width:0.25;"/>
<line x1="69.800000" y1="24.000000" x2="69.800000" y2="24.000000"  style="stroke:black; stroke-linecap:round; stroke-width:0.25;"/>
<line x1="69.800000" y1="24.000000" x2="69.800000" y2="40.000000"  style="stroke:black; stroke-linecap:round; stroke-width:0.25;"/>
<line x1="69.800000" y1="40.000000" x2="69.800000" y2="40.000000"  style="stroke:black; stroke-linecap:round; stroke-width:0.25;"/>
<line x1="69.800000" y1="40.000000" x2="73.800000" y2="40.000000"  style="stroke:black; stroke-linecap:round; stroke-width:0.25;"/>
<line x1="69.800000" y1="48.000000" x2="73.800000" y2="48.000000"  style="stroke:black; stroke-linecap:round; stroke-width:0.25;"/>
<line x1="97.800000" y1="44.000000" x2="101.800000" y2="44.000000"  style="stroke:black; stroke-linecap:round; stroke-width:0.25;"/>
<line x1="101.800000" y1="44.000000" x2="101.800000" y2="44.000000"  style="stroke:black; stroke-linecap:round; stroke-width:0.25;"/>
<line x1="101.800000" y1="44.000000" x2="105.800000" y2="44.000000"  style="stroke:black; stroke-linecap:round; stroke-width:0.25;"/>
<line x1="109.150000" y1="24.000000" x2="69.800000" y2="24.000000"  style="stroke:black; stroke-linecap:round; stroke-width:0.25;"/>
<line x1="144.500000" y1="44.000000" x2="148.500000" y2="44.000000"  style="stroke:black; stroke-linecap:round; stroke-width:0.25;"/>
<line x1="148.500000" y1="24.000000" x2="109.150000" y2="24.000000"  style="stroke:black; stroke-linecap:round; stroke-width:0.25;"/>
<line x1="148.500000" y1="24.000000" x2="148.500000" y2="24.000000"  style="stroke:black; stroke-linecap:round; stroke-width:0.25;"/>
<line x1="148.500000" y1="40.000000" x2="148.500000" y2="24.000000"  style="stroke:black; stroke-linecap:round; stroke-width:0.25;"/>
<line x1="148.500000" y1="44.000000" x2="150.500000" y2="44.000000"  style="stroke:black; stroke-linecap:round; stroke-width:0.25;"/>
<line x1="150.500000" y1="44.000000" x2="156.500000" y2="44.000000"  style="stroke:black; stroke-linecap:round; stroke-width:0.25;"/>
<line x1="156.500000" y1="40.000000" x2="164.500000" y2="40.000000"  style="stroke:black; stroke-linecap:round; stroke-width:0.25;"/>
<line x1="156.500000" y1="44.000000" x2="156.500000" y2="40.000000"  style="stroke:black; stroke-linecap:round; stroke-width:0.25;"/>
<line x1="156.500000" y1="44.000000" x2="156.500000" y2="44.000000"  style="stroke:black; stroke-linecap:round; stroke-width:0.25;"/>
<line x1="164.500000" y1="40.000000" x2="168.500000" y2="40.000000"  style="stroke:black; stroke-linecap:round; stroke-width:0.25;"/>
<line x1="168.500000" y1="40.000000" x2="172.500000" y2="40.000000"  style="stroke:black; stroke-linecap:round; stroke-width:0.25;"/>
<line x1="172.500000" y1="40.000000" x2="182.500000" y2="40.000000"  style="stroke:black; stroke-linecap:round; stroke-width:0.25;"/>
</svg>
