<?xml version="1.0"?>
<svg xmlns="http://www.w3.org/2000/svg" xmlns:xlink="http://www.w3.org/1999/xlink" viewBox="0 0 563.700000 156.000000" width="281.850000mm" height="78.000000mm" version="1.1">
<a xlink:href="process.svg">
<rect x="1.000000" y="1.000000" width="562.700000" height="155.000000" rx="0" ry="0" style="stroke:none;fill:#cccccc;"/>
<rect x="0.000000" y="0.000000" width="562.700000" height="155.000000" rx="0" ry="0" style="stroke:none;fill:#ffffff;"/>
</a>
<text x="10.000000" y="7.000000" font-family="Arial" font-size="7"></text>
<a xlink:href="phasor-0x7fe0eff1dba0.svg">
<rect x="25.000000" y="25.000000" width="129.000000" height="24.000000" rx="0" ry="0" style="stroke:none;fill:#cccccc;"/>
<rect x="24.000000" y="24.000000" width="129.000000" height="24.000000" rx="0" ry="0" style="stroke:none;fill:#003366;"/>
</a>
<a xlink:href="phasor-0x7fe0eff1dba0.svg">
<text x="88.500000" y="38.000000" font-family="Arial" font-size="7" text-anchor="middle" fill="#FFFFFF">phasor(x1,(19...) : min) : /)</text>
</a>
<circle cx="26.000000" cy="26.000000" r="1"/>
<rect x="77.500000" y="57.000000" width="24.000000" height="24.000000" rx="0" ry="0" style="stroke:none;fill:#cccccc;"/>
<rect x="76.500000" y="56.000000" width="24.000000" height="24.000000" rx="0" ry="0" style="stroke:none;fill:#f44800;"/>
<text x="88.500000" y="70.000000" font-family="Arial" font-size="7" text-anchor="middle" fill="#FFFFFF">-1</text>
<circle cx="78.500000" cy="58.000000" r="1"/>
<rect x="170.000000" y="41.000000" width="24.000000" height="24.000000" rx="0" ry="0" style="stroke:none;fill:#cccccc;"/>
<rect x="169.000000" y="40.000000" width="24.000000" height="24.000000" rx="0" ry="0" style="stroke:none;fill:#4B71A1;"/>
<text x="181.000000" y="54.000000" font-family="Arial" font-size="7" text-anchor="middle" fill="#FFFFFF">*</text>
<circle cx="171.000000" cy="42.000000" r="1"/>
<line x1="166.000000" y1="47.000000" x2="169.000000" y2="48.000000"  transform="rotate(0.000000,169.000000,48.000000)" style="stroke: black; stroke-width:0.25;"/>
<line x1="166.000000" y1="49.000000" x2="169.000000" y2="48.000000"  transform="rotate(0.000000,169.000000,48.000000)" style="stroke: black; stroke-width:0.25;"/>
<line x1="166.000000" y1="55.000000" x2="169.000000" y2="56.000000"  transform="rotate(0.000000,169.000000,56.000000)" style="stroke: black; stroke-width:0.25;"/>
<line x1="166.000000" y1="57.000000" x2="169.000000" y2="56.000000"  transform="rotate(0.000000,169.000000,56.000000)" style="stroke: black; stroke-width:0.25;"/>
<rect x="90.150000" y="99.000000" width="38.700000" height="24.000000" rx="0" ry="0" style="stroke:none;fill:#cccccc;"/>
<rect x="89.150000" y="98.000000" width="38.700000" height="24.000000" rx="0" ry="0" style="stroke:none;fill:#f44800;"/>
<text x="108.500000" y="112.000000" font-family="Arial" font-size="7" text-anchor="middle" fill="#FFFFFF">3.14159</text>
<circle cx="91.150000" cy="100.000000" r="1"/>
<line x1="80.150000" y1="89.000000" x2="80.150000" y2="131.000000"  style="stroke: black; stroke-linecap:round; stroke-width:0.25; stroke-dasharray:3,3;"/>
<line x1="80.150000" y1="131.000000" x2="136.850000" y2="131.000000"  style="stroke: black; stroke-linecap:round; stroke-width:0.25; stroke-dasharray:3,3;"/>
<line x1="136.850000" y1="131.000000" x2="136.850000" y2="89.000000"  style="stroke: black; stroke-linecap:round; stroke-width:0.25; stroke-dasharray:3,3;"/>
<line x1="80.150000" y1="89.000000" x2="85.150000" y2="89.000000"  style="stroke: black; stroke-linecap:round; stroke-width:0.25; stroke-dasharray:3,3;"/>
<line x1="98.050000" y1="89.000000" x2="136.850000" y2="89.000000"  style="stroke: black; stroke-linecap:round; stroke-width:0.25; stroke-dasharray:3,3;"/>
<text x="85.150000" y="91.000000" font-family="Arial" font-size="7">PI</text>
<rect x="210.000000" y="67.000000" width="24.000000" height="24.000000" rx="0" ry="0" style="stroke:none;fill:#cccccc;"/>
<rect x="209.000000" y="66.000000" width="24.000000" height="24.000000" rx="0" ry="0" style="stroke:none;fill:#4B71A1;"/>
<text x="221.000000" y="80.000000" font-family="Arial" font-size="7" text-anchor="middle" fill="#FFFFFF">*</text>
<circle cx="211.000000" cy="68.000000" r="1"/>
<line x1="206.000000" y1="73.000000" x2="209.000000" y2="74.000000"  transform="rotate(0.000000,209.000000,74.000000)" style="stroke: black; stroke-width:0.25;"/>
<line x1="206.000000" y1="75.000000" x2="209.000000" y2="74.000000"  transform="rotate(0.000000,209.000000,74.000000)" style="stroke: black; stroke-width:0.25;"/>
<line x1="206.000000" y1="81.000000" x2="209.000000" y2="82.000000"  transform="rotate(0.000000,209.000000,82.000000)" style="stroke: black; stroke-width:0.25;"/>
<line x1="206.000000" y1="83.000000" x2="209.000000" y2="82.000000"  transform="rotate(0.000000,209.000000,82.000000)" style="stroke: black; stroke-width:0.25;"/>
<rect x="242.000000" y="67.000000" width="24.000000" height="24.000000" rx="0" ry="0" style="stroke:none;fill:#cccccc;"/>
<rect x="241.000000" y="66.000000" width="24.000000" height="24.000000" rx="0" ry="0" style="stroke:none;fill:#4B71A1;"/>
<text x="253.000000" y="80.000000" font-family="Arial" font-size="7" text-anchor="middle" fill="#FFFFFF">sin</text>
<circle cx="243.000000" cy="68.000000" r="1"/>
<line x1="238.000000" y1="77.000000" x2="241.000000" y2="78.000000"  transform="rotate(0.000000,241.000000,78.000000)" style="stroke: black; stroke-width:0.25;"/>
<line x1="238.000000" y1="79.000000" x2="241.000000" y2="78.000000"  transform="rotate(0.000000,241.000000,78.000000)" style="stroke: black; stroke-width:0.25;"/>
<rect x="282.000000" y="71.000000" width="24.000000" height="24.000000" rx="0" ry="0" style="stroke:none;fill:#cccccc;"/>
<rect x="281.000000" y="70.000000" width="24.000000" height="24.000000" rx="0" ry="0" style="stroke:none;fill:#f44800;"/>
<text x="293.000000" y="84.000000" font-family="Arial" font-size="7" text-anchor="middle" fill="#FFFFFF">0.5</text>
<circle cx="283.000000" cy="72.000000" r="1"/>
<rect x="322.000000" y="67.000000" width="24.000000" height="24.000000" rx="0" ry="0" style="stroke:none;fill:#cccccc;"/>
<rect x="321.000000" y="66.000000" width="24.000000" height="24.000000" rx="0" ry="0" style="stroke:none;fill:#4B71A1;"/>
<text x="333.000000" y="80.000000" font-family="Arial" font-size="7" text-anchor="middle" fill="#FFFFFF">+</text>
<circle cx="323.000000" cy="68.000000" r="1"/>
<line x1="318.000000" y1="73.000000" x2="321.000000" y2="74.000000"  transform="rotate(0.000000,321.000000,74.000000)" style="stroke: black; stroke-width:0.25;"/>
<line x1="318.000000" y1="75.000000" x2="321.000000" y2="74.000000"  transform="rotate(0.000000,321.000000,74.000000)" style="stroke: black; stroke-width:0.25;"/>
<line x1="318.000000" y1="81.000000" x2="321.000000" y2="82.000000"  transform="rotate(0.000000,321.000000,82.000000)" style="stroke: black; stroke-width:0.25;"/>
<line x1="318.000000" y1="83.000000" x2="321.000000" y2="82.000000"  transform="rotate(0.000000,321.000000,82.000000)" style="stroke: black; stroke-width:0.25;"/>
<rect x="378.450000" y="45.000000" width="25.800000" height="24.000000" rx="0" ry="0" style="stroke:none;fill:#cccccc;"/>
<rect x="377.450000" y="44.000000" width="25.800000" height="24.000000" rx="0" ry="0" style="stroke:none;fill:#47945E;"/>
<text x="390.350000" y="58.000000" font-family="Arial" font-size="7" text-anchor="middle" fill="#FFFFFF">shape</text>
<circle cx="379.450000" cy="46.000000" r="1"/>
<rect x="372.000000" y="87.000000" width="38.700000" height="24.000000" rx="0" ry="0" style="stroke:none;fill:#cccccc;"/>
<rect x="371.000000" y="86.000000" width="38.700000" height="24.000000" rx="0" ry="0" style="stroke:none;fill:#f44800;"/>
<text x="390.350000" y="100.000000" font-family="Arial" font-size="7" text-anchor="middle" fill="#FFFFFF">3.14159</text>
<circle cx="373.000000" cy="88.000000" r="1"/>
<line x1="362.000000" y1="77.000000" x2="362.000000" y2="119.000000"  style="stroke: black; stroke-linecap:round; stroke-width:0.25; stroke-dasharray:3,3;"/>
<line x1="362.000000" y1="119.000000" x2="418.700000" y2="119.000000"  style="stroke: black; stroke-linecap:round; stroke-width:0.25; stroke-dasharray:3,3;"/>
<line x1="418.700000" y1="119.000000" x2="418.700000" y2="77.000000"  style="stroke: black; stroke-linecap:round; stroke-width:0.25; stroke-dasharray:3,3;"/>
<line x1="362.000000" y1="77.000000" x2="367.000000" y2="77.000000"  style="stroke: black; stroke-linecap:round; stroke-width:0.25; stroke-dasharray:3,3;"/>
<line x1="379.900000" y1="77.000000" x2="418.700000" y2="77.000000"  style="stroke: black; stroke-linecap:round; stroke-width:0.25; stroke-dasharray:3,3;"/>
<text x="367.000000" y="79.000000" font-family="Arial" font-size="7">PI</text>
<rect x="436.700000" y="71.000000" width="24.000000" height="24.000000" rx="0" ry="0" style="stroke:none;fill:#cccccc;"/>
<rect x="435.700000" y="70.000000" width="24.000000" height="24.000000" rx="0" ry="0" style="stroke:none;fill:#4B71A1;"/>
<text x="447.700000" y="84.000000" font-family="Arial" font-size="7" text-anchor="middle" fill="#FFFFFF">*</text>
<circle cx="437.700000" cy="72.000000" r="1"/>
<line x1="432.700000" y1="77.000000" x2="435.700000" y2="78.000000"  transform="rotate(0.000000,435.700000,78.000000)" style="stroke: black; stroke-width:0.25;"/>
<line x1="432.700000" y1="79.000000" x2="435.700000" y2="78.000000"  transform="rotate(0.000000,435.700000,78.000000)" style="stroke: black; stroke-width:0.25;"/>
<line x1="432.700000" y1="85.000000" x2="435.700000" y2="86.000000"  transform="rotate(0.000000,435.700000,86.000000)" style="stroke: black; stroke-width:0.25;"/>
<line x1="432.700000" y1="87.000000" x2="435.700000" y2="86.000000"  transform="rotate(0.000000,435.700000,86.000000)" style="stroke: black; stroke-width:0.25;"/>
<rect x="468.700000" y="71.000000" width="24.000000" height="24.000000" rx="0" ry="0" style="stroke:none;fill:#cccccc;"/>
<rect x="467.700000" y="70.000000" width="24.000000" height="24.000000" rx="0" ry="0" style="stroke:none;fill:#4B71A1;"/>
<text x="479.700000" y="84.000000" font-family="Arial" font-size="7" text-anchor="middle" fill="#FFFFFF">cos</text>
<circle cx="469.700000" cy="72.000000" r="1"/>
<line x1="464.700000" y1="81.000000" x2="467.700000" y2="82.000000"  transform="rotate(0.000000,467.700000,82.000000)" style="stroke: black; stroke-width:0.25;"/>
<line x1="464.700000" y1="83.000000" x2="467.700000" y2="82.000000"  transform="rotate(0.000000,467.700000,82.000000)" style="stroke: black; stroke-width:0.25;"/>
<rect x="508.700000" y="67.000000" width="24.000000" height="24.000000" rx="0" ry="0" style="stroke:none;fill:#cccccc;"/>
<rect x="507.700000" y="66.000000" width="24.000000" height="24.000000" rx="0" ry="0" style="stroke:none;fill:#4B71A1;"/>
<text x="519.700000" y="80.000000" font-family="Arial" font-size="7" text-anchor="middle" fill="#FFFFFF">*</text>
<circle cx="509.700000" cy="68.000000" r="1"/>
<line x1="504.700000" y1="73.000000" x2="507.700000" y2="74.000000"  transform="rotate(0.000000,507.700000,74.000000)" style="stroke: black; stroke-width:0.25;"/>
<line x1="504.700000" y1="75.000000" x2="507.700000" y2="74.000000"  transform="rotate(0.000000,507.700000,74.000000)" style="stroke: black; stroke-width:0.25;"/>
<line x1="504.700000" y1="81.000000" x2="507.700000" y2="82.000000"  transform="rotate(0.000000,507.700000,82.000000)" style="stroke: black; stroke-width:0.25;"/>
<line x1="504.700000" y1="83.000000" x2="507.700000" y2="82.000000"  transform="rotate(0.000000,507.700000,82.000000)" style="stroke: black; stroke-width:0.25;"/>
<line x1="15.000000" y1="15.000000" x2="15.000000" y2="141.000000"  style="stroke: black; stroke-linecap:round; stroke-width:0.25; stroke-dasharray:3,3;"/>
<line x1="15.000000" y1="141.000000" x2="548.700000" y2="141.000000"  style="stroke: black; stroke-linecap:round; stroke-width:0.25; stroke-dasharray:3,3;"/>
<line x1="548.700000" y1="141.000000" x2="548.700000" y2="15.000000"  style="stroke: black; stroke-linecap:round; stroke-width:0.25; stroke-dasharray:3,3;"/>
<line x1="15.000000" y1="15.000000" x2="20.000000" y2="15.000000"  style="stroke: black; stroke-linecap:round; stroke-width:0.25; stroke-dasharray:3,3;"/>
<line x1="42.575000" y1="15.000000" x2="548.700000" y2="15.000000"  style="stroke: black; stroke-linecap:round; stroke-width:0.25; stroke-dasharray:3,3;"/>
<text x="20.000000" y="17.000000" font-family="Arial" font-size="7">wsine</text>
<line x1="550.700000" y1="77.000000" x2="553.700000" y2="78.000000"  transform="rotate(0.000000,553.700000,78.000000)" style="stroke: black; stroke-width:0.25;"/>
<line x1="550.700000" y1="79.000000" x2="553.700000" y2="78.000000"  transform="rotate(0.000000,553.700000,78.000000)" style="stroke: black; stroke-width:0.25;"/>
<line x1="100.500000" y1="68.000000" x2="104.500000" y2="68.000000"  style="stroke:black; stroke-linecap:round; stroke-width:0.25;"/>
<line x1="104.500000" y1="68.000000" x2="157.000000" y2="68.000000"  style="stroke:black; stroke-linecap:round; stroke-width:0.25;"/>
<line x1="127.850000" y1="110.000000" x2="131.850000" y2="110.000000"  style="stroke:black; stroke-linecap:round; stroke-width:0.25;"/>
<line x1="131.850000" y1="110.000000" x2="141.850000" y2="110.000000"  style="stroke:black; stroke-linecap:round; stroke-width:0.25;"/>
<line x1="141.850000" y1="110.000000" x2="197.000000" y2="110.000000"  style="stroke:black; stroke-linecap:round; stroke-width:0.25;"/>
<line x1="153.000000" y1="36.000000" x2="157.000000" y2="36.000000"  style="stroke:black; stroke-linecap:round; stroke-width:0.25;"/>
<line x1="157.000000" y1="36.000000" x2="165.000000" y2="36.000000"  style="stroke:black; stroke-linecap:round; stroke-width:0.25;"/>
<line x1="157.000000" y1="56.000000" x2="165.000000" y2="56.000000"  style="stroke:black; stroke-linecap:round; stroke-width:0.25;"/>
<line x1="157.000000" y1="68.000000" x2="157.000000" y2="56.000000"  style="stroke:black; stroke-linecap:round; stroke-width:0.25;"/>
<line x1="157.000000" y1="68.000000" x2="157.000000" y2="68.000000"  style="stroke:black; stroke-linecap:round; stroke-width:0.25;"/>
<line x1="165.000000" y1="36.000000" x2="165.000000" y2="48.000000"  style="stroke:black; stroke-linecap:round; stroke-width:0.25;"/>
<line x1="165.000000" y1="48.000000" x2="165.000000" y2="48.000000"  style="stroke:black; stroke-linecap:round; stroke-width:0.25;"/>
<line x1="165.000000" y1="48.000000" x2="169.000000" y2="48.000000"  style="stroke:black; stroke-linecap:round; stroke-width:0.25;"/>
<line x1="165.000000" y1="56.000000" x2="169.000000" y2="56.000000"  style="stroke:black; stroke-linecap:round; stroke-width:0.25;"/>
<line x1="193.000000" y1="52.000000" x2="197.000000" y2="52.000000"  style="stroke:black; stroke-linecap:round; stroke-width:0.25;"/>
<line x1="197.000000" y1="52.000000" x2="205.000000" y2="52.000000"  style="stroke:black; stroke-linecap:round; stroke-width:0.25;"/>
<line x1="197.000000" y1="82.000000" x2="205.000000" y2="82.000000"  style="stroke:black; stroke-linecap:round; stroke-width:0.25;"/>
<line x1="197.000000" y1="110.000000" x2="197.000000" y2="82.000000"  style="stroke:black; stroke-linecap:round; stroke-width:0.25;"/>
<line x1="197.000000" y1="110.000000" x2="197.000000" y2="110.000000"  style="stroke:black; stroke-linecap:round; stroke-width:0.25;"/>
<line x1="205.000000" y1="52.000000" x2="205.000000" y2="74.000000"  style="stroke:black; stroke-linecap:round; stroke-width:0.25;"/>
<line x1="205.000000" y1="74.000000" x2="205.000000" y2="74.000000"  style="stroke:black; stroke-linecap:round; stroke-width:0.25;"/>
<line x1="205.000000" y1="74.000000" x2="209.000000" y2="74.000000"  style="stroke:black; stroke-linecap:round; stroke-width:0.25;"/>
<line x1="205.000000" y1="82.000000" x2="209.000000" y2="82.000000"  style="stroke:black; stroke-linecap:round; stroke-width:0.25;"/>
<line x1="233.000000" y1="78.000000" x2="237.000000" y2="78.000000"  style="stroke:black; stroke-linecap:round; stroke-width:0.25;"/>
<line x1="237.000000" y1="78.000000" x2="237.000000" y2="78.000000"  style="stroke:black; stroke-linecap:round; stroke-width:0.25;"/>
<line x1="237.000000" y1="78.000000" x2="241.000000" y2="78.000000"  style="stroke:black; stroke-linecap:round; stroke-width:0.25;"/>
<line x1="265.000000" y1="78.000000" x2="269.000000" y2="78.000000"  style="stroke:black; stroke-linecap:round; stroke-width:0.25;"/>
<line x1="269.000000" y1="62.000000" x2="277.000000" y2="62.000000"  style="stroke:black; stroke-linecap:round; stroke-width:0.25;"/>
<line x1="269.000000" y1="78.000000" x2="269.000000" y2="62.000000"  style="stroke:black; stroke-linecap:round; stroke-width:0.25;"/>
<line x1="269.000000" y1="78.000000" x2="269.000000" y2="78.000000"  style="stroke:black; stroke-linecap:round; stroke-width:0.25;"/>
<line x1="277.000000" y1="62.000000" x2="293.000000" y2="62.000000"  style="stroke:black; stroke-linecap:round; stroke-width:0.25;"/>
<line x1="293.000000" y1="62.000000" x2="309.000000" y2="62.000000"  style="stroke:black; stroke-linecap:round; stroke-width:0.25;"/>
<line x1="305.000000" y1="82.000000" x2="309.000000" y2="82.000000"  style="stroke:black; stroke-linecap:round; stroke-width:0.25;"/>
<line x1="309.000000" y1="62.000000" x2="317.000000" y2="62.000000"  style="stroke:black; stroke-linecap:round; stroke-width:0.25;"/>
<line x1="309.000000" y1="82.000000" x2="317.000000" y2="82.000000"  style="stroke:black; stroke-linecap:round; stroke-width:0.25;"/>
<line x1="317.000000" y1="62.000000" x2="317.000000" y2="74.000000"  style="stroke:black; stroke-linecap:round; stroke-width:0.25;"/>
<line x1="317.000000" y1="74.000000" x2="317.000000" y2="74.000000"  style="stroke:black; stroke-linecap:round; stroke-width:0.25;"/>
<line x1="317.000000" y1="74.000000" x2="321.000000" y2="74.000000"  style="stroke:black; stroke-linecap:round; stroke-width:0.25;"/>
<line x1="317.000000" y1="82.000000" x2="321.000000" y2="82.000000"  style="stroke:black; stroke-linecap:round; stroke-width:0.25;"/>
<line x1="345.000000" y1="78.000000" x2="349.000000" y2="78.000000"  style="stroke:black; stroke-linecap:round; stroke-width:0.25;"/>
<line x1="349.000000" y1="36.000000" x2="357.000000" y2="36.000000"  style="stroke:black; stroke-linecap:round; stroke-width:0.25;"/>
<line x1="349.000000" y1="78.000000" x2="349.000000" y2="36.000000"  style="stroke:black; stroke-linecap:round; stroke-width:0.25;"/>
<line x1="349.000000" y1="78.000000" x2="349.000000" y2="78.000000"  style="stroke:black; stroke-linecap:round; stroke-width:0.25;"/>
<line x1="357.000000" y1="36.000000" x2="426.350000" y2="36.000000"  style="stroke:black; stroke-linecap:round; stroke-width:0.25;"/>
<line x1="403.250000" y1="56.000000" x2="407.250000" y2="56.000000"  style="stroke:black; stroke-linecap:round; stroke-width:0.25;"/>
<line x1="407.250000" y1="56.000000" x2="423.700000" y2="56.000000"  style="stroke:black; stroke-linecap:round; stroke-width:0.25;"/>
<line x1="409.700000" y1="98.000000" x2="413.700000" y2="98.000000"  style="stroke:black; stroke-linecap:round; stroke-width:0.25;"/>
<line x1="413.700000" y1="98.000000" x2="423.700000" y2="98.000000"  style="stroke:black; stroke-linecap:round; stroke-width:0.25;"/>
<line x1="423.700000" y1="56.000000" x2="431.700000" y2="56.000000"  style="stroke:black; stroke-linecap:round; stroke-width:0.25;"/>
<line x1="423.700000" y1="86.000000" x2="431.700000" y2="86.000000"  style="stroke:black; stroke-linecap:round; stroke-width:0.25;"/>
<line x1="423.700000" y1="98.000000" x2="423.700000" y2="86.000000"  style="stroke:black; stroke-linecap:round; stroke-width:0.25;"/>
<line x1="423.700000" y1="98.000000" x2="423.700000" y2="98.000000"  style="stroke:black; stroke-linecap:round; stroke-width:0.25;"/>
<line x1="426.350000" y1="36.000000" x2="495.700000" y2="36.000000"  style="stroke:black; stroke-linecap:round; stroke-width:0.25;"/>
<line x1="431.700000" y1="56.000000" x2="431.700000" y2="78.000000"  style="stroke:black; stroke-linecap:round; stroke-width:0.25;"/>
<line x1="431.700000" y1="78.000000" x2="431.700000" y2="78.000000"  style="stroke:black; stroke-linecap:round; stroke-width:0.25;"/>
<line x1="431.700000" y1="78.000000" x2="435.700000" y2="78.000000"  style="stroke:black; stroke-linecap:round; stroke-width:0.25;"/>
<line x1="431.700000" y1="86.000000" x2="435.700000" y2="86.000000"  style="stroke:black; stroke-linecap:round; stroke-width:0.25;"/>
<line x1="459.700000" y1="82.000000" x2="463.700000" y2="82.000000"  style="stroke:black; stroke-linecap:round; stroke-width:0.25;"/>
<line x1="463.700000" y1="82.000000" x2="463.700000" y2="82.000000"  style="stroke:black; stroke-linecap:round; stroke-width:0.25;"/>
<line x1="463.700000" y1="82.000000" x2="467.700000" y2="82.000000"  style="stroke:black; stroke-linecap:round; stroke-width:0.25;"/>
<line x1="491.700000" y1="82.000000" x2="495.700000" y2="82.000000"  style="stroke:black; stroke-linecap:round; stroke-width:0.25;"/>
<line x1="495.700000" y1="82.000000" x2="503.700000" y2="82.000000"  style="stroke:black; stroke-linecap:round; stroke-width:0.25;"/>
<line x1="495.700000" y1="36.000000" x2="503.700000" y2="36.000000"  style="stroke:black; stroke-linecap:round; stroke-width:0.25;"/>
<line x1="503.700000" y1="74.000000" x2="507.700000" y2="74.000000"  style="stroke:black; stroke-linecap:round; stroke-width:0.25;"/>
<line x1="503.700000" y1="82.000000" x2="507.700000" y2="82.000000"  style="stroke:black; stroke-linecap:round; stroke-width:0.25;"/>
<line x1="503.700000" y1="36.000000" x2="503.700000" y2="74.000000"  style="stroke:black; stroke-linecap:round; stroke-width:0.25;"/>
<line x1="503.700000" y1="74.000000" x2="503.700000" y2="74.000000"  style="stroke:black; stroke-linecap:round; stroke-width:0.25;"/>
<line x1="531.700000" y1="78.000000" x2="535.700000" y2="78.000000"  style="stroke:black; stroke-linecap:round; stroke-width:0.25;"/>
<line x1="535.700000" y1="78.000000" x2="535.700000" y2="78.000000"  style="stroke:black; stroke-linecap:round; stroke-width:0.25;"/>
<line x1="535.700000" y1="78.000000" x2="539.700000" y2="78.000000"  style="stroke:black; stroke-linecap:round; stroke-width:0.25;"/>
<line x1="539.700000" y1="78.000000" x2="543.700000" y2="78.000000"  style="stroke:black; stroke-linecap:round; stroke-width:0.25;"/>
<line x1="543.700000" y1="78.000000" x2="553.700000" y2="78.000000"  style="stroke:black; stroke-linecap:round; stroke-width:0.25;"/>
</svg>
