<?xml version="1.0"?>
<svg xmlns="http://www.w3.org/2000/svg" xmlns:xlink="http://www.w3.org/1999/xlink" viewBox="0 0 426.600000 120.000000" width="213.300000mm" height="60.000000mm" version="1.1">
<a xlink:href="process.svg">
<rect x="1.000000" y="1.000000" width="425.600000" height="119.000000" rx="0" ry="0" style="stroke:none;fill:#cccccc;"/>
<rect x="0.000000" y="0.000000" width="425.600000" height="119.000000" rx="0" ry="0" style="stroke:none;fill:#ffffff;"/>
</a>
<text x="10.000000" y="7.000000" font-family="Arial" font-size="7"></text>
<rect x="71.000000" y="65.000000" width="24.000000" height="24.000000" rx="0" ry="0" style="stroke:none;fill:#cccccc;"/>
<rect x="70.000000" y="64.000000" width="24.000000" height="24.000000" rx="0" ry="0" style="stroke:none;fill:#4B71A1;"/>
<text x="82.000000" y="78.000000" font-family="Arial" font-size="7" text-anchor="middle" fill="#FFFFFF">+</text>
<circle cx="72.000000" cy="66.000000" r="1"/>
<line x1="67.000000" y1="71.000000" x2="70.000000" y2="72.000000"  transform="rotate(0.000000,70.000000,72.000000)" style="stroke: black; stroke-width:0.25;"/>
<line x1="67.000000" y1="73.000000" x2="70.000000" y2="72.000000"  transform="rotate(0.000000,70.000000,72.000000)" style="stroke: black; stroke-width:0.25;"/>
<line x1="67.000000" y1="79.000000" x2="70.000000" y2="80.000000"  transform="rotate(0.000000,70.000000,80.000000)" style="stroke: black; stroke-width:0.25;"/>
<line x1="67.000000" y1="81.000000" x2="70.000000" y2="80.000000"  transform="rotate(0.000000,70.000000,80.000000)" style="stroke: black; stroke-width:0.25;"/>
<a xlink:href="delay-0x7f855bf9c460.svg">
<rect x="103.000000" y="65.000000" width="154.800000" height="24.000000" rx="0" ry="0" style="stroke:none;fill:#cccccc;"/>
<rect x="102.000000" y="64.000000" width="154.800000" height="24.000000" rx="0" ry="0" style="stroke:none;fill:#003366;"/>
</a>
<a xlink:href="delay-0x7f855bf9c460.svg">
<text x="179.400000" y="78.000000" font-family="Arial" font-size="7" text-anchor="middle" fill="#FFFFFF">delay((192000...: min),2 : /)(511)</text>
</a>
<circle cx="104.000000" cy="66.000000" r="1"/>
<line x1="99.000000" y1="75.000000" x2="102.000000" y2="76.000000"  transform="rotate(0.000000,102.000000,76.000000)" style="stroke: black; stroke-width:0.25;"/>
<line x1="99.000000" y1="77.000000" x2="102.000000" y2="76.000000"  transform="rotate(0.000000,102.000000,76.000000)" style="stroke: black; stroke-width:0.25;"/>
<rect x="172.400000" y="25.000000" width="24.000000" height="24.000000" rx="0" ry="0" style="stroke:none;fill:#cccccc;"/>
<rect x="171.400000" y="24.000000" width="24.000000" height="24.000000" rx="0" ry="0" style="stroke:none;fill:#f44800;"/>
<text x="183.400000" y="38.000000" font-family="Arial" font-size="7" text-anchor="middle" fill="#FFFFFF">0.9</text>
<circle cx="193.400000" cy="46.000000" r="1"/>
<rect x="132.400000" y="29.000000" width="24.000000" height="24.000000" rx="0" ry="0" style="stroke:none;fill:#cccccc;"/>
<rect x="131.400000" y="28.000000" width="24.000000" height="24.000000" rx="0" ry="0" style="stroke:none;fill:#4B71A1;"/>
<text x="143.400000" y="42.000000" font-family="Arial" font-size="7" text-anchor="middle" fill="#FFFFFF">*</text>
<circle cx="153.400000" cy="50.000000" r="1"/>
<line x1="158.400000" y1="43.000000" x2="155.400000" y2="44.000000"  transform="rotate(0.000000,155.400000,44.000000)" style="stroke: black; stroke-width:0.25;"/>
<line x1="158.400000" y1="45.000000" x2="155.400000" y2="44.000000"  transform="rotate(0.000000,155.400000,44.000000)" style="stroke: black; stroke-width:0.25;"/>
<line x1="158.400000" y1="35.000000" x2="155.400000" y2="36.000000"  transform="rotate(0.000000,155.400000,36.000000)" style="stroke: black; stroke-width:0.25;"/>
<line x1="158.400000" y1="37.000000" x2="155.400000" y2="36.000000"  transform="rotate(0.000000,155.400000,36.000000)" style="stroke: black; stroke-width:0.25;"/>
<line x1="258.800000" y1="76.000000" x2="258.800000" y2="72.000000"  style="stroke:black; stroke-linecap:round; stroke-width:0.25;"/>
<line x1="258.800000" y1="72.000000" x2="262.800000" y2="72.000000"  style="stroke:black; stroke-linecap:round; stroke-width:0.25;"/>
<line x1="262.800000" y1="72.000000" x2="262.800000" y2="76.000000"  style="stroke:black; stroke-linecap:round; stroke-width:0.25;"/>
<rect x="289.800000" y="33.000000" width="25.800000" height="24.000000" rx="0" ry="0" style="stroke:none;fill:#cccccc;"/>
<rect x="288.800000" y="32.000000" width="25.800000" height="24.000000" rx="0" ry="0" style="stroke:none;fill:#f44800;"/>
<text x="301.700000" y="46.000000" font-family="Arial" font-size="7" text-anchor="middle" fill="#FFFFFF">0.19</text>
<circle cx="290.800000" cy="34.000000" r="1"/>
<rect x="331.600000" y="29.000000" width="24.000000" height="24.000000" rx="0" ry="0" style="stroke:none;fill:#cccccc;"/>
<rect x="330.600000" y="28.000000" width="24.000000" height="24.000000" rx="0" ry="0" style="stroke:none;fill:#4B71A1;"/>
<text x="342.600000" y="42.000000" font-family="Arial" font-size="7" text-anchor="middle" fill="#FFFFFF">*</text>
<circle cx="332.600000" cy="30.000000" r="1"/>
<line x1="327.600000" y1="35.000000" x2="330.600000" y2="36.000000"  transform="rotate(0.000000,330.600000,36.000000)" style="stroke: black; stroke-width:0.25;"/>
<line x1="327.600000" y1="37.000000" x2="330.600000" y2="36.000000"  transform="rotate(0.000000,330.600000,36.000000)" style="stroke: black; stroke-width:0.25;"/>
<line x1="327.600000" y1="43.000000" x2="330.600000" y2="44.000000"  transform="rotate(0.000000,330.600000,44.000000)" style="stroke: black; stroke-width:0.25;"/>
<line x1="327.600000" y1="45.000000" x2="330.600000" y2="44.000000"  transform="rotate(0.000000,330.600000,44.000000)" style="stroke: black; stroke-width:0.25;"/>
<rect x="289.800000" y="73.000000" width="25.800000" height="24.000000" rx="0" ry="0" style="stroke:none;fill:#cccccc;"/>
<rect x="288.800000" y="72.000000" width="25.800000" height="24.000000" rx="0" ry="0" style="stroke:none;fill:#f44800;"/>
<text x="301.700000" y="86.000000" font-family="Arial" font-size="7" text-anchor="middle" fill="#FFFFFF">-0.9</text>
<circle cx="290.800000" cy="74.000000" r="1"/>
<rect x="331.600000" y="69.000000" width="24.000000" height="24.000000" rx="0" ry="0" style="stroke:none;fill:#cccccc;"/>
<rect x="330.600000" y="68.000000" width="24.000000" height="24.000000" rx="0" ry="0" style="stroke:none;fill:#4B71A1;"/>
<text x="342.600000" y="82.000000" font-family="Arial" font-size="7" text-anchor="middle" fill="#FFFFFF">*</text>
<circle cx="332.600000" cy="70.000000" r="1"/>
<line x1="327.600000" y1="75.000000" x2="330.600000" y2="76.000000"  transform="rotate(0.000000,330.600000,76.000000)" style="stroke: black; stroke-width:0.25;"/>
<line x1="327.600000" y1="77.000000" x2="330.600000" y2="76.000000"  transform="rotate(0.000000,330.600000,76.000000)" style="stroke: black; stroke-width:0.25;"/>
<line x1="327.600000" y1="83.000000" x2="330.600000" y2="84.000000"  transform="rotate(0.000000,330.600000,84.000000)" style="stroke: black; stroke-width:0.25;"/>
<line x1="327.600000" y1="85.000000" x2="330.600000" y2="84.000000"  transform="rotate(0.000000,330.600000,84.000000)" style="stroke: black; stroke-width:0.25;"/>
<rect x="371.600000" y="49.000000" width="24.000000" height="24.000000" rx="0" ry="0" style="stroke:none;fill:#cccccc;"/>
<rect x="370.600000" y="48.000000" width="24.000000" height="24.000000" rx="0" ry="0" style="stroke:none;fill:#4B71A1;"/>
<text x="382.600000" y="62.000000" font-family="Arial" font-size="7" text-anchor="middle" fill="#FFFFFF">+</text>
<circle cx="372.600000" cy="50.000000" r="1"/>
<line x1="367.600000" y1="55.000000" x2="370.600000" y2="56.000000"  transform="rotate(0.000000,370.600000,56.000000)" style="stroke: black; stroke-width:0.25;"/>
<line x1="367.600000" y1="57.000000" x2="370.600000" y2="56.000000"  transform="rotate(0.000000,370.600000,56.000000)" style="stroke: black; stroke-width:0.25;"/>
<line x1="367.600000" y1="63.000000" x2="370.600000" y2="64.000000"  transform="rotate(0.000000,370.600000,64.000000)" style="stroke: black; stroke-width:0.25;"/>
<line x1="367.600000" y1="65.000000" x2="370.600000" y2="64.000000"  transform="rotate(0.000000,370.600000,64.000000)" style="stroke: black; stroke-width:0.25;"/>
<line x1="15.000000" y1="15.000000" x2="15.000000" y2="105.000000"  style="stroke: black; stroke-linecap:round; stroke-width:0.25; stroke-dasharray:3,3;"/>
<line x1="15.000000" y1="105.000000" x2="411.600000" y2="105.000000"  style="stroke: black; stroke-linecap:round; stroke-width:0.25; stroke-dasharray:3,3;"/>
<line x1="411.600000" y1="105.000000" x2="411.600000" y2="15.000000"  style="stroke: black; stroke-linecap:round; stroke-width:0.25; stroke-dasharray:3,3;"/>
<line x1="15.000000" y1="15.000000" x2="20.000000" y2="15.000000"  style="stroke: black; stroke-linecap:round; stroke-width:0.25; stroke-dasharray:3,3;"/>
<line x1="129.650000" y1="15.000000" x2="411.600000" y2="15.000000"  style="stroke: black; stroke-linecap:round; stroke-width:0.25; stroke-dasharray:3,3;"/>
<text x="20.000000" y="17.000000" font-family="Arial" font-size="7">gnalp(512)(0.90000000000000002f)</text>
<line x1="413.600000" y1="59.000000" x2="416.600000" y2="60.000000"  transform="rotate(0.000000,416.600000,60.000000)" style="stroke: black; stroke-width:0.25;"/>
<line x1="413.600000" y1="61.000000" x2="416.600000" y2="60.000000"  transform="rotate(0.000000,416.600000,60.000000)" style="stroke: black; stroke-width:0.25;"/>
<line x1="10.000000" y1="60.000000" x2="20.000000" y2="60.000000"  style="stroke:black; stroke-linecap:round; stroke-width:0.25;"/>
<line x1="20.000000" y1="60.000000" x2="24.000000" y2="60.000000"  style="stroke:black; stroke-linecap:round; stroke-width:0.25;"/>
<line x1="24.000000" y1="60.000000" x2="28.000000" y2="60.000000"  style="stroke:black; stroke-linecap:round; stroke-width:0.25;"/>
<line x1="28.000000" y1="60.000000" x2="28.000000" y2="60.000000"  style="stroke:black; stroke-linecap:round; stroke-width:0.25;"/>
<line x1="28.000000" y1="60.000000" x2="32.000000" y2="60.000000"  style="stroke:black; stroke-linecap:round; stroke-width:0.25;"/>
<line x1="32.000000" y1="60.000000" x2="36.000000" y2="60.000000"  style="stroke:black; stroke-linecap:round; stroke-width:0.25;"/>
<line x1="36.000000" y1="60.000000" x2="58.000000" y2="96.000000"  style="stroke:black; stroke-linecap:round; stroke-width:0.25;"/>
<line x1="36.000000" y1="60.000000" x2="58.000000" y2="80.000000"  style="stroke:black; stroke-linecap:round; stroke-width:0.25;"/>
<line x1="58.000000" y1="96.000000" x2="163.400000" y2="96.000000"  style="stroke:black; stroke-linecap:round; stroke-width:0.25;"/>
<line x1="58.000000" y1="80.000000" x2="66.000000" y2="80.000000"  style="stroke:black; stroke-linecap:round; stroke-width:0.25;"/>
<line x1="66.000000" y1="40.000000" x2="66.000000" y2="40.000000"  style="stroke:black; stroke-linecap:round; stroke-width:0.25;"/>
<line x1="66.000000" y1="40.000000" x2="66.000000" y2="72.000000"  style="stroke:black; stroke-linecap:round; stroke-width:0.25;"/>
<line x1="66.000000" y1="72.000000" x2="66.000000" y2="72.000000"  style="stroke:black; stroke-linecap:round; stroke-width:0.25;"/>
<line x1="66.000000" y1="72.000000" x2="70.000000" y2="72.000000"  style="stroke:black; stroke-linecap:round; stroke-width:0.25;"/>
<line x1="66.000000" y1="80.000000" x2="70.000000" y2="80.000000"  style="stroke:black; stroke-linecap:round; stroke-width:0.25;"/>
<line x1="94.000000" y1="76.000000" x2="98.000000" y2="76.000000"  style="stroke:black; stroke-linecap:round; stroke-width:0.25;"/>
<line x1="98.000000" y1="76.000000" x2="98.000000" y2="76.000000"  style="stroke:black; stroke-linecap:round; stroke-width:0.25;"/>
<line x1="98.000000" y1="76.000000" x2="102.000000" y2="76.000000"  style="stroke:black; stroke-linecap:round; stroke-width:0.25;"/>
<line x1="127.400000" y1="40.000000" x2="66.000000" y2="40.000000"  style="stroke:black; stroke-linecap:round; stroke-width:0.25;"/>
<line x1="131.400000" y1="40.000000" x2="127.400000" y2="40.000000"  style="stroke:black; stroke-linecap:round; stroke-width:0.25;"/>
<line x1="159.400000" y1="36.000000" x2="155.400000" y2="36.000000"  style="stroke:black; stroke-linecap:round; stroke-width:0.25;"/>
<line x1="159.400000" y1="44.000000" x2="155.400000" y2="44.000000"  style="stroke:black; stroke-linecap:round; stroke-width:0.25;"/>
<line x1="159.400000" y1="44.000000" x2="159.400000" y2="44.000000"  style="stroke:black; stroke-linecap:round; stroke-width:0.25;"/>
<line x1="159.400000" y1="56.000000" x2="159.400000" y2="44.000000"  style="stroke:black; stroke-linecap:round; stroke-width:0.25;"/>
<line x1="163.400000" y1="96.000000" x2="268.800000" y2="96.000000"  style="stroke:black; stroke-linecap:round; stroke-width:0.25;"/>
<line x1="167.400000" y1="36.000000" x2="159.400000" y2="36.000000"  style="stroke:black; stroke-linecap:round; stroke-width:0.25;"/>
<line x1="167.400000" y1="56.000000" x2="159.400000" y2="56.000000"  style="stroke:black; stroke-linecap:round; stroke-width:0.25;"/>
<line x1="171.400000" y1="36.000000" x2="167.400000" y2="36.000000"  style="stroke:black; stroke-linecap:round; stroke-width:0.25;"/>
<line x1="183.400000" y1="56.000000" x2="167.400000" y2="56.000000"  style="stroke:black; stroke-linecap:round; stroke-width:0.25;"/>
<line x1="199.400000" y1="56.000000" x2="183.400000" y2="56.000000"  style="stroke:black; stroke-linecap:round; stroke-width:0.25;"/>
<line x1="256.800000" y1="76.000000" x2="260.800000" y2="76.000000"  style="stroke:black; stroke-linecap:round; stroke-width:0.25;"/>
<line x1="260.800000" y1="56.000000" x2="199.400000" y2="56.000000"  style="stroke:black; stroke-linecap:round; stroke-width:0.25;"/>
<line x1="260.800000" y1="56.000000" x2="260.800000" y2="56.000000"  style="stroke:black; stroke-linecap:round; stroke-width:0.25;"/>
<line x1="260.800000" y1="72.000000" x2="260.800000" y2="56.000000"  style="stroke:black; stroke-linecap:round; stroke-width:0.25;"/>
<line x1="260.800000" y1="76.000000" x2="262.800000" y2="76.000000"  style="stroke:black; stroke-linecap:round; stroke-width:0.25;"/>
<line x1="262.800000" y1="76.000000" x2="268.800000" y2="76.000000"  style="stroke:black; stroke-linecap:round; stroke-width:0.25;"/>
<line x1="268.800000" y1="24.000000" x2="284.800000" y2="24.000000"  style="stroke:black; stroke-linecap:round; stroke-width:0.25;"/>
<line x1="268.800000" y1="76.000000" x2="268.800000" y2="24.000000"  style="stroke:black; stroke-linecap:round; stroke-width:0.25;"/>
<line x1="268.800000" y1="76.000000" x2="268.800000" y2="76.000000"  style="stroke:black; stroke-linecap:round; stroke-width:0.25;"/>
<line x1="268.800000" y1="96.000000" x2="276.800000" y2="96.000000"  style="stroke:black; stroke-linecap:round; stroke-width:0.25;"/>
<line x1="276.800000" y1="64.000000" x2="284.800000" y2="64.000000"  style="stroke:black; stroke-linecap:round; stroke-width:0.25;"/>
<line x1="276.800000" y1="96.000000" x2="276.800000" y2="64.000000"  style="stroke:black; stroke-linecap:round; stroke-width:0.25;"/>
<line x1="284.800000" y1="24.000000" x2="301.700000" y2="24.000000"  style="stroke:black; stroke-linecap:round; stroke-width:0.25;"/>
<line x1="284.800000" y1="64.000000" x2="301.700000" y2="64.000000"  style="stroke:black; stroke-linecap:round; stroke-width:0.25;"/>
<line x1="301.700000" y1="24.000000" x2="318.600000" y2="24.000000"  style="stroke:black; stroke-linecap:round; stroke-width:0.25;"/>
<line x1="301.700000" y1="64.000000" x2="318.600000" y2="64.000000"  style="stroke:black; stroke-linecap:round; stroke-width:0.25;"/>
<line x1="314.600000" y1="44.000000" x2="318.600000" y2="44.000000"  style="stroke:black; stroke-linecap:round; stroke-width:0.25;"/>
<line x1="314.600000" y1="84.000000" x2="318.600000" y2="84.000000"  style="stroke:black; stroke-linecap:round; stroke-width:0.25;"/>
<line x1="318.600000" y1="24.000000" x2="326.600000" y2="24.000000"  style="stroke:black; stroke-linecap:round; stroke-width:0.25;"/>
<line x1="318.600000" y1="64.000000" x2="326.600000" y2="64.000000"  style="stroke:black; stroke-linecap:round; stroke-width:0.25;"/>
<line x1="318.600000" y1="44.000000" x2="326.600000" y2="44.000000"  style="stroke:black; stroke-linecap:round; stroke-width:0.25;"/>
<line x1="318.600000" y1="84.000000" x2="326.600000" y2="84.000000"  style="stroke:black; stroke-linecap:round; stroke-width:0.25;"/>
<line x1="326.600000" y1="24.000000" x2="326.600000" y2="36.000000"  style="stroke:black; stroke-linecap:round; stroke-width:0.25;"/>
<line x1="326.600000" y1="36.000000" x2="326.600000" y2="36.000000"  style="stroke:black; stroke-linecap:round; stroke-width:0.25;"/>
<line x1="326.600000" y1="64.000000" x2="326.600000" y2="76.000000"  style="stroke:black; stroke-linecap:round; stroke-width:0.25;"/>
<line x1="326.600000" y1="76.000000" x2="326.600000" y2="76.000000"  style="stroke:black; stroke-linecap:round; stroke-width:0.25;"/>
<line x1="326.600000" y1="36.000000" x2="330.600000" y2="36.000000"  style="stroke:black; stroke-linecap:round; stroke-width:0.25;"/>
<line x1="326.600000" y1="44.000000" x2="330.600000" y2="44.000000"  style="stroke:black; stroke-linecap:round; stroke-width:0.25;"/>
<line x1="326.600000" y1="76.000000" x2="330.600000" y2="76.000000"  style="stroke:black; stroke-linecap:round; stroke-width:0.25;"/>
<line x1="326.600000" y1="84.000000" x2="330.600000" y2="84.000000"  style="stroke:black; stroke-linecap:round; stroke-width:0.25;"/>
<line x1="354.600000" y1="40.000000" x2="358.600000" y2="40.000000"  style="stroke:black; stroke-linecap:round; stroke-width:0.25;"/>
<line x1="354.600000" y1="80.000000" x2="358.600000" y2="80.000000"  style="stroke:black; stroke-linecap:round; stroke-width:0.25;"/>
<line x1="358.600000" y1="40.000000" x2="366.600000" y2="40.000000"  style="stroke:black; stroke-linecap:round; stroke-width:0.25;"/>
<line x1="358.600000" y1="64.000000" x2="366.600000" y2="64.000000"  style="stroke:black; stroke-linecap:round; stroke-width:0.25;"/>
<line x1="358.600000" y1="80.000000" x2="358.600000" y2="64.000000"  style="stroke:black; stroke-linecap:round; stroke-width:0.25;"/>
<line x1="358.600000" y1="80.000000" x2="358.600000" y2="80.000000"  style="stroke:black; stroke-linecap:round; stroke-width:0.25;"/>
<line x1="366.600000" y1="40.000000" x2="366.600000" y2="56.000000"  style="stroke:black; stroke-linecap:round; stroke-width:0.25;"/>
<line x1="366.600000" y1="56.000000" x2="366.600000" y2="56.000000"  style="stroke:black; stroke-linecap:round; stroke-width:0.25;"/>
<line x1="366.600000" y1="56.000000" x2="370.600000" y2="56.000000"  style="stroke:black; stroke-linecap:round; stroke-width:0.25;"/>
<line x1="366.600000" y1="64.000000" x2="370.600000" y2="64.000000"  style="stroke:black; stroke-linecap:round; stroke-width:0.25;"/>
<line x1="394.600000" y1="60.000000" x2="398.600000" y2="60.000000"  style="stroke:black; stroke-linecap:round; stroke-width:0.25;"/>
<line x1="398.600000" y1="60.000000" x2="398.600000" y2="60.000000"  style="stroke:black; stroke-linecap:round; stroke-width:0.25;"/>
<line x1="398.600000" y1="60.000000" x2="402.600000" y2="60.000000"  style="stroke:black; stroke-linecap:round; stroke-width:0.25;"/>
<line x1="402.600000" y1="60.000000" x2="406.600000" y2="60.000000"  style="stroke:black; stroke-linecap:round; stroke-width:0.25;"/>
<line x1="406.600000" y1="60.000000" x2="416.600000" y2="60.000000"  style="stroke:black; stroke-linecap:round; stroke-width:0.25;"/>
</svg>
