<?xml version="1.0"?>
<svg xmlns="http://www.w3.org/2000/svg" xmlns:xlink="http://www.w3.org/1999/xlink" viewBox="0 0 534.400000 136.000000" width="267.200000mm" height="68.000000mm" version="1.1">
<a xlink:href="process.svg">
<rect x="1.000000" y="1.000000" width="533.400000" height="135.000000" rx="0" ry="0" style="stroke:none;fill:#cccccc;"/>
<rect x="0.000000" y="0.000000" width="533.400000" height="135.000000" rx="0" ry="0" style="stroke:none;fill:#ffffff;"/>
</a>
<text x="10.000000" y="7.000000" font-family="Arial" font-size="7"></text>
<a xlink:href="pfs1-0x7fed3a97ec60.svg">
<rect x="33.000000" y="57.000000" width="25.800000" height="24.000000" rx="0" ry="0" style="stroke:none;fill:#cccccc;"/>
<rect x="32.000000" y="56.000000" width="25.800000" height="24.000000" rx="0" ry="0" style="stroke:none;fill:#003366;"/>
</a>
<a xlink:href="pfs1-0x7fed3a97ec60.svg">
<text x="44.900000" y="70.000000" font-family="Arial" font-size="7" text-anchor="middle" fill="#FFFFFF">pfs1</text>
</a>
<circle cx="34.000000" cy="58.000000" r="1"/>
<line x1="29.000000" y1="67.000000" x2="32.000000" y2="68.000000"  transform="rotate(0.000000,32.000000,68.000000)" style="stroke: black; stroke-width:0.25;"/>
<line x1="29.000000" y1="69.000000" x2="32.000000" y2="68.000000"  transform="rotate(0.000000,32.000000,68.000000)" style="stroke: black; stroke-width:0.25;"/>
<a xlink:href="pfs2-0x7fed3a980ed0.svg">
<rect x="66.800000" y="57.000000" width="25.800000" height="24.000000" rx="0" ry="0" style="stroke:none;fill:#cccccc;"/>
<rect x="65.800000" y="56.000000" width="25.800000" height="24.000000" rx="0" ry="0" style="stroke:none;fill:#003366;"/>
</a>
<a xlink:href="pfs2-0x7fed3a980ed0.svg">
<text x="78.700000" y="70.000000" font-family="Arial" font-size="7" text-anchor="middle" fill="#FFFFFF">pfs2</text>
</a>
<circle cx="67.800000" cy="58.000000" r="1"/>
<line x1="62.800000" y1="67.000000" x2="65.800000" y2="68.000000"  transform="rotate(0.000000,65.800000,68.000000)" style="stroke: black; stroke-width:0.25;"/>
<line x1="62.800000" y1="69.000000" x2="65.800000" y2="68.000000"  transform="rotate(0.000000,65.800000,68.000000)" style="stroke: black; stroke-width:0.25;"/>
<rect x="132.600000" y="49.000000" width="25.800000" height="24.000000" rx="0" ry="0" style="stroke:none;fill:#cccccc;"/>
<rect x="131.600000" y="48.000000" width="25.800000" height="24.000000" rx="0" ry="0" style="stroke:none;fill:#f44800;"/>
<text x="144.500000" y="62.000000" font-family="Arial" font-size="7" text-anchor="middle" fill="#FFFFFF">0.75</text>
<circle cx="133.600000" cy="50.000000" r="1"/>
<a xlink:href="tg-0x7fed3a973d80.svg">
<rect x="133.500000" y="81.000000" width="24.000000" height="24.000000" rx="0" ry="0" style="stroke:none;fill:#cccccc;"/>
<rect x="132.500000" y="80.000000" width="24.000000" height="24.000000" rx="0" ry="0" style="stroke:none;fill:#003366;"/>
</a>
<a xlink:href="tg-0x7fed3a973d80.svg">
<text x="144.500000" y="94.000000" font-family="Arial" font-size="7" text-anchor="middle" fill="#FFFFFF">tg</text>
</a>
<circle cx="134.500000" cy="82.000000" r="1"/>
<rect x="174.400000" y="65.000000" width="24.000000" height="24.000000" rx="0" ry="0" style="stroke:none;fill:#cccccc;"/>
<rect x="173.400000" y="64.000000" width="24.000000" height="24.000000" rx="0" ry="0" style="stroke:none;fill:#4B71A1;"/>
<text x="185.400000" y="78.000000" font-family="Arial" font-size="7" text-anchor="middle" fill="#FFFFFF">*</text>
<circle cx="175.400000" cy="66.000000" r="1"/>
<line x1="170.400000" y1="71.000000" x2="173.400000" y2="72.000000"  transform="rotate(0.000000,173.400000,72.000000)" style="stroke: black; stroke-width:0.25;"/>
<line x1="170.400000" y1="73.000000" x2="173.400000" y2="72.000000"  transform="rotate(0.000000,173.400000,72.000000)" style="stroke: black; stroke-width:0.25;"/>
<line x1="170.400000" y1="79.000000" x2="173.400000" y2="80.000000"  transform="rotate(0.000000,173.400000,80.000000)" style="stroke: black; stroke-width:0.25;"/>
<line x1="170.400000" y1="81.000000" x2="173.400000" y2="80.000000"  transform="rotate(0.000000,173.400000,80.000000)" style="stroke: black; stroke-width:0.25;"/>
<rect x="214.400000" y="61.000000" width="24.000000" height="24.000000" rx="0" ry="0" style="stroke:none;fill:#cccccc;"/>
<rect x="213.400000" y="60.000000" width="24.000000" height="24.000000" rx="0" ry="0" style="stroke:none;fill:#4B71A1;"/>
<text x="225.400000" y="74.000000" font-family="Arial" font-size="7" text-anchor="middle" fill="#FFFFFF">@</text>
<circle cx="215.400000" cy="62.000000" r="1"/>
<line x1="210.400000" y1="67.000000" x2="213.400000" y2="68.000000"  transform="rotate(0.000000,213.400000,68.000000)" style="stroke: black; stroke-width:0.25;"/>
<line x1="210.400000" y1="69.000000" x2="213.400000" y2="68.000000"  transform="rotate(0.000000,213.400000,68.000000)" style="stroke: black; stroke-width:0.25;"/>
<line x1="210.400000" y1="75.000000" x2="213.400000" y2="76.000000"  transform="rotate(0.000000,213.400000,76.000000)" style="stroke: black; stroke-width:0.25;"/>
<line x1="210.400000" y1="77.000000" x2="213.400000" y2="76.000000"  transform="rotate(0.000000,213.400000,76.000000)" style="stroke: black; stroke-width:0.25;"/>
<rect x="246.400000" y="61.000000" width="24.000000" height="24.000000" rx="0" ry="0" style="stroke:none;fill:#cccccc;"/>
<rect x="245.400000" y="60.000000" width="24.000000" height="24.000000" rx="0" ry="0" style="stroke:none;fill:#4B71A1;"/>
<text x="257.400000" y="74.000000" font-family="Arial" font-size="7" text-anchor="middle" fill="#FFFFFF">int</text>
<circle cx="247.400000" cy="62.000000" r="1"/>
<line x1="242.400000" y1="71.000000" x2="245.400000" y2="72.000000"  transform="rotate(0.000000,245.400000,72.000000)" style="stroke: black; stroke-width:0.25;"/>
<line x1="242.400000" y1="73.000000" x2="245.400000" y2="72.000000"  transform="rotate(0.000000,245.400000,72.000000)" style="stroke: black; stroke-width:0.25;"/>
<rect x="366.900000" y="25.000000" width="24.000000" height="24.000000" rx="0" ry="0" style="stroke:none;fill:#cccccc;"/>
<rect x="365.900000" y="24.000000" width="24.000000" height="24.000000" rx="0" ry="0" style="stroke:none;fill:#f44800;"/>
<text x="377.900000" y="38.000000" font-family="Arial" font-size="7" text-anchor="middle" fill="#FFFFFF">0.5</text>
<circle cx="367.900000" cy="26.000000" r="1"/>
<a xlink:href="RMS-0x7fed3a987b30.svg">
<rect x="294.400000" y="57.000000" width="129.000000" height="24.000000" rx="0" ry="0" style="stroke:none;fill:#cccccc;"/>
<rect x="293.400000" y="56.000000" width="129.000000" height="24.000000" rx="0" ry="0" style="stroke:none;fill:#003366;"/>
</a>
<a xlink:href="RMS-0x7fed3a987b30.svg">
<text x="357.900000" y="70.000000" font-family="Arial" font-size="7" text-anchor="middle" fill="#FFFFFF">RMS(400 : _,(...) : min) : *)</text>
</a>
<circle cx="295.400000" cy="58.000000" r="1"/>
<line x1="290.400000" y1="67.000000" x2="293.400000" y2="68.000000"  transform="rotate(0.000000,293.400000,68.000000)" style="stroke: black; stroke-width:0.25;"/>
<line x1="290.400000" y1="69.000000" x2="293.400000" y2="68.000000"  transform="rotate(0.000000,293.400000,68.000000)" style="stroke: black; stroke-width:0.25;"/>
<a xlink:href="RMS-0x7fed3a987b30.svg">
<rect x="294.400000" y="89.000000" width="129.000000" height="24.000000" rx="0" ry="0" style="stroke:none;fill:#cccccc;"/>
<rect x="293.400000" y="88.000000" width="129.000000" height="24.000000" rx="0" ry="0" style="stroke:none;fill:#003366;"/>
</a>
<a xlink:href="RMS-0x7fed3a987b30.svg">
<text x="357.900000" y="102.000000" font-family="Arial" font-size="7" text-anchor="middle" fill="#FFFFFF">RMS(400 : _,(...) : min) : *)</text>
</a>
<circle cx="295.400000" cy="90.000000" r="1"/>
<line x1="290.400000" y1="99.000000" x2="293.400000" y2="100.000000"  transform="rotate(0.000000,293.400000,100.000000)" style="stroke: black; stroke-width:0.25;"/>
<line x1="290.400000" y1="101.000000" x2="293.400000" y2="100.000000"  transform="rotate(0.000000,293.400000,100.000000)" style="stroke: black; stroke-width:0.25;"/>
<rect x="439.400000" y="73.000000" width="24.000000" height="24.000000" rx="0" ry="0" style="stroke:none;fill:#cccccc;"/>
<rect x="438.400000" y="72.000000" width="24.000000" height="24.000000" rx="0" ry="0" style="stroke:none;fill:#4B71A1;"/>
<text x="450.400000" y="86.000000" font-family="Arial" font-size="7" text-anchor="middle" fill="#FFFFFF">+</text>
<circle cx="440.400000" cy="74.000000" r="1"/>
<line x1="435.400000" y1="79.000000" x2="438.400000" y2="80.000000"  transform="rotate(0.000000,438.400000,80.000000)" style="stroke: black; stroke-width:0.25;"/>
<line x1="435.400000" y1="81.000000" x2="438.400000" y2="80.000000"  transform="rotate(0.000000,438.400000,80.000000)" style="stroke: black; stroke-width:0.25;"/>
<line x1="435.400000" y1="87.000000" x2="438.400000" y2="88.000000"  transform="rotate(0.000000,438.400000,88.000000)" style="stroke: black; stroke-width:0.25;"/>
<line x1="435.400000" y1="89.000000" x2="438.400000" y2="88.000000"  transform="rotate(0.000000,438.400000,88.000000)" style="stroke: black; stroke-width:0.25;"/>
<rect x="479.400000" y="57.000000" width="24.000000" height="24.000000" rx="0" ry="0" style="stroke:none;fill:#cccccc;"/>
<rect x="478.400000" y="56.000000" width="24.000000" height="24.000000" rx="0" ry="0" style="stroke:none;fill:#4B71A1;"/>
<text x="490.400000" y="70.000000" font-family="Arial" font-size="7" text-anchor="middle" fill="#FFFFFF">*</text>
<circle cx="480.400000" cy="58.000000" r="1"/>
<line x1="475.400000" y1="63.000000" x2="478.400000" y2="64.000000"  transform="rotate(0.000000,478.400000,64.000000)" style="stroke: black; stroke-width:0.25;"/>
<line x1="475.400000" y1="65.000000" x2="478.400000" y2="64.000000"  transform="rotate(0.000000,478.400000,64.000000)" style="stroke: black; stroke-width:0.25;"/>
<line x1="475.400000" y1="71.000000" x2="478.400000" y2="72.000000"  transform="rotate(0.000000,478.400000,72.000000)" style="stroke: black; stroke-width:0.25;"/>
<line x1="475.400000" y1="73.000000" x2="478.400000" y2="72.000000"  transform="rotate(0.000000,478.400000,72.000000)" style="stroke: black; stroke-width:0.25;"/>
<line x1="15.000000" y1="15.000000" x2="15.000000" y2="121.000000"  style="stroke: black; stroke-linecap:round; stroke-width:0.25; stroke-dasharray:3,3;"/>
<line x1="15.000000" y1="121.000000" x2="519.400000" y2="121.000000"  style="stroke: black; stroke-linecap:round; stroke-width:0.25; stroke-dasharray:3,3;"/>
<line x1="519.400000" y1="121.000000" x2="519.400000" y2="15.000000"  style="stroke: black; stroke-linecap:round; stroke-width:0.25; stroke-dasharray:3,3;"/>
<line x1="15.000000" y1="15.000000" x2="20.000000" y2="15.000000"  style="stroke: black; stroke-linecap:round; stroke-width:0.25; stroke-dasharray:3,3;"/>
<line x1="45.800000" y1="15.000000" x2="519.400000" y2="15.000000"  style="stroke: black; stroke-linecap:round; stroke-width:0.25; stroke-dasharray:3,3;"/>
<text x="20.000000" y="17.000000" font-family="Arial" font-size="7">bs1770</text>
<line x1="521.400000" y1="67.000000" x2="524.400000" y2="68.000000"  transform="rotate(0.000000,524.400000,68.000000)" style="stroke: black; stroke-width:0.25;"/>
<line x1="521.400000" y1="69.000000" x2="524.400000" y2="68.000000"  transform="rotate(0.000000,524.400000,68.000000)" style="stroke: black; stroke-width:0.25;"/>
<line x1="10.000000" y1="68.000000" x2="20.000000" y2="68.000000"  style="stroke:black; stroke-linecap:round; stroke-width:0.25;"/>
<line x1="20.000000" y1="68.000000" x2="24.000000" y2="68.000000"  style="stroke:black; stroke-linecap:round; stroke-width:0.25;"/>
<line x1="24.000000" y1="68.000000" x2="28.000000" y2="68.000000"  style="stroke:black; stroke-linecap:round; stroke-width:0.25;"/>
<line x1="28.000000" y1="68.000000" x2="28.000000" y2="68.000000"  style="stroke:black; stroke-linecap:round; stroke-width:0.25;"/>
<line x1="28.000000" y1="68.000000" x2="32.000000" y2="68.000000"  style="stroke:black; stroke-linecap:round; stroke-width:0.25;"/>
<line x1="57.800000" y1="68.000000" x2="61.800000" y2="68.000000"  style="stroke:black; stroke-linecap:round; stroke-width:0.25;"/>
<line x1="61.800000" y1="68.000000" x2="61.800000" y2="68.000000"  style="stroke:black; stroke-linecap:round; stroke-width:0.25;"/>
<line x1="61.800000" y1="68.000000" x2="65.800000" y2="68.000000"  style="stroke:black; stroke-linecap:round; stroke-width:0.25;"/>
<line x1="91.600000" y1="68.000000" x2="95.600000" y2="68.000000"  style="stroke:black; stroke-linecap:round; stroke-width:0.25;"/>
<line x1="95.600000" y1="68.000000" x2="127.600000" y2="32.000000"  style="stroke:black; stroke-linecap:round; stroke-width:0.25;"/>
<line x1="95.600000" y1="68.000000" x2="127.600000" y2="40.000000"  style="stroke:black; stroke-linecap:round; stroke-width:0.25;"/>
<line x1="127.600000" y1="32.000000" x2="200.500000" y2="32.000000"  style="stroke:black; stroke-linecap:round; stroke-width:0.25;"/>
<line x1="127.600000" y1="40.000000" x2="164.500000" y2="40.000000"  style="stroke:black; stroke-linecap:round; stroke-width:0.25;"/>
<line x1="156.500000" y1="92.000000" x2="160.500000" y2="92.000000"  style="stroke:black; stroke-linecap:round; stroke-width:0.25;"/>
<line x1="157.400000" y1="60.000000" x2="161.400000" y2="60.000000"  style="stroke:black; stroke-linecap:round; stroke-width:0.25;"/>
<line x1="160.500000" y1="92.000000" x2="161.400000" y2="92.000000"  style="stroke:black; stroke-linecap:round; stroke-width:0.25;"/>
<line x1="161.400000" y1="60.000000" x2="169.400000" y2="60.000000"  style="stroke:black; stroke-linecap:round; stroke-width:0.25;"/>
<line x1="161.400000" y1="80.000000" x2="169.400000" y2="80.000000"  style="stroke:black; stroke-linecap:round; stroke-width:0.25;"/>
<line x1="161.400000" y1="92.000000" x2="161.400000" y2="80.000000"  style="stroke:black; stroke-linecap:round; stroke-width:0.25;"/>
<line x1="161.400000" y1="92.000000" x2="161.400000" y2="92.000000"  style="stroke:black; stroke-linecap:round; stroke-width:0.25;"/>
<line x1="164.500000" y1="40.000000" x2="201.400000" y2="40.000000"  style="stroke:black; stroke-linecap:round; stroke-width:0.25;"/>
<line x1="169.400000" y1="60.000000" x2="169.400000" y2="72.000000"  style="stroke:black; stroke-linecap:round; stroke-width:0.25;"/>
<line x1="169.400000" y1="72.000000" x2="169.400000" y2="72.000000"  style="stroke:black; stroke-linecap:round; stroke-width:0.25;"/>
<line x1="169.400000" y1="72.000000" x2="173.400000" y2="72.000000"  style="stroke:black; stroke-linecap:round; stroke-width:0.25;"/>
<line x1="169.400000" y1="80.000000" x2="173.400000" y2="80.000000"  style="stroke:black; stroke-linecap:round; stroke-width:0.25;"/>
<line x1="197.400000" y1="76.000000" x2="201.400000" y2="76.000000"  style="stroke:black; stroke-linecap:round; stroke-width:0.25;"/>
<line x1="200.500000" y1="32.000000" x2="273.400000" y2="32.000000"  style="stroke:black; stroke-linecap:round; stroke-width:0.25;"/>
<line x1="201.400000" y1="76.000000" x2="209.400000" y2="76.000000"  style="stroke:black; stroke-linecap:round; stroke-width:0.25;"/>
<line x1="201.400000" y1="40.000000" x2="209.400000" y2="40.000000"  style="stroke:black; stroke-linecap:round; stroke-width:0.25;"/>
<line x1="209.400000" y1="68.000000" x2="213.400000" y2="68.000000"  style="stroke:black; stroke-linecap:round; stroke-width:0.25;"/>
<line x1="209.400000" y1="76.000000" x2="213.400000" y2="76.000000"  style="stroke:black; stroke-linecap:round; stroke-width:0.25;"/>
<line x1="209.400000" y1="40.000000" x2="209.400000" y2="68.000000"  style="stroke:black; stroke-linecap:round; stroke-width:0.25;"/>
<line x1="209.400000" y1="68.000000" x2="209.400000" y2="68.000000"  style="stroke:black; stroke-linecap:round; stroke-width:0.25;"/>
<line x1="237.400000" y1="72.000000" x2="241.400000" y2="72.000000"  style="stroke:black; stroke-linecap:round; stroke-width:0.25;"/>
<line x1="241.400000" y1="72.000000" x2="241.400000" y2="72.000000"  style="stroke:black; stroke-linecap:round; stroke-width:0.25;"/>
<line x1="241.400000" y1="72.000000" x2="245.400000" y2="72.000000"  style="stroke:black; stroke-linecap:round; stroke-width:0.25;"/>
<line x1="269.400000" y1="72.000000" x2="273.400000" y2="72.000000"  style="stroke:black; stroke-linecap:round; stroke-width:0.25;"/>
<line x1="273.400000" y1="32.000000" x2="289.400000" y2="32.000000"  style="stroke:black; stroke-linecap:round; stroke-width:0.25;"/>
<line x1="273.400000" y1="72.000000" x2="281.400000" y2="72.000000"  style="stroke:black; stroke-linecap:round; stroke-width:0.25;"/>
<line x1="281.400000" y1="72.000000" x2="281.400000" y2="100.000000"  style="stroke:black; stroke-linecap:round; stroke-width:0.25;"/>
<line x1="281.400000" y1="100.000000" x2="289.400000" y2="100.000000"  style="stroke:black; stroke-linecap:round; stroke-width:0.25;"/>
<line x1="289.400000" y1="32.000000" x2="289.400000" y2="68.000000"  style="stroke:black; stroke-linecap:round; stroke-width:0.25;"/>
<line x1="289.400000" y1="68.000000" x2="289.400000" y2="68.000000"  style="stroke:black; stroke-linecap:round; stroke-width:0.25;"/>
<line x1="289.400000" y1="68.000000" x2="293.400000" y2="68.000000"  style="stroke:black; stroke-linecap:round; stroke-width:0.25;"/>
<line x1="289.400000" y1="100.000000" x2="293.400000" y2="100.000000"  style="stroke:black; stroke-linecap:round; stroke-width:0.25;"/>
<line x1="389.900000" y1="36.000000" x2="393.900000" y2="36.000000"  style="stroke:black; stroke-linecap:round; stroke-width:0.25;"/>
<line x1="393.900000" y1="36.000000" x2="466.400000" y2="36.000000"  style="stroke:black; stroke-linecap:round; stroke-width:0.25;"/>
<line x1="422.400000" y1="68.000000" x2="426.400000" y2="68.000000"  style="stroke:black; stroke-linecap:round; stroke-width:0.25;"/>
<line x1="422.400000" y1="100.000000" x2="426.400000" y2="100.000000"  style="stroke:black; stroke-linecap:round; stroke-width:0.25;"/>
<line x1="426.400000" y1="68.000000" x2="434.400000" y2="68.000000"  style="stroke:black; stroke-linecap:round; stroke-width:0.25;"/>
<line x1="426.400000" y1="88.000000" x2="434.400000" y2="88.000000"  style="stroke:black; stroke-linecap:round; stroke-width:0.25;"/>
<line x1="426.400000" y1="100.000000" x2="426.400000" y2="88.000000"  style="stroke:black; stroke-linecap:round; stroke-width:0.25;"/>
<line x1="426.400000" y1="100.000000" x2="426.400000" y2="100.000000"  style="stroke:black; stroke-linecap:round; stroke-width:0.25;"/>
<line x1="434.400000" y1="68.000000" x2="434.400000" y2="80.000000"  style="stroke:black; stroke-linecap:round; stroke-width:0.25;"/>
<line x1="434.400000" y1="80.000000" x2="434.400000" y2="80.000000"  style="stroke:black; stroke-linecap:round; stroke-width:0.25;"/>
<line x1="434.400000" y1="80.000000" x2="438.400000" y2="80.000000"  style="stroke:black; stroke-linecap:round; stroke-width:0.25;"/>
<line x1="434.400000" y1="88.000000" x2="438.400000" y2="88.000000"  style="stroke:black; stroke-linecap:round; stroke-width:0.25;"/>
<line x1="462.400000" y1="84.000000" x2="466.400000" y2="84.000000"  style="stroke:black; stroke-linecap:round; stroke-width:0.25;"/>
<line x1="466.400000" y1="36.000000" x2="474.400000" y2="36.000000"  style="stroke:black; stroke-linecap:round; stroke-width:0.25;"/>
<line x1="466.400000" y1="72.000000" x2="474.400000" y2="72.000000"  style="stroke:black; stroke-linecap:round; stroke-width:0.25;"/>
<line x1="466.400000" y1="84.000000" x2="466.400000" y2="72.000000"  style="stroke:black; stroke-linecap:round; stroke-width:0.25;"/>
<line x1="466.400000" y1="84.000000" x2="466.400000" y2="84.000000"  style="stroke:black; stroke-linecap:round; stroke-width:0.25;"/>
<line x1="474.400000" y1="36.000000" x2="474.400000" y2="64.000000"  style="stroke:black; stroke-linecap:round; stroke-width:0.25;"/>
<line x1="474.400000" y1="64.000000" x2="474.400000" y2="64.000000"  style="stroke:black; stroke-linecap:round; stroke-width:0.25;"/>
<line x1="474.400000" y1="64.000000" x2="478.400000" y2="64.000000"  style="stroke:black; stroke-linecap:round; stroke-width:0.25;"/>
<line x1="474.400000" y1="72.000000" x2="478.400000" y2="72.000000"  style="stroke:black; stroke-linecap:round; stroke-width:0.25;"/>
<line x1="502.400000" y1="68.000000" x2="506.400000" y2="68.000000"  style="stroke:black; stroke-linecap:round; stroke-width:0.25;"/>
<line x1="506.400000" y1="68.000000" x2="506.400000" y2="68.000000"  style="stroke:black; stroke-linecap:round; stroke-width:0.25;"/>
<line x1="506.400000" y1="68.000000" x2="510.400000" y2="68.000000"  style="stroke:black; stroke-linecap:round; stroke-width:0.25;"/>
<line x1="510.400000" y1="68.000000" x2="514.400000" y2="68.000000"  style="stroke:black; stroke-linecap:round; stroke-width:0.25;"/>
<line x1="514.400000" y1="68.000000" x2="524.400000" y2="68.000000"  style="stroke:black; stroke-linecap:round; stroke-width:0.25;"/>
</svg>
