<?xml version="1.0"?>
<svg xmlns="http://www.w3.org/2000/svg" xmlns:xlink="http://www.w3.org/1999/xlink" viewBox="0 0 265.800000 136.000000" width="132.900000mm" height="68.000000mm" version="1.1">
<a xlink:href="mean-0x7f9403aa62c0.svg">
<rect x="1.000000" y="1.000000" width="264.800000" height="135.000000" rx="0" ry="0" style="stroke:none;fill:#cccccc;"/>
<rect x="0.000000" y="0.000000" width="264.800000" height="135.000000" rx="0" ry="0" style="stroke:none;fill:#ffffff;"/>
</a>
<text x="10.000000" y="7.000000" font-family="Arial" font-size="7"></text>
<rect x="33.000000" y="57.000000" width="24.000000" height="24.000000" rx="0" ry="0" style="stroke:none;fill:#cccccc;"/>
<rect x="32.000000" y="56.000000" width="24.000000" height="24.000000" rx="0" ry="0" style="stroke:none;fill:#47945E;"/>
<text x="44.000000" y="70.000000" font-family="Arial" font-size="7" text-anchor="middle" fill="#FFFFFF">x</text>
<circle cx="34.000000" cy="58.000000" r="1"/>
<line x1="29.000000" y1="67.000000" x2="32.000000" y2="68.000000"  transform="rotate(0.000000,32.000000,68.000000)" style="stroke: black; stroke-width:0.25;"/>
<line x1="29.000000" y1="69.000000" x2="32.000000" y2="68.000000"  transform="rotate(0.000000,32.000000,68.000000)" style="stroke: black; stroke-width:0.25;"/>
<rect x="85.900000" y="25.000000" width="24.000000" height="24.000000" rx="0" ry="0" style="stroke:none;fill:#cccccc;"/>
<rect x="84.900000" y="24.000000" width="24.000000" height="24.000000" rx="0" ry="0" style="stroke:none;fill:#47945E;"/>
<text x="96.900000" y="38.000000" font-family="Arial" font-size="7" text-anchor="middle" fill="#FFFFFF">x</text>
<circle cx="86.900000" cy="26.000000" r="1"/>
<rect x="65.900000" y="57.000000" width="24.000000" height="24.000000" rx="0" ry="0" style="stroke:none;fill:#cccccc;"/>
<rect x="64.900000" y="56.000000" width="24.000000" height="24.000000" rx="0" ry="0" style="stroke:none;fill:#47945E;"/>
<text x="76.900000" y="70.000000" font-family="Arial" font-size="7" text-anchor="middle" fill="#FFFFFF">x</text>
<circle cx="66.900000" cy="58.000000" r="1"/>
<rect x="65.000000" y="89.000000" width="25.800000" height="24.000000" rx="0" ry="0" style="stroke:none;fill:#cccccc;"/>
<rect x="64.000000" y="88.000000" width="25.800000" height="24.000000" rx="0" ry="0" style="stroke:none;fill:#f44800;"/>
<text x="76.900000" y="102.000000" font-family="Arial" font-size="7" text-anchor="middle" fill="#FFFFFF">1000</text>
<circle cx="66.000000" cy="90.000000" r="1"/>
<rect x="106.800000" y="73.000000" width="24.000000" height="24.000000" rx="0" ry="0" style="stroke:none;fill:#cccccc;"/>
<rect x="105.800000" y="72.000000" width="24.000000" height="24.000000" rx="0" ry="0" style="stroke:none;fill:#4B71A1;"/>
<text x="117.800000" y="86.000000" font-family="Arial" font-size="7" text-anchor="middle" fill="#FFFFFF">@</text>
<circle cx="107.800000" cy="74.000000" r="1"/>
<line x1="102.800000" y1="79.000000" x2="105.800000" y2="80.000000"  transform="rotate(0.000000,105.800000,80.000000)" style="stroke: black; stroke-width:0.25;"/>
<line x1="102.800000" y1="81.000000" x2="105.800000" y2="80.000000"  transform="rotate(0.000000,105.800000,80.000000)" style="stroke: black; stroke-width:0.25;"/>
<line x1="102.800000" y1="87.000000" x2="105.800000" y2="88.000000"  transform="rotate(0.000000,105.800000,88.000000)" style="stroke: black; stroke-width:0.25;"/>
<line x1="102.800000" y1="89.000000" x2="105.800000" y2="88.000000"  transform="rotate(0.000000,105.800000,88.000000)" style="stroke: black; stroke-width:0.25;"/>
<rect x="146.800000" y="57.000000" width="24.000000" height="24.000000" rx="0" ry="0" style="stroke:none;fill:#cccccc;"/>
<rect x="145.800000" y="56.000000" width="24.000000" height="24.000000" rx="0" ry="0" style="stroke:none;fill:#4B71A1;"/>
<text x="157.800000" y="70.000000" font-family="Arial" font-size="7" text-anchor="middle" fill="#FFFFFF">-</text>
<circle cx="147.800000" cy="58.000000" r="1"/>
<line x1="142.800000" y1="63.000000" x2="145.800000" y2="64.000000"  transform="rotate(0.000000,145.800000,64.000000)" style="stroke: black; stroke-width:0.25;"/>
<line x1="142.800000" y1="65.000000" x2="145.800000" y2="64.000000"  transform="rotate(0.000000,145.800000,64.000000)" style="stroke: black; stroke-width:0.25;"/>
<line x1="142.800000" y1="71.000000" x2="145.800000" y2="72.000000"  transform="rotate(0.000000,145.800000,72.000000)" style="stroke: black; stroke-width:0.25;"/>
<line x1="142.800000" y1="73.000000" x2="145.800000" y2="72.000000"  transform="rotate(0.000000,145.800000,72.000000)" style="stroke: black; stroke-width:0.25;"/>
<rect x="194.800000" y="61.000000" width="24.000000" height="24.000000" rx="0" ry="0" style="stroke:none;fill:#cccccc;"/>
<rect x="193.800000" y="60.000000" width="24.000000" height="24.000000" rx="0" ry="0" style="stroke:none;fill:#4B71A1;"/>
<text x="205.800000" y="74.000000" font-family="Arial" font-size="7" text-anchor="middle" fill="#FFFFFF">+</text>
<circle cx="195.800000" cy="62.000000" r="1"/>
<line x1="190.800000" y1="67.000000" x2="193.800000" y2="68.000000"  transform="rotate(0.000000,193.800000,68.000000)" style="stroke: black; stroke-width:0.25;"/>
<line x1="190.800000" y1="69.000000" x2="193.800000" y2="68.000000"  transform="rotate(0.000000,193.800000,68.000000)" style="stroke: black; stroke-width:0.25;"/>
<line x1="190.800000" y1="75.000000" x2="193.800000" y2="76.000000"  transform="rotate(0.000000,193.800000,76.000000)" style="stroke: black; stroke-width:0.25;"/>
<line x1="190.800000" y1="77.000000" x2="193.800000" y2="76.000000"  transform="rotate(0.000000,193.800000,76.000000)" style="stroke: black; stroke-width:0.25;"/>
<line x1="219.800000" y1="72.000000" x2="219.800000" y2="68.000000"  style="stroke:black; stroke-linecap:round; stroke-width:0.25;"/>
<line x1="219.800000" y1="68.000000" x2="223.800000" y2="68.000000"  style="stroke:black; stroke-linecap:round; stroke-width:0.25;"/>
<line x1="223.800000" y1="68.000000" x2="223.800000" y2="72.000000"  style="stroke:black; stroke-linecap:round; stroke-width:0.25;"/>
<line x1="15.000000" y1="15.000000" x2="15.000000" y2="121.000000"  style="stroke: black; stroke-linecap:round; stroke-width:0.25; stroke-dasharray:3,3;"/>
<line x1="15.000000" y1="121.000000" x2="250.800000" y2="121.000000"  style="stroke: black; stroke-linecap:round; stroke-width:0.25; stroke-dasharray:3,3;"/>
<line x1="250.800000" y1="121.000000" x2="250.800000" y2="15.000000"  style="stroke: black; stroke-linecap:round; stroke-width:0.25; stroke-dasharray:3,3;"/>
<line x1="15.000000" y1="15.000000" x2="20.000000" y2="15.000000"  style="stroke: black; stroke-linecap:round; stroke-width:0.25; stroke-dasharray:3,3;"/>
<line x1="74.825000" y1="15.000000" x2="250.800000" y2="15.000000"  style="stroke: black; stroke-linecap:round; stroke-width:0.25; stroke-dasharray:3,3;"/>
<text x="20.000000" y="17.000000" font-family="Arial" font-size="7">integrate(1000)</text>
<line x1="252.800000" y1="67.000000" x2="255.800000" y2="68.000000"  transform="rotate(0.000000,255.800000,68.000000)" style="stroke: black; stroke-width:0.25;"/>
<line x1="252.800000" y1="69.000000" x2="255.800000" y2="68.000000"  transform="rotate(0.000000,255.800000,68.000000)" style="stroke: black; stroke-width:0.25;"/>
<line x1="10.000000" y1="68.000000" x2="20.000000" y2="68.000000"  style="stroke:black; stroke-linecap:round; stroke-width:0.25;"/>
<line x1="20.000000" y1="68.000000" x2="24.000000" y2="68.000000"  style="stroke:black; stroke-linecap:round; stroke-width:0.25;"/>
<line x1="24.000000" y1="68.000000" x2="28.000000" y2="68.000000"  style="stroke:black; stroke-linecap:round; stroke-width:0.25;"/>
<line x1="28.000000" y1="68.000000" x2="28.000000" y2="68.000000"  style="stroke:black; stroke-linecap:round; stroke-width:0.25;"/>
<line x1="28.000000" y1="68.000000" x2="32.000000" y2="68.000000"  style="stroke:black; stroke-linecap:round; stroke-width:0.25;"/>
<line x1="88.900000" y1="68.000000" x2="92.900000" y2="68.000000"  style="stroke:black; stroke-linecap:round; stroke-width:0.25;"/>
<line x1="89.800000" y1="100.000000" x2="93.800000" y2="100.000000"  style="stroke:black; stroke-linecap:round; stroke-width:0.25;"/>
<line x1="92.900000" y1="68.000000" x2="93.800000" y2="68.000000"  style="stroke:black; stroke-linecap:round; stroke-width:0.25;"/>
<line x1="93.800000" y1="88.000000" x2="101.800000" y2="88.000000"  style="stroke:black; stroke-linecap:round; stroke-width:0.25;"/>
<line x1="93.800000" y1="100.000000" x2="93.800000" y2="88.000000"  style="stroke:black; stroke-linecap:round; stroke-width:0.25;"/>
<line x1="93.800000" y1="100.000000" x2="93.800000" y2="100.000000"  style="stroke:black; stroke-linecap:round; stroke-width:0.25;"/>
<line x1="93.800000" y1="68.000000" x2="101.800000" y2="68.000000"  style="stroke:black; stroke-linecap:round; stroke-width:0.25;"/>
<line x1="101.800000" y1="80.000000" x2="105.800000" y2="80.000000"  style="stroke:black; stroke-linecap:round; stroke-width:0.25;"/>
<line x1="101.800000" y1="88.000000" x2="105.800000" y2="88.000000"  style="stroke:black; stroke-linecap:round; stroke-width:0.25;"/>
<line x1="101.800000" y1="68.000000" x2="101.800000" y2="80.000000"  style="stroke:black; stroke-linecap:round; stroke-width:0.25;"/>
<line x1="101.800000" y1="80.000000" x2="101.800000" y2="80.000000"  style="stroke:black; stroke-linecap:round; stroke-width:0.25;"/>
<line x1="108.900000" y1="36.000000" x2="112.900000" y2="36.000000"  style="stroke:black; stroke-linecap:round; stroke-width:0.25;"/>
<line x1="112.900000" y1="36.000000" x2="133.800000" y2="36.000000"  style="stroke:black; stroke-linecap:round; stroke-width:0.25;"/>
<line x1="129.800000" y1="84.000000" x2="133.800000" y2="84.000000"  style="stroke:black; stroke-linecap:round; stroke-width:0.25;"/>
<line x1="133.800000" y1="36.000000" x2="141.800000" y2="36.000000"  style="stroke:black; stroke-linecap:round; stroke-width:0.25;"/>
<line x1="133.800000" y1="72.000000" x2="141.800000" y2="72.000000"  style="stroke:black; stroke-linecap:round; stroke-width:0.25;"/>
<line x1="133.800000" y1="84.000000" x2="133.800000" y2="72.000000"  style="stroke:black; stroke-linecap:round; stroke-width:0.25;"/>
<line x1="133.800000" y1="84.000000" x2="133.800000" y2="84.000000"  style="stroke:black; stroke-linecap:round; stroke-width:0.25;"/>
<line x1="141.800000" y1="36.000000" x2="141.800000" y2="64.000000"  style="stroke:black; stroke-linecap:round; stroke-width:0.25;"/>
<line x1="141.800000" y1="64.000000" x2="141.800000" y2="64.000000"  style="stroke:black; stroke-linecap:round; stroke-width:0.25;"/>
<line x1="141.800000" y1="64.000000" x2="145.800000" y2="64.000000"  style="stroke:black; stroke-linecap:round; stroke-width:0.25;"/>
<line x1="141.800000" y1="72.000000" x2="145.800000" y2="72.000000"  style="stroke:black; stroke-linecap:round; stroke-width:0.25;"/>
<line x1="169.800000" y1="68.000000" x2="173.800000" y2="68.000000"  style="stroke:black; stroke-linecap:round; stroke-width:0.25;"/>
<line x1="173.800000" y1="68.000000" x2="181.800000" y2="68.000000"  style="stroke:black; stroke-linecap:round; stroke-width:0.25;"/>
<line x1="181.800000" y1="68.000000" x2="181.800000" y2="76.000000"  style="stroke:black; stroke-linecap:round; stroke-width:0.25;"/>
<line x1="181.800000" y1="76.000000" x2="181.800000" y2="76.000000"  style="stroke:black; stroke-linecap:round; stroke-width:0.25;"/>
<line x1="181.800000" y1="76.000000" x2="189.800000" y2="76.000000"  style="stroke:black; stroke-linecap:round; stroke-width:0.25;"/>
<line x1="189.800000" y1="52.000000" x2="189.800000" y2="52.000000"  style="stroke:black; stroke-linecap:round; stroke-width:0.25;"/>
<line x1="189.800000" y1="52.000000" x2="189.800000" y2="68.000000"  style="stroke:black; stroke-linecap:round; stroke-width:0.25;"/>
<line x1="189.800000" y1="68.000000" x2="189.800000" y2="68.000000"  style="stroke:black; stroke-linecap:round; stroke-width:0.25;"/>
<line x1="189.800000" y1="68.000000" x2="193.800000" y2="68.000000"  style="stroke:black; stroke-linecap:round; stroke-width:0.25;"/>
<line x1="189.800000" y1="76.000000" x2="193.800000" y2="76.000000"  style="stroke:black; stroke-linecap:round; stroke-width:0.25;"/>
<line x1="205.800000" y1="52.000000" x2="189.800000" y2="52.000000"  style="stroke:black; stroke-linecap:round; stroke-width:0.25;"/>
<line x1="217.800000" y1="72.000000" x2="221.800000" y2="72.000000"  style="stroke:black; stroke-linecap:round; stroke-width:0.25;"/>
<line x1="221.800000" y1="52.000000" x2="205.800000" y2="52.000000"  style="stroke:black; stroke-linecap:round; stroke-width:0.25;"/>
<line x1="221.800000" y1="52.000000" x2="221.800000" y2="52.000000"  style="stroke:black; stroke-linecap:round; stroke-width:0.25;"/>
<line x1="221.800000" y1="68.000000" x2="221.800000" y2="52.000000"  style="stroke:black; stroke-linecap:round; stroke-width:0.25;"/>
<line x1="221.800000" y1="72.000000" x2="223.800000" y2="72.000000"  style="stroke:black; stroke-linecap:round; stroke-width:0.25;"/>
<line x1="223.800000" y1="72.000000" x2="229.800000" y2="72.000000"  style="stroke:black; stroke-linecap:round; stroke-width:0.25;"/>
<line x1="229.800000" y1="68.000000" x2="237.800000" y2="68.000000"  style="stroke:black; stroke-linecap:round; stroke-width:0.25;"/>
<line x1="229.800000" y1="72.000000" x2="229.800000" y2="68.000000"  style="stroke:black; stroke-linecap:round; stroke-width:0.25;"/>
<line x1="229.800000" y1="72.000000" x2="229.800000" y2="72.000000"  style="stroke:black; stroke-linecap:round; stroke-width:0.25;"/>
<line x1="237.800000" y1="68.000000" x2="241.800000" y2="68.000000"  style="stroke:black; stroke-linecap:round; stroke-width:0.25;"/>
<line x1="241.800000" y1="68.000000" x2="245.800000" y2="68.000000"  style="stroke:black; stroke-linecap:round; stroke-width:0.25;"/>
<line x1="245.800000" y1="68.000000" x2="255.800000" y2="68.000000"  style="stroke:black; stroke-linecap:round; stroke-width:0.25;"/>
</svg>
