<?xml version="1.0"?>
<svg xmlns="http://www.w3.org/2000/svg" xmlns:xlink="http://www.w3.org/1999/xlink" viewBox="0 0 264.000000 136.000000" width="132.000000mm" height="68.000000mm" version="1.1">
<a xlink:href="mean-0x7fed3a987910.svg">
<rect x="1.000000" y="1.000000" width="263.000000" height="135.000000" rx="0" ry="0" style="stroke:none;fill:#cccccc;"/>
<rect x="0.000000" y="0.000000" width="263.000000" height="135.000000" rx="0" ry="0" style="stroke:none;fill:#ffffff;"/>
</a>
<text x="10.000000" y="7.000000" font-family="Arial" font-size="7"></text>
<rect x="33.000000" y="57.000000" width="24.000000" height="24.000000" rx="0" ry="0" style="stroke:none;fill:#cccccc;"/>
<rect x="32.000000" y="56.000000" width="24.000000" height="24.000000" rx="0" ry="0" style="stroke:none;fill:#47945E;"/>
<text x="44.000000" y="70.000000" font-family="Arial" font-size="7" text-anchor="middle" fill="#FFFFFF">x</text>
<circle cx="34.000000" cy="58.000000" r="1"/>
<line x1="29.000000" y1="67.000000" x2="32.000000" y2="68.000000"  transform="rotate(0.000000,32.000000,68.000000)" style="stroke: black; stroke-width:0.25;"/>
<line x1="29.000000" y1="69.000000" x2="32.000000" y2="68.000000"  transform="rotate(0.000000,32.000000,68.000000)" style="stroke: black; stroke-width:0.25;"/>
<rect x="85.000000" y="25.000000" width="24.000000" height="24.000000" rx="0" ry="0" style="stroke:none;fill:#cccccc;"/>
<rect x="84.000000" y="24.000000" width="24.000000" height="24.000000" rx="0" ry="0" style="stroke:none;fill:#47945E;"/>
<text x="96.000000" y="38.000000" font-family="Arial" font-size="7" text-anchor="middle" fill="#FFFFFF">x</text>
<circle cx="86.000000" cy="26.000000" r="1"/>
<rect x="65.000000" y="57.000000" width="24.000000" height="24.000000" rx="0" ry="0" style="stroke:none;fill:#cccccc;"/>
<rect x="64.000000" y="56.000000" width="24.000000" height="24.000000" rx="0" ry="0" style="stroke:none;fill:#47945E;"/>
<text x="76.000000" y="70.000000" font-family="Arial" font-size="7" text-anchor="middle" fill="#FFFFFF">x</text>
<circle cx="66.000000" cy="58.000000" r="1"/>
<a xlink:href="tg-0x7fed3a973d80.svg">
<rect x="65.000000" y="89.000000" width="24.000000" height="24.000000" rx="0" ry="0" style="stroke:none;fill:#cccccc;"/>
<rect x="64.000000" y="88.000000" width="24.000000" height="24.000000" rx="0" ry="0" style="stroke:none;fill:#003366;"/>
</a>
<a xlink:href="tg-0x7fed3a973d80.svg">
<text x="76.000000" y="102.000000" font-family="Arial" font-size="7" text-anchor="middle" fill="#FFFFFF">tg</text>
</a>
<circle cx="66.000000" cy="90.000000" r="1"/>
<rect x="105.000000" y="73.000000" width="24.000000" height="24.000000" rx="0" ry="0" style="stroke:none;fill:#cccccc;"/>
<rect x="104.000000" y="72.000000" width="24.000000" height="24.000000" rx="0" ry="0" style="stroke:none;fill:#4B71A1;"/>
<text x="116.000000" y="86.000000" font-family="Arial" font-size="7" text-anchor="middle" fill="#FFFFFF">@</text>
<circle cx="106.000000" cy="74.000000" r="1"/>
<line x1="101.000000" y1="79.000000" x2="104.000000" y2="80.000000"  transform="rotate(0.000000,104.000000,80.000000)" style="stroke: black; stroke-width:0.25;"/>
<line x1="101.000000" y1="81.000000" x2="104.000000" y2="80.000000"  transform="rotate(0.000000,104.000000,80.000000)" style="stroke: black; stroke-width:0.25;"/>
<line x1="101.000000" y1="87.000000" x2="104.000000" y2="88.000000"  transform="rotate(0.000000,104.000000,88.000000)" style="stroke: black; stroke-width:0.25;"/>
<line x1="101.000000" y1="89.000000" x2="104.000000" y2="88.000000"  transform="rotate(0.000000,104.000000,88.000000)" style="stroke: black; stroke-width:0.25;"/>
<rect x="145.000000" y="57.000000" width="24.000000" height="24.000000" rx="0" ry="0" style="stroke:none;fill:#cccccc;"/>
<rect x="144.000000" y="56.000000" width="24.000000" height="24.000000" rx="0" ry="0" style="stroke:none;fill:#4B71A1;"/>
<text x="156.000000" y="70.000000" font-family="Arial" font-size="7" text-anchor="middle" fill="#FFFFFF">-</text>
<circle cx="146.000000" cy="58.000000" r="1"/>
<line x1="141.000000" y1="63.000000" x2="144.000000" y2="64.000000"  transform="rotate(0.000000,144.000000,64.000000)" style="stroke: black; stroke-width:0.25;"/>
<line x1="141.000000" y1="65.000000" x2="144.000000" y2="64.000000"  transform="rotate(0.000000,144.000000,64.000000)" style="stroke: black; stroke-width:0.25;"/>
<line x1="141.000000" y1="71.000000" x2="144.000000" y2="72.000000"  transform="rotate(0.000000,144.000000,72.000000)" style="stroke: black; stroke-width:0.25;"/>
<line x1="141.000000" y1="73.000000" x2="144.000000" y2="72.000000"  transform="rotate(0.000000,144.000000,72.000000)" style="stroke: black; stroke-width:0.25;"/>
<rect x="193.000000" y="61.000000" width="24.000000" height="24.000000" rx="0" ry="0" style="stroke:none;fill:#cccccc;"/>
<rect x="192.000000" y="60.000000" width="24.000000" height="24.000000" rx="0" ry="0" style="stroke:none;fill:#4B71A1;"/>
<text x="204.000000" y="74.000000" font-family="Arial" font-size="7" text-anchor="middle" fill="#FFFFFF">+</text>
<circle cx="194.000000" cy="62.000000" r="1"/>
<line x1="189.000000" y1="67.000000" x2="192.000000" y2="68.000000"  transform="rotate(0.000000,192.000000,68.000000)" style="stroke: black; stroke-width:0.25;"/>
<line x1="189.000000" y1="69.000000" x2="192.000000" y2="68.000000"  transform="rotate(0.000000,192.000000,68.000000)" style="stroke: black; stroke-width:0.25;"/>
<line x1="189.000000" y1="75.000000" x2="192.000000" y2="76.000000"  transform="rotate(0.000000,192.000000,76.000000)" style="stroke: black; stroke-width:0.25;"/>
<line x1="189.000000" y1="77.000000" x2="192.000000" y2="76.000000"  transform="rotate(0.000000,192.000000,76.000000)" style="stroke: black; stroke-width:0.25;"/>
<line x1="218.000000" y1="72.000000" x2="218.000000" y2="68.000000"  style="stroke:black; stroke-linecap:round; stroke-width:0.25;"/>
<line x1="218.000000" y1="68.000000" x2="222.000000" y2="68.000000"  style="stroke:black; stroke-linecap:round; stroke-width:0.25;"/>
<line x1="222.000000" y1="68.000000" x2="222.000000" y2="72.000000"  style="stroke:black; stroke-linecap:round; stroke-width:0.25;"/>
<line x1="15.000000" y1="15.000000" x2="15.000000" y2="121.000000"  style="stroke: black; stroke-linecap:round; stroke-width:0.25; stroke-dasharray:3,3;"/>
<line x1="15.000000" y1="121.000000" x2="249.000000" y2="121.000000"  style="stroke: black; stroke-linecap:round; stroke-width:0.25; stroke-dasharray:3,3;"/>
<line x1="249.000000" y1="121.000000" x2="249.000000" y2="15.000000"  style="stroke: black; stroke-linecap:round; stroke-width:0.25; stroke-dasharray:3,3;"/>
<line x1="15.000000" y1="15.000000" x2="20.000000" y2="15.000000"  style="stroke: black; stroke-linecap:round; stroke-width:0.25; stroke-dasharray:3,3;"/>
<line x1="119.975000" y1="15.000000" x2="249.000000" y2="15.000000"  style="stroke: black; stroke-linecap:round; stroke-width:0.25; stroke-dasharray:3,3;"/>
<text x="20.000000" y="17.000000" font-family="Arial" font-size="7">integrate(400...) : min) : *)</text>
<line x1="251.000000" y1="67.000000" x2="254.000000" y2="68.000000"  transform="rotate(0.000000,254.000000,68.000000)" style="stroke: black; stroke-width:0.25;"/>
<line x1="251.000000" y1="69.000000" x2="254.000000" y2="68.000000"  transform="rotate(0.000000,254.000000,68.000000)" style="stroke: black; stroke-width:0.25;"/>
<line x1="10.000000" y1="68.000000" x2="20.000000" y2="68.000000"  style="stroke:black; stroke-linecap:round; stroke-width:0.25;"/>
<line x1="20.000000" y1="68.000000" x2="24.000000" y2="68.000000"  style="stroke:black; stroke-linecap:round; stroke-width:0.25;"/>
<line x1="24.000000" y1="68.000000" x2="28.000000" y2="68.000000"  style="stroke:black; stroke-linecap:round; stroke-width:0.25;"/>
<line x1="28.000000" y1="68.000000" x2="28.000000" y2="68.000000"  style="stroke:black; stroke-linecap:round; stroke-width:0.25;"/>
<line x1="28.000000" y1="68.000000" x2="32.000000" y2="68.000000"  style="stroke:black; stroke-linecap:round; stroke-width:0.25;"/>
<line x1="88.000000" y1="68.000000" x2="92.000000" y2="68.000000"  style="stroke:black; stroke-linecap:round; stroke-width:0.25;"/>
<line x1="88.000000" y1="100.000000" x2="92.000000" y2="100.000000"  style="stroke:black; stroke-linecap:round; stroke-width:0.25;"/>
<line x1="92.000000" y1="68.000000" x2="100.000000" y2="68.000000"  style="stroke:black; stroke-linecap:round; stroke-width:0.25;"/>
<line x1="92.000000" y1="88.000000" x2="100.000000" y2="88.000000"  style="stroke:black; stroke-linecap:round; stroke-width:0.25;"/>
<line x1="92.000000" y1="100.000000" x2="92.000000" y2="88.000000"  style="stroke:black; stroke-linecap:round; stroke-width:0.25;"/>
<line x1="92.000000" y1="100.000000" x2="92.000000" y2="100.000000"  style="stroke:black; stroke-linecap:round; stroke-width:0.25;"/>
<line x1="100.000000" y1="68.000000" x2="100.000000" y2="80.000000"  style="stroke:black; stroke-linecap:round; stroke-width:0.25;"/>
<line x1="100.000000" y1="80.000000" x2="100.000000" y2="80.000000"  style="stroke:black; stroke-linecap:round; stroke-width:0.25;"/>
<line x1="100.000000" y1="80.000000" x2="104.000000" y2="80.000000"  style="stroke:black; stroke-linecap:round; stroke-width:0.25;"/>
<line x1="100.000000" y1="88.000000" x2="104.000000" y2="88.000000"  style="stroke:black; stroke-linecap:round; stroke-width:0.25;"/>
<line x1="108.000000" y1="36.000000" x2="112.000000" y2="36.000000"  style="stroke:black; stroke-linecap:round; stroke-width:0.25;"/>
<line x1="112.000000" y1="36.000000" x2="132.000000" y2="36.000000"  style="stroke:black; stroke-linecap:round; stroke-width:0.25;"/>
<line x1="128.000000" y1="84.000000" x2="132.000000" y2="84.000000"  style="stroke:black; stroke-linecap:round; stroke-width:0.25;"/>
<line x1="132.000000" y1="36.000000" x2="140.000000" y2="36.000000"  style="stroke:black; stroke-linecap:round; stroke-width:0.25;"/>
<line x1="132.000000" y1="72.000000" x2="140.000000" y2="72.000000"  style="stroke:black; stroke-linecap:round; stroke-width:0.25;"/>
<line x1="132.000000" y1="84.000000" x2="132.000000" y2="72.000000"  style="stroke:black; stroke-linecap:round; stroke-width:0.25;"/>
<line x1="132.000000" y1="84.000000" x2="132.000000" y2="84.000000"  style="stroke:black; stroke-linecap:round; stroke-width:0.25;"/>
<line x1="140.000000" y1="36.000000" x2="140.000000" y2="64.000000"  style="stroke:black; stroke-linecap:round; stroke-width:0.25;"/>
<line x1="140.000000" y1="64.000000" x2="140.000000" y2="64.000000"  style="stroke:black; stroke-linecap:round; stroke-width:0.25;"/>
<line x1="140.000000" y1="64.000000" x2="144.000000" y2="64.000000"  style="stroke:black; stroke-linecap:round; stroke-width:0.25;"/>
<line x1="140.000000" y1="72.000000" x2="144.000000" y2="72.000000"  style="stroke:black; stroke-linecap:round; stroke-width:0.25;"/>
<line x1="168.000000" y1="68.000000" x2="172.000000" y2="68.000000"  style="stroke:black; stroke-linecap:round; stroke-width:0.25;"/>
<line x1="172.000000" y1="68.000000" x2="180.000000" y2="68.000000"  style="stroke:black; stroke-linecap:round; stroke-width:0.25;"/>
<line x1="180.000000" y1="68.000000" x2="180.000000" y2="76.000000"  style="stroke:black; stroke-linecap:round; stroke-width:0.25;"/>
<line x1="180.000000" y1="76.000000" x2="180.000000" y2="76.000000"  style="stroke:black; stroke-linecap:round; stroke-width:0.25;"/>
<line x1="180.000000" y1="76.000000" x2="188.000000" y2="76.000000"  style="stroke:black; stroke-linecap:round; stroke-width:0.25;"/>
<line x1="188.000000" y1="52.000000" x2="188.000000" y2="52.000000"  style="stroke:black; stroke-linecap:round; stroke-width:0.25;"/>
<line x1="188.000000" y1="52.000000" x2="188.000000" y2="68.000000"  style="stroke:black; stroke-linecap:round; stroke-width:0.25;"/>
<line x1="188.000000" y1="68.000000" x2="188.000000" y2="68.000000"  style="stroke:black; stroke-linecap:round; stroke-width:0.25;"/>
<line x1="188.000000" y1="68.000000" x2="192.000000" y2="68.000000"  style="stroke:black; stroke-linecap:round; stroke-width:0.25;"/>
<line x1="188.000000" y1="76.000000" x2="192.000000" y2="76.000000"  style="stroke:black; stroke-linecap:round; stroke-width:0.25;"/>
<line x1="204.000000" y1="52.000000" x2="188.000000" y2="52.000000"  style="stroke:black; stroke-linecap:round; stroke-width:0.25;"/>
<line x1="216.000000" y1="72.000000" x2="220.000000" y2="72.000000"  style="stroke:black; stroke-linecap:round; stroke-width:0.25;"/>
<line x1="220.000000" y1="52.000000" x2="204.000000" y2="52.000000"  style="stroke:black; stroke-linecap:round; stroke-width:0.25;"/>
<line x1="220.000000" y1="52.000000" x2="220.000000" y2="52.000000"  style="stroke:black; stroke-linecap:round; stroke-width:0.25;"/>
<line x1="220.000000" y1="68.000000" x2="220.000000" y2="52.000000"  style="stroke:black; stroke-linecap:round; stroke-width:0.25;"/>
<line x1="220.000000" y1="72.000000" x2="222.000000" y2="72.000000"  style="stroke:black; stroke-linecap:round; stroke-width:0.25;"/>
<line x1="222.000000" y1="72.000000" x2="228.000000" y2="72.000000"  style="stroke:black; stroke-linecap:round; stroke-width:0.25;"/>
<line x1="228.000000" y1="68.000000" x2="236.000000" y2="68.000000"  style="stroke:black; stroke-linecap:round; stroke-width:0.25;"/>
<line x1="228.000000" y1="72.000000" x2="228.000000" y2="68.000000"  style="stroke:black; stroke-linecap:round; stroke-width:0.25;"/>
<line x1="228.000000" y1="72.000000" x2="228.000000" y2="72.000000"  style="stroke:black; stroke-linecap:round; stroke-width:0.25;"/>
<line x1="236.000000" y1="68.000000" x2="240.000000" y2="68.000000"  style="stroke:black; stroke-linecap:round; stroke-width:0.25;"/>
<line x1="240.000000" y1="68.000000" x2="244.000000" y2="68.000000"  style="stroke:black; stroke-linecap:round; stroke-width:0.25;"/>
<line x1="244.000000" y1="68.000000" x2="254.000000" y2="68.000000"  style="stroke:black; stroke-linecap:round; stroke-width:0.25;"/>
</svg>
