<?xml version="1.0"?>
<svg xmlns="http://www.w3.org/2000/svg" xmlns:xlink="http://www.w3.org/1999/xlink" viewBox="0 0 303.700000 80.000000" width="151.850000mm" height="40.000000mm" version="1.1">
<a xlink:href="RMS-0x7fc9d545d7a0.svg">
<rect x="1.000000" y="1.000000" width="302.700000" height="79.000000" rx="0" ry="0" style="stroke:none;fill:#cccccc;"/>
<rect x="0.000000" y="0.000000" width="302.700000" height="79.000000" rx="0" ry="0" style="stroke:none;fill:#ffffff;"/>
</a>
<text x="10.000000" y="7.000000" font-family="Arial" font-size="7"></text>
<a xlink:href="float2fix-0x7fc9d5459d10.svg">
<rect x="33.000000" y="29.000000" width="38.700000" height="24.000000" rx="0" ry="0" style="stroke:none;fill:#cccccc;"/>
<rect x="32.000000" y="28.000000" width="38.700000" height="24.000000" rx="0" ry="0" style="stroke:none;fill:#003366;"/>
</a>
<a xlink:href="float2fix-0x7fc9d5459d10.svg">
<text x="51.350000" y="42.000000" font-family="Arial" font-size="7" text-anchor="middle" fill="#FFFFFF">float2fix</text>
</a>
<circle cx="34.000000" cy="30.000000" r="1"/>
<line x1="29.000000" y1="39.000000" x2="32.000000" y2="40.000000"  transform="rotate(0.000000,32.000000,40.000000)" style="stroke: black; stroke-width:0.25;"/>
<line x1="29.000000" y1="41.000000" x2="32.000000" y2="40.000000"  transform="rotate(0.000000,32.000000,40.000000)" style="stroke: black; stroke-width:0.25;"/>
<a xlink:href="integrate-0x7fc9d545bb10.svg">
<rect x="79.700000" y="29.000000" width="64.500000" height="24.000000" rx="0" ry="0" style="stroke:none;fill:#cccccc;"/>
<rect x="78.700000" y="28.000000" width="64.500000" height="24.000000" rx="0" ry="0" style="stroke:none;fill:#003366;"/>
</a>
<a xlink:href="integrate-0x7fc9d545bb10.svg">
<text x="110.950000" y="42.000000" font-family="Arial" font-size="7" text-anchor="middle" fill="#FFFFFF">integrate(1000)</text>
</a>
<circle cx="80.700000" cy="30.000000" r="1"/>
<line x1="75.700000" y1="39.000000" x2="78.700000" y2="40.000000"  transform="rotate(0.000000,78.700000,40.000000)" style="stroke: black; stroke-width:0.25;"/>
<line x1="75.700000" y1="41.000000" x2="78.700000" y2="40.000000"  transform="rotate(0.000000,78.700000,40.000000)" style="stroke: black; stroke-width:0.25;"/>
<a xlink:href="fix2float-0x7fc9d545d250.svg">
<rect x="152.200000" y="29.000000" width="38.700000" height="24.000000" rx="0" ry="0" style="stroke:none;fill:#cccccc;"/>
<rect x="151.200000" y="28.000000" width="38.700000" height="24.000000" rx="0" ry="0" style="stroke:none;fill:#003366;"/>
</a>
<a xlink:href="fix2float-0x7fc9d545d250.svg">
<text x="170.550000" y="42.000000" font-family="Arial" font-size="7" text-anchor="middle" fill="#FFFFFF">fix2float</text>
</a>
<circle cx="153.200000" cy="30.000000" r="1"/>
<line x1="148.200000" y1="39.000000" x2="151.200000" y2="40.000000"  transform="rotate(0.000000,151.200000,40.000000)" style="stroke: black; stroke-width:0.25;"/>
<line x1="148.200000" y1="41.000000" x2="151.200000" y2="40.000000"  transform="rotate(0.000000,151.200000,40.000000)" style="stroke: black; stroke-width:0.25;"/>
<rect x="206.900000" y="33.000000" width="25.800000" height="24.000000" rx="0" ry="0" style="stroke:none;fill:#cccccc;"/>
<rect x="205.900000" y="32.000000" width="25.800000" height="24.000000" rx="0" ry="0" style="stroke:none;fill:#f44800;"/>
<text x="218.800000" y="46.000000" font-family="Arial" font-size="7" text-anchor="middle" fill="#FFFFFF">1000</text>
<circle cx="207.900000" cy="34.000000" r="1"/>
<rect x="248.700000" y="29.000000" width="24.000000" height="24.000000" rx="0" ry="0" style="stroke:none;fill:#cccccc;"/>
<rect x="247.700000" y="28.000000" width="24.000000" height="24.000000" rx="0" ry="0" style="stroke:none;fill:#4B71A1;"/>
<text x="259.700000" y="42.000000" font-family="Arial" font-size="7" text-anchor="middle" fill="#FFFFFF">/</text>
<circle cx="249.700000" cy="30.000000" r="1"/>
<line x1="244.700000" y1="35.000000" x2="247.700000" y2="36.000000"  transform="rotate(0.000000,247.700000,36.000000)" style="stroke: black; stroke-width:0.25;"/>
<line x1="244.700000" y1="37.000000" x2="247.700000" y2="36.000000"  transform="rotate(0.000000,247.700000,36.000000)" style="stroke: black; stroke-width:0.25;"/>
<line x1="244.700000" y1="43.000000" x2="247.700000" y2="44.000000"  transform="rotate(0.000000,247.700000,44.000000)" style="stroke: black; stroke-width:0.25;"/>
<line x1="244.700000" y1="45.000000" x2="247.700000" y2="44.000000"  transform="rotate(0.000000,247.700000,44.000000)" style="stroke: black; stroke-width:0.25;"/>
<line x1="15.000000" y1="15.000000" x2="15.000000" y2="65.000000"  style="stroke: black; stroke-linecap:round; stroke-width:0.25; stroke-dasharray:3,3;"/>
<line x1="15.000000" y1="65.000000" x2="288.700000" y2="65.000000"  style="stroke: black; stroke-linecap:round; stroke-width:0.25; stroke-dasharray:3,3;"/>
<line x1="288.700000" y1="65.000000" x2="288.700000" y2="15.000000"  style="stroke: black; stroke-linecap:round; stroke-width:0.25; stroke-dasharray:3,3;"/>
<line x1="15.000000" y1="15.000000" x2="20.000000" y2="15.000000"  style="stroke: black; stroke-linecap:round; stroke-width:0.25; stroke-dasharray:3,3;"/>
<line x1="58.700000" y1="15.000000" x2="288.700000" y2="15.000000"  style="stroke: black; stroke-linecap:round; stroke-width:0.25; stroke-dasharray:3,3;"/>
<text x="20.000000" y="17.000000" font-family="Arial" font-size="7">mean(1000)</text>
<line x1="290.700000" y1="39.000000" x2="293.700000" y2="40.000000"  transform="rotate(0.000000,293.700000,40.000000)" style="stroke: black; stroke-width:0.25;"/>
<line x1="290.700000" y1="41.000000" x2="293.700000" y2="40.000000"  transform="rotate(0.000000,293.700000,40.000000)" style="stroke: black; stroke-width:0.25;"/>
<line x1="10.000000" y1="40.000000" x2="20.000000" y2="40.000000"  style="stroke:black; stroke-linecap:round; stroke-width:0.25;"/>
<line x1="20.000000" y1="40.000000" x2="24.000000" y2="40.000000"  style="stroke:black; stroke-linecap:round; stroke-width:0.25;"/>
<line x1="24.000000" y1="40.000000" x2="28.000000" y2="40.000000"  style="stroke:black; stroke-linecap:round; stroke-width:0.25;"/>
<line x1="28.000000" y1="40.000000" x2="28.000000" y2="40.000000"  style="stroke:black; stroke-linecap:round; stroke-width:0.25;"/>
<line x1="28.000000" y1="40.000000" x2="32.000000" y2="40.000000"  style="stroke:black; stroke-linecap:round; stroke-width:0.25;"/>
<line x1="70.700000" y1="40.000000" x2="74.700000" y2="40.000000"  style="stroke:black; stroke-linecap:round; stroke-width:0.25;"/>
<line x1="74.700000" y1="40.000000" x2="74.700000" y2="40.000000"  style="stroke:black; stroke-linecap:round; stroke-width:0.25;"/>
<line x1="74.700000" y1="40.000000" x2="78.700000" y2="40.000000"  style="stroke:black; stroke-linecap:round; stroke-width:0.25;"/>
<line x1="143.200000" y1="40.000000" x2="147.200000" y2="40.000000"  style="stroke:black; stroke-linecap:round; stroke-width:0.25;"/>
<line x1="147.200000" y1="40.000000" x2="147.200000" y2="40.000000"  style="stroke:black; stroke-linecap:round; stroke-width:0.25;"/>
<line x1="147.200000" y1="40.000000" x2="151.200000" y2="40.000000"  style="stroke:black; stroke-linecap:round; stroke-width:0.25;"/>
<line x1="189.900000" y1="40.000000" x2="193.900000" y2="40.000000"  style="stroke:black; stroke-linecap:round; stroke-width:0.25;"/>
<line x1="193.900000" y1="24.000000" x2="201.900000" y2="24.000000"  style="stroke:black; stroke-linecap:round; stroke-width:0.25;"/>
<line x1="193.900000" y1="40.000000" x2="193.900000" y2="24.000000"  style="stroke:black; stroke-linecap:round; stroke-width:0.25;"/>
<line x1="193.900000" y1="40.000000" x2="193.900000" y2="40.000000"  style="stroke:black; stroke-linecap:round; stroke-width:0.25;"/>
<line x1="201.900000" y1="24.000000" x2="218.800000" y2="24.000000"  style="stroke:black; stroke-linecap:round; stroke-width:0.25;"/>
<line x1="218.800000" y1="24.000000" x2="235.700000" y2="24.000000"  style="stroke:black; stroke-linecap:round; stroke-width:0.25;"/>
<line x1="231.700000" y1="44.000000" x2="235.700000" y2="44.000000"  style="stroke:black; stroke-linecap:round; stroke-width:0.25;"/>
<line x1="235.700000" y1="24.000000" x2="243.700000" y2="24.000000"  style="stroke:black; stroke-linecap:round; stroke-width:0.25;"/>
<line x1="235.700000" y1="44.000000" x2="243.700000" y2="44.000000"  style="stroke:black; stroke-linecap:round; stroke-width:0.25;"/>
<line x1="243.700000" y1="24.000000" x2="243.700000" y2="36.000000"  style="stroke:black; stroke-linecap:round; stroke-width:0.25;"/>
<line x1="243.700000" y1="36.000000" x2="243.700000" y2="36.000000"  style="stroke:black; stroke-linecap:round; stroke-width:0.25;"/>
<line x1="243.700000" y1="36.000000" x2="247.700000" y2="36.000000"  style="stroke:black; stroke-linecap:round; stroke-width:0.25;"/>
<line x1="243.700000" y1="44.000000" x2="247.700000" y2="44.000000"  style="stroke:black; stroke-linecap:round; stroke-width:0.25;"/>
<line x1="271.700000" y1="40.000000" x2="275.700000" y2="40.000000"  style="stroke:black; stroke-linecap:round; stroke-width:0.25;"/>
<line x1="275.700000" y1="40.000000" x2="275.700000" y2="40.000000"  style="stroke:black; stroke-linecap:round; stroke-width:0.25;"/>
<line x1="275.700000" y1="40.000000" x2="279.700000" y2="40.000000"  style="stroke:black; stroke-linecap:round; stroke-width:0.25;"/>
<line x1="279.700000" y1="40.000000" x2="283.700000" y2="40.000000"  style="stroke:black; stroke-linecap:round; stroke-width:0.25;"/>
<line x1="283.700000" y1="40.000000" x2="293.700000" y2="40.000000"  style="stroke:black; stroke-linecap:round; stroke-width:0.25;"/>
</svg>
