<?xml version="1.0"?>
<svg xmlns="http://www.w3.org/2000/svg" xmlns:xlink="http://www.w3.org/1999/xlink" viewBox="0 0 233.800000 120.000000" width="116.900000mm" height="60.000000mm" version="1.1">
<a xlink:href="process.svg">
<rect x="0.000000" y="0.000000" width="232.800000" height="119.000000" rx="0" ry="0" style="stroke:#000000;fill:#FFFFFF;"/>
</a>
<text x="10.000000" y="7.000000" font-family="Verdana" font-size="7"></text>
<rect x="48.000000" y="68.000000" width="24.000000" height="24.000000" rx="0" ry="0" style="stroke:#000000;fill:#FFFFFF;"/>
<text x="60.000000" y="82.000000" font-family="Verdana" font-size="7" text-anchor="middle" fill="#000000">+</text>
<circle cx="50.000000" cy="70.000000" r="1"/>
<line x1="45.000000" y1="75.000000" x2="48.000000" y2="76.000000"  transform="rotate(0.000000,48.000000,76.000000)" style="stroke: black; stroke-width:0.25;"/>
<line x1="45.000000" y1="77.000000" x2="48.000000" y2="76.000000"  transform="rotate(0.000000,48.000000,76.000000)" style="stroke: black; stroke-width:0.25;"/>
<line x1="45.000000" y1="83.000000" x2="48.000000" y2="84.000000"  transform="rotate(0.000000,48.000000,84.000000)" style="stroke: black; stroke-width:0.25;"/>
<line x1="45.000000" y1="85.000000" x2="48.000000" y2="84.000000"  transform="rotate(0.000000,48.000000,84.000000)" style="stroke: black; stroke-width:0.25;"/>
<rect x="88.000000" y="72.000000" width="25.800000" height="24.000000" rx="0" ry="0" style="stroke:#000000;fill:#FFFFFF;"/>
<text x="100.900000" y="86.000000" font-family="Verdana" font-size="7" text-anchor="middle" fill="#000000">1810</text>
<circle cx="90.000000" cy="74.000000" r="1"/>
<rect x="129.800000" y="68.000000" width="24.000000" height="24.000000" rx="0" ry="0" style="stroke:#000000;fill:#FFFFFF;"/>
<text x="141.800000" y="82.000000" font-family="Verdana" font-size="7" text-anchor="middle" fill="#000000">@</text>
<circle cx="131.800000" cy="70.000000" r="1"/>
<line x1="126.800000" y1="75.000000" x2="129.800000" y2="76.000000"  transform="rotate(0.000000,129.800000,76.000000)" style="stroke: black; stroke-width:0.25;"/>
<line x1="126.800000" y1="77.000000" x2="129.800000" y2="76.000000"  transform="rotate(0.000000,129.800000,76.000000)" style="stroke: black; stroke-width:0.25;"/>
<line x1="126.800000" y1="83.000000" x2="129.800000" y2="84.000000"  transform="rotate(0.000000,129.800000,84.000000)" style="stroke: black; stroke-width:0.25;"/>
<line x1="126.800000" y1="85.000000" x2="129.800000" y2="84.000000"  transform="rotate(0.000000,129.800000,84.000000)" style="stroke: black; stroke-width:0.25;"/>
<rect x="108.000000" y="24.000000" width="25.800000" height="24.000000" rx="0" ry="0" style="stroke:#000000;fill:#FFFFFF;"/>
<text x="120.900000" y="38.000000" font-family="Verdana" font-size="7" text-anchor="middle" fill="#000000">0.74f</text>
<circle cx="131.800000" cy="46.000000" r="1"/>
<rect x="68.000000" y="28.000000" width="24.000000" height="24.000000" rx="0" ry="0" style="stroke:#000000;fill:#FFFFFF;"/>
<text x="80.000000" y="42.000000" font-family="Verdana" font-size="7" text-anchor="middle" fill="#000000">*</text>
<circle cx="90.000000" cy="50.000000" r="1"/>
<line x1="95.000000" y1="43.000000" x2="92.000000" y2="44.000000"  transform="rotate(0.000000,92.000000,44.000000)" style="stroke: black; stroke-width:0.25;"/>
<line x1="95.000000" y1="45.000000" x2="92.000000" y2="44.000000"  transform="rotate(0.000000,92.000000,44.000000)" style="stroke: black; stroke-width:0.25;"/>
<line x1="95.000000" y1="35.000000" x2="92.000000" y2="36.000000"  transform="rotate(0.000000,92.000000,36.000000)" style="stroke: black; stroke-width:0.25;"/>
<line x1="95.000000" y1="37.000000" x2="92.000000" y2="36.000000"  transform="rotate(0.000000,92.000000,36.000000)" style="stroke: black; stroke-width:0.25;"/>
<line x1="155.800000" y1="80.000000" x2="155.800000" y2="76.000000"  style="stroke:black; stroke-linecap:round; stroke-width:0.25;"/>
<line x1="155.800000" y1="76.000000" x2="159.800000" y2="76.000000"  style="stroke:black; stroke-linecap:round; stroke-width:0.25;"/>
<line x1="159.800000" y1="76.000000" x2="159.800000" y2="80.000000"  style="stroke:black; stroke-linecap:round; stroke-width:0.25;"/>
<rect x="177.800000" y="48.000000" width="24.000000" height="24.000000" rx="0" ry="0" style="stroke:#000000;fill:#FFFFFF;"/>
<text x="189.800000" y="62.000000" font-family="Verdana" font-size="7" text-anchor="middle" fill="#000000">mem</text>
<circle cx="179.800000" cy="50.000000" r="1"/>
<line x1="174.800000" y1="59.000000" x2="177.800000" y2="60.000000"  transform="rotate(0.000000,177.800000,60.000000)" style="stroke: black; stroke-width:0.25;"/>
<line x1="174.800000" y1="61.000000" x2="177.800000" y2="60.000000"  transform="rotate(0.000000,177.800000,60.000000)" style="stroke: black; stroke-width:0.25;"/>
<line x1="15.000000" y1="15.000000" x2="15.000000" y2="105.000000"  style="stroke: black; stroke-linecap:round; stroke-width:0.25; stroke-dasharray:3,3;"/>
<line x1="15.000000" y1="105.000000" x2="218.800000" y2="105.000000"  style="stroke: black; stroke-linecap:round; stroke-width:0.25; stroke-dasharray:3,3;"/>
<line x1="218.800000" y1="105.000000" x2="218.800000" y2="15.000000"  style="stroke: black; stroke-linecap:round; stroke-width:0.25; stroke-dasharray:3,3;"/>
<line x1="15.000000" y1="15.000000" x2="20.000000" y2="15.000000"  style="stroke: black; stroke-linecap:round; stroke-width:0.25; stroke-dasharray:3,3;"/>
<line x1="81.275000" y1="15.000000" x2="218.800000" y2="15.000000"  style="stroke: black; stroke-linecap:round; stroke-width:0.25; stroke-dasharray:3,3;"/>
<text x="20.000000" y="17.000000" font-family="Verdana" font-size="7">dflc(1811)(0.74f)</text>
<line x1="220.800000" y1="59.000000" x2="223.800000" y2="60.000000"  transform="rotate(0.000000,223.800000,60.000000)" style="stroke: black; stroke-width:0.25;"/>
<line x1="220.800000" y1="61.000000" x2="223.800000" y2="60.000000"  transform="rotate(0.000000,223.800000,60.000000)" style="stroke: black; stroke-width:0.25;"/>
<line x1="10.000000" y1="60.000000" x2="20.000000" y2="60.000000"  style="stroke:black; stroke-linecap:round; stroke-width:0.25;"/>
<line x1="20.000000" y1="60.000000" x2="24.000000" y2="60.000000"  style="stroke:black; stroke-linecap:round; stroke-width:0.25;"/>
<line x1="24.000000" y1="60.000000" x2="28.000000" y2="60.000000"  style="stroke:black; stroke-linecap:round; stroke-width:0.25;"/>
<line x1="28.000000" y1="60.000000" x2="36.000000" y2="60.000000"  style="stroke:black; stroke-linecap:round; stroke-width:0.25;"/>
<line x1="36.000000" y1="60.000000" x2="36.000000" y2="84.000000"  style="stroke:black; stroke-linecap:round; stroke-width:0.25;"/>
<line x1="36.000000" y1="84.000000" x2="36.000000" y2="84.000000"  style="stroke:black; stroke-linecap:round; stroke-width:0.25;"/>
<line x1="36.000000" y1="84.000000" x2="44.000000" y2="84.000000"  style="stroke:black; stroke-linecap:round; stroke-width:0.25;"/>
<line x1="44.000000" y1="40.000000" x2="44.000000" y2="40.000000"  style="stroke:black; stroke-linecap:round; stroke-width:0.25;"/>
<line x1="44.000000" y1="40.000000" x2="44.000000" y2="76.000000"  style="stroke:black; stroke-linecap:round; stroke-width:0.25;"/>
<line x1="44.000000" y1="76.000000" x2="44.000000" y2="76.000000"  style="stroke:black; stroke-linecap:round; stroke-width:0.25;"/>
<line x1="44.000000" y1="76.000000" x2="48.000000" y2="76.000000"  style="stroke:black; stroke-linecap:round; stroke-width:0.25;"/>
<line x1="44.000000" y1="84.000000" x2="48.000000" y2="84.000000"  style="stroke:black; stroke-linecap:round; stroke-width:0.25;"/>
<line x1="64.000000" y1="40.000000" x2="44.000000" y2="40.000000"  style="stroke:black; stroke-linecap:round; stroke-width:0.25;"/>
<line x1="68.000000" y1="40.000000" x2="64.000000" y2="40.000000"  style="stroke:black; stroke-linecap:round; stroke-width:0.25;"/>
<line x1="72.000000" y1="80.000000" x2="76.000000" y2="80.000000"  style="stroke:black; stroke-linecap:round; stroke-width:0.25;"/>
<line x1="76.000000" y1="64.000000" x2="84.000000" y2="64.000000"  style="stroke:black; stroke-linecap:round; stroke-width:0.25;"/>
<line x1="76.000000" y1="80.000000" x2="76.000000" y2="64.000000"  style="stroke:black; stroke-linecap:round; stroke-width:0.25;"/>
<line x1="76.000000" y1="80.000000" x2="76.000000" y2="80.000000"  style="stroke:black; stroke-linecap:round; stroke-width:0.25;"/>
<line x1="84.000000" y1="64.000000" x2="100.900000" y2="64.000000"  style="stroke:black; stroke-linecap:round; stroke-width:0.25;"/>
<line x1="96.000000" y1="36.000000" x2="92.000000" y2="36.000000"  style="stroke:black; stroke-linecap:round; stroke-width:0.25;"/>
<line x1="96.000000" y1="44.000000" x2="92.000000" y2="44.000000"  style="stroke:black; stroke-linecap:round; stroke-width:0.25;"/>
<line x1="96.000000" y1="44.000000" x2="96.000000" y2="44.000000"  style="stroke:black; stroke-linecap:round; stroke-width:0.25;"/>
<line x1="96.000000" y1="56.000000" x2="96.000000" y2="44.000000"  style="stroke:black; stroke-linecap:round; stroke-width:0.25;"/>
<line x1="100.900000" y1="64.000000" x2="117.800000" y2="64.000000"  style="stroke:black; stroke-linecap:round; stroke-width:0.25;"/>
<line x1="104.000000" y1="36.000000" x2="96.000000" y2="36.000000"  style="stroke:black; stroke-linecap:round; stroke-width:0.25;"/>
<line x1="104.000000" y1="56.000000" x2="96.000000" y2="56.000000"  style="stroke:black; stroke-linecap:round; stroke-width:0.25;"/>
<line x1="108.000000" y1="36.000000" x2="104.000000" y2="36.000000"  style="stroke:black; stroke-linecap:round; stroke-width:0.25;"/>
<line x1="113.800000" y1="84.000000" x2="117.800000" y2="84.000000"  style="stroke:black; stroke-linecap:round; stroke-width:0.25;"/>
<line x1="117.800000" y1="84.000000" x2="125.800000" y2="84.000000"  style="stroke:black; stroke-linecap:round; stroke-width:0.25;"/>
<line x1="117.800000" y1="64.000000" x2="125.800000" y2="64.000000"  style="stroke:black; stroke-linecap:round; stroke-width:0.25;"/>
<line x1="120.900000" y1="56.000000" x2="104.000000" y2="56.000000"  style="stroke:black; stroke-linecap:round; stroke-width:0.25;"/>
<line x1="125.800000" y1="76.000000" x2="129.800000" y2="76.000000"  style="stroke:black; stroke-linecap:round; stroke-width:0.25;"/>
<line x1="125.800000" y1="84.000000" x2="129.800000" y2="84.000000"  style="stroke:black; stroke-linecap:round; stroke-width:0.25;"/>
<line x1="125.800000" y1="64.000000" x2="125.800000" y2="76.000000"  style="stroke:black; stroke-linecap:round; stroke-width:0.25;"/>
<line x1="125.800000" y1="76.000000" x2="125.800000" y2="76.000000"  style="stroke:black; stroke-linecap:round; stroke-width:0.25;"/>
<line x1="137.800000" y1="56.000000" x2="120.900000" y2="56.000000"  style="stroke:black; stroke-linecap:round; stroke-width:0.25;"/>
<line x1="153.800000" y1="80.000000" x2="157.800000" y2="80.000000"  style="stroke:black; stroke-linecap:round; stroke-width:0.25;"/>
<line x1="157.800000" y1="56.000000" x2="137.800000" y2="56.000000"  style="stroke:black; stroke-linecap:round; stroke-width:0.25;"/>
<line x1="157.800000" y1="56.000000" x2="157.800000" y2="56.000000"  style="stroke:black; stroke-linecap:round; stroke-width:0.25;"/>
<line x1="157.800000" y1="76.000000" x2="157.800000" y2="56.000000"  style="stroke:black; stroke-linecap:round; stroke-width:0.25;"/>
<line x1="157.800000" y1="80.000000" x2="159.800000" y2="80.000000"  style="stroke:black; stroke-linecap:round; stroke-width:0.25;"/>
<line x1="159.800000" y1="80.000000" x2="165.800000" y2="80.000000"  style="stroke:black; stroke-linecap:round; stroke-width:0.25;"/>
<line x1="165.800000" y1="60.000000" x2="173.800000" y2="60.000000"  style="stroke:black; stroke-linecap:round; stroke-width:0.25;"/>
<line x1="165.800000" y1="80.000000" x2="165.800000" y2="60.000000"  style="stroke:black; stroke-linecap:round; stroke-width:0.25;"/>
<line x1="165.800000" y1="80.000000" x2="165.800000" y2="80.000000"  style="stroke:black; stroke-linecap:round; stroke-width:0.25;"/>
<line x1="173.800000" y1="60.000000" x2="177.800000" y2="60.000000"  style="stroke:black; stroke-linecap:round; stroke-width:0.25;"/>
<line x1="201.800000" y1="60.000000" x2="205.800000" y2="60.000000"  style="stroke:black; stroke-linecap:round; stroke-width:0.25;"/>
<line x1="205.800000" y1="60.000000" x2="205.800000" y2="60.000000"  style="stroke:black; stroke-linecap:round; stroke-width:0.25;"/>
<line x1="205.800000" y1="60.000000" x2="209.800000" y2="60.000000"  style="stroke:black; stroke-linecap:round; stroke-width:0.25;"/>
<line x1="209.800000" y1="60.000000" x2="213.800000" y2="60.000000"  style="stroke:black; stroke-linecap:round; stroke-width:0.25;"/>
<line x1="213.800000" y1="60.000000" x2="223.800000" y2="60.000000"  style="stroke:black; stroke-linecap:round; stroke-width:0.25;"/>
</svg>
