<?xml version="1.0"?>
<svg xmlns="http://www.w3.org/2000/svg" xmlns:xlink="http://www.w3.org/1999/xlink" viewBox="0 0 499.800000 176.000000" width="249.900000mm" height="88.000000mm" version="1.1">
<rect x="0.000000" y="0.000000" width="498.800000" height="175.000000" rx="0" ry="0" style="stroke:#000000;fill:#FFFFFF;"/>
<text x="10.000000" y="7.000000" font-family="Verdana" font-size="7"></text>
<a xlink:href="apf-0x6000006dc6c0.svg">
<rect x="32.000000" y="76.000000" width="90.300000" height="24.000000" rx="0" ry="0" style="stroke:#000000;fill:#FFFFFF;"/>
</a>
<a xlink:href="apf-0x6000006dc6c0.svg">
<text x="77.150000" y="90.000000" font-family="Verdana" font-size="7" text-anchor="middle" fill="#000000">apf(173)(0.70710677f)</text>
</a>
<circle cx="34.000000" cy="78.000000" r="1"/>
<line x1="29.000000" y1="87.000000" x2="32.000000" y2="88.000000"  transform="rotate(0.000000,32.000000,88.000000)" style="stroke: black; stroke-width:0.25;"/>
<line x1="29.000000" y1="89.000000" x2="32.000000" y2="88.000000"  transform="rotate(0.000000,32.000000,88.000000)" style="stroke: black; stroke-width:0.25;"/>
<a xlink:href="apf-0x6000006e4c60.svg">
<rect x="130.300000" y="76.000000" width="90.300000" height="24.000000" rx="0" ry="0" style="stroke:#000000;fill:#FFFFFF;"/>
</a>
<a xlink:href="apf-0x6000006e4c60.svg">
<text x="175.450000" y="90.000000" font-family="Verdana" font-size="7" text-anchor="middle" fill="#000000">apf(229)(0.70710677f)</text>
</a>
<circle cx="132.300000" cy="78.000000" r="1"/>
<line x1="127.300000" y1="87.000000" x2="130.300000" y2="88.000000"  transform="rotate(0.000000,130.300000,88.000000)" style="stroke: black; stroke-width:0.25;"/>
<line x1="127.300000" y1="89.000000" x2="130.300000" y2="88.000000"  transform="rotate(0.000000,130.300000,88.000000)" style="stroke: black; stroke-width:0.25;"/>
<a xlink:href="dflc-0x6000006e6c70.svg">
<rect x="270.600000" y="28.000000" width="77.400000" height="24.000000" rx="0" ry="0" style="stroke:#000000;fill:#FFFFFF;"/>
</a>
<a xlink:href="dflc-0x6000006e6c70.svg">
<text x="309.300000" y="42.000000" font-family="Verdana" font-size="7" text-anchor="middle" fill="#000000">dflc(673)(0.89f)</text>
</a>
<circle cx="272.600000" cy="30.000000" r="1"/>
<line x1="267.600000" y1="39.000000" x2="270.600000" y2="40.000000"  transform="rotate(0.000000,270.600000,40.000000)" style="stroke: black; stroke-width:0.25;"/>
<line x1="267.600000" y1="41.000000" x2="270.600000" y2="40.000000"  transform="rotate(0.000000,270.600000,40.000000)" style="stroke: black; stroke-width:0.25;"/>
<a xlink:href="dflc-0x6000006a8990.svg">
<rect x="270.600000" y="60.000000" width="77.400000" height="24.000000" rx="0" ry="0" style="stroke:#000000;fill:#FFFFFF;"/>
</a>
<a xlink:href="dflc-0x6000006a8990.svg">
<text x="309.300000" y="74.000000" font-family="Verdana" font-size="7" text-anchor="middle" fill="#000000">dflc(1447)(0.78f)</text>
</a>
<circle cx="272.600000" cy="62.000000" r="1"/>
<line x1="267.600000" y1="71.000000" x2="270.600000" y2="72.000000"  transform="rotate(0.000000,270.600000,72.000000)" style="stroke: black; stroke-width:0.25;"/>
<line x1="267.600000" y1="73.000000" x2="270.600000" y2="72.000000"  transform="rotate(0.000000,270.600000,72.000000)" style="stroke: black; stroke-width:0.25;"/>
<a xlink:href="dflc-0x6000006aa520.svg">
<rect x="270.600000" y="92.000000" width="77.400000" height="24.000000" rx="0" ry="0" style="stroke:#000000;fill:#FFFFFF;"/>
</a>
<a xlink:href="dflc-0x6000006aa520.svg">
<text x="309.300000" y="106.000000" font-family="Verdana" font-size="7" text-anchor="middle" fill="#000000">dflc(1811)(0.74f)</text>
</a>
<circle cx="272.600000" cy="94.000000" r="1"/>
<line x1="267.600000" y1="103.000000" x2="270.600000" y2="104.000000"  transform="rotate(0.000000,270.600000,104.000000)" style="stroke: black; stroke-width:0.25;"/>
<line x1="267.600000" y1="105.000000" x2="270.600000" y2="104.000000"  transform="rotate(0.000000,270.600000,104.000000)" style="stroke: black; stroke-width:0.25;"/>
<a xlink:href="dflc-0x6000006ac090.svg">
<rect x="270.600000" y="124.000000" width="77.400000" height="24.000000" rx="0" ry="0" style="stroke:#000000;fill:#FFFFFF;"/>
</a>
<a xlink:href="dflc-0x6000006ac090.svg">
<text x="309.300000" y="138.000000" font-family="Verdana" font-size="7" text-anchor="middle" fill="#000000">dflc(2111)(0.63f)</text>
</a>
<circle cx="272.600000" cy="126.000000" r="1"/>
<line x1="267.600000" y1="135.000000" x2="270.600000" y2="136.000000"  transform="rotate(0.000000,270.600000,136.000000)" style="stroke: black; stroke-width:0.25;"/>
<line x1="267.600000" y1="137.000000" x2="270.600000" y2="136.000000"  transform="rotate(0.000000,270.600000,136.000000)" style="stroke: black; stroke-width:0.25;"/>
<polygon fill="#ffffff" stroke="black" stroke-width=".25" points="422.000000,64.500000 431.000000,68.000000 422.000000,71.500000"/>
<circle  fill="#ffffff" stroke="black" stroke-width=".25" cx="432.500000" cy="68.000000" r="1.500000"/>
<polygon fill="#ffffff" stroke="black" stroke-width=".25" points="422.000000,80.500000 431.000000,84.000000 422.000000,87.500000"/>
<circle  fill="#ffffff" stroke="black" stroke-width=".25" cx="432.500000" cy="84.000000" r="1.500000"/>
<polygon fill="#ffffff" stroke="black" stroke-width=".25" points="422.000000,96.500000 431.000000,100.000000 422.000000,103.500000"/>
<circle  fill="#ffffff" stroke="black" stroke-width=".25" cx="432.500000" cy="100.000000" r="1.500000"/>
<polygon fill="#ffffff" stroke="black" stroke-width=".25" points="422.000000,112.500000 431.000000,116.000000 422.000000,119.500000"/>
<circle  fill="#ffffff" stroke="black" stroke-width=".25" cx="432.500000" cy="116.000000" r="1.500000"/>
<a xlink:href="matrix-0x60000065c5a0.svg">
<rect x="442.000000" y="24.000000" width="25.800000" height="128.000000" rx="0" ry="0" style="stroke:#000000;fill:#FFFFFF;"/>
</a>
<a xlink:href="matrix-0x60000065c5a0.svg">
<text x="454.900000" y="90.000000" font-family="Verdana" font-size="7" text-anchor="middle" fill="#000000">matrix</text>
</a>
<circle cx="444.000000" cy="26.000000" r="1"/>
<line x1="439.000000" y1="59.000000" x2="442.000000" y2="60.000000"  transform="rotate(0.000000,442.000000,60.000000)" style="stroke: black; stroke-width:0.25;"/>
<line x1="439.000000" y1="61.000000" x2="442.000000" y2="60.000000"  transform="rotate(0.000000,442.000000,60.000000)" style="stroke: black; stroke-width:0.25;"/>
<line x1="439.000000" y1="67.000000" x2="442.000000" y2="68.000000"  transform="rotate(0.000000,442.000000,68.000000)" style="stroke: black; stroke-width:0.25;"/>
<line x1="439.000000" y1="69.000000" x2="442.000000" y2="68.000000"  transform="rotate(0.000000,442.000000,68.000000)" style="stroke: black; stroke-width:0.25;"/>
<line x1="439.000000" y1="75.000000" x2="442.000000" y2="76.000000"  transform="rotate(0.000000,442.000000,76.000000)" style="stroke: black; stroke-width:0.25;"/>
<line x1="439.000000" y1="77.000000" x2="442.000000" y2="76.000000"  transform="rotate(0.000000,442.000000,76.000000)" style="stroke: black; stroke-width:0.25;"/>
<line x1="439.000000" y1="83.000000" x2="442.000000" y2="84.000000"  transform="rotate(0.000000,442.000000,84.000000)" style="stroke: black; stroke-width:0.25;"/>
<line x1="439.000000" y1="85.000000" x2="442.000000" y2="84.000000"  transform="rotate(0.000000,442.000000,84.000000)" style="stroke: black; stroke-width:0.25;"/>
<line x1="439.000000" y1="91.000000" x2="442.000000" y2="92.000000"  transform="rotate(0.000000,442.000000,92.000000)" style="stroke: black; stroke-width:0.25;"/>
<line x1="439.000000" y1="93.000000" x2="442.000000" y2="92.000000"  transform="rotate(0.000000,442.000000,92.000000)" style="stroke: black; stroke-width:0.25;"/>
<line x1="439.000000" y1="99.000000" x2="442.000000" y2="100.000000"  transform="rotate(0.000000,442.000000,100.000000)" style="stroke: black; stroke-width:0.25;"/>
<line x1="439.000000" y1="101.000000" x2="442.000000" y2="100.000000"  transform="rotate(0.000000,442.000000,100.000000)" style="stroke: black; stroke-width:0.25;"/>
<line x1="439.000000" y1="107.000000" x2="442.000000" y2="108.000000"  transform="rotate(0.000000,442.000000,108.000000)" style="stroke: black; stroke-width:0.25;"/>
<line x1="439.000000" y1="109.000000" x2="442.000000" y2="108.000000"  transform="rotate(0.000000,442.000000,108.000000)" style="stroke: black; stroke-width:0.25;"/>
<line x1="439.000000" y1="115.000000" x2="442.000000" y2="116.000000"  transform="rotate(0.000000,442.000000,116.000000)" style="stroke: black; stroke-width:0.25;"/>
<line x1="439.000000" y1="117.000000" x2="442.000000" y2="116.000000"  transform="rotate(0.000000,442.000000,116.000000)" style="stroke: black; stroke-width:0.25;"/>
<line x1="15.000000" y1="15.000000" x2="15.000000" y2="161.000000"  style="stroke: black; stroke-linecap:round; stroke-width:0.25; stroke-dasharray:3,3;"/>
<line x1="15.000000" y1="161.000000" x2="484.800000" y2="161.000000"  style="stroke: black; stroke-linecap:round; stroke-width:0.25; stroke-dasharray:3,3;"/>
<line x1="484.800000" y1="161.000000" x2="484.800000" y2="15.000000"  style="stroke: black; stroke-linecap:round; stroke-width:0.25; stroke-dasharray:3,3;"/>
<line x1="15.000000" y1="15.000000" x2="20.000000" y2="15.000000"  style="stroke: black; stroke-linecap:round; stroke-width:0.25; stroke-dasharray:3,3;"/>
<line x1="49.025000" y1="15.000000" x2="484.800000" y2="15.000000"  style="stroke: black; stroke-linecap:round; stroke-width:0.25; stroke-dasharray:3,3;"/>
<text x="20.000000" y="17.000000" font-family="Verdana" font-size="7">process</text>
<line x1="486.800000" y1="27.000000" x2="489.800000" y2="28.000000"  transform="rotate(0.000000,489.800000,28.000000)" style="stroke: black; stroke-width:0.25;"/>
<line x1="486.800000" y1="29.000000" x2="489.800000" y2="28.000000"  transform="rotate(0.000000,489.800000,28.000000)" style="stroke: black; stroke-width:0.25;"/>
<line x1="486.800000" y1="35.000000" x2="489.800000" y2="36.000000"  transform="rotate(0.000000,489.800000,36.000000)" style="stroke: black; stroke-width:0.25;"/>
<line x1="486.800000" y1="37.000000" x2="489.800000" y2="36.000000"  transform="rotate(0.000000,489.800000,36.000000)" style="stroke: black; stroke-width:0.25;"/>
<line x1="486.800000" y1="43.000000" x2="489.800000" y2="44.000000"  transform="rotate(0.000000,489.800000,44.000000)" style="stroke: black; stroke-width:0.25;"/>
<line x1="486.800000" y1="45.000000" x2="489.800000" y2="44.000000"  transform="rotate(0.000000,489.800000,44.000000)" style="stroke: black; stroke-width:0.25;"/>
<line x1="486.800000" y1="51.000000" x2="489.800000" y2="52.000000"  transform="rotate(0.000000,489.800000,52.000000)" style="stroke: black; stroke-width:0.25;"/>
<line x1="486.800000" y1="53.000000" x2="489.800000" y2="52.000000"  transform="rotate(0.000000,489.800000,52.000000)" style="stroke: black; stroke-width:0.25;"/>
<line x1="486.800000" y1="59.000000" x2="489.800000" y2="60.000000"  transform="rotate(0.000000,489.800000,60.000000)" style="stroke: black; stroke-width:0.25;"/>
<line x1="486.800000" y1="61.000000" x2="489.800000" y2="60.000000"  transform="rotate(0.000000,489.800000,60.000000)" style="stroke: black; stroke-width:0.25;"/>
<line x1="486.800000" y1="67.000000" x2="489.800000" y2="68.000000"  transform="rotate(0.000000,489.800000,68.000000)" style="stroke: black; stroke-width:0.25;"/>
<line x1="486.800000" y1="69.000000" x2="489.800000" y2="68.000000"  transform="rotate(0.000000,489.800000,68.000000)" style="stroke: black; stroke-width:0.25;"/>
<line x1="486.800000" y1="75.000000" x2="489.800000" y2="76.000000"  transform="rotate(0.000000,489.800000,76.000000)" style="stroke: black; stroke-width:0.25;"/>
<line x1="486.800000" y1="77.000000" x2="489.800000" y2="76.000000"  transform="rotate(0.000000,489.800000,76.000000)" style="stroke: black; stroke-width:0.25;"/>
<line x1="486.800000" y1="83.000000" x2="489.800000" y2="84.000000"  transform="rotate(0.000000,489.800000,84.000000)" style="stroke: black; stroke-width:0.25;"/>
<line x1="486.800000" y1="85.000000" x2="489.800000" y2="84.000000"  transform="rotate(0.000000,489.800000,84.000000)" style="stroke: black; stroke-width:0.25;"/>
<line x1="486.800000" y1="91.000000" x2="489.800000" y2="92.000000"  transform="rotate(0.000000,489.800000,92.000000)" style="stroke: black; stroke-width:0.25;"/>
<line x1="486.800000" y1="93.000000" x2="489.800000" y2="92.000000"  transform="rotate(0.000000,489.800000,92.000000)" style="stroke: black; stroke-width:0.25;"/>
<line x1="486.800000" y1="99.000000" x2="489.800000" y2="100.000000"  transform="rotate(0.000000,489.800000,100.000000)" style="stroke: black; stroke-width:0.25;"/>
<line x1="486.800000" y1="101.000000" x2="489.800000" y2="100.000000"  transform="rotate(0.000000,489.800000,100.000000)" style="stroke: black; stroke-width:0.25;"/>
<line x1="486.800000" y1="107.000000" x2="489.800000" y2="108.000000"  transform="rotate(0.000000,489.800000,108.000000)" style="stroke: black; stroke-width:0.25;"/>
<line x1="486.800000" y1="109.000000" x2="489.800000" y2="108.000000"  transform="rotate(0.000000,489.800000,108.000000)" style="stroke: black; stroke-width:0.25;"/>
<line x1="486.800000" y1="115.000000" x2="489.800000" y2="116.000000"  transform="rotate(0.000000,489.800000,116.000000)" style="stroke: black; stroke-width:0.25;"/>
<line x1="486.800000" y1="117.000000" x2="489.800000" y2="116.000000"  transform="rotate(0.000000,489.800000,116.000000)" style="stroke: black; stroke-width:0.25;"/>
<line x1="486.800000" y1="123.000000" x2="489.800000" y2="124.000000"  transform="rotate(0.000000,489.800000,124.000000)" style="stroke: black; stroke-width:0.25;"/>
<line x1="486.800000" y1="125.000000" x2="489.800000" y2="124.000000"  transform="rotate(0.000000,489.800000,124.000000)" style="stroke: black; stroke-width:0.25;"/>
<line x1="486.800000" y1="131.000000" x2="489.800000" y2="132.000000"  transform="rotate(0.000000,489.800000,132.000000)" style="stroke: black; stroke-width:0.25;"/>
<line x1="486.800000" y1="133.000000" x2="489.800000" y2="132.000000"  transform="rotate(0.000000,489.800000,132.000000)" style="stroke: black; stroke-width:0.25;"/>
<line x1="486.800000" y1="139.000000" x2="489.800000" y2="140.000000"  transform="rotate(0.000000,489.800000,140.000000)" style="stroke: black; stroke-width:0.25;"/>
<line x1="486.800000" y1="141.000000" x2="489.800000" y2="140.000000"  transform="rotate(0.000000,489.800000,140.000000)" style="stroke: black; stroke-width:0.25;"/>
<line x1="486.800000" y1="147.000000" x2="489.800000" y2="148.000000"  transform="rotate(0.000000,489.800000,148.000000)" style="stroke: black; stroke-width:0.25;"/>
<line x1="486.800000" y1="149.000000" x2="489.800000" y2="148.000000"  transform="rotate(0.000000,489.800000,148.000000)" style="stroke: black; stroke-width:0.25;"/>
<line x1="10.000000" y1="88.000000" x2="20.000000" y2="88.000000"  style="stroke:black; stroke-linecap:round; stroke-width:0.25;"/>
<line x1="20.000000" y1="88.000000" x2="24.000000" y2="88.000000"  style="stroke:black; stroke-linecap:round; stroke-width:0.25;"/>
<line x1="24.000000" y1="88.000000" x2="28.000000" y2="88.000000"  style="stroke:black; stroke-linecap:round; stroke-width:0.25;"/>
<line x1="28.000000" y1="88.000000" x2="28.000000" y2="88.000000"  style="stroke:black; stroke-linecap:round; stroke-width:0.25;"/>
<line x1="28.000000" y1="88.000000" x2="32.000000" y2="88.000000"  style="stroke:black; stroke-linecap:round; stroke-width:0.25;"/>
<line x1="122.300000" y1="88.000000" x2="126.300000" y2="88.000000"  style="stroke:black; stroke-linecap:round; stroke-width:0.25;"/>
<line x1="126.300000" y1="88.000000" x2="126.300000" y2="88.000000"  style="stroke:black; stroke-linecap:round; stroke-width:0.25;"/>
<line x1="126.300000" y1="88.000000" x2="130.300000" y2="88.000000"  style="stroke:black; stroke-linecap:round; stroke-width:0.25;"/>
<line x1="220.600000" y1="88.000000" x2="224.600000" y2="88.000000"  style="stroke:black; stroke-linecap:round; stroke-width:0.25;"/>
<line x1="224.600000" y1="88.000000" x2="266.600000" y2="40.000000"  style="stroke:black; stroke-linecap:round; stroke-width:0.25;"/>
<line x1="224.600000" y1="88.000000" x2="266.600000" y2="72.000000"  style="stroke:black; stroke-linecap:round; stroke-width:0.25;"/>
<line x1="224.600000" y1="88.000000" x2="266.600000" y2="104.000000"  style="stroke:black; stroke-linecap:round; stroke-width:0.25;"/>
<line x1="224.600000" y1="88.000000" x2="266.600000" y2="136.000000"  style="stroke:black; stroke-linecap:round; stroke-width:0.25;"/>
<line x1="266.600000" y1="40.000000" x2="270.600000" y2="40.000000"  style="stroke:black; stroke-linecap:round; stroke-width:0.25;"/>
<line x1="266.600000" y1="72.000000" x2="270.600000" y2="72.000000"  style="stroke:black; stroke-linecap:round; stroke-width:0.25;"/>
<line x1="266.600000" y1="104.000000" x2="270.600000" y2="104.000000"  style="stroke:black; stroke-linecap:round; stroke-width:0.25;"/>
<line x1="266.600000" y1="136.000000" x2="270.600000" y2="136.000000"  style="stroke:black; stroke-linecap:round; stroke-width:0.25;"/>
<line x1="348.000000" y1="40.000000" x2="352.000000" y2="40.000000"  style="stroke:black; stroke-linecap:round; stroke-width:0.25;"/>
<line x1="348.000000" y1="72.000000" x2="352.000000" y2="72.000000"  style="stroke:black; stroke-linecap:round; stroke-width:0.25;"/>
<line x1="348.000000" y1="104.000000" x2="352.000000" y2="104.000000"  style="stroke:black; stroke-linecap:round; stroke-width:0.25;"/>
<line x1="348.000000" y1="136.000000" x2="352.000000" y2="136.000000"  style="stroke:black; stroke-linecap:round; stroke-width:0.25;"/>
<line x1="352.000000" y1="40.000000" x2="418.000000" y2="60.000000"  style="stroke:black; stroke-linecap:round; stroke-width:0.25;"/>
<line x1="352.000000" y1="40.000000" x2="418.000000" y2="92.000000"  style="stroke:black; stroke-linecap:round; stroke-width:0.25;"/>
<line x1="352.000000" y1="72.000000" x2="418.000000" y2="68.000000"  style="stroke:black; stroke-linecap:round; stroke-width:0.25;"/>
<line x1="352.000000" y1="72.000000" x2="418.000000" y2="100.000000"  style="stroke:black; stroke-linecap:round; stroke-width:0.25;"/>
<line x1="352.000000" y1="104.000000" x2="418.000000" y2="76.000000"  style="stroke:black; stroke-linecap:round; stroke-width:0.25;"/>
<line x1="352.000000" y1="104.000000" x2="418.000000" y2="108.000000"  style="stroke:black; stroke-linecap:round; stroke-width:0.25;"/>
<line x1="352.000000" y1="136.000000" x2="418.000000" y2="84.000000"  style="stroke:black; stroke-linecap:round; stroke-width:0.25;"/>
<line x1="352.000000" y1="136.000000" x2="418.000000" y2="116.000000"  style="stroke:black; stroke-linecap:round; stroke-width:0.25;"/>
<line x1="418.000000" y1="60.000000" x2="428.000000" y2="60.000000"  style="stroke:black; stroke-linecap:round; stroke-width:0.25;"/>
<line x1="418.000000" y1="68.000000" x2="422.000000" y2="68.000000"  style="stroke:black; stroke-linecap:round; stroke-width:0.25;"/>
<line x1="418.000000" y1="76.000000" x2="428.000000" y2="76.000000"  style="stroke:black; stroke-linecap:round; stroke-width:0.25;"/>
<line x1="418.000000" y1="84.000000" x2="422.000000" y2="84.000000"  style="stroke:black; stroke-linecap:round; stroke-width:0.25;"/>
<line x1="418.000000" y1="92.000000" x2="428.000000" y2="92.000000"  style="stroke:black; stroke-linecap:round; stroke-width:0.25;"/>
<line x1="418.000000" y1="100.000000" x2="422.000000" y2="100.000000"  style="stroke:black; stroke-linecap:round; stroke-width:0.25;"/>
<line x1="418.000000" y1="108.000000" x2="428.000000" y2="108.000000"  style="stroke:black; stroke-linecap:round; stroke-width:0.25;"/>
<line x1="418.000000" y1="116.000000" x2="422.000000" y2="116.000000"  style="stroke:black; stroke-linecap:round; stroke-width:0.25;"/>
<line x1="428.000000" y1="60.000000" x2="438.000000" y2="60.000000"  style="stroke:black; stroke-linecap:round; stroke-width:0.25;"/>
<line x1="428.000000" y1="76.000000" x2="438.000000" y2="76.000000"  style="stroke:black; stroke-linecap:round; stroke-width:0.25;"/>
<line x1="428.000000" y1="92.000000" x2="438.000000" y2="92.000000"  style="stroke:black; stroke-linecap:round; stroke-width:0.25;"/>
<line x1="428.000000" y1="108.000000" x2="438.000000" y2="108.000000"  style="stroke:black; stroke-linecap:round; stroke-width:0.25;"/>
<line x1="434.000000" y1="68.000000" x2="438.000000" y2="68.000000"  style="stroke:black; stroke-linecap:round; stroke-width:0.25;"/>
<line x1="434.000000" y1="84.000000" x2="438.000000" y2="84.000000"  style="stroke:black; stroke-linecap:round; stroke-width:0.25;"/>
<line x1="434.000000" y1="100.000000" x2="438.000000" y2="100.000000"  style="stroke:black; stroke-linecap:round; stroke-width:0.25;"/>
<line x1="434.000000" y1="116.000000" x2="438.000000" y2="116.000000"  style="stroke:black; stroke-linecap:round; stroke-width:0.25;"/>
<line x1="438.000000" y1="60.000000" x2="438.000000" y2="60.000000"  style="stroke:black; stroke-linecap:round; stroke-width:0.25;"/>
<line x1="438.000000" y1="60.000000" x2="442.000000" y2="60.000000"  style="stroke:black; stroke-linecap:round; stroke-width:0.25;"/>
<line x1="438.000000" y1="68.000000" x2="438.000000" y2="68.000000"  style="stroke:black; stroke-linecap:round; stroke-width:0.25;"/>
<line x1="438.000000" y1="68.000000" x2="442.000000" y2="68.000000"  style="stroke:black; stroke-linecap:round; stroke-width:0.25;"/>
<line x1="438.000000" y1="76.000000" x2="438.000000" y2="76.000000"  style="stroke:black; stroke-linecap:round; stroke-width:0.25;"/>
<line x1="438.000000" y1="76.000000" x2="442.000000" y2="76.000000"  style="stroke:black; stroke-linecap:round; stroke-width:0.25;"/>
<line x1="438.000000" y1="84.000000" x2="438.000000" y2="84.000000"  style="stroke:black; stroke-linecap:round; stroke-width:0.25;"/>
<line x1="438.000000" y1="84.000000" x2="442.000000" y2="84.000000"  style="stroke:black; stroke-linecap:round; stroke-width:0.25;"/>
<line x1="438.000000" y1="92.000000" x2="438.000000" y2="92.000000"  style="stroke:black; stroke-linecap:round; stroke-width:0.25;"/>
<line x1="438.000000" y1="92.000000" x2="442.000000" y2="92.000000"  style="stroke:black; stroke-linecap:round; stroke-width:0.25;"/>
<line x1="438.000000" y1="100.000000" x2="438.000000" y2="100.000000"  style="stroke:black; stroke-linecap:round; stroke-width:0.25;"/>
<line x1="438.000000" y1="100.000000" x2="442.000000" y2="100.000000"  style="stroke:black; stroke-linecap:round; stroke-width:0.25;"/>
<line x1="438.000000" y1="108.000000" x2="438.000000" y2="108.000000"  style="stroke:black; stroke-linecap:round; stroke-width:0.25;"/>
<line x1="438.000000" y1="108.000000" x2="442.000000" y2="108.000000"  style="stroke:black; stroke-linecap:round; stroke-width:0.25;"/>
<line x1="438.000000" y1="116.000000" x2="438.000000" y2="116.000000"  style="stroke:black; stroke-linecap:round; stroke-width:0.25;"/>
<line x1="438.000000" y1="116.000000" x2="442.000000" y2="116.000000"  style="stroke:black; stroke-linecap:round; stroke-width:0.25;"/>
<line x1="467.800000" y1="28.000000" x2="471.800000" y2="28.000000"  style="stroke:black; stroke-linecap:round; stroke-width:0.25;"/>
<line x1="467.800000" y1="36.000000" x2="471.800000" y2="36.000000"  style="stroke:black; stroke-linecap:round; stroke-width:0.25;"/>
<line x1="467.800000" y1="44.000000" x2="471.800000" y2="44.000000"  style="stroke:black; stroke-linecap:round; stroke-width:0.25;"/>
<line x1="467.800000" y1="52.000000" x2="471.800000" y2="52.000000"  style="stroke:black; stroke-linecap:round; stroke-width:0.25;"/>
<line x1="467.800000" y1="60.000000" x2="471.800000" y2="60.000000"  style="stroke:black; stroke-linecap:round; stroke-width:0.25;"/>
<line x1="467.800000" y1="68.000000" x2="471.800000" y2="68.000000"  style="stroke:black; stroke-linecap:round; stroke-width:0.25;"/>
<line x1="467.800000" y1="76.000000" x2="471.800000" y2="76.000000"  style="stroke:black; stroke-linecap:round; stroke-width:0.25;"/>
<line x1="467.800000" y1="84.000000" x2="471.800000" y2="84.000000"  style="stroke:black; stroke-linecap:round; stroke-width:0.25;"/>
<line x1="467.800000" y1="92.000000" x2="471.800000" y2="92.000000"  style="stroke:black; stroke-linecap:round; stroke-width:0.25;"/>
<line x1="467.800000" y1="100.000000" x2="471.800000" y2="100.000000"  style="stroke:black; stroke-linecap:round; stroke-width:0.25;"/>
<line x1="467.800000" y1="108.000000" x2="471.800000" y2="108.000000"  style="stroke:black; stroke-linecap:round; stroke-width:0.25;"/>
<line x1="467.800000" y1="116.000000" x2="471.800000" y2="116.000000"  style="stroke:black; stroke-linecap:round; stroke-width:0.25;"/>
<line x1="467.800000" y1="124.000000" x2="471.800000" y2="124.000000"  style="stroke:black; stroke-linecap:round; stroke-width:0.25;"/>
<line x1="467.800000" y1="132.000000" x2="471.800000" y2="132.000000"  style="stroke:black; stroke-linecap:round; stroke-width:0.25;"/>
<line x1="467.800000" y1="140.000000" x2="471.800000" y2="140.000000"  style="stroke:black; stroke-linecap:round; stroke-width:0.25;"/>
<line x1="467.800000" y1="148.000000" x2="471.800000" y2="148.000000"  style="stroke:black; stroke-linecap:round; stroke-width:0.25;"/>
<line x1="471.800000" y1="28.000000" x2="475.800000" y2="28.000000"  style="stroke:black; stroke-linecap:round; stroke-width:0.25;"/>
<line x1="471.800000" y1="36.000000" x2="475.800000" y2="36.000000"  style="stroke:black; stroke-linecap:round; stroke-width:0.25;"/>
<line x1="471.800000" y1="44.000000" x2="475.800000" y2="44.000000"  style="stroke:black; stroke-linecap:round; stroke-width:0.25;"/>
<line x1="471.800000" y1="52.000000" x2="475.800000" y2="52.000000"  style="stroke:black; stroke-linecap:round; stroke-width:0.25;"/>
<line x1="471.800000" y1="60.000000" x2="475.800000" y2="60.000000"  style="stroke:black; stroke-linecap:round; stroke-width:0.25;"/>
<line x1="471.800000" y1="68.000000" x2="475.800000" y2="68.000000"  style="stroke:black; stroke-linecap:round; stroke-width:0.25;"/>
<line x1="471.800000" y1="76.000000" x2="475.800000" y2="76.000000"  style="stroke:black; stroke-linecap:round; stroke-width:0.25;"/>
<line x1="471.800000" y1="84.000000" x2="475.800000" y2="84.000000"  style="stroke:black; stroke-linecap:round; stroke-width:0.25;"/>
<line x1="471.800000" y1="92.000000" x2="475.800000" y2="92.000000"  style="stroke:black; stroke-linecap:round; stroke-width:0.25;"/>
<line x1="471.800000" y1="100.000000" x2="475.800000" y2="100.000000"  style="stroke:black; stroke-linecap:round; stroke-width:0.25;"/>
<line x1="471.800000" y1="108.000000" x2="475.800000" y2="108.000000"  style="stroke:black; stroke-linecap:round; stroke-width:0.25;"/>
<line x1="471.800000" y1="116.000000" x2="475.800000" y2="116.000000"  style="stroke:black; stroke-linecap:round; stroke-width:0.25;"/>
<line x1="471.800000" y1="124.000000" x2="475.800000" y2="124.000000"  style="stroke:black; stroke-linecap:round; stroke-width:0.25;"/>
<line x1="471.800000" y1="132.000000" x2="475.800000" y2="132.000000"  style="stroke:black; stroke-linecap:round; stroke-width:0.25;"/>
<line x1="471.800000" y1="140.000000" x2="475.800000" y2="140.000000"  style="stroke:black; stroke-linecap:round; stroke-width:0.25;"/>
<line x1="471.800000" y1="148.000000" x2="475.800000" y2="148.000000"  style="stroke:black; stroke-linecap:round; stroke-width:0.25;"/>
<line x1="471.800000" y1="28.000000" x2="471.800000" y2="28.000000"  style="stroke:black; stroke-linecap:round; stroke-width:0.25;"/>
<line x1="471.800000" y1="36.000000" x2="471.800000" y2="36.000000"  style="stroke:black; stroke-linecap:round; stroke-width:0.25;"/>
<line x1="471.800000" y1="44.000000" x2="471.800000" y2="44.000000"  style="stroke:black; stroke-linecap:round; stroke-width:0.25;"/>
<line x1="471.800000" y1="52.000000" x2="471.800000" y2="52.000000"  style="stroke:black; stroke-linecap:round; stroke-width:0.25;"/>
<line x1="471.800000" y1="60.000000" x2="471.800000" y2="60.000000"  style="stroke:black; stroke-linecap:round; stroke-width:0.25;"/>
<line x1="471.800000" y1="68.000000" x2="471.800000" y2="68.000000"  style="stroke:black; stroke-linecap:round; stroke-width:0.25;"/>
<line x1="471.800000" y1="76.000000" x2="471.800000" y2="76.000000"  style="stroke:black; stroke-linecap:round; stroke-width:0.25;"/>
<line x1="471.800000" y1="84.000000" x2="471.800000" y2="84.000000"  style="stroke:black; stroke-linecap:round; stroke-width:0.25;"/>
<line x1="471.800000" y1="92.000000" x2="471.800000" y2="92.000000"  style="stroke:black; stroke-linecap:round; stroke-width:0.25;"/>
<line x1="471.800000" y1="100.000000" x2="471.800000" y2="100.000000"  style="stroke:black; stroke-linecap:round; stroke-width:0.25;"/>
<line x1="471.800000" y1="108.000000" x2="471.800000" y2="108.000000"  style="stroke:black; stroke-linecap:round; stroke-width:0.25;"/>
<line x1="471.800000" y1="116.000000" x2="471.800000" y2="116.000000"  style="stroke:black; stroke-linecap:round; stroke-width:0.25;"/>
<line x1="471.800000" y1="124.000000" x2="471.800000" y2="124.000000"  style="stroke:black; stroke-linecap:round; stroke-width:0.25;"/>
<line x1="471.800000" y1="132.000000" x2="471.800000" y2="132.000000"  style="stroke:black; stroke-linecap:round; stroke-width:0.25;"/>
<line x1="471.800000" y1="140.000000" x2="471.800000" y2="140.000000"  style="stroke:black; stroke-linecap:round; stroke-width:0.25;"/>
<line x1="471.800000" y1="148.000000" x2="471.800000" y2="148.000000"  style="stroke:black; stroke-linecap:round; stroke-width:0.25;"/>
<line x1="475.800000" y1="28.000000" x2="479.800000" y2="28.000000"  style="stroke:black; stroke-linecap:round; stroke-width:0.25;"/>
<line x1="475.800000" y1="36.000000" x2="479.800000" y2="36.000000"  style="stroke:black; stroke-linecap:round; stroke-width:0.25;"/>
<line x1="475.800000" y1="44.000000" x2="479.800000" y2="44.000000"  style="stroke:black; stroke-linecap:round; stroke-width:0.25;"/>
<line x1="475.800000" y1="52.000000" x2="479.800000" y2="52.000000"  style="stroke:black; stroke-linecap:round; stroke-width:0.25;"/>
<line x1="475.800000" y1="60.000000" x2="479.800000" y2="60.000000"  style="stroke:black; stroke-linecap:round; stroke-width:0.25;"/>
<line x1="475.800000" y1="68.000000" x2="479.800000" y2="68.000000"  style="stroke:black; stroke-linecap:round; stroke-width:0.25;"/>
<line x1="475.800000" y1="76.000000" x2="479.800000" y2="76.000000"  style="stroke:black; stroke-linecap:round; stroke-width:0.25;"/>
<line x1="475.800000" y1="84.000000" x2="479.800000" y2="84.000000"  style="stroke:black; stroke-linecap:round; stroke-width:0.25;"/>
<line x1="475.800000" y1="92.000000" x2="479.800000" y2="92.000000"  style="stroke:black; stroke-linecap:round; stroke-width:0.25;"/>
<line x1="475.800000" y1="100.000000" x2="479.800000" y2="100.000000"  style="stroke:black; stroke-linecap:round; stroke-width:0.25;"/>
<line x1="475.800000" y1="108.000000" x2="479.800000" y2="108.000000"  style="stroke:black; stroke-linecap:round; stroke-width:0.25;"/>
<line x1="475.800000" y1="116.000000" x2="479.800000" y2="116.000000"  style="stroke:black; stroke-linecap:round; stroke-width:0.25;"/>
<line x1="475.800000" y1="124.000000" x2="479.800000" y2="124.000000"  style="stroke:black; stroke-linecap:round; stroke-width:0.25;"/>
<line x1="475.800000" y1="132.000000" x2="479.800000" y2="132.000000"  style="stroke:black; stroke-linecap:round; stroke-width:0.25;"/>
<line x1="475.800000" y1="140.000000" x2="479.800000" y2="140.000000"  style="stroke:black; stroke-linecap:round; stroke-width:0.25;"/>
<line x1="475.800000" y1="148.000000" x2="479.800000" y2="148.000000"  style="stroke:black; stroke-linecap:round; stroke-width:0.25;"/>
<line x1="479.800000" y1="28.000000" x2="489.800000" y2="28.000000"  style="stroke:black; stroke-linecap:round; stroke-width:0.25;"/>
<line x1="479.800000" y1="36.000000" x2="489.800000" y2="36.000000"  style="stroke:black; stroke-linecap:round; stroke-width:0.25;"/>
<line x1="479.800000" y1="44.000000" x2="489.800000" y2="44.000000"  style="stroke:black; stroke-linecap:round; stroke-width:0.25;"/>
<line x1="479.800000" y1="52.000000" x2="489.800000" y2="52.000000"  style="stroke:black; stroke-linecap:round; stroke-width:0.25;"/>
<line x1="479.800000" y1="60.000000" x2="489.800000" y2="60.000000"  style="stroke:black; stroke-linecap:round; stroke-width:0.25;"/>
<line x1="479.800000" y1="68.000000" x2="489.800000" y2="68.000000"  style="stroke:black; stroke-linecap:round; stroke-width:0.25;"/>
<line x1="479.800000" y1="76.000000" x2="489.800000" y2="76.000000"  style="stroke:black; stroke-linecap:round; stroke-width:0.25;"/>
<line x1="479.800000" y1="84.000000" x2="489.800000" y2="84.000000"  style="stroke:black; stroke-linecap:round; stroke-width:0.25;"/>
<line x1="479.800000" y1="92.000000" x2="489.800000" y2="92.000000"  style="stroke:black; stroke-linecap:round; stroke-width:0.25;"/>
<line x1="479.800000" y1="100.000000" x2="489.800000" y2="100.000000"  style="stroke:black; stroke-linecap:round; stroke-width:0.25;"/>
<line x1="479.800000" y1="108.000000" x2="489.800000" y2="108.000000"  style="stroke:black; stroke-linecap:round; stroke-width:0.25;"/>
<line x1="479.800000" y1="116.000000" x2="489.800000" y2="116.000000"  style="stroke:black; stroke-linecap:round; stroke-width:0.25;"/>
<line x1="479.800000" y1="124.000000" x2="489.800000" y2="124.000000"  style="stroke:black; stroke-linecap:round; stroke-width:0.25;"/>
<line x1="479.800000" y1="132.000000" x2="489.800000" y2="132.000000"  style="stroke:black; stroke-linecap:round; stroke-width:0.25;"/>
<line x1="479.800000" y1="140.000000" x2="489.800000" y2="140.000000"  style="stroke:black; stroke-linecap:round; stroke-width:0.25;"/>
<line x1="479.800000" y1="148.000000" x2="489.800000" y2="148.000000"  style="stroke:black; stroke-linecap:round; stroke-width:0.25;"/>
</svg>
