<?xml version="1.0"?>
<svg xmlns="http://www.w3.org/2000/svg" xmlns:xlink="http://www.w3.org/1999/xlink" viewBox="0 0 388.800000 152.000000" width="194.400000mm" height="76.000000mm" version="1.1">
<a xlink:href="process.svg">
<rect x="1.000000" y="1.000000" width="387.800000" height="151.000000" rx="0" ry="0" style="stroke:none;fill:#cccccc;"/>
<rect x="0.000000" y="0.000000" width="387.800000" height="151.000000" rx="0" ry="0" style="stroke:none;fill:#ffffff;"/>
</a>
<text x="10.000000" y="7.000000" font-family="Arial" font-size="7"></text>
<rect x="49.000000" y="85.000000" width="24.000000" height="24.000000" rx="0" ry="0" style="stroke:none;fill:#cccccc;"/>
<rect x="48.000000" y="84.000000" width="24.000000" height="24.000000" rx="0" ry="0" style="stroke:none;fill:#4B71A1;"/>
<text x="60.000000" y="98.000000" font-family="Arial" font-size="7" text-anchor="middle" fill="#FFFFFF">+</text>
<circle cx="50.000000" cy="86.000000" r="1"/>
<line x1="45.000000" y1="91.000000" x2="48.000000" y2="92.000000"  transform="rotate(0.000000,48.000000,92.000000)" style="stroke: black; stroke-width:0.25;"/>
<line x1="45.000000" y1="93.000000" x2="48.000000" y2="92.000000"  transform="rotate(0.000000,48.000000,92.000000)" style="stroke: black; stroke-width:0.25;"/>
<line x1="45.000000" y1="99.000000" x2="48.000000" y2="100.000000"  transform="rotate(0.000000,48.000000,100.000000)" style="stroke: black; stroke-width:0.25;"/>
<line x1="45.000000" y1="101.000000" x2="48.000000" y2="100.000000"  transform="rotate(0.000000,48.000000,100.000000)" style="stroke: black; stroke-width:0.25;"/>
<a xlink:href="delay-0x7fde092de0a0.svg">
<rect x="107.000000" y="65.000000" width="154.800000" height="24.000000" rx="0" ry="0" style="stroke:none;fill:#cccccc;"/>
<rect x="106.000000" y="64.000000" width="154.800000" height="24.000000" rx="0" ry="0" style="stroke:none;fill:#003366;"/>
</a>
<a xlink:href="delay-0x7fde092de0a0.svg">
<text x="183.400000" y="78.000000" font-family="Arial" font-size="7" text-anchor="middle" fill="#FFFFFF">delay((192000...: min),2 : /)(511)</text>
</a>
<circle cx="108.000000" cy="66.000000" r="1"/>
<line x1="103.000000" y1="75.000000" x2="106.000000" y2="76.000000"  transform="rotate(0.000000,106.000000,76.000000)" style="stroke: black; stroke-width:0.25;"/>
<line x1="103.000000" y1="77.000000" x2="106.000000" y2="76.000000"  transform="rotate(0.000000,106.000000,76.000000)" style="stroke: black; stroke-width:0.25;"/>
<rect x="152.400000" y="105.000000" width="24.000000" height="24.000000" rx="0" ry="0" style="stroke:none;fill:#cccccc;"/>
<rect x="151.400000" y="104.000000" width="24.000000" height="24.000000" rx="0" ry="0" style="stroke:none;fill:#f44800;"/>
<text x="163.400000" y="118.000000" font-family="Arial" font-size="7" text-anchor="middle" fill="#FFFFFF">0.9</text>
<circle cx="153.400000" cy="106.000000" r="1"/>
<rect x="192.400000" y="101.000000" width="24.000000" height="24.000000" rx="0" ry="0" style="stroke:none;fill:#cccccc;"/>
<rect x="191.400000" y="100.000000" width="24.000000" height="24.000000" rx="0" ry="0" style="stroke:none;fill:#4B71A1;"/>
<text x="203.400000" y="114.000000" font-family="Arial" font-size="7" text-anchor="middle" fill="#FFFFFF">*</text>
<circle cx="193.400000" cy="102.000000" r="1"/>
<line x1="188.400000" y1="107.000000" x2="191.400000" y2="108.000000"  transform="rotate(0.000000,191.400000,108.000000)" style="stroke: black; stroke-width:0.25;"/>
<line x1="188.400000" y1="109.000000" x2="191.400000" y2="108.000000"  transform="rotate(0.000000,191.400000,108.000000)" style="stroke: black; stroke-width:0.25;"/>
<line x1="188.400000" y1="115.000000" x2="191.400000" y2="116.000000"  transform="rotate(0.000000,191.400000,116.000000)" style="stroke: black; stroke-width:0.25;"/>
<line x1="188.400000" y1="117.000000" x2="191.400000" y2="116.000000"  transform="rotate(0.000000,191.400000,116.000000)" style="stroke: black; stroke-width:0.25;"/>
<rect x="162.500000" y="25.000000" width="25.800000" height="24.000000" rx="0" ry="0" style="stroke:none;fill:#cccccc;"/>
<rect x="161.500000" y="24.000000" width="25.800000" height="24.000000" rx="0" ry="0" style="stroke:none;fill:#f44800;"/>
<text x="174.400000" y="38.000000" font-family="Arial" font-size="7" text-anchor="middle" fill="#FFFFFF">-0.9</text>
<circle cx="185.300000" cy="46.000000" r="1"/>
<rect x="122.500000" y="29.000000" width="24.000000" height="24.000000" rx="0" ry="0" style="stroke:none;fill:#cccccc;"/>
<rect x="121.500000" y="28.000000" width="24.000000" height="24.000000" rx="0" ry="0" style="stroke:none;fill:#4B71A1;"/>
<text x="133.500000" y="42.000000" font-family="Arial" font-size="7" text-anchor="middle" fill="#FFFFFF">*</text>
<circle cx="143.500000" cy="50.000000" r="1"/>
<line x1="148.500000" y1="43.000000" x2="145.500000" y2="44.000000"  transform="rotate(0.000000,145.500000,44.000000)" style="stroke: black; stroke-width:0.25;"/>
<line x1="148.500000" y1="45.000000" x2="145.500000" y2="44.000000"  transform="rotate(0.000000,145.500000,44.000000)" style="stroke: black; stroke-width:0.25;"/>
<line x1="148.500000" y1="35.000000" x2="145.500000" y2="36.000000"  transform="rotate(0.000000,145.500000,36.000000)" style="stroke: black; stroke-width:0.25;"/>
<line x1="148.500000" y1="37.000000" x2="145.500000" y2="36.000000"  transform="rotate(0.000000,145.500000,36.000000)" style="stroke: black; stroke-width:0.25;"/>
<line x1="262.800000" y1="76.000000" x2="262.800000" y2="72.000000"  style="stroke:black; stroke-linecap:round; stroke-width:0.25;"/>
<line x1="262.800000" y1="72.000000" x2="266.800000" y2="72.000000"  style="stroke:black; stroke-linecap:round; stroke-width:0.25;"/>
<line x1="266.800000" y1="72.000000" x2="266.800000" y2="76.000000"  style="stroke:black; stroke-linecap:round; stroke-width:0.25;"/>
<rect x="293.800000" y="61.000000" width="24.000000" height="24.000000" rx="0" ry="0" style="stroke:none;fill:#cccccc;"/>
<rect x="292.800000" y="60.000000" width="24.000000" height="24.000000" rx="0" ry="0" style="stroke:none;fill:#4B71A1;"/>
<text x="304.800000" y="74.000000" font-family="Arial" font-size="7" text-anchor="middle" fill="#FFFFFF">mem</text>
<circle cx="294.800000" cy="62.000000" r="1"/>
<line x1="289.800000" y1="71.000000" x2="292.800000" y2="72.000000"  transform="rotate(0.000000,292.800000,72.000000)" style="stroke: black; stroke-width:0.25;"/>
<line x1="289.800000" y1="73.000000" x2="292.800000" y2="72.000000"  transform="rotate(0.000000,292.800000,72.000000)" style="stroke: black; stroke-width:0.25;"/>
<rect x="333.800000" y="65.000000" width="24.000000" height="24.000000" rx="0" ry="0" style="stroke:none;fill:#cccccc;"/>
<rect x="332.800000" y="64.000000" width="24.000000" height="24.000000" rx="0" ry="0" style="stroke:none;fill:#4B71A1;"/>
<text x="344.800000" y="78.000000" font-family="Arial" font-size="7" text-anchor="middle" fill="#FFFFFF">+</text>
<circle cx="334.800000" cy="66.000000" r="1"/>
<line x1="329.800000" y1="71.000000" x2="332.800000" y2="72.000000"  transform="rotate(0.000000,332.800000,72.000000)" style="stroke: black; stroke-width:0.25;"/>
<line x1="329.800000" y1="73.000000" x2="332.800000" y2="72.000000"  transform="rotate(0.000000,332.800000,72.000000)" style="stroke: black; stroke-width:0.25;"/>
<line x1="329.800000" y1="79.000000" x2="332.800000" y2="80.000000"  transform="rotate(0.000000,332.800000,80.000000)" style="stroke: black; stroke-width:0.25;"/>
<line x1="329.800000" y1="81.000000" x2="332.800000" y2="80.000000"  transform="rotate(0.000000,332.800000,80.000000)" style="stroke: black; stroke-width:0.25;"/>
<line x1="15.000000" y1="15.000000" x2="15.000000" y2="137.000000"  style="stroke: black; stroke-linecap:round; stroke-width:0.25; stroke-dasharray:3,3;"/>
<line x1="15.000000" y1="137.000000" x2="373.800000" y2="137.000000"  style="stroke: black; stroke-linecap:round; stroke-width:0.25; stroke-dasharray:3,3;"/>
<line x1="373.800000" y1="137.000000" x2="373.800000" y2="15.000000"  style="stroke: black; stroke-linecap:round; stroke-width:0.25; stroke-dasharray:3,3;"/>
<line x1="15.000000" y1="15.000000" x2="20.000000" y2="15.000000"  style="stroke: black; stroke-linecap:round; stroke-width:0.25; stroke-dasharray:3,3;"/>
<line x1="119.975000" y1="15.000000" x2="373.800000" y2="15.000000"  style="stroke: black; stroke-linecap:round; stroke-width:0.25; stroke-dasharray:3,3;"/>
<text x="20.000000" y="17.000000" font-family="Arial" font-size="7">allpass_comb(...00000000002f)</text>
<line x1="375.800000" y1="75.000000" x2="378.800000" y2="76.000000"  transform="rotate(0.000000,378.800000,76.000000)" style="stroke: black; stroke-width:0.25;"/>
<line x1="375.800000" y1="77.000000" x2="378.800000" y2="76.000000"  transform="rotate(0.000000,378.800000,76.000000)" style="stroke: black; stroke-width:0.25;"/>
<line x1="10.000000" y1="76.000000" x2="20.000000" y2="76.000000"  style="stroke:black; stroke-linecap:round; stroke-width:0.25;"/>
<line x1="20.000000" y1="76.000000" x2="24.000000" y2="76.000000"  style="stroke:black; stroke-linecap:round; stroke-width:0.25;"/>
<line x1="24.000000" y1="76.000000" x2="28.000000" y2="76.000000"  style="stroke:black; stroke-linecap:round; stroke-width:0.25;"/>
<line x1="28.000000" y1="76.000000" x2="36.000000" y2="76.000000"  style="stroke:black; stroke-linecap:round; stroke-width:0.25;"/>
<line x1="36.000000" y1="76.000000" x2="36.000000" y2="100.000000"  style="stroke:black; stroke-linecap:round; stroke-width:0.25;"/>
<line x1="36.000000" y1="100.000000" x2="36.000000" y2="100.000000"  style="stroke:black; stroke-linecap:round; stroke-width:0.25;"/>
<line x1="36.000000" y1="100.000000" x2="44.000000" y2="100.000000"  style="stroke:black; stroke-linecap:round; stroke-width:0.25;"/>
<line x1="44.000000" y1="40.000000" x2="44.000000" y2="40.000000"  style="stroke:black; stroke-linecap:round; stroke-width:0.25;"/>
<line x1="44.000000" y1="40.000000" x2="44.000000" y2="92.000000"  style="stroke:black; stroke-linecap:round; stroke-width:0.25;"/>
<line x1="44.000000" y1="92.000000" x2="44.000000" y2="92.000000"  style="stroke:black; stroke-linecap:round; stroke-width:0.25;"/>
<line x1="44.000000" y1="92.000000" x2="48.000000" y2="92.000000"  style="stroke:black; stroke-linecap:round; stroke-width:0.25;"/>
<line x1="44.000000" y1="100.000000" x2="48.000000" y2="100.000000"  style="stroke:black; stroke-linecap:round; stroke-width:0.25;"/>
<line x1="72.000000" y1="96.000000" x2="76.000000" y2="96.000000"  style="stroke:black; stroke-linecap:round; stroke-width:0.25;"/>
<line x1="76.000000" y1="96.000000" x2="102.000000" y2="96.000000"  style="stroke:black; stroke-linecap:round; stroke-width:0.25;"/>
<line x1="76.000000" y1="96.000000" x2="102.000000" y2="76.000000"  style="stroke:black; stroke-linecap:round; stroke-width:0.25;"/>
<line x1="102.000000" y1="96.000000" x2="147.400000" y2="96.000000"  style="stroke:black; stroke-linecap:round; stroke-width:0.25;"/>
<line x1="102.000000" y1="76.000000" x2="106.000000" y2="76.000000"  style="stroke:black; stroke-linecap:round; stroke-width:0.25;"/>
<line x1="117.500000" y1="40.000000" x2="44.000000" y2="40.000000"  style="stroke:black; stroke-linecap:round; stroke-width:0.25;"/>
<line x1="121.500000" y1="40.000000" x2="117.500000" y2="40.000000"  style="stroke:black; stroke-linecap:round; stroke-width:0.25;"/>
<line x1="147.400000" y1="96.000000" x2="163.400000" y2="96.000000"  style="stroke:black; stroke-linecap:round; stroke-width:0.25;"/>
<line x1="149.500000" y1="36.000000" x2="145.500000" y2="36.000000"  style="stroke:black; stroke-linecap:round; stroke-width:0.25;"/>
<line x1="149.500000" y1="44.000000" x2="145.500000" y2="44.000000"  style="stroke:black; stroke-linecap:round; stroke-width:0.25;"/>
<line x1="149.500000" y1="44.000000" x2="149.500000" y2="44.000000"  style="stroke:black; stroke-linecap:round; stroke-width:0.25;"/>
<line x1="149.500000" y1="56.000000" x2="149.500000" y2="44.000000"  style="stroke:black; stroke-linecap:round; stroke-width:0.25;"/>
<line x1="157.500000" y1="36.000000" x2="149.500000" y2="36.000000"  style="stroke:black; stroke-linecap:round; stroke-width:0.25;"/>
<line x1="157.500000" y1="56.000000" x2="149.500000" y2="56.000000"  style="stroke:black; stroke-linecap:round; stroke-width:0.25;"/>
<line x1="161.500000" y1="36.000000" x2="157.500000" y2="36.000000"  style="stroke:black; stroke-linecap:round; stroke-width:0.25;"/>
<line x1="163.400000" y1="96.000000" x2="179.400000" y2="96.000000"  style="stroke:black; stroke-linecap:round; stroke-width:0.25;"/>
<line x1="174.400000" y1="56.000000" x2="157.500000" y2="56.000000"  style="stroke:black; stroke-linecap:round; stroke-width:0.25;"/>
<line x1="175.400000" y1="116.000000" x2="179.400000" y2="116.000000"  style="stroke:black; stroke-linecap:round; stroke-width:0.25;"/>
<line x1="179.400000" y1="96.000000" x2="187.400000" y2="96.000000"  style="stroke:black; stroke-linecap:round; stroke-width:0.25;"/>
<line x1="179.400000" y1="116.000000" x2="187.400000" y2="116.000000"  style="stroke:black; stroke-linecap:round; stroke-width:0.25;"/>
<line x1="187.400000" y1="96.000000" x2="187.400000" y2="108.000000"  style="stroke:black; stroke-linecap:round; stroke-width:0.25;"/>
<line x1="187.400000" y1="108.000000" x2="187.400000" y2="108.000000"  style="stroke:black; stroke-linecap:round; stroke-width:0.25;"/>
<line x1="187.400000" y1="108.000000" x2="191.400000" y2="108.000000"  style="stroke:black; stroke-linecap:round; stroke-width:0.25;"/>
<line x1="187.400000" y1="116.000000" x2="191.400000" y2="116.000000"  style="stroke:black; stroke-linecap:round; stroke-width:0.25;"/>
<line x1="191.300000" y1="56.000000" x2="174.400000" y2="56.000000"  style="stroke:black; stroke-linecap:round; stroke-width:0.25;"/>
<line x1="215.400000" y1="112.000000" x2="219.400000" y2="112.000000"  style="stroke:black; stroke-linecap:round; stroke-width:0.25;"/>
<line x1="219.400000" y1="112.000000" x2="264.800000" y2="112.000000"  style="stroke:black; stroke-linecap:round; stroke-width:0.25;"/>
<line x1="260.800000" y1="76.000000" x2="264.800000" y2="76.000000"  style="stroke:black; stroke-linecap:round; stroke-width:0.25;"/>
<line x1="264.800000" y1="56.000000" x2="264.800000" y2="56.000000"  style="stroke:black; stroke-linecap:round; stroke-width:0.25;"/>
<line x1="264.800000" y1="72.000000" x2="264.800000" y2="56.000000"  style="stroke:black; stroke-linecap:round; stroke-width:0.25;"/>
<line x1="264.800000" y1="76.000000" x2="266.800000" y2="76.000000"  style="stroke:black; stroke-linecap:round; stroke-width:0.25;"/>
<line x1="264.800000" y1="112.000000" x2="272.800000" y2="112.000000"  style="stroke:black; stroke-linecap:round; stroke-width:0.25;"/>
<line x1="264.800000" y1="56.000000" x2="191.300000" y2="56.000000"  style="stroke:black; stroke-linecap:round; stroke-width:0.25;"/>
<line x1="266.800000" y1="76.000000" x2="272.800000" y2="76.000000"  style="stroke:black; stroke-linecap:round; stroke-width:0.25;"/>
<line x1="272.800000" y1="72.000000" x2="288.800000" y2="72.000000"  style="stroke:black; stroke-linecap:round; stroke-width:0.25;"/>
<line x1="272.800000" y1="76.000000" x2="272.800000" y2="72.000000"  style="stroke:black; stroke-linecap:round; stroke-width:0.25;"/>
<line x1="272.800000" y1="76.000000" x2="272.800000" y2="76.000000"  style="stroke:black; stroke-linecap:round; stroke-width:0.25;"/>
<line x1="272.800000" y1="112.000000" x2="280.800000" y2="112.000000"  style="stroke:black; stroke-linecap:round; stroke-width:0.25;"/>
<line x1="280.800000" y1="92.000000" x2="288.800000" y2="92.000000"  style="stroke:black; stroke-linecap:round; stroke-width:0.25;"/>
<line x1="280.800000" y1="112.000000" x2="280.800000" y2="92.000000"  style="stroke:black; stroke-linecap:round; stroke-width:0.25;"/>
<line x1="288.800000" y1="72.000000" x2="292.800000" y2="72.000000"  style="stroke:black; stroke-linecap:round; stroke-width:0.25;"/>
<line x1="288.800000" y1="92.000000" x2="304.800000" y2="92.000000"  style="stroke:black; stroke-linecap:round; stroke-width:0.25;"/>
<line x1="304.800000" y1="92.000000" x2="320.800000" y2="92.000000"  style="stroke:black; stroke-linecap:round; stroke-width:0.25;"/>
<line x1="316.800000" y1="72.000000" x2="320.800000" y2="72.000000"  style="stroke:black; stroke-linecap:round; stroke-width:0.25;"/>
<line x1="320.800000" y1="72.000000" x2="328.800000" y2="72.000000"  style="stroke:black; stroke-linecap:round; stroke-width:0.25;"/>
<line x1="320.800000" y1="80.000000" x2="328.800000" y2="80.000000"  style="stroke:black; stroke-linecap:round; stroke-width:0.25;"/>
<line x1="320.800000" y1="92.000000" x2="320.800000" y2="80.000000"  style="stroke:black; stroke-linecap:round; stroke-width:0.25;"/>
<line x1="320.800000" y1="92.000000" x2="320.800000" y2="92.000000"  style="stroke:black; stroke-linecap:round; stroke-width:0.25;"/>
<line x1="328.800000" y1="72.000000" x2="332.800000" y2="72.000000"  style="stroke:black; stroke-linecap:round; stroke-width:0.25;"/>
<line x1="328.800000" y1="80.000000" x2="332.800000" y2="80.000000"  style="stroke:black; stroke-linecap:round; stroke-width:0.25;"/>
<line x1="356.800000" y1="76.000000" x2="360.800000" y2="76.000000"  style="stroke:black; stroke-linecap:round; stroke-width:0.25;"/>
<line x1="360.800000" y1="76.000000" x2="360.800000" y2="76.000000"  style="stroke:black; stroke-linecap:round; stroke-width:0.25;"/>
<line x1="360.800000" y1="76.000000" x2="364.800000" y2="76.000000"  style="stroke:black; stroke-linecap:round; stroke-width:0.25;"/>
<line x1="364.800000" y1="76.000000" x2="368.800000" y2="76.000000"  style="stroke:black; stroke-linecap:round; stroke-width:0.25;"/>
<line x1="368.800000" y1="76.000000" x2="378.800000" y2="76.000000"  style="stroke:black; stroke-linecap:round; stroke-width:0.25;"/>
</svg>
