<?xml version="1.0"?>
<svg xmlns="http://www.w3.org/2000/svg" xmlns:xlink="http://www.w3.org/1999/xlink" viewBox="0 0 1226.800000 320.000000" width="613.400000mm" height="160.000000mm" version="1.1">
<a xlink:href="dflcv-0x6000063598c0.svg">
<rect x="0.000000" y="0.000000" width="1225.800000" height="319.000000" rx="0" ry="0" style="stroke:#000000;fill:#FFFFFF;"/>
</a>
<text x="10.000000" y="7.000000" font-family="Verdana" font-size="7"></text>
<rect x="32.000000" y="148.000000" width="38.700000" height="24.000000" rx="0" ry="0" style="stroke:#000000;fill:#FFFFFF;"/>
<text x="51.350000" y="162.000000" font-family="Verdana" font-size="7" text-anchor="middle" fill="#000000">[260] x</text>
<circle cx="34.000000" cy="150.000000" r="1"/>
<line x1="29.000000" y1="159.000000" x2="32.000000" y2="160.000000"  transform="rotate(0.000000,32.000000,160.000000)" style="stroke: black; stroke-width:0.25;"/>
<line x1="29.000000" y1="161.000000" x2="32.000000" y2="160.000000"  transform="rotate(0.000000,32.000000,160.000000)" style="stroke: black; stroke-width:0.25;"/>
<rect x="597.400000" y="24.000000" width="38.700000" height="24.000000" rx="0" ry="0" style="stroke:#000000;fill:#FFFFFF;"/>
<text x="616.750000" y="38.000000" font-family="Verdana" font-size="7" text-anchor="middle" fill="#000000">[260] x</text>
<circle cx="599.400000" cy="26.000000" r="1"/>
<a xlink:href="delmax-0x6000022c8f30.svg">
<rect x="583.850000" y="56.000000" width="25.800000" height="24.000000" rx="0" ry="0" style="stroke:#000000;fill:#FFFFFF;"/>
</a>
<a xlink:href="delmax-0x6000022c8f30.svg">
<text x="596.750000" y="70.000000" font-family="Verdana" font-size="7" text-anchor="middle" fill="#000000">delmax</text>
</a>
<circle cx="585.850000" cy="58.000000" r="1"/>
<rect x="564.750000" y="88.000000" width="24.000000" height="24.000000" rx="0" ry="0" style="stroke:#000000;fill:#FFFFFF;"/>
<text x="576.750000" y="102.000000" font-family="Verdana" font-size="7" text-anchor="middle" fill="#000000">0</text>
<circle cx="566.750000" cy="90.000000" r="1"/>
<a xlink:href="rphi-0x60000221dc20.svg">
<rect x="78.700000" y="180.000000" width="129.000000" height="24.000000" rx="0" ry="0" style="stroke:#000000;fill:#FFFFFF;"/>
</a>
<a xlink:href="rphi-0x60000221dc20.svg">
<text x="143.200000" y="194.000000" font-family="Verdana" font-size="7" text-anchor="middle" fill="#000000">rphi((1.92e+0...: min),4 : *)</text>
</a>
<circle cx="80.700000" cy="182.000000" r="1"/>
<rect x="225.700000" y="180.000000" width="38.700000" height="24.000000" rx="0" ry="0" style="stroke:#000000;fill:#FFFFFF;"/>
<text x="245.050000" y="194.000000" font-family="Verdana" font-size="7" text-anchor="middle" fill="#000000">[16] PM16</text>
<circle cx="227.700000" cy="182.000000" r="1"/>
<line x1="222.700000" y1="191.000000" x2="225.700000" y2="192.000000"  transform="rotate(0.000000,225.700000,192.000000)" style="stroke: black; stroke-width:0.25;"/>
<line x1="222.700000" y1="193.000000" x2="225.700000" y2="192.000000"  transform="rotate(0.000000,225.700000,192.000000)" style="stroke: black; stroke-width:0.25;"/>
<a xlink:href="rphi-0x600002297e70.svg">
<rect x="272.400000" y="180.000000" width="38.700000" height="24.000000" rx="0" ry="0" style="stroke:#000000;fill:#FFFFFF;"/>
</a>
<a xlink:href="rphi-0x600002297e70.svg">
<text x="291.750000" y="194.000000" font-family="Verdana" font-size="7" text-anchor="middle" fill="#000000">rphi(x16)</text>
</a>
<circle cx="274.400000" cy="182.000000" r="1"/>
<rect x="329.100000" y="180.000000" width="38.700000" height="24.000000" rx="0" ry="0" style="stroke:#000000;fill:#FFFFFF;"/>
<text x="348.450000" y="194.000000" font-family="Verdana" font-size="7" text-anchor="middle" fill="#000000">[17] PM17</text>
<circle cx="331.100000" cy="182.000000" r="1"/>
<line x1="326.100000" y1="191.000000" x2="329.100000" y2="192.000000"  transform="rotate(0.000000,329.100000,192.000000)" style="stroke: black; stroke-width:0.25;"/>
<line x1="326.100000" y1="193.000000" x2="329.100000" y2="192.000000"  transform="rotate(0.000000,329.100000,192.000000)" style="stroke: black; stroke-width:0.25;"/>
<a xlink:href="rphi-0x600002279cb0.svg">
<rect x="375.800000" y="180.000000" width="38.700000" height="24.000000" rx="0" ry="0" style="stroke:#000000;fill:#FFFFFF;"/>
</a>
<a xlink:href="rphi-0x600002279cb0.svg">
<text x="395.150000" y="194.000000" font-family="Verdana" font-size="7" text-anchor="middle" fill="#000000">rphi(x17)</text>
</a>
<circle cx="377.800000" cy="182.000000" r="1"/>
<rect x="432.500000" y="180.000000" width="38.700000" height="24.000000" rx="0" ry="0" style="stroke:#000000;fill:#FFFFFF;"/>
<text x="451.850000" y="194.000000" font-family="Verdana" font-size="7" text-anchor="middle" fill="#000000">[18] PM18</text>
<circle cx="434.500000" cy="182.000000" r="1"/>
<line x1="429.500000" y1="191.000000" x2="432.500000" y2="192.000000"  transform="rotate(0.000000,432.500000,192.000000)" style="stroke: black; stroke-width:0.25;"/>
<line x1="429.500000" y1="193.000000" x2="432.500000" y2="192.000000"  transform="rotate(0.000000,432.500000,192.000000)" style="stroke: black; stroke-width:0.25;"/>
<a xlink:href="rphi-0x60000227ba80.svg">
<rect x="479.200000" y="180.000000" width="38.700000" height="24.000000" rx="0" ry="0" style="stroke:#000000;fill:#FFFFFF;"/>
</a>
<a xlink:href="rphi-0x60000227ba80.svg">
<text x="498.550000" y="194.000000" font-family="Verdana" font-size="7" text-anchor="middle" fill="#000000">rphi(x18)</text>
</a>
<circle cx="481.200000" cy="182.000000" r="1"/>
<rect x="535.900000" y="180.000000" width="38.700000" height="24.000000" rx="0" ry="0" style="stroke:#000000;fill:#FFFFFF;"/>
<text x="555.250000" y="194.000000" font-family="Verdana" font-size="7" text-anchor="middle" fill="#000000">[19] PM19</text>
<circle cx="537.900000" cy="182.000000" r="1"/>
<line x1="532.900000" y1="191.000000" x2="535.900000" y2="192.000000"  transform="rotate(0.000000,535.900000,192.000000)" style="stroke: black; stroke-width:0.25;"/>
<line x1="532.900000" y1="193.000000" x2="535.900000" y2="192.000000"  transform="rotate(0.000000,535.900000,192.000000)" style="stroke: black; stroke-width:0.25;"/>
<a xlink:href="rphi-0x60000227d8c0.svg">
<rect x="582.600000" y="180.000000" width="38.700000" height="24.000000" rx="0" ry="0" style="stroke:#000000;fill:#FFFFFF;"/>
</a>
<a xlink:href="rphi-0x60000227d8c0.svg">
<text x="601.950000" y="194.000000" font-family="Verdana" font-size="7" text-anchor="middle" fill="#000000">rphi(x19)</text>
</a>
<circle cx="584.600000" cy="182.000000" r="1"/>
<rect x="639.300000" y="180.000000" width="38.700000" height="24.000000" rx="0" ry="0" style="stroke:#000000;fill:#FFFFFF;"/>
<text x="658.650000" y="194.000000" font-family="Verdana" font-size="7" text-anchor="middle" fill="#000000">[20] PM20</text>
<circle cx="641.300000" cy="182.000000" r="1"/>
<line x1="636.300000" y1="191.000000" x2="639.300000" y2="192.000000"  transform="rotate(0.000000,639.300000,192.000000)" style="stroke: black; stroke-width:0.25;"/>
<line x1="636.300000" y1="193.000000" x2="639.300000" y2="192.000000"  transform="rotate(0.000000,639.300000,192.000000)" style="stroke: black; stroke-width:0.25;"/>
<a xlink:href="rphi-0x60000227f690.svg">
<rect x="686.000000" y="180.000000" width="38.700000" height="24.000000" rx="0" ry="0" style="stroke:#000000;fill:#FFFFFF;"/>
</a>
<a xlink:href="rphi-0x60000227f690.svg">
<text x="705.350000" y="194.000000" font-family="Verdana" font-size="7" text-anchor="middle" fill="#000000">rphi(x20)</text>
</a>
<circle cx="688.000000" cy="182.000000" r="1"/>
<rect x="742.700000" y="180.000000" width="38.700000" height="24.000000" rx="0" ry="0" style="stroke:#000000;fill:#FFFFFF;"/>
<text x="762.050000" y="194.000000" font-family="Verdana" font-size="7" text-anchor="middle" fill="#000000">[21] PM21</text>
<circle cx="744.700000" cy="182.000000" r="1"/>
<line x1="739.700000" y1="191.000000" x2="742.700000" y2="192.000000"  transform="rotate(0.000000,742.700000,192.000000)" style="stroke: black; stroke-width:0.25;"/>
<line x1="739.700000" y1="193.000000" x2="742.700000" y2="192.000000"  transform="rotate(0.000000,742.700000,192.000000)" style="stroke: black; stroke-width:0.25;"/>
<rect x="789.400000" y="180.000000" width="38.700000" height="24.000000" rx="0" ry="0" style="stroke:#000000;fill:#FFFFFF;"/>
<text x="808.750000" y="194.000000" font-family="Verdana" font-size="7" text-anchor="middle" fill="#000000">[21] PM21</text>
<circle cx="791.400000" cy="182.000000" r="1"/>
<line x1="733.700000" y1="171.000000" x2="733.700000" y2="213.000000"  style="stroke: black; stroke-linecap:round; stroke-width:0.25; stroke-dasharray:3,3;"/>
<line x1="733.700000" y1="213.000000" x2="837.100000" y2="213.000000"  style="stroke: black; stroke-linecap:round; stroke-width:0.25; stroke-dasharray:3,3;"/>
<line x1="837.100000" y1="213.000000" x2="837.100000" y2="171.000000"  style="stroke: black; stroke-linecap:round; stroke-width:0.25; stroke-dasharray:3,3;"/>
<line x1="733.700000" y1="171.000000" x2="738.700000" y2="171.000000"  style="stroke: black; stroke-linecap:round; stroke-width:0.25; stroke-dasharray:3,3;"/>
<line x1="780.625000" y1="171.000000" x2="837.100000" y2="171.000000"  style="stroke: black; stroke-linecap:round; stroke-width:0.25; stroke-dasharray:3,3;"/>
<text x="738.700000" y="173.000000" font-family="Verdana" font-size="7">Abstraction</text>
<line x1="630.300000" y1="161.000000" x2="630.300000" y2="223.000000"  style="stroke: black; stroke-linecap:round; stroke-width:0.25; stroke-dasharray:3,3;"/>
<line x1="630.300000" y1="223.000000" x2="847.100000" y2="223.000000"  style="stroke: black; stroke-linecap:round; stroke-width:0.25; stroke-dasharray:3,3;"/>
<line x1="847.100000" y1="223.000000" x2="847.100000" y2="161.000000"  style="stroke: black; stroke-linecap:round; stroke-width:0.25; stroke-dasharray:3,3;"/>
<line x1="630.300000" y1="161.000000" x2="635.300000" y2="161.000000"  style="stroke: black; stroke-linecap:round; stroke-width:0.25; stroke-dasharray:3,3;"/>
<line x1="677.225000" y1="161.000000" x2="847.100000" y2="161.000000"  style="stroke: black; stroke-linecap:round; stroke-width:0.25; stroke-dasharray:3,3;"/>
<text x="635.300000" y="163.000000" font-family="Verdana" font-size="7">Abstraction</text>
<line x1="526.900000" y1="151.000000" x2="526.900000" y2="233.000000"  style="stroke: black; stroke-linecap:round; stroke-width:0.25; stroke-dasharray:3,3;"/>
<line x1="526.900000" y1="233.000000" x2="857.100000" y2="233.000000"  style="stroke: black; stroke-linecap:round; stroke-width:0.25; stroke-dasharray:3,3;"/>
<line x1="857.100000" y1="233.000000" x2="857.100000" y2="151.000000"  style="stroke: black; stroke-linecap:round; stroke-width:0.25; stroke-dasharray:3,3;"/>
<line x1="526.900000" y1="151.000000" x2="531.900000" y2="151.000000"  style="stroke: black; stroke-linecap:round; stroke-width:0.25; stroke-dasharray:3,3;"/>
<line x1="573.825000" y1="151.000000" x2="857.100000" y2="151.000000"  style="stroke: black; stroke-linecap:round; stroke-width:0.25; stroke-dasharray:3,3;"/>
<text x="531.900000" y="153.000000" font-family="Verdana" font-size="7">Abstraction</text>
<line x1="423.500000" y1="141.000000" x2="423.500000" y2="243.000000"  style="stroke: black; stroke-linecap:round; stroke-width:0.25; stroke-dasharray:3,3;"/>
<line x1="423.500000" y1="243.000000" x2="867.100000" y2="243.000000"  style="stroke: black; stroke-linecap:round; stroke-width:0.25; stroke-dasharray:3,3;"/>
<line x1="867.100000" y1="243.000000" x2="867.100000" y2="141.000000"  style="stroke: black; stroke-linecap:round; stroke-width:0.25; stroke-dasharray:3,3;"/>
<line x1="423.500000" y1="141.000000" x2="428.500000" y2="141.000000"  style="stroke: black; stroke-linecap:round; stroke-width:0.25; stroke-dasharray:3,3;"/>
<line x1="470.425000" y1="141.000000" x2="867.100000" y2="141.000000"  style="stroke: black; stroke-linecap:round; stroke-width:0.25; stroke-dasharray:3,3;"/>
<text x="428.500000" y="143.000000" font-family="Verdana" font-size="7">Abstraction</text>
<line x1="320.100000" y1="131.000000" x2="320.100000" y2="253.000000"  style="stroke: black; stroke-linecap:round; stroke-width:0.25; stroke-dasharray:3,3;"/>
<line x1="320.100000" y1="253.000000" x2="877.100000" y2="253.000000"  style="stroke: black; stroke-linecap:round; stroke-width:0.25; stroke-dasharray:3,3;"/>
<line x1="877.100000" y1="253.000000" x2="877.100000" y2="131.000000"  style="stroke: black; stroke-linecap:round; stroke-width:0.25; stroke-dasharray:3,3;"/>
<line x1="320.100000" y1="131.000000" x2="325.100000" y2="131.000000"  style="stroke: black; stroke-linecap:round; stroke-width:0.25; stroke-dasharray:3,3;"/>
<line x1="367.025000" y1="131.000000" x2="877.100000" y2="131.000000"  style="stroke: black; stroke-linecap:round; stroke-width:0.25; stroke-dasharray:3,3;"/>
<text x="325.100000" y="133.000000" font-family="Verdana" font-size="7">Abstraction</text>
<line x1="216.700000" y1="121.000000" x2="216.700000" y2="263.000000"  style="stroke: black; stroke-linecap:round; stroke-width:0.25; stroke-dasharray:3,3;"/>
<line x1="216.700000" y1="263.000000" x2="887.100000" y2="263.000000"  style="stroke: black; stroke-linecap:round; stroke-width:0.25; stroke-dasharray:3,3;"/>
<line x1="887.100000" y1="263.000000" x2="887.100000" y2="121.000000"  style="stroke: black; stroke-linecap:round; stroke-width:0.25; stroke-dasharray:3,3;"/>
<line x1="216.700000" y1="121.000000" x2="221.700000" y2="121.000000"  style="stroke: black; stroke-linecap:round; stroke-width:0.25; stroke-dasharray:3,3;"/>
<line x1="263.625000" y1="121.000000" x2="887.100000" y2="121.000000"  style="stroke: black; stroke-linecap:round; stroke-width:0.25; stroke-dasharray:3,3;"/>
<text x="221.700000" y="123.000000" font-family="Verdana" font-size="7">Abstraction</text>
<rect x="914.100000" y="164.000000" width="38.700000" height="24.000000" rx="0" ry="0" style="stroke:#000000;fill:#FFFFFF;"/>
<text x="933.450000" y="178.000000" font-family="Verdana" font-size="7" text-anchor="middle" fill="#000000">next_pr</text>
<circle cx="916.100000" cy="166.000000" r="1"/>
<line x1="911.100000" y1="175.000000" x2="914.100000" y2="176.000000"  transform="rotate(0.000000,914.100000,176.000000)" style="stroke: black; stroke-width:0.25;"/>
<line x1="911.100000" y1="177.000000" x2="914.100000" y2="176.000000"  transform="rotate(0.000000,914.100000,176.000000)" style="stroke: black; stroke-width:0.25;"/>
<line x1="905.100000" y1="155.000000" x2="905.100000" y2="197.000000"  style="stroke: black; stroke-linecap:round; stroke-width:0.25; stroke-dasharray:3,3;"/>
<line x1="905.100000" y1="197.000000" x2="961.800000" y2="197.000000"  style="stroke: black; stroke-linecap:round; stroke-width:0.25; stroke-dasharray:3,3;"/>
<line x1="961.800000" y1="197.000000" x2="961.800000" y2="155.000000"  style="stroke: black; stroke-linecap:round; stroke-width:0.25; stroke-dasharray:3,3;"/>
<line x1="905.100000" y1="155.000000" x2="910.100000" y2="155.000000"  style="stroke: black; stroke-linecap:round; stroke-width:0.25; stroke-dasharray:3,3;"/>
<line x1="923.000000" y1="155.000000" x2="961.800000" y2="155.000000"  style="stroke: black; stroke-linecap:round; stroke-width:0.25; stroke-dasharray:3,3;"/>
<text x="910.100000" y="157.000000" font-family="Verdana" font-size="7">np</text>
<rect x="921.450000" y="206.000000" width="24.000000" height="24.000000" rx="0" ry="0" style="stroke:#000000;fill:#FFFFFF;"/>
<text x="933.450000" y="220.000000" font-family="Verdana" font-size="7" text-anchor="middle" fill="#000000">1</text>
<circle cx="923.450000" cy="208.000000" r="1"/>
<rect x="978.800000" y="180.000000" width="24.000000" height="24.000000" rx="0" ry="0" style="stroke:#000000;fill:#FFFFFF;"/>
<text x="990.800000" y="194.000000" font-family="Verdana" font-size="7" text-anchor="middle" fill="#000000">max</text>
<circle cx="980.800000" cy="182.000000" r="1"/>
<line x1="975.800000" y1="187.000000" x2="978.800000" y2="188.000000"  transform="rotate(0.000000,978.800000,188.000000)" style="stroke: black; stroke-width:0.25;"/>
<line x1="975.800000" y1="189.000000" x2="978.800000" y2="188.000000"  transform="rotate(0.000000,978.800000,188.000000)" style="stroke: black; stroke-width:0.25;"/>
<line x1="975.800000" y1="195.000000" x2="978.800000" y2="196.000000"  transform="rotate(0.000000,978.800000,196.000000)" style="stroke: black; stroke-width:0.25;"/>
<line x1="975.800000" y1="197.000000" x2="978.800000" y2="196.000000"  transform="rotate(0.000000,978.800000,196.000000)" style="stroke: black; stroke-width:0.25;"/>
<rect x="528.750000" y="272.000000" width="24.000000" height="24.000000" rx="0" ry="0" style="stroke:#000000;fill:#FFFFFF;"/>
<text x="540.750000" y="286.000000" font-family="Verdana" font-size="7" text-anchor="middle" fill="#000000">1</text>
<circle cx="530.750000" cy="274.000000" r="1"/>
<rect x="1018.800000" y="196.000000" width="24.000000" height="24.000000" rx="0" ry="0" style="stroke:#000000;fill:#FFFFFF;"/>
<text x="1030.800000" y="210.000000" font-family="Verdana" font-size="7" text-anchor="middle" fill="#000000">-</text>
<circle cx="1020.800000" cy="198.000000" r="1"/>
<line x1="1015.800000" y1="203.000000" x2="1018.800000" y2="204.000000"  transform="rotate(0.000000,1018.800000,204.000000)" style="stroke: black; stroke-width:0.25;"/>
<line x1="1015.800000" y1="205.000000" x2="1018.800000" y2="204.000000"  transform="rotate(0.000000,1018.800000,204.000000)" style="stroke: black; stroke-width:0.25;"/>
<line x1="1015.800000" y1="211.000000" x2="1018.800000" y2="212.000000"  transform="rotate(0.000000,1018.800000,212.000000)" style="stroke: black; stroke-width:0.25;"/>
<line x1="1015.800000" y1="213.000000" x2="1018.800000" y2="212.000000"  transform="rotate(0.000000,1018.800000,212.000000)" style="stroke: black; stroke-width:0.25;"/>
<rect x="1050.800000" y="196.000000" width="24.000000" height="24.000000" rx="0" ry="0" style="stroke:#000000;fill:#FFFFFF;"/>
<text x="1062.800000" y="210.000000" font-family="Verdana" font-size="7" text-anchor="middle" fill="#000000">int</text>
<circle cx="1052.800000" cy="198.000000" r="1"/>
<line x1="1047.800000" y1="207.000000" x2="1050.800000" y2="208.000000"  transform="rotate(0.000000,1050.800000,208.000000)" style="stroke: black; stroke-width:0.25;"/>
<line x1="1047.800000" y1="209.000000" x2="1050.800000" y2="208.000000"  transform="rotate(0.000000,1050.800000,208.000000)" style="stroke: black; stroke-width:0.25;"/>
<rect x="1090.800000" y="180.000000" width="24.000000" height="24.000000" rx="0" ry="0" style="stroke:#000000;fill:#FFFFFF;"/>
<text x="1102.800000" y="194.000000" font-family="Verdana" font-size="7" text-anchor="middle" fill="#000000">max</text>
<circle cx="1092.800000" cy="182.000000" r="1"/>
<line x1="1087.800000" y1="187.000000" x2="1090.800000" y2="188.000000"  transform="rotate(0.000000,1090.800000,188.000000)" style="stroke: black; stroke-width:0.25;"/>
<line x1="1087.800000" y1="189.000000" x2="1090.800000" y2="188.000000"  transform="rotate(0.000000,1090.800000,188.000000)" style="stroke: black; stroke-width:0.25;"/>
<line x1="1087.800000" y1="195.000000" x2="1090.800000" y2="196.000000"  transform="rotate(0.000000,1090.800000,196.000000)" style="stroke: black; stroke-width:0.25;"/>
<line x1="1087.800000" y1="197.000000" x2="1090.800000" y2="196.000000"  transform="rotate(0.000000,1090.800000,196.000000)" style="stroke: black; stroke-width:0.25;"/>
<rect x="1130.800000" y="164.000000" width="24.000000" height="24.000000" rx="0" ry="0" style="stroke:#000000;fill:#FFFFFF;"/>
<text x="1142.800000" y="178.000000" font-family="Verdana" font-size="7" text-anchor="middle" fill="#000000">min</text>
<circle cx="1132.800000" cy="166.000000" r="1"/>
<line x1="1127.800000" y1="171.000000" x2="1130.800000" y2="172.000000"  transform="rotate(0.000000,1130.800000,172.000000)" style="stroke: black; stroke-width:0.25;"/>
<line x1="1127.800000" y1="173.000000" x2="1130.800000" y2="172.000000"  transform="rotate(0.000000,1130.800000,172.000000)" style="stroke: black; stroke-width:0.25;"/>
<line x1="1127.800000" y1="179.000000" x2="1130.800000" y2="180.000000"  transform="rotate(0.000000,1130.800000,180.000000)" style="stroke: black; stroke-width:0.25;"/>
<line x1="1127.800000" y1="181.000000" x2="1130.800000" y2="180.000000"  transform="rotate(0.000000,1130.800000,180.000000)" style="stroke: black; stroke-width:0.25;"/>
<rect x="1170.800000" y="148.000000" width="24.000000" height="24.000000" rx="0" ry="0" style="stroke:#000000;fill:#FFFFFF;"/>
<text x="1182.800000" y="162.000000" font-family="Verdana" font-size="7" text-anchor="middle" fill="#000000">@</text>
<circle cx="1172.800000" cy="150.000000" r="1"/>
<line x1="1167.800000" y1="155.000000" x2="1170.800000" y2="156.000000"  transform="rotate(0.000000,1170.800000,156.000000)" style="stroke: black; stroke-width:0.25;"/>
<line x1="1167.800000" y1="157.000000" x2="1170.800000" y2="156.000000"  transform="rotate(0.000000,1170.800000,156.000000)" style="stroke: black; stroke-width:0.25;"/>
<line x1="1167.800000" y1="163.000000" x2="1170.800000" y2="164.000000"  transform="rotate(0.000000,1170.800000,164.000000)" style="stroke: black; stroke-width:0.25;"/>
<line x1="1167.800000" y1="165.000000" x2="1170.800000" y2="164.000000"  transform="rotate(0.000000,1170.800000,164.000000)" style="stroke: black; stroke-width:0.25;"/>
<line x1="15.000000" y1="15.000000" x2="15.000000" y2="305.000000"  style="stroke: black; stroke-linecap:round; stroke-width:0.25; stroke-dasharray:3,3;"/>
<line x1="15.000000" y1="305.000000" x2="1211.800000" y2="305.000000"  style="stroke: black; stroke-linecap:round; stroke-width:0.25; stroke-dasharray:3,3;"/>
<line x1="1211.800000" y1="305.000000" x2="1211.800000" y2="15.000000"  style="stroke: black; stroke-linecap:round; stroke-width:0.25; stroke-dasharray:3,3;"/>
<line x1="15.000000" y1="15.000000" x2="20.000000" y2="15.000000"  style="stroke: black; stroke-linecap:round; stroke-width:0.25; stroke-dasharray:3,3;"/>
<line x1="119.975000" y1="15.000000" x2="1211.800000" y2="15.000000"  style="stroke: black; stroke-linecap:round; stroke-width:0.25; stroke-dasharray:3,3;"/>
<text x="20.000000" y="17.000000" font-family="Verdana" font-size="7">delay((1.92e+...,1 : - : int)</text>
<line x1="1213.800000" y1="159.000000" x2="1216.800000" y2="160.000000"  transform="rotate(0.000000,1216.800000,160.000000)" style="stroke: black; stroke-width:0.25;"/>
<line x1="1213.800000" y1="161.000000" x2="1216.800000" y2="160.000000"  transform="rotate(0.000000,1216.800000,160.000000)" style="stroke: black; stroke-width:0.25;"/>
<line x1="10.000000" y1="160.000000" x2="20.000000" y2="160.000000"  style="stroke:black; stroke-linecap:round; stroke-width:0.25;"/>
<line x1="20.000000" y1="160.000000" x2="24.000000" y2="160.000000"  style="stroke:black; stroke-linecap:round; stroke-width:0.25;"/>
<line x1="24.000000" y1="160.000000" x2="28.000000" y2="160.000000"  style="stroke:black; stroke-linecap:round; stroke-width:0.25;"/>
<line x1="28.000000" y1="160.000000" x2="28.000000" y2="160.000000"  style="stroke:black; stroke-linecap:round; stroke-width:0.25;"/>
<line x1="28.000000" y1="160.000000" x2="32.000000" y2="160.000000"  style="stroke:black; stroke-linecap:round; stroke-width:0.25;"/>
<line x1="207.700000" y1="192.000000" x2="211.700000" y2="192.000000"  style="stroke:black; stroke-linecap:round; stroke-width:0.25;"/>
<line x1="211.700000" y1="192.000000" x2="211.700000" y2="192.000000"  style="stroke:black; stroke-linecap:round; stroke-width:0.25;"/>
<line x1="211.700000" y1="192.000000" x2="221.700000" y2="192.000000"  style="stroke:black; stroke-linecap:round; stroke-width:0.25;"/>
<line x1="221.700000" y1="192.000000" x2="225.700000" y2="192.000000"  style="stroke:black; stroke-linecap:round; stroke-width:0.25;"/>
<line x1="311.100000" y1="192.000000" x2="315.100000" y2="192.000000"  style="stroke:black; stroke-linecap:round; stroke-width:0.25;"/>
<line x1="315.100000" y1="192.000000" x2="315.100000" y2="192.000000"  style="stroke:black; stroke-linecap:round; stroke-width:0.25;"/>
<line x1="315.100000" y1="192.000000" x2="325.100000" y2="192.000000"  style="stroke:black; stroke-linecap:round; stroke-width:0.25;"/>
<line x1="325.100000" y1="192.000000" x2="329.100000" y2="192.000000"  style="stroke:black; stroke-linecap:round; stroke-width:0.25;"/>
<line x1="414.500000" y1="192.000000" x2="418.500000" y2="192.000000"  style="stroke:black; stroke-linecap:round; stroke-width:0.25;"/>
<line x1="418.500000" y1="192.000000" x2="418.500000" y2="192.000000"  style="stroke:black; stroke-linecap:round; stroke-width:0.25;"/>
<line x1="418.500000" y1="192.000000" x2="428.500000" y2="192.000000"  style="stroke:black; stroke-linecap:round; stroke-width:0.25;"/>
<line x1="428.500000" y1="192.000000" x2="432.500000" y2="192.000000"  style="stroke:black; stroke-linecap:round; stroke-width:0.25;"/>
<line x1="517.900000" y1="192.000000" x2="521.900000" y2="192.000000"  style="stroke:black; stroke-linecap:round; stroke-width:0.25;"/>
<line x1="521.900000" y1="192.000000" x2="521.900000" y2="192.000000"  style="stroke:black; stroke-linecap:round; stroke-width:0.25;"/>
<line x1="521.900000" y1="192.000000" x2="531.900000" y2="192.000000"  style="stroke:black; stroke-linecap:round; stroke-width:0.25;"/>
<line x1="531.900000" y1="192.000000" x2="535.900000" y2="192.000000"  style="stroke:black; stroke-linecap:round; stroke-width:0.25;"/>
<line x1="552.750000" y1="284.000000" x2="556.750000" y2="284.000000"  style="stroke:black; stroke-linecap:round; stroke-width:0.25;"/>
<line x1="556.750000" y1="284.000000" x2="1006.800000" y2="284.000000"  style="stroke:black; stroke-linecap:round; stroke-width:0.25;"/>
<line x1="588.750000" y1="100.000000" x2="592.750000" y2="100.000000"  style="stroke:black; stroke-linecap:round; stroke-width:0.25;"/>
<line x1="592.750000" y1="100.000000" x2="1078.800000" y2="100.000000"  style="stroke:black; stroke-linecap:round; stroke-width:0.25;"/>
<line x1="609.650000" y1="68.000000" x2="613.650000" y2="68.000000"  style="stroke:black; stroke-linecap:round; stroke-width:0.25;"/>
<line x1="613.650000" y1="68.000000" x2="1118.800000" y2="68.000000"  style="stroke:black; stroke-linecap:round; stroke-width:0.25;"/>
<line x1="621.300000" y1="192.000000" x2="625.300000" y2="192.000000"  style="stroke:black; stroke-linecap:round; stroke-width:0.25;"/>
<line x1="625.300000" y1="192.000000" x2="625.300000" y2="192.000000"  style="stroke:black; stroke-linecap:round; stroke-width:0.25;"/>
<line x1="625.300000" y1="192.000000" x2="635.300000" y2="192.000000"  style="stroke:black; stroke-linecap:round; stroke-width:0.25;"/>
<line x1="635.300000" y1="192.000000" x2="639.300000" y2="192.000000"  style="stroke:black; stroke-linecap:round; stroke-width:0.25;"/>
<line x1="636.100000" y1="36.000000" x2="640.100000" y2="36.000000"  style="stroke:black; stroke-linecap:round; stroke-width:0.25;"/>
<line x1="640.100000" y1="36.000000" x2="1158.800000" y2="36.000000"  style="stroke:black; stroke-linecap:round; stroke-width:0.25;"/>
<line x1="724.700000" y1="192.000000" x2="728.700000" y2="192.000000"  style="stroke:black; stroke-linecap:round; stroke-width:0.25;"/>
<line x1="728.700000" y1="192.000000" x2="728.700000" y2="192.000000"  style="stroke:black; stroke-linecap:round; stroke-width:0.25;"/>
<line x1="728.700000" y1="192.000000" x2="738.700000" y2="192.000000"  style="stroke:black; stroke-linecap:round; stroke-width:0.25;"/>
<line x1="738.700000" y1="192.000000" x2="742.700000" y2="192.000000"  style="stroke:black; stroke-linecap:round; stroke-width:0.25;"/>
<line x1="828.100000" y1="192.000000" x2="832.100000" y2="192.000000"  style="stroke:black; stroke-linecap:round; stroke-width:0.25;"/>
<line x1="832.100000" y1="192.000000" x2="842.100000" y2="192.000000"  style="stroke:black; stroke-linecap:round; stroke-width:0.25;"/>
<line x1="842.100000" y1="192.000000" x2="852.100000" y2="192.000000"  style="stroke:black; stroke-linecap:round; stroke-width:0.25;"/>
<line x1="852.100000" y1="192.000000" x2="862.100000" y2="192.000000"  style="stroke:black; stroke-linecap:round; stroke-width:0.25;"/>
<line x1="862.100000" y1="192.000000" x2="872.100000" y2="192.000000"  style="stroke:black; stroke-linecap:round; stroke-width:0.25;"/>
<line x1="872.100000" y1="192.000000" x2="882.100000" y2="192.000000"  style="stroke:black; stroke-linecap:round; stroke-width:0.25;"/>
<line x1="882.100000" y1="192.000000" x2="892.100000" y2="192.000000"  style="stroke:black; stroke-linecap:round; stroke-width:0.25;"/>
<line x1="892.100000" y1="176.000000" x2="900.100000" y2="176.000000"  style="stroke:black; stroke-linecap:round; stroke-width:0.25;"/>
<line x1="892.100000" y1="192.000000" x2="892.100000" y2="176.000000"  style="stroke:black; stroke-linecap:round; stroke-width:0.25;"/>
<line x1="892.100000" y1="192.000000" x2="892.100000" y2="192.000000"  style="stroke:black; stroke-linecap:round; stroke-width:0.25;"/>
<line x1="900.100000" y1="176.000000" x2="910.100000" y2="176.000000"  style="stroke:black; stroke-linecap:round; stroke-width:0.25;"/>
<line x1="910.100000" y1="176.000000" x2="914.100000" y2="176.000000"  style="stroke:black; stroke-linecap:round; stroke-width:0.25;"/>
<line x1="945.450000" y1="218.000000" x2="949.450000" y2="218.000000"  style="stroke:black; stroke-linecap:round; stroke-width:0.25;"/>
<line x1="949.450000" y1="218.000000" x2="966.800000" y2="218.000000"  style="stroke:black; stroke-linecap:round; stroke-width:0.25;"/>
<line x1="952.800000" y1="176.000000" x2="956.800000" y2="176.000000"  style="stroke:black; stroke-linecap:round; stroke-width:0.25;"/>
<line x1="956.800000" y1="176.000000" x2="966.800000" y2="176.000000"  style="stroke:black; stroke-linecap:round; stroke-width:0.25;"/>
<line x1="966.800000" y1="176.000000" x2="974.800000" y2="176.000000"  style="stroke:black; stroke-linecap:round; stroke-width:0.25;"/>
<line x1="966.800000" y1="196.000000" x2="974.800000" y2="196.000000"  style="stroke:black; stroke-linecap:round; stroke-width:0.25;"/>
<line x1="966.800000" y1="218.000000" x2="966.800000" y2="196.000000"  style="stroke:black; stroke-linecap:round; stroke-width:0.25;"/>
<line x1="966.800000" y1="218.000000" x2="966.800000" y2="218.000000"  style="stroke:black; stroke-linecap:round; stroke-width:0.25;"/>
<line x1="974.800000" y1="176.000000" x2="974.800000" y2="188.000000"  style="stroke:black; stroke-linecap:round; stroke-width:0.25;"/>
<line x1="974.800000" y1="188.000000" x2="974.800000" y2="188.000000"  style="stroke:black; stroke-linecap:round; stroke-width:0.25;"/>
<line x1="974.800000" y1="188.000000" x2="978.800000" y2="188.000000"  style="stroke:black; stroke-linecap:round; stroke-width:0.25;"/>
<line x1="974.800000" y1="196.000000" x2="978.800000" y2="196.000000"  style="stroke:black; stroke-linecap:round; stroke-width:0.25;"/>
<line x1="1002.800000" y1="192.000000" x2="1006.800000" y2="192.000000"  style="stroke:black; stroke-linecap:round; stroke-width:0.25;"/>
<line x1="1006.800000" y1="212.000000" x2="1014.800000" y2="212.000000"  style="stroke:black; stroke-linecap:round; stroke-width:0.25;"/>
<line x1="1006.800000" y1="284.000000" x2="1006.800000" y2="212.000000"  style="stroke:black; stroke-linecap:round; stroke-width:0.25;"/>
<line x1="1006.800000" y1="284.000000" x2="1006.800000" y2="284.000000"  style="stroke:black; stroke-linecap:round; stroke-width:0.25;"/>
<line x1="1006.800000" y1="192.000000" x2="1014.800000" y2="192.000000"  style="stroke:black; stroke-linecap:round; stroke-width:0.25;"/>
<line x1="1014.800000" y1="192.000000" x2="1014.800000" y2="204.000000"  style="stroke:black; stroke-linecap:round; stroke-width:0.25;"/>
<line x1="1014.800000" y1="204.000000" x2="1014.800000" y2="204.000000"  style="stroke:black; stroke-linecap:round; stroke-width:0.25;"/>
<line x1="1014.800000" y1="204.000000" x2="1018.800000" y2="204.000000"  style="stroke:black; stroke-linecap:round; stroke-width:0.25;"/>
<line x1="1014.800000" y1="212.000000" x2="1018.800000" y2="212.000000"  style="stroke:black; stroke-linecap:round; stroke-width:0.25;"/>
<line x1="1042.800000" y1="208.000000" x2="1046.800000" y2="208.000000"  style="stroke:black; stroke-linecap:round; stroke-width:0.25;"/>
<line x1="1046.800000" y1="208.000000" x2="1046.800000" y2="208.000000"  style="stroke:black; stroke-linecap:round; stroke-width:0.25;"/>
<line x1="1046.800000" y1="208.000000" x2="1050.800000" y2="208.000000"  style="stroke:black; stroke-linecap:round; stroke-width:0.25;"/>
<line x1="1074.800000" y1="208.000000" x2="1078.800000" y2="208.000000"  style="stroke:black; stroke-linecap:round; stroke-width:0.25;"/>
<line x1="1078.800000" y1="100.000000" x2="1086.800000" y2="100.000000"  style="stroke:black; stroke-linecap:round; stroke-width:0.25;"/>
<line x1="1078.800000" y1="196.000000" x2="1086.800000" y2="196.000000"  style="stroke:black; stroke-linecap:round; stroke-width:0.25;"/>
<line x1="1078.800000" y1="208.000000" x2="1078.800000" y2="196.000000"  style="stroke:black; stroke-linecap:round; stroke-width:0.25;"/>
<line x1="1078.800000" y1="208.000000" x2="1078.800000" y2="208.000000"  style="stroke:black; stroke-linecap:round; stroke-width:0.25;"/>
<line x1="1086.800000" y1="100.000000" x2="1086.800000" y2="188.000000"  style="stroke:black; stroke-linecap:round; stroke-width:0.25;"/>
<line x1="1086.800000" y1="188.000000" x2="1086.800000" y2="188.000000"  style="stroke:black; stroke-linecap:round; stroke-width:0.25;"/>
<line x1="1086.800000" y1="188.000000" x2="1090.800000" y2="188.000000"  style="stroke:black; stroke-linecap:round; stroke-width:0.25;"/>
<line x1="1086.800000" y1="196.000000" x2="1090.800000" y2="196.000000"  style="stroke:black; stroke-linecap:round; stroke-width:0.25;"/>
<line x1="1114.800000" y1="192.000000" x2="1118.800000" y2="192.000000"  style="stroke:black; stroke-linecap:round; stroke-width:0.25;"/>
<line x1="1118.800000" y1="68.000000" x2="1126.800000" y2="68.000000"  style="stroke:black; stroke-linecap:round; stroke-width:0.25;"/>
<line x1="1118.800000" y1="180.000000" x2="1126.800000" y2="180.000000"  style="stroke:black; stroke-linecap:round; stroke-width:0.25;"/>
<line x1="1118.800000" y1="192.000000" x2="1118.800000" y2="180.000000"  style="stroke:black; stroke-linecap:round; stroke-width:0.25;"/>
<line x1="1118.800000" y1="192.000000" x2="1118.800000" y2="192.000000"  style="stroke:black; stroke-linecap:round; stroke-width:0.25;"/>
<line x1="1126.800000" y1="68.000000" x2="1126.800000" y2="172.000000"  style="stroke:black; stroke-linecap:round; stroke-width:0.25;"/>
<line x1="1126.800000" y1="172.000000" x2="1126.800000" y2="172.000000"  style="stroke:black; stroke-linecap:round; stroke-width:0.25;"/>
<line x1="1126.800000" y1="172.000000" x2="1130.800000" y2="172.000000"  style="stroke:black; stroke-linecap:round; stroke-width:0.25;"/>
<line x1="1126.800000" y1="180.000000" x2="1130.800000" y2="180.000000"  style="stroke:black; stroke-linecap:round; stroke-width:0.25;"/>
<line x1="1154.800000" y1="176.000000" x2="1158.800000" y2="176.000000"  style="stroke:black; stroke-linecap:round; stroke-width:0.25;"/>
<line x1="1158.800000" y1="36.000000" x2="1166.800000" y2="36.000000"  style="stroke:black; stroke-linecap:round; stroke-width:0.25;"/>
<line x1="1158.800000" y1="164.000000" x2="1166.800000" y2="164.000000"  style="stroke:black; stroke-linecap:round; stroke-width:0.25;"/>
<line x1="1158.800000" y1="176.000000" x2="1158.800000" y2="164.000000"  style="stroke:black; stroke-linecap:round; stroke-width:0.25;"/>
<line x1="1158.800000" y1="176.000000" x2="1158.800000" y2="176.000000"  style="stroke:black; stroke-linecap:round; stroke-width:0.25;"/>
<line x1="1166.800000" y1="36.000000" x2="1166.800000" y2="156.000000"  style="stroke:black; stroke-linecap:round; stroke-width:0.25;"/>
<line x1="1166.800000" y1="156.000000" x2="1166.800000" y2="156.000000"  style="stroke:black; stroke-linecap:round; stroke-width:0.25;"/>
<line x1="1166.800000" y1="156.000000" x2="1170.800000" y2="156.000000"  style="stroke:black; stroke-linecap:round; stroke-width:0.25;"/>
<line x1="1166.800000" y1="164.000000" x2="1170.800000" y2="164.000000"  style="stroke:black; stroke-linecap:round; stroke-width:0.25;"/>
<line x1="1194.800000" y1="160.000000" x2="1198.800000" y2="160.000000"  style="stroke:black; stroke-linecap:round; stroke-width:0.25;"/>
<line x1="1198.800000" y1="160.000000" x2="1198.800000" y2="160.000000"  style="stroke:black; stroke-linecap:round; stroke-width:0.25;"/>
<line x1="1198.800000" y1="160.000000" x2="1202.800000" y2="160.000000"  style="stroke:black; stroke-linecap:round; stroke-width:0.25;"/>
<line x1="1202.800000" y1="160.000000" x2="1206.800000" y2="160.000000"  style="stroke:black; stroke-linecap:round; stroke-width:0.25;"/>
<line x1="1206.800000" y1="160.000000" x2="1216.800000" y2="160.000000"  style="stroke:black; stroke-linecap:round; stroke-width:0.25;"/>
</svg>
