<?xml version="1.0"?>
<svg xmlns="http://www.w3.org/2000/svg" xmlns:xlink="http://www.w3.org/1999/xlink" viewBox="0 0 1340.200000 340.000000" width="670.100000mm" height="170.000000mm" version="1.1">
<a xlink:href="dflcv-0x60000635bba0.svg">
<rect x="0.000000" y="0.000000" width="1339.200000" height="339.000000" rx="0" ry="0" style="stroke:#000000;fill:#FFFFFF;"/>
</a>
<text x="10.000000" y="7.000000" font-family="Verdana" font-size="7"></text>
<rect x="32.000000" y="158.000000" width="38.700000" height="24.000000" rx="0" ry="0" style="stroke:#000000;fill:#FFFFFF;"/>
<text x="51.350000" y="172.000000" font-family="Verdana" font-size="7" text-anchor="middle" fill="#000000">[261] x</text>
<circle cx="34.000000" cy="160.000000" r="1"/>
<line x1="29.000000" y1="169.000000" x2="32.000000" y2="170.000000"  transform="rotate(0.000000,32.000000,170.000000)" style="stroke: black; stroke-width:0.25;"/>
<line x1="29.000000" y1="171.000000" x2="32.000000" y2="170.000000"  transform="rotate(0.000000,32.000000,170.000000)" style="stroke: black; stroke-width:0.25;"/>
<rect x="654.100000" y="24.000000" width="38.700000" height="24.000000" rx="0" ry="0" style="stroke:#000000;fill:#FFFFFF;"/>
<text x="673.450000" y="38.000000" font-family="Verdana" font-size="7" text-anchor="middle" fill="#000000">[261] x</text>
<circle cx="656.100000" cy="26.000000" r="1"/>
<a xlink:href="delmax-0x6000022c8f30.svg">
<rect x="640.550000" y="56.000000" width="25.800000" height="24.000000" rx="0" ry="0" style="stroke:#000000;fill:#FFFFFF;"/>
</a>
<a xlink:href="delmax-0x6000022c8f30.svg">
<text x="653.450000" y="70.000000" font-family="Verdana" font-size="7" text-anchor="middle" fill="#000000">delmax</text>
</a>
<circle cx="642.550000" cy="58.000000" r="1"/>
<rect x="621.450000" y="88.000000" width="24.000000" height="24.000000" rx="0" ry="0" style="stroke:#000000;fill:#FFFFFF;"/>
<text x="633.450000" y="102.000000" font-family="Verdana" font-size="7" text-anchor="middle" fill="#000000">0</text>
<circle cx="623.450000" cy="90.000000" r="1"/>
<a xlink:href="rphi-0x60000221dc20.svg">
<rect x="78.700000" y="190.000000" width="129.000000" height="24.000000" rx="0" ry="0" style="stroke:#000000;fill:#FFFFFF;"/>
</a>
<a xlink:href="rphi-0x60000221dc20.svg">
<text x="143.200000" y="204.000000" font-family="Verdana" font-size="7" text-anchor="middle" fill="#000000">rphi((1.92e+0...: min),4 : *)</text>
</a>
<circle cx="80.700000" cy="192.000000" r="1"/>
<rect x="225.700000" y="190.000000" width="38.700000" height="24.000000" rx="0" ry="0" style="stroke:#000000;fill:#FFFFFF;"/>
<text x="245.050000" y="204.000000" font-family="Verdana" font-size="7" text-anchor="middle" fill="#000000">[22] PM22</text>
<circle cx="227.700000" cy="192.000000" r="1"/>
<line x1="222.700000" y1="201.000000" x2="225.700000" y2="202.000000"  transform="rotate(0.000000,225.700000,202.000000)" style="stroke: black; stroke-width:0.25;"/>
<line x1="222.700000" y1="203.000000" x2="225.700000" y2="202.000000"  transform="rotate(0.000000,225.700000,202.000000)" style="stroke: black; stroke-width:0.25;"/>
<a xlink:href="rphi-0x6000022720a0.svg">
<rect x="272.400000" y="190.000000" width="38.700000" height="24.000000" rx="0" ry="0" style="stroke:#000000;fill:#FFFFFF;"/>
</a>
<a xlink:href="rphi-0x6000022720a0.svg">
<text x="291.750000" y="204.000000" font-family="Verdana" font-size="7" text-anchor="middle" fill="#000000">rphi(x22)</text>
</a>
<circle cx="274.400000" cy="192.000000" r="1"/>
<rect x="329.100000" y="190.000000" width="38.700000" height="24.000000" rx="0" ry="0" style="stroke:#000000;fill:#FFFFFF;"/>
<text x="348.450000" y="204.000000" font-family="Verdana" font-size="7" text-anchor="middle" fill="#000000">[23] PM23</text>
<circle cx="331.100000" cy="192.000000" r="1"/>
<line x1="326.100000" y1="201.000000" x2="329.100000" y2="202.000000"  transform="rotate(0.000000,329.100000,202.000000)" style="stroke: black; stroke-width:0.25;"/>
<line x1="326.100000" y1="203.000000" x2="329.100000" y2="202.000000"  transform="rotate(0.000000,329.100000,202.000000)" style="stroke: black; stroke-width:0.25;"/>
<a xlink:href="rphi-0x600002273e70.svg">
<rect x="375.800000" y="190.000000" width="38.700000" height="24.000000" rx="0" ry="0" style="stroke:#000000;fill:#FFFFFF;"/>
</a>
<a xlink:href="rphi-0x600002273e70.svg">
<text x="395.150000" y="204.000000" font-family="Verdana" font-size="7" text-anchor="middle" fill="#000000">rphi(x23)</text>
</a>
<circle cx="377.800000" cy="192.000000" r="1"/>
<rect x="432.500000" y="190.000000" width="38.700000" height="24.000000" rx="0" ry="0" style="stroke:#000000;fill:#FFFFFF;"/>
<text x="451.850000" y="204.000000" font-family="Verdana" font-size="7" text-anchor="middle" fill="#000000">[24] PM24</text>
<circle cx="434.500000" cy="192.000000" r="1"/>
<line x1="429.500000" y1="201.000000" x2="432.500000" y2="202.000000"  transform="rotate(0.000000,432.500000,202.000000)" style="stroke: black; stroke-width:0.25;"/>
<line x1="429.500000" y1="203.000000" x2="432.500000" y2="202.000000"  transform="rotate(0.000000,432.500000,202.000000)" style="stroke: black; stroke-width:0.25;"/>
<a xlink:href="rphi-0x600002275cb0.svg">
<rect x="479.200000" y="190.000000" width="38.700000" height="24.000000" rx="0" ry="0" style="stroke:#000000;fill:#FFFFFF;"/>
</a>
<a xlink:href="rphi-0x600002275cb0.svg">
<text x="498.550000" y="204.000000" font-family="Verdana" font-size="7" text-anchor="middle" fill="#000000">rphi(x24)</text>
</a>
<circle cx="481.200000" cy="192.000000" r="1"/>
<rect x="535.900000" y="190.000000" width="38.700000" height="24.000000" rx="0" ry="0" style="stroke:#000000;fill:#FFFFFF;"/>
<text x="555.250000" y="204.000000" font-family="Verdana" font-size="7" text-anchor="middle" fill="#000000">[25] PM25</text>
<circle cx="537.900000" cy="192.000000" r="1"/>
<line x1="532.900000" y1="201.000000" x2="535.900000" y2="202.000000"  transform="rotate(0.000000,535.900000,202.000000)" style="stroke: black; stroke-width:0.25;"/>
<line x1="532.900000" y1="203.000000" x2="535.900000" y2="202.000000"  transform="rotate(0.000000,535.900000,202.000000)" style="stroke: black; stroke-width:0.25;"/>
<a xlink:href="rphi-0x600002277a80.svg">
<rect x="582.600000" y="190.000000" width="38.700000" height="24.000000" rx="0" ry="0" style="stroke:#000000;fill:#FFFFFF;"/>
</a>
<a xlink:href="rphi-0x600002277a80.svg">
<text x="601.950000" y="204.000000" font-family="Verdana" font-size="7" text-anchor="middle" fill="#000000">rphi(x25)</text>
</a>
<circle cx="584.600000" cy="192.000000" r="1"/>
<rect x="639.300000" y="190.000000" width="38.700000" height="24.000000" rx="0" ry="0" style="stroke:#000000;fill:#FFFFFF;"/>
<text x="658.650000" y="204.000000" font-family="Verdana" font-size="7" text-anchor="middle" fill="#000000">[26] PM26</text>
<circle cx="641.300000" cy="192.000000" r="1"/>
<line x1="636.300000" y1="201.000000" x2="639.300000" y2="202.000000"  transform="rotate(0.000000,639.300000,202.000000)" style="stroke: black; stroke-width:0.25;"/>
<line x1="636.300000" y1="203.000000" x2="639.300000" y2="202.000000"  transform="rotate(0.000000,639.300000,202.000000)" style="stroke: black; stroke-width:0.25;"/>
<a xlink:href="rphi-0x6000022698c0.svg">
<rect x="686.000000" y="190.000000" width="38.700000" height="24.000000" rx="0" ry="0" style="stroke:#000000;fill:#FFFFFF;"/>
</a>
<a xlink:href="rphi-0x6000022698c0.svg">
<text x="705.350000" y="204.000000" font-family="Verdana" font-size="7" text-anchor="middle" fill="#000000">rphi(x26)</text>
</a>
<circle cx="688.000000" cy="192.000000" r="1"/>
<rect x="742.700000" y="190.000000" width="38.700000" height="24.000000" rx="0" ry="0" style="stroke:#000000;fill:#FFFFFF;"/>
<text x="762.050000" y="204.000000" font-family="Verdana" font-size="7" text-anchor="middle" fill="#000000">[27] PM27</text>
<circle cx="744.700000" cy="192.000000" r="1"/>
<line x1="739.700000" y1="201.000000" x2="742.700000" y2="202.000000"  transform="rotate(0.000000,742.700000,202.000000)" style="stroke: black; stroke-width:0.25;"/>
<line x1="739.700000" y1="203.000000" x2="742.700000" y2="202.000000"  transform="rotate(0.000000,742.700000,202.000000)" style="stroke: black; stroke-width:0.25;"/>
<a xlink:href="rphi-0x60000226b690.svg">
<rect x="789.400000" y="190.000000" width="38.700000" height="24.000000" rx="0" ry="0" style="stroke:#000000;fill:#FFFFFF;"/>
</a>
<a xlink:href="rphi-0x60000226b690.svg">
<text x="808.750000" y="204.000000" font-family="Verdana" font-size="7" text-anchor="middle" fill="#000000">rphi(x27)</text>
</a>
<circle cx="791.400000" cy="192.000000" r="1"/>
<rect x="846.100000" y="190.000000" width="38.700000" height="24.000000" rx="0" ry="0" style="stroke:#000000;fill:#FFFFFF;"/>
<text x="865.450000" y="204.000000" font-family="Verdana" font-size="7" text-anchor="middle" fill="#000000">[28] PM28</text>
<circle cx="848.100000" cy="192.000000" r="1"/>
<line x1="843.100000" y1="201.000000" x2="846.100000" y2="202.000000"  transform="rotate(0.000000,846.100000,202.000000)" style="stroke: black; stroke-width:0.25;"/>
<line x1="843.100000" y1="203.000000" x2="846.100000" y2="202.000000"  transform="rotate(0.000000,846.100000,202.000000)" style="stroke: black; stroke-width:0.25;"/>
<rect x="892.800000" y="190.000000" width="38.700000" height="24.000000" rx="0" ry="0" style="stroke:#000000;fill:#FFFFFF;"/>
<text x="912.150000" y="204.000000" font-family="Verdana" font-size="7" text-anchor="middle" fill="#000000">[28] PM28</text>
<circle cx="894.800000" cy="192.000000" r="1"/>
<line x1="837.100000" y1="181.000000" x2="837.100000" y2="223.000000"  style="stroke: black; stroke-linecap:round; stroke-width:0.25; stroke-dasharray:3,3;"/>
<line x1="837.100000" y1="223.000000" x2="940.500000" y2="223.000000"  style="stroke: black; stroke-linecap:round; stroke-width:0.25; stroke-dasharray:3,3;"/>
<line x1="940.500000" y1="223.000000" x2="940.500000" y2="181.000000"  style="stroke: black; stroke-linecap:round; stroke-width:0.25; stroke-dasharray:3,3;"/>
<line x1="837.100000" y1="181.000000" x2="842.100000" y2="181.000000"  style="stroke: black; stroke-linecap:round; stroke-width:0.25; stroke-dasharray:3,3;"/>
<line x1="884.025000" y1="181.000000" x2="940.500000" y2="181.000000"  style="stroke: black; stroke-linecap:round; stroke-width:0.25; stroke-dasharray:3,3;"/>
<text x="842.100000" y="183.000000" font-family="Verdana" font-size="7">Abstraction</text>
<line x1="733.700000" y1="171.000000" x2="733.700000" y2="233.000000"  style="stroke: black; stroke-linecap:round; stroke-width:0.25; stroke-dasharray:3,3;"/>
<line x1="733.700000" y1="233.000000" x2="950.500000" y2="233.000000"  style="stroke: black; stroke-linecap:round; stroke-width:0.25; stroke-dasharray:3,3;"/>
<line x1="950.500000" y1="233.000000" x2="950.500000" y2="171.000000"  style="stroke: black; stroke-linecap:round; stroke-width:0.25; stroke-dasharray:3,3;"/>
<line x1="733.700000" y1="171.000000" x2="738.700000" y2="171.000000"  style="stroke: black; stroke-linecap:round; stroke-width:0.25; stroke-dasharray:3,3;"/>
<line x1="780.625000" y1="171.000000" x2="950.500000" y2="171.000000"  style="stroke: black; stroke-linecap:round; stroke-width:0.25; stroke-dasharray:3,3;"/>
<text x="738.700000" y="173.000000" font-family="Verdana" font-size="7">Abstraction</text>
<line x1="630.300000" y1="161.000000" x2="630.300000" y2="243.000000"  style="stroke: black; stroke-linecap:round; stroke-width:0.25; stroke-dasharray:3,3;"/>
<line x1="630.300000" y1="243.000000" x2="960.500000" y2="243.000000"  style="stroke: black; stroke-linecap:round; stroke-width:0.25; stroke-dasharray:3,3;"/>
<line x1="960.500000" y1="243.000000" x2="960.500000" y2="161.000000"  style="stroke: black; stroke-linecap:round; stroke-width:0.25; stroke-dasharray:3,3;"/>
<line x1="630.300000" y1="161.000000" x2="635.300000" y2="161.000000"  style="stroke: black; stroke-linecap:round; stroke-width:0.25; stroke-dasharray:3,3;"/>
<line x1="677.225000" y1="161.000000" x2="960.500000" y2="161.000000"  style="stroke: black; stroke-linecap:round; stroke-width:0.25; stroke-dasharray:3,3;"/>
<text x="635.300000" y="163.000000" font-family="Verdana" font-size="7">Abstraction</text>
<line x1="526.900000" y1="151.000000" x2="526.900000" y2="253.000000"  style="stroke: black; stroke-linecap:round; stroke-width:0.25; stroke-dasharray:3,3;"/>
<line x1="526.900000" y1="253.000000" x2="970.500000" y2="253.000000"  style="stroke: black; stroke-linecap:round; stroke-width:0.25; stroke-dasharray:3,3;"/>
<line x1="970.500000" y1="253.000000" x2="970.500000" y2="151.000000"  style="stroke: black; stroke-linecap:round; stroke-width:0.25; stroke-dasharray:3,3;"/>
<line x1="526.900000" y1="151.000000" x2="531.900000" y2="151.000000"  style="stroke: black; stroke-linecap:round; stroke-width:0.25; stroke-dasharray:3,3;"/>
<line x1="573.825000" y1="151.000000" x2="970.500000" y2="151.000000"  style="stroke: black; stroke-linecap:round; stroke-width:0.25; stroke-dasharray:3,3;"/>
<text x="531.900000" y="153.000000" font-family="Verdana" font-size="7">Abstraction</text>
<line x1="423.500000" y1="141.000000" x2="423.500000" y2="263.000000"  style="stroke: black; stroke-linecap:round; stroke-width:0.25; stroke-dasharray:3,3;"/>
<line x1="423.500000" y1="263.000000" x2="980.500000" y2="263.000000"  style="stroke: black; stroke-linecap:round; stroke-width:0.25; stroke-dasharray:3,3;"/>
<line x1="980.500000" y1="263.000000" x2="980.500000" y2="141.000000"  style="stroke: black; stroke-linecap:round; stroke-width:0.25; stroke-dasharray:3,3;"/>
<line x1="423.500000" y1="141.000000" x2="428.500000" y2="141.000000"  style="stroke: black; stroke-linecap:round; stroke-width:0.25; stroke-dasharray:3,3;"/>
<line x1="470.425000" y1="141.000000" x2="980.500000" y2="141.000000"  style="stroke: black; stroke-linecap:round; stroke-width:0.25; stroke-dasharray:3,3;"/>
<text x="428.500000" y="143.000000" font-family="Verdana" font-size="7">Abstraction</text>
<line x1="320.100000" y1="131.000000" x2="320.100000" y2="273.000000"  style="stroke: black; stroke-linecap:round; stroke-width:0.25; stroke-dasharray:3,3;"/>
<line x1="320.100000" y1="273.000000" x2="990.500000" y2="273.000000"  style="stroke: black; stroke-linecap:round; stroke-width:0.25; stroke-dasharray:3,3;"/>
<line x1="990.500000" y1="273.000000" x2="990.500000" y2="131.000000"  style="stroke: black; stroke-linecap:round; stroke-width:0.25; stroke-dasharray:3,3;"/>
<line x1="320.100000" y1="131.000000" x2="325.100000" y2="131.000000"  style="stroke: black; stroke-linecap:round; stroke-width:0.25; stroke-dasharray:3,3;"/>
<line x1="367.025000" y1="131.000000" x2="990.500000" y2="131.000000"  style="stroke: black; stroke-linecap:round; stroke-width:0.25; stroke-dasharray:3,3;"/>
<text x="325.100000" y="133.000000" font-family="Verdana" font-size="7">Abstraction</text>
<line x1="216.700000" y1="121.000000" x2="216.700000" y2="283.000000"  style="stroke: black; stroke-linecap:round; stroke-width:0.25; stroke-dasharray:3,3;"/>
<line x1="216.700000" y1="283.000000" x2="1000.500000" y2="283.000000"  style="stroke: black; stroke-linecap:round; stroke-width:0.25; stroke-dasharray:3,3;"/>
<line x1="1000.500000" y1="283.000000" x2="1000.500000" y2="121.000000"  style="stroke: black; stroke-linecap:round; stroke-width:0.25; stroke-dasharray:3,3;"/>
<line x1="216.700000" y1="121.000000" x2="221.700000" y2="121.000000"  style="stroke: black; stroke-linecap:round; stroke-width:0.25; stroke-dasharray:3,3;"/>
<line x1="263.625000" y1="121.000000" x2="1000.500000" y2="121.000000"  style="stroke: black; stroke-linecap:round; stroke-width:0.25; stroke-dasharray:3,3;"/>
<text x="221.700000" y="123.000000" font-family="Verdana" font-size="7">Abstraction</text>
<rect x="1027.500000" y="174.000000" width="38.700000" height="24.000000" rx="0" ry="0" style="stroke:#000000;fill:#FFFFFF;"/>
<text x="1046.850000" y="188.000000" font-family="Verdana" font-size="7" text-anchor="middle" fill="#000000">next_pr</text>
<circle cx="1029.500000" cy="176.000000" r="1"/>
<line x1="1024.500000" y1="185.000000" x2="1027.500000" y2="186.000000"  transform="rotate(0.000000,1027.500000,186.000000)" style="stroke: black; stroke-width:0.25;"/>
<line x1="1024.500000" y1="187.000000" x2="1027.500000" y2="186.000000"  transform="rotate(0.000000,1027.500000,186.000000)" style="stroke: black; stroke-width:0.25;"/>
<line x1="1018.500000" y1="165.000000" x2="1018.500000" y2="207.000000"  style="stroke: black; stroke-linecap:round; stroke-width:0.25; stroke-dasharray:3,3;"/>
<line x1="1018.500000" y1="207.000000" x2="1075.200000" y2="207.000000"  style="stroke: black; stroke-linecap:round; stroke-width:0.25; stroke-dasharray:3,3;"/>
<line x1="1075.200000" y1="207.000000" x2="1075.200000" y2="165.000000"  style="stroke: black; stroke-linecap:round; stroke-width:0.25; stroke-dasharray:3,3;"/>
<line x1="1018.500000" y1="165.000000" x2="1023.500000" y2="165.000000"  style="stroke: black; stroke-linecap:round; stroke-width:0.25; stroke-dasharray:3,3;"/>
<line x1="1036.400000" y1="165.000000" x2="1075.200000" y2="165.000000"  style="stroke: black; stroke-linecap:round; stroke-width:0.25; stroke-dasharray:3,3;"/>
<text x="1023.500000" y="167.000000" font-family="Verdana" font-size="7">np</text>
<rect x="1034.850000" y="216.000000" width="24.000000" height="24.000000" rx="0" ry="0" style="stroke:#000000;fill:#FFFFFF;"/>
<text x="1046.850000" y="230.000000" font-family="Verdana" font-size="7" text-anchor="middle" fill="#000000">1</text>
<circle cx="1036.850000" cy="218.000000" r="1"/>
<rect x="1092.200000" y="190.000000" width="24.000000" height="24.000000" rx="0" ry="0" style="stroke:#000000;fill:#FFFFFF;"/>
<text x="1104.200000" y="204.000000" font-family="Verdana" font-size="7" text-anchor="middle" fill="#000000">max</text>
<circle cx="1094.200000" cy="192.000000" r="1"/>
<line x1="1089.200000" y1="197.000000" x2="1092.200000" y2="198.000000"  transform="rotate(0.000000,1092.200000,198.000000)" style="stroke: black; stroke-width:0.25;"/>
<line x1="1089.200000" y1="199.000000" x2="1092.200000" y2="198.000000"  transform="rotate(0.000000,1092.200000,198.000000)" style="stroke: black; stroke-width:0.25;"/>
<line x1="1089.200000" y1="205.000000" x2="1092.200000" y2="206.000000"  transform="rotate(0.000000,1092.200000,206.000000)" style="stroke: black; stroke-width:0.25;"/>
<line x1="1089.200000" y1="207.000000" x2="1092.200000" y2="206.000000"  transform="rotate(0.000000,1092.200000,206.000000)" style="stroke: black; stroke-width:0.25;"/>
<rect x="585.450000" y="292.000000" width="24.000000" height="24.000000" rx="0" ry="0" style="stroke:#000000;fill:#FFFFFF;"/>
<text x="597.450000" y="306.000000" font-family="Verdana" font-size="7" text-anchor="middle" fill="#000000">1</text>
<circle cx="587.450000" cy="294.000000" r="1"/>
<rect x="1132.200000" y="206.000000" width="24.000000" height="24.000000" rx="0" ry="0" style="stroke:#000000;fill:#FFFFFF;"/>
<text x="1144.200000" y="220.000000" font-family="Verdana" font-size="7" text-anchor="middle" fill="#000000">-</text>
<circle cx="1134.200000" cy="208.000000" r="1"/>
<line x1="1129.200000" y1="213.000000" x2="1132.200000" y2="214.000000"  transform="rotate(0.000000,1132.200000,214.000000)" style="stroke: black; stroke-width:0.25;"/>
<line x1="1129.200000" y1="215.000000" x2="1132.200000" y2="214.000000"  transform="rotate(0.000000,1132.200000,214.000000)" style="stroke: black; stroke-width:0.25;"/>
<line x1="1129.200000" y1="221.000000" x2="1132.200000" y2="222.000000"  transform="rotate(0.000000,1132.200000,222.000000)" style="stroke: black; stroke-width:0.25;"/>
<line x1="1129.200000" y1="223.000000" x2="1132.200000" y2="222.000000"  transform="rotate(0.000000,1132.200000,222.000000)" style="stroke: black; stroke-width:0.25;"/>
<rect x="1164.200000" y="206.000000" width="24.000000" height="24.000000" rx="0" ry="0" style="stroke:#000000;fill:#FFFFFF;"/>
<text x="1176.200000" y="220.000000" font-family="Verdana" font-size="7" text-anchor="middle" fill="#000000">int</text>
<circle cx="1166.200000" cy="208.000000" r="1"/>
<line x1="1161.200000" y1="217.000000" x2="1164.200000" y2="218.000000"  transform="rotate(0.000000,1164.200000,218.000000)" style="stroke: black; stroke-width:0.25;"/>
<line x1="1161.200000" y1="219.000000" x2="1164.200000" y2="218.000000"  transform="rotate(0.000000,1164.200000,218.000000)" style="stroke: black; stroke-width:0.25;"/>
<rect x="1204.200000" y="190.000000" width="24.000000" height="24.000000" rx="0" ry="0" style="stroke:#000000;fill:#FFFFFF;"/>
<text x="1216.200000" y="204.000000" font-family="Verdana" font-size="7" text-anchor="middle" fill="#000000">max</text>
<circle cx="1206.200000" cy="192.000000" r="1"/>
<line x1="1201.200000" y1="197.000000" x2="1204.200000" y2="198.000000"  transform="rotate(0.000000,1204.200000,198.000000)" style="stroke: black; stroke-width:0.25;"/>
<line x1="1201.200000" y1="199.000000" x2="1204.200000" y2="198.000000"  transform="rotate(0.000000,1204.200000,198.000000)" style="stroke: black; stroke-width:0.25;"/>
<line x1="1201.200000" y1="205.000000" x2="1204.200000" y2="206.000000"  transform="rotate(0.000000,1204.200000,206.000000)" style="stroke: black; stroke-width:0.25;"/>
<line x1="1201.200000" y1="207.000000" x2="1204.200000" y2="206.000000"  transform="rotate(0.000000,1204.200000,206.000000)" style="stroke: black; stroke-width:0.25;"/>
<rect x="1244.200000" y="174.000000" width="24.000000" height="24.000000" rx="0" ry="0" style="stroke:#000000;fill:#FFFFFF;"/>
<text x="1256.200000" y="188.000000" font-family="Verdana" font-size="7" text-anchor="middle" fill="#000000">min</text>
<circle cx="1246.200000" cy="176.000000" r="1"/>
<line x1="1241.200000" y1="181.000000" x2="1244.200000" y2="182.000000"  transform="rotate(0.000000,1244.200000,182.000000)" style="stroke: black; stroke-width:0.25;"/>
<line x1="1241.200000" y1="183.000000" x2="1244.200000" y2="182.000000"  transform="rotate(0.000000,1244.200000,182.000000)" style="stroke: black; stroke-width:0.25;"/>
<line x1="1241.200000" y1="189.000000" x2="1244.200000" y2="190.000000"  transform="rotate(0.000000,1244.200000,190.000000)" style="stroke: black; stroke-width:0.25;"/>
<line x1="1241.200000" y1="191.000000" x2="1244.200000" y2="190.000000"  transform="rotate(0.000000,1244.200000,190.000000)" style="stroke: black; stroke-width:0.25;"/>
<rect x="1284.200000" y="158.000000" width="24.000000" height="24.000000" rx="0" ry="0" style="stroke:#000000;fill:#FFFFFF;"/>
<text x="1296.200000" y="172.000000" font-family="Verdana" font-size="7" text-anchor="middle" fill="#000000">@</text>
<circle cx="1286.200000" cy="160.000000" r="1"/>
<line x1="1281.200000" y1="165.000000" x2="1284.200000" y2="166.000000"  transform="rotate(0.000000,1284.200000,166.000000)" style="stroke: black; stroke-width:0.25;"/>
<line x1="1281.200000" y1="167.000000" x2="1284.200000" y2="166.000000"  transform="rotate(0.000000,1284.200000,166.000000)" style="stroke: black; stroke-width:0.25;"/>
<line x1="1281.200000" y1="173.000000" x2="1284.200000" y2="174.000000"  transform="rotate(0.000000,1284.200000,174.000000)" style="stroke: black; stroke-width:0.25;"/>
<line x1="1281.200000" y1="175.000000" x2="1284.200000" y2="174.000000"  transform="rotate(0.000000,1284.200000,174.000000)" style="stroke: black; stroke-width:0.25;"/>
<line x1="15.000000" y1="15.000000" x2="15.000000" y2="325.000000"  style="stroke: black; stroke-linecap:round; stroke-width:0.25; stroke-dasharray:3,3;"/>
<line x1="15.000000" y1="325.000000" x2="1325.200000" y2="325.000000"  style="stroke: black; stroke-linecap:round; stroke-width:0.25; stroke-dasharray:3,3;"/>
<line x1="1325.200000" y1="325.000000" x2="1325.200000" y2="15.000000"  style="stroke: black; stroke-linecap:round; stroke-width:0.25; stroke-dasharray:3,3;"/>
<line x1="15.000000" y1="15.000000" x2="20.000000" y2="15.000000"  style="stroke: black; stroke-linecap:round; stroke-width:0.25; stroke-dasharray:3,3;"/>
<line x1="119.975000" y1="15.000000" x2="1325.200000" y2="15.000000"  style="stroke: black; stroke-linecap:round; stroke-width:0.25; stroke-dasharray:3,3;"/>
<text x="20.000000" y="17.000000" font-family="Verdana" font-size="7">delay((1.92e+...,1 : - : int)</text>
<line x1="1327.200000" y1="169.000000" x2="1330.200000" y2="170.000000"  transform="rotate(0.000000,1330.200000,170.000000)" style="stroke: black; stroke-width:0.25;"/>
<line x1="1327.200000" y1="171.000000" x2="1330.200000" y2="170.000000"  transform="rotate(0.000000,1330.200000,170.000000)" style="stroke: black; stroke-width:0.25;"/>
<line x1="10.000000" y1="170.000000" x2="20.000000" y2="170.000000"  style="stroke:black; stroke-linecap:round; stroke-width:0.25;"/>
<line x1="20.000000" y1="170.000000" x2="24.000000" y2="170.000000"  style="stroke:black; stroke-linecap:round; stroke-width:0.25;"/>
<line x1="24.000000" y1="170.000000" x2="28.000000" y2="170.000000"  style="stroke:black; stroke-linecap:round; stroke-width:0.25;"/>
<line x1="28.000000" y1="170.000000" x2="28.000000" y2="170.000000"  style="stroke:black; stroke-linecap:round; stroke-width:0.25;"/>
<line x1="28.000000" y1="170.000000" x2="32.000000" y2="170.000000"  style="stroke:black; stroke-linecap:round; stroke-width:0.25;"/>
<line x1="207.700000" y1="202.000000" x2="211.700000" y2="202.000000"  style="stroke:black; stroke-linecap:round; stroke-width:0.25;"/>
<line x1="211.700000" y1="202.000000" x2="211.700000" y2="202.000000"  style="stroke:black; stroke-linecap:round; stroke-width:0.25;"/>
<line x1="211.700000" y1="202.000000" x2="221.700000" y2="202.000000"  style="stroke:black; stroke-linecap:round; stroke-width:0.25;"/>
<line x1="221.700000" y1="202.000000" x2="225.700000" y2="202.000000"  style="stroke:black; stroke-linecap:round; stroke-width:0.25;"/>
<line x1="311.100000" y1="202.000000" x2="315.100000" y2="202.000000"  style="stroke:black; stroke-linecap:round; stroke-width:0.25;"/>
<line x1="315.100000" y1="202.000000" x2="315.100000" y2="202.000000"  style="stroke:black; stroke-linecap:round; stroke-width:0.25;"/>
<line x1="315.100000" y1="202.000000" x2="325.100000" y2="202.000000"  style="stroke:black; stroke-linecap:round; stroke-width:0.25;"/>
<line x1="325.100000" y1="202.000000" x2="329.100000" y2="202.000000"  style="stroke:black; stroke-linecap:round; stroke-width:0.25;"/>
<line x1="414.500000" y1="202.000000" x2="418.500000" y2="202.000000"  style="stroke:black; stroke-linecap:round; stroke-width:0.25;"/>
<line x1="418.500000" y1="202.000000" x2="418.500000" y2="202.000000"  style="stroke:black; stroke-linecap:round; stroke-width:0.25;"/>
<line x1="418.500000" y1="202.000000" x2="428.500000" y2="202.000000"  style="stroke:black; stroke-linecap:round; stroke-width:0.25;"/>
<line x1="428.500000" y1="202.000000" x2="432.500000" y2="202.000000"  style="stroke:black; stroke-linecap:round; stroke-width:0.25;"/>
<line x1="517.900000" y1="202.000000" x2="521.900000" y2="202.000000"  style="stroke:black; stroke-linecap:round; stroke-width:0.25;"/>
<line x1="521.900000" y1="202.000000" x2="521.900000" y2="202.000000"  style="stroke:black; stroke-linecap:round; stroke-width:0.25;"/>
<line x1="521.900000" y1="202.000000" x2="531.900000" y2="202.000000"  style="stroke:black; stroke-linecap:round; stroke-width:0.25;"/>
<line x1="531.900000" y1="202.000000" x2="535.900000" y2="202.000000"  style="stroke:black; stroke-linecap:round; stroke-width:0.25;"/>
<line x1="609.450000" y1="304.000000" x2="613.450000" y2="304.000000"  style="stroke:black; stroke-linecap:round; stroke-width:0.25;"/>
<line x1="613.450000" y1="304.000000" x2="1120.200000" y2="304.000000"  style="stroke:black; stroke-linecap:round; stroke-width:0.25;"/>
<line x1="621.300000" y1="202.000000" x2="625.300000" y2="202.000000"  style="stroke:black; stroke-linecap:round; stroke-width:0.25;"/>
<line x1="625.300000" y1="202.000000" x2="625.300000" y2="202.000000"  style="stroke:black; stroke-linecap:round; stroke-width:0.25;"/>
<line x1="625.300000" y1="202.000000" x2="635.300000" y2="202.000000"  style="stroke:black; stroke-linecap:round; stroke-width:0.25;"/>
<line x1="635.300000" y1="202.000000" x2="639.300000" y2="202.000000"  style="stroke:black; stroke-linecap:round; stroke-width:0.25;"/>
<line x1="645.450000" y1="100.000000" x2="649.450000" y2="100.000000"  style="stroke:black; stroke-linecap:round; stroke-width:0.25;"/>
<line x1="649.450000" y1="100.000000" x2="1192.200000" y2="100.000000"  style="stroke:black; stroke-linecap:round; stroke-width:0.25;"/>
<line x1="666.350000" y1="68.000000" x2="670.350000" y2="68.000000"  style="stroke:black; stroke-linecap:round; stroke-width:0.25;"/>
<line x1="670.350000" y1="68.000000" x2="1232.200000" y2="68.000000"  style="stroke:black; stroke-linecap:round; stroke-width:0.25;"/>
<line x1="692.800000" y1="36.000000" x2="696.800000" y2="36.000000"  style="stroke:black; stroke-linecap:round; stroke-width:0.25;"/>
<line x1="696.800000" y1="36.000000" x2="1272.200000" y2="36.000000"  style="stroke:black; stroke-linecap:round; stroke-width:0.25;"/>
<line x1="724.700000" y1="202.000000" x2="728.700000" y2="202.000000"  style="stroke:black; stroke-linecap:round; stroke-width:0.25;"/>
<line x1="728.700000" y1="202.000000" x2="728.700000" y2="202.000000"  style="stroke:black; stroke-linecap:round; stroke-width:0.25;"/>
<line x1="728.700000" y1="202.000000" x2="738.700000" y2="202.000000"  style="stroke:black; stroke-linecap:round; stroke-width:0.25;"/>
<line x1="738.700000" y1="202.000000" x2="742.700000" y2="202.000000"  style="stroke:black; stroke-linecap:round; stroke-width:0.25;"/>
<line x1="828.100000" y1="202.000000" x2="832.100000" y2="202.000000"  style="stroke:black; stroke-linecap:round; stroke-width:0.25;"/>
<line x1="832.100000" y1="202.000000" x2="832.100000" y2="202.000000"  style="stroke:black; stroke-linecap:round; stroke-width:0.25;"/>
<line x1="832.100000" y1="202.000000" x2="842.100000" y2="202.000000"  style="stroke:black; stroke-linecap:round; stroke-width:0.25;"/>
<line x1="842.100000" y1="202.000000" x2="846.100000" y2="202.000000"  style="stroke:black; stroke-linecap:round; stroke-width:0.25;"/>
<line x1="931.500000" y1="202.000000" x2="935.500000" y2="202.000000"  style="stroke:black; stroke-linecap:round; stroke-width:0.25;"/>
<line x1="935.500000" y1="202.000000" x2="945.500000" y2="202.000000"  style="stroke:black; stroke-linecap:round; stroke-width:0.25;"/>
<line x1="945.500000" y1="202.000000" x2="955.500000" y2="202.000000"  style="stroke:black; stroke-linecap:round; stroke-width:0.25;"/>
<line x1="955.500000" y1="202.000000" x2="965.500000" y2="202.000000"  style="stroke:black; stroke-linecap:round; stroke-width:0.25;"/>
<line x1="965.500000" y1="202.000000" x2="975.500000" y2="202.000000"  style="stroke:black; stroke-linecap:round; stroke-width:0.25;"/>
<line x1="975.500000" y1="202.000000" x2="985.500000" y2="202.000000"  style="stroke:black; stroke-linecap:round; stroke-width:0.25;"/>
<line x1="985.500000" y1="202.000000" x2="995.500000" y2="202.000000"  style="stroke:black; stroke-linecap:round; stroke-width:0.25;"/>
<line x1="995.500000" y1="202.000000" x2="1005.500000" y2="202.000000"  style="stroke:black; stroke-linecap:round; stroke-width:0.25;"/>
<line x1="1005.500000" y1="186.000000" x2="1013.500000" y2="186.000000"  style="stroke:black; stroke-linecap:round; stroke-width:0.25;"/>
<line x1="1005.500000" y1="202.000000" x2="1005.500000" y2="186.000000"  style="stroke:black; stroke-linecap:round; stroke-width:0.25;"/>
<line x1="1005.500000" y1="202.000000" x2="1005.500000" y2="202.000000"  style="stroke:black; stroke-linecap:round; stroke-width:0.25;"/>
<line x1="1013.500000" y1="186.000000" x2="1023.500000" y2="186.000000"  style="stroke:black; stroke-linecap:round; stroke-width:0.25;"/>
<line x1="1023.500000" y1="186.000000" x2="1027.500000" y2="186.000000"  style="stroke:black; stroke-linecap:round; stroke-width:0.25;"/>
<line x1="1058.850000" y1="228.000000" x2="1062.850000" y2="228.000000"  style="stroke:black; stroke-linecap:round; stroke-width:0.25;"/>
<line x1="1062.850000" y1="228.000000" x2="1080.200000" y2="228.000000"  style="stroke:black; stroke-linecap:round; stroke-width:0.25;"/>
<line x1="1066.200000" y1="186.000000" x2="1070.200000" y2="186.000000"  style="stroke:black; stroke-linecap:round; stroke-width:0.25;"/>
<line x1="1070.200000" y1="186.000000" x2="1080.200000" y2="186.000000"  style="stroke:black; stroke-linecap:round; stroke-width:0.25;"/>
<line x1="1080.200000" y1="206.000000" x2="1088.200000" y2="206.000000"  style="stroke:black; stroke-linecap:round; stroke-width:0.25;"/>
<line x1="1080.200000" y1="228.000000" x2="1080.200000" y2="206.000000"  style="stroke:black; stroke-linecap:round; stroke-width:0.25;"/>
<line x1="1080.200000" y1="228.000000" x2="1080.200000" y2="228.000000"  style="stroke:black; stroke-linecap:round; stroke-width:0.25;"/>
<line x1="1080.200000" y1="186.000000" x2="1088.200000" y2="186.000000"  style="stroke:black; stroke-linecap:round; stroke-width:0.25;"/>
<line x1="1088.200000" y1="186.000000" x2="1088.200000" y2="198.000000"  style="stroke:black; stroke-linecap:round; stroke-width:0.25;"/>
<line x1="1088.200000" y1="198.000000" x2="1088.200000" y2="198.000000"  style="stroke:black; stroke-linecap:round; stroke-width:0.25;"/>
<line x1="1088.200000" y1="198.000000" x2="1092.200000" y2="198.000000"  style="stroke:black; stroke-linecap:round; stroke-width:0.25;"/>
<line x1="1088.200000" y1="206.000000" x2="1092.200000" y2="206.000000"  style="stroke:black; stroke-linecap:round; stroke-width:0.25;"/>
<line x1="1116.200000" y1="202.000000" x2="1120.200000" y2="202.000000"  style="stroke:black; stroke-linecap:round; stroke-width:0.25;"/>
<line x1="1120.200000" y1="202.000000" x2="1128.200000" y2="202.000000"  style="stroke:black; stroke-linecap:round; stroke-width:0.25;"/>
<line x1="1120.200000" y1="222.000000" x2="1128.200000" y2="222.000000"  style="stroke:black; stroke-linecap:round; stroke-width:0.25;"/>
<line x1="1120.200000" y1="304.000000" x2="1120.200000" y2="222.000000"  style="stroke:black; stroke-linecap:round; stroke-width:0.25;"/>
<line x1="1120.200000" y1="304.000000" x2="1120.200000" y2="304.000000"  style="stroke:black; stroke-linecap:round; stroke-width:0.25;"/>
<line x1="1128.200000" y1="202.000000" x2="1128.200000" y2="214.000000"  style="stroke:black; stroke-linecap:round; stroke-width:0.25;"/>
<line x1="1128.200000" y1="214.000000" x2="1128.200000" y2="214.000000"  style="stroke:black; stroke-linecap:round; stroke-width:0.25;"/>
<line x1="1128.200000" y1="214.000000" x2="1132.200000" y2="214.000000"  style="stroke:black; stroke-linecap:round; stroke-width:0.25;"/>
<line x1="1128.200000" y1="222.000000" x2="1132.200000" y2="222.000000"  style="stroke:black; stroke-linecap:round; stroke-width:0.25;"/>
<line x1="1156.200000" y1="218.000000" x2="1160.200000" y2="218.000000"  style="stroke:black; stroke-linecap:round; stroke-width:0.25;"/>
<line x1="1160.200000" y1="218.000000" x2="1160.200000" y2="218.000000"  style="stroke:black; stroke-linecap:round; stroke-width:0.25;"/>
<line x1="1160.200000" y1="218.000000" x2="1164.200000" y2="218.000000"  style="stroke:black; stroke-linecap:round; stroke-width:0.25;"/>
<line x1="1188.200000" y1="218.000000" x2="1192.200000" y2="218.000000"  style="stroke:black; stroke-linecap:round; stroke-width:0.25;"/>
<line x1="1192.200000" y1="100.000000" x2="1200.200000" y2="100.000000"  style="stroke:black; stroke-linecap:round; stroke-width:0.25;"/>
<line x1="1192.200000" y1="206.000000" x2="1200.200000" y2="206.000000"  style="stroke:black; stroke-linecap:round; stroke-width:0.25;"/>
<line x1="1192.200000" y1="218.000000" x2="1192.200000" y2="206.000000"  style="stroke:black; stroke-linecap:round; stroke-width:0.25;"/>
<line x1="1192.200000" y1="218.000000" x2="1192.200000" y2="218.000000"  style="stroke:black; stroke-linecap:round; stroke-width:0.25;"/>
<line x1="1200.200000" y1="100.000000" x2="1200.200000" y2="198.000000"  style="stroke:black; stroke-linecap:round; stroke-width:0.25;"/>
<line x1="1200.200000" y1="198.000000" x2="1200.200000" y2="198.000000"  style="stroke:black; stroke-linecap:round; stroke-width:0.25;"/>
<line x1="1200.200000" y1="198.000000" x2="1204.200000" y2="198.000000"  style="stroke:black; stroke-linecap:round; stroke-width:0.25;"/>
<line x1="1200.200000" y1="206.000000" x2="1204.200000" y2="206.000000"  style="stroke:black; stroke-linecap:round; stroke-width:0.25;"/>
<line x1="1228.200000" y1="202.000000" x2="1232.200000" y2="202.000000"  style="stroke:black; stroke-linecap:round; stroke-width:0.25;"/>
<line x1="1232.200000" y1="68.000000" x2="1240.200000" y2="68.000000"  style="stroke:black; stroke-linecap:round; stroke-width:0.25;"/>
<line x1="1232.200000" y1="190.000000" x2="1240.200000" y2="190.000000"  style="stroke:black; stroke-linecap:round; stroke-width:0.25;"/>
<line x1="1232.200000" y1="202.000000" x2="1232.200000" y2="190.000000"  style="stroke:black; stroke-linecap:round; stroke-width:0.25;"/>
<line x1="1232.200000" y1="202.000000" x2="1232.200000" y2="202.000000"  style="stroke:black; stroke-linecap:round; stroke-width:0.25;"/>
<line x1="1240.200000" y1="68.000000" x2="1240.200000" y2="182.000000"  style="stroke:black; stroke-linecap:round; stroke-width:0.25;"/>
<line x1="1240.200000" y1="182.000000" x2="1240.200000" y2="182.000000"  style="stroke:black; stroke-linecap:round; stroke-width:0.25;"/>
<line x1="1240.200000" y1="182.000000" x2="1244.200000" y2="182.000000"  style="stroke:black; stroke-linecap:round; stroke-width:0.25;"/>
<line x1="1240.200000" y1="190.000000" x2="1244.200000" y2="190.000000"  style="stroke:black; stroke-linecap:round; stroke-width:0.25;"/>
<line x1="1268.200000" y1="186.000000" x2="1272.200000" y2="186.000000"  style="stroke:black; stroke-linecap:round; stroke-width:0.25;"/>
<line x1="1272.200000" y1="36.000000" x2="1280.200000" y2="36.000000"  style="stroke:black; stroke-linecap:round; stroke-width:0.25;"/>
<line x1="1272.200000" y1="174.000000" x2="1280.200000" y2="174.000000"  style="stroke:black; stroke-linecap:round; stroke-width:0.25;"/>
<line x1="1272.200000" y1="186.000000" x2="1272.200000" y2="174.000000"  style="stroke:black; stroke-linecap:round; stroke-width:0.25;"/>
<line x1="1272.200000" y1="186.000000" x2="1272.200000" y2="186.000000"  style="stroke:black; stroke-linecap:round; stroke-width:0.25;"/>
<line x1="1280.200000" y1="36.000000" x2="1280.200000" y2="166.000000"  style="stroke:black; stroke-linecap:round; stroke-width:0.25;"/>
<line x1="1280.200000" y1="166.000000" x2="1280.200000" y2="166.000000"  style="stroke:black; stroke-linecap:round; stroke-width:0.25;"/>
<line x1="1280.200000" y1="166.000000" x2="1284.200000" y2="166.000000"  style="stroke:black; stroke-linecap:round; stroke-width:0.25;"/>
<line x1="1280.200000" y1="174.000000" x2="1284.200000" y2="174.000000"  style="stroke:black; stroke-linecap:round; stroke-width:0.25;"/>
<line x1="1308.200000" y1="170.000000" x2="1312.200000" y2="170.000000"  style="stroke:black; stroke-linecap:round; stroke-width:0.25;"/>
<line x1="1312.200000" y1="170.000000" x2="1312.200000" y2="170.000000"  style="stroke:black; stroke-linecap:round; stroke-width:0.25;"/>
<line x1="1312.200000" y1="170.000000" x2="1316.200000" y2="170.000000"  style="stroke:black; stroke-linecap:round; stroke-width:0.25;"/>
<line x1="1316.200000" y1="170.000000" x2="1320.200000" y2="170.000000"  style="stroke:black; stroke-linecap:round; stroke-width:0.25;"/>
<line x1="1320.200000" y1="170.000000" x2="1330.200000" y2="170.000000"  style="stroke:black; stroke-linecap:round; stroke-width:0.25;"/>
</svg>
