<?xml version="1.0"?>
<svg xmlns="http://www.w3.org/2000/svg" xmlns:xlink="http://www.w3.org/1999/xlink" viewBox="0 0 1680.400000 400.000000" width="840.200000mm" height="200.000000mm" version="1.1">
<a xlink:href="dflcv-0x600006352520.svg">
<rect x="0.000000" y="0.000000" width="1679.400000" height="399.000000" rx="0" ry="0" style="stroke:#000000;fill:#FFFFFF;"/>
</a>
<text x="10.000000" y="7.000000" font-family="Verdana" font-size="7"></text>
<rect x="32.000000" y="188.000000" width="38.700000" height="24.000000" rx="0" ry="0" style="stroke:#000000;fill:#FFFFFF;"/>
<text x="51.350000" y="202.000000" font-family="Verdana" font-size="7" text-anchor="middle" fill="#000000">[264] x</text>
<circle cx="34.000000" cy="190.000000" r="1"/>
<line x1="29.000000" y1="199.000000" x2="32.000000" y2="200.000000"  transform="rotate(0.000000,32.000000,200.000000)" style="stroke: black; stroke-width:0.25;"/>
<line x1="29.000000" y1="201.000000" x2="32.000000" y2="200.000000"  transform="rotate(0.000000,32.000000,200.000000)" style="stroke: black; stroke-width:0.25;"/>
<rect x="824.200000" y="24.000000" width="38.700000" height="24.000000" rx="0" ry="0" style="stroke:#000000;fill:#FFFFFF;"/>
<text x="843.550000" y="38.000000" font-family="Verdana" font-size="7" text-anchor="middle" fill="#000000">[264] x</text>
<circle cx="826.200000" cy="26.000000" r="1"/>
<a xlink:href="delmax-0x6000022c8f30.svg">
<rect x="810.650000" y="56.000000" width="25.800000" height="24.000000" rx="0" ry="0" style="stroke:#000000;fill:#FFFFFF;"/>
</a>
<a xlink:href="delmax-0x6000022c8f30.svg">
<text x="823.550000" y="70.000000" font-family="Verdana" font-size="7" text-anchor="middle" fill="#000000">delmax</text>
</a>
<circle cx="812.650000" cy="58.000000" r="1"/>
<rect x="791.550000" y="88.000000" width="24.000000" height="24.000000" rx="0" ry="0" style="stroke:#000000;fill:#FFFFFF;"/>
<text x="803.550000" y="102.000000" font-family="Verdana" font-size="7" text-anchor="middle" fill="#000000">0</text>
<circle cx="793.550000" cy="90.000000" r="1"/>
<a xlink:href="rphi-0x60000221dc20.svg">
<rect x="78.700000" y="220.000000" width="129.000000" height="24.000000" rx="0" ry="0" style="stroke:#000000;fill:#FFFFFF;"/>
</a>
<a xlink:href="rphi-0x60000221dc20.svg">
<text x="143.200000" y="234.000000" font-family="Verdana" font-size="7" text-anchor="middle" fill="#000000">rphi((1.92e+0...: min),4 : *)</text>
</a>
<circle cx="80.700000" cy="222.000000" r="1"/>
<rect x="225.700000" y="220.000000" width="38.700000" height="24.000000" rx="0" ry="0" style="stroke:#000000;fill:#FFFFFF;"/>
<text x="245.050000" y="234.000000" font-family="Verdana" font-size="7" text-anchor="middle" fill="#000000">[46] PM46</text>
<circle cx="227.700000" cy="222.000000" r="1"/>
<line x1="222.700000" y1="231.000000" x2="225.700000" y2="232.000000"  transform="rotate(0.000000,225.700000,232.000000)" style="stroke: black; stroke-width:0.25;"/>
<line x1="222.700000" y1="233.000000" x2="225.700000" y2="232.000000"  transform="rotate(0.000000,225.700000,232.000000)" style="stroke: black; stroke-width:0.25;"/>
<a xlink:href="rphi-0x6000022490e0.svg">
<rect x="272.400000" y="220.000000" width="38.700000" height="24.000000" rx="0" ry="0" style="stroke:#000000;fill:#FFFFFF;"/>
</a>
<a xlink:href="rphi-0x6000022490e0.svg">
<text x="291.750000" y="234.000000" font-family="Verdana" font-size="7" text-anchor="middle" fill="#000000">rphi(x46)</text>
</a>
<circle cx="274.400000" cy="222.000000" r="1"/>
<rect x="329.100000" y="220.000000" width="38.700000" height="24.000000" rx="0" ry="0" style="stroke:#000000;fill:#FFFFFF;"/>
<text x="348.450000" y="234.000000" font-family="Verdana" font-size="7" text-anchor="middle" fill="#000000">[47] PM47</text>
<circle cx="331.100000" cy="222.000000" r="1"/>
<line x1="326.100000" y1="231.000000" x2="329.100000" y2="232.000000"  transform="rotate(0.000000,329.100000,232.000000)" style="stroke: black; stroke-width:0.25;"/>
<line x1="326.100000" y1="233.000000" x2="329.100000" y2="232.000000"  transform="rotate(0.000000,329.100000,232.000000)" style="stroke: black; stroke-width:0.25;"/>
<a xlink:href="rphi-0x60000224af40.svg">
<rect x="375.800000" y="220.000000" width="38.700000" height="24.000000" rx="0" ry="0" style="stroke:#000000;fill:#FFFFFF;"/>
</a>
<a xlink:href="rphi-0x60000224af40.svg">
<text x="395.150000" y="234.000000" font-family="Verdana" font-size="7" text-anchor="middle" fill="#000000">rphi(x47)</text>
</a>
<circle cx="377.800000" cy="222.000000" r="1"/>
<rect x="432.500000" y="220.000000" width="38.700000" height="24.000000" rx="0" ry="0" style="stroke:#000000;fill:#FFFFFF;"/>
<text x="451.850000" y="234.000000" font-family="Verdana" font-size="7" text-anchor="middle" fill="#000000">[48] PM48</text>
<circle cx="434.500000" cy="222.000000" r="1"/>
<line x1="429.500000" y1="231.000000" x2="432.500000" y2="232.000000"  transform="rotate(0.000000,432.500000,232.000000)" style="stroke: black; stroke-width:0.25;"/>
<line x1="429.500000" y1="233.000000" x2="432.500000" y2="232.000000"  transform="rotate(0.000000,432.500000,232.000000)" style="stroke: black; stroke-width:0.25;"/>
<a xlink:href="rphi-0x600002282eb0.svg">
<rect x="479.200000" y="220.000000" width="38.700000" height="24.000000" rx="0" ry="0" style="stroke:#000000;fill:#FFFFFF;"/>
</a>
<a xlink:href="rphi-0x600002282eb0.svg">
<text x="498.550000" y="234.000000" font-family="Verdana" font-size="7" text-anchor="middle" fill="#000000">rphi(x48)</text>
</a>
<circle cx="481.200000" cy="222.000000" r="1"/>
<rect x="535.900000" y="220.000000" width="38.700000" height="24.000000" rx="0" ry="0" style="stroke:#000000;fill:#FFFFFF;"/>
<text x="555.250000" y="234.000000" font-family="Verdana" font-size="7" text-anchor="middle" fill="#000000">[49] PM49</text>
<circle cx="537.900000" cy="222.000000" r="1"/>
<line x1="532.900000" y1="231.000000" x2="535.900000" y2="232.000000"  transform="rotate(0.000000,535.900000,232.000000)" style="stroke: black; stroke-width:0.25;"/>
<line x1="532.900000" y1="233.000000" x2="535.900000" y2="232.000000"  transform="rotate(0.000000,535.900000,232.000000)" style="stroke: black; stroke-width:0.25;"/>
<a xlink:href="rphi-0x600002240cf0.svg">
<rect x="582.600000" y="220.000000" width="38.700000" height="24.000000" rx="0" ry="0" style="stroke:#000000;fill:#FFFFFF;"/>
</a>
<a xlink:href="rphi-0x600002240cf0.svg">
<text x="601.950000" y="234.000000" font-family="Verdana" font-size="7" text-anchor="middle" fill="#000000">rphi(x49)</text>
</a>
<circle cx="584.600000" cy="222.000000" r="1"/>
<rect x="639.300000" y="220.000000" width="38.700000" height="24.000000" rx="0" ry="0" style="stroke:#000000;fill:#FFFFFF;"/>
<text x="658.650000" y="234.000000" font-family="Verdana" font-size="7" text-anchor="middle" fill="#000000">[50] PM50</text>
<circle cx="641.300000" cy="222.000000" r="1"/>
<line x1="636.300000" y1="231.000000" x2="639.300000" y2="232.000000"  transform="rotate(0.000000,639.300000,232.000000)" style="stroke: black; stroke-width:0.25;"/>
<line x1="636.300000" y1="233.000000" x2="639.300000" y2="232.000000"  transform="rotate(0.000000,639.300000,232.000000)" style="stroke: black; stroke-width:0.25;"/>
<a xlink:href="rphi-0x600002244360.svg">
<rect x="686.000000" y="220.000000" width="38.700000" height="24.000000" rx="0" ry="0" style="stroke:#000000;fill:#FFFFFF;"/>
</a>
<a xlink:href="rphi-0x600002244360.svg">
<text x="705.350000" y="234.000000" font-family="Verdana" font-size="7" text-anchor="middle" fill="#000000">rphi(x50)</text>
</a>
<circle cx="688.000000" cy="222.000000" r="1"/>
<rect x="742.700000" y="220.000000" width="38.700000" height="24.000000" rx="0" ry="0" style="stroke:#000000;fill:#FFFFFF;"/>
<text x="762.050000" y="234.000000" font-family="Verdana" font-size="7" text-anchor="middle" fill="#000000">[51] PM51</text>
<circle cx="744.700000" cy="222.000000" r="1"/>
<line x1="739.700000" y1="231.000000" x2="742.700000" y2="232.000000"  transform="rotate(0.000000,742.700000,232.000000)" style="stroke: black; stroke-width:0.25;"/>
<line x1="739.700000" y1="233.000000" x2="742.700000" y2="232.000000"  transform="rotate(0.000000,742.700000,232.000000)" style="stroke: black; stroke-width:0.25;"/>
<a xlink:href="rphi-0x600002246130.svg">
<rect x="789.400000" y="220.000000" width="38.700000" height="24.000000" rx="0" ry="0" style="stroke:#000000;fill:#FFFFFF;"/>
</a>
<a xlink:href="rphi-0x600002246130.svg">
<text x="808.750000" y="234.000000" font-family="Verdana" font-size="7" text-anchor="middle" fill="#000000">rphi(x51)</text>
</a>
<circle cx="791.400000" cy="222.000000" r="1"/>
<rect x="846.100000" y="220.000000" width="38.700000" height="24.000000" rx="0" ry="0" style="stroke:#000000;fill:#FFFFFF;"/>
<text x="865.450000" y="234.000000" font-family="Verdana" font-size="7" text-anchor="middle" fill="#000000">[52] PM52</text>
<circle cx="848.100000" cy="222.000000" r="1"/>
<line x1="843.100000" y1="231.000000" x2="846.100000" y2="232.000000"  transform="rotate(0.000000,846.100000,232.000000)" style="stroke: black; stroke-width:0.25;"/>
<line x1="843.100000" y1="233.000000" x2="846.100000" y2="232.000000"  transform="rotate(0.000000,846.100000,232.000000)" style="stroke: black; stroke-width:0.25;"/>
<a xlink:href="rphi-0x600002247f00.svg">
<rect x="892.800000" y="220.000000" width="38.700000" height="24.000000" rx="0" ry="0" style="stroke:#000000;fill:#FFFFFF;"/>
</a>
<a xlink:href="rphi-0x600002247f00.svg">
<text x="912.150000" y="234.000000" font-family="Verdana" font-size="7" text-anchor="middle" fill="#000000">rphi(x52)</text>
</a>
<circle cx="894.800000" cy="222.000000" r="1"/>
<rect x="949.500000" y="220.000000" width="38.700000" height="24.000000" rx="0" ry="0" style="stroke:#000000;fill:#FFFFFF;"/>
<text x="968.850000" y="234.000000" font-family="Verdana" font-size="7" text-anchor="middle" fill="#000000">[53] PM53</text>
<circle cx="951.500000" cy="222.000000" r="1"/>
<line x1="946.500000" y1="231.000000" x2="949.500000" y2="232.000000"  transform="rotate(0.000000,949.500000,232.000000)" style="stroke: black; stroke-width:0.25;"/>
<line x1="946.500000" y1="233.000000" x2="949.500000" y2="232.000000"  transform="rotate(0.000000,949.500000,232.000000)" style="stroke: black; stroke-width:0.25;"/>
<a xlink:href="rphi-0x6000022aaac0.svg">
<rect x="996.200000" y="220.000000" width="38.700000" height="24.000000" rx="0" ry="0" style="stroke:#000000;fill:#FFFFFF;"/>
</a>
<a xlink:href="rphi-0x6000022aaac0.svg">
<text x="1015.550000" y="234.000000" font-family="Verdana" font-size="7" text-anchor="middle" fill="#000000">rphi(x53)</text>
</a>
<circle cx="998.200000" cy="222.000000" r="1"/>
<rect x="1052.900000" y="220.000000" width="38.700000" height="24.000000" rx="0" ry="0" style="stroke:#000000;fill:#FFFFFF;"/>
<text x="1072.250000" y="234.000000" font-family="Verdana" font-size="7" text-anchor="middle" fill="#000000">[54] PM54</text>
<circle cx="1054.900000" cy="222.000000" r="1"/>
<line x1="1049.900000" y1="231.000000" x2="1052.900000" y2="232.000000"  transform="rotate(0.000000,1052.900000,232.000000)" style="stroke: black; stroke-width:0.25;"/>
<line x1="1049.900000" y1="233.000000" x2="1052.900000" y2="232.000000"  transform="rotate(0.000000,1052.900000,232.000000)" style="stroke: black; stroke-width:0.25;"/>
<a xlink:href="rphi-0x6000023b0990.svg">
<rect x="1099.600000" y="220.000000" width="38.700000" height="24.000000" rx="0" ry="0" style="stroke:#000000;fill:#FFFFFF;"/>
</a>
<a xlink:href="rphi-0x6000023b0990.svg">
<text x="1118.950000" y="234.000000" font-family="Verdana" font-size="7" text-anchor="middle" fill="#000000">rphi(x54)</text>
</a>
<circle cx="1101.600000" cy="222.000000" r="1"/>
<rect x="1156.300000" y="220.000000" width="38.700000" height="24.000000" rx="0" ry="0" style="stroke:#000000;fill:#FFFFFF;"/>
<text x="1175.650000" y="234.000000" font-family="Verdana" font-size="7" text-anchor="middle" fill="#000000">[55] PM55</text>
<circle cx="1158.300000" cy="222.000000" r="1"/>
<line x1="1153.300000" y1="231.000000" x2="1156.300000" y2="232.000000"  transform="rotate(0.000000,1156.300000,232.000000)" style="stroke: black; stroke-width:0.25;"/>
<line x1="1153.300000" y1="233.000000" x2="1156.300000" y2="232.000000"  transform="rotate(0.000000,1156.300000,232.000000)" style="stroke: black; stroke-width:0.25;"/>
<rect x="1203.000000" y="220.000000" width="38.700000" height="24.000000" rx="0" ry="0" style="stroke:#000000;fill:#FFFFFF;"/>
<text x="1222.350000" y="234.000000" font-family="Verdana" font-size="7" text-anchor="middle" fill="#000000">[55] PM55</text>
<circle cx="1205.000000" cy="222.000000" r="1"/>
<line x1="1147.300000" y1="211.000000" x2="1147.300000" y2="253.000000"  style="stroke: black; stroke-linecap:round; stroke-width:0.25; stroke-dasharray:3,3;"/>
<line x1="1147.300000" y1="253.000000" x2="1250.700000" y2="253.000000"  style="stroke: black; stroke-linecap:round; stroke-width:0.25; stroke-dasharray:3,3;"/>
<line x1="1250.700000" y1="253.000000" x2="1250.700000" y2="211.000000"  style="stroke: black; stroke-linecap:round; stroke-width:0.25; stroke-dasharray:3,3;"/>
<line x1="1147.300000" y1="211.000000" x2="1152.300000" y2="211.000000"  style="stroke: black; stroke-linecap:round; stroke-width:0.25; stroke-dasharray:3,3;"/>
<line x1="1194.225000" y1="211.000000" x2="1250.700000" y2="211.000000"  style="stroke: black; stroke-linecap:round; stroke-width:0.25; stroke-dasharray:3,3;"/>
<text x="1152.300000" y="213.000000" font-family="Verdana" font-size="7">Abstraction</text>
<line x1="1043.900000" y1="201.000000" x2="1043.900000" y2="263.000000"  style="stroke: black; stroke-linecap:round; stroke-width:0.25; stroke-dasharray:3,3;"/>
<line x1="1043.900000" y1="263.000000" x2="1260.700000" y2="263.000000"  style="stroke: black; stroke-linecap:round; stroke-width:0.25; stroke-dasharray:3,3;"/>
<line x1="1260.700000" y1="263.000000" x2="1260.700000" y2="201.000000"  style="stroke: black; stroke-linecap:round; stroke-width:0.25; stroke-dasharray:3,3;"/>
<line x1="1043.900000" y1="201.000000" x2="1048.900000" y2="201.000000"  style="stroke: black; stroke-linecap:round; stroke-width:0.25; stroke-dasharray:3,3;"/>
<line x1="1090.825000" y1="201.000000" x2="1260.700000" y2="201.000000"  style="stroke: black; stroke-linecap:round; stroke-width:0.25; stroke-dasharray:3,3;"/>
<text x="1048.900000" y="203.000000" font-family="Verdana" font-size="7">Abstraction</text>
<line x1="940.500000" y1="191.000000" x2="940.500000" y2="273.000000"  style="stroke: black; stroke-linecap:round; stroke-width:0.25; stroke-dasharray:3,3;"/>
<line x1="940.500000" y1="273.000000" x2="1270.700000" y2="273.000000"  style="stroke: black; stroke-linecap:round; stroke-width:0.25; stroke-dasharray:3,3;"/>
<line x1="1270.700000" y1="273.000000" x2="1270.700000" y2="191.000000"  style="stroke: black; stroke-linecap:round; stroke-width:0.25; stroke-dasharray:3,3;"/>
<line x1="940.500000" y1="191.000000" x2="945.500000" y2="191.000000"  style="stroke: black; stroke-linecap:round; stroke-width:0.25; stroke-dasharray:3,3;"/>
<line x1="987.425000" y1="191.000000" x2="1270.700000" y2="191.000000"  style="stroke: black; stroke-linecap:round; stroke-width:0.25; stroke-dasharray:3,3;"/>
<text x="945.500000" y="193.000000" font-family="Verdana" font-size="7">Abstraction</text>
<line x1="837.100000" y1="181.000000" x2="837.100000" y2="283.000000"  style="stroke: black; stroke-linecap:round; stroke-width:0.25; stroke-dasharray:3,3;"/>
<line x1="837.100000" y1="283.000000" x2="1280.700000" y2="283.000000"  style="stroke: black; stroke-linecap:round; stroke-width:0.25; stroke-dasharray:3,3;"/>
<line x1="1280.700000" y1="283.000000" x2="1280.700000" y2="181.000000"  style="stroke: black; stroke-linecap:round; stroke-width:0.25; stroke-dasharray:3,3;"/>
<line x1="837.100000" y1="181.000000" x2="842.100000" y2="181.000000"  style="stroke: black; stroke-linecap:round; stroke-width:0.25; stroke-dasharray:3,3;"/>
<line x1="884.025000" y1="181.000000" x2="1280.700000" y2="181.000000"  style="stroke: black; stroke-linecap:round; stroke-width:0.25; stroke-dasharray:3,3;"/>
<text x="842.100000" y="183.000000" font-family="Verdana" font-size="7">Abstraction</text>
<line x1="733.700000" y1="171.000000" x2="733.700000" y2="293.000000"  style="stroke: black; stroke-linecap:round; stroke-width:0.25; stroke-dasharray:3,3;"/>
<line x1="733.700000" y1="293.000000" x2="1290.700000" y2="293.000000"  style="stroke: black; stroke-linecap:round; stroke-width:0.25; stroke-dasharray:3,3;"/>
<line x1="1290.700000" y1="293.000000" x2="1290.700000" y2="171.000000"  style="stroke: black; stroke-linecap:round; stroke-width:0.25; stroke-dasharray:3,3;"/>
<line x1="733.700000" y1="171.000000" x2="738.700000" y2="171.000000"  style="stroke: black; stroke-linecap:round; stroke-width:0.25; stroke-dasharray:3,3;"/>
<line x1="780.625000" y1="171.000000" x2="1290.700000" y2="171.000000"  style="stroke: black; stroke-linecap:round; stroke-width:0.25; stroke-dasharray:3,3;"/>
<text x="738.700000" y="173.000000" font-family="Verdana" font-size="7">Abstraction</text>
<line x1="630.300000" y1="161.000000" x2="630.300000" y2="303.000000"  style="stroke: black; stroke-linecap:round; stroke-width:0.25; stroke-dasharray:3,3;"/>
<line x1="630.300000" y1="303.000000" x2="1300.700000" y2="303.000000"  style="stroke: black; stroke-linecap:round; stroke-width:0.25; stroke-dasharray:3,3;"/>
<line x1="1300.700000" y1="303.000000" x2="1300.700000" y2="161.000000"  style="stroke: black; stroke-linecap:round; stroke-width:0.25; stroke-dasharray:3,3;"/>
<line x1="630.300000" y1="161.000000" x2="635.300000" y2="161.000000"  style="stroke: black; stroke-linecap:round; stroke-width:0.25; stroke-dasharray:3,3;"/>
<line x1="677.225000" y1="161.000000" x2="1300.700000" y2="161.000000"  style="stroke: black; stroke-linecap:round; stroke-width:0.25; stroke-dasharray:3,3;"/>
<text x="635.300000" y="163.000000" font-family="Verdana" font-size="7">Abstraction</text>
<line x1="526.900000" y1="151.000000" x2="526.900000" y2="313.000000"  style="stroke: black; stroke-linecap:round; stroke-width:0.25; stroke-dasharray:3,3;"/>
<line x1="526.900000" y1="313.000000" x2="1310.700000" y2="313.000000"  style="stroke: black; stroke-linecap:round; stroke-width:0.25; stroke-dasharray:3,3;"/>
<line x1="1310.700000" y1="313.000000" x2="1310.700000" y2="151.000000"  style="stroke: black; stroke-linecap:round; stroke-width:0.25; stroke-dasharray:3,3;"/>
<line x1="526.900000" y1="151.000000" x2="531.900000" y2="151.000000"  style="stroke: black; stroke-linecap:round; stroke-width:0.25; stroke-dasharray:3,3;"/>
<line x1="573.825000" y1="151.000000" x2="1310.700000" y2="151.000000"  style="stroke: black; stroke-linecap:round; stroke-width:0.25; stroke-dasharray:3,3;"/>
<text x="531.900000" y="153.000000" font-family="Verdana" font-size="7">Abstraction</text>
<line x1="423.500000" y1="141.000000" x2="423.500000" y2="323.000000"  style="stroke: black; stroke-linecap:round; stroke-width:0.25; stroke-dasharray:3,3;"/>
<line x1="423.500000" y1="323.000000" x2="1320.700000" y2="323.000000"  style="stroke: black; stroke-linecap:round; stroke-width:0.25; stroke-dasharray:3,3;"/>
<line x1="1320.700000" y1="323.000000" x2="1320.700000" y2="141.000000"  style="stroke: black; stroke-linecap:round; stroke-width:0.25; stroke-dasharray:3,3;"/>
<line x1="423.500000" y1="141.000000" x2="428.500000" y2="141.000000"  style="stroke: black; stroke-linecap:round; stroke-width:0.25; stroke-dasharray:3,3;"/>
<line x1="470.425000" y1="141.000000" x2="1320.700000" y2="141.000000"  style="stroke: black; stroke-linecap:round; stroke-width:0.25; stroke-dasharray:3,3;"/>
<text x="428.500000" y="143.000000" font-family="Verdana" font-size="7">Abstraction</text>
<line x1="320.100000" y1="131.000000" x2="320.100000" y2="333.000000"  style="stroke: black; stroke-linecap:round; stroke-width:0.25; stroke-dasharray:3,3;"/>
<line x1="320.100000" y1="333.000000" x2="1330.700000" y2="333.000000"  style="stroke: black; stroke-linecap:round; stroke-width:0.25; stroke-dasharray:3,3;"/>
<line x1="1330.700000" y1="333.000000" x2="1330.700000" y2="131.000000"  style="stroke: black; stroke-linecap:round; stroke-width:0.25; stroke-dasharray:3,3;"/>
<line x1="320.100000" y1="131.000000" x2="325.100000" y2="131.000000"  style="stroke: black; stroke-linecap:round; stroke-width:0.25; stroke-dasharray:3,3;"/>
<line x1="367.025000" y1="131.000000" x2="1330.700000" y2="131.000000"  style="stroke: black; stroke-linecap:round; stroke-width:0.25; stroke-dasharray:3,3;"/>
<text x="325.100000" y="133.000000" font-family="Verdana" font-size="7">Abstraction</text>
<line x1="216.700000" y1="121.000000" x2="216.700000" y2="343.000000"  style="stroke: black; stroke-linecap:round; stroke-width:0.25; stroke-dasharray:3,3;"/>
<line x1="216.700000" y1="343.000000" x2="1340.700000" y2="343.000000"  style="stroke: black; stroke-linecap:round; stroke-width:0.25; stroke-dasharray:3,3;"/>
<line x1="1340.700000" y1="343.000000" x2="1340.700000" y2="121.000000"  style="stroke: black; stroke-linecap:round; stroke-width:0.25; stroke-dasharray:3,3;"/>
<line x1="216.700000" y1="121.000000" x2="221.700000" y2="121.000000"  style="stroke: black; stroke-linecap:round; stroke-width:0.25; stroke-dasharray:3,3;"/>
<line x1="263.625000" y1="121.000000" x2="1340.700000" y2="121.000000"  style="stroke: black; stroke-linecap:round; stroke-width:0.25; stroke-dasharray:3,3;"/>
<text x="221.700000" y="123.000000" font-family="Verdana" font-size="7">Abstraction</text>
<rect x="1367.700000" y="204.000000" width="38.700000" height="24.000000" rx="0" ry="0" style="stroke:#000000;fill:#FFFFFF;"/>
<text x="1387.050000" y="218.000000" font-family="Verdana" font-size="7" text-anchor="middle" fill="#000000">next_pr</text>
<circle cx="1369.700000" cy="206.000000" r="1"/>
<line x1="1364.700000" y1="215.000000" x2="1367.700000" y2="216.000000"  transform="rotate(0.000000,1367.700000,216.000000)" style="stroke: black; stroke-width:0.25;"/>
<line x1="1364.700000" y1="217.000000" x2="1367.700000" y2="216.000000"  transform="rotate(0.000000,1367.700000,216.000000)" style="stroke: black; stroke-width:0.25;"/>
<line x1="1358.700000" y1="195.000000" x2="1358.700000" y2="237.000000"  style="stroke: black; stroke-linecap:round; stroke-width:0.25; stroke-dasharray:3,3;"/>
<line x1="1358.700000" y1="237.000000" x2="1415.400000" y2="237.000000"  style="stroke: black; stroke-linecap:round; stroke-width:0.25; stroke-dasharray:3,3;"/>
<line x1="1415.400000" y1="237.000000" x2="1415.400000" y2="195.000000"  style="stroke: black; stroke-linecap:round; stroke-width:0.25; stroke-dasharray:3,3;"/>
<line x1="1358.700000" y1="195.000000" x2="1363.700000" y2="195.000000"  style="stroke: black; stroke-linecap:round; stroke-width:0.25; stroke-dasharray:3,3;"/>
<line x1="1376.600000" y1="195.000000" x2="1415.400000" y2="195.000000"  style="stroke: black; stroke-linecap:round; stroke-width:0.25; stroke-dasharray:3,3;"/>
<text x="1363.700000" y="197.000000" font-family="Verdana" font-size="7">np</text>
<rect x="1375.050000" y="246.000000" width="24.000000" height="24.000000" rx="0" ry="0" style="stroke:#000000;fill:#FFFFFF;"/>
<text x="1387.050000" y="260.000000" font-family="Verdana" font-size="7" text-anchor="middle" fill="#000000">1</text>
<circle cx="1377.050000" cy="248.000000" r="1"/>
<rect x="1432.400000" y="220.000000" width="24.000000" height="24.000000" rx="0" ry="0" style="stroke:#000000;fill:#FFFFFF;"/>
<text x="1444.400000" y="234.000000" font-family="Verdana" font-size="7" text-anchor="middle" fill="#000000">max</text>
<circle cx="1434.400000" cy="222.000000" r="1"/>
<line x1="1429.400000" y1="227.000000" x2="1432.400000" y2="228.000000"  transform="rotate(0.000000,1432.400000,228.000000)" style="stroke: black; stroke-width:0.25;"/>
<line x1="1429.400000" y1="229.000000" x2="1432.400000" y2="228.000000"  transform="rotate(0.000000,1432.400000,228.000000)" style="stroke: black; stroke-width:0.25;"/>
<line x1="1429.400000" y1="235.000000" x2="1432.400000" y2="236.000000"  transform="rotate(0.000000,1432.400000,236.000000)" style="stroke: black; stroke-width:0.25;"/>
<line x1="1429.400000" y1="237.000000" x2="1432.400000" y2="236.000000"  transform="rotate(0.000000,1432.400000,236.000000)" style="stroke: black; stroke-width:0.25;"/>
<rect x="755.550000" y="352.000000" width="24.000000" height="24.000000" rx="0" ry="0" style="stroke:#000000;fill:#FFFFFF;"/>
<text x="767.550000" y="366.000000" font-family="Verdana" font-size="7" text-anchor="middle" fill="#000000">1</text>
<circle cx="757.550000" cy="354.000000" r="1"/>
<rect x="1472.400000" y="236.000000" width="24.000000" height="24.000000" rx="0" ry="0" style="stroke:#000000;fill:#FFFFFF;"/>
<text x="1484.400000" y="250.000000" font-family="Verdana" font-size="7" text-anchor="middle" fill="#000000">-</text>
<circle cx="1474.400000" cy="238.000000" r="1"/>
<line x1="1469.400000" y1="243.000000" x2="1472.400000" y2="244.000000"  transform="rotate(0.000000,1472.400000,244.000000)" style="stroke: black; stroke-width:0.25;"/>
<line x1="1469.400000" y1="245.000000" x2="1472.400000" y2="244.000000"  transform="rotate(0.000000,1472.400000,244.000000)" style="stroke: black; stroke-width:0.25;"/>
<line x1="1469.400000" y1="251.000000" x2="1472.400000" y2="252.000000"  transform="rotate(0.000000,1472.400000,252.000000)" style="stroke: black; stroke-width:0.25;"/>
<line x1="1469.400000" y1="253.000000" x2="1472.400000" y2="252.000000"  transform="rotate(0.000000,1472.400000,252.000000)" style="stroke: black; stroke-width:0.25;"/>
<rect x="1504.400000" y="236.000000" width="24.000000" height="24.000000" rx="0" ry="0" style="stroke:#000000;fill:#FFFFFF;"/>
<text x="1516.400000" y="250.000000" font-family="Verdana" font-size="7" text-anchor="middle" fill="#000000">int</text>
<circle cx="1506.400000" cy="238.000000" r="1"/>
<line x1="1501.400000" y1="247.000000" x2="1504.400000" y2="248.000000"  transform="rotate(0.000000,1504.400000,248.000000)" style="stroke: black; stroke-width:0.25;"/>
<line x1="1501.400000" y1="249.000000" x2="1504.400000" y2="248.000000"  transform="rotate(0.000000,1504.400000,248.000000)" style="stroke: black; stroke-width:0.25;"/>
<rect x="1544.400000" y="220.000000" width="24.000000" height="24.000000" rx="0" ry="0" style="stroke:#000000;fill:#FFFFFF;"/>
<text x="1556.400000" y="234.000000" font-family="Verdana" font-size="7" text-anchor="middle" fill="#000000">max</text>
<circle cx="1546.400000" cy="222.000000" r="1"/>
<line x1="1541.400000" y1="227.000000" x2="1544.400000" y2="228.000000"  transform="rotate(0.000000,1544.400000,228.000000)" style="stroke: black; stroke-width:0.25;"/>
<line x1="1541.400000" y1="229.000000" x2="1544.400000" y2="228.000000"  transform="rotate(0.000000,1544.400000,228.000000)" style="stroke: black; stroke-width:0.25;"/>
<line x1="1541.400000" y1="235.000000" x2="1544.400000" y2="236.000000"  transform="rotate(0.000000,1544.400000,236.000000)" style="stroke: black; stroke-width:0.25;"/>
<line x1="1541.400000" y1="237.000000" x2="1544.400000" y2="236.000000"  transform="rotate(0.000000,1544.400000,236.000000)" style="stroke: black; stroke-width:0.25;"/>
<rect x="1584.400000" y="204.000000" width="24.000000" height="24.000000" rx="0" ry="0" style="stroke:#000000;fill:#FFFFFF;"/>
<text x="1596.400000" y="218.000000" font-family="Verdana" font-size="7" text-anchor="middle" fill="#000000">min</text>
<circle cx="1586.400000" cy="206.000000" r="1"/>
<line x1="1581.400000" y1="211.000000" x2="1584.400000" y2="212.000000"  transform="rotate(0.000000,1584.400000,212.000000)" style="stroke: black; stroke-width:0.25;"/>
<line x1="1581.400000" y1="213.000000" x2="1584.400000" y2="212.000000"  transform="rotate(0.000000,1584.400000,212.000000)" style="stroke: black; stroke-width:0.25;"/>
<line x1="1581.400000" y1="219.000000" x2="1584.400000" y2="220.000000"  transform="rotate(0.000000,1584.400000,220.000000)" style="stroke: black; stroke-width:0.25;"/>
<line x1="1581.400000" y1="221.000000" x2="1584.400000" y2="220.000000"  transform="rotate(0.000000,1584.400000,220.000000)" style="stroke: black; stroke-width:0.25;"/>
<rect x="1624.400000" y="188.000000" width="24.000000" height="24.000000" rx="0" ry="0" style="stroke:#000000;fill:#FFFFFF;"/>
<text x="1636.400000" y="202.000000" font-family="Verdana" font-size="7" text-anchor="middle" fill="#000000">@</text>
<circle cx="1626.400000" cy="190.000000" r="1"/>
<line x1="1621.400000" y1="195.000000" x2="1624.400000" y2="196.000000"  transform="rotate(0.000000,1624.400000,196.000000)" style="stroke: black; stroke-width:0.25;"/>
<line x1="1621.400000" y1="197.000000" x2="1624.400000" y2="196.000000"  transform="rotate(0.000000,1624.400000,196.000000)" style="stroke: black; stroke-width:0.25;"/>
<line x1="1621.400000" y1="203.000000" x2="1624.400000" y2="204.000000"  transform="rotate(0.000000,1624.400000,204.000000)" style="stroke: black; stroke-width:0.25;"/>
<line x1="1621.400000" y1="205.000000" x2="1624.400000" y2="204.000000"  transform="rotate(0.000000,1624.400000,204.000000)" style="stroke: black; stroke-width:0.25;"/>
<line x1="15.000000" y1="15.000000" x2="15.000000" y2="385.000000"  style="stroke: black; stroke-linecap:round; stroke-width:0.25; stroke-dasharray:3,3;"/>
<line x1="15.000000" y1="385.000000" x2="1665.400000" y2="385.000000"  style="stroke: black; stroke-linecap:round; stroke-width:0.25; stroke-dasharray:3,3;"/>
<line x1="1665.400000" y1="385.000000" x2="1665.400000" y2="15.000000"  style="stroke: black; stroke-linecap:round; stroke-width:0.25; stroke-dasharray:3,3;"/>
<line x1="15.000000" y1="15.000000" x2="20.000000" y2="15.000000"  style="stroke: black; stroke-linecap:round; stroke-width:0.25; stroke-dasharray:3,3;"/>
<line x1="119.975000" y1="15.000000" x2="1665.400000" y2="15.000000"  style="stroke: black; stroke-linecap:round; stroke-width:0.25; stroke-dasharray:3,3;"/>
<text x="20.000000" y="17.000000" font-family="Verdana" font-size="7">delay((1.92e+...,1 : - : int)</text>
<line x1="1667.400000" y1="199.000000" x2="1670.400000" y2="200.000000"  transform="rotate(0.000000,1670.400000,200.000000)" style="stroke: black; stroke-width:0.25;"/>
<line x1="1667.400000" y1="201.000000" x2="1670.400000" y2="200.000000"  transform="rotate(0.000000,1670.400000,200.000000)" style="stroke: black; stroke-width:0.25;"/>
<line x1="10.000000" y1="200.000000" x2="20.000000" y2="200.000000"  style="stroke:black; stroke-linecap:round; stroke-width:0.25;"/>
<line x1="20.000000" y1="200.000000" x2="24.000000" y2="200.000000"  style="stroke:black; stroke-linecap:round; stroke-width:0.25;"/>
<line x1="24.000000" y1="200.000000" x2="28.000000" y2="200.000000"  style="stroke:black; stroke-linecap:round; stroke-width:0.25;"/>
<line x1="28.000000" y1="200.000000" x2="28.000000" y2="200.000000"  style="stroke:black; stroke-linecap:round; stroke-width:0.25;"/>
<line x1="28.000000" y1="200.000000" x2="32.000000" y2="200.000000"  style="stroke:black; stroke-linecap:round; stroke-width:0.25;"/>
<line x1="207.700000" y1="232.000000" x2="211.700000" y2="232.000000"  style="stroke:black; stroke-linecap:round; stroke-width:0.25;"/>
<line x1="211.700000" y1="232.000000" x2="211.700000" y2="232.000000"  style="stroke:black; stroke-linecap:round; stroke-width:0.25;"/>
<line x1="211.700000" y1="232.000000" x2="221.700000" y2="232.000000"  style="stroke:black; stroke-linecap:round; stroke-width:0.25;"/>
<line x1="221.700000" y1="232.000000" x2="225.700000" y2="232.000000"  style="stroke:black; stroke-linecap:round; stroke-width:0.25;"/>
<line x1="311.100000" y1="232.000000" x2="315.100000" y2="232.000000"  style="stroke:black; stroke-linecap:round; stroke-width:0.25;"/>
<line x1="315.100000" y1="232.000000" x2="315.100000" y2="232.000000"  style="stroke:black; stroke-linecap:round; stroke-width:0.25;"/>
<line x1="315.100000" y1="232.000000" x2="325.100000" y2="232.000000"  style="stroke:black; stroke-linecap:round; stroke-width:0.25;"/>
<line x1="325.100000" y1="232.000000" x2="329.100000" y2="232.000000"  style="stroke:black; stroke-linecap:round; stroke-width:0.25;"/>
<line x1="414.500000" y1="232.000000" x2="418.500000" y2="232.000000"  style="stroke:black; stroke-linecap:round; stroke-width:0.25;"/>
<line x1="418.500000" y1="232.000000" x2="418.500000" y2="232.000000"  style="stroke:black; stroke-linecap:round; stroke-width:0.25;"/>
<line x1="418.500000" y1="232.000000" x2="428.500000" y2="232.000000"  style="stroke:black; stroke-linecap:round; stroke-width:0.25;"/>
<line x1="428.500000" y1="232.000000" x2="432.500000" y2="232.000000"  style="stroke:black; stroke-linecap:round; stroke-width:0.25;"/>
<line x1="517.900000" y1="232.000000" x2="521.900000" y2="232.000000"  style="stroke:black; stroke-linecap:round; stroke-width:0.25;"/>
<line x1="521.900000" y1="232.000000" x2="521.900000" y2="232.000000"  style="stroke:black; stroke-linecap:round; stroke-width:0.25;"/>
<line x1="521.900000" y1="232.000000" x2="531.900000" y2="232.000000"  style="stroke:black; stroke-linecap:round; stroke-width:0.25;"/>
<line x1="531.900000" y1="232.000000" x2="535.900000" y2="232.000000"  style="stroke:black; stroke-linecap:round; stroke-width:0.25;"/>
<line x1="621.300000" y1="232.000000" x2="625.300000" y2="232.000000"  style="stroke:black; stroke-linecap:round; stroke-width:0.25;"/>
<line x1="625.300000" y1="232.000000" x2="625.300000" y2="232.000000"  style="stroke:black; stroke-linecap:round; stroke-width:0.25;"/>
<line x1="625.300000" y1="232.000000" x2="635.300000" y2="232.000000"  style="stroke:black; stroke-linecap:round; stroke-width:0.25;"/>
<line x1="635.300000" y1="232.000000" x2="639.300000" y2="232.000000"  style="stroke:black; stroke-linecap:round; stroke-width:0.25;"/>
<line x1="724.700000" y1="232.000000" x2="728.700000" y2="232.000000"  style="stroke:black; stroke-linecap:round; stroke-width:0.25;"/>
<line x1="728.700000" y1="232.000000" x2="728.700000" y2="232.000000"  style="stroke:black; stroke-linecap:round; stroke-width:0.25;"/>
<line x1="728.700000" y1="232.000000" x2="738.700000" y2="232.000000"  style="stroke:black; stroke-linecap:round; stroke-width:0.25;"/>
<line x1="738.700000" y1="232.000000" x2="742.700000" y2="232.000000"  style="stroke:black; stroke-linecap:round; stroke-width:0.25;"/>
<line x1="779.550000" y1="364.000000" x2="783.550000" y2="364.000000"  style="stroke:black; stroke-linecap:round; stroke-width:0.25;"/>
<line x1="783.550000" y1="364.000000" x2="1460.400000" y2="364.000000"  style="stroke:black; stroke-linecap:round; stroke-width:0.25;"/>
<line x1="815.550000" y1="100.000000" x2="819.550000" y2="100.000000"  style="stroke:black; stroke-linecap:round; stroke-width:0.25;"/>
<line x1="819.550000" y1="100.000000" x2="1532.400000" y2="100.000000"  style="stroke:black; stroke-linecap:round; stroke-width:0.25;"/>
<line x1="828.100000" y1="232.000000" x2="832.100000" y2="232.000000"  style="stroke:black; stroke-linecap:round; stroke-width:0.25;"/>
<line x1="832.100000" y1="232.000000" x2="832.100000" y2="232.000000"  style="stroke:black; stroke-linecap:round; stroke-width:0.25;"/>
<line x1="832.100000" y1="232.000000" x2="842.100000" y2="232.000000"  style="stroke:black; stroke-linecap:round; stroke-width:0.25;"/>
<line x1="836.450000" y1="68.000000" x2="840.450000" y2="68.000000"  style="stroke:black; stroke-linecap:round; stroke-width:0.25;"/>
<line x1="840.450000" y1="68.000000" x2="1572.400000" y2="68.000000"  style="stroke:black; stroke-linecap:round; stroke-width:0.25;"/>
<line x1="842.100000" y1="232.000000" x2="846.100000" y2="232.000000"  style="stroke:black; stroke-linecap:round; stroke-width:0.25;"/>
<line x1="862.900000" y1="36.000000" x2="866.900000" y2="36.000000"  style="stroke:black; stroke-linecap:round; stroke-width:0.25;"/>
<line x1="866.900000" y1="36.000000" x2="1612.400000" y2="36.000000"  style="stroke:black; stroke-linecap:round; stroke-width:0.25;"/>
<line x1="931.500000" y1="232.000000" x2="935.500000" y2="232.000000"  style="stroke:black; stroke-linecap:round; stroke-width:0.25;"/>
<line x1="935.500000" y1="232.000000" x2="935.500000" y2="232.000000"  style="stroke:black; stroke-linecap:round; stroke-width:0.25;"/>
<line x1="935.500000" y1="232.000000" x2="945.500000" y2="232.000000"  style="stroke:black; stroke-linecap:round; stroke-width:0.25;"/>
<line x1="945.500000" y1="232.000000" x2="949.500000" y2="232.000000"  style="stroke:black; stroke-linecap:round; stroke-width:0.25;"/>
<line x1="1034.900000" y1="232.000000" x2="1038.900000" y2="232.000000"  style="stroke:black; stroke-linecap:round; stroke-width:0.25;"/>
<line x1="1038.900000" y1="232.000000" x2="1038.900000" y2="232.000000"  style="stroke:black; stroke-linecap:round; stroke-width:0.25;"/>
<line x1="1038.900000" y1="232.000000" x2="1048.900000" y2="232.000000"  style="stroke:black; stroke-linecap:round; stroke-width:0.25;"/>
<line x1="1048.900000" y1="232.000000" x2="1052.900000" y2="232.000000"  style="stroke:black; stroke-linecap:round; stroke-width:0.25;"/>
<line x1="1138.300000" y1="232.000000" x2="1142.300000" y2="232.000000"  style="stroke:black; stroke-linecap:round; stroke-width:0.25;"/>
<line x1="1142.300000" y1="232.000000" x2="1142.300000" y2="232.000000"  style="stroke:black; stroke-linecap:round; stroke-width:0.25;"/>
<line x1="1142.300000" y1="232.000000" x2="1152.300000" y2="232.000000"  style="stroke:black; stroke-linecap:round; stroke-width:0.25;"/>
<line x1="1152.300000" y1="232.000000" x2="1156.300000" y2="232.000000"  style="stroke:black; stroke-linecap:round; stroke-width:0.25;"/>
<line x1="1241.700000" y1="232.000000" x2="1245.700000" y2="232.000000"  style="stroke:black; stroke-linecap:round; stroke-width:0.25;"/>
<line x1="1245.700000" y1="232.000000" x2="1255.700000" y2="232.000000"  style="stroke:black; stroke-linecap:round; stroke-width:0.25;"/>
<line x1="1255.700000" y1="232.000000" x2="1265.700000" y2="232.000000"  style="stroke:black; stroke-linecap:round; stroke-width:0.25;"/>
<line x1="1265.700000" y1="232.000000" x2="1275.700000" y2="232.000000"  style="stroke:black; stroke-linecap:round; stroke-width:0.25;"/>
<line x1="1275.700000" y1="232.000000" x2="1285.700000" y2="232.000000"  style="stroke:black; stroke-linecap:round; stroke-width:0.25;"/>
<line x1="1285.700000" y1="232.000000" x2="1295.700000" y2="232.000000"  style="stroke:black; stroke-linecap:round; stroke-width:0.25;"/>
<line x1="1295.700000" y1="232.000000" x2="1305.700000" y2="232.000000"  style="stroke:black; stroke-linecap:round; stroke-width:0.25;"/>
<line x1="1305.700000" y1="232.000000" x2="1315.700000" y2="232.000000"  style="stroke:black; stroke-linecap:round; stroke-width:0.25;"/>
<line x1="1315.700000" y1="232.000000" x2="1325.700000" y2="232.000000"  style="stroke:black; stroke-linecap:round; stroke-width:0.25;"/>
<line x1="1325.700000" y1="232.000000" x2="1335.700000" y2="232.000000"  style="stroke:black; stroke-linecap:round; stroke-width:0.25;"/>
<line x1="1335.700000" y1="232.000000" x2="1345.700000" y2="232.000000"  style="stroke:black; stroke-linecap:round; stroke-width:0.25;"/>
<line x1="1345.700000" y1="216.000000" x2="1353.700000" y2="216.000000"  style="stroke:black; stroke-linecap:round; stroke-width:0.25;"/>
<line x1="1345.700000" y1="232.000000" x2="1345.700000" y2="216.000000"  style="stroke:black; stroke-linecap:round; stroke-width:0.25;"/>
<line x1="1345.700000" y1="232.000000" x2="1345.700000" y2="232.000000"  style="stroke:black; stroke-linecap:round; stroke-width:0.25;"/>
<line x1="1353.700000" y1="216.000000" x2="1363.700000" y2="216.000000"  style="stroke:black; stroke-linecap:round; stroke-width:0.25;"/>
<line x1="1363.700000" y1="216.000000" x2="1367.700000" y2="216.000000"  style="stroke:black; stroke-linecap:round; stroke-width:0.25;"/>
<line x1="1399.050000" y1="258.000000" x2="1403.050000" y2="258.000000"  style="stroke:black; stroke-linecap:round; stroke-width:0.25;"/>
<line x1="1403.050000" y1="258.000000" x2="1420.400000" y2="258.000000"  style="stroke:black; stroke-linecap:round; stroke-width:0.25;"/>
<line x1="1406.400000" y1="216.000000" x2="1410.400000" y2="216.000000"  style="stroke:black; stroke-linecap:round; stroke-width:0.25;"/>
<line x1="1410.400000" y1="216.000000" x2="1420.400000" y2="216.000000"  style="stroke:black; stroke-linecap:round; stroke-width:0.25;"/>
<line x1="1420.400000" y1="236.000000" x2="1428.400000" y2="236.000000"  style="stroke:black; stroke-linecap:round; stroke-width:0.25;"/>
<line x1="1420.400000" y1="258.000000" x2="1420.400000" y2="236.000000"  style="stroke:black; stroke-linecap:round; stroke-width:0.25;"/>
<line x1="1420.400000" y1="258.000000" x2="1420.400000" y2="258.000000"  style="stroke:black; stroke-linecap:round; stroke-width:0.25;"/>
<line x1="1420.400000" y1="216.000000" x2="1428.400000" y2="216.000000"  style="stroke:black; stroke-linecap:round; stroke-width:0.25;"/>
<line x1="1428.400000" y1="216.000000" x2="1428.400000" y2="228.000000"  style="stroke:black; stroke-linecap:round; stroke-width:0.25;"/>
<line x1="1428.400000" y1="228.000000" x2="1428.400000" y2="228.000000"  style="stroke:black; stroke-linecap:round; stroke-width:0.25;"/>
<line x1="1428.400000" y1="228.000000" x2="1432.400000" y2="228.000000"  style="stroke:black; stroke-linecap:round; stroke-width:0.25;"/>
<line x1="1428.400000" y1="236.000000" x2="1432.400000" y2="236.000000"  style="stroke:black; stroke-linecap:round; stroke-width:0.25;"/>
<line x1="1456.400000" y1="232.000000" x2="1460.400000" y2="232.000000"  style="stroke:black; stroke-linecap:round; stroke-width:0.25;"/>
<line x1="1460.400000" y1="232.000000" x2="1468.400000" y2="232.000000"  style="stroke:black; stroke-linecap:round; stroke-width:0.25;"/>
<line x1="1460.400000" y1="252.000000" x2="1468.400000" y2="252.000000"  style="stroke:black; stroke-linecap:round; stroke-width:0.25;"/>
<line x1="1460.400000" y1="364.000000" x2="1460.400000" y2="252.000000"  style="stroke:black; stroke-linecap:round; stroke-width:0.25;"/>
<line x1="1460.400000" y1="364.000000" x2="1460.400000" y2="364.000000"  style="stroke:black; stroke-linecap:round; stroke-width:0.25;"/>
<line x1="1468.400000" y1="232.000000" x2="1468.400000" y2="244.000000"  style="stroke:black; stroke-linecap:round; stroke-width:0.25;"/>
<line x1="1468.400000" y1="244.000000" x2="1468.400000" y2="244.000000"  style="stroke:black; stroke-linecap:round; stroke-width:0.25;"/>
<line x1="1468.400000" y1="244.000000" x2="1472.400000" y2="244.000000"  style="stroke:black; stroke-linecap:round; stroke-width:0.25;"/>
<line x1="1468.400000" y1="252.000000" x2="1472.400000" y2="252.000000"  style="stroke:black; stroke-linecap:round; stroke-width:0.25;"/>
<line x1="1496.400000" y1="248.000000" x2="1500.400000" y2="248.000000"  style="stroke:black; stroke-linecap:round; stroke-width:0.25;"/>
<line x1="1500.400000" y1="248.000000" x2="1500.400000" y2="248.000000"  style="stroke:black; stroke-linecap:round; stroke-width:0.25;"/>
<line x1="1500.400000" y1="248.000000" x2="1504.400000" y2="248.000000"  style="stroke:black; stroke-linecap:round; stroke-width:0.25;"/>
<line x1="1528.400000" y1="248.000000" x2="1532.400000" y2="248.000000"  style="stroke:black; stroke-linecap:round; stroke-width:0.25;"/>
<line x1="1532.400000" y1="100.000000" x2="1540.400000" y2="100.000000"  style="stroke:black; stroke-linecap:round; stroke-width:0.25;"/>
<line x1="1532.400000" y1="236.000000" x2="1540.400000" y2="236.000000"  style="stroke:black; stroke-linecap:round; stroke-width:0.25;"/>
<line x1="1532.400000" y1="248.000000" x2="1532.400000" y2="236.000000"  style="stroke:black; stroke-linecap:round; stroke-width:0.25;"/>
<line x1="1532.400000" y1="248.000000" x2="1532.400000" y2="248.000000"  style="stroke:black; stroke-linecap:round; stroke-width:0.25;"/>
<line x1="1540.400000" y1="100.000000" x2="1540.400000" y2="228.000000"  style="stroke:black; stroke-linecap:round; stroke-width:0.25;"/>
<line x1="1540.400000" y1="228.000000" x2="1540.400000" y2="228.000000"  style="stroke:black; stroke-linecap:round; stroke-width:0.25;"/>
<line x1="1540.400000" y1="228.000000" x2="1544.400000" y2="228.000000"  style="stroke:black; stroke-linecap:round; stroke-width:0.25;"/>
<line x1="1540.400000" y1="236.000000" x2="1544.400000" y2="236.000000"  style="stroke:black; stroke-linecap:round; stroke-width:0.25;"/>
<line x1="1568.400000" y1="232.000000" x2="1572.400000" y2="232.000000"  style="stroke:black; stroke-linecap:round; stroke-width:0.25;"/>
<line x1="1572.400000" y1="68.000000" x2="1580.400000" y2="68.000000"  style="stroke:black; stroke-linecap:round; stroke-width:0.25;"/>
<line x1="1572.400000" y1="220.000000" x2="1580.400000" y2="220.000000"  style="stroke:black; stroke-linecap:round; stroke-width:0.25;"/>
<line x1="1572.400000" y1="232.000000" x2="1572.400000" y2="220.000000"  style="stroke:black; stroke-linecap:round; stroke-width:0.25;"/>
<line x1="1572.400000" y1="232.000000" x2="1572.400000" y2="232.000000"  style="stroke:black; stroke-linecap:round; stroke-width:0.25;"/>
<line x1="1580.400000" y1="68.000000" x2="1580.400000" y2="212.000000"  style="stroke:black; stroke-linecap:round; stroke-width:0.25;"/>
<line x1="1580.400000" y1="212.000000" x2="1580.400000" y2="212.000000"  style="stroke:black; stroke-linecap:round; stroke-width:0.25;"/>
<line x1="1580.400000" y1="212.000000" x2="1584.400000" y2="212.000000"  style="stroke:black; stroke-linecap:round; stroke-width:0.25;"/>
<line x1="1580.400000" y1="220.000000" x2="1584.400000" y2="220.000000"  style="stroke:black; stroke-linecap:round; stroke-width:0.25;"/>
<line x1="1608.400000" y1="216.000000" x2="1612.400000" y2="216.000000"  style="stroke:black; stroke-linecap:round; stroke-width:0.25;"/>
<line x1="1612.400000" y1="36.000000" x2="1620.400000" y2="36.000000"  style="stroke:black; stroke-linecap:round; stroke-width:0.25;"/>
<line x1="1612.400000" y1="204.000000" x2="1620.400000" y2="204.000000"  style="stroke:black; stroke-linecap:round; stroke-width:0.25;"/>
<line x1="1612.400000" y1="216.000000" x2="1612.400000" y2="204.000000"  style="stroke:black; stroke-linecap:round; stroke-width:0.25;"/>
<line x1="1612.400000" y1="216.000000" x2="1612.400000" y2="216.000000"  style="stroke:black; stroke-linecap:round; stroke-width:0.25;"/>
<line x1="1620.400000" y1="36.000000" x2="1620.400000" y2="196.000000"  style="stroke:black; stroke-linecap:round; stroke-width:0.25;"/>
<line x1="1620.400000" y1="196.000000" x2="1620.400000" y2="196.000000"  style="stroke:black; stroke-linecap:round; stroke-width:0.25;"/>
<line x1="1620.400000" y1="196.000000" x2="1624.400000" y2="196.000000"  style="stroke:black; stroke-linecap:round; stroke-width:0.25;"/>
<line x1="1620.400000" y1="204.000000" x2="1624.400000" y2="204.000000"  style="stroke:black; stroke-linecap:round; stroke-width:0.25;"/>
<line x1="1648.400000" y1="200.000000" x2="1652.400000" y2="200.000000"  style="stroke:black; stroke-linecap:round; stroke-width:0.25;"/>
<line x1="1652.400000" y1="200.000000" x2="1652.400000" y2="200.000000"  style="stroke:black; stroke-linecap:round; stroke-width:0.25;"/>
<line x1="1652.400000" y1="200.000000" x2="1656.400000" y2="200.000000"  style="stroke:black; stroke-linecap:round; stroke-width:0.25;"/>
<line x1="1656.400000" y1="200.000000" x2="1660.400000" y2="200.000000"  style="stroke:black; stroke-linecap:round; stroke-width:0.25;"/>
<line x1="1660.400000" y1="200.000000" x2="1670.400000" y2="200.000000"  style="stroke:black; stroke-linecap:round; stroke-width:0.25;"/>
</svg>
