<?xml version="1.0"?>
<svg xmlns="http://www.w3.org/2000/svg" xmlns:xlink="http://www.w3.org/1999/xlink" viewBox="0 0 659.800000 252.000000" width="329.900000mm" height="126.000000mm" version="1.1">
<a xlink:href="dflcv-0x60000636a9a0.svg">
<rect x="0.000000" y="0.000000" width="658.800000" height="251.000000" rx="0" ry="0" style="stroke:#000000;fill:#FFFFFF;"/>
</a>
<text x="10.000000" y="7.000000" font-family="Verdana" font-size="7"></text>
<rect x="32.000000" y="114.000000" width="38.700000" height="24.000000" rx="0" ry="0" style="stroke:#000000;fill:#FFFFFF;"/>
<text x="51.350000" y="128.000000" font-family="Verdana" font-size="7" text-anchor="middle" fill="#000000">[255] x</text>
<circle cx="34.000000" cy="116.000000" r="1"/>
<line x1="29.000000" y1="125.000000" x2="32.000000" y2="126.000000"  transform="rotate(0.000000,32.000000,126.000000)" style="stroke: black; stroke-width:0.25;"/>
<line x1="29.000000" y1="127.000000" x2="32.000000" y2="126.000000"  transform="rotate(0.000000,32.000000,126.000000)" style="stroke: black; stroke-width:0.25;"/>
<rect x="313.900000" y="24.000000" width="38.700000" height="24.000000" rx="0" ry="0" style="stroke:#000000;fill:#FFFFFF;"/>
<text x="333.250000" y="38.000000" font-family="Verdana" font-size="7" text-anchor="middle" fill="#000000">[255] x</text>
<circle cx="315.900000" cy="26.000000" r="1"/>
<a xlink:href="delmax-0x6000022c8f30.svg">
<rect x="300.350000" y="56.000000" width="25.800000" height="24.000000" rx="0" ry="0" style="stroke:#000000;fill:#FFFFFF;"/>
</a>
<a xlink:href="delmax-0x6000022c8f30.svg">
<text x="313.250000" y="70.000000" font-family="Verdana" font-size="7" text-anchor="middle" fill="#000000">delmax</text>
</a>
<circle cx="302.350000" cy="58.000000" r="1"/>
<rect x="281.250000" y="88.000000" width="24.000000" height="24.000000" rx="0" ry="0" style="stroke:#000000;fill:#FFFFFF;"/>
<text x="293.250000" y="102.000000" font-family="Verdana" font-size="7" text-anchor="middle" fill="#000000">0</text>
<circle cx="283.250000" cy="90.000000" r="1"/>
<a xlink:href="rphi-0x60000221dc20.svg">
<rect x="78.700000" y="146.000000" width="129.000000" height="24.000000" rx="0" ry="0" style="stroke:#000000;fill:#FFFFFF;"/>
</a>
<a xlink:href="rphi-0x60000221dc20.svg">
<text x="143.200000" y="160.000000" font-family="Verdana" font-size="7" text-anchor="middle" fill="#000000">rphi((1.92e+0...: min),4 : *)</text>
</a>
<circle cx="80.700000" cy="148.000000" r="1"/>
<rect x="225.700000" y="146.000000" width="38.700000" height="24.000000" rx="0" ry="0" style="stroke:#000000;fill:#FFFFFF;"/>
<text x="245.050000" y="160.000000" font-family="Verdana" font-size="7" text-anchor="middle" fill="#000000">[1] PM1</text>
<circle cx="227.700000" cy="148.000000" r="1"/>
<line x1="222.700000" y1="157.000000" x2="225.700000" y2="158.000000"  transform="rotate(0.000000,225.700000,158.000000)" style="stroke: black; stroke-width:0.25;"/>
<line x1="222.700000" y1="159.000000" x2="225.700000" y2="158.000000"  transform="rotate(0.000000,225.700000,158.000000)" style="stroke: black; stroke-width:0.25;"/>
<rect x="272.400000" y="146.000000" width="38.700000" height="24.000000" rx="0" ry="0" style="stroke:#000000;fill:#FFFFFF;"/>
<text x="291.750000" y="160.000000" font-family="Verdana" font-size="7" text-anchor="middle" fill="#000000">[1] PM1</text>
<circle cx="274.400000" cy="148.000000" r="1"/>
<line x1="216.700000" y1="137.000000" x2="216.700000" y2="179.000000"  style="stroke: black; stroke-linecap:round; stroke-width:0.25; stroke-dasharray:3,3;"/>
<line x1="216.700000" y1="179.000000" x2="320.100000" y2="179.000000"  style="stroke: black; stroke-linecap:round; stroke-width:0.25; stroke-dasharray:3,3;"/>
<line x1="320.100000" y1="179.000000" x2="320.100000" y2="137.000000"  style="stroke: black; stroke-linecap:round; stroke-width:0.25; stroke-dasharray:3,3;"/>
<line x1="216.700000" y1="137.000000" x2="221.700000" y2="137.000000"  style="stroke: black; stroke-linecap:round; stroke-width:0.25; stroke-dasharray:3,3;"/>
<line x1="263.625000" y1="137.000000" x2="320.100000" y2="137.000000"  style="stroke: black; stroke-linecap:round; stroke-width:0.25; stroke-dasharray:3,3;"/>
<text x="221.700000" y="139.000000" font-family="Verdana" font-size="7">Abstraction</text>
<rect x="347.100000" y="130.000000" width="38.700000" height="24.000000" rx="0" ry="0" style="stroke:#000000;fill:#FFFFFF;"/>
<text x="366.450000" y="144.000000" font-family="Verdana" font-size="7" text-anchor="middle" fill="#000000">next_pr</text>
<circle cx="349.100000" cy="132.000000" r="1"/>
<line x1="344.100000" y1="141.000000" x2="347.100000" y2="142.000000"  transform="rotate(0.000000,347.100000,142.000000)" style="stroke: black; stroke-width:0.25;"/>
<line x1="344.100000" y1="143.000000" x2="347.100000" y2="142.000000"  transform="rotate(0.000000,347.100000,142.000000)" style="stroke: black; stroke-width:0.25;"/>
<line x1="338.100000" y1="121.000000" x2="338.100000" y2="163.000000"  style="stroke: black; stroke-linecap:round; stroke-width:0.25; stroke-dasharray:3,3;"/>
<line x1="338.100000" y1="163.000000" x2="394.800000" y2="163.000000"  style="stroke: black; stroke-linecap:round; stroke-width:0.25; stroke-dasharray:3,3;"/>
<line x1="394.800000" y1="163.000000" x2="394.800000" y2="121.000000"  style="stroke: black; stroke-linecap:round; stroke-width:0.25; stroke-dasharray:3,3;"/>
<line x1="338.100000" y1="121.000000" x2="343.100000" y2="121.000000"  style="stroke: black; stroke-linecap:round; stroke-width:0.25; stroke-dasharray:3,3;"/>
<line x1="356.000000" y1="121.000000" x2="394.800000" y2="121.000000"  style="stroke: black; stroke-linecap:round; stroke-width:0.25; stroke-dasharray:3,3;"/>
<text x="343.100000" y="123.000000" font-family="Verdana" font-size="7">np</text>
<rect x="354.450000" y="172.000000" width="24.000000" height="24.000000" rx="0" ry="0" style="stroke:#000000;fill:#FFFFFF;"/>
<text x="366.450000" y="186.000000" font-family="Verdana" font-size="7" text-anchor="middle" fill="#000000">1</text>
<circle cx="356.450000" cy="174.000000" r="1"/>
<rect x="411.800000" y="146.000000" width="24.000000" height="24.000000" rx="0" ry="0" style="stroke:#000000;fill:#FFFFFF;"/>
<text x="423.800000" y="160.000000" font-family="Verdana" font-size="7" text-anchor="middle" fill="#000000">max</text>
<circle cx="413.800000" cy="148.000000" r="1"/>
<line x1="408.800000" y1="153.000000" x2="411.800000" y2="154.000000"  transform="rotate(0.000000,411.800000,154.000000)" style="stroke: black; stroke-width:0.25;"/>
<line x1="408.800000" y1="155.000000" x2="411.800000" y2="154.000000"  transform="rotate(0.000000,411.800000,154.000000)" style="stroke: black; stroke-width:0.25;"/>
<line x1="408.800000" y1="161.000000" x2="411.800000" y2="162.000000"  transform="rotate(0.000000,411.800000,162.000000)" style="stroke: black; stroke-width:0.25;"/>
<line x1="408.800000" y1="163.000000" x2="411.800000" y2="162.000000"  transform="rotate(0.000000,411.800000,162.000000)" style="stroke: black; stroke-width:0.25;"/>
<rect x="245.250000" y="204.000000" width="24.000000" height="24.000000" rx="0" ry="0" style="stroke:#000000;fill:#FFFFFF;"/>
<text x="257.250000" y="218.000000" font-family="Verdana" font-size="7" text-anchor="middle" fill="#000000">1</text>
<circle cx="247.250000" cy="206.000000" r="1"/>
<rect x="451.800000" y="162.000000" width="24.000000" height="24.000000" rx="0" ry="0" style="stroke:#000000;fill:#FFFFFF;"/>
<text x="463.800000" y="176.000000" font-family="Verdana" font-size="7" text-anchor="middle" fill="#000000">-</text>
<circle cx="453.800000" cy="164.000000" r="1"/>
<line x1="448.800000" y1="169.000000" x2="451.800000" y2="170.000000"  transform="rotate(0.000000,451.800000,170.000000)" style="stroke: black; stroke-width:0.25;"/>
<line x1="448.800000" y1="171.000000" x2="451.800000" y2="170.000000"  transform="rotate(0.000000,451.800000,170.000000)" style="stroke: black; stroke-width:0.25;"/>
<line x1="448.800000" y1="177.000000" x2="451.800000" y2="178.000000"  transform="rotate(0.000000,451.800000,178.000000)" style="stroke: black; stroke-width:0.25;"/>
<line x1="448.800000" y1="179.000000" x2="451.800000" y2="178.000000"  transform="rotate(0.000000,451.800000,178.000000)" style="stroke: black; stroke-width:0.25;"/>
<rect x="483.800000" y="162.000000" width="24.000000" height="24.000000" rx="0" ry="0" style="stroke:#000000;fill:#FFFFFF;"/>
<text x="495.800000" y="176.000000" font-family="Verdana" font-size="7" text-anchor="middle" fill="#000000">int</text>
<circle cx="485.800000" cy="164.000000" r="1"/>
<line x1="480.800000" y1="173.000000" x2="483.800000" y2="174.000000"  transform="rotate(0.000000,483.800000,174.000000)" style="stroke: black; stroke-width:0.25;"/>
<line x1="480.800000" y1="175.000000" x2="483.800000" y2="174.000000"  transform="rotate(0.000000,483.800000,174.000000)" style="stroke: black; stroke-width:0.25;"/>
<rect x="523.800000" y="146.000000" width="24.000000" height="24.000000" rx="0" ry="0" style="stroke:#000000;fill:#FFFFFF;"/>
<text x="535.800000" y="160.000000" font-family="Verdana" font-size="7" text-anchor="middle" fill="#000000">max</text>
<circle cx="525.800000" cy="148.000000" r="1"/>
<line x1="520.800000" y1="153.000000" x2="523.800000" y2="154.000000"  transform="rotate(0.000000,523.800000,154.000000)" style="stroke: black; stroke-width:0.25;"/>
<line x1="520.800000" y1="155.000000" x2="523.800000" y2="154.000000"  transform="rotate(0.000000,523.800000,154.000000)" style="stroke: black; stroke-width:0.25;"/>
<line x1="520.800000" y1="161.000000" x2="523.800000" y2="162.000000"  transform="rotate(0.000000,523.800000,162.000000)" style="stroke: black; stroke-width:0.25;"/>
<line x1="520.800000" y1="163.000000" x2="523.800000" y2="162.000000"  transform="rotate(0.000000,523.800000,162.000000)" style="stroke: black; stroke-width:0.25;"/>
<rect x="563.800000" y="130.000000" width="24.000000" height="24.000000" rx="0" ry="0" style="stroke:#000000;fill:#FFFFFF;"/>
<text x="575.800000" y="144.000000" font-family="Verdana" font-size="7" text-anchor="middle" fill="#000000">min</text>
<circle cx="565.800000" cy="132.000000" r="1"/>
<line x1="560.800000" y1="137.000000" x2="563.800000" y2="138.000000"  transform="rotate(0.000000,563.800000,138.000000)" style="stroke: black; stroke-width:0.25;"/>
<line x1="560.800000" y1="139.000000" x2="563.800000" y2="138.000000"  transform="rotate(0.000000,563.800000,138.000000)" style="stroke: black; stroke-width:0.25;"/>
<line x1="560.800000" y1="145.000000" x2="563.800000" y2="146.000000"  transform="rotate(0.000000,563.800000,146.000000)" style="stroke: black; stroke-width:0.25;"/>
<line x1="560.800000" y1="147.000000" x2="563.800000" y2="146.000000"  transform="rotate(0.000000,563.800000,146.000000)" style="stroke: black; stroke-width:0.25;"/>
<rect x="603.800000" y="114.000000" width="24.000000" height="24.000000" rx="0" ry="0" style="stroke:#000000;fill:#FFFFFF;"/>
<text x="615.800000" y="128.000000" font-family="Verdana" font-size="7" text-anchor="middle" fill="#000000">@</text>
<circle cx="605.800000" cy="116.000000" r="1"/>
<line x1="600.800000" y1="121.000000" x2="603.800000" y2="122.000000"  transform="rotate(0.000000,603.800000,122.000000)" style="stroke: black; stroke-width:0.25;"/>
<line x1="600.800000" y1="123.000000" x2="603.800000" y2="122.000000"  transform="rotate(0.000000,603.800000,122.000000)" style="stroke: black; stroke-width:0.25;"/>
<line x1="600.800000" y1="129.000000" x2="603.800000" y2="130.000000"  transform="rotate(0.000000,603.800000,130.000000)" style="stroke: black; stroke-width:0.25;"/>
<line x1="600.800000" y1="131.000000" x2="603.800000" y2="130.000000"  transform="rotate(0.000000,603.800000,130.000000)" style="stroke: black; stroke-width:0.25;"/>
<line x1="15.000000" y1="15.000000" x2="15.000000" y2="237.000000"  style="stroke: black; stroke-linecap:round; stroke-width:0.25; stroke-dasharray:3,3;"/>
<line x1="15.000000" y1="237.000000" x2="644.800000" y2="237.000000"  style="stroke: black; stroke-linecap:round; stroke-width:0.25; stroke-dasharray:3,3;"/>
<line x1="644.800000" y1="237.000000" x2="644.800000" y2="15.000000"  style="stroke: black; stroke-linecap:round; stroke-width:0.25; stroke-dasharray:3,3;"/>
<line x1="15.000000" y1="15.000000" x2="20.000000" y2="15.000000"  style="stroke: black; stroke-linecap:round; stroke-width:0.25; stroke-dasharray:3,3;"/>
<line x1="119.975000" y1="15.000000" x2="644.800000" y2="15.000000"  style="stroke: black; stroke-linecap:round; stroke-width:0.25; stroke-dasharray:3,3;"/>
<text x="20.000000" y="17.000000" font-family="Verdana" font-size="7">delay((1.92e+...,1 : - : int)</text>
<line x1="646.800000" y1="125.000000" x2="649.800000" y2="126.000000"  transform="rotate(0.000000,649.800000,126.000000)" style="stroke: black; stroke-width:0.25;"/>
<line x1="646.800000" y1="127.000000" x2="649.800000" y2="126.000000"  transform="rotate(0.000000,649.800000,126.000000)" style="stroke: black; stroke-width:0.25;"/>
<line x1="10.000000" y1="126.000000" x2="20.000000" y2="126.000000"  style="stroke:black; stroke-linecap:round; stroke-width:0.25;"/>
<line x1="20.000000" y1="126.000000" x2="24.000000" y2="126.000000"  style="stroke:black; stroke-linecap:round; stroke-width:0.25;"/>
<line x1="24.000000" y1="126.000000" x2="28.000000" y2="126.000000"  style="stroke:black; stroke-linecap:round; stroke-width:0.25;"/>
<line x1="28.000000" y1="126.000000" x2="28.000000" y2="126.000000"  style="stroke:black; stroke-linecap:round; stroke-width:0.25;"/>
<line x1="28.000000" y1="126.000000" x2="32.000000" y2="126.000000"  style="stroke:black; stroke-linecap:round; stroke-width:0.25;"/>
<line x1="207.700000" y1="158.000000" x2="211.700000" y2="158.000000"  style="stroke:black; stroke-linecap:round; stroke-width:0.25;"/>
<line x1="211.700000" y1="158.000000" x2="211.700000" y2="158.000000"  style="stroke:black; stroke-linecap:round; stroke-width:0.25;"/>
<line x1="211.700000" y1="158.000000" x2="221.700000" y2="158.000000"  style="stroke:black; stroke-linecap:round; stroke-width:0.25;"/>
<line x1="221.700000" y1="158.000000" x2="225.700000" y2="158.000000"  style="stroke:black; stroke-linecap:round; stroke-width:0.25;"/>
<line x1="269.250000" y1="216.000000" x2="273.250000" y2="216.000000"  style="stroke:black; stroke-linecap:round; stroke-width:0.25;"/>
<line x1="273.250000" y1="216.000000" x2="439.800000" y2="216.000000"  style="stroke:black; stroke-linecap:round; stroke-width:0.25;"/>
<line x1="305.250000" y1="100.000000" x2="309.250000" y2="100.000000"  style="stroke:black; stroke-linecap:round; stroke-width:0.25;"/>
<line x1="309.250000" y1="100.000000" x2="511.800000" y2="100.000000"  style="stroke:black; stroke-linecap:round; stroke-width:0.25;"/>
<line x1="311.100000" y1="158.000000" x2="315.100000" y2="158.000000"  style="stroke:black; stroke-linecap:round; stroke-width:0.25;"/>
<line x1="315.100000" y1="158.000000" x2="325.100000" y2="158.000000"  style="stroke:black; stroke-linecap:round; stroke-width:0.25;"/>
<line x1="325.100000" y1="142.000000" x2="333.100000" y2="142.000000"  style="stroke:black; stroke-linecap:round; stroke-width:0.25;"/>
<line x1="325.100000" y1="158.000000" x2="325.100000" y2="142.000000"  style="stroke:black; stroke-linecap:round; stroke-width:0.25;"/>
<line x1="325.100000" y1="158.000000" x2="325.100000" y2="158.000000"  style="stroke:black; stroke-linecap:round; stroke-width:0.25;"/>
<line x1="326.150000" y1="68.000000" x2="330.150000" y2="68.000000"  style="stroke:black; stroke-linecap:round; stroke-width:0.25;"/>
<line x1="330.150000" y1="68.000000" x2="551.800000" y2="68.000000"  style="stroke:black; stroke-linecap:round; stroke-width:0.25;"/>
<line x1="333.100000" y1="142.000000" x2="343.100000" y2="142.000000"  style="stroke:black; stroke-linecap:round; stroke-width:0.25;"/>
<line x1="343.100000" y1="142.000000" x2="347.100000" y2="142.000000"  style="stroke:black; stroke-linecap:round; stroke-width:0.25;"/>
<line x1="352.600000" y1="36.000000" x2="356.600000" y2="36.000000"  style="stroke:black; stroke-linecap:round; stroke-width:0.25;"/>
<line x1="356.600000" y1="36.000000" x2="591.800000" y2="36.000000"  style="stroke:black; stroke-linecap:round; stroke-width:0.25;"/>
<line x1="378.450000" y1="184.000000" x2="382.450000" y2="184.000000"  style="stroke:black; stroke-linecap:round; stroke-width:0.25;"/>
<line x1="382.450000" y1="184.000000" x2="399.800000" y2="184.000000"  style="stroke:black; stroke-linecap:round; stroke-width:0.25;"/>
<line x1="385.800000" y1="142.000000" x2="389.800000" y2="142.000000"  style="stroke:black; stroke-linecap:round; stroke-width:0.25;"/>
<line x1="389.800000" y1="142.000000" x2="399.800000" y2="142.000000"  style="stroke:black; stroke-linecap:round; stroke-width:0.25;"/>
<line x1="399.800000" y1="142.000000" x2="407.800000" y2="142.000000"  style="stroke:black; stroke-linecap:round; stroke-width:0.25;"/>
<line x1="399.800000" y1="162.000000" x2="407.800000" y2="162.000000"  style="stroke:black; stroke-linecap:round; stroke-width:0.25;"/>
<line x1="399.800000" y1="184.000000" x2="399.800000" y2="162.000000"  style="stroke:black; stroke-linecap:round; stroke-width:0.25;"/>
<line x1="399.800000" y1="184.000000" x2="399.800000" y2="184.000000"  style="stroke:black; stroke-linecap:round; stroke-width:0.25;"/>
<line x1="407.800000" y1="142.000000" x2="407.800000" y2="154.000000"  style="stroke:black; stroke-linecap:round; stroke-width:0.25;"/>
<line x1="407.800000" y1="154.000000" x2="407.800000" y2="154.000000"  style="stroke:black; stroke-linecap:round; stroke-width:0.25;"/>
<line x1="407.800000" y1="154.000000" x2="411.800000" y2="154.000000"  style="stroke:black; stroke-linecap:round; stroke-width:0.25;"/>
<line x1="407.800000" y1="162.000000" x2="411.800000" y2="162.000000"  style="stroke:black; stroke-linecap:round; stroke-width:0.25;"/>
<line x1="435.800000" y1="158.000000" x2="439.800000" y2="158.000000"  style="stroke:black; stroke-linecap:round; stroke-width:0.25;"/>
<line x1="439.800000" y1="158.000000" x2="447.800000" y2="158.000000"  style="stroke:black; stroke-linecap:round; stroke-width:0.25;"/>
<line x1="439.800000" y1="178.000000" x2="447.800000" y2="178.000000"  style="stroke:black; stroke-linecap:round; stroke-width:0.25;"/>
<line x1="439.800000" y1="216.000000" x2="439.800000" y2="178.000000"  style="stroke:black; stroke-linecap:round; stroke-width:0.25;"/>
<line x1="439.800000" y1="216.000000" x2="439.800000" y2="216.000000"  style="stroke:black; stroke-linecap:round; stroke-width:0.25;"/>
<line x1="447.800000" y1="158.000000" x2="447.800000" y2="170.000000"  style="stroke:black; stroke-linecap:round; stroke-width:0.25;"/>
<line x1="447.800000" y1="170.000000" x2="447.800000" y2="170.000000"  style="stroke:black; stroke-linecap:round; stroke-width:0.25;"/>
<line x1="447.800000" y1="170.000000" x2="451.800000" y2="170.000000"  style="stroke:black; stroke-linecap:round; stroke-width:0.25;"/>
<line x1="447.800000" y1="178.000000" x2="451.800000" y2="178.000000"  style="stroke:black; stroke-linecap:round; stroke-width:0.25;"/>
<line x1="475.800000" y1="174.000000" x2="479.800000" y2="174.000000"  style="stroke:black; stroke-linecap:round; stroke-width:0.25;"/>
<line x1="479.800000" y1="174.000000" x2="479.800000" y2="174.000000"  style="stroke:black; stroke-linecap:round; stroke-width:0.25;"/>
<line x1="479.800000" y1="174.000000" x2="483.800000" y2="174.000000"  style="stroke:black; stroke-linecap:round; stroke-width:0.25;"/>
<line x1="507.800000" y1="174.000000" x2="511.800000" y2="174.000000"  style="stroke:black; stroke-linecap:round; stroke-width:0.25;"/>
<line x1="511.800000" y1="100.000000" x2="519.800000" y2="100.000000"  style="stroke:black; stroke-linecap:round; stroke-width:0.25;"/>
<line x1="511.800000" y1="162.000000" x2="519.800000" y2="162.000000"  style="stroke:black; stroke-linecap:round; stroke-width:0.25;"/>
<line x1="511.800000" y1="174.000000" x2="511.800000" y2="162.000000"  style="stroke:black; stroke-linecap:round; stroke-width:0.25;"/>
<line x1="511.800000" y1="174.000000" x2="511.800000" y2="174.000000"  style="stroke:black; stroke-linecap:round; stroke-width:0.25;"/>
<line x1="519.800000" y1="100.000000" x2="519.800000" y2="154.000000"  style="stroke:black; stroke-linecap:round; stroke-width:0.25;"/>
<line x1="519.800000" y1="154.000000" x2="519.800000" y2="154.000000"  style="stroke:black; stroke-linecap:round; stroke-width:0.25;"/>
<line x1="519.800000" y1="154.000000" x2="523.800000" y2="154.000000"  style="stroke:black; stroke-linecap:round; stroke-width:0.25;"/>
<line x1="519.800000" y1="162.000000" x2="523.800000" y2="162.000000"  style="stroke:black; stroke-linecap:round; stroke-width:0.25;"/>
<line x1="547.800000" y1="158.000000" x2="551.800000" y2="158.000000"  style="stroke:black; stroke-linecap:round; stroke-width:0.25;"/>
<line x1="551.800000" y1="68.000000" x2="559.800000" y2="68.000000"  style="stroke:black; stroke-linecap:round; stroke-width:0.25;"/>
<line x1="551.800000" y1="146.000000" x2="559.800000" y2="146.000000"  style="stroke:black; stroke-linecap:round; stroke-width:0.25;"/>
<line x1="551.800000" y1="158.000000" x2="551.800000" y2="146.000000"  style="stroke:black; stroke-linecap:round; stroke-width:0.25;"/>
<line x1="551.800000" y1="158.000000" x2="551.800000" y2="158.000000"  style="stroke:black; stroke-linecap:round; stroke-width:0.25;"/>
<line x1="559.800000" y1="68.000000" x2="559.800000" y2="138.000000"  style="stroke:black; stroke-linecap:round; stroke-width:0.25;"/>
<line x1="559.800000" y1="138.000000" x2="559.800000" y2="138.000000"  style="stroke:black; stroke-linecap:round; stroke-width:0.25;"/>
<line x1="559.800000" y1="138.000000" x2="563.800000" y2="138.000000"  style="stroke:black; stroke-linecap:round; stroke-width:0.25;"/>
<line x1="559.800000" y1="146.000000" x2="563.800000" y2="146.000000"  style="stroke:black; stroke-linecap:round; stroke-width:0.25;"/>
<line x1="587.800000" y1="142.000000" x2="591.800000" y2="142.000000"  style="stroke:black; stroke-linecap:round; stroke-width:0.25;"/>
<line x1="591.800000" y1="36.000000" x2="599.800000" y2="36.000000"  style="stroke:black; stroke-linecap:round; stroke-width:0.25;"/>
<line x1="591.800000" y1="130.000000" x2="599.800000" y2="130.000000"  style="stroke:black; stroke-linecap:round; stroke-width:0.25;"/>
<line x1="591.800000" y1="142.000000" x2="591.800000" y2="130.000000"  style="stroke:black; stroke-linecap:round; stroke-width:0.25;"/>
<line x1="591.800000" y1="142.000000" x2="591.800000" y2="142.000000"  style="stroke:black; stroke-linecap:round; stroke-width:0.25;"/>
<line x1="599.800000" y1="36.000000" x2="599.800000" y2="122.000000"  style="stroke:black; stroke-linecap:round; stroke-width:0.25;"/>
<line x1="599.800000" y1="122.000000" x2="599.800000" y2="122.000000"  style="stroke:black; stroke-linecap:round; stroke-width:0.25;"/>
<line x1="599.800000" y1="122.000000" x2="603.800000" y2="122.000000"  style="stroke:black; stroke-linecap:round; stroke-width:0.25;"/>
<line x1="599.800000" y1="130.000000" x2="603.800000" y2="130.000000"  style="stroke:black; stroke-linecap:round; stroke-width:0.25;"/>
<line x1="627.800000" y1="126.000000" x2="631.800000" y2="126.000000"  style="stroke:black; stroke-linecap:round; stroke-width:0.25;"/>
<line x1="631.800000" y1="126.000000" x2="631.800000" y2="126.000000"  style="stroke:black; stroke-linecap:round; stroke-width:0.25;"/>
<line x1="631.800000" y1="126.000000" x2="635.800000" y2="126.000000"  style="stroke:black; stroke-linecap:round; stroke-width:0.25;"/>
<line x1="635.800000" y1="126.000000" x2="639.800000" y2="126.000000"  style="stroke:black; stroke-linecap:round; stroke-width:0.25;"/>
<line x1="639.800000" y1="126.000000" x2="649.800000" y2="126.000000"  style="stroke:black; stroke-linecap:round; stroke-width:0.25;"/>
</svg>
