<?xml version="1.0"?>
<svg xmlns="http://www.w3.org/2000/svg" xmlns:xlink="http://www.w3.org/1999/xlink" viewBox="0 0 773.200000 252.000000" width="386.600000mm" height="126.000000mm" version="1.1">
<a xlink:href="dflcv-0x6000063b6e20.svg">
<rect x="0.000000" y="0.000000" width="772.200000" height="251.000000" rx="0" ry="0" style="stroke:#000000;fill:#FFFFFF;"/>
</a>
<text x="10.000000" y="7.000000" font-family="Verdana" font-size="7"></text>
<rect x="32.000000" y="114.000000" width="38.700000" height="24.000000" rx="0" ry="0" style="stroke:#000000;fill:#FFFFFF;"/>
<text x="51.350000" y="128.000000" font-family="Verdana" font-size="7" text-anchor="middle" fill="#000000">[256] x</text>
<circle cx="34.000000" cy="116.000000" r="1"/>
<line x1="29.000000" y1="125.000000" x2="32.000000" y2="126.000000"  transform="rotate(0.000000,32.000000,126.000000)" style="stroke: black; stroke-width:0.25;"/>
<line x1="29.000000" y1="127.000000" x2="32.000000" y2="126.000000"  transform="rotate(0.000000,32.000000,126.000000)" style="stroke: black; stroke-width:0.25;"/>
<rect x="370.600000" y="24.000000" width="38.700000" height="24.000000" rx="0" ry="0" style="stroke:#000000;fill:#FFFFFF;"/>
<text x="389.950000" y="38.000000" font-family="Verdana" font-size="7" text-anchor="middle" fill="#000000">[256] x</text>
<circle cx="372.600000" cy="26.000000" r="1"/>
<a xlink:href="delmax-0x6000022c8f30.svg">
<rect x="357.050000" y="56.000000" width="25.800000" height="24.000000" rx="0" ry="0" style="stroke:#000000;fill:#FFFFFF;"/>
</a>
<a xlink:href="delmax-0x6000022c8f30.svg">
<text x="369.950000" y="70.000000" font-family="Verdana" font-size="7" text-anchor="middle" fill="#000000">delmax</text>
</a>
<circle cx="359.050000" cy="58.000000" r="1"/>
<rect x="337.950000" y="88.000000" width="24.000000" height="24.000000" rx="0" ry="0" style="stroke:#000000;fill:#FFFFFF;"/>
<text x="349.950000" y="102.000000" font-family="Verdana" font-size="7" text-anchor="middle" fill="#000000">0</text>
<circle cx="339.950000" cy="90.000000" r="1"/>
<a xlink:href="rphi-0x60000221dc20.svg">
<rect x="78.700000" y="146.000000" width="129.000000" height="24.000000" rx="0" ry="0" style="stroke:#000000;fill:#FFFFFF;"/>
</a>
<a xlink:href="rphi-0x60000221dc20.svg">
<text x="143.200000" y="160.000000" font-family="Verdana" font-size="7" text-anchor="middle" fill="#000000">rphi((1.92e+0...: min),4 : *)</text>
</a>
<circle cx="80.700000" cy="148.000000" r="1"/>
<rect x="225.700000" y="146.000000" width="38.700000" height="24.000000" rx="0" ry="0" style="stroke:#000000;fill:#FFFFFF;"/>
<text x="245.050000" y="160.000000" font-family="Verdana" font-size="7" text-anchor="middle" fill="#000000">[2] PM2</text>
<circle cx="227.700000" cy="148.000000" r="1"/>
<line x1="222.700000" y1="157.000000" x2="225.700000" y2="158.000000"  transform="rotate(0.000000,225.700000,158.000000)" style="stroke: black; stroke-width:0.25;"/>
<line x1="222.700000" y1="159.000000" x2="225.700000" y2="158.000000"  transform="rotate(0.000000,225.700000,158.000000)" style="stroke: black; stroke-width:0.25;"/>
<a xlink:href="rphi-0x600002213450.svg">
<rect x="272.400000" y="146.000000" width="38.700000" height="24.000000" rx="0" ry="0" style="stroke:#000000;fill:#FFFFFF;"/>
</a>
<a xlink:href="rphi-0x600002213450.svg">
<text x="291.750000" y="160.000000" font-family="Verdana" font-size="7" text-anchor="middle" fill="#000000">rphi(x2)</text>
</a>
<circle cx="274.400000" cy="148.000000" r="1"/>
<rect x="329.100000" y="146.000000" width="38.700000" height="24.000000" rx="0" ry="0" style="stroke:#000000;fill:#FFFFFF;"/>
<text x="348.450000" y="160.000000" font-family="Verdana" font-size="7" text-anchor="middle" fill="#000000">[3] PM3</text>
<circle cx="331.100000" cy="148.000000" r="1"/>
<line x1="326.100000" y1="157.000000" x2="329.100000" y2="158.000000"  transform="rotate(0.000000,329.100000,158.000000)" style="stroke: black; stroke-width:0.25;"/>
<line x1="326.100000" y1="159.000000" x2="329.100000" y2="158.000000"  transform="rotate(0.000000,329.100000,158.000000)" style="stroke: black; stroke-width:0.25;"/>
<rect x="375.800000" y="146.000000" width="38.700000" height="24.000000" rx="0" ry="0" style="stroke:#000000;fill:#FFFFFF;"/>
<text x="395.150000" y="160.000000" font-family="Verdana" font-size="7" text-anchor="middle" fill="#000000">[3] PM3</text>
<circle cx="377.800000" cy="148.000000" r="1"/>
<line x1="320.100000" y1="137.000000" x2="320.100000" y2="179.000000"  style="stroke: black; stroke-linecap:round; stroke-width:0.25; stroke-dasharray:3,3;"/>
<line x1="320.100000" y1="179.000000" x2="423.500000" y2="179.000000"  style="stroke: black; stroke-linecap:round; stroke-width:0.25; stroke-dasharray:3,3;"/>
<line x1="423.500000" y1="179.000000" x2="423.500000" y2="137.000000"  style="stroke: black; stroke-linecap:round; stroke-width:0.25; stroke-dasharray:3,3;"/>
<line x1="320.100000" y1="137.000000" x2="325.100000" y2="137.000000"  style="stroke: black; stroke-linecap:round; stroke-width:0.25; stroke-dasharray:3,3;"/>
<line x1="367.025000" y1="137.000000" x2="423.500000" y2="137.000000"  style="stroke: black; stroke-linecap:round; stroke-width:0.25; stroke-dasharray:3,3;"/>
<text x="325.100000" y="139.000000" font-family="Verdana" font-size="7">Abstraction</text>
<line x1="216.700000" y1="127.000000" x2="216.700000" y2="189.000000"  style="stroke: black; stroke-linecap:round; stroke-width:0.25; stroke-dasharray:3,3;"/>
<line x1="216.700000" y1="189.000000" x2="433.500000" y2="189.000000"  style="stroke: black; stroke-linecap:round; stroke-width:0.25; stroke-dasharray:3,3;"/>
<line x1="433.500000" y1="189.000000" x2="433.500000" y2="127.000000"  style="stroke: black; stroke-linecap:round; stroke-width:0.25; stroke-dasharray:3,3;"/>
<line x1="216.700000" y1="127.000000" x2="221.700000" y2="127.000000"  style="stroke: black; stroke-linecap:round; stroke-width:0.25; stroke-dasharray:3,3;"/>
<line x1="263.625000" y1="127.000000" x2="433.500000" y2="127.000000"  style="stroke: black; stroke-linecap:round; stroke-width:0.25; stroke-dasharray:3,3;"/>
<text x="221.700000" y="129.000000" font-family="Verdana" font-size="7">Abstraction</text>
<rect x="460.500000" y="130.000000" width="38.700000" height="24.000000" rx="0" ry="0" style="stroke:#000000;fill:#FFFFFF;"/>
<text x="479.850000" y="144.000000" font-family="Verdana" font-size="7" text-anchor="middle" fill="#000000">next_pr</text>
<circle cx="462.500000" cy="132.000000" r="1"/>
<line x1="457.500000" y1="141.000000" x2="460.500000" y2="142.000000"  transform="rotate(0.000000,460.500000,142.000000)" style="stroke: black; stroke-width:0.25;"/>
<line x1="457.500000" y1="143.000000" x2="460.500000" y2="142.000000"  transform="rotate(0.000000,460.500000,142.000000)" style="stroke: black; stroke-width:0.25;"/>
<line x1="451.500000" y1="121.000000" x2="451.500000" y2="163.000000"  style="stroke: black; stroke-linecap:round; stroke-width:0.25; stroke-dasharray:3,3;"/>
<line x1="451.500000" y1="163.000000" x2="508.200000" y2="163.000000"  style="stroke: black; stroke-linecap:round; stroke-width:0.25; stroke-dasharray:3,3;"/>
<line x1="508.200000" y1="163.000000" x2="508.200000" y2="121.000000"  style="stroke: black; stroke-linecap:round; stroke-width:0.25; stroke-dasharray:3,3;"/>
<line x1="451.500000" y1="121.000000" x2="456.500000" y2="121.000000"  style="stroke: black; stroke-linecap:round; stroke-width:0.25; stroke-dasharray:3,3;"/>
<line x1="469.400000" y1="121.000000" x2="508.200000" y2="121.000000"  style="stroke: black; stroke-linecap:round; stroke-width:0.25; stroke-dasharray:3,3;"/>
<text x="456.500000" y="123.000000" font-family="Verdana" font-size="7">np</text>
<rect x="467.850000" y="172.000000" width="24.000000" height="24.000000" rx="0" ry="0" style="stroke:#000000;fill:#FFFFFF;"/>
<text x="479.850000" y="186.000000" font-family="Verdana" font-size="7" text-anchor="middle" fill="#000000">1</text>
<circle cx="469.850000" cy="174.000000" r="1"/>
<rect x="525.200000" y="146.000000" width="24.000000" height="24.000000" rx="0" ry="0" style="stroke:#000000;fill:#FFFFFF;"/>
<text x="537.200000" y="160.000000" font-family="Verdana" font-size="7" text-anchor="middle" fill="#000000">max</text>
<circle cx="527.200000" cy="148.000000" r="1"/>
<line x1="522.200000" y1="153.000000" x2="525.200000" y2="154.000000"  transform="rotate(0.000000,525.200000,154.000000)" style="stroke: black; stroke-width:0.25;"/>
<line x1="522.200000" y1="155.000000" x2="525.200000" y2="154.000000"  transform="rotate(0.000000,525.200000,154.000000)" style="stroke: black; stroke-width:0.25;"/>
<line x1="522.200000" y1="161.000000" x2="525.200000" y2="162.000000"  transform="rotate(0.000000,525.200000,162.000000)" style="stroke: black; stroke-width:0.25;"/>
<line x1="522.200000" y1="163.000000" x2="525.200000" y2="162.000000"  transform="rotate(0.000000,525.200000,162.000000)" style="stroke: black; stroke-width:0.25;"/>
<rect x="301.950000" y="204.000000" width="24.000000" height="24.000000" rx="0" ry="0" style="stroke:#000000;fill:#FFFFFF;"/>
<text x="313.950000" y="218.000000" font-family="Verdana" font-size="7" text-anchor="middle" fill="#000000">1</text>
<circle cx="303.950000" cy="206.000000" r="1"/>
<rect x="565.200000" y="162.000000" width="24.000000" height="24.000000" rx="0" ry="0" style="stroke:#000000;fill:#FFFFFF;"/>
<text x="577.200000" y="176.000000" font-family="Verdana" font-size="7" text-anchor="middle" fill="#000000">-</text>
<circle cx="567.200000" cy="164.000000" r="1"/>
<line x1="562.200000" y1="169.000000" x2="565.200000" y2="170.000000"  transform="rotate(0.000000,565.200000,170.000000)" style="stroke: black; stroke-width:0.25;"/>
<line x1="562.200000" y1="171.000000" x2="565.200000" y2="170.000000"  transform="rotate(0.000000,565.200000,170.000000)" style="stroke: black; stroke-width:0.25;"/>
<line x1="562.200000" y1="177.000000" x2="565.200000" y2="178.000000"  transform="rotate(0.000000,565.200000,178.000000)" style="stroke: black; stroke-width:0.25;"/>
<line x1="562.200000" y1="179.000000" x2="565.200000" y2="178.000000"  transform="rotate(0.000000,565.200000,178.000000)" style="stroke: black; stroke-width:0.25;"/>
<rect x="597.200000" y="162.000000" width="24.000000" height="24.000000" rx="0" ry="0" style="stroke:#000000;fill:#FFFFFF;"/>
<text x="609.200000" y="176.000000" font-family="Verdana" font-size="7" text-anchor="middle" fill="#000000">int</text>
<circle cx="599.200000" cy="164.000000" r="1"/>
<line x1="594.200000" y1="173.000000" x2="597.200000" y2="174.000000"  transform="rotate(0.000000,597.200000,174.000000)" style="stroke: black; stroke-width:0.25;"/>
<line x1="594.200000" y1="175.000000" x2="597.200000" y2="174.000000"  transform="rotate(0.000000,597.200000,174.000000)" style="stroke: black; stroke-width:0.25;"/>
<rect x="637.200000" y="146.000000" width="24.000000" height="24.000000" rx="0" ry="0" style="stroke:#000000;fill:#FFFFFF;"/>
<text x="649.200000" y="160.000000" font-family="Verdana" font-size="7" text-anchor="middle" fill="#000000">max</text>
<circle cx="639.200000" cy="148.000000" r="1"/>
<line x1="634.200000" y1="153.000000" x2="637.200000" y2="154.000000"  transform="rotate(0.000000,637.200000,154.000000)" style="stroke: black; stroke-width:0.25;"/>
<line x1="634.200000" y1="155.000000" x2="637.200000" y2="154.000000"  transform="rotate(0.000000,637.200000,154.000000)" style="stroke: black; stroke-width:0.25;"/>
<line x1="634.200000" y1="161.000000" x2="637.200000" y2="162.000000"  transform="rotate(0.000000,637.200000,162.000000)" style="stroke: black; stroke-width:0.25;"/>
<line x1="634.200000" y1="163.000000" x2="637.200000" y2="162.000000"  transform="rotate(0.000000,637.200000,162.000000)" style="stroke: black; stroke-width:0.25;"/>
<rect x="677.200000" y="130.000000" width="24.000000" height="24.000000" rx="0" ry="0" style="stroke:#000000;fill:#FFFFFF;"/>
<text x="689.200000" y="144.000000" font-family="Verdana" font-size="7" text-anchor="middle" fill="#000000">min</text>
<circle cx="679.200000" cy="132.000000" r="1"/>
<line x1="674.200000" y1="137.000000" x2="677.200000" y2="138.000000"  transform="rotate(0.000000,677.200000,138.000000)" style="stroke: black; stroke-width:0.25;"/>
<line x1="674.200000" y1="139.000000" x2="677.200000" y2="138.000000"  transform="rotate(0.000000,677.200000,138.000000)" style="stroke: black; stroke-width:0.25;"/>
<line x1="674.200000" y1="145.000000" x2="677.200000" y2="146.000000"  transform="rotate(0.000000,677.200000,146.000000)" style="stroke: black; stroke-width:0.25;"/>
<line x1="674.200000" y1="147.000000" x2="677.200000" y2="146.000000"  transform="rotate(0.000000,677.200000,146.000000)" style="stroke: black; stroke-width:0.25;"/>
<rect x="717.200000" y="114.000000" width="24.000000" height="24.000000" rx="0" ry="0" style="stroke:#000000;fill:#FFFFFF;"/>
<text x="729.200000" y="128.000000" font-family="Verdana" font-size="7" text-anchor="middle" fill="#000000">@</text>
<circle cx="719.200000" cy="116.000000" r="1"/>
<line x1="714.200000" y1="121.000000" x2="717.200000" y2="122.000000"  transform="rotate(0.000000,717.200000,122.000000)" style="stroke: black; stroke-width:0.25;"/>
<line x1="714.200000" y1="123.000000" x2="717.200000" y2="122.000000"  transform="rotate(0.000000,717.200000,122.000000)" style="stroke: black; stroke-width:0.25;"/>
<line x1="714.200000" y1="129.000000" x2="717.200000" y2="130.000000"  transform="rotate(0.000000,717.200000,130.000000)" style="stroke: black; stroke-width:0.25;"/>
<line x1="714.200000" y1="131.000000" x2="717.200000" y2="130.000000"  transform="rotate(0.000000,717.200000,130.000000)" style="stroke: black; stroke-width:0.25;"/>
<line x1="15.000000" y1="15.000000" x2="15.000000" y2="237.000000"  style="stroke: black; stroke-linecap:round; stroke-width:0.25; stroke-dasharray:3,3;"/>
<line x1="15.000000" y1="237.000000" x2="758.200000" y2="237.000000"  style="stroke: black; stroke-linecap:round; stroke-width:0.25; stroke-dasharray:3,3;"/>
<line x1="758.200000" y1="237.000000" x2="758.200000" y2="15.000000"  style="stroke: black; stroke-linecap:round; stroke-width:0.25; stroke-dasharray:3,3;"/>
<line x1="15.000000" y1="15.000000" x2="20.000000" y2="15.000000"  style="stroke: black; stroke-linecap:round; stroke-width:0.25; stroke-dasharray:3,3;"/>
<line x1="119.975000" y1="15.000000" x2="758.200000" y2="15.000000"  style="stroke: black; stroke-linecap:round; stroke-width:0.25; stroke-dasharray:3,3;"/>
<text x="20.000000" y="17.000000" font-family="Verdana" font-size="7">delay((1.92e+...,1 : - : int)</text>
<line x1="760.200000" y1="125.000000" x2="763.200000" y2="126.000000"  transform="rotate(0.000000,763.200000,126.000000)" style="stroke: black; stroke-width:0.25;"/>
<line x1="760.200000" y1="127.000000" x2="763.200000" y2="126.000000"  transform="rotate(0.000000,763.200000,126.000000)" style="stroke: black; stroke-width:0.25;"/>
<line x1="10.000000" y1="126.000000" x2="20.000000" y2="126.000000"  style="stroke:black; stroke-linecap:round; stroke-width:0.25;"/>
<line x1="20.000000" y1="126.000000" x2="24.000000" y2="126.000000"  style="stroke:black; stroke-linecap:round; stroke-width:0.25;"/>
<line x1="24.000000" y1="126.000000" x2="28.000000" y2="126.000000"  style="stroke:black; stroke-linecap:round; stroke-width:0.25;"/>
<line x1="28.000000" y1="126.000000" x2="28.000000" y2="126.000000"  style="stroke:black; stroke-linecap:round; stroke-width:0.25;"/>
<line x1="28.000000" y1="126.000000" x2="32.000000" y2="126.000000"  style="stroke:black; stroke-linecap:round; stroke-width:0.25;"/>
<line x1="207.700000" y1="158.000000" x2="211.700000" y2="158.000000"  style="stroke:black; stroke-linecap:round; stroke-width:0.25;"/>
<line x1="211.700000" y1="158.000000" x2="211.700000" y2="158.000000"  style="stroke:black; stroke-linecap:round; stroke-width:0.25;"/>
<line x1="211.700000" y1="158.000000" x2="221.700000" y2="158.000000"  style="stroke:black; stroke-linecap:round; stroke-width:0.25;"/>
<line x1="221.700000" y1="158.000000" x2="225.700000" y2="158.000000"  style="stroke:black; stroke-linecap:round; stroke-width:0.25;"/>
<line x1="311.100000" y1="158.000000" x2="315.100000" y2="158.000000"  style="stroke:black; stroke-linecap:round; stroke-width:0.25;"/>
<line x1="315.100000" y1="158.000000" x2="315.100000" y2="158.000000"  style="stroke:black; stroke-linecap:round; stroke-width:0.25;"/>
<line x1="315.100000" y1="158.000000" x2="325.100000" y2="158.000000"  style="stroke:black; stroke-linecap:round; stroke-width:0.25;"/>
<line x1="325.100000" y1="158.000000" x2="329.100000" y2="158.000000"  style="stroke:black; stroke-linecap:round; stroke-width:0.25;"/>
<line x1="325.950000" y1="216.000000" x2="329.950000" y2="216.000000"  style="stroke:black; stroke-linecap:round; stroke-width:0.25;"/>
<line x1="329.950000" y1="216.000000" x2="553.200000" y2="216.000000"  style="stroke:black; stroke-linecap:round; stroke-width:0.25;"/>
<line x1="361.950000" y1="100.000000" x2="365.950000" y2="100.000000"  style="stroke:black; stroke-linecap:round; stroke-width:0.25;"/>
<line x1="365.950000" y1="100.000000" x2="625.200000" y2="100.000000"  style="stroke:black; stroke-linecap:round; stroke-width:0.25;"/>
<line x1="382.850000" y1="68.000000" x2="386.850000" y2="68.000000"  style="stroke:black; stroke-linecap:round; stroke-width:0.25;"/>
<line x1="386.850000" y1="68.000000" x2="665.200000" y2="68.000000"  style="stroke:black; stroke-linecap:round; stroke-width:0.25;"/>
<line x1="409.300000" y1="36.000000" x2="413.300000" y2="36.000000"  style="stroke:black; stroke-linecap:round; stroke-width:0.25;"/>
<line x1="413.300000" y1="36.000000" x2="705.200000" y2="36.000000"  style="stroke:black; stroke-linecap:round; stroke-width:0.25;"/>
<line x1="414.500000" y1="158.000000" x2="418.500000" y2="158.000000"  style="stroke:black; stroke-linecap:round; stroke-width:0.25;"/>
<line x1="418.500000" y1="158.000000" x2="428.500000" y2="158.000000"  style="stroke:black; stroke-linecap:round; stroke-width:0.25;"/>
<line x1="428.500000" y1="158.000000" x2="438.500000" y2="158.000000"  style="stroke:black; stroke-linecap:round; stroke-width:0.25;"/>
<line x1="438.500000" y1="142.000000" x2="446.500000" y2="142.000000"  style="stroke:black; stroke-linecap:round; stroke-width:0.25;"/>
<line x1="438.500000" y1="158.000000" x2="438.500000" y2="142.000000"  style="stroke:black; stroke-linecap:round; stroke-width:0.25;"/>
<line x1="438.500000" y1="158.000000" x2="438.500000" y2="158.000000"  style="stroke:black; stroke-linecap:round; stroke-width:0.25;"/>
<line x1="446.500000" y1="142.000000" x2="456.500000" y2="142.000000"  style="stroke:black; stroke-linecap:round; stroke-width:0.25;"/>
<line x1="456.500000" y1="142.000000" x2="460.500000" y2="142.000000"  style="stroke:black; stroke-linecap:round; stroke-width:0.25;"/>
<line x1="491.850000" y1="184.000000" x2="495.850000" y2="184.000000"  style="stroke:black; stroke-linecap:round; stroke-width:0.25;"/>
<line x1="495.850000" y1="184.000000" x2="513.200000" y2="184.000000"  style="stroke:black; stroke-linecap:round; stroke-width:0.25;"/>
<line x1="499.200000" y1="142.000000" x2="503.200000" y2="142.000000"  style="stroke:black; stroke-linecap:round; stroke-width:0.25;"/>
<line x1="503.200000" y1="142.000000" x2="513.200000" y2="142.000000"  style="stroke:black; stroke-linecap:round; stroke-width:0.25;"/>
<line x1="513.200000" y1="142.000000" x2="521.200000" y2="142.000000"  style="stroke:black; stroke-linecap:round; stroke-width:0.25;"/>
<line x1="513.200000" y1="162.000000" x2="521.200000" y2="162.000000"  style="stroke:black; stroke-linecap:round; stroke-width:0.25;"/>
<line x1="513.200000" y1="184.000000" x2="513.200000" y2="162.000000"  style="stroke:black; stroke-linecap:round; stroke-width:0.25;"/>
<line x1="513.200000" y1="184.000000" x2="513.200000" y2="184.000000"  style="stroke:black; stroke-linecap:round; stroke-width:0.25;"/>
<line x1="521.200000" y1="142.000000" x2="521.200000" y2="154.000000"  style="stroke:black; stroke-linecap:round; stroke-width:0.25;"/>
<line x1="521.200000" y1="154.000000" x2="521.200000" y2="154.000000"  style="stroke:black; stroke-linecap:round; stroke-width:0.25;"/>
<line x1="521.200000" y1="154.000000" x2="525.200000" y2="154.000000"  style="stroke:black; stroke-linecap:round; stroke-width:0.25;"/>
<line x1="521.200000" y1="162.000000" x2="525.200000" y2="162.000000"  style="stroke:black; stroke-linecap:round; stroke-width:0.25;"/>
<line x1="549.200000" y1="158.000000" x2="553.200000" y2="158.000000"  style="stroke:black; stroke-linecap:round; stroke-width:0.25;"/>
<line x1="553.200000" y1="158.000000" x2="561.200000" y2="158.000000"  style="stroke:black; stroke-linecap:round; stroke-width:0.25;"/>
<line x1="553.200000" y1="178.000000" x2="561.200000" y2="178.000000"  style="stroke:black; stroke-linecap:round; stroke-width:0.25;"/>
<line x1="553.200000" y1="216.000000" x2="553.200000" y2="178.000000"  style="stroke:black; stroke-linecap:round; stroke-width:0.25;"/>
<line x1="553.200000" y1="216.000000" x2="553.200000" y2="216.000000"  style="stroke:black; stroke-linecap:round; stroke-width:0.25;"/>
<line x1="561.200000" y1="158.000000" x2="561.200000" y2="170.000000"  style="stroke:black; stroke-linecap:round; stroke-width:0.25;"/>
<line x1="561.200000" y1="170.000000" x2="561.200000" y2="170.000000"  style="stroke:black; stroke-linecap:round; stroke-width:0.25;"/>
<line x1="561.200000" y1="170.000000" x2="565.200000" y2="170.000000"  style="stroke:black; stroke-linecap:round; stroke-width:0.25;"/>
<line x1="561.200000" y1="178.000000" x2="565.200000" y2="178.000000"  style="stroke:black; stroke-linecap:round; stroke-width:0.25;"/>
<line x1="589.200000" y1="174.000000" x2="593.200000" y2="174.000000"  style="stroke:black; stroke-linecap:round; stroke-width:0.25;"/>
<line x1="593.200000" y1="174.000000" x2="593.200000" y2="174.000000"  style="stroke:black; stroke-linecap:round; stroke-width:0.25;"/>
<line x1="593.200000" y1="174.000000" x2="597.200000" y2="174.000000"  style="stroke:black; stroke-linecap:round; stroke-width:0.25;"/>
<line x1="621.200000" y1="174.000000" x2="625.200000" y2="174.000000"  style="stroke:black; stroke-linecap:round; stroke-width:0.25;"/>
<line x1="625.200000" y1="100.000000" x2="633.200000" y2="100.000000"  style="stroke:black; stroke-linecap:round; stroke-width:0.25;"/>
<line x1="625.200000" y1="162.000000" x2="633.200000" y2="162.000000"  style="stroke:black; stroke-linecap:round; stroke-width:0.25;"/>
<line x1="625.200000" y1="174.000000" x2="625.200000" y2="162.000000"  style="stroke:black; stroke-linecap:round; stroke-width:0.25;"/>
<line x1="625.200000" y1="174.000000" x2="625.200000" y2="174.000000"  style="stroke:black; stroke-linecap:round; stroke-width:0.25;"/>
<line x1="633.200000" y1="100.000000" x2="633.200000" y2="154.000000"  style="stroke:black; stroke-linecap:round; stroke-width:0.25;"/>
<line x1="633.200000" y1="154.000000" x2="633.200000" y2="154.000000"  style="stroke:black; stroke-linecap:round; stroke-width:0.25;"/>
<line x1="633.200000" y1="154.000000" x2="637.200000" y2="154.000000"  style="stroke:black; stroke-linecap:round; stroke-width:0.25;"/>
<line x1="633.200000" y1="162.000000" x2="637.200000" y2="162.000000"  style="stroke:black; stroke-linecap:round; stroke-width:0.25;"/>
<line x1="661.200000" y1="158.000000" x2="665.200000" y2="158.000000"  style="stroke:black; stroke-linecap:round; stroke-width:0.25;"/>
<line x1="665.200000" y1="68.000000" x2="673.200000" y2="68.000000"  style="stroke:black; stroke-linecap:round; stroke-width:0.25;"/>
<line x1="665.200000" y1="146.000000" x2="673.200000" y2="146.000000"  style="stroke:black; stroke-linecap:round; stroke-width:0.25;"/>
<line x1="665.200000" y1="158.000000" x2="665.200000" y2="146.000000"  style="stroke:black; stroke-linecap:round; stroke-width:0.25;"/>
<line x1="665.200000" y1="158.000000" x2="665.200000" y2="158.000000"  style="stroke:black; stroke-linecap:round; stroke-width:0.25;"/>
<line x1="673.200000" y1="68.000000" x2="673.200000" y2="138.000000"  style="stroke:black; stroke-linecap:round; stroke-width:0.25;"/>
<line x1="673.200000" y1="138.000000" x2="673.200000" y2="138.000000"  style="stroke:black; stroke-linecap:round; stroke-width:0.25;"/>
<line x1="673.200000" y1="138.000000" x2="677.200000" y2="138.000000"  style="stroke:black; stroke-linecap:round; stroke-width:0.25;"/>
<line x1="673.200000" y1="146.000000" x2="677.200000" y2="146.000000"  style="stroke:black; stroke-linecap:round; stroke-width:0.25;"/>
<line x1="701.200000" y1="142.000000" x2="705.200000" y2="142.000000"  style="stroke:black; stroke-linecap:round; stroke-width:0.25;"/>
<line x1="705.200000" y1="36.000000" x2="713.200000" y2="36.000000"  style="stroke:black; stroke-linecap:round; stroke-width:0.25;"/>
<line x1="705.200000" y1="130.000000" x2="713.200000" y2="130.000000"  style="stroke:black; stroke-linecap:round; stroke-width:0.25;"/>
<line x1="705.200000" y1="142.000000" x2="705.200000" y2="130.000000"  style="stroke:black; stroke-linecap:round; stroke-width:0.25;"/>
<line x1="705.200000" y1="142.000000" x2="705.200000" y2="142.000000"  style="stroke:black; stroke-linecap:round; stroke-width:0.25;"/>
<line x1="713.200000" y1="36.000000" x2="713.200000" y2="122.000000"  style="stroke:black; stroke-linecap:round; stroke-width:0.25;"/>
<line x1="713.200000" y1="122.000000" x2="713.200000" y2="122.000000"  style="stroke:black; stroke-linecap:round; stroke-width:0.25;"/>
<line x1="713.200000" y1="122.000000" x2="717.200000" y2="122.000000"  style="stroke:black; stroke-linecap:round; stroke-width:0.25;"/>
<line x1="713.200000" y1="130.000000" x2="717.200000" y2="130.000000"  style="stroke:black; stroke-linecap:round; stroke-width:0.25;"/>
<line x1="741.200000" y1="126.000000" x2="745.200000" y2="126.000000"  style="stroke:black; stroke-linecap:round; stroke-width:0.25;"/>
<line x1="745.200000" y1="126.000000" x2="745.200000" y2="126.000000"  style="stroke:black; stroke-linecap:round; stroke-width:0.25;"/>
<line x1="745.200000" y1="126.000000" x2="749.200000" y2="126.000000"  style="stroke:black; stroke-linecap:round; stroke-width:0.25;"/>
<line x1="749.200000" y1="126.000000" x2="753.200000" y2="126.000000"  style="stroke:black; stroke-linecap:round; stroke-width:0.25;"/>
<line x1="753.200000" y1="126.000000" x2="763.200000" y2="126.000000"  style="stroke:black; stroke-linecap:round; stroke-width:0.25;"/>
</svg>
