<?xml version="1.0"?>
<svg xmlns="http://www.w3.org/2000/svg" xmlns:xlink="http://www.w3.org/1999/xlink" viewBox="0 0 1000.000000 280.000000" width="500.000000mm" height="140.000000mm" version="1.1">
<a xlink:href="dflcv-0x600006365200.svg">
<rect x="0.000000" y="0.000000" width="999.000000" height="279.000000" rx="0" ry="0" style="stroke:#000000;fill:#FFFFFF;"/>
</a>
<text x="10.000000" y="7.000000" font-family="Verdana" font-size="7"></text>
<rect x="32.000000" y="128.000000" width="38.700000" height="24.000000" rx="0" ry="0" style="stroke:#000000;fill:#FFFFFF;"/>
<text x="51.350000" y="142.000000" font-family="Verdana" font-size="7" text-anchor="middle" fill="#000000">[258] x</text>
<circle cx="34.000000" cy="130.000000" r="1"/>
<line x1="29.000000" y1="139.000000" x2="32.000000" y2="140.000000"  transform="rotate(0.000000,32.000000,140.000000)" style="stroke: black; stroke-width:0.25;"/>
<line x1="29.000000" y1="141.000000" x2="32.000000" y2="140.000000"  transform="rotate(0.000000,32.000000,140.000000)" style="stroke: black; stroke-width:0.25;"/>
<rect x="484.000000" y="24.000000" width="38.700000" height="24.000000" rx="0" ry="0" style="stroke:#000000;fill:#FFFFFF;"/>
<text x="503.350000" y="38.000000" font-family="Verdana" font-size="7" text-anchor="middle" fill="#000000">[258] x</text>
<circle cx="486.000000" cy="26.000000" r="1"/>
<a xlink:href="delmax-0x6000022c8f30.svg">
<rect x="470.450000" y="56.000000" width="25.800000" height="24.000000" rx="0" ry="0" style="stroke:#000000;fill:#FFFFFF;"/>
</a>
<a xlink:href="delmax-0x6000022c8f30.svg">
<text x="483.350000" y="70.000000" font-family="Verdana" font-size="7" text-anchor="middle" fill="#000000">delmax</text>
</a>
<circle cx="472.450000" cy="58.000000" r="1"/>
<rect x="451.350000" y="88.000000" width="24.000000" height="24.000000" rx="0" ry="0" style="stroke:#000000;fill:#FFFFFF;"/>
<text x="463.350000" y="102.000000" font-family="Verdana" font-size="7" text-anchor="middle" fill="#000000">0</text>
<circle cx="453.350000" cy="90.000000" r="1"/>
<a xlink:href="rphi-0x60000221dc20.svg">
<rect x="78.700000" y="160.000000" width="129.000000" height="24.000000" rx="0" ry="0" style="stroke:#000000;fill:#FFFFFF;"/>
</a>
<a xlink:href="rphi-0x60000221dc20.svg">
<text x="143.200000" y="174.000000" font-family="Verdana" font-size="7" text-anchor="middle" fill="#000000">rphi((1.92e+0...: min),4 : *)</text>
</a>
<circle cx="80.700000" cy="162.000000" r="1"/>
<rect x="225.700000" y="160.000000" width="38.700000" height="24.000000" rx="0" ry="0" style="stroke:#000000;fill:#FFFFFF;"/>
<text x="245.050000" y="174.000000" font-family="Verdana" font-size="7" text-anchor="middle" fill="#000000">[7] PM7</text>
<circle cx="227.700000" cy="162.000000" r="1"/>
<line x1="222.700000" y1="171.000000" x2="225.700000" y2="172.000000"  transform="rotate(0.000000,225.700000,172.000000)" style="stroke: black; stroke-width:0.25;"/>
<line x1="222.700000" y1="173.000000" x2="225.700000" y2="172.000000"  transform="rotate(0.000000,225.700000,172.000000)" style="stroke: black; stroke-width:0.25;"/>
<a xlink:href="rphi-0x600002209e60.svg">
<rect x="272.400000" y="160.000000" width="38.700000" height="24.000000" rx="0" ry="0" style="stroke:#000000;fill:#FFFFFF;"/>
</a>
<a xlink:href="rphi-0x600002209e60.svg">
<text x="291.750000" y="174.000000" font-family="Verdana" font-size="7" text-anchor="middle" fill="#000000">rphi(x7)</text>
</a>
<circle cx="274.400000" cy="162.000000" r="1"/>
<rect x="329.100000" y="160.000000" width="38.700000" height="24.000000" rx="0" ry="0" style="stroke:#000000;fill:#FFFFFF;"/>
<text x="348.450000" y="174.000000" font-family="Verdana" font-size="7" text-anchor="middle" fill="#000000">[8] PM8</text>
<circle cx="331.100000" cy="162.000000" r="1"/>
<line x1="326.100000" y1="171.000000" x2="329.100000" y2="172.000000"  transform="rotate(0.000000,329.100000,172.000000)" style="stroke: black; stroke-width:0.25;"/>
<line x1="326.100000" y1="173.000000" x2="329.100000" y2="172.000000"  transform="rotate(0.000000,329.100000,172.000000)" style="stroke: black; stroke-width:0.25;"/>
<a xlink:href="rphi-0x60000220bc30.svg">
<rect x="375.800000" y="160.000000" width="38.700000" height="24.000000" rx="0" ry="0" style="stroke:#000000;fill:#FFFFFF;"/>
</a>
<a xlink:href="rphi-0x60000220bc30.svg">
<text x="395.150000" y="174.000000" font-family="Verdana" font-size="7" text-anchor="middle" fill="#000000">rphi(x8)</text>
</a>
<circle cx="377.800000" cy="162.000000" r="1"/>
<rect x="432.500000" y="160.000000" width="38.700000" height="24.000000" rx="0" ry="0" style="stroke:#000000;fill:#FFFFFF;"/>
<text x="451.850000" y="174.000000" font-family="Verdana" font-size="7" text-anchor="middle" fill="#000000">[9] PM9</text>
<circle cx="434.500000" cy="162.000000" r="1"/>
<line x1="429.500000" y1="171.000000" x2="432.500000" y2="172.000000"  transform="rotate(0.000000,432.500000,172.000000)" style="stroke: black; stroke-width:0.25;"/>
<line x1="429.500000" y1="173.000000" x2="432.500000" y2="172.000000"  transform="rotate(0.000000,432.500000,172.000000)" style="stroke: black; stroke-width:0.25;"/>
<a xlink:href="rphi-0x60000220da70.svg">
<rect x="479.200000" y="160.000000" width="38.700000" height="24.000000" rx="0" ry="0" style="stroke:#000000;fill:#FFFFFF;"/>
</a>
<a xlink:href="rphi-0x60000220da70.svg">
<text x="498.550000" y="174.000000" font-family="Verdana" font-size="7" text-anchor="middle" fill="#000000">rphi(x9)</text>
</a>
<circle cx="481.200000" cy="162.000000" r="1"/>
<rect x="535.900000" y="160.000000" width="38.700000" height="24.000000" rx="0" ry="0" style="stroke:#000000;fill:#FFFFFF;"/>
<text x="555.250000" y="174.000000" font-family="Verdana" font-size="7" text-anchor="middle" fill="#000000">[10] PM10</text>
<circle cx="537.900000" cy="162.000000" r="1"/>
<line x1="532.900000" y1="171.000000" x2="535.900000" y2="172.000000"  transform="rotate(0.000000,535.900000,172.000000)" style="stroke: black; stroke-width:0.25;"/>
<line x1="532.900000" y1="173.000000" x2="535.900000" y2="172.000000"  transform="rotate(0.000000,535.900000,172.000000)" style="stroke: black; stroke-width:0.25;"/>
<rect x="582.600000" y="160.000000" width="38.700000" height="24.000000" rx="0" ry="0" style="stroke:#000000;fill:#FFFFFF;"/>
<text x="601.950000" y="174.000000" font-family="Verdana" font-size="7" text-anchor="middle" fill="#000000">[10] PM10</text>
<circle cx="584.600000" cy="162.000000" r="1"/>
<line x1="526.900000" y1="151.000000" x2="526.900000" y2="193.000000"  style="stroke: black; stroke-linecap:round; stroke-width:0.25; stroke-dasharray:3,3;"/>
<line x1="526.900000" y1="193.000000" x2="630.300000" y2="193.000000"  style="stroke: black; stroke-linecap:round; stroke-width:0.25; stroke-dasharray:3,3;"/>
<line x1="630.300000" y1="193.000000" x2="630.300000" y2="151.000000"  style="stroke: black; stroke-linecap:round; stroke-width:0.25; stroke-dasharray:3,3;"/>
<line x1="526.900000" y1="151.000000" x2="531.900000" y2="151.000000"  style="stroke: black; stroke-linecap:round; stroke-width:0.25; stroke-dasharray:3,3;"/>
<line x1="573.825000" y1="151.000000" x2="630.300000" y2="151.000000"  style="stroke: black; stroke-linecap:round; stroke-width:0.25; stroke-dasharray:3,3;"/>
<text x="531.900000" y="153.000000" font-family="Verdana" font-size="7">Abstraction</text>
<line x1="423.500000" y1="141.000000" x2="423.500000" y2="203.000000"  style="stroke: black; stroke-linecap:round; stroke-width:0.25; stroke-dasharray:3,3;"/>
<line x1="423.500000" y1="203.000000" x2="640.300000" y2="203.000000"  style="stroke: black; stroke-linecap:round; stroke-width:0.25; stroke-dasharray:3,3;"/>
<line x1="640.300000" y1="203.000000" x2="640.300000" y2="141.000000"  style="stroke: black; stroke-linecap:round; stroke-width:0.25; stroke-dasharray:3,3;"/>
<line x1="423.500000" y1="141.000000" x2="428.500000" y2="141.000000"  style="stroke: black; stroke-linecap:round; stroke-width:0.25; stroke-dasharray:3,3;"/>
<line x1="470.425000" y1="141.000000" x2="640.300000" y2="141.000000"  style="stroke: black; stroke-linecap:round; stroke-width:0.25; stroke-dasharray:3,3;"/>
<text x="428.500000" y="143.000000" font-family="Verdana" font-size="7">Abstraction</text>
<line x1="320.100000" y1="131.000000" x2="320.100000" y2="213.000000"  style="stroke: black; stroke-linecap:round; stroke-width:0.25; stroke-dasharray:3,3;"/>
<line x1="320.100000" y1="213.000000" x2="650.300000" y2="213.000000"  style="stroke: black; stroke-linecap:round; stroke-width:0.25; stroke-dasharray:3,3;"/>
<line x1="650.300000" y1="213.000000" x2="650.300000" y2="131.000000"  style="stroke: black; stroke-linecap:round; stroke-width:0.25; stroke-dasharray:3,3;"/>
<line x1="320.100000" y1="131.000000" x2="325.100000" y2="131.000000"  style="stroke: black; stroke-linecap:round; stroke-width:0.25; stroke-dasharray:3,3;"/>
<line x1="367.025000" y1="131.000000" x2="650.300000" y2="131.000000"  style="stroke: black; stroke-linecap:round; stroke-width:0.25; stroke-dasharray:3,3;"/>
<text x="325.100000" y="133.000000" font-family="Verdana" font-size="7">Abstraction</text>
<line x1="216.700000" y1="121.000000" x2="216.700000" y2="223.000000"  style="stroke: black; stroke-linecap:round; stroke-width:0.25; stroke-dasharray:3,3;"/>
<line x1="216.700000" y1="223.000000" x2="660.300000" y2="223.000000"  style="stroke: black; stroke-linecap:round; stroke-width:0.25; stroke-dasharray:3,3;"/>
<line x1="660.300000" y1="223.000000" x2="660.300000" y2="121.000000"  style="stroke: black; stroke-linecap:round; stroke-width:0.25; stroke-dasharray:3,3;"/>
<line x1="216.700000" y1="121.000000" x2="221.700000" y2="121.000000"  style="stroke: black; stroke-linecap:round; stroke-width:0.25; stroke-dasharray:3,3;"/>
<line x1="263.625000" y1="121.000000" x2="660.300000" y2="121.000000"  style="stroke: black; stroke-linecap:round; stroke-width:0.25; stroke-dasharray:3,3;"/>
<text x="221.700000" y="123.000000" font-family="Verdana" font-size="7">Abstraction</text>
<rect x="687.300000" y="144.000000" width="38.700000" height="24.000000" rx="0" ry="0" style="stroke:#000000;fill:#FFFFFF;"/>
<text x="706.650000" y="158.000000" font-family="Verdana" font-size="7" text-anchor="middle" fill="#000000">next_pr</text>
<circle cx="689.300000" cy="146.000000" r="1"/>
<line x1="684.300000" y1="155.000000" x2="687.300000" y2="156.000000"  transform="rotate(0.000000,687.300000,156.000000)" style="stroke: black; stroke-width:0.25;"/>
<line x1="684.300000" y1="157.000000" x2="687.300000" y2="156.000000"  transform="rotate(0.000000,687.300000,156.000000)" style="stroke: black; stroke-width:0.25;"/>
<line x1="678.300000" y1="135.000000" x2="678.300000" y2="177.000000"  style="stroke: black; stroke-linecap:round; stroke-width:0.25; stroke-dasharray:3,3;"/>
<line x1="678.300000" y1="177.000000" x2="735.000000" y2="177.000000"  style="stroke: black; stroke-linecap:round; stroke-width:0.25; stroke-dasharray:3,3;"/>
<line x1="735.000000" y1="177.000000" x2="735.000000" y2="135.000000"  style="stroke: black; stroke-linecap:round; stroke-width:0.25; stroke-dasharray:3,3;"/>
<line x1="678.300000" y1="135.000000" x2="683.300000" y2="135.000000"  style="stroke: black; stroke-linecap:round; stroke-width:0.25; stroke-dasharray:3,3;"/>
<line x1="696.200000" y1="135.000000" x2="735.000000" y2="135.000000"  style="stroke: black; stroke-linecap:round; stroke-width:0.25; stroke-dasharray:3,3;"/>
<text x="683.300000" y="137.000000" font-family="Verdana" font-size="7">np</text>
<rect x="694.650000" y="186.000000" width="24.000000" height="24.000000" rx="0" ry="0" style="stroke:#000000;fill:#FFFFFF;"/>
<text x="706.650000" y="200.000000" font-family="Verdana" font-size="7" text-anchor="middle" fill="#000000">1</text>
<circle cx="696.650000" cy="188.000000" r="1"/>
<rect x="752.000000" y="160.000000" width="24.000000" height="24.000000" rx="0" ry="0" style="stroke:#000000;fill:#FFFFFF;"/>
<text x="764.000000" y="174.000000" font-family="Verdana" font-size="7" text-anchor="middle" fill="#000000">max</text>
<circle cx="754.000000" cy="162.000000" r="1"/>
<line x1="749.000000" y1="167.000000" x2="752.000000" y2="168.000000"  transform="rotate(0.000000,752.000000,168.000000)" style="stroke: black; stroke-width:0.25;"/>
<line x1="749.000000" y1="169.000000" x2="752.000000" y2="168.000000"  transform="rotate(0.000000,752.000000,168.000000)" style="stroke: black; stroke-width:0.25;"/>
<line x1="749.000000" y1="175.000000" x2="752.000000" y2="176.000000"  transform="rotate(0.000000,752.000000,176.000000)" style="stroke: black; stroke-width:0.25;"/>
<line x1="749.000000" y1="177.000000" x2="752.000000" y2="176.000000"  transform="rotate(0.000000,752.000000,176.000000)" style="stroke: black; stroke-width:0.25;"/>
<rect x="415.350000" y="232.000000" width="24.000000" height="24.000000" rx="0" ry="0" style="stroke:#000000;fill:#FFFFFF;"/>
<text x="427.350000" y="246.000000" font-family="Verdana" font-size="7" text-anchor="middle" fill="#000000">1</text>
<circle cx="417.350000" cy="234.000000" r="1"/>
<rect x="792.000000" y="176.000000" width="24.000000" height="24.000000" rx="0" ry="0" style="stroke:#000000;fill:#FFFFFF;"/>
<text x="804.000000" y="190.000000" font-family="Verdana" font-size="7" text-anchor="middle" fill="#000000">-</text>
<circle cx="794.000000" cy="178.000000" r="1"/>
<line x1="789.000000" y1="183.000000" x2="792.000000" y2="184.000000"  transform="rotate(0.000000,792.000000,184.000000)" style="stroke: black; stroke-width:0.25;"/>
<line x1="789.000000" y1="185.000000" x2="792.000000" y2="184.000000"  transform="rotate(0.000000,792.000000,184.000000)" style="stroke: black; stroke-width:0.25;"/>
<line x1="789.000000" y1="191.000000" x2="792.000000" y2="192.000000"  transform="rotate(0.000000,792.000000,192.000000)" style="stroke: black; stroke-width:0.25;"/>
<line x1="789.000000" y1="193.000000" x2="792.000000" y2="192.000000"  transform="rotate(0.000000,792.000000,192.000000)" style="stroke: black; stroke-width:0.25;"/>
<rect x="824.000000" y="176.000000" width="24.000000" height="24.000000" rx="0" ry="0" style="stroke:#000000;fill:#FFFFFF;"/>
<text x="836.000000" y="190.000000" font-family="Verdana" font-size="7" text-anchor="middle" fill="#000000">int</text>
<circle cx="826.000000" cy="178.000000" r="1"/>
<line x1="821.000000" y1="187.000000" x2="824.000000" y2="188.000000"  transform="rotate(0.000000,824.000000,188.000000)" style="stroke: black; stroke-width:0.25;"/>
<line x1="821.000000" y1="189.000000" x2="824.000000" y2="188.000000"  transform="rotate(0.000000,824.000000,188.000000)" style="stroke: black; stroke-width:0.25;"/>
<rect x="864.000000" y="160.000000" width="24.000000" height="24.000000" rx="0" ry="0" style="stroke:#000000;fill:#FFFFFF;"/>
<text x="876.000000" y="174.000000" font-family="Verdana" font-size="7" text-anchor="middle" fill="#000000">max</text>
<circle cx="866.000000" cy="162.000000" r="1"/>
<line x1="861.000000" y1="167.000000" x2="864.000000" y2="168.000000"  transform="rotate(0.000000,864.000000,168.000000)" style="stroke: black; stroke-width:0.25;"/>
<line x1="861.000000" y1="169.000000" x2="864.000000" y2="168.000000"  transform="rotate(0.000000,864.000000,168.000000)" style="stroke: black; stroke-width:0.25;"/>
<line x1="861.000000" y1="175.000000" x2="864.000000" y2="176.000000"  transform="rotate(0.000000,864.000000,176.000000)" style="stroke: black; stroke-width:0.25;"/>
<line x1="861.000000" y1="177.000000" x2="864.000000" y2="176.000000"  transform="rotate(0.000000,864.000000,176.000000)" style="stroke: black; stroke-width:0.25;"/>
<rect x="904.000000" y="144.000000" width="24.000000" height="24.000000" rx="0" ry="0" style="stroke:#000000;fill:#FFFFFF;"/>
<text x="916.000000" y="158.000000" font-family="Verdana" font-size="7" text-anchor="middle" fill="#000000">min</text>
<circle cx="906.000000" cy="146.000000" r="1"/>
<line x1="901.000000" y1="151.000000" x2="904.000000" y2="152.000000"  transform="rotate(0.000000,904.000000,152.000000)" style="stroke: black; stroke-width:0.25;"/>
<line x1="901.000000" y1="153.000000" x2="904.000000" y2="152.000000"  transform="rotate(0.000000,904.000000,152.000000)" style="stroke: black; stroke-width:0.25;"/>
<line x1="901.000000" y1="159.000000" x2="904.000000" y2="160.000000"  transform="rotate(0.000000,904.000000,160.000000)" style="stroke: black; stroke-width:0.25;"/>
<line x1="901.000000" y1="161.000000" x2="904.000000" y2="160.000000"  transform="rotate(0.000000,904.000000,160.000000)" style="stroke: black; stroke-width:0.25;"/>
<rect x="944.000000" y="128.000000" width="24.000000" height="24.000000" rx="0" ry="0" style="stroke:#000000;fill:#FFFFFF;"/>
<text x="956.000000" y="142.000000" font-family="Verdana" font-size="7" text-anchor="middle" fill="#000000">@</text>
<circle cx="946.000000" cy="130.000000" r="1"/>
<line x1="941.000000" y1="135.000000" x2="944.000000" y2="136.000000"  transform="rotate(0.000000,944.000000,136.000000)" style="stroke: black; stroke-width:0.25;"/>
<line x1="941.000000" y1="137.000000" x2="944.000000" y2="136.000000"  transform="rotate(0.000000,944.000000,136.000000)" style="stroke: black; stroke-width:0.25;"/>
<line x1="941.000000" y1="143.000000" x2="944.000000" y2="144.000000"  transform="rotate(0.000000,944.000000,144.000000)" style="stroke: black; stroke-width:0.25;"/>
<line x1="941.000000" y1="145.000000" x2="944.000000" y2="144.000000"  transform="rotate(0.000000,944.000000,144.000000)" style="stroke: black; stroke-width:0.25;"/>
<line x1="15.000000" y1="15.000000" x2="15.000000" y2="265.000000"  style="stroke: black; stroke-linecap:round; stroke-width:0.25; stroke-dasharray:3,3;"/>
<line x1="15.000000" y1="265.000000" x2="985.000000" y2="265.000000"  style="stroke: black; stroke-linecap:round; stroke-width:0.25; stroke-dasharray:3,3;"/>
<line x1="985.000000" y1="265.000000" x2="985.000000" y2="15.000000"  style="stroke: black; stroke-linecap:round; stroke-width:0.25; stroke-dasharray:3,3;"/>
<line x1="15.000000" y1="15.000000" x2="20.000000" y2="15.000000"  style="stroke: black; stroke-linecap:round; stroke-width:0.25; stroke-dasharray:3,3;"/>
<line x1="119.975000" y1="15.000000" x2="985.000000" y2="15.000000"  style="stroke: black; stroke-linecap:round; stroke-width:0.25; stroke-dasharray:3,3;"/>
<text x="20.000000" y="17.000000" font-family="Verdana" font-size="7">delay((1.92e+...,1 : - : int)</text>
<line x1="987.000000" y1="139.000000" x2="990.000000" y2="140.000000"  transform="rotate(0.000000,990.000000,140.000000)" style="stroke: black; stroke-width:0.25;"/>
<line x1="987.000000" y1="141.000000" x2="990.000000" y2="140.000000"  transform="rotate(0.000000,990.000000,140.000000)" style="stroke: black; stroke-width:0.25;"/>
<line x1="10.000000" y1="140.000000" x2="20.000000" y2="140.000000"  style="stroke:black; stroke-linecap:round; stroke-width:0.25;"/>
<line x1="20.000000" y1="140.000000" x2="24.000000" y2="140.000000"  style="stroke:black; stroke-linecap:round; stroke-width:0.25;"/>
<line x1="24.000000" y1="140.000000" x2="28.000000" y2="140.000000"  style="stroke:black; stroke-linecap:round; stroke-width:0.25;"/>
<line x1="28.000000" y1="140.000000" x2="28.000000" y2="140.000000"  style="stroke:black; stroke-linecap:round; stroke-width:0.25;"/>
<line x1="28.000000" y1="140.000000" x2="32.000000" y2="140.000000"  style="stroke:black; stroke-linecap:round; stroke-width:0.25;"/>
<line x1="207.700000" y1="172.000000" x2="211.700000" y2="172.000000"  style="stroke:black; stroke-linecap:round; stroke-width:0.25;"/>
<line x1="211.700000" y1="172.000000" x2="211.700000" y2="172.000000"  style="stroke:black; stroke-linecap:round; stroke-width:0.25;"/>
<line x1="211.700000" y1="172.000000" x2="221.700000" y2="172.000000"  style="stroke:black; stroke-linecap:round; stroke-width:0.25;"/>
<line x1="221.700000" y1="172.000000" x2="225.700000" y2="172.000000"  style="stroke:black; stroke-linecap:round; stroke-width:0.25;"/>
<line x1="311.100000" y1="172.000000" x2="315.100000" y2="172.000000"  style="stroke:black; stroke-linecap:round; stroke-width:0.25;"/>
<line x1="315.100000" y1="172.000000" x2="315.100000" y2="172.000000"  style="stroke:black; stroke-linecap:round; stroke-width:0.25;"/>
<line x1="315.100000" y1="172.000000" x2="325.100000" y2="172.000000"  style="stroke:black; stroke-linecap:round; stroke-width:0.25;"/>
<line x1="325.100000" y1="172.000000" x2="329.100000" y2="172.000000"  style="stroke:black; stroke-linecap:round; stroke-width:0.25;"/>
<line x1="414.500000" y1="172.000000" x2="418.500000" y2="172.000000"  style="stroke:black; stroke-linecap:round; stroke-width:0.25;"/>
<line x1="418.500000" y1="172.000000" x2="418.500000" y2="172.000000"  style="stroke:black; stroke-linecap:round; stroke-width:0.25;"/>
<line x1="418.500000" y1="172.000000" x2="428.500000" y2="172.000000"  style="stroke:black; stroke-linecap:round; stroke-width:0.25;"/>
<line x1="428.500000" y1="172.000000" x2="432.500000" y2="172.000000"  style="stroke:black; stroke-linecap:round; stroke-width:0.25;"/>
<line x1="439.350000" y1="244.000000" x2="443.350000" y2="244.000000"  style="stroke:black; stroke-linecap:round; stroke-width:0.25;"/>
<line x1="443.350000" y1="244.000000" x2="780.000000" y2="244.000000"  style="stroke:black; stroke-linecap:round; stroke-width:0.25;"/>
<line x1="475.350000" y1="100.000000" x2="479.350000" y2="100.000000"  style="stroke:black; stroke-linecap:round; stroke-width:0.25;"/>
<line x1="479.350000" y1="100.000000" x2="852.000000" y2="100.000000"  style="stroke:black; stroke-linecap:round; stroke-width:0.25;"/>
<line x1="496.250000" y1="68.000000" x2="500.250000" y2="68.000000"  style="stroke:black; stroke-linecap:round; stroke-width:0.25;"/>
<line x1="500.250000" y1="68.000000" x2="892.000000" y2="68.000000"  style="stroke:black; stroke-linecap:round; stroke-width:0.25;"/>
<line x1="517.900000" y1="172.000000" x2="521.900000" y2="172.000000"  style="stroke:black; stroke-linecap:round; stroke-width:0.25;"/>
<line x1="521.900000" y1="172.000000" x2="521.900000" y2="172.000000"  style="stroke:black; stroke-linecap:round; stroke-width:0.25;"/>
<line x1="521.900000" y1="172.000000" x2="531.900000" y2="172.000000"  style="stroke:black; stroke-linecap:round; stroke-width:0.25;"/>
<line x1="522.700000" y1="36.000000" x2="526.700000" y2="36.000000"  style="stroke:black; stroke-linecap:round; stroke-width:0.25;"/>
<line x1="526.700000" y1="36.000000" x2="932.000000" y2="36.000000"  style="stroke:black; stroke-linecap:round; stroke-width:0.25;"/>
<line x1="531.900000" y1="172.000000" x2="535.900000" y2="172.000000"  style="stroke:black; stroke-linecap:round; stroke-width:0.25;"/>
<line x1="621.300000" y1="172.000000" x2="625.300000" y2="172.000000"  style="stroke:black; stroke-linecap:round; stroke-width:0.25;"/>
<line x1="625.300000" y1="172.000000" x2="635.300000" y2="172.000000"  style="stroke:black; stroke-linecap:round; stroke-width:0.25;"/>
<line x1="635.300000" y1="172.000000" x2="645.300000" y2="172.000000"  style="stroke:black; stroke-linecap:round; stroke-width:0.25;"/>
<line x1="645.300000" y1="172.000000" x2="655.300000" y2="172.000000"  style="stroke:black; stroke-linecap:round; stroke-width:0.25;"/>
<line x1="655.300000" y1="172.000000" x2="665.300000" y2="172.000000"  style="stroke:black; stroke-linecap:round; stroke-width:0.25;"/>
<line x1="665.300000" y1="156.000000" x2="673.300000" y2="156.000000"  style="stroke:black; stroke-linecap:round; stroke-width:0.25;"/>
<line x1="665.300000" y1="172.000000" x2="665.300000" y2="156.000000"  style="stroke:black; stroke-linecap:round; stroke-width:0.25;"/>
<line x1="665.300000" y1="172.000000" x2="665.300000" y2="172.000000"  style="stroke:black; stroke-linecap:round; stroke-width:0.25;"/>
<line x1="673.300000" y1="156.000000" x2="683.300000" y2="156.000000"  style="stroke:black; stroke-linecap:round; stroke-width:0.25;"/>
<line x1="683.300000" y1="156.000000" x2="687.300000" y2="156.000000"  style="stroke:black; stroke-linecap:round; stroke-width:0.25;"/>
<line x1="718.650000" y1="198.000000" x2="722.650000" y2="198.000000"  style="stroke:black; stroke-linecap:round; stroke-width:0.25;"/>
<line x1="722.650000" y1="198.000000" x2="740.000000" y2="198.000000"  style="stroke:black; stroke-linecap:round; stroke-width:0.25;"/>
<line x1="726.000000" y1="156.000000" x2="730.000000" y2="156.000000"  style="stroke:black; stroke-linecap:round; stroke-width:0.25;"/>
<line x1="730.000000" y1="156.000000" x2="740.000000" y2="156.000000"  style="stroke:black; stroke-linecap:round; stroke-width:0.25;"/>
<line x1="740.000000" y1="156.000000" x2="748.000000" y2="156.000000"  style="stroke:black; stroke-linecap:round; stroke-width:0.25;"/>
<line x1="740.000000" y1="176.000000" x2="748.000000" y2="176.000000"  style="stroke:black; stroke-linecap:round; stroke-width:0.25;"/>
<line x1="740.000000" y1="198.000000" x2="740.000000" y2="176.000000"  style="stroke:black; stroke-linecap:round; stroke-width:0.25;"/>
<line x1="740.000000" y1="198.000000" x2="740.000000" y2="198.000000"  style="stroke:black; stroke-linecap:round; stroke-width:0.25;"/>
<line x1="748.000000" y1="156.000000" x2="748.000000" y2="168.000000"  style="stroke:black; stroke-linecap:round; stroke-width:0.25;"/>
<line x1="748.000000" y1="168.000000" x2="748.000000" y2="168.000000"  style="stroke:black; stroke-linecap:round; stroke-width:0.25;"/>
<line x1="748.000000" y1="168.000000" x2="752.000000" y2="168.000000"  style="stroke:black; stroke-linecap:round; stroke-width:0.25;"/>
<line x1="748.000000" y1="176.000000" x2="752.000000" y2="176.000000"  style="stroke:black; stroke-linecap:round; stroke-width:0.25;"/>
<line x1="776.000000" y1="172.000000" x2="780.000000" y2="172.000000"  style="stroke:black; stroke-linecap:round; stroke-width:0.25;"/>
<line x1="780.000000" y1="172.000000" x2="788.000000" y2="172.000000"  style="stroke:black; stroke-linecap:round; stroke-width:0.25;"/>
<line x1="780.000000" y1="192.000000" x2="788.000000" y2="192.000000"  style="stroke:black; stroke-linecap:round; stroke-width:0.25;"/>
<line x1="780.000000" y1="244.000000" x2="780.000000" y2="192.000000"  style="stroke:black; stroke-linecap:round; stroke-width:0.25;"/>
<line x1="780.000000" y1="244.000000" x2="780.000000" y2="244.000000"  style="stroke:black; stroke-linecap:round; stroke-width:0.25;"/>
<line x1="788.000000" y1="172.000000" x2="788.000000" y2="184.000000"  style="stroke:black; stroke-linecap:round; stroke-width:0.25;"/>
<line x1="788.000000" y1="184.000000" x2="788.000000" y2="184.000000"  style="stroke:black; stroke-linecap:round; stroke-width:0.25;"/>
<line x1="788.000000" y1="184.000000" x2="792.000000" y2="184.000000"  style="stroke:black; stroke-linecap:round; stroke-width:0.25;"/>
<line x1="788.000000" y1="192.000000" x2="792.000000" y2="192.000000"  style="stroke:black; stroke-linecap:round; stroke-width:0.25;"/>
<line x1="816.000000" y1="188.000000" x2="820.000000" y2="188.000000"  style="stroke:black; stroke-linecap:round; stroke-width:0.25;"/>
<line x1="820.000000" y1="188.000000" x2="820.000000" y2="188.000000"  style="stroke:black; stroke-linecap:round; stroke-width:0.25;"/>
<line x1="820.000000" y1="188.000000" x2="824.000000" y2="188.000000"  style="stroke:black; stroke-linecap:round; stroke-width:0.25;"/>
<line x1="848.000000" y1="188.000000" x2="852.000000" y2="188.000000"  style="stroke:black; stroke-linecap:round; stroke-width:0.25;"/>
<line x1="852.000000" y1="100.000000" x2="860.000000" y2="100.000000"  style="stroke:black; stroke-linecap:round; stroke-width:0.25;"/>
<line x1="852.000000" y1="176.000000" x2="860.000000" y2="176.000000"  style="stroke:black; stroke-linecap:round; stroke-width:0.25;"/>
<line x1="852.000000" y1="188.000000" x2="852.000000" y2="176.000000"  style="stroke:black; stroke-linecap:round; stroke-width:0.25;"/>
<line x1="852.000000" y1="188.000000" x2="852.000000" y2="188.000000"  style="stroke:black; stroke-linecap:round; stroke-width:0.25;"/>
<line x1="860.000000" y1="100.000000" x2="860.000000" y2="168.000000"  style="stroke:black; stroke-linecap:round; stroke-width:0.25;"/>
<line x1="860.000000" y1="168.000000" x2="860.000000" y2="168.000000"  style="stroke:black; stroke-linecap:round; stroke-width:0.25;"/>
<line x1="860.000000" y1="168.000000" x2="864.000000" y2="168.000000"  style="stroke:black; stroke-linecap:round; stroke-width:0.25;"/>
<line x1="860.000000" y1="176.000000" x2="864.000000" y2="176.000000"  style="stroke:black; stroke-linecap:round; stroke-width:0.25;"/>
<line x1="888.000000" y1="172.000000" x2="892.000000" y2="172.000000"  style="stroke:black; stroke-linecap:round; stroke-width:0.25;"/>
<line x1="892.000000" y1="68.000000" x2="900.000000" y2="68.000000"  style="stroke:black; stroke-linecap:round; stroke-width:0.25;"/>
<line x1="892.000000" y1="160.000000" x2="900.000000" y2="160.000000"  style="stroke:black; stroke-linecap:round; stroke-width:0.25;"/>
<line x1="892.000000" y1="172.000000" x2="892.000000" y2="160.000000"  style="stroke:black; stroke-linecap:round; stroke-width:0.25;"/>
<line x1="892.000000" y1="172.000000" x2="892.000000" y2="172.000000"  style="stroke:black; stroke-linecap:round; stroke-width:0.25;"/>
<line x1="900.000000" y1="68.000000" x2="900.000000" y2="152.000000"  style="stroke:black; stroke-linecap:round; stroke-width:0.25;"/>
<line x1="900.000000" y1="152.000000" x2="900.000000" y2="152.000000"  style="stroke:black; stroke-linecap:round; stroke-width:0.25;"/>
<line x1="900.000000" y1="152.000000" x2="904.000000" y2="152.000000"  style="stroke:black; stroke-linecap:round; stroke-width:0.25;"/>
<line x1="900.000000" y1="160.000000" x2="904.000000" y2="160.000000"  style="stroke:black; stroke-linecap:round; stroke-width:0.25;"/>
<line x1="928.000000" y1="156.000000" x2="932.000000" y2="156.000000"  style="stroke:black; stroke-linecap:round; stroke-width:0.25;"/>
<line x1="932.000000" y1="36.000000" x2="940.000000" y2="36.000000"  style="stroke:black; stroke-linecap:round; stroke-width:0.25;"/>
<line x1="932.000000" y1="144.000000" x2="940.000000" y2="144.000000"  style="stroke:black; stroke-linecap:round; stroke-width:0.25;"/>
<line x1="932.000000" y1="156.000000" x2="932.000000" y2="144.000000"  style="stroke:black; stroke-linecap:round; stroke-width:0.25;"/>
<line x1="932.000000" y1="156.000000" x2="932.000000" y2="156.000000"  style="stroke:black; stroke-linecap:round; stroke-width:0.25;"/>
<line x1="940.000000" y1="36.000000" x2="940.000000" y2="136.000000"  style="stroke:black; stroke-linecap:round; stroke-width:0.25;"/>
<line x1="940.000000" y1="136.000000" x2="940.000000" y2="136.000000"  style="stroke:black; stroke-linecap:round; stroke-width:0.25;"/>
<line x1="940.000000" y1="136.000000" x2="944.000000" y2="136.000000"  style="stroke:black; stroke-linecap:round; stroke-width:0.25;"/>
<line x1="940.000000" y1="144.000000" x2="944.000000" y2="144.000000"  style="stroke:black; stroke-linecap:round; stroke-width:0.25;"/>
<line x1="968.000000" y1="140.000000" x2="972.000000" y2="140.000000"  style="stroke:black; stroke-linecap:round; stroke-width:0.25;"/>
<line x1="972.000000" y1="140.000000" x2="972.000000" y2="140.000000"  style="stroke:black; stroke-linecap:round; stroke-width:0.25;"/>
<line x1="972.000000" y1="140.000000" x2="976.000000" y2="140.000000"  style="stroke:black; stroke-linecap:round; stroke-width:0.25;"/>
<line x1="976.000000" y1="140.000000" x2="980.000000" y2="140.000000"  style="stroke:black; stroke-linecap:round; stroke-width:0.25;"/>
<line x1="980.000000" y1="140.000000" x2="990.000000" y2="140.000000"  style="stroke:black; stroke-linecap:round; stroke-width:0.25;"/>
</svg>
