<?xml version="1.0"?>
<svg xmlns="http://www.w3.org/2000/svg" xmlns:xlink="http://www.w3.org/1999/xlink" viewBox="0 0 886.600000 260.000000" width="443.300000mm" height="130.000000mm" version="1.1">
<a xlink:href="dflcv-0x600006318d80.svg">
<rect x="0.000000" y="0.000000" width="885.600000" height="259.000000" rx="0" ry="0" style="stroke:#000000;fill:#FFFFFF;"/>
</a>
<text x="10.000000" y="7.000000" font-family="Verdana" font-size="7"></text>
<rect x="32.000000" y="118.000000" width="38.700000" height="24.000000" rx="0" ry="0" style="stroke:#000000;fill:#FFFFFF;"/>
<text x="51.350000" y="132.000000" font-family="Verdana" font-size="7" text-anchor="middle" fill="#000000">[257] x</text>
<circle cx="34.000000" cy="120.000000" r="1"/>
<line x1="29.000000" y1="129.000000" x2="32.000000" y2="130.000000"  transform="rotate(0.000000,32.000000,130.000000)" style="stroke: black; stroke-width:0.25;"/>
<line x1="29.000000" y1="131.000000" x2="32.000000" y2="130.000000"  transform="rotate(0.000000,32.000000,130.000000)" style="stroke: black; stroke-width:0.25;"/>
<rect x="427.300000" y="24.000000" width="38.700000" height="24.000000" rx="0" ry="0" style="stroke:#000000;fill:#FFFFFF;"/>
<text x="446.650000" y="38.000000" font-family="Verdana" font-size="7" text-anchor="middle" fill="#000000">[257] x</text>
<circle cx="429.300000" cy="26.000000" r="1"/>
<a xlink:href="delmax-0x6000022c8f30.svg">
<rect x="413.750000" y="56.000000" width="25.800000" height="24.000000" rx="0" ry="0" style="stroke:#000000;fill:#FFFFFF;"/>
</a>
<a xlink:href="delmax-0x6000022c8f30.svg">
<text x="426.650000" y="70.000000" font-family="Verdana" font-size="7" text-anchor="middle" fill="#000000">delmax</text>
</a>
<circle cx="415.750000" cy="58.000000" r="1"/>
<rect x="394.650000" y="88.000000" width="24.000000" height="24.000000" rx="0" ry="0" style="stroke:#000000;fill:#FFFFFF;"/>
<text x="406.650000" y="102.000000" font-family="Verdana" font-size="7" text-anchor="middle" fill="#000000">0</text>
<circle cx="396.650000" cy="90.000000" r="1"/>
<a xlink:href="rphi-0x60000221dc20.svg">
<rect x="78.700000" y="150.000000" width="129.000000" height="24.000000" rx="0" ry="0" style="stroke:#000000;fill:#FFFFFF;"/>
</a>
<a xlink:href="rphi-0x60000221dc20.svg">
<text x="143.200000" y="164.000000" font-family="Verdana" font-size="7" text-anchor="middle" fill="#000000">rphi((1.92e+0...: min),4 : *)</text>
</a>
<circle cx="80.700000" cy="152.000000" r="1"/>
<rect x="225.700000" y="150.000000" width="38.700000" height="24.000000" rx="0" ry="0" style="stroke:#000000;fill:#FFFFFF;"/>
<text x="245.050000" y="164.000000" font-family="Verdana" font-size="7" text-anchor="middle" fill="#000000">[4] PM4</text>
<circle cx="227.700000" cy="152.000000" r="1"/>
<line x1="222.700000" y1="161.000000" x2="225.700000" y2="162.000000"  transform="rotate(0.000000,225.700000,162.000000)" style="stroke: black; stroke-width:0.25;"/>
<line x1="222.700000" y1="163.000000" x2="225.700000" y2="162.000000"  transform="rotate(0.000000,225.700000,162.000000)" style="stroke: black; stroke-width:0.25;"/>
<a xlink:href="rphi-0x6000022159e0.svg">
<rect x="272.400000" y="150.000000" width="38.700000" height="24.000000" rx="0" ry="0" style="stroke:#000000;fill:#FFFFFF;"/>
</a>
<a xlink:href="rphi-0x6000022159e0.svg">
<text x="291.750000" y="164.000000" font-family="Verdana" font-size="7" text-anchor="middle" fill="#000000">rphi(x4)</text>
</a>
<circle cx="274.400000" cy="152.000000" r="1"/>
<rect x="329.100000" y="150.000000" width="38.700000" height="24.000000" rx="0" ry="0" style="stroke:#000000;fill:#FFFFFF;"/>
<text x="348.450000" y="164.000000" font-family="Verdana" font-size="7" text-anchor="middle" fill="#000000">[5] PM5</text>
<circle cx="331.100000" cy="152.000000" r="1"/>
<line x1="326.100000" y1="161.000000" x2="329.100000" y2="162.000000"  transform="rotate(0.000000,329.100000,162.000000)" style="stroke: black; stroke-width:0.25;"/>
<line x1="326.100000" y1="163.000000" x2="329.100000" y2="162.000000"  transform="rotate(0.000000,329.100000,162.000000)" style="stroke: black; stroke-width:0.25;"/>
<a xlink:href="rphi-0x6000022177b0.svg">
<rect x="375.800000" y="150.000000" width="38.700000" height="24.000000" rx="0" ry="0" style="stroke:#000000;fill:#FFFFFF;"/>
</a>
<a xlink:href="rphi-0x6000022177b0.svg">
<text x="395.150000" y="164.000000" font-family="Verdana" font-size="7" text-anchor="middle" fill="#000000">rphi(x5)</text>
</a>
<circle cx="377.800000" cy="152.000000" r="1"/>
<rect x="432.500000" y="150.000000" width="38.700000" height="24.000000" rx="0" ry="0" style="stroke:#000000;fill:#FFFFFF;"/>
<text x="451.850000" y="164.000000" font-family="Verdana" font-size="7" text-anchor="middle" fill="#000000">[6] PM6</text>
<circle cx="434.500000" cy="152.000000" r="1"/>
<line x1="429.500000" y1="161.000000" x2="432.500000" y2="162.000000"  transform="rotate(0.000000,432.500000,162.000000)" style="stroke: black; stroke-width:0.25;"/>
<line x1="429.500000" y1="163.000000" x2="432.500000" y2="162.000000"  transform="rotate(0.000000,432.500000,162.000000)" style="stroke: black; stroke-width:0.25;"/>
<rect x="479.200000" y="150.000000" width="38.700000" height="24.000000" rx="0" ry="0" style="stroke:#000000;fill:#FFFFFF;"/>
<text x="498.550000" y="164.000000" font-family="Verdana" font-size="7" text-anchor="middle" fill="#000000">[6] PM6</text>
<circle cx="481.200000" cy="152.000000" r="1"/>
<line x1="423.500000" y1="141.000000" x2="423.500000" y2="183.000000"  style="stroke: black; stroke-linecap:round; stroke-width:0.25; stroke-dasharray:3,3;"/>
<line x1="423.500000" y1="183.000000" x2="526.900000" y2="183.000000"  style="stroke: black; stroke-linecap:round; stroke-width:0.25; stroke-dasharray:3,3;"/>
<line x1="526.900000" y1="183.000000" x2="526.900000" y2="141.000000"  style="stroke: black; stroke-linecap:round; stroke-width:0.25; stroke-dasharray:3,3;"/>
<line x1="423.500000" y1="141.000000" x2="428.500000" y2="141.000000"  style="stroke: black; stroke-linecap:round; stroke-width:0.25; stroke-dasharray:3,3;"/>
<line x1="470.425000" y1="141.000000" x2="526.900000" y2="141.000000"  style="stroke: black; stroke-linecap:round; stroke-width:0.25; stroke-dasharray:3,3;"/>
<text x="428.500000" y="143.000000" font-family="Verdana" font-size="7">Abstraction</text>
<line x1="320.100000" y1="131.000000" x2="320.100000" y2="193.000000"  style="stroke: black; stroke-linecap:round; stroke-width:0.25; stroke-dasharray:3,3;"/>
<line x1="320.100000" y1="193.000000" x2="536.900000" y2="193.000000"  style="stroke: black; stroke-linecap:round; stroke-width:0.25; stroke-dasharray:3,3;"/>
<line x1="536.900000" y1="193.000000" x2="536.900000" y2="131.000000"  style="stroke: black; stroke-linecap:round; stroke-width:0.25; stroke-dasharray:3,3;"/>
<line x1="320.100000" y1="131.000000" x2="325.100000" y2="131.000000"  style="stroke: black; stroke-linecap:round; stroke-width:0.25; stroke-dasharray:3,3;"/>
<line x1="367.025000" y1="131.000000" x2="536.900000" y2="131.000000"  style="stroke: black; stroke-linecap:round; stroke-width:0.25; stroke-dasharray:3,3;"/>
<text x="325.100000" y="133.000000" font-family="Verdana" font-size="7">Abstraction</text>
<line x1="216.700000" y1="121.000000" x2="216.700000" y2="203.000000"  style="stroke: black; stroke-linecap:round; stroke-width:0.25; stroke-dasharray:3,3;"/>
<line x1="216.700000" y1="203.000000" x2="546.900000" y2="203.000000"  style="stroke: black; stroke-linecap:round; stroke-width:0.25; stroke-dasharray:3,3;"/>
<line x1="546.900000" y1="203.000000" x2="546.900000" y2="121.000000"  style="stroke: black; stroke-linecap:round; stroke-width:0.25; stroke-dasharray:3,3;"/>
<line x1="216.700000" y1="121.000000" x2="221.700000" y2="121.000000"  style="stroke: black; stroke-linecap:round; stroke-width:0.25; stroke-dasharray:3,3;"/>
<line x1="263.625000" y1="121.000000" x2="546.900000" y2="121.000000"  style="stroke: black; stroke-linecap:round; stroke-width:0.25; stroke-dasharray:3,3;"/>
<text x="221.700000" y="123.000000" font-family="Verdana" font-size="7">Abstraction</text>
<rect x="573.900000" y="134.000000" width="38.700000" height="24.000000" rx="0" ry="0" style="stroke:#000000;fill:#FFFFFF;"/>
<text x="593.250000" y="148.000000" font-family="Verdana" font-size="7" text-anchor="middle" fill="#000000">next_pr</text>
<circle cx="575.900000" cy="136.000000" r="1"/>
<line x1="570.900000" y1="145.000000" x2="573.900000" y2="146.000000"  transform="rotate(0.000000,573.900000,146.000000)" style="stroke: black; stroke-width:0.25;"/>
<line x1="570.900000" y1="147.000000" x2="573.900000" y2="146.000000"  transform="rotate(0.000000,573.900000,146.000000)" style="stroke: black; stroke-width:0.25;"/>
<line x1="564.900000" y1="125.000000" x2="564.900000" y2="167.000000"  style="stroke: black; stroke-linecap:round; stroke-width:0.25; stroke-dasharray:3,3;"/>
<line x1="564.900000" y1="167.000000" x2="621.600000" y2="167.000000"  style="stroke: black; stroke-linecap:round; stroke-width:0.25; stroke-dasharray:3,3;"/>
<line x1="621.600000" y1="167.000000" x2="621.600000" y2="125.000000"  style="stroke: black; stroke-linecap:round; stroke-width:0.25; stroke-dasharray:3,3;"/>
<line x1="564.900000" y1="125.000000" x2="569.900000" y2="125.000000"  style="stroke: black; stroke-linecap:round; stroke-width:0.25; stroke-dasharray:3,3;"/>
<line x1="582.800000" y1="125.000000" x2="621.600000" y2="125.000000"  style="stroke: black; stroke-linecap:round; stroke-width:0.25; stroke-dasharray:3,3;"/>
<text x="569.900000" y="127.000000" font-family="Verdana" font-size="7">np</text>
<rect x="581.250000" y="176.000000" width="24.000000" height="24.000000" rx="0" ry="0" style="stroke:#000000;fill:#FFFFFF;"/>
<text x="593.250000" y="190.000000" font-family="Verdana" font-size="7" text-anchor="middle" fill="#000000">1</text>
<circle cx="583.250000" cy="178.000000" r="1"/>
<rect x="638.600000" y="150.000000" width="24.000000" height="24.000000" rx="0" ry="0" style="stroke:#000000;fill:#FFFFFF;"/>
<text x="650.600000" y="164.000000" font-family="Verdana" font-size="7" text-anchor="middle" fill="#000000">max</text>
<circle cx="640.600000" cy="152.000000" r="1"/>
<line x1="635.600000" y1="157.000000" x2="638.600000" y2="158.000000"  transform="rotate(0.000000,638.600000,158.000000)" style="stroke: black; stroke-width:0.25;"/>
<line x1="635.600000" y1="159.000000" x2="638.600000" y2="158.000000"  transform="rotate(0.000000,638.600000,158.000000)" style="stroke: black; stroke-width:0.25;"/>
<line x1="635.600000" y1="165.000000" x2="638.600000" y2="166.000000"  transform="rotate(0.000000,638.600000,166.000000)" style="stroke: black; stroke-width:0.25;"/>
<line x1="635.600000" y1="167.000000" x2="638.600000" y2="166.000000"  transform="rotate(0.000000,638.600000,166.000000)" style="stroke: black; stroke-width:0.25;"/>
<rect x="358.650000" y="212.000000" width="24.000000" height="24.000000" rx="0" ry="0" style="stroke:#000000;fill:#FFFFFF;"/>
<text x="370.650000" y="226.000000" font-family="Verdana" font-size="7" text-anchor="middle" fill="#000000">1</text>
<circle cx="360.650000" cy="214.000000" r="1"/>
<rect x="678.600000" y="166.000000" width="24.000000" height="24.000000" rx="0" ry="0" style="stroke:#000000;fill:#FFFFFF;"/>
<text x="690.600000" y="180.000000" font-family="Verdana" font-size="7" text-anchor="middle" fill="#000000">-</text>
<circle cx="680.600000" cy="168.000000" r="1"/>
<line x1="675.600000" y1="173.000000" x2="678.600000" y2="174.000000"  transform="rotate(0.000000,678.600000,174.000000)" style="stroke: black; stroke-width:0.25;"/>
<line x1="675.600000" y1="175.000000" x2="678.600000" y2="174.000000"  transform="rotate(0.000000,678.600000,174.000000)" style="stroke: black; stroke-width:0.25;"/>
<line x1="675.600000" y1="181.000000" x2="678.600000" y2="182.000000"  transform="rotate(0.000000,678.600000,182.000000)" style="stroke: black; stroke-width:0.25;"/>
<line x1="675.600000" y1="183.000000" x2="678.600000" y2="182.000000"  transform="rotate(0.000000,678.600000,182.000000)" style="stroke: black; stroke-width:0.25;"/>
<rect x="710.600000" y="166.000000" width="24.000000" height="24.000000" rx="0" ry="0" style="stroke:#000000;fill:#FFFFFF;"/>
<text x="722.600000" y="180.000000" font-family="Verdana" font-size="7" text-anchor="middle" fill="#000000">int</text>
<circle cx="712.600000" cy="168.000000" r="1"/>
<line x1="707.600000" y1="177.000000" x2="710.600000" y2="178.000000"  transform="rotate(0.000000,710.600000,178.000000)" style="stroke: black; stroke-width:0.25;"/>
<line x1="707.600000" y1="179.000000" x2="710.600000" y2="178.000000"  transform="rotate(0.000000,710.600000,178.000000)" style="stroke: black; stroke-width:0.25;"/>
<rect x="750.600000" y="150.000000" width="24.000000" height="24.000000" rx="0" ry="0" style="stroke:#000000;fill:#FFFFFF;"/>
<text x="762.600000" y="164.000000" font-family="Verdana" font-size="7" text-anchor="middle" fill="#000000">max</text>
<circle cx="752.600000" cy="152.000000" r="1"/>
<line x1="747.600000" y1="157.000000" x2="750.600000" y2="158.000000"  transform="rotate(0.000000,750.600000,158.000000)" style="stroke: black; stroke-width:0.25;"/>
<line x1="747.600000" y1="159.000000" x2="750.600000" y2="158.000000"  transform="rotate(0.000000,750.600000,158.000000)" style="stroke: black; stroke-width:0.25;"/>
<line x1="747.600000" y1="165.000000" x2="750.600000" y2="166.000000"  transform="rotate(0.000000,750.600000,166.000000)" style="stroke: black; stroke-width:0.25;"/>
<line x1="747.600000" y1="167.000000" x2="750.600000" y2="166.000000"  transform="rotate(0.000000,750.600000,166.000000)" style="stroke: black; stroke-width:0.25;"/>
<rect x="790.600000" y="134.000000" width="24.000000" height="24.000000" rx="0" ry="0" style="stroke:#000000;fill:#FFFFFF;"/>
<text x="802.600000" y="148.000000" font-family="Verdana" font-size="7" text-anchor="middle" fill="#000000">min</text>
<circle cx="792.600000" cy="136.000000" r="1"/>
<line x1="787.600000" y1="141.000000" x2="790.600000" y2="142.000000"  transform="rotate(0.000000,790.600000,142.000000)" style="stroke: black; stroke-width:0.25;"/>
<line x1="787.600000" y1="143.000000" x2="790.600000" y2="142.000000"  transform="rotate(0.000000,790.600000,142.000000)" style="stroke: black; stroke-width:0.25;"/>
<line x1="787.600000" y1="149.000000" x2="790.600000" y2="150.000000"  transform="rotate(0.000000,790.600000,150.000000)" style="stroke: black; stroke-width:0.25;"/>
<line x1="787.600000" y1="151.000000" x2="790.600000" y2="150.000000"  transform="rotate(0.000000,790.600000,150.000000)" style="stroke: black; stroke-width:0.25;"/>
<rect x="830.600000" y="118.000000" width="24.000000" height="24.000000" rx="0" ry="0" style="stroke:#000000;fill:#FFFFFF;"/>
<text x="842.600000" y="132.000000" font-family="Verdana" font-size="7" text-anchor="middle" fill="#000000">@</text>
<circle cx="832.600000" cy="120.000000" r="1"/>
<line x1="827.600000" y1="125.000000" x2="830.600000" y2="126.000000"  transform="rotate(0.000000,830.600000,126.000000)" style="stroke: black; stroke-width:0.25;"/>
<line x1="827.600000" y1="127.000000" x2="830.600000" y2="126.000000"  transform="rotate(0.000000,830.600000,126.000000)" style="stroke: black; stroke-width:0.25;"/>
<line x1="827.600000" y1="133.000000" x2="830.600000" y2="134.000000"  transform="rotate(0.000000,830.600000,134.000000)" style="stroke: black; stroke-width:0.25;"/>
<line x1="827.600000" y1="135.000000" x2="830.600000" y2="134.000000"  transform="rotate(0.000000,830.600000,134.000000)" style="stroke: black; stroke-width:0.25;"/>
<line x1="15.000000" y1="15.000000" x2="15.000000" y2="245.000000"  style="stroke: black; stroke-linecap:round; stroke-width:0.25; stroke-dasharray:3,3;"/>
<line x1="15.000000" y1="245.000000" x2="871.600000" y2="245.000000"  style="stroke: black; stroke-linecap:round; stroke-width:0.25; stroke-dasharray:3,3;"/>
<line x1="871.600000" y1="245.000000" x2="871.600000" y2="15.000000"  style="stroke: black; stroke-linecap:round; stroke-width:0.25; stroke-dasharray:3,3;"/>
<line x1="15.000000" y1="15.000000" x2="20.000000" y2="15.000000"  style="stroke: black; stroke-linecap:round; stroke-width:0.25; stroke-dasharray:3,3;"/>
<line x1="119.975000" y1="15.000000" x2="871.600000" y2="15.000000"  style="stroke: black; stroke-linecap:round; stroke-width:0.25; stroke-dasharray:3,3;"/>
<text x="20.000000" y="17.000000" font-family="Verdana" font-size="7">delay((1.92e+...,1 : - : int)</text>
<line x1="873.600000" y1="129.000000" x2="876.600000" y2="130.000000"  transform="rotate(0.000000,876.600000,130.000000)" style="stroke: black; stroke-width:0.25;"/>
<line x1="873.600000" y1="131.000000" x2="876.600000" y2="130.000000"  transform="rotate(0.000000,876.600000,130.000000)" style="stroke: black; stroke-width:0.25;"/>
<line x1="10.000000" y1="130.000000" x2="20.000000" y2="130.000000"  style="stroke:black; stroke-linecap:round; stroke-width:0.25;"/>
<line x1="20.000000" y1="130.000000" x2="24.000000" y2="130.000000"  style="stroke:black; stroke-linecap:round; stroke-width:0.25;"/>
<line x1="24.000000" y1="130.000000" x2="28.000000" y2="130.000000"  style="stroke:black; stroke-linecap:round; stroke-width:0.25;"/>
<line x1="28.000000" y1="130.000000" x2="28.000000" y2="130.000000"  style="stroke:black; stroke-linecap:round; stroke-width:0.25;"/>
<line x1="28.000000" y1="130.000000" x2="32.000000" y2="130.000000"  style="stroke:black; stroke-linecap:round; stroke-width:0.25;"/>
<line x1="207.700000" y1="162.000000" x2="211.700000" y2="162.000000"  style="stroke:black; stroke-linecap:round; stroke-width:0.25;"/>
<line x1="211.700000" y1="162.000000" x2="211.700000" y2="162.000000"  style="stroke:black; stroke-linecap:round; stroke-width:0.25;"/>
<line x1="211.700000" y1="162.000000" x2="221.700000" y2="162.000000"  style="stroke:black; stroke-linecap:round; stroke-width:0.25;"/>
<line x1="221.700000" y1="162.000000" x2="225.700000" y2="162.000000"  style="stroke:black; stroke-linecap:round; stroke-width:0.25;"/>
<line x1="311.100000" y1="162.000000" x2="315.100000" y2="162.000000"  style="stroke:black; stroke-linecap:round; stroke-width:0.25;"/>
<line x1="315.100000" y1="162.000000" x2="315.100000" y2="162.000000"  style="stroke:black; stroke-linecap:round; stroke-width:0.25;"/>
<line x1="315.100000" y1="162.000000" x2="325.100000" y2="162.000000"  style="stroke:black; stroke-linecap:round; stroke-width:0.25;"/>
<line x1="325.100000" y1="162.000000" x2="329.100000" y2="162.000000"  style="stroke:black; stroke-linecap:round; stroke-width:0.25;"/>
<line x1="382.650000" y1="224.000000" x2="386.650000" y2="224.000000"  style="stroke:black; stroke-linecap:round; stroke-width:0.25;"/>
<line x1="386.650000" y1="224.000000" x2="666.600000" y2="224.000000"  style="stroke:black; stroke-linecap:round; stroke-width:0.25;"/>
<line x1="414.500000" y1="162.000000" x2="418.500000" y2="162.000000"  style="stroke:black; stroke-linecap:round; stroke-width:0.25;"/>
<line x1="418.500000" y1="162.000000" x2="418.500000" y2="162.000000"  style="stroke:black; stroke-linecap:round; stroke-width:0.25;"/>
<line x1="418.500000" y1="162.000000" x2="428.500000" y2="162.000000"  style="stroke:black; stroke-linecap:round; stroke-width:0.25;"/>
<line x1="418.650000" y1="100.000000" x2="422.650000" y2="100.000000"  style="stroke:black; stroke-linecap:round; stroke-width:0.25;"/>
<line x1="422.650000" y1="100.000000" x2="738.600000" y2="100.000000"  style="stroke:black; stroke-linecap:round; stroke-width:0.25;"/>
<line x1="428.500000" y1="162.000000" x2="432.500000" y2="162.000000"  style="stroke:black; stroke-linecap:round; stroke-width:0.25;"/>
<line x1="439.550000" y1="68.000000" x2="443.550000" y2="68.000000"  style="stroke:black; stroke-linecap:round; stroke-width:0.25;"/>
<line x1="443.550000" y1="68.000000" x2="778.600000" y2="68.000000"  style="stroke:black; stroke-linecap:round; stroke-width:0.25;"/>
<line x1="466.000000" y1="36.000000" x2="470.000000" y2="36.000000"  style="stroke:black; stroke-linecap:round; stroke-width:0.25;"/>
<line x1="470.000000" y1="36.000000" x2="818.600000" y2="36.000000"  style="stroke:black; stroke-linecap:round; stroke-width:0.25;"/>
<line x1="517.900000" y1="162.000000" x2="521.900000" y2="162.000000"  style="stroke:black; stroke-linecap:round; stroke-width:0.25;"/>
<line x1="521.900000" y1="162.000000" x2="531.900000" y2="162.000000"  style="stroke:black; stroke-linecap:round; stroke-width:0.25;"/>
<line x1="531.900000" y1="162.000000" x2="541.900000" y2="162.000000"  style="stroke:black; stroke-linecap:round; stroke-width:0.25;"/>
<line x1="541.900000" y1="162.000000" x2="551.900000" y2="162.000000"  style="stroke:black; stroke-linecap:round; stroke-width:0.25;"/>
<line x1="551.900000" y1="146.000000" x2="559.900000" y2="146.000000"  style="stroke:black; stroke-linecap:round; stroke-width:0.25;"/>
<line x1="551.900000" y1="162.000000" x2="551.900000" y2="146.000000"  style="stroke:black; stroke-linecap:round; stroke-width:0.25;"/>
<line x1="551.900000" y1="162.000000" x2="551.900000" y2="162.000000"  style="stroke:black; stroke-linecap:round; stroke-width:0.25;"/>
<line x1="559.900000" y1="146.000000" x2="569.900000" y2="146.000000"  style="stroke:black; stroke-linecap:round; stroke-width:0.25;"/>
<line x1="569.900000" y1="146.000000" x2="573.900000" y2="146.000000"  style="stroke:black; stroke-linecap:round; stroke-width:0.25;"/>
<line x1="605.250000" y1="188.000000" x2="609.250000" y2="188.000000"  style="stroke:black; stroke-linecap:round; stroke-width:0.25;"/>
<line x1="609.250000" y1="188.000000" x2="626.600000" y2="188.000000"  style="stroke:black; stroke-linecap:round; stroke-width:0.25;"/>
<line x1="612.600000" y1="146.000000" x2="616.600000" y2="146.000000"  style="stroke:black; stroke-linecap:round; stroke-width:0.25;"/>
<line x1="616.600000" y1="146.000000" x2="626.600000" y2="146.000000"  style="stroke:black; stroke-linecap:round; stroke-width:0.25;"/>
<line x1="626.600000" y1="146.000000" x2="634.600000" y2="146.000000"  style="stroke:black; stroke-linecap:round; stroke-width:0.25;"/>
<line x1="626.600000" y1="166.000000" x2="634.600000" y2="166.000000"  style="stroke:black; stroke-linecap:round; stroke-width:0.25;"/>
<line x1="626.600000" y1="188.000000" x2="626.600000" y2="166.000000"  style="stroke:black; stroke-linecap:round; stroke-width:0.25;"/>
<line x1="626.600000" y1="188.000000" x2="626.600000" y2="188.000000"  style="stroke:black; stroke-linecap:round; stroke-width:0.25;"/>
<line x1="634.600000" y1="158.000000" x2="638.600000" y2="158.000000"  style="stroke:black; stroke-linecap:round; stroke-width:0.25;"/>
<line x1="634.600000" y1="166.000000" x2="638.600000" y2="166.000000"  style="stroke:black; stroke-linecap:round; stroke-width:0.25;"/>
<line x1="634.600000" y1="146.000000" x2="634.600000" y2="158.000000"  style="stroke:black; stroke-linecap:round; stroke-width:0.25;"/>
<line x1="634.600000" y1="158.000000" x2="634.600000" y2="158.000000"  style="stroke:black; stroke-linecap:round; stroke-width:0.25;"/>
<line x1="662.600000" y1="162.000000" x2="666.600000" y2="162.000000"  style="stroke:black; stroke-linecap:round; stroke-width:0.25;"/>
<line x1="666.600000" y1="162.000000" x2="674.600000" y2="162.000000"  style="stroke:black; stroke-linecap:round; stroke-width:0.25;"/>
<line x1="666.600000" y1="182.000000" x2="674.600000" y2="182.000000"  style="stroke:black; stroke-linecap:round; stroke-width:0.25;"/>
<line x1="666.600000" y1="224.000000" x2="666.600000" y2="182.000000"  style="stroke:black; stroke-linecap:round; stroke-width:0.25;"/>
<line x1="666.600000" y1="224.000000" x2="666.600000" y2="224.000000"  style="stroke:black; stroke-linecap:round; stroke-width:0.25;"/>
<line x1="674.600000" y1="162.000000" x2="674.600000" y2="174.000000"  style="stroke:black; stroke-linecap:round; stroke-width:0.25;"/>
<line x1="674.600000" y1="174.000000" x2="674.600000" y2="174.000000"  style="stroke:black; stroke-linecap:round; stroke-width:0.25;"/>
<line x1="674.600000" y1="174.000000" x2="678.600000" y2="174.000000"  style="stroke:black; stroke-linecap:round; stroke-width:0.25;"/>
<line x1="674.600000" y1="182.000000" x2="678.600000" y2="182.000000"  style="stroke:black; stroke-linecap:round; stroke-width:0.25;"/>
<line x1="702.600000" y1="178.000000" x2="706.600000" y2="178.000000"  style="stroke:black; stroke-linecap:round; stroke-width:0.25;"/>
<line x1="706.600000" y1="178.000000" x2="706.600000" y2="178.000000"  style="stroke:black; stroke-linecap:round; stroke-width:0.25;"/>
<line x1="706.600000" y1="178.000000" x2="710.600000" y2="178.000000"  style="stroke:black; stroke-linecap:round; stroke-width:0.25;"/>
<line x1="734.600000" y1="178.000000" x2="738.600000" y2="178.000000"  style="stroke:black; stroke-linecap:round; stroke-width:0.25;"/>
<line x1="738.600000" y1="100.000000" x2="746.600000" y2="100.000000"  style="stroke:black; stroke-linecap:round; stroke-width:0.25;"/>
<line x1="738.600000" y1="166.000000" x2="746.600000" y2="166.000000"  style="stroke:black; stroke-linecap:round; stroke-width:0.25;"/>
<line x1="738.600000" y1="178.000000" x2="738.600000" y2="166.000000"  style="stroke:black; stroke-linecap:round; stroke-width:0.25;"/>
<line x1="738.600000" y1="178.000000" x2="738.600000" y2="178.000000"  style="stroke:black; stroke-linecap:round; stroke-width:0.25;"/>
<line x1="746.600000" y1="100.000000" x2="746.600000" y2="158.000000"  style="stroke:black; stroke-linecap:round; stroke-width:0.25;"/>
<line x1="746.600000" y1="158.000000" x2="746.600000" y2="158.000000"  style="stroke:black; stroke-linecap:round; stroke-width:0.25;"/>
<line x1="746.600000" y1="158.000000" x2="750.600000" y2="158.000000"  style="stroke:black; stroke-linecap:round; stroke-width:0.25;"/>
<line x1="746.600000" y1="166.000000" x2="750.600000" y2="166.000000"  style="stroke:black; stroke-linecap:round; stroke-width:0.25;"/>
<line x1="774.600000" y1="162.000000" x2="778.600000" y2="162.000000"  style="stroke:black; stroke-linecap:round; stroke-width:0.25;"/>
<line x1="778.600000" y1="150.000000" x2="786.600000" y2="150.000000"  style="stroke:black; stroke-linecap:round; stroke-width:0.25;"/>
<line x1="778.600000" y1="162.000000" x2="778.600000" y2="150.000000"  style="stroke:black; stroke-linecap:round; stroke-width:0.25;"/>
<line x1="778.600000" y1="162.000000" x2="778.600000" y2="162.000000"  style="stroke:black; stroke-linecap:round; stroke-width:0.25;"/>
<line x1="778.600000" y1="68.000000" x2="786.600000" y2="68.000000"  style="stroke:black; stroke-linecap:round; stroke-width:0.25;"/>
<line x1="786.600000" y1="142.000000" x2="790.600000" y2="142.000000"  style="stroke:black; stroke-linecap:round; stroke-width:0.25;"/>
<line x1="786.600000" y1="150.000000" x2="790.600000" y2="150.000000"  style="stroke:black; stroke-linecap:round; stroke-width:0.25;"/>
<line x1="786.600000" y1="68.000000" x2="786.600000" y2="142.000000"  style="stroke:black; stroke-linecap:round; stroke-width:0.25;"/>
<line x1="786.600000" y1="142.000000" x2="786.600000" y2="142.000000"  style="stroke:black; stroke-linecap:round; stroke-width:0.25;"/>
<line x1="814.600000" y1="146.000000" x2="818.600000" y2="146.000000"  style="stroke:black; stroke-linecap:round; stroke-width:0.25;"/>
<line x1="818.600000" y1="36.000000" x2="826.600000" y2="36.000000"  style="stroke:black; stroke-linecap:round; stroke-width:0.25;"/>
<line x1="818.600000" y1="134.000000" x2="826.600000" y2="134.000000"  style="stroke:black; stroke-linecap:round; stroke-width:0.25;"/>
<line x1="818.600000" y1="146.000000" x2="818.600000" y2="134.000000"  style="stroke:black; stroke-linecap:round; stroke-width:0.25;"/>
<line x1="818.600000" y1="146.000000" x2="818.600000" y2="146.000000"  style="stroke:black; stroke-linecap:round; stroke-width:0.25;"/>
<line x1="826.600000" y1="36.000000" x2="826.600000" y2="126.000000"  style="stroke:black; stroke-linecap:round; stroke-width:0.25;"/>
<line x1="826.600000" y1="126.000000" x2="826.600000" y2="126.000000"  style="stroke:black; stroke-linecap:round; stroke-width:0.25;"/>
<line x1="826.600000" y1="126.000000" x2="830.600000" y2="126.000000"  style="stroke:black; stroke-linecap:round; stroke-width:0.25;"/>
<line x1="826.600000" y1="134.000000" x2="830.600000" y2="134.000000"  style="stroke:black; stroke-linecap:round; stroke-width:0.25;"/>
<line x1="854.600000" y1="130.000000" x2="858.600000" y2="130.000000"  style="stroke:black; stroke-linecap:round; stroke-width:0.25;"/>
<line x1="858.600000" y1="130.000000" x2="858.600000" y2="130.000000"  style="stroke:black; stroke-linecap:round; stroke-width:0.25;"/>
<line x1="858.600000" y1="130.000000" x2="862.600000" y2="130.000000"  style="stroke:black; stroke-linecap:round; stroke-width:0.25;"/>
<line x1="862.600000" y1="130.000000" x2="866.600000" y2="130.000000"  style="stroke:black; stroke-linecap:round; stroke-width:0.25;"/>
<line x1="866.600000" y1="130.000000" x2="876.600000" y2="130.000000"  style="stroke:black; stroke-linecap:round; stroke-width:0.25;"/>
</svg>
