<?xml version="1.0"?>
<svg xmlns="http://www.w3.org/2000/svg" xmlns:xlink="http://www.w3.org/1999/xlink" viewBox="0 0 1113.400000 300.000000" width="556.700000mm" height="150.000000mm" version="1.1">
<a xlink:href="dflcv-0x6000063674e0.svg">
<rect x="0.000000" y="0.000000" width="1112.400000" height="299.000000" rx="0" ry="0" style="stroke:#000000;fill:#FFFFFF;"/>
</a>
<text x="10.000000" y="7.000000" font-family="Verdana" font-size="7"></text>
<rect x="32.000000" y="138.000000" width="38.700000" height="24.000000" rx="0" ry="0" style="stroke:#000000;fill:#FFFFFF;"/>
<text x="51.350000" y="152.000000" font-family="Verdana" font-size="7" text-anchor="middle" fill="#000000">[259] x</text>
<circle cx="34.000000" cy="140.000000" r="1"/>
<line x1="29.000000" y1="149.000000" x2="32.000000" y2="150.000000"  transform="rotate(0.000000,32.000000,150.000000)" style="stroke: black; stroke-width:0.25;"/>
<line x1="29.000000" y1="151.000000" x2="32.000000" y2="150.000000"  transform="rotate(0.000000,32.000000,150.000000)" style="stroke: black; stroke-width:0.25;"/>
<rect x="540.700000" y="24.000000" width="38.700000" height="24.000000" rx="0" ry="0" style="stroke:#000000;fill:#FFFFFF;"/>
<text x="560.050000" y="38.000000" font-family="Verdana" font-size="7" text-anchor="middle" fill="#000000">[259] x</text>
<circle cx="542.700000" cy="26.000000" r="1"/>
<a xlink:href="delmax-0x6000022c8f30.svg">
<rect x="527.150000" y="56.000000" width="25.800000" height="24.000000" rx="0" ry="0" style="stroke:#000000;fill:#FFFFFF;"/>
</a>
<a xlink:href="delmax-0x6000022c8f30.svg">
<text x="540.050000" y="70.000000" font-family="Verdana" font-size="7" text-anchor="middle" fill="#000000">delmax</text>
</a>
<circle cx="529.150000" cy="58.000000" r="1"/>
<rect x="508.050000" y="88.000000" width="24.000000" height="24.000000" rx="0" ry="0" style="stroke:#000000;fill:#FFFFFF;"/>
<text x="520.050000" y="102.000000" font-family="Verdana" font-size="7" text-anchor="middle" fill="#000000">0</text>
<circle cx="510.050000" cy="90.000000" r="1"/>
<a xlink:href="rphi-0x60000221dc20.svg">
<rect x="78.700000" y="170.000000" width="129.000000" height="24.000000" rx="0" ry="0" style="stroke:#000000;fill:#FFFFFF;"/>
</a>
<a xlink:href="rphi-0x60000221dc20.svg">
<text x="143.200000" y="184.000000" font-family="Verdana" font-size="7" text-anchor="middle" fill="#000000">rphi((1.92e+0...: min),4 : *)</text>
</a>
<circle cx="80.700000" cy="172.000000" r="1"/>
<rect x="225.700000" y="170.000000" width="38.700000" height="24.000000" rx="0" ry="0" style="stroke:#000000;fill:#FFFFFF;"/>
<text x="245.050000" y="184.000000" font-family="Verdana" font-size="7" text-anchor="middle" fill="#000000">[11] PM11</text>
<circle cx="227.700000" cy="172.000000" r="1"/>
<line x1="222.700000" y1="181.000000" x2="225.700000" y2="182.000000"  transform="rotate(0.000000,225.700000,182.000000)" style="stroke: black; stroke-width:0.25;"/>
<line x1="222.700000" y1="183.000000" x2="225.700000" y2="182.000000"  transform="rotate(0.000000,225.700000,182.000000)" style="stroke: black; stroke-width:0.25;"/>
<a xlink:href="rphi-0x600002200240.svg">
<rect x="272.400000" y="170.000000" width="38.700000" height="24.000000" rx="0" ry="0" style="stroke:#000000;fill:#FFFFFF;"/>
</a>
<a xlink:href="rphi-0x600002200240.svg">
<text x="291.750000" y="184.000000" font-family="Verdana" font-size="7" text-anchor="middle" fill="#000000">rphi(x11)</text>
</a>
<circle cx="274.400000" cy="172.000000" r="1"/>
<rect x="329.100000" y="170.000000" width="38.700000" height="24.000000" rx="0" ry="0" style="stroke:#000000;fill:#FFFFFF;"/>
<text x="348.450000" y="184.000000" font-family="Verdana" font-size="7" text-anchor="middle" fill="#000000">[12] PM12</text>
<circle cx="331.100000" cy="172.000000" r="1"/>
<line x1="326.100000" y1="181.000000" x2="329.100000" y2="182.000000"  transform="rotate(0.000000,329.100000,182.000000)" style="stroke: black; stroke-width:0.25;"/>
<line x1="326.100000" y1="183.000000" x2="329.100000" y2="182.000000"  transform="rotate(0.000000,329.100000,182.000000)" style="stroke: black; stroke-width:0.25;"/>
<a xlink:href="rphi-0x600002202010.svg">
<rect x="375.800000" y="170.000000" width="38.700000" height="24.000000" rx="0" ry="0" style="stroke:#000000;fill:#FFFFFF;"/>
</a>
<a xlink:href="rphi-0x600002202010.svg">
<text x="395.150000" y="184.000000" font-family="Verdana" font-size="7" text-anchor="middle" fill="#000000">rphi(x12)</text>
</a>
<circle cx="377.800000" cy="172.000000" r="1"/>
<rect x="432.500000" y="170.000000" width="38.700000" height="24.000000" rx="0" ry="0" style="stroke:#000000;fill:#FFFFFF;"/>
<text x="451.850000" y="184.000000" font-family="Verdana" font-size="7" text-anchor="middle" fill="#000000">[13] PM13</text>
<circle cx="434.500000" cy="172.000000" r="1"/>
<line x1="429.500000" y1="181.000000" x2="432.500000" y2="182.000000"  transform="rotate(0.000000,432.500000,182.000000)" style="stroke: black; stroke-width:0.25;"/>
<line x1="429.500000" y1="183.000000" x2="432.500000" y2="182.000000"  transform="rotate(0.000000,432.500000,182.000000)" style="stroke: black; stroke-width:0.25;"/>
<a xlink:href="rphi-0x600002203de0.svg">
<rect x="479.200000" y="170.000000" width="38.700000" height="24.000000" rx="0" ry="0" style="stroke:#000000;fill:#FFFFFF;"/>
</a>
<a xlink:href="rphi-0x600002203de0.svg">
<text x="498.550000" y="184.000000" font-family="Verdana" font-size="7" text-anchor="middle" fill="#000000">rphi(x13)</text>
</a>
<circle cx="481.200000" cy="172.000000" r="1"/>
<rect x="535.900000" y="170.000000" width="38.700000" height="24.000000" rx="0" ry="0" style="stroke:#000000;fill:#FFFFFF;"/>
<text x="555.250000" y="184.000000" font-family="Verdana" font-size="7" text-anchor="middle" fill="#000000">[14] PM14</text>
<circle cx="537.900000" cy="172.000000" r="1"/>
<line x1="532.900000" y1="181.000000" x2="535.900000" y2="182.000000"  transform="rotate(0.000000,535.900000,182.000000)" style="stroke: black; stroke-width:0.25;"/>
<line x1="532.900000" y1="183.000000" x2="535.900000" y2="182.000000"  transform="rotate(0.000000,535.900000,182.000000)" style="stroke: black; stroke-width:0.25;"/>
<a xlink:href="rphi-0x6000022a86c0.svg">
<rect x="582.600000" y="170.000000" width="38.700000" height="24.000000" rx="0" ry="0" style="stroke:#000000;fill:#FFFFFF;"/>
</a>
<a xlink:href="rphi-0x6000022a86c0.svg">
<text x="601.950000" y="184.000000" font-family="Verdana" font-size="7" text-anchor="middle" fill="#000000">rphi(x14)</text>
</a>
<circle cx="584.600000" cy="172.000000" r="1"/>
<rect x="639.300000" y="170.000000" width="38.700000" height="24.000000" rx="0" ry="0" style="stroke:#000000;fill:#FFFFFF;"/>
<text x="658.650000" y="184.000000" font-family="Verdana" font-size="7" text-anchor="middle" fill="#000000">[15] PM15</text>
<circle cx="641.300000" cy="172.000000" r="1"/>
<line x1="636.300000" y1="181.000000" x2="639.300000" y2="182.000000"  transform="rotate(0.000000,639.300000,182.000000)" style="stroke: black; stroke-width:0.25;"/>
<line x1="636.300000" y1="183.000000" x2="639.300000" y2="182.000000"  transform="rotate(0.000000,639.300000,182.000000)" style="stroke: black; stroke-width:0.25;"/>
<rect x="686.000000" y="170.000000" width="38.700000" height="24.000000" rx="0" ry="0" style="stroke:#000000;fill:#FFFFFF;"/>
<text x="705.350000" y="184.000000" font-family="Verdana" font-size="7" text-anchor="middle" fill="#000000">[15] PM15</text>
<circle cx="688.000000" cy="172.000000" r="1"/>
<line x1="630.300000" y1="161.000000" x2="630.300000" y2="203.000000"  style="stroke: black; stroke-linecap:round; stroke-width:0.25; stroke-dasharray:3,3;"/>
<line x1="630.300000" y1="203.000000" x2="733.700000" y2="203.000000"  style="stroke: black; stroke-linecap:round; stroke-width:0.25; stroke-dasharray:3,3;"/>
<line x1="733.700000" y1="203.000000" x2="733.700000" y2="161.000000"  style="stroke: black; stroke-linecap:round; stroke-width:0.25; stroke-dasharray:3,3;"/>
<line x1="630.300000" y1="161.000000" x2="635.300000" y2="161.000000"  style="stroke: black; stroke-linecap:round; stroke-width:0.25; stroke-dasharray:3,3;"/>
<line x1="677.225000" y1="161.000000" x2="733.700000" y2="161.000000"  style="stroke: black; stroke-linecap:round; stroke-width:0.25; stroke-dasharray:3,3;"/>
<text x="635.300000" y="163.000000" font-family="Verdana" font-size="7">Abstraction</text>
<line x1="526.900000" y1="151.000000" x2="526.900000" y2="213.000000"  style="stroke: black; stroke-linecap:round; stroke-width:0.25; stroke-dasharray:3,3;"/>
<line x1="526.900000" y1="213.000000" x2="743.700000" y2="213.000000"  style="stroke: black; stroke-linecap:round; stroke-width:0.25; stroke-dasharray:3,3;"/>
<line x1="743.700000" y1="213.000000" x2="743.700000" y2="151.000000"  style="stroke: black; stroke-linecap:round; stroke-width:0.25; stroke-dasharray:3,3;"/>
<line x1="526.900000" y1="151.000000" x2="531.900000" y2="151.000000"  style="stroke: black; stroke-linecap:round; stroke-width:0.25; stroke-dasharray:3,3;"/>
<line x1="573.825000" y1="151.000000" x2="743.700000" y2="151.000000"  style="stroke: black; stroke-linecap:round; stroke-width:0.25; stroke-dasharray:3,3;"/>
<text x="531.900000" y="153.000000" font-family="Verdana" font-size="7">Abstraction</text>
<line x1="423.500000" y1="141.000000" x2="423.500000" y2="223.000000"  style="stroke: black; stroke-linecap:round; stroke-width:0.25; stroke-dasharray:3,3;"/>
<line x1="423.500000" y1="223.000000" x2="753.700000" y2="223.000000"  style="stroke: black; stroke-linecap:round; stroke-width:0.25; stroke-dasharray:3,3;"/>
<line x1="753.700000" y1="223.000000" x2="753.700000" y2="141.000000"  style="stroke: black; stroke-linecap:round; stroke-width:0.25; stroke-dasharray:3,3;"/>
<line x1="423.500000" y1="141.000000" x2="428.500000" y2="141.000000"  style="stroke: black; stroke-linecap:round; stroke-width:0.25; stroke-dasharray:3,3;"/>
<line x1="470.425000" y1="141.000000" x2="753.700000" y2="141.000000"  style="stroke: black; stroke-linecap:round; stroke-width:0.25; stroke-dasharray:3,3;"/>
<text x="428.500000" y="143.000000" font-family="Verdana" font-size="7">Abstraction</text>
<line x1="320.100000" y1="131.000000" x2="320.100000" y2="233.000000"  style="stroke: black; stroke-linecap:round; stroke-width:0.25; stroke-dasharray:3,3;"/>
<line x1="320.100000" y1="233.000000" x2="763.700000" y2="233.000000"  style="stroke: black; stroke-linecap:round; stroke-width:0.25; stroke-dasharray:3,3;"/>
<line x1="763.700000" y1="233.000000" x2="763.700000" y2="131.000000"  style="stroke: black; stroke-linecap:round; stroke-width:0.25; stroke-dasharray:3,3;"/>
<line x1="320.100000" y1="131.000000" x2="325.100000" y2="131.000000"  style="stroke: black; stroke-linecap:round; stroke-width:0.25; stroke-dasharray:3,3;"/>
<line x1="367.025000" y1="131.000000" x2="763.700000" y2="131.000000"  style="stroke: black; stroke-linecap:round; stroke-width:0.25; stroke-dasharray:3,3;"/>
<text x="325.100000" y="133.000000" font-family="Verdana" font-size="7">Abstraction</text>
<line x1="216.700000" y1="121.000000" x2="216.700000" y2="243.000000"  style="stroke: black; stroke-linecap:round; stroke-width:0.25; stroke-dasharray:3,3;"/>
<line x1="216.700000" y1="243.000000" x2="773.700000" y2="243.000000"  style="stroke: black; stroke-linecap:round; stroke-width:0.25; stroke-dasharray:3,3;"/>
<line x1="773.700000" y1="243.000000" x2="773.700000" y2="121.000000"  style="stroke: black; stroke-linecap:round; stroke-width:0.25; stroke-dasharray:3,3;"/>
<line x1="216.700000" y1="121.000000" x2="221.700000" y2="121.000000"  style="stroke: black; stroke-linecap:round; stroke-width:0.25; stroke-dasharray:3,3;"/>
<line x1="263.625000" y1="121.000000" x2="773.700000" y2="121.000000"  style="stroke: black; stroke-linecap:round; stroke-width:0.25; stroke-dasharray:3,3;"/>
<text x="221.700000" y="123.000000" font-family="Verdana" font-size="7">Abstraction</text>
<rect x="800.700000" y="154.000000" width="38.700000" height="24.000000" rx="0" ry="0" style="stroke:#000000;fill:#FFFFFF;"/>
<text x="820.050000" y="168.000000" font-family="Verdana" font-size="7" text-anchor="middle" fill="#000000">next_pr</text>
<circle cx="802.700000" cy="156.000000" r="1"/>
<line x1="797.700000" y1="165.000000" x2="800.700000" y2="166.000000"  transform="rotate(0.000000,800.700000,166.000000)" style="stroke: black; stroke-width:0.25;"/>
<line x1="797.700000" y1="167.000000" x2="800.700000" y2="166.000000"  transform="rotate(0.000000,800.700000,166.000000)" style="stroke: black; stroke-width:0.25;"/>
<line x1="791.700000" y1="145.000000" x2="791.700000" y2="187.000000"  style="stroke: black; stroke-linecap:round; stroke-width:0.25; stroke-dasharray:3,3;"/>
<line x1="791.700000" y1="187.000000" x2="848.400000" y2="187.000000"  style="stroke: black; stroke-linecap:round; stroke-width:0.25; stroke-dasharray:3,3;"/>
<line x1="848.400000" y1="187.000000" x2="848.400000" y2="145.000000"  style="stroke: black; stroke-linecap:round; stroke-width:0.25; stroke-dasharray:3,3;"/>
<line x1="791.700000" y1="145.000000" x2="796.700000" y2="145.000000"  style="stroke: black; stroke-linecap:round; stroke-width:0.25; stroke-dasharray:3,3;"/>
<line x1="809.600000" y1="145.000000" x2="848.400000" y2="145.000000"  style="stroke: black; stroke-linecap:round; stroke-width:0.25; stroke-dasharray:3,3;"/>
<text x="796.700000" y="147.000000" font-family="Verdana" font-size="7">np</text>
<rect x="808.050000" y="196.000000" width="24.000000" height="24.000000" rx="0" ry="0" style="stroke:#000000;fill:#FFFFFF;"/>
<text x="820.050000" y="210.000000" font-family="Verdana" font-size="7" text-anchor="middle" fill="#000000">1</text>
<circle cx="810.050000" cy="198.000000" r="1"/>
<rect x="865.400000" y="170.000000" width="24.000000" height="24.000000" rx="0" ry="0" style="stroke:#000000;fill:#FFFFFF;"/>
<text x="877.400000" y="184.000000" font-family="Verdana" font-size="7" text-anchor="middle" fill="#000000">max</text>
<circle cx="867.400000" cy="172.000000" r="1"/>
<line x1="862.400000" y1="177.000000" x2="865.400000" y2="178.000000"  transform="rotate(0.000000,865.400000,178.000000)" style="stroke: black; stroke-width:0.25;"/>
<line x1="862.400000" y1="179.000000" x2="865.400000" y2="178.000000"  transform="rotate(0.000000,865.400000,178.000000)" style="stroke: black; stroke-width:0.25;"/>
<line x1="862.400000" y1="185.000000" x2="865.400000" y2="186.000000"  transform="rotate(0.000000,865.400000,186.000000)" style="stroke: black; stroke-width:0.25;"/>
<line x1="862.400000" y1="187.000000" x2="865.400000" y2="186.000000"  transform="rotate(0.000000,865.400000,186.000000)" style="stroke: black; stroke-width:0.25;"/>
<rect x="472.050000" y="252.000000" width="24.000000" height="24.000000" rx="0" ry="0" style="stroke:#000000;fill:#FFFFFF;"/>
<text x="484.050000" y="266.000000" font-family="Verdana" font-size="7" text-anchor="middle" fill="#000000">1</text>
<circle cx="474.050000" cy="254.000000" r="1"/>
<rect x="905.400000" y="186.000000" width="24.000000" height="24.000000" rx="0" ry="0" style="stroke:#000000;fill:#FFFFFF;"/>
<text x="917.400000" y="200.000000" font-family="Verdana" font-size="7" text-anchor="middle" fill="#000000">-</text>
<circle cx="907.400000" cy="188.000000" r="1"/>
<line x1="902.400000" y1="193.000000" x2="905.400000" y2="194.000000"  transform="rotate(0.000000,905.400000,194.000000)" style="stroke: black; stroke-width:0.25;"/>
<line x1="902.400000" y1="195.000000" x2="905.400000" y2="194.000000"  transform="rotate(0.000000,905.400000,194.000000)" style="stroke: black; stroke-width:0.25;"/>
<line x1="902.400000" y1="201.000000" x2="905.400000" y2="202.000000"  transform="rotate(0.000000,905.400000,202.000000)" style="stroke: black; stroke-width:0.25;"/>
<line x1="902.400000" y1="203.000000" x2="905.400000" y2="202.000000"  transform="rotate(0.000000,905.400000,202.000000)" style="stroke: black; stroke-width:0.25;"/>
<rect x="937.400000" y="186.000000" width="24.000000" height="24.000000" rx="0" ry="0" style="stroke:#000000;fill:#FFFFFF;"/>
<text x="949.400000" y="200.000000" font-family="Verdana" font-size="7" text-anchor="middle" fill="#000000">int</text>
<circle cx="939.400000" cy="188.000000" r="1"/>
<line x1="934.400000" y1="197.000000" x2="937.400000" y2="198.000000"  transform="rotate(0.000000,937.400000,198.000000)" style="stroke: black; stroke-width:0.25;"/>
<line x1="934.400000" y1="199.000000" x2="937.400000" y2="198.000000"  transform="rotate(0.000000,937.400000,198.000000)" style="stroke: black; stroke-width:0.25;"/>
<rect x="977.400000" y="170.000000" width="24.000000" height="24.000000" rx="0" ry="0" style="stroke:#000000;fill:#FFFFFF;"/>
<text x="989.400000" y="184.000000" font-family="Verdana" font-size="7" text-anchor="middle" fill="#000000">max</text>
<circle cx="979.400000" cy="172.000000" r="1"/>
<line x1="974.400000" y1="177.000000" x2="977.400000" y2="178.000000"  transform="rotate(0.000000,977.400000,178.000000)" style="stroke: black; stroke-width:0.25;"/>
<line x1="974.400000" y1="179.000000" x2="977.400000" y2="178.000000"  transform="rotate(0.000000,977.400000,178.000000)" style="stroke: black; stroke-width:0.25;"/>
<line x1="974.400000" y1="185.000000" x2="977.400000" y2="186.000000"  transform="rotate(0.000000,977.400000,186.000000)" style="stroke: black; stroke-width:0.25;"/>
<line x1="974.400000" y1="187.000000" x2="977.400000" y2="186.000000"  transform="rotate(0.000000,977.400000,186.000000)" style="stroke: black; stroke-width:0.25;"/>
<rect x="1017.400000" y="154.000000" width="24.000000" height="24.000000" rx="0" ry="0" style="stroke:#000000;fill:#FFFFFF;"/>
<text x="1029.400000" y="168.000000" font-family="Verdana" font-size="7" text-anchor="middle" fill="#000000">min</text>
<circle cx="1019.400000" cy="156.000000" r="1"/>
<line x1="1014.400000" y1="161.000000" x2="1017.400000" y2="162.000000"  transform="rotate(0.000000,1017.400000,162.000000)" style="stroke: black; stroke-width:0.25;"/>
<line x1="1014.400000" y1="163.000000" x2="1017.400000" y2="162.000000"  transform="rotate(0.000000,1017.400000,162.000000)" style="stroke: black; stroke-width:0.25;"/>
<line x1="1014.400000" y1="169.000000" x2="1017.400000" y2="170.000000"  transform="rotate(0.000000,1017.400000,170.000000)" style="stroke: black; stroke-width:0.25;"/>
<line x1="1014.400000" y1="171.000000" x2="1017.400000" y2="170.000000"  transform="rotate(0.000000,1017.400000,170.000000)" style="stroke: black; stroke-width:0.25;"/>
<rect x="1057.400000" y="138.000000" width="24.000000" height="24.000000" rx="0" ry="0" style="stroke:#000000;fill:#FFFFFF;"/>
<text x="1069.400000" y="152.000000" font-family="Verdana" font-size="7" text-anchor="middle" fill="#000000">@</text>
<circle cx="1059.400000" cy="140.000000" r="1"/>
<line x1="1054.400000" y1="145.000000" x2="1057.400000" y2="146.000000"  transform="rotate(0.000000,1057.400000,146.000000)" style="stroke: black; stroke-width:0.25;"/>
<line x1="1054.400000" y1="147.000000" x2="1057.400000" y2="146.000000"  transform="rotate(0.000000,1057.400000,146.000000)" style="stroke: black; stroke-width:0.25;"/>
<line x1="1054.400000" y1="153.000000" x2="1057.400000" y2="154.000000"  transform="rotate(0.000000,1057.400000,154.000000)" style="stroke: black; stroke-width:0.25;"/>
<line x1="1054.400000" y1="155.000000" x2="1057.400000" y2="154.000000"  transform="rotate(0.000000,1057.400000,154.000000)" style="stroke: black; stroke-width:0.25;"/>
<line x1="15.000000" y1="15.000000" x2="15.000000" y2="285.000000"  style="stroke: black; stroke-linecap:round; stroke-width:0.25; stroke-dasharray:3,3;"/>
<line x1="15.000000" y1="285.000000" x2="1098.400000" y2="285.000000"  style="stroke: black; stroke-linecap:round; stroke-width:0.25; stroke-dasharray:3,3;"/>
<line x1="1098.400000" y1="285.000000" x2="1098.400000" y2="15.000000"  style="stroke: black; stroke-linecap:round; stroke-width:0.25; stroke-dasharray:3,3;"/>
<line x1="15.000000" y1="15.000000" x2="20.000000" y2="15.000000"  style="stroke: black; stroke-linecap:round; stroke-width:0.25; stroke-dasharray:3,3;"/>
<line x1="119.975000" y1="15.000000" x2="1098.400000" y2="15.000000"  style="stroke: black; stroke-linecap:round; stroke-width:0.25; stroke-dasharray:3,3;"/>
<text x="20.000000" y="17.000000" font-family="Verdana" font-size="7">delay((1.92e+...,1 : - : int)</text>
<line x1="1100.400000" y1="149.000000" x2="1103.400000" y2="150.000000"  transform="rotate(0.000000,1103.400000,150.000000)" style="stroke: black; stroke-width:0.25;"/>
<line x1="1100.400000" y1="151.000000" x2="1103.400000" y2="150.000000"  transform="rotate(0.000000,1103.400000,150.000000)" style="stroke: black; stroke-width:0.25;"/>
<line x1="10.000000" y1="150.000000" x2="20.000000" y2="150.000000"  style="stroke:black; stroke-linecap:round; stroke-width:0.25;"/>
<line x1="20.000000" y1="150.000000" x2="24.000000" y2="150.000000"  style="stroke:black; stroke-linecap:round; stroke-width:0.25;"/>
<line x1="24.000000" y1="150.000000" x2="28.000000" y2="150.000000"  style="stroke:black; stroke-linecap:round; stroke-width:0.25;"/>
<line x1="28.000000" y1="150.000000" x2="28.000000" y2="150.000000"  style="stroke:black; stroke-linecap:round; stroke-width:0.25;"/>
<line x1="28.000000" y1="150.000000" x2="32.000000" y2="150.000000"  style="stroke:black; stroke-linecap:round; stroke-width:0.25;"/>
<line x1="207.700000" y1="182.000000" x2="211.700000" y2="182.000000"  style="stroke:black; stroke-linecap:round; stroke-width:0.25;"/>
<line x1="211.700000" y1="182.000000" x2="211.700000" y2="182.000000"  style="stroke:black; stroke-linecap:round; stroke-width:0.25;"/>
<line x1="211.700000" y1="182.000000" x2="221.700000" y2="182.000000"  style="stroke:black; stroke-linecap:round; stroke-width:0.25;"/>
<line x1="221.700000" y1="182.000000" x2="225.700000" y2="182.000000"  style="stroke:black; stroke-linecap:round; stroke-width:0.25;"/>
<line x1="311.100000" y1="182.000000" x2="315.100000" y2="182.000000"  style="stroke:black; stroke-linecap:round; stroke-width:0.25;"/>
<line x1="315.100000" y1="182.000000" x2="315.100000" y2="182.000000"  style="stroke:black; stroke-linecap:round; stroke-width:0.25;"/>
<line x1="315.100000" y1="182.000000" x2="325.100000" y2="182.000000"  style="stroke:black; stroke-linecap:round; stroke-width:0.25;"/>
<line x1="325.100000" y1="182.000000" x2="329.100000" y2="182.000000"  style="stroke:black; stroke-linecap:round; stroke-width:0.25;"/>
<line x1="414.500000" y1="182.000000" x2="418.500000" y2="182.000000"  style="stroke:black; stroke-linecap:round; stroke-width:0.25;"/>
<line x1="418.500000" y1="182.000000" x2="418.500000" y2="182.000000"  style="stroke:black; stroke-linecap:round; stroke-width:0.25;"/>
<line x1="418.500000" y1="182.000000" x2="428.500000" y2="182.000000"  style="stroke:black; stroke-linecap:round; stroke-width:0.25;"/>
<line x1="428.500000" y1="182.000000" x2="432.500000" y2="182.000000"  style="stroke:black; stroke-linecap:round; stroke-width:0.25;"/>
<line x1="496.050000" y1="264.000000" x2="500.050000" y2="264.000000"  style="stroke:black; stroke-linecap:round; stroke-width:0.25;"/>
<line x1="500.050000" y1="264.000000" x2="893.400000" y2="264.000000"  style="stroke:black; stroke-linecap:round; stroke-width:0.25;"/>
<line x1="517.900000" y1="182.000000" x2="521.900000" y2="182.000000"  style="stroke:black; stroke-linecap:round; stroke-width:0.25;"/>
<line x1="521.900000" y1="182.000000" x2="521.900000" y2="182.000000"  style="stroke:black; stroke-linecap:round; stroke-width:0.25;"/>
<line x1="521.900000" y1="182.000000" x2="531.900000" y2="182.000000"  style="stroke:black; stroke-linecap:round; stroke-width:0.25;"/>
<line x1="531.900000" y1="182.000000" x2="535.900000" y2="182.000000"  style="stroke:black; stroke-linecap:round; stroke-width:0.25;"/>
<line x1="532.050000" y1="100.000000" x2="536.050000" y2="100.000000"  style="stroke:black; stroke-linecap:round; stroke-width:0.25;"/>
<line x1="536.050000" y1="100.000000" x2="965.400000" y2="100.000000"  style="stroke:black; stroke-linecap:round; stroke-width:0.25;"/>
<line x1="552.950000" y1="68.000000" x2="556.950000" y2="68.000000"  style="stroke:black; stroke-linecap:round; stroke-width:0.25;"/>
<line x1="556.950000" y1="68.000000" x2="1005.400000" y2="68.000000"  style="stroke:black; stroke-linecap:round; stroke-width:0.25;"/>
<line x1="579.400000" y1="36.000000" x2="583.400000" y2="36.000000"  style="stroke:black; stroke-linecap:round; stroke-width:0.25;"/>
<line x1="583.400000" y1="36.000000" x2="1045.400000" y2="36.000000"  style="stroke:black; stroke-linecap:round; stroke-width:0.25;"/>
<line x1="621.300000" y1="182.000000" x2="625.300000" y2="182.000000"  style="stroke:black; stroke-linecap:round; stroke-width:0.25;"/>
<line x1="625.300000" y1="182.000000" x2="625.300000" y2="182.000000"  style="stroke:black; stroke-linecap:round; stroke-width:0.25;"/>
<line x1="625.300000" y1="182.000000" x2="635.300000" y2="182.000000"  style="stroke:black; stroke-linecap:round; stroke-width:0.25;"/>
<line x1="635.300000" y1="182.000000" x2="639.300000" y2="182.000000"  style="stroke:black; stroke-linecap:round; stroke-width:0.25;"/>
<line x1="724.700000" y1="182.000000" x2="728.700000" y2="182.000000"  style="stroke:black; stroke-linecap:round; stroke-width:0.25;"/>
<line x1="728.700000" y1="182.000000" x2="738.700000" y2="182.000000"  style="stroke:black; stroke-linecap:round; stroke-width:0.25;"/>
<line x1="738.700000" y1="182.000000" x2="748.700000" y2="182.000000"  style="stroke:black; stroke-linecap:round; stroke-width:0.25;"/>
<line x1="748.700000" y1="182.000000" x2="758.700000" y2="182.000000"  style="stroke:black; stroke-linecap:round; stroke-width:0.25;"/>
<line x1="758.700000" y1="182.000000" x2="768.700000" y2="182.000000"  style="stroke:black; stroke-linecap:round; stroke-width:0.25;"/>
<line x1="768.700000" y1="182.000000" x2="778.700000" y2="182.000000"  style="stroke:black; stroke-linecap:round; stroke-width:0.25;"/>
<line x1="778.700000" y1="166.000000" x2="786.700000" y2="166.000000"  style="stroke:black; stroke-linecap:round; stroke-width:0.25;"/>
<line x1="778.700000" y1="182.000000" x2="778.700000" y2="166.000000"  style="stroke:black; stroke-linecap:round; stroke-width:0.25;"/>
<line x1="778.700000" y1="182.000000" x2="778.700000" y2="182.000000"  style="stroke:black; stroke-linecap:round; stroke-width:0.25;"/>
<line x1="786.700000" y1="166.000000" x2="796.700000" y2="166.000000"  style="stroke:black; stroke-linecap:round; stroke-width:0.25;"/>
<line x1="796.700000" y1="166.000000" x2="800.700000" y2="166.000000"  style="stroke:black; stroke-linecap:round; stroke-width:0.25;"/>
<line x1="832.050000" y1="208.000000" x2="836.050000" y2="208.000000"  style="stroke:black; stroke-linecap:round; stroke-width:0.25;"/>
<line x1="836.050000" y1="208.000000" x2="853.400000" y2="208.000000"  style="stroke:black; stroke-linecap:round; stroke-width:0.25;"/>
<line x1="839.400000" y1="166.000000" x2="843.400000" y2="166.000000"  style="stroke:black; stroke-linecap:round; stroke-width:0.25;"/>
<line x1="843.400000" y1="166.000000" x2="853.400000" y2="166.000000"  style="stroke:black; stroke-linecap:round; stroke-width:0.25;"/>
<line x1="853.400000" y1="166.000000" x2="861.400000" y2="166.000000"  style="stroke:black; stroke-linecap:round; stroke-width:0.25;"/>
<line x1="853.400000" y1="186.000000" x2="861.400000" y2="186.000000"  style="stroke:black; stroke-linecap:round; stroke-width:0.25;"/>
<line x1="853.400000" y1="208.000000" x2="853.400000" y2="186.000000"  style="stroke:black; stroke-linecap:round; stroke-width:0.25;"/>
<line x1="853.400000" y1="208.000000" x2="853.400000" y2="208.000000"  style="stroke:black; stroke-linecap:round; stroke-width:0.25;"/>
<line x1="861.400000" y1="166.000000" x2="861.400000" y2="178.000000"  style="stroke:black; stroke-linecap:round; stroke-width:0.25;"/>
<line x1="861.400000" y1="178.000000" x2="861.400000" y2="178.000000"  style="stroke:black; stroke-linecap:round; stroke-width:0.25;"/>
<line x1="861.400000" y1="178.000000" x2="865.400000" y2="178.000000"  style="stroke:black; stroke-linecap:round; stroke-width:0.25;"/>
<line x1="861.400000" y1="186.000000" x2="865.400000" y2="186.000000"  style="stroke:black; stroke-linecap:round; stroke-width:0.25;"/>
<line x1="889.400000" y1="182.000000" x2="893.400000" y2="182.000000"  style="stroke:black; stroke-linecap:round; stroke-width:0.25;"/>
<line x1="893.400000" y1="182.000000" x2="901.400000" y2="182.000000"  style="stroke:black; stroke-linecap:round; stroke-width:0.25;"/>
<line x1="893.400000" y1="202.000000" x2="901.400000" y2="202.000000"  style="stroke:black; stroke-linecap:round; stroke-width:0.25;"/>
<line x1="893.400000" y1="264.000000" x2="893.400000" y2="202.000000"  style="stroke:black; stroke-linecap:round; stroke-width:0.25;"/>
<line x1="893.400000" y1="264.000000" x2="893.400000" y2="264.000000"  style="stroke:black; stroke-linecap:round; stroke-width:0.25;"/>
<line x1="901.400000" y1="182.000000" x2="901.400000" y2="194.000000"  style="stroke:black; stroke-linecap:round; stroke-width:0.25;"/>
<line x1="901.400000" y1="194.000000" x2="901.400000" y2="194.000000"  style="stroke:black; stroke-linecap:round; stroke-width:0.25;"/>
<line x1="901.400000" y1="194.000000" x2="905.400000" y2="194.000000"  style="stroke:black; stroke-linecap:round; stroke-width:0.25;"/>
<line x1="901.400000" y1="202.000000" x2="905.400000" y2="202.000000"  style="stroke:black; stroke-linecap:round; stroke-width:0.25;"/>
<line x1="929.400000" y1="198.000000" x2="933.400000" y2="198.000000"  style="stroke:black; stroke-linecap:round; stroke-width:0.25;"/>
<line x1="933.400000" y1="198.000000" x2="933.400000" y2="198.000000"  style="stroke:black; stroke-linecap:round; stroke-width:0.25;"/>
<line x1="933.400000" y1="198.000000" x2="937.400000" y2="198.000000"  style="stroke:black; stroke-linecap:round; stroke-width:0.25;"/>
<line x1="961.400000" y1="198.000000" x2="965.400000" y2="198.000000"  style="stroke:black; stroke-linecap:round; stroke-width:0.25;"/>
<line x1="965.400000" y1="100.000000" x2="973.400000" y2="100.000000"  style="stroke:black; stroke-linecap:round; stroke-width:0.25;"/>
<line x1="965.400000" y1="186.000000" x2="973.400000" y2="186.000000"  style="stroke:black; stroke-linecap:round; stroke-width:0.25;"/>
<line x1="965.400000" y1="198.000000" x2="965.400000" y2="186.000000"  style="stroke:black; stroke-linecap:round; stroke-width:0.25;"/>
<line x1="965.400000" y1="198.000000" x2="965.400000" y2="198.000000"  style="stroke:black; stroke-linecap:round; stroke-width:0.25;"/>
<line x1="973.400000" y1="100.000000" x2="973.400000" y2="178.000000"  style="stroke:black; stroke-linecap:round; stroke-width:0.25;"/>
<line x1="973.400000" y1="178.000000" x2="973.400000" y2="178.000000"  style="stroke:black; stroke-linecap:round; stroke-width:0.25;"/>
<line x1="973.400000" y1="178.000000" x2="977.400000" y2="178.000000"  style="stroke:black; stroke-linecap:round; stroke-width:0.25;"/>
<line x1="973.400000" y1="186.000000" x2="977.400000" y2="186.000000"  style="stroke:black; stroke-linecap:round; stroke-width:0.25;"/>
<line x1="1001.400000" y1="182.000000" x2="1005.400000" y2="182.000000"  style="stroke:black; stroke-linecap:round; stroke-width:0.25;"/>
<line x1="1005.400000" y1="68.000000" x2="1013.400000" y2="68.000000"  style="stroke:black; stroke-linecap:round; stroke-width:0.25;"/>
<line x1="1005.400000" y1="170.000000" x2="1013.400000" y2="170.000000"  style="stroke:black; stroke-linecap:round; stroke-width:0.25;"/>
<line x1="1005.400000" y1="182.000000" x2="1005.400000" y2="170.000000"  style="stroke:black; stroke-linecap:round; stroke-width:0.25;"/>
<line x1="1005.400000" y1="182.000000" x2="1005.400000" y2="182.000000"  style="stroke:black; stroke-linecap:round; stroke-width:0.25;"/>
<line x1="1013.400000" y1="68.000000" x2="1013.400000" y2="162.000000"  style="stroke:black; stroke-linecap:round; stroke-width:0.25;"/>
<line x1="1013.400000" y1="162.000000" x2="1013.400000" y2="162.000000"  style="stroke:black; stroke-linecap:round; stroke-width:0.25;"/>
<line x1="1013.400000" y1="162.000000" x2="1017.400000" y2="162.000000"  style="stroke:black; stroke-linecap:round; stroke-width:0.25;"/>
<line x1="1013.400000" y1="170.000000" x2="1017.400000" y2="170.000000"  style="stroke:black; stroke-linecap:round; stroke-width:0.25;"/>
<line x1="1041.400000" y1="166.000000" x2="1045.400000" y2="166.000000"  style="stroke:black; stroke-linecap:round; stroke-width:0.25;"/>
<line x1="1045.400000" y1="36.000000" x2="1053.400000" y2="36.000000"  style="stroke:black; stroke-linecap:round; stroke-width:0.25;"/>
<line x1="1045.400000" y1="154.000000" x2="1053.400000" y2="154.000000"  style="stroke:black; stroke-linecap:round; stroke-width:0.25;"/>
<line x1="1045.400000" y1="166.000000" x2="1045.400000" y2="154.000000"  style="stroke:black; stroke-linecap:round; stroke-width:0.25;"/>
<line x1="1045.400000" y1="166.000000" x2="1045.400000" y2="166.000000"  style="stroke:black; stroke-linecap:round; stroke-width:0.25;"/>
<line x1="1053.400000" y1="36.000000" x2="1053.400000" y2="146.000000"  style="stroke:black; stroke-linecap:round; stroke-width:0.25;"/>
<line x1="1053.400000" y1="146.000000" x2="1053.400000" y2="146.000000"  style="stroke:black; stroke-linecap:round; stroke-width:0.25;"/>
<line x1="1053.400000" y1="146.000000" x2="1057.400000" y2="146.000000"  style="stroke:black; stroke-linecap:round; stroke-width:0.25;"/>
<line x1="1053.400000" y1="154.000000" x2="1057.400000" y2="154.000000"  style="stroke:black; stroke-linecap:round; stroke-width:0.25;"/>
<line x1="1081.400000" y1="150.000000" x2="1085.400000" y2="150.000000"  style="stroke:black; stroke-linecap:round; stroke-width:0.25;"/>
<line x1="1085.400000" y1="150.000000" x2="1085.400000" y2="150.000000"  style="stroke:black; stroke-linecap:round; stroke-width:0.25;"/>
<line x1="1085.400000" y1="150.000000" x2="1089.400000" y2="150.000000"  style="stroke:black; stroke-linecap:round; stroke-width:0.25;"/>
<line x1="1089.400000" y1="150.000000" x2="1093.400000" y2="150.000000"  style="stroke:black; stroke-linecap:round; stroke-width:0.25;"/>
<line x1="1093.400000" y1="150.000000" x2="1103.400000" y2="150.000000"  style="stroke:black; stroke-linecap:round; stroke-width:0.25;"/>
</svg>
