<?xml version="1.0"?>
<svg xmlns="http://www.w3.org/2000/svg" xmlns:xlink="http://www.w3.org/1999/xlink" viewBox="0 0 1567.000000 380.000000" width="783.500000mm" height="190.000000mm" version="1.1">
<a xlink:href="dflcv-0x600006350240.svg">
<rect x="0.000000" y="0.000000" width="1566.000000" height="379.000000" rx="0" ry="0" style="stroke:#000000;fill:#FFFFFF;"/>
</a>
<text x="10.000000" y="7.000000" font-family="Verdana" font-size="7"></text>
<rect x="32.000000" y="178.000000" width="38.700000" height="24.000000" rx="0" ry="0" style="stroke:#000000;fill:#FFFFFF;"/>
<text x="51.350000" y="192.000000" font-family="Verdana" font-size="7" text-anchor="middle" fill="#000000">[263] x</text>
<circle cx="34.000000" cy="180.000000" r="1"/>
<line x1="29.000000" y1="189.000000" x2="32.000000" y2="190.000000"  transform="rotate(0.000000,32.000000,190.000000)" style="stroke: black; stroke-width:0.25;"/>
<line x1="29.000000" y1="191.000000" x2="32.000000" y2="190.000000"  transform="rotate(0.000000,32.000000,190.000000)" style="stroke: black; stroke-width:0.25;"/>
<rect x="767.500000" y="24.000000" width="38.700000" height="24.000000" rx="0" ry="0" style="stroke:#000000;fill:#FFFFFF;"/>
<text x="786.850000" y="38.000000" font-family="Verdana" font-size="7" text-anchor="middle" fill="#000000">[263] x</text>
<circle cx="769.500000" cy="26.000000" r="1"/>
<a xlink:href="delmax-0x6000022c8f30.svg">
<rect x="753.950000" y="56.000000" width="25.800000" height="24.000000" rx="0" ry="0" style="stroke:#000000;fill:#FFFFFF;"/>
</a>
<a xlink:href="delmax-0x6000022c8f30.svg">
<text x="766.850000" y="70.000000" font-family="Verdana" font-size="7" text-anchor="middle" fill="#000000">delmax</text>
</a>
<circle cx="755.950000" cy="58.000000" r="1"/>
<rect x="734.850000" y="88.000000" width="24.000000" height="24.000000" rx="0" ry="0" style="stroke:#000000;fill:#FFFFFF;"/>
<text x="746.850000" y="102.000000" font-family="Verdana" font-size="7" text-anchor="middle" fill="#000000">0</text>
<circle cx="736.850000" cy="90.000000" r="1"/>
<a xlink:href="rphi-0x60000221dc20.svg">
<rect x="78.700000" y="210.000000" width="129.000000" height="24.000000" rx="0" ry="0" style="stroke:#000000;fill:#FFFFFF;"/>
</a>
<a xlink:href="rphi-0x60000221dc20.svg">
<text x="143.200000" y="224.000000" font-family="Verdana" font-size="7" text-anchor="middle" fill="#000000">rphi((1.92e+0...: min),4 : *)</text>
</a>
<circle cx="80.700000" cy="212.000000" r="1"/>
<rect x="225.700000" y="210.000000" width="38.700000" height="24.000000" rx="0" ry="0" style="stroke:#000000;fill:#FFFFFF;"/>
<text x="245.050000" y="224.000000" font-family="Verdana" font-size="7" text-anchor="middle" fill="#000000">[37] PM37</text>
<circle cx="227.700000" cy="212.000000" r="1"/>
<line x1="222.700000" y1="221.000000" x2="225.700000" y2="222.000000"  transform="rotate(0.000000,225.700000,222.000000)" style="stroke: black; stroke-width:0.25;"/>
<line x1="222.700000" y1="223.000000" x2="225.700000" y2="222.000000"  transform="rotate(0.000000,225.700000,222.000000)" style="stroke: black; stroke-width:0.25;"/>
<a xlink:href="rphi-0x6000022073c0.svg">
<rect x="272.400000" y="210.000000" width="38.700000" height="24.000000" rx="0" ry="0" style="stroke:#000000;fill:#FFFFFF;"/>
</a>
<a xlink:href="rphi-0x6000022073c0.svg">
<text x="291.750000" y="224.000000" font-family="Verdana" font-size="7" text-anchor="middle" fill="#000000">rphi(x37)</text>
</a>
<circle cx="274.400000" cy="212.000000" r="1"/>
<rect x="329.100000" y="210.000000" width="38.700000" height="24.000000" rx="0" ry="0" style="stroke:#000000;fill:#FFFFFF;"/>
<text x="348.450000" y="224.000000" font-family="Verdana" font-size="7" text-anchor="middle" fill="#000000">[38] PM38</text>
<circle cx="331.100000" cy="212.000000" r="1"/>
<line x1="326.100000" y1="221.000000" x2="329.100000" y2="222.000000"  transform="rotate(0.000000,329.100000,222.000000)" style="stroke: black; stroke-width:0.25;"/>
<line x1="326.100000" y1="223.000000" x2="329.100000" y2="222.000000"  transform="rotate(0.000000,329.100000,222.000000)" style="stroke: black; stroke-width:0.25;"/>
<a xlink:href="rphi-0x60000225d200.svg">
<rect x="375.800000" y="210.000000" width="38.700000" height="24.000000" rx="0" ry="0" style="stroke:#000000;fill:#FFFFFF;"/>
</a>
<a xlink:href="rphi-0x60000225d200.svg">
<text x="395.150000" y="224.000000" font-family="Verdana" font-size="7" text-anchor="middle" fill="#000000">rphi(x38)</text>
</a>
<circle cx="377.800000" cy="212.000000" r="1"/>
<rect x="432.500000" y="210.000000" width="38.700000" height="24.000000" rx="0" ry="0" style="stroke:#000000;fill:#FFFFFF;"/>
<text x="451.850000" y="224.000000" font-family="Verdana" font-size="7" text-anchor="middle" fill="#000000">[39] PM39</text>
<circle cx="434.500000" cy="212.000000" r="1"/>
<line x1="429.500000" y1="221.000000" x2="432.500000" y2="222.000000"  transform="rotate(0.000000,432.500000,222.000000)" style="stroke: black; stroke-width:0.25;"/>
<line x1="429.500000" y1="223.000000" x2="432.500000" y2="222.000000"  transform="rotate(0.000000,432.500000,222.000000)" style="stroke: black; stroke-width:0.25;"/>
<a xlink:href="rphi-0x60000225f060.svg">
<rect x="479.200000" y="210.000000" width="38.700000" height="24.000000" rx="0" ry="0" style="stroke:#000000;fill:#FFFFFF;"/>
</a>
<a xlink:href="rphi-0x60000225f060.svg">
<text x="498.550000" y="224.000000" font-family="Verdana" font-size="7" text-anchor="middle" fill="#000000">rphi(x39)</text>
</a>
<circle cx="481.200000" cy="212.000000" r="1"/>
<rect x="535.900000" y="210.000000" width="38.700000" height="24.000000" rx="0" ry="0" style="stroke:#000000;fill:#FFFFFF;"/>
<text x="555.250000" y="224.000000" font-family="Verdana" font-size="7" text-anchor="middle" fill="#000000">[40] PM40</text>
<circle cx="537.900000" cy="212.000000" r="1"/>
<line x1="532.900000" y1="221.000000" x2="535.900000" y2="222.000000"  transform="rotate(0.000000,535.900000,222.000000)" style="stroke: black; stroke-width:0.25;"/>
<line x1="532.900000" y1="223.000000" x2="535.900000" y2="222.000000"  transform="rotate(0.000000,535.900000,222.000000)" style="stroke: black; stroke-width:0.25;"/>
<a xlink:href="rphi-0x600002250f30.svg">
<rect x="582.600000" y="210.000000" width="38.700000" height="24.000000" rx="0" ry="0" style="stroke:#000000;fill:#FFFFFF;"/>
</a>
<a xlink:href="rphi-0x600002250f30.svg">
<text x="601.950000" y="224.000000" font-family="Verdana" font-size="7" text-anchor="middle" fill="#000000">rphi(x40)</text>
</a>
<circle cx="584.600000" cy="212.000000" r="1"/>
<rect x="639.300000" y="210.000000" width="38.700000" height="24.000000" rx="0" ry="0" style="stroke:#000000;fill:#FFFFFF;"/>
<text x="658.650000" y="224.000000" font-family="Verdana" font-size="7" text-anchor="middle" fill="#000000">[41] PM41</text>
<circle cx="641.300000" cy="212.000000" r="1"/>
<line x1="636.300000" y1="221.000000" x2="639.300000" y2="222.000000"  transform="rotate(0.000000,639.300000,222.000000)" style="stroke: black; stroke-width:0.25;"/>
<line x1="636.300000" y1="223.000000" x2="639.300000" y2="222.000000"  transform="rotate(0.000000,639.300000,222.000000)" style="stroke: black; stroke-width:0.25;"/>
<a xlink:href="rphi-0x600002252d00.svg">
<rect x="686.000000" y="210.000000" width="38.700000" height="24.000000" rx="0" ry="0" style="stroke:#000000;fill:#FFFFFF;"/>
</a>
<a xlink:href="rphi-0x600002252d00.svg">
<text x="705.350000" y="224.000000" font-family="Verdana" font-size="7" text-anchor="middle" fill="#000000">rphi(x41)</text>
</a>
<circle cx="688.000000" cy="212.000000" r="1"/>
<rect x="742.700000" y="210.000000" width="38.700000" height="24.000000" rx="0" ry="0" style="stroke:#000000;fill:#FFFFFF;"/>
<text x="762.050000" y="224.000000" font-family="Verdana" font-size="7" text-anchor="middle" fill="#000000">[42] PM42</text>
<circle cx="744.700000" cy="212.000000" r="1"/>
<line x1="739.700000" y1="221.000000" x2="742.700000" y2="222.000000"  transform="rotate(0.000000,742.700000,222.000000)" style="stroke: black; stroke-width:0.25;"/>
<line x1="739.700000" y1="223.000000" x2="742.700000" y2="222.000000"  transform="rotate(0.000000,742.700000,222.000000)" style="stroke: black; stroke-width:0.25;"/>
<a xlink:href="rphi-0x600002259200.svg">
<rect x="789.400000" y="210.000000" width="38.700000" height="24.000000" rx="0" ry="0" style="stroke:#000000;fill:#FFFFFF;"/>
</a>
<a xlink:href="rphi-0x600002259200.svg">
<text x="808.750000" y="224.000000" font-family="Verdana" font-size="7" text-anchor="middle" fill="#000000">rphi(x42)</text>
</a>
<circle cx="791.400000" cy="212.000000" r="1"/>
<rect x="846.100000" y="210.000000" width="38.700000" height="24.000000" rx="0" ry="0" style="stroke:#000000;fill:#FFFFFF;"/>
<text x="865.450000" y="224.000000" font-family="Verdana" font-size="7" text-anchor="middle" fill="#000000">[43] PM43</text>
<circle cx="848.100000" cy="212.000000" r="1"/>
<line x1="843.100000" y1="221.000000" x2="846.100000" y2="222.000000"  transform="rotate(0.000000,846.100000,222.000000)" style="stroke: black; stroke-width:0.25;"/>
<line x1="843.100000" y1="223.000000" x2="846.100000" y2="222.000000"  transform="rotate(0.000000,846.100000,222.000000)" style="stroke: black; stroke-width:0.25;"/>
<a xlink:href="rphi-0x6000022885a0.svg">
<rect x="892.800000" y="210.000000" width="38.700000" height="24.000000" rx="0" ry="0" style="stroke:#000000;fill:#FFFFFF;"/>
</a>
<a xlink:href="rphi-0x6000022885a0.svg">
<text x="912.150000" y="224.000000" font-family="Verdana" font-size="7" text-anchor="middle" fill="#000000">rphi(x43)</text>
</a>
<circle cx="894.800000" cy="212.000000" r="1"/>
<rect x="949.500000" y="210.000000" width="38.700000" height="24.000000" rx="0" ry="0" style="stroke:#000000;fill:#FFFFFF;"/>
<text x="968.850000" y="224.000000" font-family="Verdana" font-size="7" text-anchor="middle" fill="#000000">[44] PM44</text>
<circle cx="951.500000" cy="212.000000" r="1"/>
<line x1="946.500000" y1="221.000000" x2="949.500000" y2="222.000000"  transform="rotate(0.000000,949.500000,222.000000)" style="stroke: black; stroke-width:0.25;"/>
<line x1="946.500000" y1="223.000000" x2="949.500000" y2="222.000000"  transform="rotate(0.000000,949.500000,222.000000)" style="stroke: black; stroke-width:0.25;"/>
<a xlink:href="rphi-0x60000228a370.svg">
<rect x="996.200000" y="210.000000" width="38.700000" height="24.000000" rx="0" ry="0" style="stroke:#000000;fill:#FFFFFF;"/>
</a>
<a xlink:href="rphi-0x60000228a370.svg">
<text x="1015.550000" y="224.000000" font-family="Verdana" font-size="7" text-anchor="middle" fill="#000000">rphi(x44)</text>
</a>
<circle cx="998.200000" cy="212.000000" r="1"/>
<rect x="1052.900000" y="210.000000" width="38.700000" height="24.000000" rx="0" ry="0" style="stroke:#000000;fill:#FFFFFF;"/>
<text x="1072.250000" y="224.000000" font-family="Verdana" font-size="7" text-anchor="middle" fill="#000000">[45] PM45</text>
<circle cx="1054.900000" cy="212.000000" r="1"/>
<line x1="1049.900000" y1="221.000000" x2="1052.900000" y2="222.000000"  transform="rotate(0.000000,1052.900000,222.000000)" style="stroke: black; stroke-width:0.25;"/>
<line x1="1049.900000" y1="223.000000" x2="1052.900000" y2="222.000000"  transform="rotate(0.000000,1052.900000,222.000000)" style="stroke: black; stroke-width:0.25;"/>
<rect x="1099.600000" y="210.000000" width="38.700000" height="24.000000" rx="0" ry="0" style="stroke:#000000;fill:#FFFFFF;"/>
<text x="1118.950000" y="224.000000" font-family="Verdana" font-size="7" text-anchor="middle" fill="#000000">[45] PM45</text>
<circle cx="1101.600000" cy="212.000000" r="1"/>
<line x1="1043.900000" y1="201.000000" x2="1043.900000" y2="243.000000"  style="stroke: black; stroke-linecap:round; stroke-width:0.25; stroke-dasharray:3,3;"/>
<line x1="1043.900000" y1="243.000000" x2="1147.300000" y2="243.000000"  style="stroke: black; stroke-linecap:round; stroke-width:0.25; stroke-dasharray:3,3;"/>
<line x1="1147.300000" y1="243.000000" x2="1147.300000" y2="201.000000"  style="stroke: black; stroke-linecap:round; stroke-width:0.25; stroke-dasharray:3,3;"/>
<line x1="1043.900000" y1="201.000000" x2="1048.900000" y2="201.000000"  style="stroke: black; stroke-linecap:round; stroke-width:0.25; stroke-dasharray:3,3;"/>
<line x1="1090.825000" y1="201.000000" x2="1147.300000" y2="201.000000"  style="stroke: black; stroke-linecap:round; stroke-width:0.25; stroke-dasharray:3,3;"/>
<text x="1048.900000" y="203.000000" font-family="Verdana" font-size="7">Abstraction</text>
<line x1="940.500000" y1="191.000000" x2="940.500000" y2="253.000000"  style="stroke: black; stroke-linecap:round; stroke-width:0.25; stroke-dasharray:3,3;"/>
<line x1="940.500000" y1="253.000000" x2="1157.300000" y2="253.000000"  style="stroke: black; stroke-linecap:round; stroke-width:0.25; stroke-dasharray:3,3;"/>
<line x1="1157.300000" y1="253.000000" x2="1157.300000" y2="191.000000"  style="stroke: black; stroke-linecap:round; stroke-width:0.25; stroke-dasharray:3,3;"/>
<line x1="940.500000" y1="191.000000" x2="945.500000" y2="191.000000"  style="stroke: black; stroke-linecap:round; stroke-width:0.25; stroke-dasharray:3,3;"/>
<line x1="987.425000" y1="191.000000" x2="1157.300000" y2="191.000000"  style="stroke: black; stroke-linecap:round; stroke-width:0.25; stroke-dasharray:3,3;"/>
<text x="945.500000" y="193.000000" font-family="Verdana" font-size="7">Abstraction</text>
<line x1="837.100000" y1="181.000000" x2="837.100000" y2="263.000000"  style="stroke: black; stroke-linecap:round; stroke-width:0.25; stroke-dasharray:3,3;"/>
<line x1="837.100000" y1="263.000000" x2="1167.300000" y2="263.000000"  style="stroke: black; stroke-linecap:round; stroke-width:0.25; stroke-dasharray:3,3;"/>
<line x1="1167.300000" y1="263.000000" x2="1167.300000" y2="181.000000"  style="stroke: black; stroke-linecap:round; stroke-width:0.25; stroke-dasharray:3,3;"/>
<line x1="837.100000" y1="181.000000" x2="842.100000" y2="181.000000"  style="stroke: black; stroke-linecap:round; stroke-width:0.25; stroke-dasharray:3,3;"/>
<line x1="884.025000" y1="181.000000" x2="1167.300000" y2="181.000000"  style="stroke: black; stroke-linecap:round; stroke-width:0.25; stroke-dasharray:3,3;"/>
<text x="842.100000" y="183.000000" font-family="Verdana" font-size="7">Abstraction</text>
<line x1="733.700000" y1="171.000000" x2="733.700000" y2="273.000000"  style="stroke: black; stroke-linecap:round; stroke-width:0.25; stroke-dasharray:3,3;"/>
<line x1="733.700000" y1="273.000000" x2="1177.300000" y2="273.000000"  style="stroke: black; stroke-linecap:round; stroke-width:0.25; stroke-dasharray:3,3;"/>
<line x1="1177.300000" y1="273.000000" x2="1177.300000" y2="171.000000"  style="stroke: black; stroke-linecap:round; stroke-width:0.25; stroke-dasharray:3,3;"/>
<line x1="733.700000" y1="171.000000" x2="738.700000" y2="171.000000"  style="stroke: black; stroke-linecap:round; stroke-width:0.25; stroke-dasharray:3,3;"/>
<line x1="780.625000" y1="171.000000" x2="1177.300000" y2="171.000000"  style="stroke: black; stroke-linecap:round; stroke-width:0.25; stroke-dasharray:3,3;"/>
<text x="738.700000" y="173.000000" font-family="Verdana" font-size="7">Abstraction</text>
<line x1="630.300000" y1="161.000000" x2="630.300000" y2="283.000000"  style="stroke: black; stroke-linecap:round; stroke-width:0.25; stroke-dasharray:3,3;"/>
<line x1="630.300000" y1="283.000000" x2="1187.300000" y2="283.000000"  style="stroke: black; stroke-linecap:round; stroke-width:0.25; stroke-dasharray:3,3;"/>
<line x1="1187.300000" y1="283.000000" x2="1187.300000" y2="161.000000"  style="stroke: black; stroke-linecap:round; stroke-width:0.25; stroke-dasharray:3,3;"/>
<line x1="630.300000" y1="161.000000" x2="635.300000" y2="161.000000"  style="stroke: black; stroke-linecap:round; stroke-width:0.25; stroke-dasharray:3,3;"/>
<line x1="677.225000" y1="161.000000" x2="1187.300000" y2="161.000000"  style="stroke: black; stroke-linecap:round; stroke-width:0.25; stroke-dasharray:3,3;"/>
<text x="635.300000" y="163.000000" font-family="Verdana" font-size="7">Abstraction</text>
<line x1="526.900000" y1="151.000000" x2="526.900000" y2="293.000000"  style="stroke: black; stroke-linecap:round; stroke-width:0.25; stroke-dasharray:3,3;"/>
<line x1="526.900000" y1="293.000000" x2="1197.300000" y2="293.000000"  style="stroke: black; stroke-linecap:round; stroke-width:0.25; stroke-dasharray:3,3;"/>
<line x1="1197.300000" y1="293.000000" x2="1197.300000" y2="151.000000"  style="stroke: black; stroke-linecap:round; stroke-width:0.25; stroke-dasharray:3,3;"/>
<line x1="526.900000" y1="151.000000" x2="531.900000" y2="151.000000"  style="stroke: black; stroke-linecap:round; stroke-width:0.25; stroke-dasharray:3,3;"/>
<line x1="573.825000" y1="151.000000" x2="1197.300000" y2="151.000000"  style="stroke: black; stroke-linecap:round; stroke-width:0.25; stroke-dasharray:3,3;"/>
<text x="531.900000" y="153.000000" font-family="Verdana" font-size="7">Abstraction</text>
<line x1="423.500000" y1="141.000000" x2="423.500000" y2="303.000000"  style="stroke: black; stroke-linecap:round; stroke-width:0.25; stroke-dasharray:3,3;"/>
<line x1="423.500000" y1="303.000000" x2="1207.300000" y2="303.000000"  style="stroke: black; stroke-linecap:round; stroke-width:0.25; stroke-dasharray:3,3;"/>
<line x1="1207.300000" y1="303.000000" x2="1207.300000" y2="141.000000"  style="stroke: black; stroke-linecap:round; stroke-width:0.25; stroke-dasharray:3,3;"/>
<line x1="423.500000" y1="141.000000" x2="428.500000" y2="141.000000"  style="stroke: black; stroke-linecap:round; stroke-width:0.25; stroke-dasharray:3,3;"/>
<line x1="470.425000" y1="141.000000" x2="1207.300000" y2="141.000000"  style="stroke: black; stroke-linecap:round; stroke-width:0.25; stroke-dasharray:3,3;"/>
<text x="428.500000" y="143.000000" font-family="Verdana" font-size="7">Abstraction</text>
<line x1="320.100000" y1="131.000000" x2="320.100000" y2="313.000000"  style="stroke: black; stroke-linecap:round; stroke-width:0.25; stroke-dasharray:3,3;"/>
<line x1="320.100000" y1="313.000000" x2="1217.300000" y2="313.000000"  style="stroke: black; stroke-linecap:round; stroke-width:0.25; stroke-dasharray:3,3;"/>
<line x1="1217.300000" y1="313.000000" x2="1217.300000" y2="131.000000"  style="stroke: black; stroke-linecap:round; stroke-width:0.25; stroke-dasharray:3,3;"/>
<line x1="320.100000" y1="131.000000" x2="325.100000" y2="131.000000"  style="stroke: black; stroke-linecap:round; stroke-width:0.25; stroke-dasharray:3,3;"/>
<line x1="367.025000" y1="131.000000" x2="1217.300000" y2="131.000000"  style="stroke: black; stroke-linecap:round; stroke-width:0.25; stroke-dasharray:3,3;"/>
<text x="325.100000" y="133.000000" font-family="Verdana" font-size="7">Abstraction</text>
<line x1="216.700000" y1="121.000000" x2="216.700000" y2="323.000000"  style="stroke: black; stroke-linecap:round; stroke-width:0.25; stroke-dasharray:3,3;"/>
<line x1="216.700000" y1="323.000000" x2="1227.300000" y2="323.000000"  style="stroke: black; stroke-linecap:round; stroke-width:0.25; stroke-dasharray:3,3;"/>
<line x1="1227.300000" y1="323.000000" x2="1227.300000" y2="121.000000"  style="stroke: black; stroke-linecap:round; stroke-width:0.25; stroke-dasharray:3,3;"/>
<line x1="216.700000" y1="121.000000" x2="221.700000" y2="121.000000"  style="stroke: black; stroke-linecap:round; stroke-width:0.25; stroke-dasharray:3,3;"/>
<line x1="263.625000" y1="121.000000" x2="1227.300000" y2="121.000000"  style="stroke: black; stroke-linecap:round; stroke-width:0.25; stroke-dasharray:3,3;"/>
<text x="221.700000" y="123.000000" font-family="Verdana" font-size="7">Abstraction</text>
<rect x="1254.300000" y="194.000000" width="38.700000" height="24.000000" rx="0" ry="0" style="stroke:#000000;fill:#FFFFFF;"/>
<text x="1273.650000" y="208.000000" font-family="Verdana" font-size="7" text-anchor="middle" fill="#000000">next_pr</text>
<circle cx="1256.300000" cy="196.000000" r="1"/>
<line x1="1251.300000" y1="205.000000" x2="1254.300000" y2="206.000000"  transform="rotate(0.000000,1254.300000,206.000000)" style="stroke: black; stroke-width:0.25;"/>
<line x1="1251.300000" y1="207.000000" x2="1254.300000" y2="206.000000"  transform="rotate(0.000000,1254.300000,206.000000)" style="stroke: black; stroke-width:0.25;"/>
<line x1="1245.300000" y1="185.000000" x2="1245.300000" y2="227.000000"  style="stroke: black; stroke-linecap:round; stroke-width:0.25; stroke-dasharray:3,3;"/>
<line x1="1245.300000" y1="227.000000" x2="1302.000000" y2="227.000000"  style="stroke: black; stroke-linecap:round; stroke-width:0.25; stroke-dasharray:3,3;"/>
<line x1="1302.000000" y1="227.000000" x2="1302.000000" y2="185.000000"  style="stroke: black; stroke-linecap:round; stroke-width:0.25; stroke-dasharray:3,3;"/>
<line x1="1245.300000" y1="185.000000" x2="1250.300000" y2="185.000000"  style="stroke: black; stroke-linecap:round; stroke-width:0.25; stroke-dasharray:3,3;"/>
<line x1="1263.200000" y1="185.000000" x2="1302.000000" y2="185.000000"  style="stroke: black; stroke-linecap:round; stroke-width:0.25; stroke-dasharray:3,3;"/>
<text x="1250.300000" y="187.000000" font-family="Verdana" font-size="7">np</text>
<rect x="1261.650000" y="236.000000" width="24.000000" height="24.000000" rx="0" ry="0" style="stroke:#000000;fill:#FFFFFF;"/>
<text x="1273.650000" y="250.000000" font-family="Verdana" font-size="7" text-anchor="middle" fill="#000000">1</text>
<circle cx="1263.650000" cy="238.000000" r="1"/>
<rect x="1319.000000" y="210.000000" width="24.000000" height="24.000000" rx="0" ry="0" style="stroke:#000000;fill:#FFFFFF;"/>
<text x="1331.000000" y="224.000000" font-family="Verdana" font-size="7" text-anchor="middle" fill="#000000">max</text>
<circle cx="1321.000000" cy="212.000000" r="1"/>
<line x1="1316.000000" y1="217.000000" x2="1319.000000" y2="218.000000"  transform="rotate(0.000000,1319.000000,218.000000)" style="stroke: black; stroke-width:0.25;"/>
<line x1="1316.000000" y1="219.000000" x2="1319.000000" y2="218.000000"  transform="rotate(0.000000,1319.000000,218.000000)" style="stroke: black; stroke-width:0.25;"/>
<line x1="1316.000000" y1="225.000000" x2="1319.000000" y2="226.000000"  transform="rotate(0.000000,1319.000000,226.000000)" style="stroke: black; stroke-width:0.25;"/>
<line x1="1316.000000" y1="227.000000" x2="1319.000000" y2="226.000000"  transform="rotate(0.000000,1319.000000,226.000000)" style="stroke: black; stroke-width:0.25;"/>
<rect x="698.850000" y="332.000000" width="24.000000" height="24.000000" rx="0" ry="0" style="stroke:#000000;fill:#FFFFFF;"/>
<text x="710.850000" y="346.000000" font-family="Verdana" font-size="7" text-anchor="middle" fill="#000000">1</text>
<circle cx="700.850000" cy="334.000000" r="1"/>
<rect x="1359.000000" y="226.000000" width="24.000000" height="24.000000" rx="0" ry="0" style="stroke:#000000;fill:#FFFFFF;"/>
<text x="1371.000000" y="240.000000" font-family="Verdana" font-size="7" text-anchor="middle" fill="#000000">-</text>
<circle cx="1361.000000" cy="228.000000" r="1"/>
<line x1="1356.000000" y1="233.000000" x2="1359.000000" y2="234.000000"  transform="rotate(0.000000,1359.000000,234.000000)" style="stroke: black; stroke-width:0.25;"/>
<line x1="1356.000000" y1="235.000000" x2="1359.000000" y2="234.000000"  transform="rotate(0.000000,1359.000000,234.000000)" style="stroke: black; stroke-width:0.25;"/>
<line x1="1356.000000" y1="241.000000" x2="1359.000000" y2="242.000000"  transform="rotate(0.000000,1359.000000,242.000000)" style="stroke: black; stroke-width:0.25;"/>
<line x1="1356.000000" y1="243.000000" x2="1359.000000" y2="242.000000"  transform="rotate(0.000000,1359.000000,242.000000)" style="stroke: black; stroke-width:0.25;"/>
<rect x="1391.000000" y="226.000000" width="24.000000" height="24.000000" rx="0" ry="0" style="stroke:#000000;fill:#FFFFFF;"/>
<text x="1403.000000" y="240.000000" font-family="Verdana" font-size="7" text-anchor="middle" fill="#000000">int</text>
<circle cx="1393.000000" cy="228.000000" r="1"/>
<line x1="1388.000000" y1="237.000000" x2="1391.000000" y2="238.000000"  transform="rotate(0.000000,1391.000000,238.000000)" style="stroke: black; stroke-width:0.25;"/>
<line x1="1388.000000" y1="239.000000" x2="1391.000000" y2="238.000000"  transform="rotate(0.000000,1391.000000,238.000000)" style="stroke: black; stroke-width:0.25;"/>
<rect x="1431.000000" y="210.000000" width="24.000000" height="24.000000" rx="0" ry="0" style="stroke:#000000;fill:#FFFFFF;"/>
<text x="1443.000000" y="224.000000" font-family="Verdana" font-size="7" text-anchor="middle" fill="#000000">max</text>
<circle cx="1433.000000" cy="212.000000" r="1"/>
<line x1="1428.000000" y1="217.000000" x2="1431.000000" y2="218.000000"  transform="rotate(0.000000,1431.000000,218.000000)" style="stroke: black; stroke-width:0.25;"/>
<line x1="1428.000000" y1="219.000000" x2="1431.000000" y2="218.000000"  transform="rotate(0.000000,1431.000000,218.000000)" style="stroke: black; stroke-width:0.25;"/>
<line x1="1428.000000" y1="225.000000" x2="1431.000000" y2="226.000000"  transform="rotate(0.000000,1431.000000,226.000000)" style="stroke: black; stroke-width:0.25;"/>
<line x1="1428.000000" y1="227.000000" x2="1431.000000" y2="226.000000"  transform="rotate(0.000000,1431.000000,226.000000)" style="stroke: black; stroke-width:0.25;"/>
<rect x="1471.000000" y="194.000000" width="24.000000" height="24.000000" rx="0" ry="0" style="stroke:#000000;fill:#FFFFFF;"/>
<text x="1483.000000" y="208.000000" font-family="Verdana" font-size="7" text-anchor="middle" fill="#000000">min</text>
<circle cx="1473.000000" cy="196.000000" r="1"/>
<line x1="1468.000000" y1="201.000000" x2="1471.000000" y2="202.000000"  transform="rotate(0.000000,1471.000000,202.000000)" style="stroke: black; stroke-width:0.25;"/>
<line x1="1468.000000" y1="203.000000" x2="1471.000000" y2="202.000000"  transform="rotate(0.000000,1471.000000,202.000000)" style="stroke: black; stroke-width:0.25;"/>
<line x1="1468.000000" y1="209.000000" x2="1471.000000" y2="210.000000"  transform="rotate(0.000000,1471.000000,210.000000)" style="stroke: black; stroke-width:0.25;"/>
<line x1="1468.000000" y1="211.000000" x2="1471.000000" y2="210.000000"  transform="rotate(0.000000,1471.000000,210.000000)" style="stroke: black; stroke-width:0.25;"/>
<rect x="1511.000000" y="178.000000" width="24.000000" height="24.000000" rx="0" ry="0" style="stroke:#000000;fill:#FFFFFF;"/>
<text x="1523.000000" y="192.000000" font-family="Verdana" font-size="7" text-anchor="middle" fill="#000000">@</text>
<circle cx="1513.000000" cy="180.000000" r="1"/>
<line x1="1508.000000" y1="185.000000" x2="1511.000000" y2="186.000000"  transform="rotate(0.000000,1511.000000,186.000000)" style="stroke: black; stroke-width:0.25;"/>
<line x1="1508.000000" y1="187.000000" x2="1511.000000" y2="186.000000"  transform="rotate(0.000000,1511.000000,186.000000)" style="stroke: black; stroke-width:0.25;"/>
<line x1="1508.000000" y1="193.000000" x2="1511.000000" y2="194.000000"  transform="rotate(0.000000,1511.000000,194.000000)" style="stroke: black; stroke-width:0.25;"/>
<line x1="1508.000000" y1="195.000000" x2="1511.000000" y2="194.000000"  transform="rotate(0.000000,1511.000000,194.000000)" style="stroke: black; stroke-width:0.25;"/>
<line x1="15.000000" y1="15.000000" x2="15.000000" y2="365.000000"  style="stroke: black; stroke-linecap:round; stroke-width:0.25; stroke-dasharray:3,3;"/>
<line x1="15.000000" y1="365.000000" x2="1552.000000" y2="365.000000"  style="stroke: black; stroke-linecap:round; stroke-width:0.25; stroke-dasharray:3,3;"/>
<line x1="1552.000000" y1="365.000000" x2="1552.000000" y2="15.000000"  style="stroke: black; stroke-linecap:round; stroke-width:0.25; stroke-dasharray:3,3;"/>
<line x1="15.000000" y1="15.000000" x2="20.000000" y2="15.000000"  style="stroke: black; stroke-linecap:round; stroke-width:0.25; stroke-dasharray:3,3;"/>
<line x1="119.975000" y1="15.000000" x2="1552.000000" y2="15.000000"  style="stroke: black; stroke-linecap:round; stroke-width:0.25; stroke-dasharray:3,3;"/>
<text x="20.000000" y="17.000000" font-family="Verdana" font-size="7">delay((1.92e+...,1 : - : int)</text>
<line x1="1554.000000" y1="189.000000" x2="1557.000000" y2="190.000000"  transform="rotate(0.000000,1557.000000,190.000000)" style="stroke: black; stroke-width:0.25;"/>
<line x1="1554.000000" y1="191.000000" x2="1557.000000" y2="190.000000"  transform="rotate(0.000000,1557.000000,190.000000)" style="stroke: black; stroke-width:0.25;"/>
<line x1="10.000000" y1="190.000000" x2="20.000000" y2="190.000000"  style="stroke:black; stroke-linecap:round; stroke-width:0.25;"/>
<line x1="20.000000" y1="190.000000" x2="24.000000" y2="190.000000"  style="stroke:black; stroke-linecap:round; stroke-width:0.25;"/>
<line x1="24.000000" y1="190.000000" x2="28.000000" y2="190.000000"  style="stroke:black; stroke-linecap:round; stroke-width:0.25;"/>
<line x1="28.000000" y1="190.000000" x2="28.000000" y2="190.000000"  style="stroke:black; stroke-linecap:round; stroke-width:0.25;"/>
<line x1="28.000000" y1="190.000000" x2="32.000000" y2="190.000000"  style="stroke:black; stroke-linecap:round; stroke-width:0.25;"/>
<line x1="207.700000" y1="222.000000" x2="211.700000" y2="222.000000"  style="stroke:black; stroke-linecap:round; stroke-width:0.25;"/>
<line x1="211.700000" y1="222.000000" x2="211.700000" y2="222.000000"  style="stroke:black; stroke-linecap:round; stroke-width:0.25;"/>
<line x1="211.700000" y1="222.000000" x2="221.700000" y2="222.000000"  style="stroke:black; stroke-linecap:round; stroke-width:0.25;"/>
<line x1="221.700000" y1="222.000000" x2="225.700000" y2="222.000000"  style="stroke:black; stroke-linecap:round; stroke-width:0.25;"/>
<line x1="311.100000" y1="222.000000" x2="315.100000" y2="222.000000"  style="stroke:black; stroke-linecap:round; stroke-width:0.25;"/>
<line x1="315.100000" y1="222.000000" x2="315.100000" y2="222.000000"  style="stroke:black; stroke-linecap:round; stroke-width:0.25;"/>
<line x1="315.100000" y1="222.000000" x2="325.100000" y2="222.000000"  style="stroke:black; stroke-linecap:round; stroke-width:0.25;"/>
<line x1="325.100000" y1="222.000000" x2="329.100000" y2="222.000000"  style="stroke:black; stroke-linecap:round; stroke-width:0.25;"/>
<line x1="414.500000" y1="222.000000" x2="418.500000" y2="222.000000"  style="stroke:black; stroke-linecap:round; stroke-width:0.25;"/>
<line x1="418.500000" y1="222.000000" x2="418.500000" y2="222.000000"  style="stroke:black; stroke-linecap:round; stroke-width:0.25;"/>
<line x1="418.500000" y1="222.000000" x2="428.500000" y2="222.000000"  style="stroke:black; stroke-linecap:round; stroke-width:0.25;"/>
<line x1="428.500000" y1="222.000000" x2="432.500000" y2="222.000000"  style="stroke:black; stroke-linecap:round; stroke-width:0.25;"/>
<line x1="517.900000" y1="222.000000" x2="521.900000" y2="222.000000"  style="stroke:black; stroke-linecap:round; stroke-width:0.25;"/>
<line x1="521.900000" y1="222.000000" x2="521.900000" y2="222.000000"  style="stroke:black; stroke-linecap:round; stroke-width:0.25;"/>
<line x1="521.900000" y1="222.000000" x2="531.900000" y2="222.000000"  style="stroke:black; stroke-linecap:round; stroke-width:0.25;"/>
<line x1="531.900000" y1="222.000000" x2="535.900000" y2="222.000000"  style="stroke:black; stroke-linecap:round; stroke-width:0.25;"/>
<line x1="621.300000" y1="222.000000" x2="625.300000" y2="222.000000"  style="stroke:black; stroke-linecap:round; stroke-width:0.25;"/>
<line x1="625.300000" y1="222.000000" x2="625.300000" y2="222.000000"  style="stroke:black; stroke-linecap:round; stroke-width:0.25;"/>
<line x1="625.300000" y1="222.000000" x2="635.300000" y2="222.000000"  style="stroke:black; stroke-linecap:round; stroke-width:0.25;"/>
<line x1="635.300000" y1="222.000000" x2="639.300000" y2="222.000000"  style="stroke:black; stroke-linecap:round; stroke-width:0.25;"/>
<line x1="722.850000" y1="344.000000" x2="726.850000" y2="344.000000"  style="stroke:black; stroke-linecap:round; stroke-width:0.25;"/>
<line x1="724.700000" y1="222.000000" x2="728.700000" y2="222.000000"  style="stroke:black; stroke-linecap:round; stroke-width:0.25;"/>
<line x1="726.850000" y1="344.000000" x2="1347.000000" y2="344.000000"  style="stroke:black; stroke-linecap:round; stroke-width:0.25;"/>
<line x1="728.700000" y1="222.000000" x2="728.700000" y2="222.000000"  style="stroke:black; stroke-linecap:round; stroke-width:0.25;"/>
<line x1="728.700000" y1="222.000000" x2="738.700000" y2="222.000000"  style="stroke:black; stroke-linecap:round; stroke-width:0.25;"/>
<line x1="738.700000" y1="222.000000" x2="742.700000" y2="222.000000"  style="stroke:black; stroke-linecap:round; stroke-width:0.25;"/>
<line x1="758.850000" y1="100.000000" x2="762.850000" y2="100.000000"  style="stroke:black; stroke-linecap:round; stroke-width:0.25;"/>
<line x1="762.850000" y1="100.000000" x2="1419.000000" y2="100.000000"  style="stroke:black; stroke-linecap:round; stroke-width:0.25;"/>
<line x1="779.750000" y1="68.000000" x2="783.750000" y2="68.000000"  style="stroke:black; stroke-linecap:round; stroke-width:0.25;"/>
<line x1="783.750000" y1="68.000000" x2="1459.000000" y2="68.000000"  style="stroke:black; stroke-linecap:round; stroke-width:0.25;"/>
<line x1="806.200000" y1="36.000000" x2="810.200000" y2="36.000000"  style="stroke:black; stroke-linecap:round; stroke-width:0.25;"/>
<line x1="810.200000" y1="36.000000" x2="1499.000000" y2="36.000000"  style="stroke:black; stroke-linecap:round; stroke-width:0.25;"/>
<line x1="828.100000" y1="222.000000" x2="832.100000" y2="222.000000"  style="stroke:black; stroke-linecap:round; stroke-width:0.25;"/>
<line x1="832.100000" y1="222.000000" x2="832.100000" y2="222.000000"  style="stroke:black; stroke-linecap:round; stroke-width:0.25;"/>
<line x1="832.100000" y1="222.000000" x2="842.100000" y2="222.000000"  style="stroke:black; stroke-linecap:round; stroke-width:0.25;"/>
<line x1="842.100000" y1="222.000000" x2="846.100000" y2="222.000000"  style="stroke:black; stroke-linecap:round; stroke-width:0.25;"/>
<line x1="931.500000" y1="222.000000" x2="935.500000" y2="222.000000"  style="stroke:black; stroke-linecap:round; stroke-width:0.25;"/>
<line x1="935.500000" y1="222.000000" x2="935.500000" y2="222.000000"  style="stroke:black; stroke-linecap:round; stroke-width:0.25;"/>
<line x1="935.500000" y1="222.000000" x2="945.500000" y2="222.000000"  style="stroke:black; stroke-linecap:round; stroke-width:0.25;"/>
<line x1="945.500000" y1="222.000000" x2="949.500000" y2="222.000000"  style="stroke:black; stroke-linecap:round; stroke-width:0.25;"/>
<line x1="1034.900000" y1="222.000000" x2="1038.900000" y2="222.000000"  style="stroke:black; stroke-linecap:round; stroke-width:0.25;"/>
<line x1="1038.900000" y1="222.000000" x2="1038.900000" y2="222.000000"  style="stroke:black; stroke-linecap:round; stroke-width:0.25;"/>
<line x1="1038.900000" y1="222.000000" x2="1048.900000" y2="222.000000"  style="stroke:black; stroke-linecap:round; stroke-width:0.25;"/>
<line x1="1048.900000" y1="222.000000" x2="1052.900000" y2="222.000000"  style="stroke:black; stroke-linecap:round; stroke-width:0.25;"/>
<line x1="1138.300000" y1="222.000000" x2="1142.300000" y2="222.000000"  style="stroke:black; stroke-linecap:round; stroke-width:0.25;"/>
<line x1="1142.300000" y1="222.000000" x2="1152.300000" y2="222.000000"  style="stroke:black; stroke-linecap:round; stroke-width:0.25;"/>
<line x1="1152.300000" y1="222.000000" x2="1162.300000" y2="222.000000"  style="stroke:black; stroke-linecap:round; stroke-width:0.25;"/>
<line x1="1162.300000" y1="222.000000" x2="1172.300000" y2="222.000000"  style="stroke:black; stroke-linecap:round; stroke-width:0.25;"/>
<line x1="1172.300000" y1="222.000000" x2="1182.300000" y2="222.000000"  style="stroke:black; stroke-linecap:round; stroke-width:0.25;"/>
<line x1="1182.300000" y1="222.000000" x2="1192.300000" y2="222.000000"  style="stroke:black; stroke-linecap:round; stroke-width:0.25;"/>
<line x1="1192.300000" y1="222.000000" x2="1202.300000" y2="222.000000"  style="stroke:black; stroke-linecap:round; stroke-width:0.25;"/>
<line x1="1202.300000" y1="222.000000" x2="1212.300000" y2="222.000000"  style="stroke:black; stroke-linecap:round; stroke-width:0.25;"/>
<line x1="1212.300000" y1="222.000000" x2="1222.300000" y2="222.000000"  style="stroke:black; stroke-linecap:round; stroke-width:0.25;"/>
<line x1="1222.300000" y1="222.000000" x2="1232.300000" y2="222.000000"  style="stroke:black; stroke-linecap:round; stroke-width:0.25;"/>
<line x1="1232.300000" y1="206.000000" x2="1240.300000" y2="206.000000"  style="stroke:black; stroke-linecap:round; stroke-width:0.25;"/>
<line x1="1232.300000" y1="222.000000" x2="1232.300000" y2="206.000000"  style="stroke:black; stroke-linecap:round; stroke-width:0.25;"/>
<line x1="1232.300000" y1="222.000000" x2="1232.300000" y2="222.000000"  style="stroke:black; stroke-linecap:round; stroke-width:0.25;"/>
<line x1="1240.300000" y1="206.000000" x2="1250.300000" y2="206.000000"  style="stroke:black; stroke-linecap:round; stroke-width:0.25;"/>
<line x1="1250.300000" y1="206.000000" x2="1254.300000" y2="206.000000"  style="stroke:black; stroke-linecap:round; stroke-width:0.25;"/>
<line x1="1285.650000" y1="248.000000" x2="1289.650000" y2="248.000000"  style="stroke:black; stroke-linecap:round; stroke-width:0.25;"/>
<line x1="1289.650000" y1="248.000000" x2="1307.000000" y2="248.000000"  style="stroke:black; stroke-linecap:round; stroke-width:0.25;"/>
<line x1="1293.000000" y1="206.000000" x2="1297.000000" y2="206.000000"  style="stroke:black; stroke-linecap:round; stroke-width:0.25;"/>
<line x1="1297.000000" y1="206.000000" x2="1307.000000" y2="206.000000"  style="stroke:black; stroke-linecap:round; stroke-width:0.25;"/>
<line x1="1307.000000" y1="226.000000" x2="1315.000000" y2="226.000000"  style="stroke:black; stroke-linecap:round; stroke-width:0.25;"/>
<line x1="1307.000000" y1="248.000000" x2="1307.000000" y2="226.000000"  style="stroke:black; stroke-linecap:round; stroke-width:0.25;"/>
<line x1="1307.000000" y1="248.000000" x2="1307.000000" y2="248.000000"  style="stroke:black; stroke-linecap:round; stroke-width:0.25;"/>
<line x1="1307.000000" y1="206.000000" x2="1315.000000" y2="206.000000"  style="stroke:black; stroke-linecap:round; stroke-width:0.25;"/>
<line x1="1315.000000" y1="206.000000" x2="1315.000000" y2="218.000000"  style="stroke:black; stroke-linecap:round; stroke-width:0.25;"/>
<line x1="1315.000000" y1="218.000000" x2="1315.000000" y2="218.000000"  style="stroke:black; stroke-linecap:round; stroke-width:0.25;"/>
<line x1="1315.000000" y1="218.000000" x2="1319.000000" y2="218.000000"  style="stroke:black; stroke-linecap:round; stroke-width:0.25;"/>
<line x1="1315.000000" y1="226.000000" x2="1319.000000" y2="226.000000"  style="stroke:black; stroke-linecap:round; stroke-width:0.25;"/>
<line x1="1343.000000" y1="222.000000" x2="1347.000000" y2="222.000000"  style="stroke:black; stroke-linecap:round; stroke-width:0.25;"/>
<line x1="1347.000000" y1="222.000000" x2="1355.000000" y2="222.000000"  style="stroke:black; stroke-linecap:round; stroke-width:0.25;"/>
<line x1="1347.000000" y1="242.000000" x2="1355.000000" y2="242.000000"  style="stroke:black; stroke-linecap:round; stroke-width:0.25;"/>
<line x1="1347.000000" y1="344.000000" x2="1347.000000" y2="242.000000"  style="stroke:black; stroke-linecap:round; stroke-width:0.25;"/>
<line x1="1347.000000" y1="344.000000" x2="1347.000000" y2="344.000000"  style="stroke:black; stroke-linecap:round; stroke-width:0.25;"/>
<line x1="1355.000000" y1="222.000000" x2="1355.000000" y2="234.000000"  style="stroke:black; stroke-linecap:round; stroke-width:0.25;"/>
<line x1="1355.000000" y1="234.000000" x2="1355.000000" y2="234.000000"  style="stroke:black; stroke-linecap:round; stroke-width:0.25;"/>
<line x1="1355.000000" y1="234.000000" x2="1359.000000" y2="234.000000"  style="stroke:black; stroke-linecap:round; stroke-width:0.25;"/>
<line x1="1355.000000" y1="242.000000" x2="1359.000000" y2="242.000000"  style="stroke:black; stroke-linecap:round; stroke-width:0.25;"/>
<line x1="1383.000000" y1="238.000000" x2="1387.000000" y2="238.000000"  style="stroke:black; stroke-linecap:round; stroke-width:0.25;"/>
<line x1="1387.000000" y1="238.000000" x2="1387.000000" y2="238.000000"  style="stroke:black; stroke-linecap:round; stroke-width:0.25;"/>
<line x1="1387.000000" y1="238.000000" x2="1391.000000" y2="238.000000"  style="stroke:black; stroke-linecap:round; stroke-width:0.25;"/>
<line x1="1415.000000" y1="238.000000" x2="1419.000000" y2="238.000000"  style="stroke:black; stroke-linecap:round; stroke-width:0.25;"/>
<line x1="1419.000000" y1="100.000000" x2="1427.000000" y2="100.000000"  style="stroke:black; stroke-linecap:round; stroke-width:0.25;"/>
<line x1="1419.000000" y1="226.000000" x2="1427.000000" y2="226.000000"  style="stroke:black; stroke-linecap:round; stroke-width:0.25;"/>
<line x1="1419.000000" y1="238.000000" x2="1419.000000" y2="226.000000"  style="stroke:black; stroke-linecap:round; stroke-width:0.25;"/>
<line x1="1419.000000" y1="238.000000" x2="1419.000000" y2="238.000000"  style="stroke:black; stroke-linecap:round; stroke-width:0.25;"/>
<line x1="1427.000000" y1="100.000000" x2="1427.000000" y2="218.000000"  style="stroke:black; stroke-linecap:round; stroke-width:0.25;"/>
<line x1="1427.000000" y1="218.000000" x2="1427.000000" y2="218.000000"  style="stroke:black; stroke-linecap:round; stroke-width:0.25;"/>
<line x1="1427.000000" y1="218.000000" x2="1431.000000" y2="218.000000"  style="stroke:black; stroke-linecap:round; stroke-width:0.25;"/>
<line x1="1427.000000" y1="226.000000" x2="1431.000000" y2="226.000000"  style="stroke:black; stroke-linecap:round; stroke-width:0.25;"/>
<line x1="1455.000000" y1="222.000000" x2="1459.000000" y2="222.000000"  style="stroke:black; stroke-linecap:round; stroke-width:0.25;"/>
<line x1="1459.000000" y1="68.000000" x2="1467.000000" y2="68.000000"  style="stroke:black; stroke-linecap:round; stroke-width:0.25;"/>
<line x1="1459.000000" y1="210.000000" x2="1467.000000" y2="210.000000"  style="stroke:black; stroke-linecap:round; stroke-width:0.25;"/>
<line x1="1459.000000" y1="222.000000" x2="1459.000000" y2="210.000000"  style="stroke:black; stroke-linecap:round; stroke-width:0.25;"/>
<line x1="1459.000000" y1="222.000000" x2="1459.000000" y2="222.000000"  style="stroke:black; stroke-linecap:round; stroke-width:0.25;"/>
<line x1="1467.000000" y1="68.000000" x2="1467.000000" y2="202.000000"  style="stroke:black; stroke-linecap:round; stroke-width:0.25;"/>
<line x1="1467.000000" y1="202.000000" x2="1467.000000" y2="202.000000"  style="stroke:black; stroke-linecap:round; stroke-width:0.25;"/>
<line x1="1467.000000" y1="202.000000" x2="1471.000000" y2="202.000000"  style="stroke:black; stroke-linecap:round; stroke-width:0.25;"/>
<line x1="1467.000000" y1="210.000000" x2="1471.000000" y2="210.000000"  style="stroke:black; stroke-linecap:round; stroke-width:0.25;"/>
<line x1="1495.000000" y1="206.000000" x2="1499.000000" y2="206.000000"  style="stroke:black; stroke-linecap:round; stroke-width:0.25;"/>
<line x1="1499.000000" y1="36.000000" x2="1507.000000" y2="36.000000"  style="stroke:black; stroke-linecap:round; stroke-width:0.25;"/>
<line x1="1499.000000" y1="194.000000" x2="1507.000000" y2="194.000000"  style="stroke:black; stroke-linecap:round; stroke-width:0.25;"/>
<line x1="1499.000000" y1="206.000000" x2="1499.000000" y2="194.000000"  style="stroke:black; stroke-linecap:round; stroke-width:0.25;"/>
<line x1="1499.000000" y1="206.000000" x2="1499.000000" y2="206.000000"  style="stroke:black; stroke-linecap:round; stroke-width:0.25;"/>
<line x1="1507.000000" y1="36.000000" x2="1507.000000" y2="186.000000"  style="stroke:black; stroke-linecap:round; stroke-width:0.25;"/>
<line x1="1507.000000" y1="186.000000" x2="1507.000000" y2="186.000000"  style="stroke:black; stroke-linecap:round; stroke-width:0.25;"/>
<line x1="1507.000000" y1="186.000000" x2="1511.000000" y2="186.000000"  style="stroke:black; stroke-linecap:round; stroke-width:0.25;"/>
<line x1="1507.000000" y1="194.000000" x2="1511.000000" y2="194.000000"  style="stroke:black; stroke-linecap:round; stroke-width:0.25;"/>
<line x1="1535.000000" y1="190.000000" x2="1539.000000" y2="190.000000"  style="stroke:black; stroke-linecap:round; stroke-width:0.25;"/>
<line x1="1539.000000" y1="190.000000" x2="1539.000000" y2="190.000000"  style="stroke:black; stroke-linecap:round; stroke-width:0.25;"/>
<line x1="1539.000000" y1="190.000000" x2="1543.000000" y2="190.000000"  style="stroke:black; stroke-linecap:round; stroke-width:0.25;"/>
<line x1="1543.000000" y1="190.000000" x2="1547.000000" y2="190.000000"  style="stroke:black; stroke-linecap:round; stroke-width:0.25;"/>
<line x1="1547.000000" y1="190.000000" x2="1557.000000" y2="190.000000"  style="stroke:black; stroke-linecap:round; stroke-width:0.25;"/>
</svg>
