<?xml version="1.0"?>
<svg xmlns="http://www.w3.org/2000/svg" xmlns:xlink="http://www.w3.org/1999/xlink" viewBox="0 0 1453.600000 360.000000" width="726.800000mm" height="180.000000mm" version="1.1">
<a xlink:href="dflcv-0x60000635def0.svg">
<rect x="0.000000" y="0.000000" width="1452.600000" height="359.000000" rx="0" ry="0" style="stroke:#000000;fill:#FFFFFF;"/>
</a>
<text x="10.000000" y="7.000000" font-family="Verdana" font-size="7"></text>
<rect x="32.000000" y="168.000000" width="38.700000" height="24.000000" rx="0" ry="0" style="stroke:#000000;fill:#FFFFFF;"/>
<text x="51.350000" y="182.000000" font-family="Verdana" font-size="7" text-anchor="middle" fill="#000000">[262] x</text>
<circle cx="34.000000" cy="170.000000" r="1"/>
<line x1="29.000000" y1="179.000000" x2="32.000000" y2="180.000000"  transform="rotate(0.000000,32.000000,180.000000)" style="stroke: black; stroke-width:0.25;"/>
<line x1="29.000000" y1="181.000000" x2="32.000000" y2="180.000000"  transform="rotate(0.000000,32.000000,180.000000)" style="stroke: black; stroke-width:0.25;"/>
<rect x="710.800000" y="24.000000" width="38.700000" height="24.000000" rx="0" ry="0" style="stroke:#000000;fill:#FFFFFF;"/>
<text x="730.150000" y="38.000000" font-family="Verdana" font-size="7" text-anchor="middle" fill="#000000">[262] x</text>
<circle cx="712.800000" cy="26.000000" r="1"/>
<a xlink:href="delmax-0x6000022c8f30.svg">
<rect x="697.250000" y="56.000000" width="25.800000" height="24.000000" rx="0" ry="0" style="stroke:#000000;fill:#FFFFFF;"/>
</a>
<a xlink:href="delmax-0x6000022c8f30.svg">
<text x="710.150000" y="70.000000" font-family="Verdana" font-size="7" text-anchor="middle" fill="#000000">delmax</text>
</a>
<circle cx="699.250000" cy="58.000000" r="1"/>
<rect x="678.150000" y="88.000000" width="24.000000" height="24.000000" rx="0" ry="0" style="stroke:#000000;fill:#FFFFFF;"/>
<text x="690.150000" y="102.000000" font-family="Verdana" font-size="7" text-anchor="middle" fill="#000000">0</text>
<circle cx="680.150000" cy="90.000000" r="1"/>
<a xlink:href="rphi-0x60000221dc20.svg">
<rect x="78.700000" y="200.000000" width="129.000000" height="24.000000" rx="0" ry="0" style="stroke:#000000;fill:#FFFFFF;"/>
</a>
<a xlink:href="rphi-0x60000221dc20.svg">
<text x="143.200000" y="214.000000" font-family="Verdana" font-size="7" text-anchor="middle" fill="#000000">rphi((1.92e+0...: min),4 : *)</text>
</a>
<circle cx="80.700000" cy="202.000000" r="1"/>
<rect x="225.700000" y="200.000000" width="38.700000" height="24.000000" rx="0" ry="0" style="stroke:#000000;fill:#FFFFFF;"/>
<text x="245.050000" y="214.000000" font-family="Verdana" font-size="7" text-anchor="middle" fill="#000000">[29] PM29</text>
<circle cx="227.700000" cy="202.000000" r="1"/>
<line x1="222.700000" y1="211.000000" x2="225.700000" y2="212.000000"  transform="rotate(0.000000,225.700000,212.000000)" style="stroke: black; stroke-width:0.25;"/>
<line x1="222.700000" y1="213.000000" x2="225.700000" y2="212.000000"  transform="rotate(0.000000,225.700000,212.000000)" style="stroke: black; stroke-width:0.25;"/>
<a xlink:href="rphi-0x60000226cbd0.svg">
<rect x="272.400000" y="200.000000" width="38.700000" height="24.000000" rx="0" ry="0" style="stroke:#000000;fill:#FFFFFF;"/>
</a>
<a xlink:href="rphi-0x60000226cbd0.svg">
<text x="291.750000" y="214.000000" font-family="Verdana" font-size="7" text-anchor="middle" fill="#000000">rphi(x29)</text>
</a>
<circle cx="274.400000" cy="202.000000" r="1"/>
<rect x="329.100000" y="200.000000" width="38.700000" height="24.000000" rx="0" ry="0" style="stroke:#000000;fill:#FFFFFF;"/>
<text x="348.450000" y="214.000000" font-family="Verdana" font-size="7" text-anchor="middle" fill="#000000">[30] PM30</text>
<circle cx="331.100000" cy="202.000000" r="1"/>
<line x1="326.100000" y1="211.000000" x2="329.100000" y2="212.000000"  transform="rotate(0.000000,329.100000,212.000000)" style="stroke: black; stroke-width:0.25;"/>
<line x1="326.100000" y1="213.000000" x2="329.100000" y2="212.000000"  transform="rotate(0.000000,329.100000,212.000000)" style="stroke: black; stroke-width:0.25;"/>
<a xlink:href="rphi-0x60000226e9a0.svg">
<rect x="375.800000" y="200.000000" width="38.700000" height="24.000000" rx="0" ry="0" style="stroke:#000000;fill:#FFFFFF;"/>
</a>
<a xlink:href="rphi-0x60000226e9a0.svg">
<text x="395.150000" y="214.000000" font-family="Verdana" font-size="7" text-anchor="middle" fill="#000000">rphi(x30)</text>
</a>
<circle cx="377.800000" cy="202.000000" r="1"/>
<rect x="432.500000" y="200.000000" width="38.700000" height="24.000000" rx="0" ry="0" style="stroke:#000000;fill:#FFFFFF;"/>
<text x="451.850000" y="214.000000" font-family="Verdana" font-size="7" text-anchor="middle" fill="#000000">[31] PM31</text>
<circle cx="434.500000" cy="202.000000" r="1"/>
<line x1="429.500000" y1="211.000000" x2="432.500000" y2="212.000000"  transform="rotate(0.000000,432.500000,212.000000)" style="stroke: black; stroke-width:0.25;"/>
<line x1="429.500000" y1="213.000000" x2="432.500000" y2="212.000000"  transform="rotate(0.000000,432.500000,212.000000)" style="stroke: black; stroke-width:0.25;"/>
<a xlink:href="rphi-0x6000022607e0.svg">
<rect x="479.200000" y="200.000000" width="38.700000" height="24.000000" rx="0" ry="0" style="stroke:#000000;fill:#FFFFFF;"/>
</a>
<a xlink:href="rphi-0x6000022607e0.svg">
<text x="498.550000" y="214.000000" font-family="Verdana" font-size="7" text-anchor="middle" fill="#000000">rphi(x31)</text>
</a>
<circle cx="481.200000" cy="202.000000" r="1"/>
<rect x="535.900000" y="200.000000" width="38.700000" height="24.000000" rx="0" ry="0" style="stroke:#000000;fill:#FFFFFF;"/>
<text x="555.250000" y="214.000000" font-family="Verdana" font-size="7" text-anchor="middle" fill="#000000">[32] PM32</text>
<circle cx="537.900000" cy="202.000000" r="1"/>
<line x1="532.900000" y1="211.000000" x2="535.900000" y2="212.000000"  transform="rotate(0.000000,535.900000,212.000000)" style="stroke: black; stroke-width:0.25;"/>
<line x1="532.900000" y1="213.000000" x2="535.900000" y2="212.000000"  transform="rotate(0.000000,535.900000,212.000000)" style="stroke: black; stroke-width:0.25;"/>
<a xlink:href="rphi-0x6000022625b0.svg">
<rect x="582.600000" y="200.000000" width="38.700000" height="24.000000" rx="0" ry="0" style="stroke:#000000;fill:#FFFFFF;"/>
</a>
<a xlink:href="rphi-0x6000022625b0.svg">
<text x="601.950000" y="214.000000" font-family="Verdana" font-size="7" text-anchor="middle" fill="#000000">rphi(x32)</text>
</a>
<circle cx="584.600000" cy="202.000000" r="1"/>
<rect x="639.300000" y="200.000000" width="38.700000" height="24.000000" rx="0" ry="0" style="stroke:#000000;fill:#FFFFFF;"/>
<text x="658.650000" y="214.000000" font-family="Verdana" font-size="7" text-anchor="middle" fill="#000000">[33] PM33</text>
<circle cx="641.300000" cy="202.000000" r="1"/>
<line x1="636.300000" y1="211.000000" x2="639.300000" y2="212.000000"  transform="rotate(0.000000,639.300000,212.000000)" style="stroke: black; stroke-width:0.25;"/>
<line x1="636.300000" y1="213.000000" x2="639.300000" y2="212.000000"  transform="rotate(0.000000,639.300000,212.000000)" style="stroke: black; stroke-width:0.25;"/>
<a xlink:href="rphi-0x6000022643f0.svg">
<rect x="686.000000" y="200.000000" width="38.700000" height="24.000000" rx="0" ry="0" style="stroke:#000000;fill:#FFFFFF;"/>
</a>
<a xlink:href="rphi-0x6000022643f0.svg">
<text x="705.350000" y="214.000000" font-family="Verdana" font-size="7" text-anchor="middle" fill="#000000">rphi(x33)</text>
</a>
<circle cx="688.000000" cy="202.000000" r="1"/>
<rect x="742.700000" y="200.000000" width="38.700000" height="24.000000" rx="0" ry="0" style="stroke:#000000;fill:#FFFFFF;"/>
<text x="762.050000" y="214.000000" font-family="Verdana" font-size="7" text-anchor="middle" fill="#000000">[34] PM34</text>
<circle cx="744.700000" cy="202.000000" r="1"/>
<line x1="739.700000" y1="211.000000" x2="742.700000" y2="212.000000"  transform="rotate(0.000000,742.700000,212.000000)" style="stroke: black; stroke-width:0.25;"/>
<line x1="739.700000" y1="213.000000" x2="742.700000" y2="212.000000"  transform="rotate(0.000000,742.700000,212.000000)" style="stroke: black; stroke-width:0.25;"/>
<a xlink:href="rphi-0x6000022661c0.svg">
<rect x="789.400000" y="200.000000" width="38.700000" height="24.000000" rx="0" ry="0" style="stroke:#000000;fill:#FFFFFF;"/>
</a>
<a xlink:href="rphi-0x6000022661c0.svg">
<text x="808.750000" y="214.000000" font-family="Verdana" font-size="7" text-anchor="middle" fill="#000000">rphi(x34)</text>
</a>
<circle cx="791.400000" cy="202.000000" r="1"/>
<rect x="846.100000" y="200.000000" width="38.700000" height="24.000000" rx="0" ry="0" style="stroke:#000000;fill:#FFFFFF;"/>
<text x="865.450000" y="214.000000" font-family="Verdana" font-size="7" text-anchor="middle" fill="#000000">[35] PM35</text>
<circle cx="848.100000" cy="202.000000" r="1"/>
<line x1="843.100000" y1="211.000000" x2="846.100000" y2="212.000000"  transform="rotate(0.000000,846.100000,212.000000)" style="stroke: black; stroke-width:0.25;"/>
<line x1="843.100000" y1="213.000000" x2="846.100000" y2="212.000000"  transform="rotate(0.000000,846.100000,212.000000)" style="stroke: black; stroke-width:0.25;"/>
<a xlink:href="rphi-0x600002258000.svg">
<rect x="892.800000" y="200.000000" width="38.700000" height="24.000000" rx="0" ry="0" style="stroke:#000000;fill:#FFFFFF;"/>
</a>
<a xlink:href="rphi-0x600002258000.svg">
<text x="912.150000" y="214.000000" font-family="Verdana" font-size="7" text-anchor="middle" fill="#000000">rphi(x35)</text>
</a>
<circle cx="894.800000" cy="202.000000" r="1"/>
<rect x="949.500000" y="200.000000" width="38.700000" height="24.000000" rx="0" ry="0" style="stroke:#000000;fill:#FFFFFF;"/>
<text x="968.850000" y="214.000000" font-family="Verdana" font-size="7" text-anchor="middle" fill="#000000">[36] PM36</text>
<circle cx="951.500000" cy="202.000000" r="1"/>
<line x1="946.500000" y1="211.000000" x2="949.500000" y2="212.000000"  transform="rotate(0.000000,949.500000,212.000000)" style="stroke: black; stroke-width:0.25;"/>
<line x1="946.500000" y1="213.000000" x2="949.500000" y2="212.000000"  transform="rotate(0.000000,949.500000,212.000000)" style="stroke: black; stroke-width:0.25;"/>
<rect x="996.200000" y="200.000000" width="38.700000" height="24.000000" rx="0" ry="0" style="stroke:#000000;fill:#FFFFFF;"/>
<text x="1015.550000" y="214.000000" font-family="Verdana" font-size="7" text-anchor="middle" fill="#000000">[36] PM36</text>
<circle cx="998.200000" cy="202.000000" r="1"/>
<line x1="940.500000" y1="191.000000" x2="940.500000" y2="233.000000"  style="stroke: black; stroke-linecap:round; stroke-width:0.25; stroke-dasharray:3,3;"/>
<line x1="940.500000" y1="233.000000" x2="1043.900000" y2="233.000000"  style="stroke: black; stroke-linecap:round; stroke-width:0.25; stroke-dasharray:3,3;"/>
<line x1="1043.900000" y1="233.000000" x2="1043.900000" y2="191.000000"  style="stroke: black; stroke-linecap:round; stroke-width:0.25; stroke-dasharray:3,3;"/>
<line x1="940.500000" y1="191.000000" x2="945.500000" y2="191.000000"  style="stroke: black; stroke-linecap:round; stroke-width:0.25; stroke-dasharray:3,3;"/>
<line x1="987.425000" y1="191.000000" x2="1043.900000" y2="191.000000"  style="stroke: black; stroke-linecap:round; stroke-width:0.25; stroke-dasharray:3,3;"/>
<text x="945.500000" y="193.000000" font-family="Verdana" font-size="7">Abstraction</text>
<line x1="837.100000" y1="181.000000" x2="837.100000" y2="243.000000"  style="stroke: black; stroke-linecap:round; stroke-width:0.25; stroke-dasharray:3,3;"/>
<line x1="837.100000" y1="243.000000" x2="1053.900000" y2="243.000000"  style="stroke: black; stroke-linecap:round; stroke-width:0.25; stroke-dasharray:3,3;"/>
<line x1="1053.900000" y1="243.000000" x2="1053.900000" y2="181.000000"  style="stroke: black; stroke-linecap:round; stroke-width:0.25; stroke-dasharray:3,3;"/>
<line x1="837.100000" y1="181.000000" x2="842.100000" y2="181.000000"  style="stroke: black; stroke-linecap:round; stroke-width:0.25; stroke-dasharray:3,3;"/>
<line x1="884.025000" y1="181.000000" x2="1053.900000" y2="181.000000"  style="stroke: black; stroke-linecap:round; stroke-width:0.25; stroke-dasharray:3,3;"/>
<text x="842.100000" y="183.000000" font-family="Verdana" font-size="7">Abstraction</text>
<line x1="733.700000" y1="171.000000" x2="733.700000" y2="253.000000"  style="stroke: black; stroke-linecap:round; stroke-width:0.25; stroke-dasharray:3,3;"/>
<line x1="733.700000" y1="253.000000" x2="1063.900000" y2="253.000000"  style="stroke: black; stroke-linecap:round; stroke-width:0.25; stroke-dasharray:3,3;"/>
<line x1="1063.900000" y1="253.000000" x2="1063.900000" y2="171.000000"  style="stroke: black; stroke-linecap:round; stroke-width:0.25; stroke-dasharray:3,3;"/>
<line x1="733.700000" y1="171.000000" x2="738.700000" y2="171.000000"  style="stroke: black; stroke-linecap:round; stroke-width:0.25; stroke-dasharray:3,3;"/>
<line x1="780.625000" y1="171.000000" x2="1063.900000" y2="171.000000"  style="stroke: black; stroke-linecap:round; stroke-width:0.25; stroke-dasharray:3,3;"/>
<text x="738.700000" y="173.000000" font-family="Verdana" font-size="7">Abstraction</text>
<line x1="630.300000" y1="161.000000" x2="630.300000" y2="263.000000"  style="stroke: black; stroke-linecap:round; stroke-width:0.25; stroke-dasharray:3,3;"/>
<line x1="630.300000" y1="263.000000" x2="1073.900000" y2="263.000000"  style="stroke: black; stroke-linecap:round; stroke-width:0.25; stroke-dasharray:3,3;"/>
<line x1="1073.900000" y1="263.000000" x2="1073.900000" y2="161.000000"  style="stroke: black; stroke-linecap:round; stroke-width:0.25; stroke-dasharray:3,3;"/>
<line x1="630.300000" y1="161.000000" x2="635.300000" y2="161.000000"  style="stroke: black; stroke-linecap:round; stroke-width:0.25; stroke-dasharray:3,3;"/>
<line x1="677.225000" y1="161.000000" x2="1073.900000" y2="161.000000"  style="stroke: black; stroke-linecap:round; stroke-width:0.25; stroke-dasharray:3,3;"/>
<text x="635.300000" y="163.000000" font-family="Verdana" font-size="7">Abstraction</text>
<line x1="526.900000" y1="151.000000" x2="526.900000" y2="273.000000"  style="stroke: black; stroke-linecap:round; stroke-width:0.25; stroke-dasharray:3,3;"/>
<line x1="526.900000" y1="273.000000" x2="1083.900000" y2="273.000000"  style="stroke: black; stroke-linecap:round; stroke-width:0.25; stroke-dasharray:3,3;"/>
<line x1="1083.900000" y1="273.000000" x2="1083.900000" y2="151.000000"  style="stroke: black; stroke-linecap:round; stroke-width:0.25; stroke-dasharray:3,3;"/>
<line x1="526.900000" y1="151.000000" x2="531.900000" y2="151.000000"  style="stroke: black; stroke-linecap:round; stroke-width:0.25; stroke-dasharray:3,3;"/>
<line x1="573.825000" y1="151.000000" x2="1083.900000" y2="151.000000"  style="stroke: black; stroke-linecap:round; stroke-width:0.25; stroke-dasharray:3,3;"/>
<text x="531.900000" y="153.000000" font-family="Verdana" font-size="7">Abstraction</text>
<line x1="423.500000" y1="141.000000" x2="423.500000" y2="283.000000"  style="stroke: black; stroke-linecap:round; stroke-width:0.25; stroke-dasharray:3,3;"/>
<line x1="423.500000" y1="283.000000" x2="1093.900000" y2="283.000000"  style="stroke: black; stroke-linecap:round; stroke-width:0.25; stroke-dasharray:3,3;"/>
<line x1="1093.900000" y1="283.000000" x2="1093.900000" y2="141.000000"  style="stroke: black; stroke-linecap:round; stroke-width:0.25; stroke-dasharray:3,3;"/>
<line x1="423.500000" y1="141.000000" x2="428.500000" y2="141.000000"  style="stroke: black; stroke-linecap:round; stroke-width:0.25; stroke-dasharray:3,3;"/>
<line x1="470.425000" y1="141.000000" x2="1093.900000" y2="141.000000"  style="stroke: black; stroke-linecap:round; stroke-width:0.25; stroke-dasharray:3,3;"/>
<text x="428.500000" y="143.000000" font-family="Verdana" font-size="7">Abstraction</text>
<line x1="320.100000" y1="131.000000" x2="320.100000" y2="293.000000"  style="stroke: black; stroke-linecap:round; stroke-width:0.25; stroke-dasharray:3,3;"/>
<line x1="320.100000" y1="293.000000" x2="1103.900000" y2="293.000000"  style="stroke: black; stroke-linecap:round; stroke-width:0.25; stroke-dasharray:3,3;"/>
<line x1="1103.900000" y1="293.000000" x2="1103.900000" y2="131.000000"  style="stroke: black; stroke-linecap:round; stroke-width:0.25; stroke-dasharray:3,3;"/>
<line x1="320.100000" y1="131.000000" x2="325.100000" y2="131.000000"  style="stroke: black; stroke-linecap:round; stroke-width:0.25; stroke-dasharray:3,3;"/>
<line x1="367.025000" y1="131.000000" x2="1103.900000" y2="131.000000"  style="stroke: black; stroke-linecap:round; stroke-width:0.25; stroke-dasharray:3,3;"/>
<text x="325.100000" y="133.000000" font-family="Verdana" font-size="7">Abstraction</text>
<line x1="216.700000" y1="121.000000" x2="216.700000" y2="303.000000"  style="stroke: black; stroke-linecap:round; stroke-width:0.25; stroke-dasharray:3,3;"/>
<line x1="216.700000" y1="303.000000" x2="1113.900000" y2="303.000000"  style="stroke: black; stroke-linecap:round; stroke-width:0.25; stroke-dasharray:3,3;"/>
<line x1="1113.900000" y1="303.000000" x2="1113.900000" y2="121.000000"  style="stroke: black; stroke-linecap:round; stroke-width:0.25; stroke-dasharray:3,3;"/>
<line x1="216.700000" y1="121.000000" x2="221.700000" y2="121.000000"  style="stroke: black; stroke-linecap:round; stroke-width:0.25; stroke-dasharray:3,3;"/>
<line x1="263.625000" y1="121.000000" x2="1113.900000" y2="121.000000"  style="stroke: black; stroke-linecap:round; stroke-width:0.25; stroke-dasharray:3,3;"/>
<text x="221.700000" y="123.000000" font-family="Verdana" font-size="7">Abstraction</text>
<rect x="1140.900000" y="184.000000" width="38.700000" height="24.000000" rx="0" ry="0" style="stroke:#000000;fill:#FFFFFF;"/>
<text x="1160.250000" y="198.000000" font-family="Verdana" font-size="7" text-anchor="middle" fill="#000000">next_pr</text>
<circle cx="1142.900000" cy="186.000000" r="1"/>
<line x1="1137.900000" y1="195.000000" x2="1140.900000" y2="196.000000"  transform="rotate(0.000000,1140.900000,196.000000)" style="stroke: black; stroke-width:0.25;"/>
<line x1="1137.900000" y1="197.000000" x2="1140.900000" y2="196.000000"  transform="rotate(0.000000,1140.900000,196.000000)" style="stroke: black; stroke-width:0.25;"/>
<line x1="1131.900000" y1="175.000000" x2="1131.900000" y2="217.000000"  style="stroke: black; stroke-linecap:round; stroke-width:0.25; stroke-dasharray:3,3;"/>
<line x1="1131.900000" y1="217.000000" x2="1188.600000" y2="217.000000"  style="stroke: black; stroke-linecap:round; stroke-width:0.25; stroke-dasharray:3,3;"/>
<line x1="1188.600000" y1="217.000000" x2="1188.600000" y2="175.000000"  style="stroke: black; stroke-linecap:round; stroke-width:0.25; stroke-dasharray:3,3;"/>
<line x1="1131.900000" y1="175.000000" x2="1136.900000" y2="175.000000"  style="stroke: black; stroke-linecap:round; stroke-width:0.25; stroke-dasharray:3,3;"/>
<line x1="1149.800000" y1="175.000000" x2="1188.600000" y2="175.000000"  style="stroke: black; stroke-linecap:round; stroke-width:0.25; stroke-dasharray:3,3;"/>
<text x="1136.900000" y="177.000000" font-family="Verdana" font-size="7">np</text>
<rect x="1148.250000" y="226.000000" width="24.000000" height="24.000000" rx="0" ry="0" style="stroke:#000000;fill:#FFFFFF;"/>
<text x="1160.250000" y="240.000000" font-family="Verdana" font-size="7" text-anchor="middle" fill="#000000">1</text>
<circle cx="1150.250000" cy="228.000000" r="1"/>
<rect x="1205.600000" y="200.000000" width="24.000000" height="24.000000" rx="0" ry="0" style="stroke:#000000;fill:#FFFFFF;"/>
<text x="1217.600000" y="214.000000" font-family="Verdana" font-size="7" text-anchor="middle" fill="#000000">max</text>
<circle cx="1207.600000" cy="202.000000" r="1"/>
<line x1="1202.600000" y1="207.000000" x2="1205.600000" y2="208.000000"  transform="rotate(0.000000,1205.600000,208.000000)" style="stroke: black; stroke-width:0.25;"/>
<line x1="1202.600000" y1="209.000000" x2="1205.600000" y2="208.000000"  transform="rotate(0.000000,1205.600000,208.000000)" style="stroke: black; stroke-width:0.25;"/>
<line x1="1202.600000" y1="215.000000" x2="1205.600000" y2="216.000000"  transform="rotate(0.000000,1205.600000,216.000000)" style="stroke: black; stroke-width:0.25;"/>
<line x1="1202.600000" y1="217.000000" x2="1205.600000" y2="216.000000"  transform="rotate(0.000000,1205.600000,216.000000)" style="stroke: black; stroke-width:0.25;"/>
<rect x="642.150000" y="312.000000" width="24.000000" height="24.000000" rx="0" ry="0" style="stroke:#000000;fill:#FFFFFF;"/>
<text x="654.150000" y="326.000000" font-family="Verdana" font-size="7" text-anchor="middle" fill="#000000">1</text>
<circle cx="644.150000" cy="314.000000" r="1"/>
<rect x="1245.600000" y="216.000000" width="24.000000" height="24.000000" rx="0" ry="0" style="stroke:#000000;fill:#FFFFFF;"/>
<text x="1257.600000" y="230.000000" font-family="Verdana" font-size="7" text-anchor="middle" fill="#000000">-</text>
<circle cx="1247.600000" cy="218.000000" r="1"/>
<line x1="1242.600000" y1="223.000000" x2="1245.600000" y2="224.000000"  transform="rotate(0.000000,1245.600000,224.000000)" style="stroke: black; stroke-width:0.25;"/>
<line x1="1242.600000" y1="225.000000" x2="1245.600000" y2="224.000000"  transform="rotate(0.000000,1245.600000,224.000000)" style="stroke: black; stroke-width:0.25;"/>
<line x1="1242.600000" y1="231.000000" x2="1245.600000" y2="232.000000"  transform="rotate(0.000000,1245.600000,232.000000)" style="stroke: black; stroke-width:0.25;"/>
<line x1="1242.600000" y1="233.000000" x2="1245.600000" y2="232.000000"  transform="rotate(0.000000,1245.600000,232.000000)" style="stroke: black; stroke-width:0.25;"/>
<rect x="1277.600000" y="216.000000" width="24.000000" height="24.000000" rx="0" ry="0" style="stroke:#000000;fill:#FFFFFF;"/>
<text x="1289.600000" y="230.000000" font-family="Verdana" font-size="7" text-anchor="middle" fill="#000000">int</text>
<circle cx="1279.600000" cy="218.000000" r="1"/>
<line x1="1274.600000" y1="227.000000" x2="1277.600000" y2="228.000000"  transform="rotate(0.000000,1277.600000,228.000000)" style="stroke: black; stroke-width:0.25;"/>
<line x1="1274.600000" y1="229.000000" x2="1277.600000" y2="228.000000"  transform="rotate(0.000000,1277.600000,228.000000)" style="stroke: black; stroke-width:0.25;"/>
<rect x="1317.600000" y="200.000000" width="24.000000" height="24.000000" rx="0" ry="0" style="stroke:#000000;fill:#FFFFFF;"/>
<text x="1329.600000" y="214.000000" font-family="Verdana" font-size="7" text-anchor="middle" fill="#000000">max</text>
<circle cx="1319.600000" cy="202.000000" r="1"/>
<line x1="1314.600000" y1="207.000000" x2="1317.600000" y2="208.000000"  transform="rotate(0.000000,1317.600000,208.000000)" style="stroke: black; stroke-width:0.25;"/>
<line x1="1314.600000" y1="209.000000" x2="1317.600000" y2="208.000000"  transform="rotate(0.000000,1317.600000,208.000000)" style="stroke: black; stroke-width:0.25;"/>
<line x1="1314.600000" y1="215.000000" x2="1317.600000" y2="216.000000"  transform="rotate(0.000000,1317.600000,216.000000)" style="stroke: black; stroke-width:0.25;"/>
<line x1="1314.600000" y1="217.000000" x2="1317.600000" y2="216.000000"  transform="rotate(0.000000,1317.600000,216.000000)" style="stroke: black; stroke-width:0.25;"/>
<rect x="1357.600000" y="184.000000" width="24.000000" height="24.000000" rx="0" ry="0" style="stroke:#000000;fill:#FFFFFF;"/>
<text x="1369.600000" y="198.000000" font-family="Verdana" font-size="7" text-anchor="middle" fill="#000000">min</text>
<circle cx="1359.600000" cy="186.000000" r="1"/>
<line x1="1354.600000" y1="191.000000" x2="1357.600000" y2="192.000000"  transform="rotate(0.000000,1357.600000,192.000000)" style="stroke: black; stroke-width:0.25;"/>
<line x1="1354.600000" y1="193.000000" x2="1357.600000" y2="192.000000"  transform="rotate(0.000000,1357.600000,192.000000)" style="stroke: black; stroke-width:0.25;"/>
<line x1="1354.600000" y1="199.000000" x2="1357.600000" y2="200.000000"  transform="rotate(0.000000,1357.600000,200.000000)" style="stroke: black; stroke-width:0.25;"/>
<line x1="1354.600000" y1="201.000000" x2="1357.600000" y2="200.000000"  transform="rotate(0.000000,1357.600000,200.000000)" style="stroke: black; stroke-width:0.25;"/>
<rect x="1397.600000" y="168.000000" width="24.000000" height="24.000000" rx="0" ry="0" style="stroke:#000000;fill:#FFFFFF;"/>
<text x="1409.600000" y="182.000000" font-family="Verdana" font-size="7" text-anchor="middle" fill="#000000">@</text>
<circle cx="1399.600000" cy="170.000000" r="1"/>
<line x1="1394.600000" y1="175.000000" x2="1397.600000" y2="176.000000"  transform="rotate(0.000000,1397.600000,176.000000)" style="stroke: black; stroke-width:0.25;"/>
<line x1="1394.600000" y1="177.000000" x2="1397.600000" y2="176.000000"  transform="rotate(0.000000,1397.600000,176.000000)" style="stroke: black; stroke-width:0.25;"/>
<line x1="1394.600000" y1="183.000000" x2="1397.600000" y2="184.000000"  transform="rotate(0.000000,1397.600000,184.000000)" style="stroke: black; stroke-width:0.25;"/>
<line x1="1394.600000" y1="185.000000" x2="1397.600000" y2="184.000000"  transform="rotate(0.000000,1397.600000,184.000000)" style="stroke: black; stroke-width:0.25;"/>
<line x1="15.000000" y1="15.000000" x2="15.000000" y2="345.000000"  style="stroke: black; stroke-linecap:round; stroke-width:0.25; stroke-dasharray:3,3;"/>
<line x1="15.000000" y1="345.000000" x2="1438.600000" y2="345.000000"  style="stroke: black; stroke-linecap:round; stroke-width:0.25; stroke-dasharray:3,3;"/>
<line x1="1438.600000" y1="345.000000" x2="1438.600000" y2="15.000000"  style="stroke: black; stroke-linecap:round; stroke-width:0.25; stroke-dasharray:3,3;"/>
<line x1="15.000000" y1="15.000000" x2="20.000000" y2="15.000000"  style="stroke: black; stroke-linecap:round; stroke-width:0.25; stroke-dasharray:3,3;"/>
<line x1="119.975000" y1="15.000000" x2="1438.600000" y2="15.000000"  style="stroke: black; stroke-linecap:round; stroke-width:0.25; stroke-dasharray:3,3;"/>
<text x="20.000000" y="17.000000" font-family="Verdana" font-size="7">delay((1.92e+...,1 : - : int)</text>
<line x1="1440.600000" y1="179.000000" x2="1443.600000" y2="180.000000"  transform="rotate(0.000000,1443.600000,180.000000)" style="stroke: black; stroke-width:0.25;"/>
<line x1="1440.600000" y1="181.000000" x2="1443.600000" y2="180.000000"  transform="rotate(0.000000,1443.600000,180.000000)" style="stroke: black; stroke-width:0.25;"/>
<line x1="10.000000" y1="180.000000" x2="20.000000" y2="180.000000"  style="stroke:black; stroke-linecap:round; stroke-width:0.25;"/>
<line x1="20.000000" y1="180.000000" x2="24.000000" y2="180.000000"  style="stroke:black; stroke-linecap:round; stroke-width:0.25;"/>
<line x1="24.000000" y1="180.000000" x2="28.000000" y2="180.000000"  style="stroke:black; stroke-linecap:round; stroke-width:0.25;"/>
<line x1="28.000000" y1="180.000000" x2="28.000000" y2="180.000000"  style="stroke:black; stroke-linecap:round; stroke-width:0.25;"/>
<line x1="28.000000" y1="180.000000" x2="32.000000" y2="180.000000"  style="stroke:black; stroke-linecap:round; stroke-width:0.25;"/>
<line x1="207.700000" y1="212.000000" x2="211.700000" y2="212.000000"  style="stroke:black; stroke-linecap:round; stroke-width:0.25;"/>
<line x1="211.700000" y1="212.000000" x2="211.700000" y2="212.000000"  style="stroke:black; stroke-linecap:round; stroke-width:0.25;"/>
<line x1="211.700000" y1="212.000000" x2="221.700000" y2="212.000000"  style="stroke:black; stroke-linecap:round; stroke-width:0.25;"/>
<line x1="221.700000" y1="212.000000" x2="225.700000" y2="212.000000"  style="stroke:black; stroke-linecap:round; stroke-width:0.25;"/>
<line x1="311.100000" y1="212.000000" x2="315.100000" y2="212.000000"  style="stroke:black; stroke-linecap:round; stroke-width:0.25;"/>
<line x1="315.100000" y1="212.000000" x2="315.100000" y2="212.000000"  style="stroke:black; stroke-linecap:round; stroke-width:0.25;"/>
<line x1="315.100000" y1="212.000000" x2="325.100000" y2="212.000000"  style="stroke:black; stroke-linecap:round; stroke-width:0.25;"/>
<line x1="325.100000" y1="212.000000" x2="329.100000" y2="212.000000"  style="stroke:black; stroke-linecap:round; stroke-width:0.25;"/>
<line x1="414.500000" y1="212.000000" x2="418.500000" y2="212.000000"  style="stroke:black; stroke-linecap:round; stroke-width:0.25;"/>
<line x1="418.500000" y1="212.000000" x2="418.500000" y2="212.000000"  style="stroke:black; stroke-linecap:round; stroke-width:0.25;"/>
<line x1="418.500000" y1="212.000000" x2="428.500000" y2="212.000000"  style="stroke:black; stroke-linecap:round; stroke-width:0.25;"/>
<line x1="428.500000" y1="212.000000" x2="432.500000" y2="212.000000"  style="stroke:black; stroke-linecap:round; stroke-width:0.25;"/>
<line x1="517.900000" y1="212.000000" x2="521.900000" y2="212.000000"  style="stroke:black; stroke-linecap:round; stroke-width:0.25;"/>
<line x1="521.900000" y1="212.000000" x2="521.900000" y2="212.000000"  style="stroke:black; stroke-linecap:round; stroke-width:0.25;"/>
<line x1="521.900000" y1="212.000000" x2="531.900000" y2="212.000000"  style="stroke:black; stroke-linecap:round; stroke-width:0.25;"/>
<line x1="531.900000" y1="212.000000" x2="535.900000" y2="212.000000"  style="stroke:black; stroke-linecap:round; stroke-width:0.25;"/>
<line x1="621.300000" y1="212.000000" x2="625.300000" y2="212.000000"  style="stroke:black; stroke-linecap:round; stroke-width:0.25;"/>
<line x1="625.300000" y1="212.000000" x2="625.300000" y2="212.000000"  style="stroke:black; stroke-linecap:round; stroke-width:0.25;"/>
<line x1="625.300000" y1="212.000000" x2="635.300000" y2="212.000000"  style="stroke:black; stroke-linecap:round; stroke-width:0.25;"/>
<line x1="635.300000" y1="212.000000" x2="639.300000" y2="212.000000"  style="stroke:black; stroke-linecap:round; stroke-width:0.25;"/>
<line x1="666.150000" y1="324.000000" x2="670.150000" y2="324.000000"  style="stroke:black; stroke-linecap:round; stroke-width:0.25;"/>
<line x1="670.150000" y1="324.000000" x2="1233.600000" y2="324.000000"  style="stroke:black; stroke-linecap:round; stroke-width:0.25;"/>
<line x1="702.150000" y1="100.000000" x2="706.150000" y2="100.000000"  style="stroke:black; stroke-linecap:round; stroke-width:0.25;"/>
<line x1="706.150000" y1="100.000000" x2="1305.600000" y2="100.000000"  style="stroke:black; stroke-linecap:round; stroke-width:0.25;"/>
<line x1="723.050000" y1="68.000000" x2="727.050000" y2="68.000000"  style="stroke:black; stroke-linecap:round; stroke-width:0.25;"/>
<line x1="724.700000" y1="212.000000" x2="728.700000" y2="212.000000"  style="stroke:black; stroke-linecap:round; stroke-width:0.25;"/>
<line x1="727.050000" y1="68.000000" x2="1345.600000" y2="68.000000"  style="stroke:black; stroke-linecap:round; stroke-width:0.25;"/>
<line x1="728.700000" y1="212.000000" x2="728.700000" y2="212.000000"  style="stroke:black; stroke-linecap:round; stroke-width:0.25;"/>
<line x1="728.700000" y1="212.000000" x2="738.700000" y2="212.000000"  style="stroke:black; stroke-linecap:round; stroke-width:0.25;"/>
<line x1="738.700000" y1="212.000000" x2="742.700000" y2="212.000000"  style="stroke:black; stroke-linecap:round; stroke-width:0.25;"/>
<line x1="749.500000" y1="36.000000" x2="753.500000" y2="36.000000"  style="stroke:black; stroke-linecap:round; stroke-width:0.25;"/>
<line x1="753.500000" y1="36.000000" x2="1385.600000" y2="36.000000"  style="stroke:black; stroke-linecap:round; stroke-width:0.25;"/>
<line x1="828.100000" y1="212.000000" x2="832.100000" y2="212.000000"  style="stroke:black; stroke-linecap:round; stroke-width:0.25;"/>
<line x1="832.100000" y1="212.000000" x2="832.100000" y2="212.000000"  style="stroke:black; stroke-linecap:round; stroke-width:0.25;"/>
<line x1="832.100000" y1="212.000000" x2="842.100000" y2="212.000000"  style="stroke:black; stroke-linecap:round; stroke-width:0.25;"/>
<line x1="842.100000" y1="212.000000" x2="846.100000" y2="212.000000"  style="stroke:black; stroke-linecap:round; stroke-width:0.25;"/>
<line x1="931.500000" y1="212.000000" x2="935.500000" y2="212.000000"  style="stroke:black; stroke-linecap:round; stroke-width:0.25;"/>
<line x1="935.500000" y1="212.000000" x2="935.500000" y2="212.000000"  style="stroke:black; stroke-linecap:round; stroke-width:0.25;"/>
<line x1="935.500000" y1="212.000000" x2="945.500000" y2="212.000000"  style="stroke:black; stroke-linecap:round; stroke-width:0.25;"/>
<line x1="945.500000" y1="212.000000" x2="949.500000" y2="212.000000"  style="stroke:black; stroke-linecap:round; stroke-width:0.25;"/>
<line x1="1034.900000" y1="212.000000" x2="1038.900000" y2="212.000000"  style="stroke:black; stroke-linecap:round; stroke-width:0.25;"/>
<line x1="1038.900000" y1="212.000000" x2="1048.900000" y2="212.000000"  style="stroke:black; stroke-linecap:round; stroke-width:0.25;"/>
<line x1="1048.900000" y1="212.000000" x2="1058.900000" y2="212.000000"  style="stroke:black; stroke-linecap:round; stroke-width:0.25;"/>
<line x1="1058.900000" y1="212.000000" x2="1068.900000" y2="212.000000"  style="stroke:black; stroke-linecap:round; stroke-width:0.25;"/>
<line x1="1068.900000" y1="212.000000" x2="1078.900000" y2="212.000000"  style="stroke:black; stroke-linecap:round; stroke-width:0.25;"/>
<line x1="1078.900000" y1="212.000000" x2="1088.900000" y2="212.000000"  style="stroke:black; stroke-linecap:round; stroke-width:0.25;"/>
<line x1="1088.900000" y1="212.000000" x2="1098.900000" y2="212.000000"  style="stroke:black; stroke-linecap:round; stroke-width:0.25;"/>
<line x1="1098.900000" y1="212.000000" x2="1108.900000" y2="212.000000"  style="stroke:black; stroke-linecap:round; stroke-width:0.25;"/>
<line x1="1108.900000" y1="212.000000" x2="1118.900000" y2="212.000000"  style="stroke:black; stroke-linecap:round; stroke-width:0.25;"/>
<line x1="1118.900000" y1="196.000000" x2="1126.900000" y2="196.000000"  style="stroke:black; stroke-linecap:round; stroke-width:0.25;"/>
<line x1="1118.900000" y1="212.000000" x2="1118.900000" y2="196.000000"  style="stroke:black; stroke-linecap:round; stroke-width:0.25;"/>
<line x1="1118.900000" y1="212.000000" x2="1118.900000" y2="212.000000"  style="stroke:black; stroke-linecap:round; stroke-width:0.25;"/>
<line x1="1126.900000" y1="196.000000" x2="1136.900000" y2="196.000000"  style="stroke:black; stroke-linecap:round; stroke-width:0.25;"/>
<line x1="1136.900000" y1="196.000000" x2="1140.900000" y2="196.000000"  style="stroke:black; stroke-linecap:round; stroke-width:0.25;"/>
<line x1="1172.250000" y1="238.000000" x2="1176.250000" y2="238.000000"  style="stroke:black; stroke-linecap:round; stroke-width:0.25;"/>
<line x1="1176.250000" y1="238.000000" x2="1193.600000" y2="238.000000"  style="stroke:black; stroke-linecap:round; stroke-width:0.25;"/>
<line x1="1179.600000" y1="196.000000" x2="1183.600000" y2="196.000000"  style="stroke:black; stroke-linecap:round; stroke-width:0.25;"/>
<line x1="1183.600000" y1="196.000000" x2="1193.600000" y2="196.000000"  style="stroke:black; stroke-linecap:round; stroke-width:0.25;"/>
<line x1="1193.600000" y1="216.000000" x2="1201.600000" y2="216.000000"  style="stroke:black; stroke-linecap:round; stroke-width:0.25;"/>
<line x1="1193.600000" y1="238.000000" x2="1193.600000" y2="216.000000"  style="stroke:black; stroke-linecap:round; stroke-width:0.25;"/>
<line x1="1193.600000" y1="238.000000" x2="1193.600000" y2="238.000000"  style="stroke:black; stroke-linecap:round; stroke-width:0.25;"/>
<line x1="1193.600000" y1="196.000000" x2="1201.600000" y2="196.000000"  style="stroke:black; stroke-linecap:round; stroke-width:0.25;"/>
<line x1="1201.600000" y1="196.000000" x2="1201.600000" y2="208.000000"  style="stroke:black; stroke-linecap:round; stroke-width:0.25;"/>
<line x1="1201.600000" y1="208.000000" x2="1201.600000" y2="208.000000"  style="stroke:black; stroke-linecap:round; stroke-width:0.25;"/>
<line x1="1201.600000" y1="208.000000" x2="1205.600000" y2="208.000000"  style="stroke:black; stroke-linecap:round; stroke-width:0.25;"/>
<line x1="1201.600000" y1="216.000000" x2="1205.600000" y2="216.000000"  style="stroke:black; stroke-linecap:round; stroke-width:0.25;"/>
<line x1="1229.600000" y1="212.000000" x2="1233.600000" y2="212.000000"  style="stroke:black; stroke-linecap:round; stroke-width:0.25;"/>
<line x1="1233.600000" y1="212.000000" x2="1241.600000" y2="212.000000"  style="stroke:black; stroke-linecap:round; stroke-width:0.25;"/>
<line x1="1233.600000" y1="232.000000" x2="1241.600000" y2="232.000000"  style="stroke:black; stroke-linecap:round; stroke-width:0.25;"/>
<line x1="1233.600000" y1="324.000000" x2="1233.600000" y2="232.000000"  style="stroke:black; stroke-linecap:round; stroke-width:0.25;"/>
<line x1="1233.600000" y1="324.000000" x2="1233.600000" y2="324.000000"  style="stroke:black; stroke-linecap:round; stroke-width:0.25;"/>
<line x1="1241.600000" y1="212.000000" x2="1241.600000" y2="224.000000"  style="stroke:black; stroke-linecap:round; stroke-width:0.25;"/>
<line x1="1241.600000" y1="224.000000" x2="1241.600000" y2="224.000000"  style="stroke:black; stroke-linecap:round; stroke-width:0.25;"/>
<line x1="1241.600000" y1="224.000000" x2="1245.600000" y2="224.000000"  style="stroke:black; stroke-linecap:round; stroke-width:0.25;"/>
<line x1="1241.600000" y1="232.000000" x2="1245.600000" y2="232.000000"  style="stroke:black; stroke-linecap:round; stroke-width:0.25;"/>
<line x1="1269.600000" y1="228.000000" x2="1273.600000" y2="228.000000"  style="stroke:black; stroke-linecap:round; stroke-width:0.25;"/>
<line x1="1273.600000" y1="228.000000" x2="1273.600000" y2="228.000000"  style="stroke:black; stroke-linecap:round; stroke-width:0.25;"/>
<line x1="1273.600000" y1="228.000000" x2="1277.600000" y2="228.000000"  style="stroke:black; stroke-linecap:round; stroke-width:0.25;"/>
<line x1="1301.600000" y1="228.000000" x2="1305.600000" y2="228.000000"  style="stroke:black; stroke-linecap:round; stroke-width:0.25;"/>
<line x1="1305.600000" y1="100.000000" x2="1313.600000" y2="100.000000"  style="stroke:black; stroke-linecap:round; stroke-width:0.25;"/>
<line x1="1305.600000" y1="216.000000" x2="1313.600000" y2="216.000000"  style="stroke:black; stroke-linecap:round; stroke-width:0.25;"/>
<line x1="1305.600000" y1="228.000000" x2="1305.600000" y2="216.000000"  style="stroke:black; stroke-linecap:round; stroke-width:0.25;"/>
<line x1="1305.600000" y1="228.000000" x2="1305.600000" y2="228.000000"  style="stroke:black; stroke-linecap:round; stroke-width:0.25;"/>
<line x1="1313.600000" y1="100.000000" x2="1313.600000" y2="208.000000"  style="stroke:black; stroke-linecap:round; stroke-width:0.25;"/>
<line x1="1313.600000" y1="208.000000" x2="1313.600000" y2="208.000000"  style="stroke:black; stroke-linecap:round; stroke-width:0.25;"/>
<line x1="1313.600000" y1="208.000000" x2="1317.600000" y2="208.000000"  style="stroke:black; stroke-linecap:round; stroke-width:0.25;"/>
<line x1="1313.600000" y1="216.000000" x2="1317.600000" y2="216.000000"  style="stroke:black; stroke-linecap:round; stroke-width:0.25;"/>
<line x1="1341.600000" y1="212.000000" x2="1345.600000" y2="212.000000"  style="stroke:black; stroke-linecap:round; stroke-width:0.25;"/>
<line x1="1345.600000" y1="68.000000" x2="1353.600000" y2="68.000000"  style="stroke:black; stroke-linecap:round; stroke-width:0.25;"/>
<line x1="1345.600000" y1="200.000000" x2="1353.600000" y2="200.000000"  style="stroke:black; stroke-linecap:round; stroke-width:0.25;"/>
<line x1="1345.600000" y1="212.000000" x2="1345.600000" y2="200.000000"  style="stroke:black; stroke-linecap:round; stroke-width:0.25;"/>
<line x1="1345.600000" y1="212.000000" x2="1345.600000" y2="212.000000"  style="stroke:black; stroke-linecap:round; stroke-width:0.25;"/>
<line x1="1353.600000" y1="68.000000" x2="1353.600000" y2="192.000000"  style="stroke:black; stroke-linecap:round; stroke-width:0.25;"/>
<line x1="1353.600000" y1="192.000000" x2="1353.600000" y2="192.000000"  style="stroke:black; stroke-linecap:round; stroke-width:0.25;"/>
<line x1="1353.600000" y1="192.000000" x2="1357.600000" y2="192.000000"  style="stroke:black; stroke-linecap:round; stroke-width:0.25;"/>
<line x1="1353.600000" y1="200.000000" x2="1357.600000" y2="200.000000"  style="stroke:black; stroke-linecap:round; stroke-width:0.25;"/>
<line x1="1381.600000" y1="196.000000" x2="1385.600000" y2="196.000000"  style="stroke:black; stroke-linecap:round; stroke-width:0.25;"/>
<line x1="1385.600000" y1="36.000000" x2="1393.600000" y2="36.000000"  style="stroke:black; stroke-linecap:round; stroke-width:0.25;"/>
<line x1="1385.600000" y1="184.000000" x2="1393.600000" y2="184.000000"  style="stroke:black; stroke-linecap:round; stroke-width:0.25;"/>
<line x1="1385.600000" y1="196.000000" x2="1385.600000" y2="184.000000"  style="stroke:black; stroke-linecap:round; stroke-width:0.25;"/>
<line x1="1385.600000" y1="196.000000" x2="1385.600000" y2="196.000000"  style="stroke:black; stroke-linecap:round; stroke-width:0.25;"/>
<line x1="1393.600000" y1="36.000000" x2="1393.600000" y2="176.000000"  style="stroke:black; stroke-linecap:round; stroke-width:0.25;"/>
<line x1="1393.600000" y1="176.000000" x2="1393.600000" y2="176.000000"  style="stroke:black; stroke-linecap:round; stroke-width:0.25;"/>
<line x1="1393.600000" y1="176.000000" x2="1397.600000" y2="176.000000"  style="stroke:black; stroke-linecap:round; stroke-width:0.25;"/>
<line x1="1393.600000" y1="184.000000" x2="1397.600000" y2="184.000000"  style="stroke:black; stroke-linecap:round; stroke-width:0.25;"/>
<line x1="1421.600000" y1="180.000000" x2="1425.600000" y2="180.000000"  style="stroke:black; stroke-linecap:round; stroke-width:0.25;"/>
<line x1="1425.600000" y1="180.000000" x2="1425.600000" y2="180.000000"  style="stroke:black; stroke-linecap:round; stroke-width:0.25;"/>
<line x1="1425.600000" y1="180.000000" x2="1429.600000" y2="180.000000"  style="stroke:black; stroke-linecap:round; stroke-width:0.25;"/>
<line x1="1429.600000" y1="180.000000" x2="1433.600000" y2="180.000000"  style="stroke:black; stroke-linecap:round; stroke-width:0.25;"/>
<line x1="1433.600000" y1="180.000000" x2="1443.600000" y2="180.000000"  style="stroke:black; stroke-linecap:round; stroke-width:0.25;"/>
</svg>
