<?xml version="1.0"?>
<svg xmlns="http://www.w3.org/2000/svg" xmlns:xlink="http://www.w3.org/1999/xlink" viewBox="0 0 348.800000 152.000000" width="174.400000mm" height="76.000000mm" version="1.1">
<a xlink:href="process.svg">
<rect x="1.000000" y="1.000000" width="347.800000" height="151.000000" rx="0" ry="0" style="stroke:none;fill:#cccccc;"/>
<rect x="0.000000" y="0.000000" width="347.800000" height="151.000000" rx="0" ry="0" style="stroke:none;fill:#ffffff;"/>
</a>
<text x="10.000000" y="7.000000" font-family="Arial" font-size="7"></text>
<rect x="49.000000" y="85.000000" width="24.000000" height="24.000000" rx="0" ry="0" style="stroke:none;fill:#cccccc;"/>
<rect x="48.000000" y="84.000000" width="24.000000" height="24.000000" rx="0" ry="0" style="stroke:none;fill:#4B71A1;"/>
<text x="60.000000" y="98.000000" font-family="Arial" font-size="7" text-anchor="middle" fill="#FFFFFF">+</text>
<circle cx="50.000000" cy="86.000000" r="1"/>
<line x1="45.000000" y1="91.000000" x2="48.000000" y2="92.000000"  transform="rotate(0.000000,48.000000,92.000000)" style="stroke: black; stroke-width:0.25;"/>
<line x1="45.000000" y1="93.000000" x2="48.000000" y2="92.000000"  transform="rotate(0.000000,48.000000,92.000000)" style="stroke: black; stroke-width:0.25;"/>
<line x1="45.000000" y1="99.000000" x2="48.000000" y2="100.000000"  transform="rotate(0.000000,48.000000,100.000000)" style="stroke: black; stroke-width:0.25;"/>
<line x1="45.000000" y1="101.000000" x2="48.000000" y2="100.000000"  transform="rotate(0.000000,48.000000,100.000000)" style="stroke: black; stroke-width:0.25;"/>
<a xlink:href="delay-0x7fb35d80d400.svg">
<rect x="107.000000" y="65.000000" width="154.800000" height="24.000000" rx="0" ry="0" style="stroke:none;fill:#cccccc;"/>
<rect x="106.000000" y="64.000000" width="154.800000" height="24.000000" rx="0" ry="0" style="stroke:none;fill:#003366;"/>
</a>
<a xlink:href="delay-0x7fb35d80d400.svg">
<text x="183.400000" y="78.000000" font-family="Arial" font-size="7" text-anchor="middle" fill="#FFFFFF">delay((192000...: min),2 : /)(511)</text>
</a>
<circle cx="108.000000" cy="66.000000" r="1"/>
<line x1="103.000000" y1="75.000000" x2="106.000000" y2="76.000000"  transform="rotate(0.000000,106.000000,76.000000)" style="stroke: black; stroke-width:0.25;"/>
<line x1="103.000000" y1="77.000000" x2="106.000000" y2="76.000000"  transform="rotate(0.000000,106.000000,76.000000)" style="stroke: black; stroke-width:0.25;"/>
<rect x="151.500000" y="105.000000" width="25.800000" height="24.000000" rx="0" ry="0" style="stroke:none;fill:#cccccc;"/>
<rect x="150.500000" y="104.000000" width="25.800000" height="24.000000" rx="0" ry="0" style="stroke:none;fill:#f44800;"/>
<text x="163.400000" y="118.000000" font-family="Arial" font-size="7" text-anchor="middle" fill="#FFFFFF">-0.9</text>
<circle cx="152.500000" cy="106.000000" r="1"/>
<rect x="193.300000" y="101.000000" width="24.000000" height="24.000000" rx="0" ry="0" style="stroke:none;fill:#cccccc;"/>
<rect x="192.300000" y="100.000000" width="24.000000" height="24.000000" rx="0" ry="0" style="stroke:none;fill:#4B71A1;"/>
<text x="204.300000" y="114.000000" font-family="Arial" font-size="7" text-anchor="middle" fill="#FFFFFF">*</text>
<circle cx="194.300000" cy="102.000000" r="1"/>
<line x1="189.300000" y1="107.000000" x2="192.300000" y2="108.000000"  transform="rotate(0.000000,192.300000,108.000000)" style="stroke: black; stroke-width:0.25;"/>
<line x1="189.300000" y1="109.000000" x2="192.300000" y2="108.000000"  transform="rotate(0.000000,192.300000,108.000000)" style="stroke: black; stroke-width:0.25;"/>
<line x1="189.300000" y1="115.000000" x2="192.300000" y2="116.000000"  transform="rotate(0.000000,192.300000,116.000000)" style="stroke: black; stroke-width:0.25;"/>
<line x1="189.300000" y1="117.000000" x2="192.300000" y2="116.000000"  transform="rotate(0.000000,192.300000,116.000000)" style="stroke: black; stroke-width:0.25;"/>
<rect x="163.400000" y="25.000000" width="24.000000" height="24.000000" rx="0" ry="0" style="stroke:none;fill:#cccccc;"/>
<rect x="162.400000" y="24.000000" width="24.000000" height="24.000000" rx="0" ry="0" style="stroke:none;fill:#f44800;"/>
<text x="174.400000" y="38.000000" font-family="Arial" font-size="7" text-anchor="middle" fill="#FFFFFF">0.9</text>
<circle cx="184.400000" cy="46.000000" r="1"/>
<rect x="123.400000" y="29.000000" width="24.000000" height="24.000000" rx="0" ry="0" style="stroke:none;fill:#cccccc;"/>
<rect x="122.400000" y="28.000000" width="24.000000" height="24.000000" rx="0" ry="0" style="stroke:none;fill:#4B71A1;"/>
<text x="134.400000" y="42.000000" font-family="Arial" font-size="7" text-anchor="middle" fill="#FFFFFF">*</text>
<circle cx="144.400000" cy="50.000000" r="1"/>
<line x1="149.400000" y1="43.000000" x2="146.400000" y2="44.000000"  transform="rotate(0.000000,146.400000,44.000000)" style="stroke: black; stroke-width:0.25;"/>
<line x1="149.400000" y1="45.000000" x2="146.400000" y2="44.000000"  transform="rotate(0.000000,146.400000,44.000000)" style="stroke: black; stroke-width:0.25;"/>
<line x1="149.400000" y1="35.000000" x2="146.400000" y2="36.000000"  transform="rotate(0.000000,146.400000,36.000000)" style="stroke: black; stroke-width:0.25;"/>
<line x1="149.400000" y1="37.000000" x2="146.400000" y2="36.000000"  transform="rotate(0.000000,146.400000,36.000000)" style="stroke: black; stroke-width:0.25;"/>
<line x1="262.800000" y1="76.000000" x2="262.800000" y2="72.000000"  style="stroke:black; stroke-linecap:round; stroke-width:0.25;"/>
<line x1="262.800000" y1="72.000000" x2="266.800000" y2="72.000000"  style="stroke:black; stroke-linecap:round; stroke-width:0.25;"/>
<line x1="266.800000" y1="72.000000" x2="266.800000" y2="76.000000"  style="stroke:black; stroke-linecap:round; stroke-width:0.25;"/>
<rect x="293.800000" y="65.000000" width="24.000000" height="24.000000" rx="0" ry="0" style="stroke:none;fill:#cccccc;"/>
<rect x="292.800000" y="64.000000" width="24.000000" height="24.000000" rx="0" ry="0" style="stroke:none;fill:#4B71A1;"/>
<text x="304.800000" y="78.000000" font-family="Arial" font-size="7" text-anchor="middle" fill="#FFFFFF">+</text>
<circle cx="294.800000" cy="66.000000" r="1"/>
<line x1="289.800000" y1="71.000000" x2="292.800000" y2="72.000000"  transform="rotate(0.000000,292.800000,72.000000)" style="stroke: black; stroke-width:0.25;"/>
<line x1="289.800000" y1="73.000000" x2="292.800000" y2="72.000000"  transform="rotate(0.000000,292.800000,72.000000)" style="stroke: black; stroke-width:0.25;"/>
<line x1="289.800000" y1="79.000000" x2="292.800000" y2="80.000000"  transform="rotate(0.000000,292.800000,80.000000)" style="stroke: black; stroke-width:0.25;"/>
<line x1="289.800000" y1="81.000000" x2="292.800000" y2="80.000000"  transform="rotate(0.000000,292.800000,80.000000)" style="stroke: black; stroke-width:0.25;"/>
<line x1="15.000000" y1="15.000000" x2="15.000000" y2="137.000000"  style="stroke: black; stroke-linecap:round; stroke-width:0.25; stroke-dasharray:3,3;"/>
<line x1="15.000000" y1="137.000000" x2="333.800000" y2="137.000000"  style="stroke: black; stroke-linecap:round; stroke-width:0.25; stroke-dasharray:3,3;"/>
<line x1="333.800000" y1="137.000000" x2="333.800000" y2="15.000000"  style="stroke: black; stroke-linecap:round; stroke-width:0.25; stroke-dasharray:3,3;"/>
<line x1="15.000000" y1="15.000000" x2="20.000000" y2="15.000000"  style="stroke: black; stroke-linecap:round; stroke-width:0.25; stroke-dasharray:3,3;"/>
<line x1="129.650000" y1="15.000000" x2="333.800000" y2="15.000000"  style="stroke: black; stroke-linecap:round; stroke-width:0.25; stroke-dasharray:3,3;"/>
<text x="20.000000" y="17.000000" font-family="Arial" font-size="7">cmtap(512)(0.90000000000000002f)</text>
<line x1="335.800000" y1="75.000000" x2="338.800000" y2="76.000000"  transform="rotate(0.000000,338.800000,76.000000)" style="stroke: black; stroke-width:0.25;"/>
<line x1="335.800000" y1="77.000000" x2="338.800000" y2="76.000000"  transform="rotate(0.000000,338.800000,76.000000)" style="stroke: black; stroke-width:0.25;"/>
<line x1="10.000000" y1="76.000000" x2="20.000000" y2="76.000000"  style="stroke:black; stroke-linecap:round; stroke-width:0.25;"/>
<line x1="20.000000" y1="76.000000" x2="24.000000" y2="76.000000"  style="stroke:black; stroke-linecap:round; stroke-width:0.25;"/>
<line x1="24.000000" y1="76.000000" x2="28.000000" y2="76.000000"  style="stroke:black; stroke-linecap:round; stroke-width:0.25;"/>
<line x1="28.000000" y1="76.000000" x2="36.000000" y2="76.000000"  style="stroke:black; stroke-linecap:round; stroke-width:0.25;"/>
<line x1="36.000000" y1="76.000000" x2="36.000000" y2="100.000000"  style="stroke:black; stroke-linecap:round; stroke-width:0.25;"/>
<line x1="36.000000" y1="100.000000" x2="36.000000" y2="100.000000"  style="stroke:black; stroke-linecap:round; stroke-width:0.25;"/>
<line x1="36.000000" y1="100.000000" x2="44.000000" y2="100.000000"  style="stroke:black; stroke-linecap:round; stroke-width:0.25;"/>
<line x1="44.000000" y1="40.000000" x2="44.000000" y2="40.000000"  style="stroke:black; stroke-linecap:round; stroke-width:0.25;"/>
<line x1="44.000000" y1="40.000000" x2="44.000000" y2="92.000000"  style="stroke:black; stroke-linecap:round; stroke-width:0.25;"/>
<line x1="44.000000" y1="92.000000" x2="44.000000" y2="92.000000"  style="stroke:black; stroke-linecap:round; stroke-width:0.25;"/>
<line x1="44.000000" y1="92.000000" x2="48.000000" y2="92.000000"  style="stroke:black; stroke-linecap:round; stroke-width:0.25;"/>
<line x1="44.000000" y1="100.000000" x2="48.000000" y2="100.000000"  style="stroke:black; stroke-linecap:round; stroke-width:0.25;"/>
<line x1="72.000000" y1="96.000000" x2="76.000000" y2="96.000000"  style="stroke:black; stroke-linecap:round; stroke-width:0.25;"/>
<line x1="76.000000" y1="96.000000" x2="102.000000" y2="76.000000"  style="stroke:black; stroke-linecap:round; stroke-width:0.25;"/>
<line x1="76.000000" y1="96.000000" x2="102.000000" y2="96.000000"  style="stroke:black; stroke-linecap:round; stroke-width:0.25;"/>
<line x1="102.000000" y1="76.000000" x2="106.000000" y2="76.000000"  style="stroke:black; stroke-linecap:round; stroke-width:0.25;"/>
<line x1="102.000000" y1="96.000000" x2="146.500000" y2="96.000000"  style="stroke:black; stroke-linecap:round; stroke-width:0.25;"/>
<line x1="118.400000" y1="40.000000" x2="44.000000" y2="40.000000"  style="stroke:black; stroke-linecap:round; stroke-width:0.25;"/>
<line x1="122.400000" y1="40.000000" x2="118.400000" y2="40.000000"  style="stroke:black; stroke-linecap:round; stroke-width:0.25;"/>
<line x1="146.500000" y1="96.000000" x2="163.400000" y2="96.000000"  style="stroke:black; stroke-linecap:round; stroke-width:0.25;"/>
<line x1="150.400000" y1="36.000000" x2="146.400000" y2="36.000000"  style="stroke:black; stroke-linecap:round; stroke-width:0.25;"/>
<line x1="150.400000" y1="44.000000" x2="146.400000" y2="44.000000"  style="stroke:black; stroke-linecap:round; stroke-width:0.25;"/>
<line x1="150.400000" y1="44.000000" x2="150.400000" y2="44.000000"  style="stroke:black; stroke-linecap:round; stroke-width:0.25;"/>
<line x1="150.400000" y1="56.000000" x2="150.400000" y2="44.000000"  style="stroke:black; stroke-linecap:round; stroke-width:0.25;"/>
<line x1="158.400000" y1="36.000000" x2="150.400000" y2="36.000000"  style="stroke:black; stroke-linecap:round; stroke-width:0.25;"/>
<line x1="158.400000" y1="56.000000" x2="150.400000" y2="56.000000"  style="stroke:black; stroke-linecap:round; stroke-width:0.25;"/>
<line x1="162.400000" y1="36.000000" x2="158.400000" y2="36.000000"  style="stroke:black; stroke-linecap:round; stroke-width:0.25;"/>
<line x1="163.400000" y1="96.000000" x2="180.300000" y2="96.000000"  style="stroke:black; stroke-linecap:round; stroke-width:0.25;"/>
<line x1="174.400000" y1="56.000000" x2="158.400000" y2="56.000000"  style="stroke:black; stroke-linecap:round; stroke-width:0.25;"/>
<line x1="176.300000" y1="116.000000" x2="180.300000" y2="116.000000"  style="stroke:black; stroke-linecap:round; stroke-width:0.25;"/>
<line x1="180.300000" y1="96.000000" x2="188.300000" y2="96.000000"  style="stroke:black; stroke-linecap:round; stroke-width:0.25;"/>
<line x1="180.300000" y1="116.000000" x2="188.300000" y2="116.000000"  style="stroke:black; stroke-linecap:round; stroke-width:0.25;"/>
<line x1="188.300000" y1="96.000000" x2="188.300000" y2="108.000000"  style="stroke:black; stroke-linecap:round; stroke-width:0.25;"/>
<line x1="188.300000" y1="108.000000" x2="188.300000" y2="108.000000"  style="stroke:black; stroke-linecap:round; stroke-width:0.25;"/>
<line x1="188.300000" y1="108.000000" x2="192.300000" y2="108.000000"  style="stroke:black; stroke-linecap:round; stroke-width:0.25;"/>
<line x1="188.300000" y1="116.000000" x2="192.300000" y2="116.000000"  style="stroke:black; stroke-linecap:round; stroke-width:0.25;"/>
<line x1="190.400000" y1="56.000000" x2="174.400000" y2="56.000000"  style="stroke:black; stroke-linecap:round; stroke-width:0.25;"/>
<line x1="216.300000" y1="112.000000" x2="220.300000" y2="112.000000"  style="stroke:black; stroke-linecap:round; stroke-width:0.25;"/>
<line x1="220.300000" y1="112.000000" x2="264.800000" y2="112.000000"  style="stroke:black; stroke-linecap:round; stroke-width:0.25;"/>
<line x1="260.800000" y1="76.000000" x2="264.800000" y2="76.000000"  style="stroke:black; stroke-linecap:round; stroke-width:0.25;"/>
<line x1="264.800000" y1="56.000000" x2="190.400000" y2="56.000000"  style="stroke:black; stroke-linecap:round; stroke-width:0.25;"/>
<line x1="264.800000" y1="56.000000" x2="264.800000" y2="56.000000"  style="stroke:black; stroke-linecap:round; stroke-width:0.25;"/>
<line x1="264.800000" y1="72.000000" x2="264.800000" y2="56.000000"  style="stroke:black; stroke-linecap:round; stroke-width:0.25;"/>
<line x1="264.800000" y1="76.000000" x2="266.800000" y2="76.000000"  style="stroke:black; stroke-linecap:round; stroke-width:0.25;"/>
<line x1="264.800000" y1="112.000000" x2="272.800000" y2="112.000000"  style="stroke:black; stroke-linecap:round; stroke-width:0.25;"/>
<line x1="266.800000" y1="76.000000" x2="272.800000" y2="76.000000"  style="stroke:black; stroke-linecap:round; stroke-width:0.25;"/>
<line x1="272.800000" y1="72.000000" x2="288.800000" y2="72.000000"  style="stroke:black; stroke-linecap:round; stroke-width:0.25;"/>
<line x1="272.800000" y1="76.000000" x2="272.800000" y2="72.000000"  style="stroke:black; stroke-linecap:round; stroke-width:0.25;"/>
<line x1="272.800000" y1="76.000000" x2="272.800000" y2="76.000000"  style="stroke:black; stroke-linecap:round; stroke-width:0.25;"/>
<line x1="272.800000" y1="112.000000" x2="280.800000" y2="112.000000"  style="stroke:black; stroke-linecap:round; stroke-width:0.25;"/>
<line x1="280.800000" y1="80.000000" x2="288.800000" y2="80.000000"  style="stroke:black; stroke-linecap:round; stroke-width:0.25;"/>
<line x1="280.800000" y1="112.000000" x2="280.800000" y2="80.000000"  style="stroke:black; stroke-linecap:round; stroke-width:0.25;"/>
<line x1="288.800000" y1="72.000000" x2="292.800000" y2="72.000000"  style="stroke:black; stroke-linecap:round; stroke-width:0.25;"/>
<line x1="288.800000" y1="80.000000" x2="292.800000" y2="80.000000"  style="stroke:black; stroke-linecap:round; stroke-width:0.25;"/>
<line x1="316.800000" y1="76.000000" x2="320.800000" y2="76.000000"  style="stroke:black; stroke-linecap:round; stroke-width:0.25;"/>
<line x1="320.800000" y1="76.000000" x2="320.800000" y2="76.000000"  style="stroke:black; stroke-linecap:round; stroke-width:0.25;"/>
<line x1="320.800000" y1="76.000000" x2="324.800000" y2="76.000000"  style="stroke:black; stroke-linecap:round; stroke-width:0.25;"/>
<line x1="324.800000" y1="76.000000" x2="328.800000" y2="76.000000"  style="stroke:black; stroke-linecap:round; stroke-width:0.25;"/>
<line x1="328.800000" y1="76.000000" x2="338.800000" y2="76.000000"  style="stroke:black; stroke-linecap:round; stroke-width:0.25;"/>
</svg>
