<?xml version="1.0"?>
<svg xmlns="http://www.w3.org/2000/svg" xmlns:xlink="http://www.w3.org/1999/xlink" viewBox="0 0 360.600000 144.000000" width="180.300000mm" height="72.000000mm" version="1.1">
<a xlink:href="apfnp-0x600002aed200.svg">
<rect x="0.000000" y="0.000000" width="359.600000" height="143.000000" rx="0" ry="0" style="stroke:#000000;fill:#FFFFFF;"/>
</a>
<text x="10.000000" y="7.000000" font-family="Verdana" font-size="7"></text>
<rect x="132.500000" y="32.000000" width="51.600000" height="24.000000" rx="0" ry="0" style="stroke:#000000;fill:#FFFFFF;"/>
<text x="158.300000" y="46.000000" font-family="Verdana" font-size="7" text-anchor="middle" fill="#000000">-0.877058f</text>
<circle cx="134.500000" cy="34.000000" r="1"/>
<rect x="200.100000" y="28.000000" width="24.000000" height="24.000000" rx="0" ry="0" style="stroke:#000000;fill:#FFFFFF;"/>
<text x="212.100000" y="42.000000" font-family="Verdana" font-size="7" text-anchor="middle" fill="#000000">*</text>
<circle cx="202.100000" cy="30.000000" r="1"/>
<line x1="197.100000" y1="35.000000" x2="200.100000" y2="36.000000"  transform="rotate(0.000000,200.100000,36.000000)" style="stroke: black; stroke-width:0.25;"/>
<line x1="197.100000" y1="37.000000" x2="200.100000" y2="36.000000"  transform="rotate(0.000000,200.100000,36.000000)" style="stroke: black; stroke-width:0.25;"/>
<line x1="197.100000" y1="43.000000" x2="200.100000" y2="44.000000"  transform="rotate(0.000000,200.100000,44.000000)" style="stroke: black; stroke-width:0.25;"/>
<line x1="197.100000" y1="45.000000" x2="200.100000" y2="44.000000"  transform="rotate(0.000000,200.100000,44.000000)" style="stroke: black; stroke-width:0.25;"/>
<a xlink:href="dflcv-0x600002aecb40.svg">
<rect x="68.000000" y="64.000000" width="180.600000" height="24.000000" rx="0" ry="0" style="stroke:#000000;fill:#FFFFFF;"/>
</a>
<a xlink:href="dflcv-0x600002aecb40.svg">
<text x="158.300000" y="78.000000" font-family="Verdana" font-size="7" text-anchor="middle" fill="#000000">dflcv(1.92e+0...,&quot;&quot;),1 : max)(0.877058f)</text>
</a>
<circle cx="70.000000" cy="66.000000" r="1"/>
<line x1="65.000000" y1="75.000000" x2="68.000000" y2="76.000000"  transform="rotate(0.000000,68.000000,76.000000)" style="stroke: black; stroke-width:0.25;"/>
<line x1="65.000000" y1="77.000000" x2="68.000000" y2="76.000000"  transform="rotate(0.000000,68.000000,76.000000)" style="stroke: black; stroke-width:0.25;"/>
<rect x="132.500000" y="96.000000" width="51.600000" height="24.000000" rx="0" ry="0" style="stroke:#000000;fill:#FFFFFF;"/>
<text x="158.300000" y="110.000000" font-family="Verdana" font-size="7" text-anchor="middle" fill="#000000">0.23076923f</text>
<circle cx="134.500000" cy="98.000000" r="1"/>
<rect x="264.600000" y="80.000000" width="24.000000" height="24.000000" rx="0" ry="0" style="stroke:#000000;fill:#FFFFFF;"/>
<text x="276.600000" y="94.000000" font-family="Verdana" font-size="7" text-anchor="middle" fill="#000000">*</text>
<circle cx="266.600000" cy="82.000000" r="1"/>
<line x1="261.600000" y1="87.000000" x2="264.600000" y2="88.000000"  transform="rotate(0.000000,264.600000,88.000000)" style="stroke: black; stroke-width:0.25;"/>
<line x1="261.600000" y1="89.000000" x2="264.600000" y2="88.000000"  transform="rotate(0.000000,264.600000,88.000000)" style="stroke: black; stroke-width:0.25;"/>
<line x1="261.600000" y1="95.000000" x2="264.600000" y2="96.000000"  transform="rotate(0.000000,264.600000,96.000000)" style="stroke: black; stroke-width:0.25;"/>
<line x1="261.600000" y1="97.000000" x2="264.600000" y2="96.000000"  transform="rotate(0.000000,264.600000,96.000000)" style="stroke: black; stroke-width:0.25;"/>
<rect x="304.600000" y="60.000000" width="24.000000" height="24.000000" rx="0" ry="0" style="stroke:#000000;fill:#FFFFFF;"/>
<text x="316.600000" y="74.000000" font-family="Verdana" font-size="7" text-anchor="middle" fill="#000000">+</text>
<circle cx="306.600000" cy="62.000000" r="1"/>
<line x1="301.600000" y1="67.000000" x2="304.600000" y2="68.000000"  transform="rotate(0.000000,304.600000,68.000000)" style="stroke: black; stroke-width:0.25;"/>
<line x1="301.600000" y1="69.000000" x2="304.600000" y2="68.000000"  transform="rotate(0.000000,304.600000,68.000000)" style="stroke: black; stroke-width:0.25;"/>
<line x1="301.600000" y1="75.000000" x2="304.600000" y2="76.000000"  transform="rotate(0.000000,304.600000,76.000000)" style="stroke: black; stroke-width:0.25;"/>
<line x1="301.600000" y1="77.000000" x2="304.600000" y2="76.000000"  transform="rotate(0.000000,304.600000,76.000000)" style="stroke: black; stroke-width:0.25;"/>
<line x1="15.000000" y1="15.000000" x2="15.000000" y2="129.000000"  style="stroke: black; stroke-linecap:round; stroke-width:0.25; stroke-dasharray:3,3;"/>
<line x1="15.000000" y1="129.000000" x2="345.600000" y2="129.000000"  style="stroke: black; stroke-linecap:round; stroke-width:0.25; stroke-dasharray:3,3;"/>
<line x1="345.600000" y1="129.000000" x2="345.600000" y2="15.000000"  style="stroke: black; stroke-linecap:round; stroke-width:0.25; stroke-dasharray:3,3;"/>
<line x1="15.000000" y1="15.000000" x2="20.000000" y2="15.000000"  style="stroke: black; stroke-linecap:round; stroke-width:0.25; stroke-dasharray:3,3;"/>
<line x1="155.450000" y1="15.000000" x2="345.600000" y2="15.000000"  style="stroke: black; stroke-linecap:round; stroke-width:0.25; stroke-dasharray:3,3;"/>
<text x="20.000000" y="17.000000" font-family="Verdana" font-size="7">apfv(1.92e+05...,&quot;&quot;),1 : max)(0.877058f)</text>
<line x1="347.600000" y1="71.000000" x2="350.600000" y2="72.000000"  transform="rotate(0.000000,350.600000,72.000000)" style="stroke: black; stroke-width:0.25;"/>
<line x1="347.600000" y1="73.000000" x2="350.600000" y2="72.000000"  transform="rotate(0.000000,350.600000,72.000000)" style="stroke: black; stroke-width:0.25;"/>
<line x1="10.000000" y1="72.000000" x2="20.000000" y2="72.000000"  style="stroke:black; stroke-linecap:round; stroke-width:0.25;"/>
<line x1="20.000000" y1="72.000000" x2="24.000000" y2="72.000000"  style="stroke:black; stroke-linecap:round; stroke-width:0.25;"/>
<line x1="24.000000" y1="72.000000" x2="28.000000" y2="72.000000"  style="stroke:black; stroke-linecap:round; stroke-width:0.25;"/>
<line x1="28.000000" y1="72.000000" x2="28.000000" y2="72.000000"  style="stroke:black; stroke-linecap:round; stroke-width:0.25;"/>
<line x1="28.000000" y1="72.000000" x2="32.000000" y2="72.000000"  style="stroke:black; stroke-linecap:round; stroke-width:0.25;"/>
<line x1="32.000000" y1="72.000000" x2="36.000000" y2="72.000000"  style="stroke:black; stroke-linecap:round; stroke-width:0.25;"/>
<line x1="36.000000" y1="72.000000" x2="64.000000" y2="24.000000"  style="stroke:black; stroke-linecap:round; stroke-width:0.25;"/>
<line x1="36.000000" y1="72.000000" x2="64.000000" y2="76.000000"  style="stroke:black; stroke-linecap:round; stroke-width:0.25;"/>
<line x1="64.000000" y1="24.000000" x2="128.500000" y2="24.000000"  style="stroke:black; stroke-linecap:round; stroke-width:0.25;"/>
<line x1="64.000000" y1="76.000000" x2="68.000000" y2="76.000000"  style="stroke:black; stroke-linecap:round; stroke-width:0.25;"/>
<line x1="128.500000" y1="24.000000" x2="158.300000" y2="24.000000"  style="stroke:black; stroke-linecap:round; stroke-width:0.25;"/>
<line x1="158.300000" y1="24.000000" x2="188.100000" y2="24.000000"  style="stroke:black; stroke-linecap:round; stroke-width:0.25;"/>
<line x1="184.100000" y1="44.000000" x2="188.100000" y2="44.000000"  style="stroke:black; stroke-linecap:round; stroke-width:0.25;"/>
<line x1="184.100000" y1="108.000000" x2="188.100000" y2="108.000000"  style="stroke:black; stroke-linecap:round; stroke-width:0.25;"/>
<line x1="188.100000" y1="44.000000" x2="196.100000" y2="44.000000"  style="stroke:black; stroke-linecap:round; stroke-width:0.25;"/>
<line x1="188.100000" y1="108.000000" x2="252.600000" y2="108.000000"  style="stroke:black; stroke-linecap:round; stroke-width:0.25;"/>
<line x1="188.100000" y1="24.000000" x2="196.100000" y2="24.000000"  style="stroke:black; stroke-linecap:round; stroke-width:0.25;"/>
<line x1="196.100000" y1="36.000000" x2="200.100000" y2="36.000000"  style="stroke:black; stroke-linecap:round; stroke-width:0.25;"/>
<line x1="196.100000" y1="44.000000" x2="200.100000" y2="44.000000"  style="stroke:black; stroke-linecap:round; stroke-width:0.25;"/>
<line x1="196.100000" y1="24.000000" x2="196.100000" y2="36.000000"  style="stroke:black; stroke-linecap:round; stroke-width:0.25;"/>
<line x1="196.100000" y1="36.000000" x2="196.100000" y2="36.000000"  style="stroke:black; stroke-linecap:round; stroke-width:0.25;"/>
<line x1="224.100000" y1="40.000000" x2="228.100000" y2="40.000000"  style="stroke:black; stroke-linecap:round; stroke-width:0.25;"/>
<line x1="228.100000" y1="40.000000" x2="292.600000" y2="40.000000"  style="stroke:black; stroke-linecap:round; stroke-width:0.25;"/>
<line x1="248.600000" y1="76.000000" x2="252.600000" y2="76.000000"  style="stroke:black; stroke-linecap:round; stroke-width:0.25;"/>
<line x1="252.600000" y1="76.000000" x2="260.600000" y2="76.000000"  style="stroke:black; stroke-linecap:round; stroke-width:0.25;"/>
<line x1="252.600000" y1="96.000000" x2="260.600000" y2="96.000000"  style="stroke:black; stroke-linecap:round; stroke-width:0.25;"/>
<line x1="252.600000" y1="108.000000" x2="252.600000" y2="96.000000"  style="stroke:black; stroke-linecap:round; stroke-width:0.25;"/>
<line x1="252.600000" y1="108.000000" x2="252.600000" y2="108.000000"  style="stroke:black; stroke-linecap:round; stroke-width:0.25;"/>
<line x1="260.600000" y1="76.000000" x2="260.600000" y2="88.000000"  style="stroke:black; stroke-linecap:round; stroke-width:0.25;"/>
<line x1="260.600000" y1="88.000000" x2="260.600000" y2="88.000000"  style="stroke:black; stroke-linecap:round; stroke-width:0.25;"/>
<line x1="260.600000" y1="88.000000" x2="264.600000" y2="88.000000"  style="stroke:black; stroke-linecap:round; stroke-width:0.25;"/>
<line x1="260.600000" y1="96.000000" x2="264.600000" y2="96.000000"  style="stroke:black; stroke-linecap:round; stroke-width:0.25;"/>
<line x1="288.600000" y1="92.000000" x2="292.600000" y2="92.000000"  style="stroke:black; stroke-linecap:round; stroke-width:0.25;"/>
<line x1="292.600000" y1="40.000000" x2="300.600000" y2="40.000000"  style="stroke:black; stroke-linecap:round; stroke-width:0.25;"/>
<line x1="292.600000" y1="76.000000" x2="300.600000" y2="76.000000"  style="stroke:black; stroke-linecap:round; stroke-width:0.25;"/>
<line x1="292.600000" y1="92.000000" x2="292.600000" y2="76.000000"  style="stroke:black; stroke-linecap:round; stroke-width:0.25;"/>
<line x1="292.600000" y1="92.000000" x2="292.600000" y2="92.000000"  style="stroke:black; stroke-linecap:round; stroke-width:0.25;"/>
<line x1="300.600000" y1="40.000000" x2="300.600000" y2="68.000000"  style="stroke:black; stroke-linecap:round; stroke-width:0.25;"/>
<line x1="300.600000" y1="68.000000" x2="300.600000" y2="68.000000"  style="stroke:black; stroke-linecap:round; stroke-width:0.25;"/>
<line x1="300.600000" y1="68.000000" x2="304.600000" y2="68.000000"  style="stroke:black; stroke-linecap:round; stroke-width:0.25;"/>
<line x1="300.600000" y1="76.000000" x2="304.600000" y2="76.000000"  style="stroke:black; stroke-linecap:round; stroke-width:0.25;"/>
<line x1="328.600000" y1="72.000000" x2="332.600000" y2="72.000000"  style="stroke:black; stroke-linecap:round; stroke-width:0.25;"/>
<line x1="332.600000" y1="72.000000" x2="332.600000" y2="72.000000"  style="stroke:black; stroke-linecap:round; stroke-width:0.25;"/>
<line x1="332.600000" y1="72.000000" x2="336.600000" y2="72.000000"  style="stroke:black; stroke-linecap:round; stroke-width:0.25;"/>
<line x1="336.600000" y1="72.000000" x2="340.600000" y2="72.000000"  style="stroke:black; stroke-linecap:round; stroke-width:0.25;"/>
<line x1="340.600000" y1="72.000000" x2="350.600000" y2="72.000000"  style="stroke:black; stroke-linecap:round; stroke-width:0.25;"/>
</svg>
