<?xml version="1.0"?>
<svg xmlns="http://www.w3.org/2000/svg" xmlns:xlink="http://www.w3.org/1999/xlink" viewBox="0 0 428.500000 252.000000" width="214.250000mm" height="126.000000mm" version="1.1">
<a xlink:href="dflcv-0x600002b195f0.svg">
<rect x="0.000000" y="0.000000" width="427.500000" height="251.000000" rx="0" ry="0" style="stroke:#000000;fill:#FFFFFF;"/>
</a>
<text x="10.000000" y="7.000000" font-family="Verdana" font-size="7"></text>
<rect x="32.000000" y="114.000000" width="25.800000" height="24.000000" rx="0" ry="0" style="stroke:#000000;fill:#FFFFFF;"/>
<text x="44.900000" y="128.000000" font-family="Verdana" font-size="7" text-anchor="middle" fill="#000000">[3] x</text>
<circle cx="34.000000" cy="116.000000" r="1"/>
<line x1="29.000000" y1="125.000000" x2="32.000000" y2="126.000000"  transform="rotate(0.000000,32.000000,126.000000)" style="stroke: black; stroke-width:0.25;"/>
<line x1="29.000000" y1="127.000000" x2="32.000000" y2="126.000000"  transform="rotate(0.000000,32.000000,126.000000)" style="stroke: black; stroke-width:0.25;"/>
<rect x="198.250000" y="24.000000" width="25.800000" height="24.000000" rx="0" ry="0" style="stroke:#000000;fill:#FFFFFF;"/>
<text x="211.150000" y="38.000000" font-family="Verdana" font-size="7" text-anchor="middle" fill="#000000">[3] x</text>
<circle cx="200.250000" cy="26.000000" r="1"/>
<a xlink:href="SR-0x600002bcb450.svg">
<rect x="179.150000" y="56.000000" width="24.000000" height="24.000000" rx="0" ry="0" style="stroke:#000000;fill:#FFFFFF;"/>
</a>
<a xlink:href="SR-0x600002bcb450.svg">
<text x="191.150000" y="70.000000" font-family="Verdana" font-size="7" text-anchor="middle" fill="#000000">SR</text>
</a>
<circle cx="181.150000" cy="58.000000" r="1"/>
<rect x="159.150000" y="88.000000" width="24.000000" height="24.000000" rx="0" ry="0" style="stroke:#000000;fill:#FFFFFF;"/>
<text x="171.150000" y="102.000000" font-family="Verdana" font-size="7" text-anchor="middle" fill="#000000">0</text>
<circle cx="161.150000" cy="90.000000" r="1"/>
<rect x="65.800000" y="146.000000" width="24.000000" height="24.000000" rx="0" ry="0" style="stroke:#000000;fill:#FFFFFF;"/>
<text x="77.800000" y="160.000000" font-family="Verdana" font-size="7" text-anchor="middle" fill="#000000">6</text>
<circle cx="67.800000" cy="148.000000" r="1"/>
<rect x="115.800000" y="130.000000" width="38.700000" height="24.000000" rx="0" ry="0" style="stroke:#000000;fill:#FFFFFF;"/>
<text x="135.150000" y="144.000000" font-family="Verdana" font-size="7" text-anchor="middle" fill="#000000">next_pr</text>
<circle cx="117.800000" cy="132.000000" r="1"/>
<line x1="112.800000" y1="141.000000" x2="115.800000" y2="142.000000"  transform="rotate(0.000000,115.800000,142.000000)" style="stroke: black; stroke-width:0.25;"/>
<line x1="112.800000" y1="143.000000" x2="115.800000" y2="142.000000"  transform="rotate(0.000000,115.800000,142.000000)" style="stroke: black; stroke-width:0.25;"/>
<line x1="106.800000" y1="121.000000" x2="106.800000" y2="163.000000"  style="stroke: black; stroke-linecap:round; stroke-width:0.25; stroke-dasharray:3,3;"/>
<line x1="106.800000" y1="163.000000" x2="163.500000" y2="163.000000"  style="stroke: black; stroke-linecap:round; stroke-width:0.25; stroke-dasharray:3,3;"/>
<line x1="163.500000" y1="163.000000" x2="163.500000" y2="121.000000"  style="stroke: black; stroke-linecap:round; stroke-width:0.25; stroke-dasharray:3,3;"/>
<line x1="106.800000" y1="121.000000" x2="111.800000" y2="121.000000"  style="stroke: black; stroke-linecap:round; stroke-width:0.25; stroke-dasharray:3,3;"/>
<line x1="124.700000" y1="121.000000" x2="163.500000" y2="121.000000"  style="stroke: black; stroke-linecap:round; stroke-width:0.25; stroke-dasharray:3,3;"/>
<text x="111.800000" y="123.000000" font-family="Verdana" font-size="7">np</text>
<rect x="123.150000" y="172.000000" width="24.000000" height="24.000000" rx="0" ry="0" style="stroke:#000000;fill:#FFFFFF;"/>
<text x="135.150000" y="186.000000" font-family="Verdana" font-size="7" text-anchor="middle" fill="#000000">1</text>
<circle cx="125.150000" cy="174.000000" r="1"/>
<rect x="180.500000" y="146.000000" width="24.000000" height="24.000000" rx="0" ry="0" style="stroke:#000000;fill:#FFFFFF;"/>
<text x="192.500000" y="160.000000" font-family="Verdana" font-size="7" text-anchor="middle" fill="#000000">max</text>
<circle cx="182.500000" cy="148.000000" r="1"/>
<line x1="177.500000" y1="153.000000" x2="180.500000" y2="154.000000"  transform="rotate(0.000000,180.500000,154.000000)" style="stroke: black; stroke-width:0.25;"/>
<line x1="177.500000" y1="155.000000" x2="180.500000" y2="154.000000"  transform="rotate(0.000000,180.500000,154.000000)" style="stroke: black; stroke-width:0.25;"/>
<line x1="177.500000" y1="161.000000" x2="180.500000" y2="162.000000"  transform="rotate(0.000000,180.500000,162.000000)" style="stroke: black; stroke-width:0.25;"/>
<line x1="177.500000" y1="163.000000" x2="180.500000" y2="162.000000"  transform="rotate(0.000000,180.500000,162.000000)" style="stroke: black; stroke-width:0.25;"/>
<rect x="123.150000" y="204.000000" width="24.000000" height="24.000000" rx="0" ry="0" style="stroke:#000000;fill:#FFFFFF;"/>
<text x="135.150000" y="218.000000" font-family="Verdana" font-size="7" text-anchor="middle" fill="#000000">1</text>
<circle cx="125.150000" cy="206.000000" r="1"/>
<rect x="220.500000" y="162.000000" width="24.000000" height="24.000000" rx="0" ry="0" style="stroke:#000000;fill:#FFFFFF;"/>
<text x="232.500000" y="176.000000" font-family="Verdana" font-size="7" text-anchor="middle" fill="#000000">-</text>
<circle cx="222.500000" cy="164.000000" r="1"/>
<line x1="217.500000" y1="169.000000" x2="220.500000" y2="170.000000"  transform="rotate(0.000000,220.500000,170.000000)" style="stroke: black; stroke-width:0.25;"/>
<line x1="217.500000" y1="171.000000" x2="220.500000" y2="170.000000"  transform="rotate(0.000000,220.500000,170.000000)" style="stroke: black; stroke-width:0.25;"/>
<line x1="217.500000" y1="177.000000" x2="220.500000" y2="178.000000"  transform="rotate(0.000000,220.500000,178.000000)" style="stroke: black; stroke-width:0.25;"/>
<line x1="217.500000" y1="179.000000" x2="220.500000" y2="178.000000"  transform="rotate(0.000000,220.500000,178.000000)" style="stroke: black; stroke-width:0.25;"/>
<rect x="252.500000" y="162.000000" width="24.000000" height="24.000000" rx="0" ry="0" style="stroke:#000000;fill:#FFFFFF;"/>
<text x="264.500000" y="176.000000" font-family="Verdana" font-size="7" text-anchor="middle" fill="#000000">int</text>
<circle cx="254.500000" cy="164.000000" r="1"/>
<line x1="249.500000" y1="173.000000" x2="252.500000" y2="174.000000"  transform="rotate(0.000000,252.500000,174.000000)" style="stroke: black; stroke-width:0.25;"/>
<line x1="249.500000" y1="175.000000" x2="252.500000" y2="174.000000"  transform="rotate(0.000000,252.500000,174.000000)" style="stroke: black; stroke-width:0.25;"/>
<rect x="292.500000" y="146.000000" width="24.000000" height="24.000000" rx="0" ry="0" style="stroke:#000000;fill:#FFFFFF;"/>
<text x="304.500000" y="160.000000" font-family="Verdana" font-size="7" text-anchor="middle" fill="#000000">max</text>
<circle cx="294.500000" cy="148.000000" r="1"/>
<line x1="289.500000" y1="153.000000" x2="292.500000" y2="154.000000"  transform="rotate(0.000000,292.500000,154.000000)" style="stroke: black; stroke-width:0.25;"/>
<line x1="289.500000" y1="155.000000" x2="292.500000" y2="154.000000"  transform="rotate(0.000000,292.500000,154.000000)" style="stroke: black; stroke-width:0.25;"/>
<line x1="289.500000" y1="161.000000" x2="292.500000" y2="162.000000"  transform="rotate(0.000000,292.500000,162.000000)" style="stroke: black; stroke-width:0.25;"/>
<line x1="289.500000" y1="163.000000" x2="292.500000" y2="162.000000"  transform="rotate(0.000000,292.500000,162.000000)" style="stroke: black; stroke-width:0.25;"/>
<rect x="332.500000" y="130.000000" width="24.000000" height="24.000000" rx="0" ry="0" style="stroke:#000000;fill:#FFFFFF;"/>
<text x="344.500000" y="144.000000" font-family="Verdana" font-size="7" text-anchor="middle" fill="#000000">min</text>
<circle cx="334.500000" cy="132.000000" r="1"/>
<line x1="329.500000" y1="137.000000" x2="332.500000" y2="138.000000"  transform="rotate(0.000000,332.500000,138.000000)" style="stroke: black; stroke-width:0.25;"/>
<line x1="329.500000" y1="139.000000" x2="332.500000" y2="138.000000"  transform="rotate(0.000000,332.500000,138.000000)" style="stroke: black; stroke-width:0.25;"/>
<line x1="329.500000" y1="145.000000" x2="332.500000" y2="146.000000"  transform="rotate(0.000000,332.500000,146.000000)" style="stroke: black; stroke-width:0.25;"/>
<line x1="329.500000" y1="147.000000" x2="332.500000" y2="146.000000"  transform="rotate(0.000000,332.500000,146.000000)" style="stroke: black; stroke-width:0.25;"/>
<rect x="372.500000" y="114.000000" width="24.000000" height="24.000000" rx="0" ry="0" style="stroke:#000000;fill:#FFFFFF;"/>
<text x="384.500000" y="128.000000" font-family="Verdana" font-size="7" text-anchor="middle" fill="#000000">@</text>
<circle cx="374.500000" cy="116.000000" r="1"/>
<line x1="369.500000" y1="121.000000" x2="372.500000" y2="122.000000"  transform="rotate(0.000000,372.500000,122.000000)" style="stroke: black; stroke-width:0.25;"/>
<line x1="369.500000" y1="123.000000" x2="372.500000" y2="122.000000"  transform="rotate(0.000000,372.500000,122.000000)" style="stroke: black; stroke-width:0.25;"/>
<line x1="369.500000" y1="129.000000" x2="372.500000" y2="130.000000"  transform="rotate(0.000000,372.500000,130.000000)" style="stroke: black; stroke-width:0.25;"/>
<line x1="369.500000" y1="131.000000" x2="372.500000" y2="130.000000"  transform="rotate(0.000000,372.500000,130.000000)" style="stroke: black; stroke-width:0.25;"/>
<line x1="15.000000" y1="15.000000" x2="15.000000" y2="237.000000"  style="stroke: black; stroke-linecap:round; stroke-width:0.25; stroke-dasharray:3,3;"/>
<line x1="15.000000" y1="237.000000" x2="413.500000" y2="237.000000"  style="stroke: black; stroke-linecap:round; stroke-width:0.25; stroke-dasharray:3,3;"/>
<line x1="413.500000" y1="237.000000" x2="413.500000" y2="15.000000"  style="stroke: black; stroke-linecap:round; stroke-width:0.25; stroke-dasharray:3,3;"/>
<line x1="15.000000" y1="15.000000" x2="20.000000" y2="15.000000"  style="stroke: black; stroke-linecap:round; stroke-width:0.25; stroke-dasharray:3,3;"/>
<line x1="119.975000" y1="15.000000" x2="413.500000" y2="15.000000"  style="stroke: black; stroke-linecap:round; stroke-width:0.25; stroke-dasharray:3,3;"/>
<text x="20.000000" y="17.000000" font-family="Verdana" font-size="7">delay(1.92e+0...,1 : - : int)</text>
<line x1="415.500000" y1="125.000000" x2="418.500000" y2="126.000000"  transform="rotate(0.000000,418.500000,126.000000)" style="stroke: black; stroke-width:0.25;"/>
<line x1="415.500000" y1="127.000000" x2="418.500000" y2="126.000000"  transform="rotate(0.000000,418.500000,126.000000)" style="stroke: black; stroke-width:0.25;"/>
<line x1="10.000000" y1="126.000000" x2="20.000000" y2="126.000000"  style="stroke:black; stroke-linecap:round; stroke-width:0.25;"/>
<line x1="20.000000" y1="126.000000" x2="24.000000" y2="126.000000"  style="stroke:black; stroke-linecap:round; stroke-width:0.25;"/>
<line x1="24.000000" y1="126.000000" x2="28.000000" y2="126.000000"  style="stroke:black; stroke-linecap:round; stroke-width:0.25;"/>
<line x1="28.000000" y1="126.000000" x2="28.000000" y2="126.000000"  style="stroke:black; stroke-linecap:round; stroke-width:0.25;"/>
<line x1="28.000000" y1="126.000000" x2="32.000000" y2="126.000000"  style="stroke:black; stroke-linecap:round; stroke-width:0.25;"/>
<line x1="89.800000" y1="158.000000" x2="93.800000" y2="158.000000"  style="stroke:black; stroke-linecap:round; stroke-width:0.25;"/>
<line x1="93.800000" y1="142.000000" x2="101.800000" y2="142.000000"  style="stroke:black; stroke-linecap:round; stroke-width:0.25;"/>
<line x1="93.800000" y1="158.000000" x2="93.800000" y2="142.000000"  style="stroke:black; stroke-linecap:round; stroke-width:0.25;"/>
<line x1="93.800000" y1="158.000000" x2="93.800000" y2="158.000000"  style="stroke:black; stroke-linecap:round; stroke-width:0.25;"/>
<line x1="101.800000" y1="142.000000" x2="111.800000" y2="142.000000"  style="stroke:black; stroke-linecap:round; stroke-width:0.25;"/>
<line x1="111.800000" y1="142.000000" x2="115.800000" y2="142.000000"  style="stroke:black; stroke-linecap:round; stroke-width:0.25;"/>
<line x1="147.150000" y1="184.000000" x2="151.150000" y2="184.000000"  style="stroke:black; stroke-linecap:round; stroke-width:0.25;"/>
<line x1="147.150000" y1="216.000000" x2="151.150000" y2="216.000000"  style="stroke:black; stroke-linecap:round; stroke-width:0.25;"/>
<line x1="151.150000" y1="184.000000" x2="168.500000" y2="184.000000"  style="stroke:black; stroke-linecap:round; stroke-width:0.25;"/>
<line x1="151.150000" y1="216.000000" x2="208.500000" y2="216.000000"  style="stroke:black; stroke-linecap:round; stroke-width:0.25;"/>
<line x1="154.500000" y1="142.000000" x2="158.500000" y2="142.000000"  style="stroke:black; stroke-linecap:round; stroke-width:0.25;"/>
<line x1="158.500000" y1="142.000000" x2="168.500000" y2="142.000000"  style="stroke:black; stroke-linecap:round; stroke-width:0.25;"/>
<line x1="168.500000" y1="162.000000" x2="176.500000" y2="162.000000"  style="stroke:black; stroke-linecap:round; stroke-width:0.25;"/>
<line x1="168.500000" y1="184.000000" x2="168.500000" y2="162.000000"  style="stroke:black; stroke-linecap:round; stroke-width:0.25;"/>
<line x1="168.500000" y1="184.000000" x2="168.500000" y2="184.000000"  style="stroke:black; stroke-linecap:round; stroke-width:0.25;"/>
<line x1="168.500000" y1="142.000000" x2="176.500000" y2="142.000000"  style="stroke:black; stroke-linecap:round; stroke-width:0.25;"/>
<line x1="176.500000" y1="142.000000" x2="176.500000" y2="154.000000"  style="stroke:black; stroke-linecap:round; stroke-width:0.25;"/>
<line x1="176.500000" y1="154.000000" x2="176.500000" y2="154.000000"  style="stroke:black; stroke-linecap:round; stroke-width:0.25;"/>
<line x1="176.500000" y1="154.000000" x2="180.500000" y2="154.000000"  style="stroke:black; stroke-linecap:round; stroke-width:0.25;"/>
<line x1="176.500000" y1="162.000000" x2="180.500000" y2="162.000000"  style="stroke:black; stroke-linecap:round; stroke-width:0.25;"/>
<line x1="183.150000" y1="100.000000" x2="187.150000" y2="100.000000"  style="stroke:black; stroke-linecap:round; stroke-width:0.25;"/>
<line x1="187.150000" y1="100.000000" x2="280.500000" y2="100.000000"  style="stroke:black; stroke-linecap:round; stroke-width:0.25;"/>
<line x1="203.150000" y1="68.000000" x2="207.150000" y2="68.000000"  style="stroke:black; stroke-linecap:round; stroke-width:0.25;"/>
<line x1="204.500000" y1="158.000000" x2="208.500000" y2="158.000000"  style="stroke:black; stroke-linecap:round; stroke-width:0.25;"/>
<line x1="207.150000" y1="68.000000" x2="320.500000" y2="68.000000"  style="stroke:black; stroke-linecap:round; stroke-width:0.25;"/>
<line x1="208.500000" y1="178.000000" x2="216.500000" y2="178.000000"  style="stroke:black; stroke-linecap:round; stroke-width:0.25;"/>
<line x1="208.500000" y1="216.000000" x2="208.500000" y2="178.000000"  style="stroke:black; stroke-linecap:round; stroke-width:0.25;"/>
<line x1="208.500000" y1="216.000000" x2="208.500000" y2="216.000000"  style="stroke:black; stroke-linecap:round; stroke-width:0.25;"/>
<line x1="208.500000" y1="158.000000" x2="216.500000" y2="158.000000"  style="stroke:black; stroke-linecap:round; stroke-width:0.25;"/>
<line x1="216.500000" y1="158.000000" x2="216.500000" y2="170.000000"  style="stroke:black; stroke-linecap:round; stroke-width:0.25;"/>
<line x1="216.500000" y1="170.000000" x2="216.500000" y2="170.000000"  style="stroke:black; stroke-linecap:round; stroke-width:0.25;"/>
<line x1="216.500000" y1="170.000000" x2="220.500000" y2="170.000000"  style="stroke:black; stroke-linecap:round; stroke-width:0.25;"/>
<line x1="216.500000" y1="178.000000" x2="220.500000" y2="178.000000"  style="stroke:black; stroke-linecap:round; stroke-width:0.25;"/>
<line x1="224.050000" y1="36.000000" x2="228.050000" y2="36.000000"  style="stroke:black; stroke-linecap:round; stroke-width:0.25;"/>
<line x1="228.050000" y1="36.000000" x2="360.500000" y2="36.000000"  style="stroke:black; stroke-linecap:round; stroke-width:0.25;"/>
<line x1="244.500000" y1="174.000000" x2="248.500000" y2="174.000000"  style="stroke:black; stroke-linecap:round; stroke-width:0.25;"/>
<line x1="248.500000" y1="174.000000" x2="248.500000" y2="174.000000"  style="stroke:black; stroke-linecap:round; stroke-width:0.25;"/>
<line x1="248.500000" y1="174.000000" x2="252.500000" y2="174.000000"  style="stroke:black; stroke-linecap:round; stroke-width:0.25;"/>
<line x1="276.500000" y1="174.000000" x2="280.500000" y2="174.000000"  style="stroke:black; stroke-linecap:round; stroke-width:0.25;"/>
<line x1="280.500000" y1="100.000000" x2="288.500000" y2="100.000000"  style="stroke:black; stroke-linecap:round; stroke-width:0.25;"/>
<line x1="280.500000" y1="162.000000" x2="288.500000" y2="162.000000"  style="stroke:black; stroke-linecap:round; stroke-width:0.25;"/>
<line x1="280.500000" y1="174.000000" x2="280.500000" y2="162.000000"  style="stroke:black; stroke-linecap:round; stroke-width:0.25;"/>
<line x1="280.500000" y1="174.000000" x2="280.500000" y2="174.000000"  style="stroke:black; stroke-linecap:round; stroke-width:0.25;"/>
<line x1="288.500000" y1="100.000000" x2="288.500000" y2="154.000000"  style="stroke:black; stroke-linecap:round; stroke-width:0.25;"/>
<line x1="288.500000" y1="154.000000" x2="288.500000" y2="154.000000"  style="stroke:black; stroke-linecap:round; stroke-width:0.25;"/>
<line x1="288.500000" y1="154.000000" x2="292.500000" y2="154.000000"  style="stroke:black; stroke-linecap:round; stroke-width:0.25;"/>
<line x1="288.500000" y1="162.000000" x2="292.500000" y2="162.000000"  style="stroke:black; stroke-linecap:round; stroke-width:0.25;"/>
<line x1="316.500000" y1="158.000000" x2="320.500000" y2="158.000000"  style="stroke:black; stroke-linecap:round; stroke-width:0.25;"/>
<line x1="320.500000" y1="68.000000" x2="328.500000" y2="68.000000"  style="stroke:black; stroke-linecap:round; stroke-width:0.25;"/>
<line x1="320.500000" y1="146.000000" x2="328.500000" y2="146.000000"  style="stroke:black; stroke-linecap:round; stroke-width:0.25;"/>
<line x1="320.500000" y1="158.000000" x2="320.500000" y2="146.000000"  style="stroke:black; stroke-linecap:round; stroke-width:0.25;"/>
<line x1="320.500000" y1="158.000000" x2="320.500000" y2="158.000000"  style="stroke:black; stroke-linecap:round; stroke-width:0.25;"/>
<line x1="328.500000" y1="68.000000" x2="328.500000" y2="138.000000"  style="stroke:black; stroke-linecap:round; stroke-width:0.25;"/>
<line x1="328.500000" y1="138.000000" x2="328.500000" y2="138.000000"  style="stroke:black; stroke-linecap:round; stroke-width:0.25;"/>
<line x1="328.500000" y1="138.000000" x2="332.500000" y2="138.000000"  style="stroke:black; stroke-linecap:round; stroke-width:0.25;"/>
<line x1="328.500000" y1="146.000000" x2="332.500000" y2="146.000000"  style="stroke:black; stroke-linecap:round; stroke-width:0.25;"/>
<line x1="356.500000" y1="142.000000" x2="360.500000" y2="142.000000"  style="stroke:black; stroke-linecap:round; stroke-width:0.25;"/>
<line x1="360.500000" y1="36.000000" x2="368.500000" y2="36.000000"  style="stroke:black; stroke-linecap:round; stroke-width:0.25;"/>
<line x1="360.500000" y1="130.000000" x2="368.500000" y2="130.000000"  style="stroke:black; stroke-linecap:round; stroke-width:0.25;"/>
<line x1="360.500000" y1="142.000000" x2="360.500000" y2="130.000000"  style="stroke:black; stroke-linecap:round; stroke-width:0.25;"/>
<line x1="360.500000" y1="142.000000" x2="360.500000" y2="142.000000"  style="stroke:black; stroke-linecap:round; stroke-width:0.25;"/>
<line x1="368.500000" y1="36.000000" x2="368.500000" y2="122.000000"  style="stroke:black; stroke-linecap:round; stroke-width:0.25;"/>
<line x1="368.500000" y1="122.000000" x2="368.500000" y2="122.000000"  style="stroke:black; stroke-linecap:round; stroke-width:0.25;"/>
<line x1="368.500000" y1="122.000000" x2="372.500000" y2="122.000000"  style="stroke:black; stroke-linecap:round; stroke-width:0.25;"/>
<line x1="368.500000" y1="130.000000" x2="372.500000" y2="130.000000"  style="stroke:black; stroke-linecap:round; stroke-width:0.25;"/>
<line x1="396.500000" y1="126.000000" x2="400.500000" y2="126.000000"  style="stroke:black; stroke-linecap:round; stroke-width:0.25;"/>
<line x1="400.500000" y1="126.000000" x2="400.500000" y2="126.000000"  style="stroke:black; stroke-linecap:round; stroke-width:0.25;"/>
<line x1="400.500000" y1="126.000000" x2="404.500000" y2="126.000000"  style="stroke:black; stroke-linecap:round; stroke-width:0.25;"/>
<line x1="404.500000" y1="126.000000" x2="408.500000" y2="126.000000"  style="stroke:black; stroke-linecap:round; stroke-width:0.25;"/>
<line x1="408.500000" y1="126.000000" x2="418.500000" y2="126.000000"  style="stroke:black; stroke-linecap:round; stroke-width:0.25;"/>
</svg>
