<?xml version="1.0"?>
<svg xmlns="http://www.w3.org/2000/svg" xmlns:xlink="http://www.w3.org/1999/xlink" viewBox="0 0 582.700000 184.000000" width="291.350000mm" height="92.000000mm" version="1.1">
<!-- <rect x="0.000000" y="0.000000" width="581.700000" height="183.000000" rx="0" ry="0" style="stroke:#000000;fill:#FFFFFF;"/> -->
<text x="10.000000" y="7.000000" font-family="Verdana" font-size="7"></text>
<rect x="248.550000" y="32.000000" width="51.600000" height="24.000000" rx="0" ry="0" style="stroke:#000000;fill:#FFFFFF;"/>
<text x="274.350000" y="46.000000" font-family="Verdana" font-size="7" text-anchor="middle" fill="#000000">-0.70710677f</text>
<circle cx="250.550000" cy="34.000000" r="1"/>
<rect x="316.150000" y="28.000000" width="24.000000" height="24.000000" rx="0" ry="0" style="stroke:#000000;fill:#FFFFFF;"/>
<text x="328.150000" y="42.000000" font-family="Verdana" font-size="7" text-anchor="middle" fill="#000000">*</text>
<circle cx="318.150000" cy="30.000000" r="1"/>
<line x1="313.150000" y1="35.000000" x2="316.150000" y2="36.000000"  transform="rotate(0.000000,316.150000,36.000000)" style="stroke: black; stroke-width:0.25;"/>
<line x1="313.150000" y1="37.000000" x2="316.150000" y2="36.000000"  transform="rotate(0.000000,316.150000,36.000000)" style="stroke: black; stroke-width:0.25;"/>
<line x1="313.150000" y1="43.000000" x2="316.150000" y2="44.000000"  transform="rotate(0.000000,316.150000,44.000000)" style="stroke: black; stroke-width:0.25;"/>
<line x1="313.150000" y1="45.000000" x2="316.150000" y2="44.000000"  transform="rotate(0.000000,316.150000,44.000000)" style="stroke: black; stroke-width:0.25;"/>
<rect x="86.000000" y="104.000000" width="24.000000" height="24.000000" rx="0" ry="0" style="stroke:#000000;fill:#FFFFFF;"/>
<text x="98.000000" y="118.000000" font-family="Verdana" font-size="7" text-anchor="middle" fill="#000000">+</text>
<circle cx="88.000000" cy="106.000000" r="1"/>
<line x1="83.000000" y1="111.000000" x2="86.000000" y2="112.000000"  transform="rotate(0.000000,86.000000,112.000000)" style="stroke: black; stroke-width:0.25;"/>
<line x1="83.000000" y1="113.000000" x2="86.000000" y2="112.000000"  transform="rotate(0.000000,86.000000,112.000000)" style="stroke: black; stroke-width:0.25;"/>
<line x1="83.000000" y1="119.000000" x2="86.000000" y2="120.000000"  transform="rotate(0.000000,86.000000,120.000000)" style="stroke: black; stroke-width:0.25;"/>
<line x1="83.000000" y1="121.000000" x2="86.000000" y2="120.000000"  transform="rotate(0.000000,86.000000,120.000000)" style="stroke: black; stroke-width:0.25;"/>
<a xlink:href="delay-0x600002b1e910.svg">
<rect x="118.000000" y="104.000000" width="141.900000" height="24.000000" rx="0" ry="0" style="stroke:#000000;fill:#FFFFFF;"/>
</a>
<a xlink:href="delay-0x600002b1e910.svg">
<text x="188.950000" y="118.000000" font-family="Verdana" font-size="7" text-anchor="middle" fill="#000000">delay((1.92e+...: min),2 : /)(0)</text>
</a>
<circle cx="120.000000" cy="106.000000" r="1"/>
<line x1="115.000000" y1="115.000000" x2="118.000000" y2="116.000000"  transform="rotate(0.000000,118.000000,116.000000)" style="stroke: black; stroke-width:0.25;"/>
<line x1="115.000000" y1="117.000000" x2="118.000000" y2="116.000000"  transform="rotate(0.000000,118.000000,116.000000)" style="stroke: black; stroke-width:0.25;"/>
<a xlink:href="apfnp-0x600002aed200.svg">
<rect x="267.900000" y="104.000000" width="154.800000" height="24.000000" rx="0" ry="0" style="stroke:#000000;fill:#FFFFFF;"/>
</a>
<a xlink:href="apfnp-0x600002aed200.svg">
<text x="345.300000" y="118.000000" font-family="Verdana" font-size="7" text-anchor="middle" fill="#000000">apfnp(1.92e+0...: max) : min)(2)(3)</text>
</a>
<circle cx="269.900000" cy="106.000000" r="1"/>
<line x1="264.900000" y1="115.000000" x2="267.900000" y2="116.000000"  transform="rotate(0.000000,267.900000,116.000000)" style="stroke: black; stroke-width:0.25;"/>
<line x1="264.900000" y1="117.000000" x2="267.900000" y2="116.000000"  transform="rotate(0.000000,267.900000,116.000000)" style="stroke: black; stroke-width:0.25;"/>
<rect x="248.550000" y="64.000000" width="51.600000" height="24.000000" rx="0" ry="0" style="stroke:#000000;fill:#FFFFFF;"/>
<text x="274.350000" y="78.000000" font-family="Verdana" font-size="7" text-anchor="middle" fill="#000000">0.70710677f</text>
<circle cx="298.150000" cy="86.000000" r="1"/>
<rect x="208.550000" y="68.000000" width="24.000000" height="24.000000" rx="0" ry="0" style="stroke:#000000;fill:#FFFFFF;"/>
<text x="220.550000" y="82.000000" font-family="Verdana" font-size="7" text-anchor="middle" fill="#000000">*</text>
<circle cx="230.550000" cy="90.000000" r="1"/>
<line x1="235.550000" y1="83.000000" x2="232.550000" y2="84.000000"  transform="rotate(0.000000,232.550000,84.000000)" style="stroke: black; stroke-width:0.25;"/>
<line x1="235.550000" y1="85.000000" x2="232.550000" y2="84.000000"  transform="rotate(0.000000,232.550000,84.000000)" style="stroke: black; stroke-width:0.25;"/>
<line x1="235.550000" y1="75.000000" x2="232.550000" y2="76.000000"  transform="rotate(0.000000,232.550000,76.000000)" style="stroke: black; stroke-width:0.25;"/>
<line x1="235.550000" y1="77.000000" x2="232.550000" y2="76.000000"  transform="rotate(0.000000,232.550000,76.000000)" style="stroke: black; stroke-width:0.25;"/>
<line x1="424.700000" y1="116.000000" x2="424.700000" y2="112.000000"  style="stroke:black; stroke-linecap:round; stroke-width:0.25;"/>
<line x1="424.700000" y1="112.000000" x2="428.700000" y2="112.000000"  style="stroke:black; stroke-linecap:round; stroke-width:0.25;"/>
<line x1="428.700000" y1="112.000000" x2="428.700000" y2="116.000000"  style="stroke:black; stroke-linecap:round; stroke-width:0.25;"/>
<rect x="446.700000" y="84.000000" width="24.000000" height="24.000000" rx="0" ry="0" style="stroke:#000000;fill:#FFFFFF;"/>
<text x="458.700000" y="98.000000" font-family="Verdana" font-size="7" text-anchor="middle" fill="#000000">mem</text>
<circle cx="448.700000" cy="86.000000" r="1"/>
<line x1="443.700000" y1="95.000000" x2="446.700000" y2="96.000000"  transform="rotate(0.000000,446.700000,96.000000)" style="stroke: black; stroke-width:0.25;"/>
<line x1="443.700000" y1="97.000000" x2="446.700000" y2="96.000000"  transform="rotate(0.000000,446.700000,96.000000)" style="stroke: black; stroke-width:0.25;"/>
<rect x="261.450000" y="136.000000" width="25.800000" height="24.000000" rx="0" ry="0" style="stroke:#000000;fill:#FFFFFF;"/>
<text x="274.350000" y="150.000000" font-family="Verdana" font-size="7" text-anchor="middle" fill="#000000">0.5f</text>
<circle cx="263.450000" cy="138.000000" r="1"/>
<rect x="486.700000" y="100.000000" width="24.000000" height="24.000000" rx="0" ry="0" style="stroke:#000000;fill:#FFFFFF;"/>
<text x="498.700000" y="114.000000" font-family="Verdana" font-size="7" text-anchor="middle" fill="#000000">*</text>
<circle cx="488.700000" cy="102.000000" r="1"/>
<line x1="483.700000" y1="107.000000" x2="486.700000" y2="108.000000"  transform="rotate(0.000000,486.700000,108.000000)" style="stroke: black; stroke-width:0.25;"/>
<line x1="483.700000" y1="109.000000" x2="486.700000" y2="108.000000"  transform="rotate(0.000000,486.700000,108.000000)" style="stroke: black; stroke-width:0.25;"/>
<line x1="483.700000" y1="115.000000" x2="486.700000" y2="116.000000"  transform="rotate(0.000000,486.700000,116.000000)" style="stroke: black; stroke-width:0.25;"/>
<line x1="483.700000" y1="117.000000" x2="486.700000" y2="116.000000"  transform="rotate(0.000000,486.700000,116.000000)" style="stroke: black; stroke-width:0.25;"/>
<rect x="526.700000" y="80.000000" width="24.000000" height="24.000000" rx="0" ry="0" style="stroke:#000000;fill:#FFFFFF;"/>
<text x="538.700000" y="94.000000" font-family="Verdana" font-size="7" text-anchor="middle" fill="#000000">+</text>
<circle cx="528.700000" cy="82.000000" r="1"/>
<line x1="523.700000" y1="87.000000" x2="526.700000" y2="88.000000"  transform="rotate(0.000000,526.700000,88.000000)" style="stroke: black; stroke-width:0.25;"/>
<line x1="523.700000" y1="89.000000" x2="526.700000" y2="88.000000"  transform="rotate(0.000000,526.700000,88.000000)" style="stroke: black; stroke-width:0.25;"/>
<line x1="523.700000" y1="95.000000" x2="526.700000" y2="96.000000"  transform="rotate(0.000000,526.700000,96.000000)" style="stroke: black; stroke-width:0.25;"/>
<line x1="523.700000" y1="97.000000" x2="526.700000" y2="96.000000"  transform="rotate(0.000000,526.700000,96.000000)" style="stroke: black; stroke-width:0.25;"/>
<line x1="15.000000" y1="15.000000" x2="15.000000" y2="169.000000"  style="stroke: black; stroke-linecap:round; stroke-width:0.25; stroke-dasharray:3,3;"/>
<line x1="15.000000" y1="169.000000" x2="567.700000" y2="169.000000"  style="stroke: black; stroke-linecap:round; stroke-width:0.25; stroke-dasharray:3,3;"/>
<line x1="567.700000" y1="169.000000" x2="567.700000" y2="15.000000"  style="stroke: black; stroke-linecap:round; stroke-width:0.25; stroke-dasharray:3,3;"/>
<line x1="15.000000" y1="15.000000" x2="20.000000" y2="15.000000"  style="stroke: black; stroke-linecap:round; stroke-width:0.25; stroke-dasharray:3,3;"/>
<line x1="49.025000" y1="15.000000" x2="567.700000" y2="15.000000"  style="stroke: black; stroke-linecap:round; stroke-width:0.25; stroke-dasharray:3,3;"/>
<text x="20.000000" y="17.000000" font-family="Verdana" font-size="7">process</text>
<line x1="569.700000" y1="91.000000" x2="572.700000" y2="92.000000"  transform="rotate(0.000000,572.700000,92.000000)" style="stroke: black; stroke-width:0.25;"/>
<line x1="569.700000" y1="93.000000" x2="572.700000" y2="92.000000"  transform="rotate(0.000000,572.700000,92.000000)" style="stroke: black; stroke-width:0.25;"/>
<line x1="10.000000" y1="92.000000" x2="20.000000" y2="92.000000"  style="stroke:black; stroke-linecap:round; stroke-width:0.25;"/>
<line x1="20.000000" y1="92.000000" x2="24.000000" y2="92.000000"  style="stroke:black; stroke-linecap:round; stroke-width:0.25;"/>
<line x1="24.000000" y1="92.000000" x2="28.000000" y2="92.000000"  style="stroke:black; stroke-linecap:round; stroke-width:0.25;"/>
<line x1="28.000000" y1="92.000000" x2="28.000000" y2="92.000000"  style="stroke:black; stroke-linecap:round; stroke-width:0.25;"/>
<line x1="28.000000" y1="92.000000" x2="32.000000" y2="92.000000"  style="stroke:black; stroke-linecap:round; stroke-width:0.25;"/>
<line x1="32.000000" y1="92.000000" x2="36.000000" y2="92.000000"  style="stroke:black; stroke-linecap:round; stroke-width:0.25;"/>
<line x1="36.000000" y1="92.000000" x2="74.000000" y2="24.000000"  style="stroke:black; stroke-linecap:round; stroke-width:0.25;"/>
<line x1="36.000000" y1="92.000000" x2="74.000000" y2="120.000000"  style="stroke:black; stroke-linecap:round; stroke-width:0.25;"/>
<line x1="74.000000" y1="24.000000" x2="244.550000" y2="24.000000"  style="stroke:black; stroke-linecap:round; stroke-width:0.25;"/>
<line x1="74.000000" y1="120.000000" x2="82.000000" y2="120.000000"  style="stroke:black; stroke-linecap:round; stroke-width:0.25;"/>
<line x1="82.000000" y1="112.000000" x2="86.000000" y2="112.000000"  style="stroke:black; stroke-linecap:round; stroke-width:0.25;"/>
<line x1="82.000000" y1="120.000000" x2="86.000000" y2="120.000000"  style="stroke:black; stroke-linecap:round; stroke-width:0.25;"/>
<line x1="82.000000" y1="80.000000" x2="82.000000" y2="80.000000"  style="stroke:black; stroke-linecap:round; stroke-width:0.25;"/>
<line x1="82.000000" y1="80.000000" x2="82.000000" y2="112.000000"  style="stroke:black; stroke-linecap:round; stroke-width:0.25;"/>
<line x1="82.000000" y1="112.000000" x2="82.000000" y2="112.000000"  style="stroke:black; stroke-linecap:round; stroke-width:0.25;"/>
<line x1="110.000000" y1="116.000000" x2="114.000000" y2="116.000000"  style="stroke:black; stroke-linecap:round; stroke-width:0.25;"/>
<line x1="114.000000" y1="116.000000" x2="114.000000" y2="116.000000"  style="stroke:black; stroke-linecap:round; stroke-width:0.25;"/>
<line x1="114.000000" y1="116.000000" x2="118.000000" y2="116.000000"  style="stroke:black; stroke-linecap:round; stroke-width:0.25;"/>
<line x1="204.550000" y1="80.000000" x2="82.000000" y2="80.000000"  style="stroke:black; stroke-linecap:round; stroke-width:0.25;"/>
<line x1="208.550000" y1="80.000000" x2="204.550000" y2="80.000000"  style="stroke:black; stroke-linecap:round; stroke-width:0.25;"/>
<line x1="236.550000" y1="76.000000" x2="232.550000" y2="76.000000"  style="stroke:black; stroke-linecap:round; stroke-width:0.25;"/>
<line x1="236.550000" y1="84.000000" x2="232.550000" y2="84.000000"  style="stroke:black; stroke-linecap:round; stroke-width:0.25;"/>
<line x1="236.550000" y1="84.000000" x2="236.550000" y2="84.000000"  style="stroke:black; stroke-linecap:round; stroke-width:0.25;"/>
<line x1="236.550000" y1="96.000000" x2="236.550000" y2="84.000000"  style="stroke:black; stroke-linecap:round; stroke-width:0.25;"/>
<line x1="244.550000" y1="24.000000" x2="274.350000" y2="24.000000"  style="stroke:black; stroke-linecap:round; stroke-width:0.25;"/>
<line x1="244.550000" y1="76.000000" x2="236.550000" y2="76.000000"  style="stroke:black; stroke-linecap:round; stroke-width:0.25;"/>
<line x1="244.550000" y1="96.000000" x2="236.550000" y2="96.000000"  style="stroke:black; stroke-linecap:round; stroke-width:0.25;"/>
<line x1="248.550000" y1="76.000000" x2="244.550000" y2="76.000000"  style="stroke:black; stroke-linecap:round; stroke-width:0.25;"/>
<line x1="259.900000" y1="116.000000" x2="263.900000" y2="116.000000"  style="stroke:black; stroke-linecap:round; stroke-width:0.25;"/>
<line x1="263.900000" y1="116.000000" x2="263.900000" y2="116.000000"  style="stroke:black; stroke-linecap:round; stroke-width:0.25;"/>
<line x1="263.900000" y1="116.000000" x2="267.900000" y2="116.000000"  style="stroke:black; stroke-linecap:round; stroke-width:0.25;"/>
<line x1="274.350000" y1="24.000000" x2="304.150000" y2="24.000000"  style="stroke:black; stroke-linecap:round; stroke-width:0.25;"/>
<line x1="274.350000" y1="96.000000" x2="244.550000" y2="96.000000"  style="stroke:black; stroke-linecap:round; stroke-width:0.25;"/>
<line x1="287.250000" y1="148.000000" x2="291.250000" y2="148.000000"  style="stroke:black; stroke-linecap:round; stroke-width:0.25;"/>
<line x1="291.250000" y1="148.000000" x2="474.700000" y2="148.000000"  style="stroke:black; stroke-linecap:round; stroke-width:0.25;"/>
<line x1="300.150000" y1="44.000000" x2="304.150000" y2="44.000000"  style="stroke:black; stroke-linecap:round; stroke-width:0.25;"/>
<line x1="304.150000" y1="44.000000" x2="312.150000" y2="44.000000"  style="stroke:black; stroke-linecap:round; stroke-width:0.25;"/>
<line x1="304.150000" y1="24.000000" x2="312.150000" y2="24.000000"  style="stroke:black; stroke-linecap:round; stroke-width:0.25;"/>
<line x1="304.150000" y1="96.000000" x2="274.350000" y2="96.000000"  style="stroke:black; stroke-linecap:round; stroke-width:0.25;"/>
<line x1="312.150000" y1="36.000000" x2="316.150000" y2="36.000000"  style="stroke:black; stroke-linecap:round; stroke-width:0.25;"/>
<line x1="312.150000" y1="44.000000" x2="316.150000" y2="44.000000"  style="stroke:black; stroke-linecap:round; stroke-width:0.25;"/>
<line x1="312.150000" y1="24.000000" x2="312.150000" y2="36.000000"  style="stroke:black; stroke-linecap:round; stroke-width:0.25;"/>
<line x1="312.150000" y1="36.000000" x2="312.150000" y2="36.000000"  style="stroke:black; stroke-linecap:round; stroke-width:0.25;"/>
<line x1="340.150000" y1="40.000000" x2="344.150000" y2="40.000000"  style="stroke:black; stroke-linecap:round; stroke-width:0.25;"/>
<line x1="344.150000" y1="40.000000" x2="514.700000" y2="40.000000"  style="stroke:black; stroke-linecap:round; stroke-width:0.25;"/>
<line x1="422.700000" y1="116.000000" x2="426.700000" y2="116.000000"  style="stroke:black; stroke-linecap:round; stroke-width:0.25;"/>
<line x1="426.700000" y1="96.000000" x2="426.700000" y2="96.000000"  style="stroke:black; stroke-linecap:round; stroke-width:0.25;"/>
<line x1="426.700000" y1="112.000000" x2="426.700000" y2="96.000000"  style="stroke:black; stroke-linecap:round; stroke-width:0.25;"/>
<line x1="426.700000" y1="116.000000" x2="428.700000" y2="116.000000"  style="stroke:black; stroke-linecap:round; stroke-width:0.25;"/>
<line x1="426.700000" y1="96.000000" x2="304.150000" y2="96.000000"  style="stroke:black; stroke-linecap:round; stroke-width:0.25;"/>
<line x1="428.700000" y1="116.000000" x2="434.700000" y2="116.000000"  style="stroke:black; stroke-linecap:round; stroke-width:0.25;"/>
<line x1="434.700000" y1="96.000000" x2="442.700000" y2="96.000000"  style="stroke:black; stroke-linecap:round; stroke-width:0.25;"/>
<line x1="434.700000" y1="116.000000" x2="434.700000" y2="96.000000"  style="stroke:black; stroke-linecap:round; stroke-width:0.25;"/>
<line x1="434.700000" y1="116.000000" x2="434.700000" y2="116.000000"  style="stroke:black; stroke-linecap:round; stroke-width:0.25;"/>
<line x1="442.700000" y1="96.000000" x2="446.700000" y2="96.000000"  style="stroke:black; stroke-linecap:round; stroke-width:0.25;"/>
<line x1="470.700000" y1="96.000000" x2="474.700000" y2="96.000000"  style="stroke:black; stroke-linecap:round; stroke-width:0.25;"/>
<line x1="474.700000" y1="96.000000" x2="482.700000" y2="96.000000"  style="stroke:black; stroke-linecap:round; stroke-width:0.25;"/>
<line x1="474.700000" y1="116.000000" x2="482.700000" y2="116.000000"  style="stroke:black; stroke-linecap:round; stroke-width:0.25;"/>
<line x1="474.700000" y1="148.000000" x2="474.700000" y2="116.000000"  style="stroke:black; stroke-linecap:round; stroke-width:0.25;"/>
<line x1="474.700000" y1="148.000000" x2="474.700000" y2="148.000000"  style="stroke:black; stroke-linecap:round; stroke-width:0.25;"/>
<line x1="482.700000" y1="96.000000" x2="482.700000" y2="108.000000"  style="stroke:black; stroke-linecap:round; stroke-width:0.25;"/>
<line x1="482.700000" y1="108.000000" x2="482.700000" y2="108.000000"  style="stroke:black; stroke-linecap:round; stroke-width:0.25;"/>
<line x1="482.700000" y1="108.000000" x2="486.700000" y2="108.000000"  style="stroke:black; stroke-linecap:round; stroke-width:0.25;"/>
<line x1="482.700000" y1="116.000000" x2="486.700000" y2="116.000000"  style="stroke:black; stroke-linecap:round; stroke-width:0.25;"/>
<line x1="510.700000" y1="112.000000" x2="514.700000" y2="112.000000"  style="stroke:black; stroke-linecap:round; stroke-width:0.25;"/>
<line x1="514.700000" y1="40.000000" x2="522.700000" y2="40.000000"  style="stroke:black; stroke-linecap:round; stroke-width:0.25;"/>
<line x1="514.700000" y1="96.000000" x2="522.700000" y2="96.000000"  style="stroke:black; stroke-linecap:round; stroke-width:0.25;"/>
<line x1="514.700000" y1="112.000000" x2="514.700000" y2="96.000000"  style="stroke:black; stroke-linecap:round; stroke-width:0.25;"/>
<line x1="514.700000" y1="112.000000" x2="514.700000" y2="112.000000"  style="stroke:black; stroke-linecap:round; stroke-width:0.25;"/>
<line x1="522.700000" y1="40.000000" x2="522.700000" y2="88.000000"  style="stroke:black; stroke-linecap:round; stroke-width:0.25;"/>
<line x1="522.700000" y1="88.000000" x2="522.700000" y2="88.000000"  style="stroke:black; stroke-linecap:round; stroke-width:0.25;"/>
<line x1="522.700000" y1="88.000000" x2="526.700000" y2="88.000000"  style="stroke:black; stroke-linecap:round; stroke-width:0.25;"/>
<line x1="522.700000" y1="96.000000" x2="526.700000" y2="96.000000"  style="stroke:black; stroke-linecap:round; stroke-width:0.25;"/>
<line x1="550.700000" y1="92.000000" x2="554.700000" y2="92.000000"  style="stroke:black; stroke-linecap:round; stroke-width:0.25;"/>
<line x1="554.700000" y1="92.000000" x2="554.700000" y2="92.000000"  style="stroke:black; stroke-linecap:round; stroke-width:0.25;"/>
<line x1="554.700000" y1="92.000000" x2="558.700000" y2="92.000000"  style="stroke:black; stroke-linecap:round; stroke-width:0.25;"/>
<line x1="558.700000" y1="92.000000" x2="562.700000" y2="92.000000"  style="stroke:black; stroke-linecap:round; stroke-width:0.25;"/>
<line x1="562.700000" y1="92.000000" x2="572.700000" y2="92.000000"  style="stroke:black; stroke-linecap:round; stroke-width:0.25;"/>
</svg>
