<?xml version="1.0"?>
<svg xmlns="http://www.w3.org/2000/svg" xmlns:xlink="http://www.w3.org/1999/xlink" viewBox="0 0 453.700000 184.000000" width="226.850000mm" height="92.000000mm" version="1.1">
<!-- <rect x="0.000000" y="0.000000" width="452.700000" height="183.000000" rx="0" ry="0" style="stroke:#000000;fill:#FFFFFF;"/> -->
<text x="10.000000" y="7.000000" font-family="Verdana" font-size="7"></text>
<rect x="184.050000" y="32.000000" width="51.600000" height="24.000000" rx="0" ry="0" style="stroke:#000000;fill:#FFFFFF;"/>
<text x="209.850000" y="46.000000" font-family="Verdana" font-size="7" text-anchor="middle" fill="#000000">-0.70710677f</text>
<circle cx="186.050000" cy="34.000000" r="1"/>
<rect x="251.650000" y="28.000000" width="24.000000" height="24.000000" rx="0" ry="0" style="stroke:#000000;fill:#FFFFFF;"/>
<text x="263.650000" y="42.000000" font-family="Verdana" font-size="7" text-anchor="middle" fill="#000000">*</text>
<circle cx="253.650000" cy="30.000000" r="1"/>
<line x1="248.650000" y1="35.000000" x2="251.650000" y2="36.000000"  transform="rotate(0.000000,251.650000,36.000000)" style="stroke: black; stroke-width:0.25;"/>
<line x1="248.650000" y1="37.000000" x2="251.650000" y2="36.000000"  transform="rotate(0.000000,251.650000,36.000000)" style="stroke: black; stroke-width:0.25;"/>
<line x1="248.650000" y1="43.000000" x2="251.650000" y2="44.000000"  transform="rotate(0.000000,251.650000,44.000000)" style="stroke: black; stroke-width:0.25;"/>
<line x1="248.650000" y1="45.000000" x2="251.650000" y2="44.000000"  transform="rotate(0.000000,251.650000,44.000000)" style="stroke: black; stroke-width:0.25;"/>
<rect x="86.000000" y="104.000000" width="24.000000" height="24.000000" rx="0" ry="0" style="stroke:#000000;fill:#FFFFFF;"/>
<text x="98.000000" y="118.000000" font-family="Verdana" font-size="7" text-anchor="middle" fill="#000000">+</text>
<circle cx="88.000000" cy="106.000000" r="1"/>
<line x1="83.000000" y1="111.000000" x2="86.000000" y2="112.000000"  transform="rotate(0.000000,86.000000,112.000000)" style="stroke: black; stroke-width:0.25;"/>
<line x1="83.000000" y1="113.000000" x2="86.000000" y2="112.000000"  transform="rotate(0.000000,86.000000,112.000000)" style="stroke: black; stroke-width:0.25;"/>
<line x1="83.000000" y1="119.000000" x2="86.000000" y2="120.000000"  transform="rotate(0.000000,86.000000,120.000000)" style="stroke: black; stroke-width:0.25;"/>
<line x1="83.000000" y1="121.000000" x2="86.000000" y2="120.000000"  transform="rotate(0.000000,86.000000,120.000000)" style="stroke: black; stroke-width:0.25;"/>
<a xlink:href="delay-0x6000039760a0.svg">
<rect x="118.000000" y="104.000000" width="141.900000" height="24.000000" rx="0" ry="0" style="stroke:#000000;fill:#FFFFFF;"/>
</a>
<a xlink:href="delay-0x6000039760a0.svg">
<text x="188.950000" y="118.000000" font-family="Verdana" font-size="7" text-anchor="middle" fill="#000000">delay((1.92e+...: min),2 : /)(0)</text>
</a>
<circle cx="120.000000" cy="106.000000" r="1"/>
<line x1="115.000000" y1="115.000000" x2="118.000000" y2="116.000000"  transform="rotate(0.000000,118.000000,116.000000)" style="stroke: black; stroke-width:0.25;"/>
<line x1="115.000000" y1="117.000000" x2="118.000000" y2="116.000000"  transform="rotate(0.000000,118.000000,116.000000)" style="stroke: black; stroke-width:0.25;"/>
<a xlink:href="ied5-0x6000039741b0.svg">
<rect x="267.900000" y="104.000000" width="25.800000" height="24.000000" rx="0" ry="0" style="stroke:#000000;fill:#FFFFFF;"/>
</a>
<a xlink:href="ied5-0x6000039741b0.svg">
<text x="280.800000" y="118.000000" font-family="Verdana" font-size="7" text-anchor="middle" fill="#000000">ied5</text>
</a>
<circle cx="269.900000" cy="106.000000" r="1"/>
<line x1="264.900000" y1="115.000000" x2="267.900000" y2="116.000000"  transform="rotate(0.000000,267.900000,116.000000)" style="stroke: black; stroke-width:0.25;"/>
<line x1="264.900000" y1="117.000000" x2="267.900000" y2="116.000000"  transform="rotate(0.000000,267.900000,116.000000)" style="stroke: black; stroke-width:0.25;"/>
<rect x="184.050000" y="64.000000" width="51.600000" height="24.000000" rx="0" ry="0" style="stroke:#000000;fill:#FFFFFF;"/>
<text x="209.850000" y="78.000000" font-family="Verdana" font-size="7" text-anchor="middle" fill="#000000">0.70710677f</text>
<circle cx="233.650000" cy="86.000000" r="1"/>
<rect x="144.050000" y="68.000000" width="24.000000" height="24.000000" rx="0" ry="0" style="stroke:#000000;fill:#FFFFFF;"/>
<text x="156.050000" y="82.000000" font-family="Verdana" font-size="7" text-anchor="middle" fill="#000000">*</text>
<circle cx="166.050000" cy="90.000000" r="1"/>
<line x1="171.050000" y1="83.000000" x2="168.050000" y2="84.000000"  transform="rotate(0.000000,168.050000,84.000000)" style="stroke: black; stroke-width:0.25;"/>
<line x1="171.050000" y1="85.000000" x2="168.050000" y2="84.000000"  transform="rotate(0.000000,168.050000,84.000000)" style="stroke: black; stroke-width:0.25;"/>
<line x1="171.050000" y1="75.000000" x2="168.050000" y2="76.000000"  transform="rotate(0.000000,168.050000,76.000000)" style="stroke: black; stroke-width:0.25;"/>
<line x1="171.050000" y1="77.000000" x2="168.050000" y2="76.000000"  transform="rotate(0.000000,168.050000,76.000000)" style="stroke: black; stroke-width:0.25;"/>
<line x1="295.700000" y1="116.000000" x2="295.700000" y2="112.000000"  style="stroke:black; stroke-linecap:round; stroke-width:0.25;"/>
<line x1="295.700000" y1="112.000000" x2="299.700000" y2="112.000000"  style="stroke:black; stroke-linecap:round; stroke-width:0.25;"/>
<line x1="299.700000" y1="112.000000" x2="299.700000" y2="116.000000"  style="stroke:black; stroke-linecap:round; stroke-width:0.25;"/>
<rect x="317.700000" y="84.000000" width="24.000000" height="24.000000" rx="0" ry="0" style="stroke:#000000;fill:#FFFFFF;"/>
<text x="329.700000" y="98.000000" font-family="Verdana" font-size="7" text-anchor="middle" fill="#000000">mem</text>
<circle cx="319.700000" cy="86.000000" r="1"/>
<line x1="314.700000" y1="95.000000" x2="317.700000" y2="96.000000"  transform="rotate(0.000000,317.700000,96.000000)" style="stroke: black; stroke-width:0.25;"/>
<line x1="314.700000" y1="97.000000" x2="317.700000" y2="96.000000"  transform="rotate(0.000000,317.700000,96.000000)" style="stroke: black; stroke-width:0.25;"/>
<rect x="196.950000" y="136.000000" width="25.800000" height="24.000000" rx="0" ry="0" style="stroke:#000000;fill:#FFFFFF;"/>
<text x="209.850000" y="150.000000" font-family="Verdana" font-size="7" text-anchor="middle" fill="#000000">0.5f</text>
<circle cx="198.950000" cy="138.000000" r="1"/>
<rect x="357.700000" y="100.000000" width="24.000000" height="24.000000" rx="0" ry="0" style="stroke:#000000;fill:#FFFFFF;"/>
<text x="369.700000" y="114.000000" font-family="Verdana" font-size="7" text-anchor="middle" fill="#000000">*</text>
<circle cx="359.700000" cy="102.000000" r="1"/>
<line x1="354.700000" y1="107.000000" x2="357.700000" y2="108.000000"  transform="rotate(0.000000,357.700000,108.000000)" style="stroke: black; stroke-width:0.25;"/>
<line x1="354.700000" y1="109.000000" x2="357.700000" y2="108.000000"  transform="rotate(0.000000,357.700000,108.000000)" style="stroke: black; stroke-width:0.25;"/>
<line x1="354.700000" y1="115.000000" x2="357.700000" y2="116.000000"  transform="rotate(0.000000,357.700000,116.000000)" style="stroke: black; stroke-width:0.25;"/>
<line x1="354.700000" y1="117.000000" x2="357.700000" y2="116.000000"  transform="rotate(0.000000,357.700000,116.000000)" style="stroke: black; stroke-width:0.25;"/>
<rect x="397.700000" y="80.000000" width="24.000000" height="24.000000" rx="0" ry="0" style="stroke:#000000;fill:#FFFFFF;"/>
<text x="409.700000" y="94.000000" font-family="Verdana" font-size="7" text-anchor="middle" fill="#000000">+</text>
<circle cx="399.700000" cy="82.000000" r="1"/>
<line x1="394.700000" y1="87.000000" x2="397.700000" y2="88.000000"  transform="rotate(0.000000,397.700000,88.000000)" style="stroke: black; stroke-width:0.25;"/>
<line x1="394.700000" y1="89.000000" x2="397.700000" y2="88.000000"  transform="rotate(0.000000,397.700000,88.000000)" style="stroke: black; stroke-width:0.25;"/>
<line x1="394.700000" y1="95.000000" x2="397.700000" y2="96.000000"  transform="rotate(0.000000,397.700000,96.000000)" style="stroke: black; stroke-width:0.25;"/>
<line x1="394.700000" y1="97.000000" x2="397.700000" y2="96.000000"  transform="rotate(0.000000,397.700000,96.000000)" style="stroke: black; stroke-width:0.25;"/>
<line x1="15.000000" y1="15.000000" x2="15.000000" y2="169.000000"  style="stroke: black; stroke-linecap:round; stroke-width:0.25; stroke-dasharray:3,3;"/>
<line x1="15.000000" y1="169.000000" x2="438.700000" y2="169.000000"  style="stroke: black; stroke-linecap:round; stroke-width:0.25; stroke-dasharray:3,3;"/>
<line x1="438.700000" y1="169.000000" x2="438.700000" y2="15.000000"  style="stroke: black; stroke-linecap:round; stroke-width:0.25; stroke-dasharray:3,3;"/>
<line x1="15.000000" y1="15.000000" x2="20.000000" y2="15.000000"  style="stroke: black; stroke-linecap:round; stroke-width:0.25; stroke-dasharray:3,3;"/>
<line x1="49.025000" y1="15.000000" x2="438.700000" y2="15.000000"  style="stroke: black; stroke-linecap:round; stroke-width:0.25; stroke-dasharray:3,3;"/>
<text x="20.000000" y="17.000000" font-family="Verdana" font-size="7">process</text>
<line x1="440.700000" y1="91.000000" x2="443.700000" y2="92.000000"  transform="rotate(0.000000,443.700000,92.000000)" style="stroke: black; stroke-width:0.25;"/>
<line x1="440.700000" y1="93.000000" x2="443.700000" y2="92.000000"  transform="rotate(0.000000,443.700000,92.000000)" style="stroke: black; stroke-width:0.25;"/>
<line x1="10.000000" y1="92.000000" x2="20.000000" y2="92.000000"  style="stroke:black; stroke-linecap:round; stroke-width:0.25;"/>
<line x1="20.000000" y1="92.000000" x2="24.000000" y2="92.000000"  style="stroke:black; stroke-linecap:round; stroke-width:0.25;"/>
<line x1="24.000000" y1="92.000000" x2="28.000000" y2="92.000000"  style="stroke:black; stroke-linecap:round; stroke-width:0.25;"/>
<line x1="28.000000" y1="92.000000" x2="28.000000" y2="92.000000"  style="stroke:black; stroke-linecap:round; stroke-width:0.25;"/>
<line x1="28.000000" y1="92.000000" x2="32.000000" y2="92.000000"  style="stroke:black; stroke-linecap:round; stroke-width:0.25;"/>
<line x1="32.000000" y1="92.000000" x2="36.000000" y2="92.000000"  style="stroke:black; stroke-linecap:round; stroke-width:0.25;"/>
<line x1="36.000000" y1="92.000000" x2="74.000000" y2="120.000000"  style="stroke:black; stroke-linecap:round; stroke-width:0.25;"/>
<line x1="36.000000" y1="92.000000" x2="74.000000" y2="24.000000"  style="stroke:black; stroke-linecap:round; stroke-width:0.25;"/>
<line x1="74.000000" y1="120.000000" x2="82.000000" y2="120.000000"  style="stroke:black; stroke-linecap:round; stroke-width:0.25;"/>
<line x1="74.000000" y1="24.000000" x2="180.050000" y2="24.000000"  style="stroke:black; stroke-linecap:round; stroke-width:0.25;"/>
<line x1="82.000000" y1="112.000000" x2="86.000000" y2="112.000000"  style="stroke:black; stroke-linecap:round; stroke-width:0.25;"/>
<line x1="82.000000" y1="120.000000" x2="86.000000" y2="120.000000"  style="stroke:black; stroke-linecap:round; stroke-width:0.25;"/>
<line x1="82.000000" y1="80.000000" x2="82.000000" y2="80.000000"  style="stroke:black; stroke-linecap:round; stroke-width:0.25;"/>
<line x1="82.000000" y1="80.000000" x2="82.000000" y2="112.000000"  style="stroke:black; stroke-linecap:round; stroke-width:0.25;"/>
<line x1="82.000000" y1="112.000000" x2="82.000000" y2="112.000000"  style="stroke:black; stroke-linecap:round; stroke-width:0.25;"/>
<line x1="110.000000" y1="116.000000" x2="114.000000" y2="116.000000"  style="stroke:black; stroke-linecap:round; stroke-width:0.25;"/>
<line x1="114.000000" y1="116.000000" x2="114.000000" y2="116.000000"  style="stroke:black; stroke-linecap:round; stroke-width:0.25;"/>
<line x1="114.000000" y1="116.000000" x2="118.000000" y2="116.000000"  style="stroke:black; stroke-linecap:round; stroke-width:0.25;"/>
<line x1="140.050000" y1="80.000000" x2="82.000000" y2="80.000000"  style="stroke:black; stroke-linecap:round; stroke-width:0.25;"/>
<line x1="144.050000" y1="80.000000" x2="140.050000" y2="80.000000"  style="stroke:black; stroke-linecap:round; stroke-width:0.25;"/>
<line x1="172.050000" y1="76.000000" x2="168.050000" y2="76.000000"  style="stroke:black; stroke-linecap:round; stroke-width:0.25;"/>
<line x1="172.050000" y1="84.000000" x2="168.050000" y2="84.000000"  style="stroke:black; stroke-linecap:round; stroke-width:0.25;"/>
<line x1="172.050000" y1="84.000000" x2="172.050000" y2="84.000000"  style="stroke:black; stroke-linecap:round; stroke-width:0.25;"/>
<line x1="172.050000" y1="96.000000" x2="172.050000" y2="84.000000"  style="stroke:black; stroke-linecap:round; stroke-width:0.25;"/>
<line x1="180.050000" y1="24.000000" x2="209.850000" y2="24.000000"  style="stroke:black; stroke-linecap:round; stroke-width:0.25;"/>
<line x1="180.050000" y1="76.000000" x2="172.050000" y2="76.000000"  style="stroke:black; stroke-linecap:round; stroke-width:0.25;"/>
<line x1="180.050000" y1="96.000000" x2="172.050000" y2="96.000000"  style="stroke:black; stroke-linecap:round; stroke-width:0.25;"/>
<line x1="184.050000" y1="76.000000" x2="180.050000" y2="76.000000"  style="stroke:black; stroke-linecap:round; stroke-width:0.25;"/>
<line x1="209.850000" y1="24.000000" x2="239.650000" y2="24.000000"  style="stroke:black; stroke-linecap:round; stroke-width:0.25;"/>
<line x1="209.850000" y1="96.000000" x2="180.050000" y2="96.000000"  style="stroke:black; stroke-linecap:round; stroke-width:0.25;"/>
<line x1="222.750000" y1="148.000000" x2="226.750000" y2="148.000000"  style="stroke:black; stroke-linecap:round; stroke-width:0.25;"/>
<line x1="226.750000" y1="148.000000" x2="345.700000" y2="148.000000"  style="stroke:black; stroke-linecap:round; stroke-width:0.25;"/>
<line x1="235.650000" y1="44.000000" x2="239.650000" y2="44.000000"  style="stroke:black; stroke-linecap:round; stroke-width:0.25;"/>
<line x1="239.650000" y1="44.000000" x2="247.650000" y2="44.000000"  style="stroke:black; stroke-linecap:round; stroke-width:0.25;"/>
<line x1="239.650000" y1="24.000000" x2="247.650000" y2="24.000000"  style="stroke:black; stroke-linecap:round; stroke-width:0.25;"/>
<line x1="239.650000" y1="96.000000" x2="209.850000" y2="96.000000"  style="stroke:black; stroke-linecap:round; stroke-width:0.25;"/>
<line x1="247.650000" y1="36.000000" x2="251.650000" y2="36.000000"  style="stroke:black; stroke-linecap:round; stroke-width:0.25;"/>
<line x1="247.650000" y1="44.000000" x2="251.650000" y2="44.000000"  style="stroke:black; stroke-linecap:round; stroke-width:0.25;"/>
<line x1="247.650000" y1="24.000000" x2="247.650000" y2="36.000000"  style="stroke:black; stroke-linecap:round; stroke-width:0.25;"/>
<line x1="247.650000" y1="36.000000" x2="247.650000" y2="36.000000"  style="stroke:black; stroke-linecap:round; stroke-width:0.25;"/>
<line x1="259.900000" y1="116.000000" x2="263.900000" y2="116.000000"  style="stroke:black; stroke-linecap:round; stroke-width:0.25;"/>
<line x1="263.900000" y1="116.000000" x2="263.900000" y2="116.000000"  style="stroke:black; stroke-linecap:round; stroke-width:0.25;"/>
<line x1="263.900000" y1="116.000000" x2="267.900000" y2="116.000000"  style="stroke:black; stroke-linecap:round; stroke-width:0.25;"/>
<line x1="275.650000" y1="40.000000" x2="279.650000" y2="40.000000"  style="stroke:black; stroke-linecap:round; stroke-width:0.25;"/>
<line x1="279.650000" y1="40.000000" x2="385.700000" y2="40.000000"  style="stroke:black; stroke-linecap:round; stroke-width:0.25;"/>
<line x1="293.700000" y1="116.000000" x2="297.700000" y2="116.000000"  style="stroke:black; stroke-linecap:round; stroke-width:0.25;"/>
<line x1="297.700000" y1="96.000000" x2="297.700000" y2="96.000000"  style="stroke:black; stroke-linecap:round; stroke-width:0.25;"/>
<line x1="297.700000" y1="112.000000" x2="297.700000" y2="96.000000"  style="stroke:black; stroke-linecap:round; stroke-width:0.25;"/>
<line x1="297.700000" y1="116.000000" x2="299.700000" y2="116.000000"  style="stroke:black; stroke-linecap:round; stroke-width:0.25;"/>
<line x1="297.700000" y1="96.000000" x2="239.650000" y2="96.000000"  style="stroke:black; stroke-linecap:round; stroke-width:0.25;"/>
<line x1="299.700000" y1="116.000000" x2="305.700000" y2="116.000000"  style="stroke:black; stroke-linecap:round; stroke-width:0.25;"/>
<line x1="305.700000" y1="96.000000" x2="313.700000" y2="96.000000"  style="stroke:black; stroke-linecap:round; stroke-width:0.25;"/>
<line x1="305.700000" y1="116.000000" x2="305.700000" y2="96.000000"  style="stroke:black; stroke-linecap:round; stroke-width:0.25;"/>
<line x1="305.700000" y1="116.000000" x2="305.700000" y2="116.000000"  style="stroke:black; stroke-linecap:round; stroke-width:0.25;"/>
<line x1="313.700000" y1="96.000000" x2="317.700000" y2="96.000000"  style="stroke:black; stroke-linecap:round; stroke-width:0.25;"/>
<line x1="341.700000" y1="96.000000" x2="345.700000" y2="96.000000"  style="stroke:black; stroke-linecap:round; stroke-width:0.25;"/>
<line x1="345.700000" y1="96.000000" x2="353.700000" y2="96.000000"  style="stroke:black; stroke-linecap:round; stroke-width:0.25;"/>
<line x1="345.700000" y1="116.000000" x2="353.700000" y2="116.000000"  style="stroke:black; stroke-linecap:round; stroke-width:0.25;"/>
<line x1="345.700000" y1="148.000000" x2="345.700000" y2="116.000000"  style="stroke:black; stroke-linecap:round; stroke-width:0.25;"/>
<line x1="345.700000" y1="148.000000" x2="345.700000" y2="148.000000"  style="stroke:black; stroke-linecap:round; stroke-width:0.25;"/>
<line x1="353.700000" y1="96.000000" x2="353.700000" y2="108.000000"  style="stroke:black; stroke-linecap:round; stroke-width:0.25;"/>
<line x1="353.700000" y1="108.000000" x2="353.700000" y2="108.000000"  style="stroke:black; stroke-linecap:round; stroke-width:0.25;"/>
<line x1="353.700000" y1="108.000000" x2="357.700000" y2="108.000000"  style="stroke:black; stroke-linecap:round; stroke-width:0.25;"/>
<line x1="353.700000" y1="116.000000" x2="357.700000" y2="116.000000"  style="stroke:black; stroke-linecap:round; stroke-width:0.25;"/>
<line x1="381.700000" y1="112.000000" x2="385.700000" y2="112.000000"  style="stroke:black; stroke-linecap:round; stroke-width:0.25;"/>
<line x1="385.700000" y1="40.000000" x2="393.700000" y2="40.000000"  style="stroke:black; stroke-linecap:round; stroke-width:0.25;"/>
<line x1="385.700000" y1="96.000000" x2="393.700000" y2="96.000000"  style="stroke:black; stroke-linecap:round; stroke-width:0.25;"/>
<line x1="385.700000" y1="112.000000" x2="385.700000" y2="96.000000"  style="stroke:black; stroke-linecap:round; stroke-width:0.25;"/>
<line x1="385.700000" y1="112.000000" x2="385.700000" y2="112.000000"  style="stroke:black; stroke-linecap:round; stroke-width:0.25;"/>
<line x1="393.700000" y1="40.000000" x2="393.700000" y2="88.000000"  style="stroke:black; stroke-linecap:round; stroke-width:0.25;"/>
<line x1="393.700000" y1="88.000000" x2="393.700000" y2="88.000000"  style="stroke:black; stroke-linecap:round; stroke-width:0.25;"/>
<line x1="393.700000" y1="88.000000" x2="397.700000" y2="88.000000"  style="stroke:black; stroke-linecap:round; stroke-width:0.25;"/>
<line x1="393.700000" y1="96.000000" x2="397.700000" y2="96.000000"  style="stroke:black; stroke-linecap:round; stroke-width:0.25;"/>
<line x1="421.700000" y1="92.000000" x2="425.700000" y2="92.000000"  style="stroke:black; stroke-linecap:round; stroke-width:0.25;"/>
<line x1="425.700000" y1="92.000000" x2="425.700000" y2="92.000000"  style="stroke:black; stroke-linecap:round; stroke-width:0.25;"/>
<line x1="425.700000" y1="92.000000" x2="429.700000" y2="92.000000"  style="stroke:black; stroke-linecap:round; stroke-width:0.25;"/>
<line x1="429.700000" y1="92.000000" x2="433.700000" y2="92.000000"  style="stroke:black; stroke-linecap:round; stroke-width:0.25;"/>
<line x1="433.700000" y1="92.000000" x2="443.700000" y2="92.000000"  style="stroke:black; stroke-linecap:round; stroke-width:0.25;"/>
</svg>
