<?xml version="1.0"?>
<svg xmlns="http://www.w3.org/2000/svg" xmlns:xlink="http://www.w3.org/1999/xlink" viewBox="0 0 200.500000 136.000000" width="100.250000mm" height="68.000000mm" version="1.1">
<a xlink:href="delay-0x6000039760a0.svg">
<rect x="0.000000" y="0.000000" width="199.500000" height="135.000000" rx="0" ry="0" style="stroke:#000000;fill:#FFFFFF;"/>
</a>
<text x="10.000000" y="7.000000" font-family="Verdana" font-size="7"></text>
<rect x="56.900000" y="24.000000" width="38.700000" height="24.000000" rx="0" ry="0" style="stroke:#000000;fill:#FFFFFF;"/>
<text x="76.250000" y="38.000000" font-family="Verdana" font-size="7" text-anchor="middle" fill="#000000">1.92e+05f</text>
<circle cx="58.900000" cy="26.000000" r="1"/>
<rect x="43.350000" y="56.000000" width="25.800000" height="24.000000" rx="0" ry="0" style="stroke:#000000;fill:#FFFFFF;"/>
<text x="56.250000" y="70.000000" font-family="Verdana" font-size="7" text-anchor="middle" fill="#000000">1.0f</text>
<circle cx="45.350000" cy="58.000000" r="1"/>
<rect x="24.000000" y="88.000000" width="64.500000" height="24.000000" rx="0" ry="0" style="stroke:#000000;fill:#FFFFFF;"/>
<text x="56.250000" y="102.000000" font-family="Verdana" font-size="7" text-anchor="middle" fill="#000000">fSamplingFreq</text>
<circle cx="26.000000" cy="90.000000" r="1"/>
<rect x="104.500000" y="72.000000" width="24.000000" height="24.000000" rx="0" ry="0" style="stroke:#000000;fill:#FFFFFF;"/>
<text x="116.500000" y="86.000000" font-family="Verdana" font-size="7" text-anchor="middle" fill="#000000">max</text>
<circle cx="106.500000" cy="74.000000" r="1"/>
<line x1="101.500000" y1="79.000000" x2="104.500000" y2="80.000000"  transform="rotate(0.000000,104.500000,80.000000)" style="stroke: black; stroke-width:0.25;"/>
<line x1="101.500000" y1="81.000000" x2="104.500000" y2="80.000000"  transform="rotate(0.000000,104.500000,80.000000)" style="stroke: black; stroke-width:0.25;"/>
<line x1="101.500000" y1="87.000000" x2="104.500000" y2="88.000000"  transform="rotate(0.000000,104.500000,88.000000)" style="stroke: black; stroke-width:0.25;"/>
<line x1="101.500000" y1="89.000000" x2="104.500000" y2="88.000000"  transform="rotate(0.000000,104.500000,88.000000)" style="stroke: black; stroke-width:0.25;"/>
<rect x="144.500000" y="56.000000" width="24.000000" height="24.000000" rx="0" ry="0" style="stroke:#000000;fill:#FFFFFF;"/>
<text x="156.500000" y="70.000000" font-family="Verdana" font-size="7" text-anchor="middle" fill="#000000">min</text>
<circle cx="146.500000" cy="58.000000" r="1"/>
<line x1="141.500000" y1="63.000000" x2="144.500000" y2="64.000000"  transform="rotate(0.000000,144.500000,64.000000)" style="stroke: black; stroke-width:0.25;"/>
<line x1="141.500000" y1="65.000000" x2="144.500000" y2="64.000000"  transform="rotate(0.000000,144.500000,64.000000)" style="stroke: black; stroke-width:0.25;"/>
<line x1="141.500000" y1="71.000000" x2="144.500000" y2="72.000000"  transform="rotate(0.000000,144.500000,72.000000)" style="stroke: black; stroke-width:0.25;"/>
<line x1="141.500000" y1="73.000000" x2="144.500000" y2="72.000000"  transform="rotate(0.000000,144.500000,72.000000)" style="stroke: black; stroke-width:0.25;"/>
<line x1="15.000000" y1="15.000000" x2="15.000000" y2="121.000000"  style="stroke: black; stroke-linecap:round; stroke-width:0.25; stroke-dasharray:3,3;"/>
<line x1="15.000000" y1="121.000000" x2="185.500000" y2="121.000000"  style="stroke: black; stroke-linecap:round; stroke-width:0.25; stroke-dasharray:3,3;"/>
<line x1="185.500000" y1="121.000000" x2="185.500000" y2="15.000000"  style="stroke: black; stroke-linecap:round; stroke-width:0.25; stroke-dasharray:3,3;"/>
<line x1="15.000000" y1="15.000000" x2="20.000000" y2="15.000000"  style="stroke: black; stroke-linecap:round; stroke-width:0.25; stroke-dasharray:3,3;"/>
<line x1="32.900000" y1="15.000000" x2="185.500000" y2="15.000000"  style="stroke: black; stroke-linecap:round; stroke-width:0.25; stroke-dasharray:3,3;"/>
<text x="20.000000" y="17.000000" font-family="Verdana" font-size="7">SR</text>
<line x1="187.500000" y1="67.000000" x2="190.500000" y2="68.000000"  transform="rotate(0.000000,190.500000,68.000000)" style="stroke: black; stroke-width:0.25;"/>
<line x1="187.500000" y1="69.000000" x2="190.500000" y2="68.000000"  transform="rotate(0.000000,190.500000,68.000000)" style="stroke: black; stroke-width:0.25;"/>
<line x1="69.150000" y1="68.000000" x2="73.150000" y2="68.000000"  style="stroke:black; stroke-linecap:round; stroke-width:0.25;"/>
<line x1="73.150000" y1="68.000000" x2="92.500000" y2="68.000000"  style="stroke:black; stroke-linecap:round; stroke-width:0.25;"/>
<line x1="88.500000" y1="100.000000" x2="92.500000" y2="100.000000"  style="stroke:black; stroke-linecap:round; stroke-width:0.25;"/>
<line x1="92.500000" y1="68.000000" x2="100.500000" y2="68.000000"  style="stroke:black; stroke-linecap:round; stroke-width:0.25;"/>
<line x1="92.500000" y1="88.000000" x2="100.500000" y2="88.000000"  style="stroke:black; stroke-linecap:round; stroke-width:0.25;"/>
<line x1="92.500000" y1="100.000000" x2="92.500000" y2="88.000000"  style="stroke:black; stroke-linecap:round; stroke-width:0.25;"/>
<line x1="92.500000" y1="100.000000" x2="92.500000" y2="100.000000"  style="stroke:black; stroke-linecap:round; stroke-width:0.25;"/>
<line x1="95.600000" y1="36.000000" x2="99.600000" y2="36.000000"  style="stroke:black; stroke-linecap:round; stroke-width:0.25;"/>
<line x1="99.600000" y1="36.000000" x2="132.500000" y2="36.000000"  style="stroke:black; stroke-linecap:round; stroke-width:0.25;"/>
<line x1="100.500000" y1="68.000000" x2="100.500000" y2="80.000000"  style="stroke:black; stroke-linecap:round; stroke-width:0.25;"/>
<line x1="100.500000" y1="80.000000" x2="100.500000" y2="80.000000"  style="stroke:black; stroke-linecap:round; stroke-width:0.25;"/>
<line x1="100.500000" y1="80.000000" x2="104.500000" y2="80.000000"  style="stroke:black; stroke-linecap:round; stroke-width:0.25;"/>
<line x1="100.500000" y1="88.000000" x2="104.500000" y2="88.000000"  style="stroke:black; stroke-linecap:round; stroke-width:0.25;"/>
<line x1="128.500000" y1="84.000000" x2="132.500000" y2="84.000000"  style="stroke:black; stroke-linecap:round; stroke-width:0.25;"/>
<line x1="132.500000" y1="36.000000" x2="140.500000" y2="36.000000"  style="stroke:black; stroke-linecap:round; stroke-width:0.25;"/>
<line x1="132.500000" y1="72.000000" x2="140.500000" y2="72.000000"  style="stroke:black; stroke-linecap:round; stroke-width:0.25;"/>
<line x1="132.500000" y1="84.000000" x2="132.500000" y2="72.000000"  style="stroke:black; stroke-linecap:round; stroke-width:0.25;"/>
<line x1="132.500000" y1="84.000000" x2="132.500000" y2="84.000000"  style="stroke:black; stroke-linecap:round; stroke-width:0.25;"/>
<line x1="140.500000" y1="36.000000" x2="140.500000" y2="64.000000"  style="stroke:black; stroke-linecap:round; stroke-width:0.25;"/>
<line x1="140.500000" y1="64.000000" x2="140.500000" y2="64.000000"  style="stroke:black; stroke-linecap:round; stroke-width:0.25;"/>
<line x1="140.500000" y1="64.000000" x2="144.500000" y2="64.000000"  style="stroke:black; stroke-linecap:round; stroke-width:0.25;"/>
<line x1="140.500000" y1="72.000000" x2="144.500000" y2="72.000000"  style="stroke:black; stroke-linecap:round; stroke-width:0.25;"/>
<line x1="168.500000" y1="68.000000" x2="172.500000" y2="68.000000"  style="stroke:black; stroke-linecap:round; stroke-width:0.25;"/>
<line x1="172.500000" y1="68.000000" x2="172.500000" y2="68.000000"  style="stroke:black; stroke-linecap:round; stroke-width:0.25;"/>
<line x1="172.500000" y1="68.000000" x2="176.500000" y2="68.000000"  style="stroke:black; stroke-linecap:round; stroke-width:0.25;"/>
<line x1="176.500000" y1="68.000000" x2="180.500000" y2="68.000000"  style="stroke:black; stroke-linecap:round; stroke-width:0.25;"/>
<line x1="180.500000" y1="68.000000" x2="190.500000" y2="68.000000"  style="stroke:black; stroke-linecap:round; stroke-width:0.25;"/>
</svg>
