<?xml version="1.0"?>
<svg xmlns="http://www.w3.org/2000/svg" xmlns:xlink="http://www.w3.org/1999/xlink" viewBox="0 0 377.000000 212.000000" width="188.500000mm" height="106.000000mm" version="1.1">
<!-- <rect x="0.000000" y="0.000000" width="376.000000" height="211.000000" rx="0" ry="0" style="stroke:#000000;fill:#FFFFFF;"/> -->
<text x="10.000000" y="7.000000" font-family="Verdana" font-size="7"></text>
<rect x="149.200000" y="32.000000" width="51.600000" height="24.000000" rx="0" ry="0" style="stroke:#000000;fill:#FFFFFF;"/>
<text x="175.000000" y="46.000000" font-family="Verdana" font-size="7" text-anchor="middle" fill="#000000">-0.70710677f</text>
<circle cx="151.200000" cy="34.000000" r="1"/>
<rect x="216.800000" y="28.000000" width="24.000000" height="24.000000" rx="0" ry="0" style="stroke:#000000;fill:#FFFFFF;"/>
<text x="228.800000" y="42.000000" font-family="Verdana" font-size="7" text-anchor="middle" fill="#000000">*</text>
<circle cx="218.800000" cy="30.000000" r="1"/>
<line x1="213.800000" y1="35.000000" x2="216.800000" y2="36.000000"  transform="rotate(0.000000,216.800000,36.000000)" style="stroke: black; stroke-width:0.25;"/>
<line x1="213.800000" y1="37.000000" x2="216.800000" y2="36.000000"  transform="rotate(0.000000,216.800000,36.000000)" style="stroke: black; stroke-width:0.25;"/>
<line x1="213.800000" y1="43.000000" x2="216.800000" y2="44.000000"  transform="rotate(0.000000,216.800000,44.000000)" style="stroke: black; stroke-width:0.25;"/>
<line x1="213.800000" y1="45.000000" x2="216.800000" y2="44.000000"  transform="rotate(0.000000,216.800000,44.000000)" style="stroke: black; stroke-width:0.25;"/>
<rect x="103.000000" y="118.000000" width="24.000000" height="24.000000" rx="0" ry="0" style="stroke:#000000;fill:#FFFFFF;"/>
<text x="115.000000" y="132.000000" font-family="Verdana" font-size="7" text-anchor="middle" fill="#000000">+</text>
<circle cx="105.000000" cy="120.000000" r="1"/>
<line x1="100.000000" y1="125.000000" x2="103.000000" y2="126.000000"  transform="rotate(0.000000,103.000000,126.000000)" style="stroke: black; stroke-width:0.25;"/>
<line x1="100.000000" y1="127.000000" x2="103.000000" y2="126.000000"  transform="rotate(0.000000,103.000000,126.000000)" style="stroke: black; stroke-width:0.25;"/>
<line x1="100.000000" y1="133.000000" x2="103.000000" y2="134.000000"  transform="rotate(0.000000,103.000000,134.000000)" style="stroke: black; stroke-width:0.25;"/>
<line x1="100.000000" y1="135.000000" x2="103.000000" y2="134.000000"  transform="rotate(0.000000,103.000000,134.000000)" style="stroke: black; stroke-width:0.25;"/>
<rect x="143.000000" y="122.000000" width="24.000000" height="24.000000" rx="0" ry="0" style="stroke:#000000;fill:#FFFFFF;"/>
<text x="155.000000" y="136.000000" font-family="Verdana" font-size="7" text-anchor="middle" fill="#000000">0</text>
<circle cx="145.000000" cy="124.000000" r="1"/>
<rect x="183.000000" y="118.000000" width="24.000000" height="24.000000" rx="0" ry="0" style="stroke:#000000;fill:#FFFFFF;"/>
<text x="195.000000" y="132.000000" font-family="Verdana" font-size="7" text-anchor="middle" fill="#000000">@</text>
<circle cx="185.000000" cy="120.000000" r="1"/>
<line x1="180.000000" y1="125.000000" x2="183.000000" y2="126.000000"  transform="rotate(0.000000,183.000000,126.000000)" style="stroke: black; stroke-width:0.25;"/>
<line x1="180.000000" y1="127.000000" x2="183.000000" y2="126.000000"  transform="rotate(0.000000,183.000000,126.000000)" style="stroke: black; stroke-width:0.25;"/>
<line x1="180.000000" y1="133.000000" x2="183.000000" y2="134.000000"  transform="rotate(0.000000,183.000000,134.000000)" style="stroke: black; stroke-width:0.25;"/>
<line x1="180.000000" y1="135.000000" x2="183.000000" y2="134.000000"  transform="rotate(0.000000,183.000000,134.000000)" style="stroke: black; stroke-width:0.25;"/>
<rect x="149.200000" y="74.000000" width="51.600000" height="24.000000" rx="0" ry="0" style="stroke:#000000;fill:#FFFFFF;"/>
<text x="175.000000" y="88.000000" font-family="Verdana" font-size="7" text-anchor="middle" fill="#000000">0.70710677f</text>
<circle cx="198.800000" cy="96.000000" r="1"/>
<rect x="109.200000" y="78.000000" width="24.000000" height="24.000000" rx="0" ry="0" style="stroke:#000000;fill:#FFFFFF;"/>
<text x="121.200000" y="92.000000" font-family="Verdana" font-size="7" text-anchor="middle" fill="#000000">*</text>
<circle cx="131.200000" cy="100.000000" r="1"/>
<line x1="136.200000" y1="93.000000" x2="133.200000" y2="94.000000"  transform="rotate(0.000000,133.200000,94.000000)" style="stroke: black; stroke-width:0.25;"/>
<line x1="136.200000" y1="95.000000" x2="133.200000" y2="94.000000"  transform="rotate(0.000000,133.200000,94.000000)" style="stroke: black; stroke-width:0.25;"/>
<line x1="136.200000" y1="85.000000" x2="133.200000" y2="86.000000"  transform="rotate(0.000000,133.200000,86.000000)" style="stroke: black; stroke-width:0.25;"/>
<line x1="136.200000" y1="87.000000" x2="133.200000" y2="86.000000"  transform="rotate(0.000000,133.200000,86.000000)" style="stroke: black; stroke-width:0.25;"/>
<line x1="209.000000" y1="130.000000" x2="209.000000" y2="126.000000"  style="stroke:black; stroke-linecap:round; stroke-width:0.25;"/>
<line x1="209.000000" y1="126.000000" x2="213.000000" y2="126.000000"  style="stroke:black; stroke-linecap:round; stroke-width:0.25;"/>
<line x1="213.000000" y1="126.000000" x2="213.000000" y2="130.000000"  style="stroke:black; stroke-linecap:round; stroke-width:0.25;"/>
<rect x="231.000000" y="98.000000" width="24.000000" height="24.000000" rx="0" ry="0" style="stroke:#000000;fill:#FFFFFF;"/>
<text x="243.000000" y="112.000000" font-family="Verdana" font-size="7" text-anchor="middle" fill="#000000">mem</text>
<circle cx="233.000000" cy="100.000000" r="1"/>
<line x1="228.000000" y1="109.000000" x2="231.000000" y2="110.000000"  transform="rotate(0.000000,231.000000,110.000000)" style="stroke: black; stroke-width:0.25;"/>
<line x1="228.000000" y1="111.000000" x2="231.000000" y2="110.000000"  transform="rotate(0.000000,231.000000,110.000000)" style="stroke: black; stroke-width:0.25;"/>
<line x1="86.000000" y1="65.000000" x2="86.000000" y2="155.000000"  style="stroke: black; stroke-linecap:round; stroke-width:0.25; stroke-dasharray:3,3;"/>
<line x1="86.000000" y1="155.000000" x2="264.000000" y2="155.000000"  style="stroke: black; stroke-linecap:round; stroke-width:0.25; stroke-dasharray:3,3;"/>
<line x1="264.000000" y1="155.000000" x2="264.000000" y2="65.000000"  style="stroke: black; stroke-linecap:round; stroke-width:0.25; stroke-dasharray:3,3;"/>
<line x1="86.000000" y1="65.000000" x2="91.000000" y2="65.000000"  style="stroke: black; stroke-linecap:round; stroke-width:0.25; stroke-dasharray:3,3;"/>
<line x1="161.950000" y1="65.000000" x2="264.000000" y2="65.000000"  style="stroke: black; stroke-linecap:round; stroke-width:0.25; stroke-dasharray:3,3;"/>
<text x="91.000000" y="67.000000" font-family="Verdana" font-size="7">dflc(1)(0.70710677f)</text>
<rect x="162.100000" y="164.000000" width="25.800000" height="24.000000" rx="0" ry="0" style="stroke:#000000;fill:#FFFFFF;"/>
<text x="175.000000" y="178.000000" font-family="Verdana" font-size="7" text-anchor="middle" fill="#000000">0.5f</text>
<circle cx="164.100000" cy="166.000000" r="1"/>
<rect x="281.000000" y="114.000000" width="24.000000" height="24.000000" rx="0" ry="0" style="stroke:#000000;fill:#FFFFFF;"/>
<text x="293.000000" y="128.000000" font-family="Verdana" font-size="7" text-anchor="middle" fill="#000000">*</text>
<circle cx="283.000000" cy="116.000000" r="1"/>
<line x1="278.000000" y1="121.000000" x2="281.000000" y2="122.000000"  transform="rotate(0.000000,281.000000,122.000000)" style="stroke: black; stroke-width:0.25;"/>
<line x1="278.000000" y1="123.000000" x2="281.000000" y2="122.000000"  transform="rotate(0.000000,281.000000,122.000000)" style="stroke: black; stroke-width:0.25;"/>
<line x1="278.000000" y1="129.000000" x2="281.000000" y2="130.000000"  transform="rotate(0.000000,281.000000,130.000000)" style="stroke: black; stroke-width:0.25;"/>
<line x1="278.000000" y1="131.000000" x2="281.000000" y2="130.000000"  transform="rotate(0.000000,281.000000,130.000000)" style="stroke: black; stroke-width:0.25;"/>
<rect x="321.000000" y="94.000000" width="24.000000" height="24.000000" rx="0" ry="0" style="stroke:#000000;fill:#FFFFFF;"/>
<text x="333.000000" y="108.000000" font-family="Verdana" font-size="7" text-anchor="middle" fill="#000000">+</text>
<circle cx="323.000000" cy="96.000000" r="1"/>
<line x1="318.000000" y1="101.000000" x2="321.000000" y2="102.000000"  transform="rotate(0.000000,321.000000,102.000000)" style="stroke: black; stroke-width:0.25;"/>
<line x1="318.000000" y1="103.000000" x2="321.000000" y2="102.000000"  transform="rotate(0.000000,321.000000,102.000000)" style="stroke: black; stroke-width:0.25;"/>
<line x1="318.000000" y1="109.000000" x2="321.000000" y2="110.000000"  transform="rotate(0.000000,321.000000,110.000000)" style="stroke: black; stroke-width:0.25;"/>
<line x1="318.000000" y1="111.000000" x2="321.000000" y2="110.000000"  transform="rotate(0.000000,321.000000,110.000000)" style="stroke: black; stroke-width:0.25;"/>
<line x1="15.000000" y1="15.000000" x2="15.000000" y2="197.000000"  style="stroke: black; stroke-linecap:round; stroke-width:0.25; stroke-dasharray:3,3;"/>
<line x1="15.000000" y1="197.000000" x2="362.000000" y2="197.000000"  style="stroke: black; stroke-linecap:round; stroke-width:0.25; stroke-dasharray:3,3;"/>
<line x1="362.000000" y1="197.000000" x2="362.000000" y2="15.000000"  style="stroke: black; stroke-linecap:round; stroke-width:0.25; stroke-dasharray:3,3;"/>
<line x1="15.000000" y1="15.000000" x2="20.000000" y2="15.000000"  style="stroke: black; stroke-linecap:round; stroke-width:0.25; stroke-dasharray:3,3;"/>
<line x1="49.025000" y1="15.000000" x2="362.000000" y2="15.000000"  style="stroke: black; stroke-linecap:round; stroke-width:0.25; stroke-dasharray:3,3;"/>
<text x="20.000000" y="17.000000" font-family="Verdana" font-size="7">process</text>
<line x1="364.000000" y1="105.000000" x2="367.000000" y2="106.000000"  transform="rotate(0.000000,367.000000,106.000000)" style="stroke: black; stroke-width:0.25;"/>
<line x1="364.000000" y1="107.000000" x2="367.000000" y2="106.000000"  transform="rotate(0.000000,367.000000,106.000000)" style="stroke: black; stroke-width:0.25;"/>
<line x1="10.000000" y1="106.000000" x2="20.000000" y2="106.000000"  style="stroke:black; stroke-linecap:round; stroke-width:0.25;"/>
<line x1="20.000000" y1="106.000000" x2="24.000000" y2="106.000000"  style="stroke:black; stroke-linecap:round; stroke-width:0.25;"/>
<line x1="24.000000" y1="106.000000" x2="28.000000" y2="106.000000"  style="stroke:black; stroke-linecap:round; stroke-width:0.25;"/>
<line x1="28.000000" y1="106.000000" x2="28.000000" y2="106.000000"  style="stroke:black; stroke-linecap:round; stroke-width:0.25;"/>
<line x1="28.000000" y1="106.000000" x2="32.000000" y2="106.000000"  style="stroke:black; stroke-linecap:round; stroke-width:0.25;"/>
<line x1="32.000000" y1="106.000000" x2="36.000000" y2="106.000000"  style="stroke:black; stroke-linecap:round; stroke-width:0.25;"/>
<line x1="36.000000" y1="106.000000" x2="81.000000" y2="24.000000"  style="stroke:black; stroke-linecap:round; stroke-width:0.25;"/>
<line x1="36.000000" y1="106.000000" x2="81.000000" y2="134.000000"  style="stroke:black; stroke-linecap:round; stroke-width:0.25;"/>
<line x1="81.000000" y1="24.000000" x2="145.200000" y2="24.000000"  style="stroke:black; stroke-linecap:round; stroke-width:0.25;"/>
<line x1="81.000000" y1="134.000000" x2="91.000000" y2="134.000000"  style="stroke:black; stroke-linecap:round; stroke-width:0.25;"/>
<line x1="91.000000" y1="134.000000" x2="99.000000" y2="134.000000"  style="stroke:black; stroke-linecap:round; stroke-width:0.25;"/>
<line x1="99.000000" y1="90.000000" x2="99.000000" y2="90.000000"  style="stroke:black; stroke-linecap:round; stroke-width:0.25;"/>
<line x1="99.000000" y1="90.000000" x2="99.000000" y2="126.000000"  style="stroke:black; stroke-linecap:round; stroke-width:0.25;"/>
<line x1="99.000000" y1="126.000000" x2="99.000000" y2="126.000000"  style="stroke:black; stroke-linecap:round; stroke-width:0.25;"/>
<line x1="99.000000" y1="126.000000" x2="103.000000" y2="126.000000"  style="stroke:black; stroke-linecap:round; stroke-width:0.25;"/>
<line x1="99.000000" y1="134.000000" x2="103.000000" y2="134.000000"  style="stroke:black; stroke-linecap:round; stroke-width:0.25;"/>
<line x1="105.200000" y1="90.000000" x2="99.000000" y2="90.000000"  style="stroke:black; stroke-linecap:round; stroke-width:0.25;"/>
<line x1="109.200000" y1="90.000000" x2="105.200000" y2="90.000000"  style="stroke:black; stroke-linecap:round; stroke-width:0.25;"/>
<line x1="127.000000" y1="130.000000" x2="131.000000" y2="130.000000"  style="stroke:black; stroke-linecap:round; stroke-width:0.25;"/>
<line x1="131.000000" y1="114.000000" x2="139.000000" y2="114.000000"  style="stroke:black; stroke-linecap:round; stroke-width:0.25;"/>
<line x1="131.000000" y1="130.000000" x2="131.000000" y2="114.000000"  style="stroke:black; stroke-linecap:round; stroke-width:0.25;"/>
<line x1="131.000000" y1="130.000000" x2="131.000000" y2="130.000000"  style="stroke:black; stroke-linecap:round; stroke-width:0.25;"/>
<line x1="137.200000" y1="86.000000" x2="133.200000" y2="86.000000"  style="stroke:black; stroke-linecap:round; stroke-width:0.25;"/>
<line x1="137.200000" y1="94.000000" x2="133.200000" y2="94.000000"  style="stroke:black; stroke-linecap:round; stroke-width:0.25;"/>
<line x1="137.200000" y1="94.000000" x2="137.200000" y2="94.000000"  style="stroke:black; stroke-linecap:round; stroke-width:0.25;"/>
<line x1="137.200000" y1="106.000000" x2="137.200000" y2="94.000000"  style="stroke:black; stroke-linecap:round; stroke-width:0.25;"/>
<line x1="139.000000" y1="114.000000" x2="155.000000" y2="114.000000"  style="stroke:black; stroke-linecap:round; stroke-width:0.25;"/>
<line x1="145.200000" y1="24.000000" x2="175.000000" y2="24.000000"  style="stroke:black; stroke-linecap:round; stroke-width:0.25;"/>
<line x1="145.200000" y1="86.000000" x2="137.200000" y2="86.000000"  style="stroke:black; stroke-linecap:round; stroke-width:0.25;"/>
<line x1="145.200000" y1="106.000000" x2="137.200000" y2="106.000000"  style="stroke:black; stroke-linecap:round; stroke-width:0.25;"/>
<line x1="149.200000" y1="86.000000" x2="145.200000" y2="86.000000"  style="stroke:black; stroke-linecap:round; stroke-width:0.25;"/>
<line x1="155.000000" y1="114.000000" x2="171.000000" y2="114.000000"  style="stroke:black; stroke-linecap:round; stroke-width:0.25;"/>
<line x1="167.000000" y1="134.000000" x2="171.000000" y2="134.000000"  style="stroke:black; stroke-linecap:round; stroke-width:0.25;"/>
<line x1="171.000000" y1="114.000000" x2="179.000000" y2="114.000000"  style="stroke:black; stroke-linecap:round; stroke-width:0.25;"/>
<line x1="171.000000" y1="134.000000" x2="179.000000" y2="134.000000"  style="stroke:black; stroke-linecap:round; stroke-width:0.25;"/>
<line x1="175.000000" y1="24.000000" x2="204.800000" y2="24.000000"  style="stroke:black; stroke-linecap:round; stroke-width:0.25;"/>
<line x1="175.000000" y1="106.000000" x2="145.200000" y2="106.000000"  style="stroke:black; stroke-linecap:round; stroke-width:0.25;"/>
<line x1="179.000000" y1="114.000000" x2="179.000000" y2="126.000000"  style="stroke:black; stroke-linecap:round; stroke-width:0.25;"/>
<line x1="179.000000" y1="126.000000" x2="179.000000" y2="126.000000"  style="stroke:black; stroke-linecap:round; stroke-width:0.25;"/>
<line x1="179.000000" y1="126.000000" x2="183.000000" y2="126.000000"  style="stroke:black; stroke-linecap:round; stroke-width:0.25;"/>
<line x1="179.000000" y1="134.000000" x2="183.000000" y2="134.000000"  style="stroke:black; stroke-linecap:round; stroke-width:0.25;"/>
<line x1="187.900000" y1="176.000000" x2="191.900000" y2="176.000000"  style="stroke:black; stroke-linecap:round; stroke-width:0.25;"/>
<line x1="191.900000" y1="176.000000" x2="269.000000" y2="176.000000"  style="stroke:black; stroke-linecap:round; stroke-width:0.25;"/>
<line x1="200.800000" y1="44.000000" x2="204.800000" y2="44.000000"  style="stroke:black; stroke-linecap:round; stroke-width:0.25;"/>
<line x1="204.800000" y1="44.000000" x2="212.800000" y2="44.000000"  style="stroke:black; stroke-linecap:round; stroke-width:0.25;"/>
<line x1="204.800000" y1="24.000000" x2="212.800000" y2="24.000000"  style="stroke:black; stroke-linecap:round; stroke-width:0.25;"/>
<line x1="204.800000" y1="106.000000" x2="175.000000" y2="106.000000"  style="stroke:black; stroke-linecap:round; stroke-width:0.25;"/>
<line x1="207.000000" y1="130.000000" x2="211.000000" y2="130.000000"  style="stroke:black; stroke-linecap:round; stroke-width:0.25;"/>
<line x1="211.000000" y1="106.000000" x2="204.800000" y2="106.000000"  style="stroke:black; stroke-linecap:round; stroke-width:0.25;"/>
<line x1="211.000000" y1="106.000000" x2="211.000000" y2="106.000000"  style="stroke:black; stroke-linecap:round; stroke-width:0.25;"/>
<line x1="211.000000" y1="126.000000" x2="211.000000" y2="106.000000"  style="stroke:black; stroke-linecap:round; stroke-width:0.25;"/>
<line x1="211.000000" y1="130.000000" x2="213.000000" y2="130.000000"  style="stroke:black; stroke-linecap:round; stroke-width:0.25;"/>
<line x1="212.800000" y1="36.000000" x2="216.800000" y2="36.000000"  style="stroke:black; stroke-linecap:round; stroke-width:0.25;"/>
<line x1="212.800000" y1="44.000000" x2="216.800000" y2="44.000000"  style="stroke:black; stroke-linecap:round; stroke-width:0.25;"/>
<line x1="212.800000" y1="24.000000" x2="212.800000" y2="36.000000"  style="stroke:black; stroke-linecap:round; stroke-width:0.25;"/>
<line x1="212.800000" y1="36.000000" x2="212.800000" y2="36.000000"  style="stroke:black; stroke-linecap:round; stroke-width:0.25;"/>
<line x1="213.000000" y1="130.000000" x2="219.000000" y2="130.000000"  style="stroke:black; stroke-linecap:round; stroke-width:0.25;"/>
<line x1="219.000000" y1="110.000000" x2="227.000000" y2="110.000000"  style="stroke:black; stroke-linecap:round; stroke-width:0.25;"/>
<line x1="219.000000" y1="130.000000" x2="219.000000" y2="110.000000"  style="stroke:black; stroke-linecap:round; stroke-width:0.25;"/>
<line x1="219.000000" y1="130.000000" x2="219.000000" y2="130.000000"  style="stroke:black; stroke-linecap:round; stroke-width:0.25;"/>
<line x1="227.000000" y1="110.000000" x2="231.000000" y2="110.000000"  style="stroke:black; stroke-linecap:round; stroke-width:0.25;"/>
<line x1="240.800000" y1="40.000000" x2="244.800000" y2="40.000000"  style="stroke:black; stroke-linecap:round; stroke-width:0.25;"/>
<line x1="244.800000" y1="40.000000" x2="309.000000" y2="40.000000"  style="stroke:black; stroke-linecap:round; stroke-width:0.25;"/>
<line x1="255.000000" y1="110.000000" x2="259.000000" y2="110.000000"  style="stroke:black; stroke-linecap:round; stroke-width:0.25;"/>
<line x1="259.000000" y1="110.000000" x2="269.000000" y2="110.000000"  style="stroke:black; stroke-linecap:round; stroke-width:0.25;"/>
<line x1="269.000000" y1="110.000000" x2="277.000000" y2="110.000000"  style="stroke:black; stroke-linecap:round; stroke-width:0.25;"/>
<line x1="269.000000" y1="130.000000" x2="277.000000" y2="130.000000"  style="stroke:black; stroke-linecap:round; stroke-width:0.25;"/>
<line x1="269.000000" y1="176.000000" x2="269.000000" y2="130.000000"  style="stroke:black; stroke-linecap:round; stroke-width:0.25;"/>
<line x1="269.000000" y1="176.000000" x2="269.000000" y2="176.000000"  style="stroke:black; stroke-linecap:round; stroke-width:0.25;"/>
<line x1="277.000000" y1="110.000000" x2="277.000000" y2="122.000000"  style="stroke:black; stroke-linecap:round; stroke-width:0.25;"/>
<line x1="277.000000" y1="122.000000" x2="277.000000" y2="122.000000"  style="stroke:black; stroke-linecap:round; stroke-width:0.25;"/>
<line x1="277.000000" y1="122.000000" x2="281.000000" y2="122.000000"  style="stroke:black; stroke-linecap:round; stroke-width:0.25;"/>
<line x1="277.000000" y1="130.000000" x2="281.000000" y2="130.000000"  style="stroke:black; stroke-linecap:round; stroke-width:0.25;"/>
<line x1="305.000000" y1="126.000000" x2="309.000000" y2="126.000000"  style="stroke:black; stroke-linecap:round; stroke-width:0.25;"/>
<line x1="309.000000" y1="40.000000" x2="317.000000" y2="40.000000"  style="stroke:black; stroke-linecap:round; stroke-width:0.25;"/>
<line x1="309.000000" y1="110.000000" x2="317.000000" y2="110.000000"  style="stroke:black; stroke-linecap:round; stroke-width:0.25;"/>
<line x1="309.000000" y1="126.000000" x2="309.000000" y2="110.000000"  style="stroke:black; stroke-linecap:round; stroke-width:0.25;"/>
<line x1="309.000000" y1="126.000000" x2="309.000000" y2="126.000000"  style="stroke:black; stroke-linecap:round; stroke-width:0.25;"/>
<line x1="317.000000" y1="40.000000" x2="317.000000" y2="102.000000"  style="stroke:black; stroke-linecap:round; stroke-width:0.25;"/>
<line x1="317.000000" y1="102.000000" x2="317.000000" y2="102.000000"  style="stroke:black; stroke-linecap:round; stroke-width:0.25;"/>
<line x1="317.000000" y1="102.000000" x2="321.000000" y2="102.000000"  style="stroke:black; stroke-linecap:round; stroke-width:0.25;"/>
<line x1="317.000000" y1="110.000000" x2="321.000000" y2="110.000000"  style="stroke:black; stroke-linecap:round; stroke-width:0.25;"/>
<line x1="345.000000" y1="106.000000" x2="349.000000" y2="106.000000"  style="stroke:black; stroke-linecap:round; stroke-width:0.25;"/>
<line x1="349.000000" y1="106.000000" x2="349.000000" y2="106.000000"  style="stroke:black; stroke-linecap:round; stroke-width:0.25;"/>
<line x1="349.000000" y1="106.000000" x2="353.000000" y2="106.000000"  style="stroke:black; stroke-linecap:round; stroke-width:0.25;"/>
<line x1="353.000000" y1="106.000000" x2="357.000000" y2="106.000000"  style="stroke:black; stroke-linecap:round; stroke-width:0.25;"/>
<line x1="357.000000" y1="106.000000" x2="367.000000" y2="106.000000"  style="stroke:black; stroke-linecap:round; stroke-width:0.25;"/>
</svg>
