<?xml version="1.0"?>
<svg xmlns="http://www.w3.org/2000/svg" xmlns:xlink="http://www.w3.org/1999/xlink" viewBox="0 0 283.200000 144.000000" width="141.600000mm" height="72.000000mm" version="1.1">
<a xlink:href="process.svg">
<rect x="0.000000" y="0.000000" width="282.200000" height="143.000000" rx="0" ry="0" style="stroke:#000000;fill:#FFFFFF;"/>
</a>
<text x="10.000000" y="7.000000" font-family="Verdana" font-size="7"></text>
<rect x="93.800000" y="32.000000" width="51.600000" height="24.000000" rx="0" ry="0" style="stroke:#000000;fill:#FFFFFF;"/>
<text x="119.600000" y="46.000000" font-family="Verdana" font-size="7" text-anchor="middle" fill="#000000">-0.70710677f</text>
<circle cx="95.800000" cy="34.000000" r="1"/>
<rect x="161.400000" y="28.000000" width="24.000000" height="24.000000" rx="0" ry="0" style="stroke:#000000;fill:#FFFFFF;"/>
<text x="173.400000" y="42.000000" font-family="Verdana" font-size="7" text-anchor="middle" fill="#000000">*</text>
<circle cx="163.400000" cy="30.000000" r="1"/>
<line x1="158.400000" y1="35.000000" x2="161.400000" y2="36.000000"  transform="rotate(0.000000,161.400000,36.000000)" style="stroke: black; stroke-width:0.25;"/>
<line x1="158.400000" y1="37.000000" x2="161.400000" y2="36.000000"  transform="rotate(0.000000,161.400000,36.000000)" style="stroke: black; stroke-width:0.25;"/>
<line x1="158.400000" y1="43.000000" x2="161.400000" y2="44.000000"  transform="rotate(0.000000,161.400000,44.000000)" style="stroke: black; stroke-width:0.25;"/>
<line x1="158.400000" y1="45.000000" x2="161.400000" y2="44.000000"  transform="rotate(0.000000,161.400000,44.000000)" style="stroke: black; stroke-width:0.25;"/>
<a xlink:href="dflc-0x600000bd7690.svg">
<rect x="68.000000" y="64.000000" width="103.200000" height="24.000000" rx="0" ry="0" style="stroke:#000000;fill:#FFFFFF;"/>
</a>
<a xlink:href="dflc-0x600000bd7690.svg">
<text x="119.600000" y="78.000000" font-family="Verdana" font-size="7" text-anchor="middle" fill="#000000">dflc(199)(0.70710677f)</text>
</a>
<circle cx="70.000000" cy="66.000000" r="1"/>
<line x1="65.000000" y1="75.000000" x2="68.000000" y2="76.000000"  transform="rotate(0.000000,68.000000,76.000000)" style="stroke: black; stroke-width:0.25;"/>
<line x1="65.000000" y1="77.000000" x2="68.000000" y2="76.000000"  transform="rotate(0.000000,68.000000,76.000000)" style="stroke: black; stroke-width:0.25;"/>
<rect x="106.700000" y="96.000000" width="25.800000" height="24.000000" rx="0" ry="0" style="stroke:#000000;fill:#FFFFFF;"/>
<text x="119.600000" y="110.000000" font-family="Verdana" font-size="7" text-anchor="middle" fill="#000000">0.5f</text>
<circle cx="108.700000" cy="98.000000" r="1"/>
<rect x="187.200000" y="80.000000" width="24.000000" height="24.000000" rx="0" ry="0" style="stroke:#000000;fill:#FFFFFF;"/>
<text x="199.200000" y="94.000000" font-family="Verdana" font-size="7" text-anchor="middle" fill="#000000">*</text>
<circle cx="189.200000" cy="82.000000" r="1"/>
<line x1="184.200000" y1="87.000000" x2="187.200000" y2="88.000000"  transform="rotate(0.000000,187.200000,88.000000)" style="stroke: black; stroke-width:0.25;"/>
<line x1="184.200000" y1="89.000000" x2="187.200000" y2="88.000000"  transform="rotate(0.000000,187.200000,88.000000)" style="stroke: black; stroke-width:0.25;"/>
<line x1="184.200000" y1="95.000000" x2="187.200000" y2="96.000000"  transform="rotate(0.000000,187.200000,96.000000)" style="stroke: black; stroke-width:0.25;"/>
<line x1="184.200000" y1="97.000000" x2="187.200000" y2="96.000000"  transform="rotate(0.000000,187.200000,96.000000)" style="stroke: black; stroke-width:0.25;"/>
<rect x="227.200000" y="60.000000" width="24.000000" height="24.000000" rx="0" ry="0" style="stroke:#000000;fill:#FFFFFF;"/>
<text x="239.200000" y="74.000000" font-family="Verdana" font-size="7" text-anchor="middle" fill="#000000">+</text>
<circle cx="229.200000" cy="62.000000" r="1"/>
<line x1="224.200000" y1="67.000000" x2="227.200000" y2="68.000000"  transform="rotate(0.000000,227.200000,68.000000)" style="stroke: black; stroke-width:0.25;"/>
<line x1="224.200000" y1="69.000000" x2="227.200000" y2="68.000000"  transform="rotate(0.000000,227.200000,68.000000)" style="stroke: black; stroke-width:0.25;"/>
<line x1="224.200000" y1="75.000000" x2="227.200000" y2="76.000000"  transform="rotate(0.000000,227.200000,76.000000)" style="stroke: black; stroke-width:0.25;"/>
<line x1="224.200000" y1="77.000000" x2="227.200000" y2="76.000000"  transform="rotate(0.000000,227.200000,76.000000)" style="stroke: black; stroke-width:0.25;"/>
<line x1="15.000000" y1="15.000000" x2="15.000000" y2="129.000000"  style="stroke: black; stroke-linecap:round; stroke-width:0.25; stroke-dasharray:3,3;"/>
<line x1="15.000000" y1="129.000000" x2="268.200000" y2="129.000000"  style="stroke: black; stroke-linecap:round; stroke-width:0.25; stroke-dasharray:3,3;"/>
<line x1="268.200000" y1="129.000000" x2="268.200000" y2="15.000000"  style="stroke: black; stroke-linecap:round; stroke-width:0.25; stroke-dasharray:3,3;"/>
<line x1="15.000000" y1="15.000000" x2="20.000000" y2="15.000000"  style="stroke: black; stroke-linecap:round; stroke-width:0.25; stroke-dasharray:3,3;"/>
<line x1="94.175000" y1="15.000000" x2="268.200000" y2="15.000000"  style="stroke: black; stroke-linecap:round; stroke-width:0.25; stroke-dasharray:3,3;"/>
<text x="20.000000" y="17.000000" font-family="Verdana" font-size="7">apf(199)(0.70710677f)</text>
<line x1="270.200000" y1="71.000000" x2="273.200000" y2="72.000000"  transform="rotate(0.000000,273.200000,72.000000)" style="stroke: black; stroke-width:0.25;"/>
<line x1="270.200000" y1="73.000000" x2="273.200000" y2="72.000000"  transform="rotate(0.000000,273.200000,72.000000)" style="stroke: black; stroke-width:0.25;"/>
<line x1="10.000000" y1="72.000000" x2="20.000000" y2="72.000000"  style="stroke:black; stroke-linecap:round; stroke-width:0.25;"/>
<line x1="20.000000" y1="72.000000" x2="24.000000" y2="72.000000"  style="stroke:black; stroke-linecap:round; stroke-width:0.25;"/>
<line x1="24.000000" y1="72.000000" x2="28.000000" y2="72.000000"  style="stroke:black; stroke-linecap:round; stroke-width:0.25;"/>
<line x1="28.000000" y1="72.000000" x2="28.000000" y2="72.000000"  style="stroke:black; stroke-linecap:round; stroke-width:0.25;"/>
<line x1="28.000000" y1="72.000000" x2="32.000000" y2="72.000000"  style="stroke:black; stroke-linecap:round; stroke-width:0.25;"/>
<line x1="32.000000" y1="72.000000" x2="36.000000" y2="72.000000"  style="stroke:black; stroke-linecap:round; stroke-width:0.25;"/>
<line x1="36.000000" y1="72.000000" x2="64.000000" y2="24.000000"  style="stroke:black; stroke-linecap:round; stroke-width:0.25;"/>
<line x1="36.000000" y1="72.000000" x2="64.000000" y2="76.000000"  style="stroke:black; stroke-linecap:round; stroke-width:0.25;"/>
<line x1="64.000000" y1="24.000000" x2="89.800000" y2="24.000000"  style="stroke:black; stroke-linecap:round; stroke-width:0.25;"/>
<line x1="64.000000" y1="76.000000" x2="68.000000" y2="76.000000"  style="stroke:black; stroke-linecap:round; stroke-width:0.25;"/>
<line x1="89.800000" y1="24.000000" x2="119.600000" y2="24.000000"  style="stroke:black; stroke-linecap:round; stroke-width:0.25;"/>
<line x1="119.600000" y1="24.000000" x2="149.400000" y2="24.000000"  style="stroke:black; stroke-linecap:round; stroke-width:0.25;"/>
<line x1="132.500000" y1="108.000000" x2="136.500000" y2="108.000000"  style="stroke:black; stroke-linecap:round; stroke-width:0.25;"/>
<line x1="136.500000" y1="108.000000" x2="175.200000" y2="108.000000"  style="stroke:black; stroke-linecap:round; stroke-width:0.25;"/>
<line x1="145.400000" y1="44.000000" x2="149.400000" y2="44.000000"  style="stroke:black; stroke-linecap:round; stroke-width:0.25;"/>
<line x1="149.400000" y1="24.000000" x2="157.400000" y2="24.000000"  style="stroke:black; stroke-linecap:round; stroke-width:0.25;"/>
<line x1="149.400000" y1="44.000000" x2="157.400000" y2="44.000000"  style="stroke:black; stroke-linecap:round; stroke-width:0.25;"/>
<line x1="157.400000" y1="24.000000" x2="157.400000" y2="36.000000"  style="stroke:black; stroke-linecap:round; stroke-width:0.25;"/>
<line x1="157.400000" y1="36.000000" x2="157.400000" y2="36.000000"  style="stroke:black; stroke-linecap:round; stroke-width:0.25;"/>
<line x1="157.400000" y1="36.000000" x2="161.400000" y2="36.000000"  style="stroke:black; stroke-linecap:round; stroke-width:0.25;"/>
<line x1="157.400000" y1="44.000000" x2="161.400000" y2="44.000000"  style="stroke:black; stroke-linecap:round; stroke-width:0.25;"/>
<line x1="171.200000" y1="76.000000" x2="175.200000" y2="76.000000"  style="stroke:black; stroke-linecap:round; stroke-width:0.25;"/>
<line x1="175.200000" y1="76.000000" x2="183.200000" y2="76.000000"  style="stroke:black; stroke-linecap:round; stroke-width:0.25;"/>
<line x1="175.200000" y1="96.000000" x2="183.200000" y2="96.000000"  style="stroke:black; stroke-linecap:round; stroke-width:0.25;"/>
<line x1="175.200000" y1="108.000000" x2="175.200000" y2="96.000000"  style="stroke:black; stroke-linecap:round; stroke-width:0.25;"/>
<line x1="175.200000" y1="108.000000" x2="175.200000" y2="108.000000"  style="stroke:black; stroke-linecap:round; stroke-width:0.25;"/>
<line x1="183.200000" y1="76.000000" x2="183.200000" y2="88.000000"  style="stroke:black; stroke-linecap:round; stroke-width:0.25;"/>
<line x1="183.200000" y1="88.000000" x2="183.200000" y2="88.000000"  style="stroke:black; stroke-linecap:round; stroke-width:0.25;"/>
<line x1="183.200000" y1="88.000000" x2="187.200000" y2="88.000000"  style="stroke:black; stroke-linecap:round; stroke-width:0.25;"/>
<line x1="183.200000" y1="96.000000" x2="187.200000" y2="96.000000"  style="stroke:black; stroke-linecap:round; stroke-width:0.25;"/>
<line x1="185.400000" y1="40.000000" x2="189.400000" y2="40.000000"  style="stroke:black; stroke-linecap:round; stroke-width:0.25;"/>
<line x1="189.400000" y1="40.000000" x2="215.200000" y2="40.000000"  style="stroke:black; stroke-linecap:round; stroke-width:0.25;"/>
<line x1="211.200000" y1="92.000000" x2="215.200000" y2="92.000000"  style="stroke:black; stroke-linecap:round; stroke-width:0.25;"/>
<line x1="215.200000" y1="40.000000" x2="223.200000" y2="40.000000"  style="stroke:black; stroke-linecap:round; stroke-width:0.25;"/>
<line x1="215.200000" y1="76.000000" x2="223.200000" y2="76.000000"  style="stroke:black; stroke-linecap:round; stroke-width:0.25;"/>
<line x1="215.200000" y1="92.000000" x2="215.200000" y2="76.000000"  style="stroke:black; stroke-linecap:round; stroke-width:0.25;"/>
<line x1="215.200000" y1="92.000000" x2="215.200000" y2="92.000000"  style="stroke:black; stroke-linecap:round; stroke-width:0.25;"/>
<line x1="223.200000" y1="40.000000" x2="223.200000" y2="68.000000"  style="stroke:black; stroke-linecap:round; stroke-width:0.25;"/>
<line x1="223.200000" y1="68.000000" x2="223.200000" y2="68.000000"  style="stroke:black; stroke-linecap:round; stroke-width:0.25;"/>
<line x1="223.200000" y1="68.000000" x2="227.200000" y2="68.000000"  style="stroke:black; stroke-linecap:round; stroke-width:0.25;"/>
<line x1="223.200000" y1="76.000000" x2="227.200000" y2="76.000000"  style="stroke:black; stroke-linecap:round; stroke-width:0.25;"/>
<line x1="251.200000" y1="72.000000" x2="255.200000" y2="72.000000"  style="stroke:black; stroke-linecap:round; stroke-width:0.25;"/>
<line x1="255.200000" y1="72.000000" x2="255.200000" y2="72.000000"  style="stroke:black; stroke-linecap:round; stroke-width:0.25;"/>
<line x1="255.200000" y1="72.000000" x2="259.200000" y2="72.000000"  style="stroke:black; stroke-linecap:round; stroke-width:0.25;"/>
<line x1="259.200000" y1="72.000000" x2="263.200000" y2="72.000000"  style="stroke:black; stroke-linecap:round; stroke-width:0.25;"/>
<line x1="263.200000" y1="72.000000" x2="273.200000" y2="72.000000"  style="stroke:black; stroke-linecap:round; stroke-width:0.25;"/>
</svg>
