<?xml version="1.0"?>
<svg xmlns="http://www.w3.org/2000/svg" xmlns:xlink="http://www.w3.org/1999/xlink" viewBox="0 0 573.300000 72.000000" width="286.650000mm" height="36.000000mm" version="1.1">
<!-- <rect x="0.000000" y="0.000000" width="572.300000" height="71.000000" rx="0" ry="0" style="stroke:#000000;fill:#FFFFFF;"/> -->
<text x="10.000000" y="7.000000" font-family="Verdana" font-size="7"></text>
<a xlink:href="apf-0x600000bdd680.svg">
<rect x="32.000000" y="24.000000" width="103.200000" height="24.000000" rx="0" ry="0" style="stroke:#000000;fill:#FFFFFF;"/>
</a>
<a xlink:href="apf-0x600000bdd680.svg">
<text x="83.600000" y="38.000000" font-family="Verdana" font-size="7" text-anchor="middle" fill="#000000">apf(5507)(0.70710677f)</text>
</a>
<circle cx="34.000000" cy="26.000000" r="1"/>
<line x1="29.000000" y1="35.000000" x2="32.000000" y2="36.000000"  transform="rotate(0.000000,32.000000,36.000000)" style="stroke: black; stroke-width:0.25;"/>
<line x1="29.000000" y1="37.000000" x2="32.000000" y2="36.000000"  transform="rotate(0.000000,32.000000,36.000000)" style="stroke: black; stroke-width:0.25;"/>
<a xlink:href="apf-0x600000bd0ea0.svg">
<rect x="143.200000" y="24.000000" width="103.200000" height="24.000000" rx="0" ry="0" style="stroke:#000000;fill:#FFFFFF;"/>
</a>
<a xlink:href="apf-0x600000bd0ea0.svg">
<text x="194.800000" y="38.000000" font-family="Verdana" font-size="7" text-anchor="middle" fill="#000000">apf(1831)(0.70710677f)</text>
</a>
<circle cx="145.200000" cy="26.000000" r="1"/>
<line x1="140.200000" y1="35.000000" x2="143.200000" y2="36.000000"  transform="rotate(0.000000,143.200000,36.000000)" style="stroke: black; stroke-width:0.25;"/>
<line x1="140.200000" y1="37.000000" x2="143.200000" y2="36.000000"  transform="rotate(0.000000,143.200000,36.000000)" style="stroke: black; stroke-width:0.25;"/>
<a xlink:href="apf-0x600000bd4630.svg">
<rect x="254.400000" y="24.000000" width="90.300000" height="24.000000" rx="0" ry="0" style="stroke:#000000;fill:#FFFFFF;"/>
</a>
<a xlink:href="apf-0x600000bd4630.svg">
<text x="299.550000" y="38.000000" font-family="Verdana" font-size="7" text-anchor="middle" fill="#000000">apf(613)(0.70710677f)</text>
</a>
<circle cx="256.400000" cy="26.000000" r="1"/>
<line x1="251.400000" y1="35.000000" x2="254.400000" y2="36.000000"  transform="rotate(0.000000,254.400000,36.000000)" style="stroke: black; stroke-width:0.25;"/>
<line x1="251.400000" y1="37.000000" x2="254.400000" y2="36.000000"  transform="rotate(0.000000,254.400000,36.000000)" style="stroke: black; stroke-width:0.25;"/>
<a xlink:href="apf-0x600000bd7d50.svg">
<rect x="352.700000" y="24.000000" width="90.300000" height="24.000000" rx="0" ry="0" style="stroke:#000000;fill:#FFFFFF;"/>
</a>
<a xlink:href="apf-0x600000bd7d50.svg">
<text x="397.850000" y="38.000000" font-family="Verdana" font-size="7" text-anchor="middle" fill="#000000">apf(199)(0.70710677f)</text>
</a>
<circle cx="354.700000" cy="26.000000" r="1"/>
<line x1="349.700000" y1="35.000000" x2="352.700000" y2="36.000000"  transform="rotate(0.000000,352.700000,36.000000)" style="stroke: black; stroke-width:0.25;"/>
<line x1="349.700000" y1="37.000000" x2="352.700000" y2="36.000000"  transform="rotate(0.000000,352.700000,36.000000)" style="stroke: black; stroke-width:0.25;"/>
<a xlink:href="apf-0x600000baafd0.svg">
<rect x="451.000000" y="24.000000" width="90.300000" height="24.000000" rx="0" ry="0" style="stroke:#000000;fill:#FFFFFF;"/>
</a>
<a xlink:href="apf-0x600000baafd0.svg">
<text x="496.150000" y="38.000000" font-family="Verdana" font-size="7" text-anchor="middle" fill="#000000">apf(67)(0.70710677f)</text>
</a>
<circle cx="453.000000" cy="26.000000" r="1"/>
<line x1="448.000000" y1="35.000000" x2="451.000000" y2="36.000000"  transform="rotate(0.000000,451.000000,36.000000)" style="stroke: black; stroke-width:0.25;"/>
<line x1="448.000000" y1="37.000000" x2="451.000000" y2="36.000000"  transform="rotate(0.000000,451.000000,36.000000)" style="stroke: black; stroke-width:0.25;"/>
<line x1="15.000000" y1="15.000000" x2="15.000000" y2="57.000000"  style="stroke: black; stroke-linecap:round; stroke-width:0.25; stroke-dasharray:3,3;"/>
<line x1="15.000000" y1="57.000000" x2="558.300000" y2="57.000000"  style="stroke: black; stroke-linecap:round; stroke-width:0.25; stroke-dasharray:3,3;"/>
<line x1="558.300000" y1="57.000000" x2="558.300000" y2="15.000000"  style="stroke: black; stroke-linecap:round; stroke-width:0.25; stroke-dasharray:3,3;"/>
<line x1="15.000000" y1="15.000000" x2="20.000000" y2="15.000000"  style="stroke: black; stroke-linecap:round; stroke-width:0.25; stroke-dasharray:3,3;"/>
<line x1="49.025000" y1="15.000000" x2="558.300000" y2="15.000000"  style="stroke: black; stroke-linecap:round; stroke-width:0.25; stroke-dasharray:3,3;"/>
<text x="20.000000" y="17.000000" font-family="Verdana" font-size="7">process</text>
<line x1="560.300000" y1="35.000000" x2="563.300000" y2="36.000000"  transform="rotate(0.000000,563.300000,36.000000)" style="stroke: black; stroke-width:0.25;"/>
<line x1="560.300000" y1="37.000000" x2="563.300000" y2="36.000000"  transform="rotate(0.000000,563.300000,36.000000)" style="stroke: black; stroke-width:0.25;"/>
<line x1="10.000000" y1="36.000000" x2="20.000000" y2="36.000000"  style="stroke:black; stroke-linecap:round; stroke-width:0.25;"/>
<line x1="20.000000" y1="36.000000" x2="24.000000" y2="36.000000"  style="stroke:black; stroke-linecap:round; stroke-width:0.25;"/>
<line x1="24.000000" y1="36.000000" x2="28.000000" y2="36.000000"  style="stroke:black; stroke-linecap:round; stroke-width:0.25;"/>
<line x1="28.000000" y1="36.000000" x2="28.000000" y2="36.000000"  style="stroke:black; stroke-linecap:round; stroke-width:0.25;"/>
<line x1="28.000000" y1="36.000000" x2="32.000000" y2="36.000000"  style="stroke:black; stroke-linecap:round; stroke-width:0.25;"/>
<line x1="135.200000" y1="36.000000" x2="139.200000" y2="36.000000"  style="stroke:black; stroke-linecap:round; stroke-width:0.25;"/>
<line x1="139.200000" y1="36.000000" x2="139.200000" y2="36.000000"  style="stroke:black; stroke-linecap:round; stroke-width:0.25;"/>
<line x1="139.200000" y1="36.000000" x2="143.200000" y2="36.000000"  style="stroke:black; stroke-linecap:round; stroke-width:0.25;"/>
<line x1="246.400000" y1="36.000000" x2="250.400000" y2="36.000000"  style="stroke:black; stroke-linecap:round; stroke-width:0.25;"/>
<line x1="250.400000" y1="36.000000" x2="250.400000" y2="36.000000"  style="stroke:black; stroke-linecap:round; stroke-width:0.25;"/>
<line x1="250.400000" y1="36.000000" x2="254.400000" y2="36.000000"  style="stroke:black; stroke-linecap:round; stroke-width:0.25;"/>
<line x1="344.700000" y1="36.000000" x2="348.700000" y2="36.000000"  style="stroke:black; stroke-linecap:round; stroke-width:0.25;"/>
<line x1="348.700000" y1="36.000000" x2="348.700000" y2="36.000000"  style="stroke:black; stroke-linecap:round; stroke-width:0.25;"/>
<line x1="348.700000" y1="36.000000" x2="352.700000" y2="36.000000"  style="stroke:black; stroke-linecap:round; stroke-width:0.25;"/>
<line x1="443.000000" y1="36.000000" x2="447.000000" y2="36.000000"  style="stroke:black; stroke-linecap:round; stroke-width:0.25;"/>
<line x1="447.000000" y1="36.000000" x2="447.000000" y2="36.000000"  style="stroke:black; stroke-linecap:round; stroke-width:0.25;"/>
<line x1="447.000000" y1="36.000000" x2="451.000000" y2="36.000000"  style="stroke:black; stroke-linecap:round; stroke-width:0.25;"/>
<line x1="541.300000" y1="36.000000" x2="545.300000" y2="36.000000"  style="stroke:black; stroke-linecap:round; stroke-width:0.25;"/>
<line x1="545.300000" y1="36.000000" x2="545.300000" y2="36.000000"  style="stroke:black; stroke-linecap:round; stroke-width:0.25;"/>
<line x1="545.300000" y1="36.000000" x2="549.300000" y2="36.000000"  style="stroke:black; stroke-linecap:round; stroke-width:0.25;"/>
<line x1="549.300000" y1="36.000000" x2="553.300000" y2="36.000000"  style="stroke:black; stroke-linecap:round; stroke-width:0.25;"/>
<line x1="553.300000" y1="36.000000" x2="563.300000" y2="36.000000"  style="stroke:black; stroke-linecap:round; stroke-width:0.25;"/>
</svg>
