<?xml version="1.0"?>
<svg xmlns="http://www.w3.org/2000/svg" xmlns:xlink="http://www.w3.org/1999/xlink" viewBox="0 0 308.000000 368.000000" width="154.000000mm" height="184.000000mm" version="1.1">
<rect x="1.000000" y="1.000000" width="307.000000" height="367.000000" rx="0" ry="0" style="stroke:none;fill:#cccccc;"/>
<rect x="0.000000" y="0.000000" width="307.000000" height="367.000000" rx="0" ry="0" style="stroke:none;fill:#ffffff;"/>
<text x="10.000000" y="7.000000" font-family="Arial" font-size="7"></text>
<rect x="41.000000" y="141.000000" width="24.000000" height="24.000000" rx="0" ry="0" style="stroke:none;fill:#cccccc;"/>
<rect x="40.000000" y="140.000000" width="24.000000" height="24.000000" rx="0" ry="0" style="stroke:none;fill:#47945E;"/>
<text x="52.000000" y="154.000000" font-family="Arial" font-size="7" text-anchor="middle" fill="#FFFFFF">x</text>
<circle cx="42.000000" cy="142.000000" r="1"/>
<line x1="37.000000" y1="151.000000" x2="40.000000" y2="152.000000"  transform="rotate(0.000000,40.000000,152.000000)" style="stroke: black; stroke-width:0.25;"/>
<line x1="37.000000" y1="153.000000" x2="40.000000" y2="152.000000"  transform="rotate(0.000000,40.000000,152.000000)" style="stroke: black; stroke-width:0.25;"/>
<rect x="41.000000" y="173.000000" width="24.000000" height="24.000000" rx="0" ry="0" style="stroke:none;fill:#cccccc;"/>
<rect x="40.000000" y="172.000000" width="24.000000" height="24.000000" rx="0" ry="0" style="stroke:none;fill:#47945E;"/>
<text x="52.000000" y="186.000000" font-family="Arial" font-size="7" text-anchor="middle" fill="#FFFFFF">p</text>
<circle cx="42.000000" cy="174.000000" r="1"/>
<line x1="37.000000" y1="183.000000" x2="40.000000" y2="184.000000"  transform="rotate(0.000000,40.000000,184.000000)" style="stroke: black; stroke-width:0.25;"/>
<line x1="37.000000" y1="185.000000" x2="40.000000" y2="184.000000"  transform="rotate(0.000000,40.000000,184.000000)" style="stroke: black; stroke-width:0.25;"/>
<rect x="41.000000" y="205.000000" width="24.000000" height="24.000000" rx="0" ry="0" style="stroke:none;fill:#cccccc;"/>
<rect x="40.000000" y="204.000000" width="24.000000" height="24.000000" rx="0" ry="0" style="stroke:none;fill:#47945E;"/>
<text x="52.000000" y="218.000000" font-family="Arial" font-size="7" text-anchor="middle" fill="#FFFFFF">rad</text>
<circle cx="42.000000" cy="206.000000" r="1"/>
<line x1="37.000000" y1="215.000000" x2="40.000000" y2="216.000000"  transform="rotate(0.000000,40.000000,216.000000)" style="stroke: black; stroke-width:0.25;"/>
<line x1="37.000000" y1="217.000000" x2="40.000000" y2="216.000000"  transform="rotate(0.000000,40.000000,216.000000)" style="stroke: black; stroke-width:0.25;"/>
<rect x="119.000000" y="35.000000" width="24.000000" height="24.000000" rx="0" ry="0" style="stroke:none;fill:#cccccc;"/>
<rect x="118.000000" y="34.000000" width="24.000000" height="24.000000" rx="0" ry="0" style="stroke:none;fill:#47945E;"/>
<text x="130.000000" y="48.000000" font-family="Arial" font-size="7" text-anchor="middle" fill="#FFFFFF">p</text>
<circle cx="120.000000" cy="36.000000" r="1"/>
<rect x="119.000000" y="67.000000" width="24.000000" height="24.000000" rx="0" ry="0" style="stroke:none;fill:#cccccc;"/>
<rect x="118.000000" y="66.000000" width="24.000000" height="24.000000" rx="0" ry="0" style="stroke:none;fill:#47945E;"/>
<text x="130.000000" y="80.000000" font-family="Arial" font-size="7" text-anchor="middle" fill="#FFFFFF">x</text>
<circle cx="120.000000" cy="68.000000" r="1"/>
<rect x="159.000000" y="51.000000" width="24.000000" height="24.000000" rx="0" ry="0" style="stroke:none;fill:#cccccc;"/>
<rect x="158.000000" y="50.000000" width="24.000000" height="24.000000" rx="0" ry="0" style="stroke:none;fill:#4B71A1;"/>
<text x="170.000000" y="64.000000" font-family="Arial" font-size="7" text-anchor="middle" fill="#FFFFFF">*</text>
<circle cx="160.000000" cy="52.000000" r="1"/>
<line x1="155.000000" y1="57.000000" x2="158.000000" y2="58.000000"  transform="rotate(0.000000,158.000000,58.000000)" style="stroke: black; stroke-width:0.25;"/>
<line x1="155.000000" y1="59.000000" x2="158.000000" y2="58.000000"  transform="rotate(0.000000,158.000000,58.000000)" style="stroke: black; stroke-width:0.25;"/>
<line x1="155.000000" y1="65.000000" x2="158.000000" y2="66.000000"  transform="rotate(0.000000,158.000000,66.000000)" style="stroke: black; stroke-width:0.25;"/>
<line x1="155.000000" y1="67.000000" x2="158.000000" y2="66.000000"  transform="rotate(0.000000,158.000000,66.000000)" style="stroke: black; stroke-width:0.25;"/>
<rect x="99.000000" y="99.000000" width="24.000000" height="24.000000" rx="0" ry="0" style="stroke:none;fill:#cccccc;"/>
<rect x="98.000000" y="98.000000" width="24.000000" height="24.000000" rx="0" ry="0" style="stroke:none;fill:#f44800;"/>
<text x="110.000000" y="112.000000" font-family="Arial" font-size="7" text-anchor="middle" fill="#FFFFFF">1</text>
<circle cx="100.000000" cy="100.000000" r="1"/>
<rect x="99.000000" y="131.000000" width="24.000000" height="24.000000" rx="0" ry="0" style="stroke:none;fill:#cccccc;"/>
<rect x="98.000000" y="130.000000" width="24.000000" height="24.000000" rx="0" ry="0" style="stroke:none;fill:#47945E;"/>
<text x="110.000000" y="144.000000" font-family="Arial" font-size="7" text-anchor="middle" fill="#FFFFFF">p</text>
<circle cx="100.000000" cy="132.000000" r="1"/>
<rect x="139.000000" y="115.000000" width="24.000000" height="24.000000" rx="0" ry="0" style="stroke:none;fill:#cccccc;"/>
<rect x="138.000000" y="114.000000" width="24.000000" height="24.000000" rx="0" ry="0" style="stroke:none;fill:#4B71A1;"/>
<text x="150.000000" y="128.000000" font-family="Arial" font-size="7" text-anchor="middle" fill="#FFFFFF">-</text>
<circle cx="140.000000" cy="116.000000" r="1"/>
<line x1="135.000000" y1="121.000000" x2="138.000000" y2="122.000000"  transform="rotate(0.000000,138.000000,122.000000)" style="stroke: black; stroke-width:0.25;"/>
<line x1="135.000000" y1="123.000000" x2="138.000000" y2="122.000000"  transform="rotate(0.000000,138.000000,122.000000)" style="stroke: black; stroke-width:0.25;"/>
<line x1="135.000000" y1="129.000000" x2="138.000000" y2="130.000000"  transform="rotate(0.000000,138.000000,130.000000)" style="stroke: black; stroke-width:0.25;"/>
<line x1="135.000000" y1="131.000000" x2="138.000000" y2="130.000000"  transform="rotate(0.000000,138.000000,130.000000)" style="stroke: black; stroke-width:0.25;"/>
<rect x="99.000000" y="163.000000" width="24.000000" height="24.000000" rx="0" ry="0" style="stroke:none;fill:#cccccc;"/>
<rect x="98.000000" y="162.000000" width="24.000000" height="24.000000" rx="0" ry="0" style="stroke:none;fill:#47945E;"/>
<text x="110.000000" y="176.000000" font-family="Arial" font-size="7" text-anchor="middle" fill="#FFFFFF">x</text>
<circle cx="100.000000" cy="164.000000" r="1"/>
<rect x="83.000000" y="195.000000" width="24.000000" height="24.000000" rx="0" ry="0" style="stroke:none;fill:#cccccc;"/>
<rect x="82.000000" y="194.000000" width="24.000000" height="24.000000" rx="0" ry="0" style="stroke:none;fill:#47945E;"/>
<text x="94.000000" y="208.000000" font-family="Arial" font-size="7" text-anchor="middle" fill="#FFFFFF">rad</text>
<circle cx="84.000000" cy="196.000000" r="1"/>
<rect x="115.000000" y="195.000000" width="24.000000" height="24.000000" rx="0" ry="0" style="stroke:none;fill:#cccccc;"/>
<rect x="114.000000" y="194.000000" width="24.000000" height="24.000000" rx="0" ry="0" style="stroke:none;fill:#4B71A1;"/>
<text x="126.000000" y="208.000000" font-family="Arial" font-size="7" text-anchor="middle" fill="#FFFFFF">cos</text>
<circle cx="116.000000" cy="196.000000" r="1"/>
<line x1="111.000000" y1="205.000000" x2="114.000000" y2="206.000000"  transform="rotate(0.000000,114.000000,206.000000)" style="stroke: black; stroke-width:0.25;"/>
<line x1="111.000000" y1="207.000000" x2="114.000000" y2="206.000000"  transform="rotate(0.000000,114.000000,206.000000)" style="stroke: black; stroke-width:0.25;"/>
<rect x="155.000000" y="179.000000" width="24.000000" height="24.000000" rx="0" ry="0" style="stroke:none;fill:#cccccc;"/>
<rect x="154.000000" y="178.000000" width="24.000000" height="24.000000" rx="0" ry="0" style="stroke:none;fill:#4B71A1;"/>
<text x="166.000000" y="192.000000" font-family="Arial" font-size="7" text-anchor="middle" fill="#FFFFFF">*</text>
<circle cx="156.000000" cy="180.000000" r="1"/>
<line x1="151.000000" y1="185.000000" x2="154.000000" y2="186.000000"  transform="rotate(0.000000,154.000000,186.000000)" style="stroke: black; stroke-width:0.25;"/>
<line x1="151.000000" y1="187.000000" x2="154.000000" y2="186.000000"  transform="rotate(0.000000,154.000000,186.000000)" style="stroke: black; stroke-width:0.25;"/>
<line x1="151.000000" y1="193.000000" x2="154.000000" y2="194.000000"  transform="rotate(0.000000,154.000000,194.000000)" style="stroke: black; stroke-width:0.25;"/>
<line x1="151.000000" y1="195.000000" x2="154.000000" y2="194.000000"  transform="rotate(0.000000,154.000000,194.000000)" style="stroke: black; stroke-width:0.25;"/>
<rect x="195.000000" y="147.000000" width="24.000000" height="24.000000" rx="0" ry="0" style="stroke:none;fill:#cccccc;"/>
<rect x="194.000000" y="146.000000" width="24.000000" height="24.000000" rx="0" ry="0" style="stroke:none;fill:#4B71A1;"/>
<text x="206.000000" y="160.000000" font-family="Arial" font-size="7" text-anchor="middle" fill="#FFFFFF">*</text>
<circle cx="196.000000" cy="148.000000" r="1"/>
<line x1="191.000000" y1="153.000000" x2="194.000000" y2="154.000000"  transform="rotate(0.000000,194.000000,154.000000)" style="stroke: black; stroke-width:0.25;"/>
<line x1="191.000000" y1="155.000000" x2="194.000000" y2="154.000000"  transform="rotate(0.000000,194.000000,154.000000)" style="stroke: black; stroke-width:0.25;"/>
<line x1="191.000000" y1="161.000000" x2="194.000000" y2="162.000000"  transform="rotate(0.000000,194.000000,162.000000)" style="stroke: black; stroke-width:0.25;"/>
<line x1="191.000000" y1="163.000000" x2="194.000000" y2="162.000000"  transform="rotate(0.000000,194.000000,162.000000)" style="stroke: black; stroke-width:0.25;"/>
<rect x="235.000000" y="115.000000" width="24.000000" height="24.000000" rx="0" ry="0" style="stroke:none;fill:#cccccc;"/>
<rect x="234.000000" y="114.000000" width="24.000000" height="24.000000" rx="0" ry="0" style="stroke:none;fill:#4B71A1;"/>
<text x="246.000000" y="128.000000" font-family="Arial" font-size="7" text-anchor="middle" fill="#FFFFFF">+</text>
<circle cx="236.000000" cy="116.000000" r="1"/>
<line x1="231.000000" y1="121.000000" x2="234.000000" y2="122.000000"  transform="rotate(0.000000,234.000000,122.000000)" style="stroke: black; stroke-width:0.25;"/>
<line x1="231.000000" y1="123.000000" x2="234.000000" y2="122.000000"  transform="rotate(0.000000,234.000000,122.000000)" style="stroke: black; stroke-width:0.25;"/>
<line x1="231.000000" y1="129.000000" x2="234.000000" y2="130.000000"  transform="rotate(0.000000,234.000000,130.000000)" style="stroke: black; stroke-width:0.25;"/>
<line x1="231.000000" y1="131.000000" x2="234.000000" y2="130.000000"  transform="rotate(0.000000,234.000000,130.000000)" style="stroke: black; stroke-width:0.25;"/>
<line x1="73.000000" y1="25.000000" x2="73.000000" y2="227.000000"  style="stroke: black; stroke-linecap:round; stroke-width:0.25; stroke-dasharray:3,3;"/>
<line x1="73.000000" y1="227.000000" x2="267.000000" y2="227.000000"  style="stroke: black; stroke-linecap:round; stroke-width:0.25; stroke-dasharray:3,3;"/>
<line x1="267.000000" y1="227.000000" x2="267.000000" y2="25.000000"  style="stroke: black; stroke-linecap:round; stroke-width:0.25; stroke-dasharray:3,3;"/>
<line x1="73.000000" y1="25.000000" x2="78.000000" y2="25.000000"  style="stroke: black; stroke-linecap:round; stroke-width:0.25; stroke-dasharray:3,3;"/>
<line x1="87.675000" y1="25.000000" x2="267.000000" y2="25.000000"  style="stroke: black; stroke-linecap:round; stroke-width:0.25; stroke-dasharray:3,3;"/>
<text x="78.000000" y="27.000000" font-family="Arial" font-size="7">m</text>
<rect x="139.000000" y="247.000000" width="24.000000" height="24.000000" rx="0" ry="0" style="stroke:none;fill:#cccccc;"/>
<rect x="138.000000" y="246.000000" width="24.000000" height="24.000000" rx="0" ry="0" style="stroke:none;fill:#47945E;"/>
<text x="150.000000" y="260.000000" font-family="Arial" font-size="7" text-anchor="middle" fill="#FFFFFF">x</text>
<circle cx="140.000000" cy="248.000000" r="1"/>
<rect x="103.000000" y="279.000000" width="24.000000" height="24.000000" rx="0" ry="0" style="stroke:none;fill:#cccccc;"/>
<rect x="102.000000" y="278.000000" width="24.000000" height="24.000000" rx="0" ry="0" style="stroke:none;fill:#f44800;"/>
<text x="114.000000" y="292.000000" font-family="Arial" font-size="7" text-anchor="middle" fill="#FFFFFF">0</text>
<circle cx="104.000000" cy="280.000000" r="1"/>
<rect x="103.000000" y="311.000000" width="24.000000" height="24.000000" rx="0" ry="0" style="stroke:none;fill:#cccccc;"/>
<rect x="102.000000" y="310.000000" width="24.000000" height="24.000000" rx="0" ry="0" style="stroke:none;fill:#47945E;"/>
<text x="114.000000" y="324.000000" font-family="Arial" font-size="7" text-anchor="middle" fill="#FFFFFF">rad</text>
<circle cx="104.000000" cy="312.000000" r="1"/>
<rect x="143.000000" y="295.000000" width="24.000000" height="24.000000" rx="0" ry="0" style="stroke:none;fill:#cccccc;"/>
<rect x="142.000000" y="294.000000" width="24.000000" height="24.000000" rx="0" ry="0" style="stroke:none;fill:#4B71A1;"/>
<text x="154.000000" y="308.000000" font-family="Arial" font-size="7" text-anchor="middle" fill="#FFFFFF">-</text>
<circle cx="144.000000" cy="296.000000" r="1"/>
<line x1="139.000000" y1="301.000000" x2="142.000000" y2="302.000000"  transform="rotate(0.000000,142.000000,302.000000)" style="stroke: black; stroke-width:0.25;"/>
<line x1="139.000000" y1="303.000000" x2="142.000000" y2="302.000000"  transform="rotate(0.000000,142.000000,302.000000)" style="stroke: black; stroke-width:0.25;"/>
<line x1="139.000000" y1="309.000000" x2="142.000000" y2="310.000000"  transform="rotate(0.000000,142.000000,310.000000)" style="stroke: black; stroke-width:0.25;"/>
<line x1="139.000000" y1="311.000000" x2="142.000000" y2="310.000000"  transform="rotate(0.000000,142.000000,310.000000)" style="stroke: black; stroke-width:0.25;"/>
<rect x="175.000000" y="295.000000" width="24.000000" height="24.000000" rx="0" ry="0" style="stroke:none;fill:#cccccc;"/>
<rect x="174.000000" y="294.000000" width="24.000000" height="24.000000" rx="0" ry="0" style="stroke:none;fill:#4B71A1;"/>
<text x="186.000000" y="308.000000" font-family="Arial" font-size="7" text-anchor="middle" fill="#FFFFFF">sin</text>
<circle cx="176.000000" cy="296.000000" r="1"/>
<line x1="171.000000" y1="305.000000" x2="174.000000" y2="306.000000"  transform="rotate(0.000000,174.000000,306.000000)" style="stroke: black; stroke-width:0.25;"/>
<line x1="171.000000" y1="307.000000" x2="174.000000" y2="306.000000"  transform="rotate(0.000000,174.000000,306.000000)" style="stroke: black; stroke-width:0.25;"/>
<rect x="215.000000" y="279.000000" width="24.000000" height="24.000000" rx="0" ry="0" style="stroke:none;fill:#cccccc;"/>
<rect x="214.000000" y="278.000000" width="24.000000" height="24.000000" rx="0" ry="0" style="stroke:none;fill:#4B71A1;"/>
<text x="226.000000" y="292.000000" font-family="Arial" font-size="7" text-anchor="middle" fill="#FFFFFF">*</text>
<circle cx="216.000000" cy="280.000000" r="1"/>
<line x1="211.000000" y1="285.000000" x2="214.000000" y2="286.000000"  transform="rotate(0.000000,214.000000,286.000000)" style="stroke: black; stroke-width:0.25;"/>
<line x1="211.000000" y1="287.000000" x2="214.000000" y2="286.000000"  transform="rotate(0.000000,214.000000,286.000000)" style="stroke: black; stroke-width:0.25;"/>
<line x1="211.000000" y1="293.000000" x2="214.000000" y2="294.000000"  transform="rotate(0.000000,214.000000,294.000000)" style="stroke: black; stroke-width:0.25;"/>
<line x1="211.000000" y1="295.000000" x2="214.000000" y2="294.000000"  transform="rotate(0.000000,214.000000,294.000000)" style="stroke: black; stroke-width:0.25;"/>
<line x1="93.000000" y1="237.000000" x2="93.000000" y2="343.000000"  style="stroke: black; stroke-linecap:round; stroke-width:0.25; stroke-dasharray:3,3;"/>
<line x1="93.000000" y1="343.000000" x2="247.000000" y2="343.000000"  style="stroke: black; stroke-linecap:round; stroke-width:0.25; stroke-dasharray:3,3;"/>
<line x1="247.000000" y1="343.000000" x2="247.000000" y2="237.000000"  style="stroke: black; stroke-linecap:round; stroke-width:0.25; stroke-dasharray:3,3;"/>
<line x1="93.000000" y1="237.000000" x2="98.000000" y2="237.000000"  style="stroke: black; stroke-linecap:round; stroke-width:0.25; stroke-dasharray:3,3;"/>
<line x1="107.675000" y1="237.000000" x2="247.000000" y2="237.000000"  style="stroke: black; stroke-linecap:round; stroke-width:0.25; stroke-dasharray:3,3;"/>
<text x="98.000000" y="239.000000" font-family="Arial" font-size="7">s</text>
<line x1="15.000000" y1="15.000000" x2="15.000000" y2="353.000000"  style="stroke: black; stroke-linecap:round; stroke-width:0.25; stroke-dasharray:3,3;"/>
<line x1="15.000000" y1="353.000000" x2="293.000000" y2="353.000000"  style="stroke: black; stroke-linecap:round; stroke-width:0.25; stroke-dasharray:3,3;"/>
<line x1="293.000000" y1="353.000000" x2="293.000000" y2="15.000000"  style="stroke: black; stroke-linecap:round; stroke-width:0.25; stroke-dasharray:3,3;"/>
<line x1="15.000000" y1="15.000000" x2="20.000000" y2="15.000000"  style="stroke: black; stroke-linecap:round; stroke-width:0.25; stroke-dasharray:3,3;"/>
<line x1="49.025000" y1="15.000000" x2="293.000000" y2="15.000000"  style="stroke: black; stroke-linecap:round; stroke-width:0.25; stroke-dasharray:3,3;"/>
<text x="20.000000" y="17.000000" font-family="Arial" font-size="7">process</text>
<line x1="295.000000" y1="179.000000" x2="298.000000" y2="180.000000"  transform="rotate(0.000000,298.000000,180.000000)" style="stroke: black; stroke-width:0.25;"/>
<line x1="295.000000" y1="181.000000" x2="298.000000" y2="180.000000"  transform="rotate(0.000000,298.000000,180.000000)" style="stroke: black; stroke-width:0.25;"/>
<line x1="295.000000" y1="187.000000" x2="298.000000" y2="188.000000"  transform="rotate(0.000000,298.000000,188.000000)" style="stroke: black; stroke-width:0.25;"/>
<line x1="295.000000" y1="189.000000" x2="298.000000" y2="188.000000"  transform="rotate(0.000000,298.000000,188.000000)" style="stroke: black; stroke-width:0.25;"/>
<line x1="10.000000" y1="176.000000" x2="20.000000" y2="176.000000"  style="stroke:black; stroke-linecap:round; stroke-width:0.25;"/>
<line x1="10.000000" y1="184.000000" x2="20.000000" y2="184.000000"  style="stroke:black; stroke-linecap:round; stroke-width:0.25;"/>
<line x1="10.000000" y1="192.000000" x2="20.000000" y2="192.000000"  style="stroke:black; stroke-linecap:round; stroke-width:0.25;"/>
<line x1="20.000000" y1="176.000000" x2="24.000000" y2="176.000000"  style="stroke:black; stroke-linecap:round; stroke-width:0.25;"/>
<line x1="20.000000" y1="184.000000" x2="24.000000" y2="184.000000"  style="stroke:black; stroke-linecap:round; stroke-width:0.25;"/>
<line x1="20.000000" y1="192.000000" x2="24.000000" y2="192.000000"  style="stroke:black; stroke-linecap:round; stroke-width:0.25;"/>
<line x1="24.000000" y1="176.000000" x2="28.000000" y2="176.000000"  style="stroke:black; stroke-linecap:round; stroke-width:0.25;"/>
<line x1="24.000000" y1="184.000000" x2="28.000000" y2="184.000000"  style="stroke:black; stroke-linecap:round; stroke-width:0.25;"/>
<line x1="24.000000" y1="192.000000" x2="28.000000" y2="192.000000"  style="stroke:black; stroke-linecap:round; stroke-width:0.25;"/>
<line x1="28.000000" y1="152.000000" x2="36.000000" y2="152.000000"  style="stroke:black; stroke-linecap:round; stroke-width:0.25;"/>
<line x1="28.000000" y1="176.000000" x2="28.000000" y2="152.000000"  style="stroke:black; stroke-linecap:round; stroke-width:0.25;"/>
<line x1="28.000000" y1="176.000000" x2="28.000000" y2="176.000000"  style="stroke:black; stroke-linecap:round; stroke-width:0.25;"/>
<line x1="28.000000" y1="184.000000" x2="36.000000" y2="184.000000"  style="stroke:black; stroke-linecap:round; stroke-width:0.25;"/>
<line x1="28.000000" y1="192.000000" x2="36.000000" y2="192.000000"  style="stroke:black; stroke-linecap:round; stroke-width:0.25;"/>
<line x1="36.000000" y1="152.000000" x2="40.000000" y2="152.000000"  style="stroke:black; stroke-linecap:round; stroke-width:0.25;"/>
<line x1="36.000000" y1="184.000000" x2="40.000000" y2="184.000000"  style="stroke:black; stroke-linecap:round; stroke-width:0.25;"/>
<line x1="36.000000" y1="192.000000" x2="36.000000" y2="216.000000"  style="stroke:black; stroke-linecap:round; stroke-width:0.25;"/>
<line x1="36.000000" y1="216.000000" x2="36.000000" y2="216.000000"  style="stroke:black; stroke-linecap:round; stroke-width:0.25;"/>
<line x1="36.000000" y1="216.000000" x2="40.000000" y2="216.000000"  style="stroke:black; stroke-linecap:round; stroke-width:0.25;"/>
<line x1="106.000000" y1="206.000000" x2="110.000000" y2="206.000000"  style="stroke:black; stroke-linecap:round; stroke-width:0.25;"/>
<line x1="110.000000" y1="206.000000" x2="110.000000" y2="206.000000"  style="stroke:black; stroke-linecap:round; stroke-width:0.25;"/>
<line x1="110.000000" y1="206.000000" x2="114.000000" y2="206.000000"  style="stroke:black; stroke-linecap:round; stroke-width:0.25;"/>
<line x1="122.000000" y1="110.000000" x2="126.000000" y2="110.000000"  style="stroke:black; stroke-linecap:round; stroke-width:0.25;"/>
<line x1="122.000000" y1="142.000000" x2="126.000000" y2="142.000000"  style="stroke:black; stroke-linecap:round; stroke-width:0.25;"/>
<line x1="122.000000" y1="174.000000" x2="126.000000" y2="174.000000"  style="stroke:black; stroke-linecap:round; stroke-width:0.25;"/>
<line x1="126.000000" y1="110.000000" x2="134.000000" y2="110.000000"  style="stroke:black; stroke-linecap:round; stroke-width:0.25;"/>
<line x1="126.000000" y1="130.000000" x2="134.000000" y2="130.000000"  style="stroke:black; stroke-linecap:round; stroke-width:0.25;"/>
<line x1="126.000000" y1="142.000000" x2="126.000000" y2="130.000000"  style="stroke:black; stroke-linecap:round; stroke-width:0.25;"/>
<line x1="126.000000" y1="142.000000" x2="126.000000" y2="142.000000"  style="stroke:black; stroke-linecap:round; stroke-width:0.25;"/>
<line x1="126.000000" y1="174.000000" x2="142.000000" y2="174.000000"  style="stroke:black; stroke-linecap:round; stroke-width:0.25;"/>
<line x1="126.000000" y1="290.000000" x2="130.000000" y2="290.000000"  style="stroke:black; stroke-linecap:round; stroke-width:0.25;"/>
<line x1="126.000000" y1="322.000000" x2="130.000000" y2="322.000000"  style="stroke:black; stroke-linecap:round; stroke-width:0.25;"/>
<line x1="130.000000" y1="290.000000" x2="138.000000" y2="290.000000"  style="stroke:black; stroke-linecap:round; stroke-width:0.25;"/>
<line x1="130.000000" y1="310.000000" x2="138.000000" y2="310.000000"  style="stroke:black; stroke-linecap:round; stroke-width:0.25;"/>
<line x1="130.000000" y1="322.000000" x2="130.000000" y2="310.000000"  style="stroke:black; stroke-linecap:round; stroke-width:0.25;"/>
<line x1="130.000000" y1="322.000000" x2="130.000000" y2="322.000000"  style="stroke:black; stroke-linecap:round; stroke-width:0.25;"/>
<line x1="134.000000" y1="110.000000" x2="134.000000" y2="122.000000"  style="stroke:black; stroke-linecap:round; stroke-width:0.25;"/>
<line x1="134.000000" y1="122.000000" x2="134.000000" y2="122.000000"  style="stroke:black; stroke-linecap:round; stroke-width:0.25;"/>
<line x1="134.000000" y1="122.000000" x2="138.000000" y2="122.000000"  style="stroke:black; stroke-linecap:round; stroke-width:0.25;"/>
<line x1="134.000000" y1="130.000000" x2="138.000000" y2="130.000000"  style="stroke:black; stroke-linecap:round; stroke-width:0.25;"/>
<line x1="138.000000" y1="206.000000" x2="142.000000" y2="206.000000"  style="stroke:black; stroke-linecap:round; stroke-width:0.25;"/>
<line x1="138.000000" y1="290.000000" x2="138.000000" y2="302.000000"  style="stroke:black; stroke-linecap:round; stroke-width:0.25;"/>
<line x1="138.000000" y1="302.000000" x2="138.000000" y2="302.000000"  style="stroke:black; stroke-linecap:round; stroke-width:0.25;"/>
<line x1="138.000000" y1="302.000000" x2="142.000000" y2="302.000000"  style="stroke:black; stroke-linecap:round; stroke-width:0.25;"/>
<line x1="138.000000" y1="310.000000" x2="142.000000" y2="310.000000"  style="stroke:black; stroke-linecap:round; stroke-width:0.25;"/>
<line x1="142.000000" y1="46.000000" x2="146.000000" y2="46.000000"  style="stroke:black; stroke-linecap:round; stroke-width:0.25;"/>
<line x1="142.000000" y1="78.000000" x2="146.000000" y2="78.000000"  style="stroke:black; stroke-linecap:round; stroke-width:0.25;"/>
<line x1="142.000000" y1="174.000000" x2="150.000000" y2="174.000000"  style="stroke:black; stroke-linecap:round; stroke-width:0.25;"/>
<line x1="142.000000" y1="194.000000" x2="150.000000" y2="194.000000"  style="stroke:black; stroke-linecap:round; stroke-width:0.25;"/>
<line x1="142.000000" y1="206.000000" x2="142.000000" y2="194.000000"  style="stroke:black; stroke-linecap:round; stroke-width:0.25;"/>
<line x1="142.000000" y1="206.000000" x2="142.000000" y2="206.000000"  style="stroke:black; stroke-linecap:round; stroke-width:0.25;"/>
<line x1="146.000000" y1="46.000000" x2="154.000000" y2="46.000000"  style="stroke:black; stroke-linecap:round; stroke-width:0.25;"/>
<line x1="146.000000" y1="66.000000" x2="154.000000" y2="66.000000"  style="stroke:black; stroke-linecap:round; stroke-width:0.25;"/>
<line x1="146.000000" y1="78.000000" x2="146.000000" y2="66.000000"  style="stroke:black; stroke-linecap:round; stroke-width:0.25;"/>
<line x1="146.000000" y1="78.000000" x2="146.000000" y2="78.000000"  style="stroke:black; stroke-linecap:round; stroke-width:0.25;"/>
<line x1="150.000000" y1="174.000000" x2="150.000000" y2="186.000000"  style="stroke:black; stroke-linecap:round; stroke-width:0.25;"/>
<line x1="150.000000" y1="186.000000" x2="150.000000" y2="186.000000"  style="stroke:black; stroke-linecap:round; stroke-width:0.25;"/>
<line x1="150.000000" y1="186.000000" x2="154.000000" y2="186.000000"  style="stroke:black; stroke-linecap:round; stroke-width:0.25;"/>
<line x1="150.000000" y1="194.000000" x2="154.000000" y2="194.000000"  style="stroke:black; stroke-linecap:round; stroke-width:0.25;"/>
<line x1="154.000000" y1="46.000000" x2="154.000000" y2="58.000000"  style="stroke:black; stroke-linecap:round; stroke-width:0.25;"/>
<line x1="154.000000" y1="58.000000" x2="154.000000" y2="58.000000"  style="stroke:black; stroke-linecap:round; stroke-width:0.25;"/>
<line x1="154.000000" y1="58.000000" x2="158.000000" y2="58.000000"  style="stroke:black; stroke-linecap:round; stroke-width:0.25;"/>
<line x1="154.000000" y1="66.000000" x2="158.000000" y2="66.000000"  style="stroke:black; stroke-linecap:round; stroke-width:0.25;"/>
<line x1="162.000000" y1="126.000000" x2="166.000000" y2="126.000000"  style="stroke:black; stroke-linecap:round; stroke-width:0.25;"/>
<line x1="162.000000" y1="258.000000" x2="166.000000" y2="258.000000"  style="stroke:black; stroke-linecap:round; stroke-width:0.25;"/>
<line x1="166.000000" y1="126.000000" x2="182.000000" y2="126.000000"  style="stroke:black; stroke-linecap:round; stroke-width:0.25;"/>
<line x1="166.000000" y1="258.000000" x2="202.000000" y2="258.000000"  style="stroke:black; stroke-linecap:round; stroke-width:0.25;"/>
<line x1="166.000000" y1="306.000000" x2="170.000000" y2="306.000000"  style="stroke:black; stroke-linecap:round; stroke-width:0.25;"/>
<line x1="170.000000" y1="306.000000" x2="170.000000" y2="306.000000"  style="stroke:black; stroke-linecap:round; stroke-width:0.25;"/>
<line x1="170.000000" y1="306.000000" x2="174.000000" y2="306.000000"  style="stroke:black; stroke-linecap:round; stroke-width:0.25;"/>
<line x1="178.000000" y1="190.000000" x2="182.000000" y2="190.000000"  style="stroke:black; stroke-linecap:round; stroke-width:0.25;"/>
<line x1="182.000000" y1="62.000000" x2="186.000000" y2="62.000000"  style="stroke:black; stroke-linecap:round; stroke-width:0.25;"/>
<line x1="182.000000" y1="126.000000" x2="190.000000" y2="126.000000"  style="stroke:black; stroke-linecap:round; stroke-width:0.25;"/>
<line x1="182.000000" y1="162.000000" x2="190.000000" y2="162.000000"  style="stroke:black; stroke-linecap:round; stroke-width:0.25;"/>
<line x1="182.000000" y1="190.000000" x2="182.000000" y2="162.000000"  style="stroke:black; stroke-linecap:round; stroke-width:0.25;"/>
<line x1="182.000000" y1="190.000000" x2="182.000000" y2="190.000000"  style="stroke:black; stroke-linecap:round; stroke-width:0.25;"/>
<line x1="186.000000" y1="62.000000" x2="222.000000" y2="62.000000"  style="stroke:black; stroke-linecap:round; stroke-width:0.25;"/>
<line x1="190.000000" y1="126.000000" x2="190.000000" y2="154.000000"  style="stroke:black; stroke-linecap:round; stroke-width:0.25;"/>
<line x1="190.000000" y1="154.000000" x2="190.000000" y2="154.000000"  style="stroke:black; stroke-linecap:round; stroke-width:0.25;"/>
<line x1="190.000000" y1="154.000000" x2="194.000000" y2="154.000000"  style="stroke:black; stroke-linecap:round; stroke-width:0.25;"/>
<line x1="190.000000" y1="162.000000" x2="194.000000" y2="162.000000"  style="stroke:black; stroke-linecap:round; stroke-width:0.25;"/>
<line x1="198.000000" y1="306.000000" x2="202.000000" y2="306.000000"  style="stroke:black; stroke-linecap:round; stroke-width:0.25;"/>
<line x1="202.000000" y1="258.000000" x2="210.000000" y2="258.000000"  style="stroke:black; stroke-linecap:round; stroke-width:0.25;"/>
<line x1="202.000000" y1="294.000000" x2="210.000000" y2="294.000000"  style="stroke:black; stroke-linecap:round; stroke-width:0.25;"/>
<line x1="202.000000" y1="306.000000" x2="202.000000" y2="294.000000"  style="stroke:black; stroke-linecap:round; stroke-width:0.25;"/>
<line x1="202.000000" y1="306.000000" x2="202.000000" y2="306.000000"  style="stroke:black; stroke-linecap:round; stroke-width:0.25;"/>
<line x1="210.000000" y1="258.000000" x2="210.000000" y2="286.000000"  style="stroke:black; stroke-linecap:round; stroke-width:0.25;"/>
<line x1="210.000000" y1="286.000000" x2="210.000000" y2="286.000000"  style="stroke:black; stroke-linecap:round; stroke-width:0.25;"/>
<line x1="210.000000" y1="286.000000" x2="214.000000" y2="286.000000"  style="stroke:black; stroke-linecap:round; stroke-width:0.25;"/>
<line x1="210.000000" y1="294.000000" x2="214.000000" y2="294.000000"  style="stroke:black; stroke-linecap:round; stroke-width:0.25;"/>
<line x1="218.000000" y1="158.000000" x2="222.000000" y2="158.000000"  style="stroke:black; stroke-linecap:round; stroke-width:0.25;"/>
<line x1="222.000000" y1="62.000000" x2="230.000000" y2="62.000000"  style="stroke:black; stroke-linecap:round; stroke-width:0.25;"/>
<line x1="222.000000" y1="130.000000" x2="230.000000" y2="130.000000"  style="stroke:black; stroke-linecap:round; stroke-width:0.25;"/>
<line x1="222.000000" y1="158.000000" x2="222.000000" y2="130.000000"  style="stroke:black; stroke-linecap:round; stroke-width:0.25;"/>
<line x1="222.000000" y1="158.000000" x2="222.000000" y2="158.000000"  style="stroke:black; stroke-linecap:round; stroke-width:0.25;"/>
<line x1="230.000000" y1="62.000000" x2="230.000000" y2="122.000000"  style="stroke:black; stroke-linecap:round; stroke-width:0.25;"/>
<line x1="230.000000" y1="122.000000" x2="230.000000" y2="122.000000"  style="stroke:black; stroke-linecap:round; stroke-width:0.25;"/>
<line x1="230.000000" y1="122.000000" x2="234.000000" y2="122.000000"  style="stroke:black; stroke-linecap:round; stroke-width:0.25;"/>
<line x1="230.000000" y1="130.000000" x2="234.000000" y2="130.000000"  style="stroke:black; stroke-linecap:round; stroke-width:0.25;"/>
<line x1="238.000000" y1="290.000000" x2="242.000000" y2="290.000000"  style="stroke:black; stroke-linecap:round; stroke-width:0.25;"/>
<line x1="242.000000" y1="290.000000" x2="252.000000" y2="290.000000"  style="stroke:black; stroke-linecap:round; stroke-width:0.25;"/>
<line x1="252.000000" y1="290.000000" x2="272.000000" y2="290.000000"  style="stroke:black; stroke-linecap:round; stroke-width:0.25;"/>
<line x1="258.000000" y1="126.000000" x2="262.000000" y2="126.000000"  style="stroke:black; stroke-linecap:round; stroke-width:0.25;"/>
<line x1="262.000000" y1="126.000000" x2="272.000000" y2="126.000000"  style="stroke:black; stroke-linecap:round; stroke-width:0.25;"/>
<line x1="272.000000" y1="126.000000" x2="280.000000" y2="126.000000"  style="stroke:black; stroke-linecap:round; stroke-width:0.25;"/>
<line x1="272.000000" y1="188.000000" x2="280.000000" y2="188.000000"  style="stroke:black; stroke-linecap:round; stroke-width:0.25;"/>
<line x1="272.000000" y1="290.000000" x2="272.000000" y2="188.000000"  style="stroke:black; stroke-linecap:round; stroke-width:0.25;"/>
<line x1="272.000000" y1="290.000000" x2="272.000000" y2="290.000000"  style="stroke:black; stroke-linecap:round; stroke-width:0.25;"/>
<line x1="280.000000" y1="126.000000" x2="280.000000" y2="180.000000"  style="stroke:black; stroke-linecap:round; stroke-width:0.25;"/>
<line x1="280.000000" y1="180.000000" x2="280.000000" y2="180.000000"  style="stroke:black; stroke-linecap:round; stroke-width:0.25;"/>
<line x1="280.000000" y1="180.000000" x2="284.000000" y2="180.000000"  style="stroke:black; stroke-linecap:round; stroke-width:0.25;"/>
<line x1="280.000000" y1="188.000000" x2="284.000000" y2="188.000000"  style="stroke:black; stroke-linecap:round; stroke-width:0.25;"/>
<line x1="284.000000" y1="180.000000" x2="288.000000" y2="180.000000"  style="stroke:black; stroke-linecap:round; stroke-width:0.25;"/>
<line x1="284.000000" y1="188.000000" x2="288.000000" y2="188.000000"  style="stroke:black; stroke-linecap:round; stroke-width:0.25;"/>
<line x1="288.000000" y1="180.000000" x2="298.000000" y2="180.000000"  style="stroke:black; stroke-linecap:round; stroke-width:0.25;"/>
<line x1="288.000000" y1="188.000000" x2="298.000000" y2="188.000000"  style="stroke:black; stroke-linecap:round; stroke-width:0.25;"/>
</svg>
