<?xml version="1.0"?>
<svg xmlns="http://www.w3.org/2000/svg" xmlns:xlink="http://www.w3.org/1999/xlink" viewBox="0 0 272.000000 184.000000" width="136.000000mm" height="92.000000mm" version="1.1">
<a xlink:href="process.svg">
<rect x="1.000000" y="1.000000" width="271.000000" height="183.000000" rx="0" ry="0" style="stroke:none;fill:#cccccc;"/>
<rect x="0.000000" y="0.000000" width="271.000000" height="183.000000" rx="0" ry="0" style="stroke:none;fill:#ffffff;"/>
</a>
<text x="10.000000" y="7.000000" font-family="Arial" font-size="7"></text>
<rect x="41.000000" y="65.000000" width="24.000000" height="24.000000" rx="0" ry="0" style="stroke:none;fill:#cccccc;"/>
<rect x="40.000000" y="64.000000" width="24.000000" height="24.000000" rx="0" ry="0" style="stroke:none;fill:#47945E;"/>
<text x="52.000000" y="78.000000" font-family="Arial" font-size="7" text-anchor="middle" fill="#FFFFFF">x</text>
<circle cx="42.000000" cy="66.000000" r="1"/>
<line x1="37.000000" y1="75.000000" x2="40.000000" y2="76.000000"  transform="rotate(0.000000,40.000000,76.000000)" style="stroke: black; stroke-width:0.25;"/>
<line x1="37.000000" y1="77.000000" x2="40.000000" y2="76.000000"  transform="rotate(0.000000,40.000000,76.000000)" style="stroke: black; stroke-width:0.25;"/>
<rect x="41.000000" y="97.000000" width="24.000000" height="24.000000" rx="0" ry="0" style="stroke:none;fill:#cccccc;"/>
<rect x="40.000000" y="96.000000" width="24.000000" height="24.000000" rx="0" ry="0" style="stroke:none;fill:#47945E;"/>
<text x="52.000000" y="110.000000" font-family="Arial" font-size="7" text-anchor="middle" fill="#FFFFFF">gx</text>
<circle cx="42.000000" cy="98.000000" r="1"/>
<line x1="37.000000" y1="107.000000" x2="40.000000" y2="108.000000"  transform="rotate(0.000000,40.000000,108.000000)" style="stroke: black; stroke-width:0.25;"/>
<line x1="37.000000" y1="109.000000" x2="40.000000" y2="108.000000"  transform="rotate(0.000000,40.000000,108.000000)" style="stroke: black; stroke-width:0.25;"/>
<rect x="101.000000" y="73.000000" width="24.000000" height="24.000000" rx="0" ry="0" style="stroke:none;fill:#cccccc;"/>
<rect x="100.000000" y="72.000000" width="24.000000" height="24.000000" rx="0" ry="0" style="stroke:none;fill:#47945E;"/>
<text x="112.000000" y="86.000000" font-family="Arial" font-size="7" text-anchor="middle" fill="#FFFFFF">x</text>
<circle cx="102.000000" cy="74.000000" r="1"/>
<rect x="81.000000" y="105.000000" width="24.000000" height="24.000000" rx="0" ry="0" style="stroke:none;fill:#cccccc;"/>
<rect x="80.000000" y="104.000000" width="24.000000" height="24.000000" rx="0" ry="0" style="stroke:none;fill:#f44800;"/>
<text x="92.000000" y="118.000000" font-family="Arial" font-size="7" text-anchor="middle" fill="#FFFFFF">1</text>
<circle cx="82.000000" cy="106.000000" r="1"/>
<rect x="81.000000" y="137.000000" width="24.000000" height="24.000000" rx="0" ry="0" style="stroke:none;fill:#cccccc;"/>
<rect x="80.000000" y="136.000000" width="24.000000" height="24.000000" rx="0" ry="0" style="stroke:none;fill:#47945E;"/>
<text x="92.000000" y="150.000000" font-family="Arial" font-size="7" text-anchor="middle" fill="#FFFFFF">gx</text>
<circle cx="82.000000" cy="138.000000" r="1"/>
<rect x="121.000000" y="121.000000" width="24.000000" height="24.000000" rx="0" ry="0" style="stroke:none;fill:#cccccc;"/>
<rect x="120.000000" y="120.000000" width="24.000000" height="24.000000" rx="0" ry="0" style="stroke:none;fill:#4B71A1;"/>
<text x="132.000000" y="134.000000" font-family="Arial" font-size="7" text-anchor="middle" fill="#FFFFFF">-</text>
<circle cx="122.000000" cy="122.000000" r="1"/>
<line x1="117.000000" y1="127.000000" x2="120.000000" y2="128.000000"  transform="rotate(0.000000,120.000000,128.000000)" style="stroke: black; stroke-width:0.25;"/>
<line x1="117.000000" y1="129.000000" x2="120.000000" y2="128.000000"  transform="rotate(0.000000,120.000000,128.000000)" style="stroke: black; stroke-width:0.25;"/>
<line x1="117.000000" y1="135.000000" x2="120.000000" y2="136.000000"  transform="rotate(0.000000,120.000000,136.000000)" style="stroke: black; stroke-width:0.25;"/>
<line x1="117.000000" y1="137.000000" x2="120.000000" y2="136.000000"  transform="rotate(0.000000,120.000000,136.000000)" style="stroke: black; stroke-width:0.25;"/>
<rect x="161.000000" y="105.000000" width="24.000000" height="24.000000" rx="0" ry="0" style="stroke:none;fill:#cccccc;"/>
<rect x="160.000000" y="104.000000" width="24.000000" height="24.000000" rx="0" ry="0" style="stroke:none;fill:#4B71A1;"/>
<text x="172.000000" y="118.000000" font-family="Arial" font-size="7" text-anchor="middle" fill="#FFFFFF">*</text>
<circle cx="162.000000" cy="106.000000" r="1"/>
<line x1="157.000000" y1="111.000000" x2="160.000000" y2="112.000000"  transform="rotate(0.000000,160.000000,112.000000)" style="stroke: black; stroke-width:0.25;"/>
<line x1="157.000000" y1="113.000000" x2="160.000000" y2="112.000000"  transform="rotate(0.000000,160.000000,112.000000)" style="stroke: black; stroke-width:0.25;"/>
<line x1="157.000000" y1="119.000000" x2="160.000000" y2="120.000000"  transform="rotate(0.000000,160.000000,120.000000)" style="stroke: black; stroke-width:0.25;"/>
<line x1="157.000000" y1="121.000000" x2="160.000000" y2="120.000000"  transform="rotate(0.000000,160.000000,120.000000)" style="stroke: black; stroke-width:0.25;"/>
<rect x="201.000000" y="101.000000" width="24.000000" height="24.000000" rx="0" ry="0" style="stroke:none;fill:#cccccc;"/>
<rect x="200.000000" y="100.000000" width="24.000000" height="24.000000" rx="0" ry="0" style="stroke:none;fill:#4B71A1;"/>
<text x="212.000000" y="114.000000" font-family="Arial" font-size="7" text-anchor="middle" fill="#FFFFFF">+</text>
<circle cx="202.000000" cy="102.000000" r="1"/>
<line x1="197.000000" y1="107.000000" x2="200.000000" y2="108.000000"  transform="rotate(0.000000,200.000000,108.000000)" style="stroke: black; stroke-width:0.25;"/>
<line x1="197.000000" y1="109.000000" x2="200.000000" y2="108.000000"  transform="rotate(0.000000,200.000000,108.000000)" style="stroke: black; stroke-width:0.25;"/>
<line x1="197.000000" y1="115.000000" x2="200.000000" y2="116.000000"  transform="rotate(0.000000,200.000000,116.000000)" style="stroke: black; stroke-width:0.25;"/>
<line x1="197.000000" y1="117.000000" x2="200.000000" y2="116.000000"  transform="rotate(0.000000,200.000000,116.000000)" style="stroke: black; stroke-width:0.25;"/>
<rect x="161.000000" y="25.000000" width="24.000000" height="24.000000" rx="0" ry="0" style="stroke:none;fill:#cccccc;"/>
<rect x="160.000000" y="24.000000" width="24.000000" height="24.000000" rx="0" ry="0" style="stroke:none;fill:#47945E;"/>
<text x="172.000000" y="38.000000" font-family="Arial" font-size="7" text-anchor="middle" fill="#FFFFFF">gx</text>
<circle cx="182.000000" cy="46.000000" r="1"/>
<rect x="121.000000" y="29.000000" width="24.000000" height="24.000000" rx="0" ry="0" style="stroke:none;fill:#cccccc;"/>
<rect x="120.000000" y="28.000000" width="24.000000" height="24.000000" rx="0" ry="0" style="stroke:none;fill:#4B71A1;"/>
<text x="132.000000" y="42.000000" font-family="Arial" font-size="7" text-anchor="middle" fill="#FFFFFF">*</text>
<circle cx="142.000000" cy="50.000000" r="1"/>
<line x1="147.000000" y1="43.000000" x2="144.000000" y2="44.000000"  transform="rotate(0.000000,144.000000,44.000000)" style="stroke: black; stroke-width:0.25;"/>
<line x1="147.000000" y1="45.000000" x2="144.000000" y2="44.000000"  transform="rotate(0.000000,144.000000,44.000000)" style="stroke: black; stroke-width:0.25;"/>
<line x1="147.000000" y1="35.000000" x2="144.000000" y2="36.000000"  transform="rotate(0.000000,144.000000,36.000000)" style="stroke: black; stroke-width:0.25;"/>
<line x1="147.000000" y1="37.000000" x2="144.000000" y2="36.000000"  transform="rotate(0.000000,144.000000,36.000000)" style="stroke: black; stroke-width:0.25;"/>
<line x1="226.000000" y1="112.000000" x2="226.000000" y2="108.000000"  style="stroke:black; stroke-linecap:round; stroke-width:0.25;"/>
<line x1="226.000000" y1="108.000000" x2="230.000000" y2="108.000000"  style="stroke:black; stroke-linecap:round; stroke-width:0.25;"/>
<line x1="230.000000" y1="108.000000" x2="230.000000" y2="112.000000"  style="stroke:black; stroke-linecap:round; stroke-width:0.25;"/>
<line x1="15.000000" y1="15.000000" x2="15.000000" y2="169.000000"  style="stroke: black; stroke-linecap:round; stroke-width:0.25; stroke-dasharray:3,3;"/>
<line x1="15.000000" y1="169.000000" x2="257.000000" y2="169.000000"  style="stroke: black; stroke-linecap:round; stroke-width:0.25; stroke-dasharray:3,3;"/>
<line x1="257.000000" y1="169.000000" x2="257.000000" y2="15.000000"  style="stroke: black; stroke-linecap:round; stroke-width:0.25; stroke-dasharray:3,3;"/>
<line x1="15.000000" y1="15.000000" x2="20.000000" y2="15.000000"  style="stroke: black; stroke-linecap:round; stroke-width:0.25; stroke-dasharray:3,3;"/>
<line x1="42.575000" y1="15.000000" x2="257.000000" y2="15.000000"  style="stroke: black; stroke-linecap:round; stroke-width:0.25; stroke-dasharray:3,3;"/>
<text x="20.000000" y="17.000000" font-family="Arial" font-size="7">amare</text>
<line x1="259.000000" y1="91.000000" x2="262.000000" y2="92.000000"  transform="rotate(0.000000,262.000000,92.000000)" style="stroke: black; stroke-width:0.25;"/>
<line x1="259.000000" y1="93.000000" x2="262.000000" y2="92.000000"  transform="rotate(0.000000,262.000000,92.000000)" style="stroke: black; stroke-width:0.25;"/>
<line x1="10.000000" y1="88.000000" x2="20.000000" y2="88.000000"  style="stroke:black; stroke-linecap:round; stroke-width:0.25;"/>
<line x1="10.000000" y1="96.000000" x2="20.000000" y2="96.000000"  style="stroke:black; stroke-linecap:round; stroke-width:0.25;"/>
<line x1="20.000000" y1="88.000000" x2="24.000000" y2="88.000000"  style="stroke:black; stroke-linecap:round; stroke-width:0.25;"/>
<line x1="20.000000" y1="96.000000" x2="24.000000" y2="96.000000"  style="stroke:black; stroke-linecap:round; stroke-width:0.25;"/>
<line x1="24.000000" y1="88.000000" x2="28.000000" y2="88.000000"  style="stroke:black; stroke-linecap:round; stroke-width:0.25;"/>
<line x1="24.000000" y1="96.000000" x2="28.000000" y2="96.000000"  style="stroke:black; stroke-linecap:round; stroke-width:0.25;"/>
<line x1="28.000000" y1="76.000000" x2="36.000000" y2="76.000000"  style="stroke:black; stroke-linecap:round; stroke-width:0.25;"/>
<line x1="28.000000" y1="88.000000" x2="28.000000" y2="76.000000"  style="stroke:black; stroke-linecap:round; stroke-width:0.25;"/>
<line x1="28.000000" y1="88.000000" x2="28.000000" y2="88.000000"  style="stroke:black; stroke-linecap:round; stroke-width:0.25;"/>
<line x1="28.000000" y1="96.000000" x2="36.000000" y2="96.000000"  style="stroke:black; stroke-linecap:round; stroke-width:0.25;"/>
<line x1="36.000000" y1="76.000000" x2="40.000000" y2="76.000000"  style="stroke:black; stroke-linecap:round; stroke-width:0.25;"/>
<line x1="36.000000" y1="96.000000" x2="36.000000" y2="108.000000"  style="stroke:black; stroke-linecap:round; stroke-width:0.25;"/>
<line x1="36.000000" y1="108.000000" x2="36.000000" y2="108.000000"  style="stroke:black; stroke-linecap:round; stroke-width:0.25;"/>
<line x1="36.000000" y1="108.000000" x2="40.000000" y2="108.000000"  style="stroke:black; stroke-linecap:round; stroke-width:0.25;"/>
<line x1="76.000000" y1="40.000000" x2="76.000000" y2="40.000000"  style="stroke:black; stroke-linecap:round; stroke-width:0.25;"/>
<line x1="76.000000" y1="40.000000" x2="76.000000" y2="64.000000"  style="stroke:black; stroke-linecap:round; stroke-width:0.25;"/>
<line x1="76.000000" y1="64.000000" x2="76.000000" y2="64.000000"  style="stroke:black; stroke-linecap:round; stroke-width:0.25;"/>
<line x1="76.000000" y1="64.000000" x2="132.000000" y2="64.000000"  style="stroke:black; stroke-linecap:round; stroke-width:0.25;"/>
<line x1="104.000000" y1="116.000000" x2="108.000000" y2="116.000000"  style="stroke:black; stroke-linecap:round; stroke-width:0.25;"/>
<line x1="104.000000" y1="148.000000" x2="108.000000" y2="148.000000"  style="stroke:black; stroke-linecap:round; stroke-width:0.25;"/>
<line x1="108.000000" y1="116.000000" x2="116.000000" y2="116.000000"  style="stroke:black; stroke-linecap:round; stroke-width:0.25;"/>
<line x1="108.000000" y1="136.000000" x2="116.000000" y2="136.000000"  style="stroke:black; stroke-linecap:round; stroke-width:0.25;"/>
<line x1="108.000000" y1="148.000000" x2="108.000000" y2="136.000000"  style="stroke:black; stroke-linecap:round; stroke-width:0.25;"/>
<line x1="108.000000" y1="148.000000" x2="108.000000" y2="148.000000"  style="stroke:black; stroke-linecap:round; stroke-width:0.25;"/>
<line x1="116.000000" y1="40.000000" x2="76.000000" y2="40.000000"  style="stroke:black; stroke-linecap:round; stroke-width:0.25;"/>
<line x1="116.000000" y1="116.000000" x2="116.000000" y2="128.000000"  style="stroke:black; stroke-linecap:round; stroke-width:0.25;"/>
<line x1="116.000000" y1="128.000000" x2="116.000000" y2="128.000000"  style="stroke:black; stroke-linecap:round; stroke-width:0.25;"/>
<line x1="116.000000" y1="128.000000" x2="120.000000" y2="128.000000"  style="stroke:black; stroke-linecap:round; stroke-width:0.25;"/>
<line x1="116.000000" y1="136.000000" x2="120.000000" y2="136.000000"  style="stroke:black; stroke-linecap:round; stroke-width:0.25;"/>
<line x1="120.000000" y1="40.000000" x2="116.000000" y2="40.000000"  style="stroke:black; stroke-linecap:round; stroke-width:0.25;"/>
<line x1="124.000000" y1="84.000000" x2="128.000000" y2="84.000000"  style="stroke:black; stroke-linecap:round; stroke-width:0.25;"/>
<line x1="128.000000" y1="84.000000" x2="148.000000" y2="84.000000"  style="stroke:black; stroke-linecap:round; stroke-width:0.25;"/>
<line x1="132.000000" y1="64.000000" x2="188.000000" y2="64.000000"  style="stroke:black; stroke-linecap:round; stroke-width:0.25;"/>
<line x1="144.000000" y1="132.000000" x2="148.000000" y2="132.000000"  style="stroke:black; stroke-linecap:round; stroke-width:0.25;"/>
<line x1="148.000000" y1="36.000000" x2="144.000000" y2="36.000000"  style="stroke:black; stroke-linecap:round; stroke-width:0.25;"/>
<line x1="148.000000" y1="44.000000" x2="144.000000" y2="44.000000"  style="stroke:black; stroke-linecap:round; stroke-width:0.25;"/>
<line x1="148.000000" y1="44.000000" x2="148.000000" y2="44.000000"  style="stroke:black; stroke-linecap:round; stroke-width:0.25;"/>
<line x1="148.000000" y1="56.000000" x2="148.000000" y2="44.000000"  style="stroke:black; stroke-linecap:round; stroke-width:0.25;"/>
<line x1="148.000000" y1="84.000000" x2="156.000000" y2="84.000000"  style="stroke:black; stroke-linecap:round; stroke-width:0.25;"/>
<line x1="148.000000" y1="120.000000" x2="156.000000" y2="120.000000"  style="stroke:black; stroke-linecap:round; stroke-width:0.25;"/>
<line x1="148.000000" y1="132.000000" x2="148.000000" y2="120.000000"  style="stroke:black; stroke-linecap:round; stroke-width:0.25;"/>
<line x1="148.000000" y1="132.000000" x2="148.000000" y2="132.000000"  style="stroke:black; stroke-linecap:round; stroke-width:0.25;"/>
<line x1="156.000000" y1="36.000000" x2="148.000000" y2="36.000000"  style="stroke:black; stroke-linecap:round; stroke-width:0.25;"/>
<line x1="156.000000" y1="56.000000" x2="148.000000" y2="56.000000"  style="stroke:black; stroke-linecap:round; stroke-width:0.25;"/>
<line x1="156.000000" y1="84.000000" x2="156.000000" y2="112.000000"  style="stroke:black; stroke-linecap:round; stroke-width:0.25;"/>
<line x1="156.000000" y1="112.000000" x2="156.000000" y2="112.000000"  style="stroke:black; stroke-linecap:round; stroke-width:0.25;"/>
<line x1="156.000000" y1="112.000000" x2="160.000000" y2="112.000000"  style="stroke:black; stroke-linecap:round; stroke-width:0.25;"/>
<line x1="156.000000" y1="120.000000" x2="160.000000" y2="120.000000"  style="stroke:black; stroke-linecap:round; stroke-width:0.25;"/>
<line x1="160.000000" y1="36.000000" x2="156.000000" y2="36.000000"  style="stroke:black; stroke-linecap:round; stroke-width:0.25;"/>
<line x1="172.000000" y1="56.000000" x2="156.000000" y2="56.000000"  style="stroke:black; stroke-linecap:round; stroke-width:0.25;"/>
<line x1="184.000000" y1="116.000000" x2="188.000000" y2="116.000000"  style="stroke:black; stroke-linecap:round; stroke-width:0.25;"/>
<line x1="188.000000" y1="56.000000" x2="172.000000" y2="56.000000"  style="stroke:black; stroke-linecap:round; stroke-width:0.25;"/>
<line x1="188.000000" y1="64.000000" x2="196.000000" y2="64.000000"  style="stroke:black; stroke-linecap:round; stroke-width:0.25;"/>
<line x1="188.000000" y1="116.000000" x2="196.000000" y2="116.000000"  style="stroke:black; stroke-linecap:round; stroke-width:0.25;"/>
<line x1="196.000000" y1="64.000000" x2="196.000000" y2="108.000000"  style="stroke:black; stroke-linecap:round; stroke-width:0.25;"/>
<line x1="196.000000" y1="108.000000" x2="196.000000" y2="108.000000"  style="stroke:black; stroke-linecap:round; stroke-width:0.25;"/>
<line x1="196.000000" y1="108.000000" x2="200.000000" y2="108.000000"  style="stroke:black; stroke-linecap:round; stroke-width:0.25;"/>
<line x1="196.000000" y1="116.000000" x2="200.000000" y2="116.000000"  style="stroke:black; stroke-linecap:round; stroke-width:0.25;"/>
<line x1="224.000000" y1="112.000000" x2="228.000000" y2="112.000000"  style="stroke:black; stroke-linecap:round; stroke-width:0.25;"/>
<line x1="228.000000" y1="56.000000" x2="188.000000" y2="56.000000"  style="stroke:black; stroke-linecap:round; stroke-width:0.25;"/>
<line x1="228.000000" y1="56.000000" x2="228.000000" y2="56.000000"  style="stroke:black; stroke-linecap:round; stroke-width:0.25;"/>
<line x1="228.000000" y1="108.000000" x2="228.000000" y2="56.000000"  style="stroke:black; stroke-linecap:round; stroke-width:0.25;"/>
<line x1="228.000000" y1="112.000000" x2="230.000000" y2="112.000000"  style="stroke:black; stroke-linecap:round; stroke-width:0.25;"/>
<line x1="230.000000" y1="112.000000" x2="236.000000" y2="112.000000"  style="stroke:black; stroke-linecap:round; stroke-width:0.25;"/>
<line x1="236.000000" y1="92.000000" x2="244.000000" y2="92.000000"  style="stroke:black; stroke-linecap:round; stroke-width:0.25;"/>
<line x1="236.000000" y1="112.000000" x2="236.000000" y2="92.000000"  style="stroke:black; stroke-linecap:round; stroke-width:0.25;"/>
<line x1="236.000000" y1="112.000000" x2="236.000000" y2="112.000000"  style="stroke:black; stroke-linecap:round; stroke-width:0.25;"/>
<line x1="244.000000" y1="92.000000" x2="248.000000" y2="92.000000"  style="stroke:black; stroke-linecap:round; stroke-width:0.25;"/>
<line x1="248.000000" y1="92.000000" x2="252.000000" y2="92.000000"  style="stroke:black; stroke-linecap:round; stroke-width:0.25;"/>
<line x1="252.000000" y1="92.000000" x2="262.000000" y2="92.000000"  style="stroke:black; stroke-linecap:round; stroke-width:0.25;"/>
</svg>
