<?xml version="1.0"?>
<svg xmlns="http://www.w3.org/2000/svg" xmlns:xlink="http://www.w3.org/1999/xlink" viewBox="0 0 122.700000 92.000000" width="61.350000mm" height="46.000000mm" version="1.1">
<a xlink:href="process.svg">
<rect x="1.000000" y="1.000000" width="121.700000" height="91.000000" rx="0" ry="0" style="stroke:none;fill:#cccccc;"/>
<rect x="0.000000" y="0.000000" width="121.700000" height="91.000000" rx="0" ry="0" style="stroke:none;fill:#ffffff;"/>
</a>
<text x="10.000000" y="7.000000" font-family="Arial" font-size="7"></text>
<a xlink:href="shmeter-0x7ff2ddf9d7c0.svg">
<rect x="43.000000" y="35.000000" width="38.700000" height="24.000000" rx="0" ry="0" style="stroke:none;fill:#cccccc;"/>
<rect x="42.000000" y="34.000000" width="38.700000" height="24.000000" rx="0" ry="0" style="stroke:none;fill:#003366;"/>
</a>
<a xlink:href="shmeter-0x7ff2ddf9d7c0.svg">
<text x="61.350000" y="48.000000" font-family="Arial" font-size="7" text-anchor="middle" fill="#FFFFFF">shmeter</text>
</a>
<circle cx="44.000000" cy="36.000000" r="1"/>
<line x1="39.000000" y1="45.000000" x2="42.000000" y2="46.000000"  transform="rotate(0.000000,42.000000,46.000000)" style="stroke: black; stroke-width:0.25;"/>
<line x1="39.000000" y1="47.000000" x2="42.000000" y2="46.000000"  transform="rotate(0.000000,42.000000,46.000000)" style="stroke: black; stroke-width:0.25;"/>
<line x1="33.000000" y1="25.000000" x2="33.000000" y2="67.000000"  style="stroke: black; stroke-linecap:round; stroke-width:0.25; stroke-dasharray:3,3;"/>
<line x1="33.000000" y1="67.000000" x2="89.700000" y2="67.000000"  style="stroke: black; stroke-linecap:round; stroke-width:0.25; stroke-dasharray:3,3;"/>
<line x1="89.700000" y1="67.000000" x2="89.700000" y2="25.000000"  style="stroke: black; stroke-linecap:round; stroke-width:0.25; stroke-dasharray:3,3;"/>
<line x1="33.000000" y1="25.000000" x2="38.000000" y2="25.000000"  style="stroke: black; stroke-linecap:round; stroke-width:0.25; stroke-dasharray:3,3;"/>
<line x1="89.600000" y1="25.000000" x2="89.700000" y2="25.000000"  style="stroke: black; stroke-linecap:round; stroke-width:0.25; stroke-dasharray:3,3;"/>
<text x="38.000000" y="27.000000" font-family="Arial" font-size="7">vgroup(METERS)</text>
<line x1="15.000000" y1="15.000000" x2="15.000000" y2="77.000000"  style="stroke: black; stroke-linecap:round; stroke-width:0.25; stroke-dasharray:3,3;"/>
<line x1="15.000000" y1="77.000000" x2="107.700000" y2="77.000000"  style="stroke: black; stroke-linecap:round; stroke-width:0.25; stroke-dasharray:3,3;"/>
<line x1="107.700000" y1="77.000000" x2="107.700000" y2="15.000000"  style="stroke: black; stroke-linecap:round; stroke-width:0.25; stroke-dasharray:3,3;"/>
<line x1="15.000000" y1="15.000000" x2="20.000000" y2="15.000000"  style="stroke: black; stroke-linecap:round; stroke-width:0.25; stroke-dasharray:3,3;"/>
<line x1="107.700000" y1="15.000000" x2="107.700000" y2="15.000000"  style="stroke: black; stroke-linecap:round; stroke-width:0.25; stroke-dasharray:3,3;"/>
<text x="20.000000" y="17.000000" font-family="Arial" font-size="7">meters(closur..., lenv = {}])</text>
<line x1="109.700000" y1="45.000000" x2="112.700000" y2="46.000000"  transform="rotate(0.000000,112.700000,46.000000)" style="stroke: black; stroke-width:0.25;"/>
<line x1="109.700000" y1="47.000000" x2="112.700000" y2="46.000000"  transform="rotate(0.000000,112.700000,46.000000)" style="stroke: black; stroke-width:0.25;"/>
<line x1="10.000000" y1="46.000000" x2="20.000000" y2="46.000000"  style="stroke:black; stroke-linecap:round; stroke-width:0.25;"/>
<line x1="20.000000" y1="46.000000" x2="24.000000" y2="46.000000"  style="stroke:black; stroke-linecap:round; stroke-width:0.25;"/>
<line x1="24.000000" y1="46.000000" x2="28.000000" y2="46.000000"  style="stroke:black; stroke-linecap:round; stroke-width:0.25;"/>
<line x1="28.000000" y1="46.000000" x2="28.000000" y2="46.000000"  style="stroke:black; stroke-linecap:round; stroke-width:0.25;"/>
<line x1="28.000000" y1="46.000000" x2="38.000000" y2="46.000000"  style="stroke:black; stroke-linecap:round; stroke-width:0.25;"/>
<line x1="38.000000" y1="46.000000" x2="42.000000" y2="46.000000"  style="stroke:black; stroke-linecap:round; stroke-width:0.25;"/>
<line x1="80.700000" y1="46.000000" x2="84.700000" y2="46.000000"  style="stroke:black; stroke-linecap:round; stroke-width:0.25;"/>
<line x1="84.700000" y1="46.000000" x2="94.700000" y2="46.000000"  style="stroke:black; stroke-linecap:round; stroke-width:0.25;"/>
<line x1="94.700000" y1="46.000000" x2="94.700000" y2="46.000000"  style="stroke:black; stroke-linecap:round; stroke-width:0.25;"/>
<line x1="94.700000" y1="46.000000" x2="98.700000" y2="46.000000"  style="stroke:black; stroke-linecap:round; stroke-width:0.25;"/>
<line x1="98.700000" y1="46.000000" x2="102.700000" y2="46.000000"  style="stroke:black; stroke-linecap:round; stroke-width:0.25;"/>
<line x1="102.700000" y1="46.000000" x2="112.700000" y2="46.000000"  style="stroke:black; stroke-linecap:round; stroke-width:0.25;"/>
</svg>
