<?xml version="1.0"?>
<svg xmlns="http://www.w3.org/2000/svg" xmlns:xlink="http://www.w3.org/1999/xlink" viewBox="0 0 241.000000 156.000000" width="120.500000mm" height="78.000000mm" version="1.1">
<a xlink:href="sinpot-0x7ff2ddf2deb0.svg">
<rect x="1.000000" y="1.000000" width="240.000000" height="155.000000" rx="0" ry="0" style="stroke:none;fill:#cccccc;"/>
<rect x="0.000000" y="0.000000" width="240.000000" height="155.000000" rx="0" ry="0" style="stroke:none;fill:#ffffff;"/>
</a>
<text x="10.000000" y="7.000000" font-family="Arial" font-size="7"></text>
<rect x="73.250000" y="35.000000" width="25.800000" height="24.000000" rx="0" ry="0" style="stroke:none;fill:#cccccc;"/>
<rect x="72.250000" y="34.000000" width="25.800000" height="24.000000" rx="0" ry="0" style="stroke:none;fill:#f44800;"/>
<text x="85.150000" y="48.000000" font-family="Arial" font-size="7" text-anchor="middle" fill="#FFFFFF">65536</text>
<circle cx="74.250000" cy="36.000000" r="1"/>
<line x1="63.250000" y1="25.000000" x2="63.250000" y2="67.000000"  style="stroke: black; stroke-linecap:round; stroke-width:0.25; stroke-dasharray:3,3;"/>
<line x1="63.250000" y1="67.000000" x2="107.050000" y2="67.000000"  style="stroke: black; stroke-linecap:round; stroke-width:0.25; stroke-dasharray:3,3;"/>
<line x1="107.050000" y1="67.000000" x2="107.050000" y2="25.000000"  style="stroke: black; stroke-linecap:round; stroke-width:0.25; stroke-dasharray:3,3;"/>
<line x1="63.250000" y1="25.000000" x2="68.250000" y2="25.000000"  style="stroke: black; stroke-linecap:round; stroke-width:0.25; stroke-dasharray:3,3;"/>
<line x1="103.725000" y1="25.000000" x2="107.050000" y2="25.000000"  style="stroke: black; stroke-linecap:round; stroke-width:0.25; stroke-dasharray:3,3;"/>
<text x="68.250000" y="27.000000" font-family="Arial" font-size="7">tablesize</text>
<a xlink:href="sinwaveform-0x7ff2ddf219f0.svg">
<rect x="47.450000" y="77.000000" width="77.400000" height="24.000000" rx="0" ry="0" style="stroke:none;fill:#cccccc;"/>
<rect x="46.450000" y="76.000000" width="77.400000" height="24.000000" rx="0" ry="0" style="stroke:none;fill:#003366;"/>
</a>
<a xlink:href="sinwaveform-0x7ff2ddf219f0.svg">
<text x="85.150000" y="90.000000" font-family="Arial" font-size="7" text-anchor="middle" fill="#FFFFFF">sinwaveform(65536)</text>
</a>
<circle cx="48.450000" cy="78.000000" r="1"/>
<a xlink:href="phasor-0x7ff2ddf276b0.svg">
<rect x="25.000000" y="109.000000" width="90.300000" height="24.000000" rx="0" ry="0" style="stroke:none;fill:#cccccc;"/>
<rect x="24.000000" y="108.000000" width="90.300000" height="24.000000" rx="0" ry="0" style="stroke:none;fill:#003366;"/>
</a>
<a xlink:href="phasor-0x7ff2ddf276b0.svg">
<text x="69.150000" y="122.000000" font-family="Arial" font-size="7" text-anchor="middle" fill="#FFFFFF">phasor(65536)(0.01f)</text>
</a>
<circle cx="26.000000" cy="110.000000" r="1"/>
<rect x="123.300000" y="109.000000" width="24.000000" height="24.000000" rx="0" ry="0" style="stroke:none;fill:#cccccc;"/>
<rect x="122.300000" y="108.000000" width="24.000000" height="24.000000" rx="0" ry="0" style="stroke:none;fill:#4B71A1;"/>
<text x="134.300000" y="122.000000" font-family="Arial" font-size="7" text-anchor="middle" fill="#FFFFFF">int</text>
<circle cx="124.300000" cy="110.000000" r="1"/>
<line x1="119.300000" y1="119.000000" x2="122.300000" y2="120.000000"  transform="rotate(0.000000,122.300000,120.000000)" style="stroke: black; stroke-width:0.25;"/>
<line x1="119.300000" y1="121.000000" x2="122.300000" y2="120.000000"  transform="rotate(0.000000,122.300000,120.000000)" style="stroke: black; stroke-width:0.25;"/>
<rect x="171.300000" y="67.000000" width="38.700000" height="24.000000" rx="0" ry="0" style="stroke:none;fill:#cccccc;"/>
<rect x="170.300000" y="66.000000" width="38.700000" height="24.000000" rx="0" ry="0" style="stroke:none;fill:#4B71A1;"/>
<text x="189.650000" y="80.000000" font-family="Arial" font-size="7" text-anchor="middle" fill="#FFFFFF">rdtable</text>
<circle cx="172.300000" cy="68.000000" r="1"/>
<line x1="167.300000" y1="69.000000" x2="170.300000" y2="70.000000"  transform="rotate(0.000000,170.300000,70.000000)" style="stroke: black; stroke-width:0.25;"/>
<line x1="167.300000" y1="71.000000" x2="170.300000" y2="70.000000"  transform="rotate(0.000000,170.300000,70.000000)" style="stroke: black; stroke-width:0.25;"/>
<line x1="167.300000" y1="77.000000" x2="170.300000" y2="78.000000"  transform="rotate(0.000000,170.300000,78.000000)" style="stroke: black; stroke-width:0.25;"/>
<line x1="167.300000" y1="79.000000" x2="170.300000" y2="78.000000"  transform="rotate(0.000000,170.300000,78.000000)" style="stroke: black; stroke-width:0.25;"/>
<line x1="167.300000" y1="85.000000" x2="170.300000" y2="86.000000"  transform="rotate(0.000000,170.300000,86.000000)" style="stroke: black; stroke-width:0.25;"/>
<line x1="167.300000" y1="87.000000" x2="170.300000" y2="86.000000"  transform="rotate(0.000000,170.300000,86.000000)" style="stroke: black; stroke-width:0.25;"/>
<line x1="15.000000" y1="15.000000" x2="15.000000" y2="141.000000"  style="stroke: black; stroke-linecap:round; stroke-width:0.25; stroke-dasharray:3,3;"/>
<line x1="15.000000" y1="141.000000" x2="226.000000" y2="141.000000"  style="stroke: black; stroke-linecap:round; stroke-width:0.25; stroke-dasharray:3,3;"/>
<line x1="226.000000" y1="141.000000" x2="226.000000" y2="15.000000"  style="stroke: black; stroke-linecap:round; stroke-width:0.25; stroke-dasharray:3,3;"/>
<line x1="15.000000" y1="15.000000" x2="20.000000" y2="15.000000"  style="stroke: black; stroke-linecap:round; stroke-width:0.25; stroke-dasharray:3,3;"/>
<line x1="58.700000" y1="15.000000" x2="226.000000" y2="15.000000"  style="stroke: black; stroke-linecap:round; stroke-width:0.25; stroke-dasharray:3,3;"/>
<text x="20.000000" y="17.000000" font-family="Arial" font-size="7">osc(0.01f)</text>
<line x1="228.000000" y1="77.000000" x2="231.000000" y2="78.000000"  transform="rotate(0.000000,231.000000,78.000000)" style="stroke: black; stroke-width:0.25;"/>
<line x1="228.000000" y1="79.000000" x2="231.000000" y2="78.000000"  transform="rotate(0.000000,231.000000,78.000000)" style="stroke: black; stroke-width:0.25;"/>
<line x1="98.050000" y1="46.000000" x2="102.050000" y2="46.000000"  style="stroke:black; stroke-linecap:round; stroke-width:0.25;"/>
<line x1="102.050000" y1="46.000000" x2="112.050000" y2="46.000000"  style="stroke:black; stroke-linecap:round; stroke-width:0.25;"/>
<line x1="112.050000" y1="46.000000" x2="150.300000" y2="46.000000"  style="stroke:black; stroke-linecap:round; stroke-width:0.25;"/>
<line x1="114.300000" y1="120.000000" x2="118.300000" y2="120.000000"  style="stroke:black; stroke-linecap:round; stroke-width:0.25;"/>
<line x1="118.300000" y1="120.000000" x2="118.300000" y2="120.000000"  style="stroke:black; stroke-linecap:round; stroke-width:0.25;"/>
<line x1="118.300000" y1="120.000000" x2="122.300000" y2="120.000000"  style="stroke:black; stroke-linecap:round; stroke-width:0.25;"/>
<line x1="123.850000" y1="88.000000" x2="127.850000" y2="88.000000"  style="stroke:black; stroke-linecap:round; stroke-width:0.25;"/>
<line x1="127.850000" y1="88.000000" x2="150.300000" y2="88.000000"  style="stroke:black; stroke-linecap:round; stroke-width:0.25;"/>
<line x1="146.300000" y1="120.000000" x2="150.300000" y2="120.000000"  style="stroke:black; stroke-linecap:round; stroke-width:0.25;"/>
<line x1="150.300000" y1="46.000000" x2="166.300000" y2="46.000000"  style="stroke:black; stroke-linecap:round; stroke-width:0.25;"/>
<line x1="150.300000" y1="78.000000" x2="166.300000" y2="78.000000"  style="stroke:black; stroke-linecap:round; stroke-width:0.25;"/>
<line x1="150.300000" y1="88.000000" x2="150.300000" y2="78.000000"  style="stroke:black; stroke-linecap:round; stroke-width:0.25;"/>
<line x1="150.300000" y1="88.000000" x2="150.300000" y2="88.000000"  style="stroke:black; stroke-linecap:round; stroke-width:0.25;"/>
<line x1="150.300000" y1="120.000000" x2="158.300000" y2="120.000000"  style="stroke:black; stroke-linecap:round; stroke-width:0.25;"/>
<line x1="158.300000" y1="86.000000" x2="166.300000" y2="86.000000"  style="stroke:black; stroke-linecap:round; stroke-width:0.25;"/>
<line x1="158.300000" y1="120.000000" x2="158.300000" y2="86.000000"  style="stroke:black; stroke-linecap:round; stroke-width:0.25;"/>
<line x1="166.300000" y1="46.000000" x2="166.300000" y2="70.000000"  style="stroke:black; stroke-linecap:round; stroke-width:0.25;"/>
<line x1="166.300000" y1="70.000000" x2="166.300000" y2="70.000000"  style="stroke:black; stroke-linecap:round; stroke-width:0.25;"/>
<line x1="166.300000" y1="70.000000" x2="170.300000" y2="70.000000"  style="stroke:black; stroke-linecap:round; stroke-width:0.25;"/>
<line x1="166.300000" y1="78.000000" x2="170.300000" y2="78.000000"  style="stroke:black; stroke-linecap:round; stroke-width:0.25;"/>
<line x1="166.300000" y1="86.000000" x2="170.300000" y2="86.000000"  style="stroke:black; stroke-linecap:round; stroke-width:0.25;"/>
<line x1="209.000000" y1="78.000000" x2="213.000000" y2="78.000000"  style="stroke:black; stroke-linecap:round; stroke-width:0.25;"/>
<line x1="213.000000" y1="78.000000" x2="213.000000" y2="78.000000"  style="stroke:black; stroke-linecap:round; stroke-width:0.25;"/>
<line x1="213.000000" y1="78.000000" x2="217.000000" y2="78.000000"  style="stroke:black; stroke-linecap:round; stroke-width:0.25;"/>
<line x1="217.000000" y1="78.000000" x2="221.000000" y2="78.000000"  style="stroke:black; stroke-linecap:round; stroke-width:0.25;"/>
<line x1="221.000000" y1="78.000000" x2="231.000000" y2="78.000000"  style="stroke:black; stroke-linecap:round; stroke-width:0.25;"/>
</svg>
