<?xml version="1.0"?>
<svg xmlns="http://www.w3.org/2000/svg" xmlns:xlink="http://www.w3.org/1999/xlink" viewBox="0 0 276.600000 136.000000" width="138.300000mm" height="68.000000mm" version="1.1">
<rect x="1.000000" y="1.000000" width="275.600000" height="135.000000" rx="0" ry="0" style="stroke:none;fill:#cccccc;"/>
<rect x="0.000000" y="0.000000" width="275.600000" height="135.000000" rx="0" ry="0" style="stroke:none;fill:#ffffff;"/>
<text x="10.000000" y="7.000000" font-family="Arial" font-size="7"></text>
<a xlink:href="signal-0x7ffa1d0be760.svg">
<rect x="25.000000" y="41.000000" width="25.800000" height="24.000000" rx="0" ry="0" style="stroke:none;fill:#cccccc;"/>
<rect x="24.000000" y="40.000000" width="25.800000" height="24.000000" rx="0" ry="0" style="stroke:none;fill:#003366;"/>
</a>
<a xlink:href="signal-0x7ffa1d0be760.svg">
<text x="36.900000" y="54.000000" font-family="Arial" font-size="7" text-anchor="middle" fill="#FFFFFF">signal</text>
</a>
<circle cx="26.000000" cy="42.000000" r="1"/>
<a xlink:href="sinpot-0x7ffa1d0bedd0.svg">
<rect x="25.000000" y="73.000000" width="25.800000" height="24.000000" rx="0" ry="0" style="stroke:none;fill:#cccccc;"/>
<rect x="24.000000" y="72.000000" width="25.800000" height="24.000000" rx="0" ry="0" style="stroke:none;fill:#003366;"/>
</a>
<a xlink:href="sinpot-0x7ffa1d0bedd0.svg">
<text x="36.900000" y="86.000000" font-family="Arial" font-size="7" text-anchor="middle" fill="#FFFFFF">sinpot</text>
</a>
<circle cx="26.000000" cy="74.000000" r="1"/>
<a xlink:href="lcrpan-0x7ffa1d101160.svg">
<rect x="66.800000" y="57.000000" width="25.800000" height="24.000000" rx="0" ry="0" style="stroke:none;fill:#cccccc;"/>
<rect x="65.800000" y="56.000000" width="25.800000" height="24.000000" rx="0" ry="0" style="stroke:none;fill:#003366;"/>
</a>
<a xlink:href="lcrpan-0x7ffa1d101160.svg">
<text x="78.700000" y="70.000000" font-family="Arial" font-size="7" text-anchor="middle" fill="#FFFFFF">lcrpan</text>
</a>
<circle cx="67.800000" cy="58.000000" r="1"/>
<line x1="62.800000" y1="63.000000" x2="65.800000" y2="64.000000"  transform="rotate(0.000000,65.800000,64.000000)" style="stroke: black; stroke-width:0.25;"/>
<line x1="62.800000" y1="65.000000" x2="65.800000" y2="64.000000"  transform="rotate(0.000000,65.800000,64.000000)" style="stroke: black; stroke-width:0.25;"/>
<line x1="62.800000" y1="71.000000" x2="65.800000" y2="72.000000"  transform="rotate(0.000000,65.800000,72.000000)" style="stroke: black; stroke-width:0.25;"/>
<line x1="62.800000" y1="73.000000" x2="65.800000" y2="72.000000"  transform="rotate(0.000000,65.800000,72.000000)" style="stroke: black; stroke-width:0.25;"/>
<a xlink:href="meters-0x7ffa1b6fa350.svg">
<rect x="108.600000" y="25.000000" width="129.000000" height="24.000000" rx="0" ry="0" style="stroke:none;fill:#cccccc;"/>
<rect x="107.600000" y="24.000000" width="129.000000" height="24.000000" rx="0" ry="0" style="stroke:none;fill:#003366;"/>
</a>
<a xlink:href="meters-0x7ffa1b6fa350.svg">
<text x="172.100000" y="38.000000" font-family="Arial" font-size="7" text-anchor="middle" fill="#FFFFFF">meters(closur..., lenv = {}])</text>
</a>
<circle cx="109.600000" cy="26.000000" r="1"/>
<line x1="104.600000" y1="35.000000" x2="107.600000" y2="36.000000"  transform="rotate(0.000000,107.600000,36.000000)" style="stroke: black; stroke-width:0.25;"/>
<line x1="104.600000" y1="37.000000" x2="107.600000" y2="36.000000"  transform="rotate(0.000000,107.600000,36.000000)" style="stroke: black; stroke-width:0.25;"/>
<a xlink:href="meters-0x7ffa1b6fa350.svg">
<rect x="108.600000" y="57.000000" width="129.000000" height="24.000000" rx="0" ry="0" style="stroke:none;fill:#cccccc;"/>
<rect x="107.600000" y="56.000000" width="129.000000" height="24.000000" rx="0" ry="0" style="stroke:none;fill:#003366;"/>
</a>
<a xlink:href="meters-0x7ffa1b6fa350.svg">
<text x="172.100000" y="70.000000" font-family="Arial" font-size="7" text-anchor="middle" fill="#FFFFFF">meters(closur..., lenv = {}])</text>
</a>
<circle cx="109.600000" cy="58.000000" r="1"/>
<line x1="104.600000" y1="67.000000" x2="107.600000" y2="68.000000"  transform="rotate(0.000000,107.600000,68.000000)" style="stroke: black; stroke-width:0.25;"/>
<line x1="104.600000" y1="69.000000" x2="107.600000" y2="68.000000"  transform="rotate(0.000000,107.600000,68.000000)" style="stroke: black; stroke-width:0.25;"/>
<a xlink:href="meters-0x7ffa1b6fa350.svg">
<rect x="108.600000" y="89.000000" width="129.000000" height="24.000000" rx="0" ry="0" style="stroke:none;fill:#cccccc;"/>
<rect x="107.600000" y="88.000000" width="129.000000" height="24.000000" rx="0" ry="0" style="stroke:none;fill:#003366;"/>
</a>
<a xlink:href="meters-0x7ffa1b6fa350.svg">
<text x="172.100000" y="102.000000" font-family="Arial" font-size="7" text-anchor="middle" fill="#FFFFFF">meters(closur..., lenv = {}])</text>
</a>
<circle cx="109.600000" cy="90.000000" r="1"/>
<line x1="104.600000" y1="99.000000" x2="107.600000" y2="100.000000"  transform="rotate(0.000000,107.600000,100.000000)" style="stroke: black; stroke-width:0.25;"/>
<line x1="104.600000" y1="101.000000" x2="107.600000" y2="100.000000"  transform="rotate(0.000000,107.600000,100.000000)" style="stroke: black; stroke-width:0.25;"/>
<line x1="15.000000" y1="15.000000" x2="15.000000" y2="121.000000"  style="stroke: black; stroke-linecap:round; stroke-width:0.25; stroke-dasharray:3,3;"/>
<line x1="15.000000" y1="121.000000" x2="261.600000" y2="121.000000"  style="stroke: black; stroke-linecap:round; stroke-width:0.25; stroke-dasharray:3,3;"/>
<line x1="261.600000" y1="121.000000" x2="261.600000" y2="15.000000"  style="stroke: black; stroke-linecap:round; stroke-width:0.25; stroke-dasharray:3,3;"/>
<line x1="15.000000" y1="15.000000" x2="20.000000" y2="15.000000"  style="stroke: black; stroke-linecap:round; stroke-width:0.25; stroke-dasharray:3,3;"/>
<line x1="49.025000" y1="15.000000" x2="261.600000" y2="15.000000"  style="stroke: black; stroke-linecap:round; stroke-width:0.25; stroke-dasharray:3,3;"/>
<text x="20.000000" y="17.000000" font-family="Arial" font-size="7">process</text>
<line x1="263.600000" y1="59.000000" x2="266.600000" y2="60.000000"  transform="rotate(0.000000,266.600000,60.000000)" style="stroke: black; stroke-width:0.25;"/>
<line x1="263.600000" y1="61.000000" x2="266.600000" y2="60.000000"  transform="rotate(0.000000,266.600000,60.000000)" style="stroke: black; stroke-width:0.25;"/>
<line x1="263.600000" y1="67.000000" x2="266.600000" y2="68.000000"  transform="rotate(0.000000,266.600000,68.000000)" style="stroke: black; stroke-width:0.25;"/>
<line x1="263.600000" y1="69.000000" x2="266.600000" y2="68.000000"  transform="rotate(0.000000,266.600000,68.000000)" style="stroke: black; stroke-width:0.25;"/>
<line x1="263.600000" y1="75.000000" x2="266.600000" y2="76.000000"  transform="rotate(0.000000,266.600000,76.000000)" style="stroke: black; stroke-width:0.25;"/>
<line x1="263.600000" y1="77.000000" x2="266.600000" y2="76.000000"  transform="rotate(0.000000,266.600000,76.000000)" style="stroke: black; stroke-width:0.25;"/>
<line x1="49.800000" y1="52.000000" x2="53.800000" y2="52.000000"  style="stroke:black; stroke-linecap:round; stroke-width:0.25;"/>
<line x1="49.800000" y1="84.000000" x2="53.800000" y2="84.000000"  style="stroke:black; stroke-linecap:round; stroke-width:0.25;"/>
<line x1="53.800000" y1="52.000000" x2="61.800000" y2="52.000000"  style="stroke:black; stroke-linecap:round; stroke-width:0.25;"/>
<line x1="53.800000" y1="72.000000" x2="61.800000" y2="72.000000"  style="stroke:black; stroke-linecap:round; stroke-width:0.25;"/>
<line x1="53.800000" y1="84.000000" x2="53.800000" y2="72.000000"  style="stroke:black; stroke-linecap:round; stroke-width:0.25;"/>
<line x1="53.800000" y1="84.000000" x2="53.800000" y2="84.000000"  style="stroke:black; stroke-linecap:round; stroke-width:0.25;"/>
<line x1="61.800000" y1="52.000000" x2="61.800000" y2="64.000000"  style="stroke:black; stroke-linecap:round; stroke-width:0.25;"/>
<line x1="61.800000" y1="64.000000" x2="61.800000" y2="64.000000"  style="stroke:black; stroke-linecap:round; stroke-width:0.25;"/>
<line x1="61.800000" y1="64.000000" x2="65.800000" y2="64.000000"  style="stroke:black; stroke-linecap:round; stroke-width:0.25;"/>
<line x1="61.800000" y1="72.000000" x2="65.800000" y2="72.000000"  style="stroke:black; stroke-linecap:round; stroke-width:0.25;"/>
<line x1="91.600000" y1="60.000000" x2="95.600000" y2="60.000000"  style="stroke:black; stroke-linecap:round; stroke-width:0.25;"/>
<line x1="91.600000" y1="68.000000" x2="95.600000" y2="68.000000"  style="stroke:black; stroke-linecap:round; stroke-width:0.25;"/>
<line x1="91.600000" y1="76.000000" x2="95.600000" y2="76.000000"  style="stroke:black; stroke-linecap:round; stroke-width:0.25;"/>
<line x1="95.600000" y1="36.000000" x2="103.600000" y2="36.000000"  style="stroke:black; stroke-linecap:round; stroke-width:0.25;"/>
<line x1="95.600000" y1="60.000000" x2="95.600000" y2="36.000000"  style="stroke:black; stroke-linecap:round; stroke-width:0.25;"/>
<line x1="95.600000" y1="60.000000" x2="95.600000" y2="60.000000"  style="stroke:black; stroke-linecap:round; stroke-width:0.25;"/>
<line x1="95.600000" y1="68.000000" x2="103.600000" y2="68.000000"  style="stroke:black; stroke-linecap:round; stroke-width:0.25;"/>
<line x1="95.600000" y1="76.000000" x2="103.600000" y2="76.000000"  style="stroke:black; stroke-linecap:round; stroke-width:0.25;"/>
<line x1="103.600000" y1="36.000000" x2="107.600000" y2="36.000000"  style="stroke:black; stroke-linecap:round; stroke-width:0.25;"/>
<line x1="103.600000" y1="68.000000" x2="107.600000" y2="68.000000"  style="stroke:black; stroke-linecap:round; stroke-width:0.25;"/>
<line x1="103.600000" y1="76.000000" x2="103.600000" y2="100.000000"  style="stroke:black; stroke-linecap:round; stroke-width:0.25;"/>
<line x1="103.600000" y1="100.000000" x2="103.600000" y2="100.000000"  style="stroke:black; stroke-linecap:round; stroke-width:0.25;"/>
<line x1="103.600000" y1="100.000000" x2="107.600000" y2="100.000000"  style="stroke:black; stroke-linecap:round; stroke-width:0.25;"/>
<line x1="236.600000" y1="36.000000" x2="240.600000" y2="36.000000"  style="stroke:black; stroke-linecap:round; stroke-width:0.25;"/>
<line x1="236.600000" y1="68.000000" x2="240.600000" y2="68.000000"  style="stroke:black; stroke-linecap:round; stroke-width:0.25;"/>
<line x1="236.600000" y1="100.000000" x2="240.600000" y2="100.000000"  style="stroke:black; stroke-linecap:round; stroke-width:0.25;"/>
<line x1="240.600000" y1="36.000000" x2="248.600000" y2="36.000000"  style="stroke:black; stroke-linecap:round; stroke-width:0.25;"/>
<line x1="240.600000" y1="68.000000" x2="248.600000" y2="68.000000"  style="stroke:black; stroke-linecap:round; stroke-width:0.25;"/>
<line x1="240.600000" y1="76.000000" x2="248.600000" y2="76.000000"  style="stroke:black; stroke-linecap:round; stroke-width:0.25;"/>
<line x1="240.600000" y1="100.000000" x2="240.600000" y2="76.000000"  style="stroke:black; stroke-linecap:round; stroke-width:0.25;"/>
<line x1="240.600000" y1="100.000000" x2="240.600000" y2="100.000000"  style="stroke:black; stroke-linecap:round; stroke-width:0.25;"/>
<line x1="248.600000" y1="36.000000" x2="248.600000" y2="60.000000"  style="stroke:black; stroke-linecap:round; stroke-width:0.25;"/>
<line x1="248.600000" y1="60.000000" x2="248.600000" y2="60.000000"  style="stroke:black; stroke-linecap:round; stroke-width:0.25;"/>
<line x1="248.600000" y1="60.000000" x2="252.600000" y2="60.000000"  style="stroke:black; stroke-linecap:round; stroke-width:0.25;"/>
<line x1="248.600000" y1="68.000000" x2="252.600000" y2="68.000000"  style="stroke:black; stroke-linecap:round; stroke-width:0.25;"/>
<line x1="248.600000" y1="76.000000" x2="252.600000" y2="76.000000"  style="stroke:black; stroke-linecap:round; stroke-width:0.25;"/>
<line x1="252.600000" y1="60.000000" x2="256.600000" y2="60.000000"  style="stroke:black; stroke-linecap:round; stroke-width:0.25;"/>
<line x1="252.600000" y1="68.000000" x2="256.600000" y2="68.000000"  style="stroke:black; stroke-linecap:round; stroke-width:0.25;"/>
<line x1="252.600000" y1="76.000000" x2="256.600000" y2="76.000000"  style="stroke:black; stroke-linecap:round; stroke-width:0.25;"/>
<line x1="256.600000" y1="60.000000" x2="266.600000" y2="60.000000"  style="stroke:black; stroke-linecap:round; stroke-width:0.25;"/>
<line x1="256.600000" y1="68.000000" x2="266.600000" y2="68.000000"  style="stroke:black; stroke-linecap:round; stroke-width:0.25;"/>
<line x1="256.600000" y1="76.000000" x2="266.600000" y2="76.000000"  style="stroke:black; stroke-linecap:round; stroke-width:0.25;"/>
</svg>
