<?xml version="1.0"?>
<svg xmlns="http://www.w3.org/2000/svg" xmlns:xlink="http://www.w3.org/1999/xlink" viewBox="0 0 365.300000 104.000000" width="182.650000mm" height="52.000000mm" version="1.1">
<a xlink:href="process.svg">
<rect x="1.000000" y="1.000000" width="364.300000" height="103.000000" rx="0" ry="0" style="stroke:none;fill:#cccccc;"/>
<rect x="0.000000" y="0.000000" width="364.300000" height="103.000000" rx="0" ry="0" style="stroke:none;fill:#ffffff;"/>
</a>
<text x="10.000000" y="7.000000" font-family="Arial" font-size="7"></text>
<a xlink:href="osc-0x7ff2ddf2db70.svg">
<rect x="25.000000" y="25.000000" width="51.600000" height="24.000000" rx="0" ry="0" style="stroke:none;fill:#cccccc;"/>
<rect x="24.000000" y="24.000000" width="51.600000" height="24.000000" rx="0" ry="0" style="stroke:none;fill:#003366;"/>
</a>
<a xlink:href="osc-0x7ff2ddf2db70.svg">
<text x="49.800000" y="38.000000" font-family="Arial" font-size="7" text-anchor="middle" fill="#FFFFFF">osc(0.01f)</text>
</a>
<circle cx="26.000000" cy="26.000000" r="1"/>
<rect x="38.800000" y="57.000000" width="24.000000" height="24.000000" rx="0" ry="0" style="stroke:none;fill:#cccccc;"/>
<rect x="37.800000" y="56.000000" width="24.000000" height="24.000000" rx="0" ry="0" style="stroke:none;fill:#f44800;"/>
<text x="49.800000" y="70.000000" font-family="Arial" font-size="7" text-anchor="middle" fill="#FFFFFF">0.5</text>
<circle cx="39.800000" cy="58.000000" r="1"/>
<rect x="92.600000" y="41.000000" width="24.000000" height="24.000000" rx="0" ry="0" style="stroke:none;fill:#cccccc;"/>
<rect x="91.600000" y="40.000000" width="24.000000" height="24.000000" rx="0" ry="0" style="stroke:none;fill:#4B71A1;"/>
<text x="103.600000" y="54.000000" font-family="Arial" font-size="7" text-anchor="middle" fill="#FFFFFF">*</text>
<circle cx="93.600000" cy="42.000000" r="1"/>
<line x1="88.600000" y1="47.000000" x2="91.600000" y2="48.000000"  transform="rotate(0.000000,91.600000,48.000000)" style="stroke: black; stroke-width:0.25;"/>
<line x1="88.600000" y1="49.000000" x2="91.600000" y2="48.000000"  transform="rotate(0.000000,91.600000,48.000000)" style="stroke: black; stroke-width:0.25;"/>
<line x1="88.600000" y1="55.000000" x2="91.600000" y2="56.000000"  transform="rotate(0.000000,91.600000,56.000000)" style="stroke: black; stroke-width:0.25;"/>
<line x1="88.600000" y1="57.000000" x2="91.600000" y2="56.000000"  transform="rotate(0.000000,91.600000,56.000000)" style="stroke: black; stroke-width:0.25;"/>
<rect x="150.600000" y="45.000000" width="141.900000" height="24.000000" rx="0" ry="0" style="stroke:none;fill:#cccccc;"/>
<rect x="149.600000" y="44.000000" width="141.900000" height="24.000000" rx="0" ry="0" style="stroke:none;fill:#477881;"/>
<text x="220.550000" y="58.000000" font-family="Arial" font-size="7" text-anchor="middle" fill="#FFFFFF">hbargraph(DIRECTION, -0.5f, 0.5f)</text>
<circle cx="151.600000" cy="46.000000" r="1"/>
<line x1="146.600000" y1="55.000000" x2="149.600000" y2="56.000000"  transform="rotate(0.000000,149.600000,56.000000)" style="stroke: black; stroke-width:0.25;"/>
<line x1="146.600000" y1="57.000000" x2="149.600000" y2="56.000000"  transform="rotate(0.000000,149.600000,56.000000)" style="stroke: black; stroke-width:0.25;"/>
<rect x="308.500000" y="41.000000" width="25.800000" height="24.000000" rx="0" ry="0" style="stroke:none;fill:#cccccc;"/>
<rect x="307.500000" y="40.000000" width="25.800000" height="24.000000" rx="0" ry="0" style="stroke:none;fill:#4B71A1;"/>
<text x="320.400000" y="54.000000" font-family="Arial" font-size="7" text-anchor="middle" fill="#FFFFFF">attach</text>
<circle cx="309.500000" cy="42.000000" r="1"/>
<line x1="304.500000" y1="47.000000" x2="307.500000" y2="48.000000"  transform="rotate(0.000000,307.500000,48.000000)" style="stroke: black; stroke-width:0.25;"/>
<line x1="304.500000" y1="49.000000" x2="307.500000" y2="48.000000"  transform="rotate(0.000000,307.500000,48.000000)" style="stroke: black; stroke-width:0.25;"/>
<line x1="304.500000" y1="55.000000" x2="307.500000" y2="56.000000"  transform="rotate(0.000000,307.500000,56.000000)" style="stroke: black; stroke-width:0.25;"/>
<line x1="304.500000" y1="57.000000" x2="307.500000" y2="56.000000"  transform="rotate(0.000000,307.500000,56.000000)" style="stroke: black; stroke-width:0.25;"/>
<line x1="15.000000" y1="15.000000" x2="15.000000" y2="89.000000"  style="stroke: black; stroke-linecap:round; stroke-width:0.25; stroke-dasharray:3,3;"/>
<line x1="15.000000" y1="89.000000" x2="350.300000" y2="89.000000"  style="stroke: black; stroke-linecap:round; stroke-width:0.25; stroke-dasharray:3,3;"/>
<line x1="350.300000" y1="89.000000" x2="350.300000" y2="15.000000"  style="stroke: black; stroke-linecap:round; stroke-width:0.25; stroke-dasharray:3,3;"/>
<line x1="15.000000" y1="15.000000" x2="20.000000" y2="15.000000"  style="stroke: black; stroke-linecap:round; stroke-width:0.25; stroke-dasharray:3,3;"/>
<line x1="45.800000" y1="15.000000" x2="350.300000" y2="15.000000"  style="stroke: black; stroke-linecap:round; stroke-width:0.25; stroke-dasharray:3,3;"/>
<text x="20.000000" y="17.000000" font-family="Arial" font-size="7">sinpot</text>
<line x1="352.300000" y1="51.000000" x2="355.300000" y2="52.000000"  transform="rotate(0.000000,355.300000,52.000000)" style="stroke: black; stroke-width:0.25;"/>
<line x1="352.300000" y1="53.000000" x2="355.300000" y2="52.000000"  transform="rotate(0.000000,355.300000,52.000000)" style="stroke: black; stroke-width:0.25;"/>
<line x1="61.800000" y1="68.000000" x2="65.800000" y2="68.000000"  style="stroke:black; stroke-linecap:round; stroke-width:0.25;"/>
<line x1="65.800000" y1="68.000000" x2="79.600000" y2="68.000000"  style="stroke:black; stroke-linecap:round; stroke-width:0.25;"/>
<line x1="75.600000" y1="36.000000" x2="79.600000" y2="36.000000"  style="stroke:black; stroke-linecap:round; stroke-width:0.25;"/>
<line x1="79.600000" y1="36.000000" x2="87.600000" y2="36.000000"  style="stroke:black; stroke-linecap:round; stroke-width:0.25;"/>
<line x1="79.600000" y1="56.000000" x2="87.600000" y2="56.000000"  style="stroke:black; stroke-linecap:round; stroke-width:0.25;"/>
<line x1="79.600000" y1="68.000000" x2="79.600000" y2="56.000000"  style="stroke:black; stroke-linecap:round; stroke-width:0.25;"/>
<line x1="79.600000" y1="68.000000" x2="79.600000" y2="68.000000"  style="stroke:black; stroke-linecap:round; stroke-width:0.25;"/>
<line x1="87.600000" y1="36.000000" x2="87.600000" y2="48.000000"  style="stroke:black; stroke-linecap:round; stroke-width:0.25;"/>
<line x1="87.600000" y1="48.000000" x2="87.600000" y2="48.000000"  style="stroke:black; stroke-linecap:round; stroke-width:0.25;"/>
<line x1="87.600000" y1="48.000000" x2="91.600000" y2="48.000000"  style="stroke:black; stroke-linecap:round; stroke-width:0.25;"/>
<line x1="87.600000" y1="56.000000" x2="91.600000" y2="56.000000"  style="stroke:black; stroke-linecap:round; stroke-width:0.25;"/>
<line x1="115.600000" y1="52.000000" x2="119.600000" y2="52.000000"  style="stroke:black; stroke-linecap:round; stroke-width:0.25;"/>
<line x1="119.600000" y1="52.000000" x2="145.600000" y2="56.000000"  style="stroke:black; stroke-linecap:round; stroke-width:0.25;"/>
<line x1="119.600000" y1="52.000000" x2="145.600000" y2="36.000000"  style="stroke:black; stroke-linecap:round; stroke-width:0.25;"/>
<line x1="145.600000" y1="56.000000" x2="149.600000" y2="56.000000"  style="stroke:black; stroke-linecap:round; stroke-width:0.25;"/>
<line x1="145.600000" y1="36.000000" x2="220.550000" y2="36.000000"  style="stroke:black; stroke-linecap:round; stroke-width:0.25;"/>
<line x1="220.550000" y1="36.000000" x2="295.500000" y2="36.000000"  style="stroke:black; stroke-linecap:round; stroke-width:0.25;"/>
<line x1="291.500000" y1="56.000000" x2="295.500000" y2="56.000000"  style="stroke:black; stroke-linecap:round; stroke-width:0.25;"/>
<line x1="295.500000" y1="36.000000" x2="303.500000" y2="36.000000"  style="stroke:black; stroke-linecap:round; stroke-width:0.25;"/>
<line x1="295.500000" y1="56.000000" x2="303.500000" y2="56.000000"  style="stroke:black; stroke-linecap:round; stroke-width:0.25;"/>
<line x1="303.500000" y1="36.000000" x2="303.500000" y2="48.000000"  style="stroke:black; stroke-linecap:round; stroke-width:0.25;"/>
<line x1="303.500000" y1="48.000000" x2="303.500000" y2="48.000000"  style="stroke:black; stroke-linecap:round; stroke-width:0.25;"/>
<line x1="303.500000" y1="48.000000" x2="307.500000" y2="48.000000"  style="stroke:black; stroke-linecap:round; stroke-width:0.25;"/>
<line x1="303.500000" y1="56.000000" x2="307.500000" y2="56.000000"  style="stroke:black; stroke-linecap:round; stroke-width:0.25;"/>
<line x1="333.300000" y1="52.000000" x2="337.300000" y2="52.000000"  style="stroke:black; stroke-linecap:round; stroke-width:0.25;"/>
<line x1="337.300000" y1="52.000000" x2="341.300000" y2="52.000000"  style="stroke:black; stroke-linecap:round; stroke-width:0.25;"/>
<line x1="337.300000" y1="52.000000" x2="337.300000" y2="52.000000"  style="stroke:black; stroke-linecap:round; stroke-width:0.25;"/>
<line x1="341.300000" y1="52.000000" x2="345.300000" y2="52.000000"  style="stroke:black; stroke-linecap:round; stroke-width:0.25;"/>
<line x1="345.300000" y1="52.000000" x2="355.300000" y2="52.000000"  style="stroke:black; stroke-linecap:round; stroke-width:0.25;"/>
</svg>
